<svg xmlns="http://www.w3.org/2000/svg" xmlns:xlink="http://www.w3.org/1999/xlink" width="500" zoomAndPan="magnify" viewBox="0 0 375 374.999991" height="500" preserveAspectRatio="xMidYMid meet" version="1.0"><path fill="#c7c5f2" d="M 334.449219 375.054688 L 56.367188 375.054688 C 56.367188 375.054688 13.277344 332.503906 68.714844 272.789062 C 77.652344 263.160156 84.90625 252.125 90.046875 240.082031 L 90.046875 240.074219 C 90.054688 240.066406 90.0625 240.050781 90.0625 240.035156 C 91.058594 237.71875 91.96875 235.359375 92.796875 232.972656 C 100.1875 211.664062 118.84375 181.039062 165.625 171.371094 L 156.277344 191.539062 C 154.515625 195.328125 158.121094 199.386719 162.09375 198.09375 L 180.199219 192.199219 L 195.394531 187.25 L 215.222656 207.457031 C 218.085938 210.382812 222.582031 210.957031 226.089844 208.847656 L 267.902344 183.695312 C 267.902344 183.695312 321.890625 203.355469 324.941406 257.808594 C 325.164062 261.878906 325.65625 265.925781 326.410156 269.917969 C 328.125 278.902344 331.222656 287.582031 335.871094 295.511719 C 344.503906 310.238281 351.636719 336.253906 334.449219 375.054688 Z M 334.449219 375.054688 " fill-opacity="1" fill-rule="nonzero"/><path fill="#a47e70" d="M 162.085938 198.09375 L 195.386719 187.25 L 208.3125 200.425781 L 166.019531 250.5 C 164.25 252.597656 160.824219 251.296875 160.886719 248.550781 Z M 235.347656 15.957031 C 196.835938 0.03125 151.703125 5.757812 139.144531 36.125 C 126.589844 66.488281 144.421875 113.046875 182.945312 128.972656 C 221.457031 144.898438 266.628906 132.746094 279.1875 102.382812 C 291.734375 72.015625 273.863281 31.886719 235.347656 15.957031 Z M 203.09375 142.207031 C 172.382812 154.117188 165.625 171.371094 165.625 171.371094 L 156.277344 191.539062 C 154.515625 195.328125 158.121094 199.386719 162.09375 198.09375 L 180.199219 192.199219 L 195.394531 187.25 L 215.222656 207.457031 C 218.085938 210.382812 222.582031 210.957031 226.089844 208.847656 L 267.902344 183.695312 C 247.164062 131.523438 203.09375 142.207031 203.09375 142.207031 Z M 203.09375 142.207031 " fill-opacity="1" fill-rule="nonzero"/><path fill="#f9baa0" d="M 244.003906 85.070312 L 244.003906 110.527344 C 244.003906 126.003906 236.773438 139.792969 225.503906 148.695312 C 217.21875 155.238281 206.769531 159.144531 195.394531 159.144531 C 168.546875 159.144531 146.785156 137.378906 146.785156 110.527344 L 146.785156 85.070312 C 146.785156 83.566406 146.851562 82.085938 146.988281 80.621094 C 147.90625 70.558594 151.886719 61.375 157.992188 54.03125 C 166.902344 43.292969 180.34375 36.460938 195.394531 36.460938 C 208.820312 36.460938 220.964844 41.898438 229.765625 50.699219 C 238.566406 59.492188 244.003906 71.644531 244.003906 85.070312 Z M 244.003906 85.070312 " fill-opacity="1" fill-rule="nonzero"/><path fill="#2b1200" d="M 243.496094 59.980469 C 246.828125 62.78125 248.863281 67.070312 248.554688 71.832031 C 248.105469 78.789062 242.492188 84.507812 235.542969 85.070312 C 229.695312 85.546875 224.511719 82.480469 221.90625 77.792969 C 220.621094 75.464844 217.886719 74.460938 215.335938 75.21875 C 214.046875 75.601562 212.679688 75.8125 211.265625 75.8125 C 205.660156 75.8125 200.824219 72.570312 198.5 67.863281 C 197.421875 65.675781 194.695312 64.832031 192.539062 65.976562 C 189.902344 67.375 186.894531 68.164062 183.699219 68.164062 C 183.207031 68.164062 182.71875 68.148438 182.242188 68.105469 C 180.03125 67.9375 177.859375 68.96875 176.710938 70.867188 C 174.214844 74.984375 169.703125 77.734375 164.539062 77.734375 C 164.210938 77.734375 163.886719 77.726562 163.574219 77.703125 C 160.703125 77.507812 157.910156 78.949219 156.738281 81.578125 C 154.925781 85.65625 151.25 88.722656 146.792969 89.703125 L 146.792969 104.929688 C 140.488281 104.472656 135.515625 99.210938 135.515625 92.785156 C 135.515625 91.105469 135.863281 89.496094 136.484375 88.039062 C 132.613281 85.730469 129.894531 81.644531 129.53125 76.9375 C 129.203125 72.660156 130.761719 68.75 133.464844 65.941406 C 135.976562 63.328125 137.183594 59.707031 136.394531 56.175781 C 136.175781 55.179688 136.054688 54.152344 136.054688 53.089844 C 136.054688 45.222656 142.433594 38.851562 150.292969 38.851562 C 150.292969 30.984375 156.671875 24.613281 164.53125 24.613281 C 168.433594 24.613281 171.957031 26.183594 174.523438 28.722656 C 176.128906 30.316406 178.398438 30.976562 180.636719 30.605469 C 181.632812 30.445312 182.652344 30.355469 183.699219 30.355469 C 186.199219 30.355469 188.589844 30.847656 190.777344 31.734375 C 193.238281 27.476562 197.832031 24.605469 203.101562 24.605469 C 210.96875 24.605469 217.339844 30.984375 217.339844 38.84375 C 217.339844 38.914062 217.332031 38.988281 217.332031 39.058594 C 220.136719 37.089844 223.667969 36.09375 227.464844 36.597656 C 233.554688 37.417969 238.519531 42.207031 239.539062 48.269531 C 239.742188 49.445312 239.789062 50.59375 239.707031 51.707031 C 239.484375 54.90625 241.035156 57.914062 243.496094 59.980469 Z M 197.164062 91.804688 C 194.558594 91.804688 192.441406 93.917969 192.441406 96.523438 C 192.441406 99.132812 194.558594 101.246094 197.164062 101.246094 C 199.769531 101.246094 201.886719 99.132812 201.886719 96.523438 C 201.894531 93.917969 199.777344 91.804688 197.164062 91.804688 Z M 166.226562 91.804688 C 163.621094 91.804688 161.507812 93.917969 161.507812 96.523438 C 161.507812 99.132812 163.621094 101.246094 166.226562 101.246094 C 168.835938 101.246094 170.949219 99.132812 170.949219 96.523438 C 170.949219 93.917969 168.835938 91.804688 166.226562 91.804688 Z M 166.226562 91.804688 " fill-opacity="1" fill-rule="nonzero"/><path fill="#f9baa0" d="M 269.886719 103.007812 C 268.882812 115.839844 256.664062 128.75 242.933594 127.671875 C 242.175781 127.613281 241.4375 127.5 240.707031 127.363281 L 239.828125 156.039062 L 180.683594 187.257812 L 180.683594 109.492188 L 221.601562 109.492188 C 220.425781 106.089844 219.90625 102.535156 220.171875 99.097656 C 220.734375 91.925781 224.722656 85.777344 230.53125 81.941406 C 235.105469 78.925781 240.800781 77.347656 246.859375 77.824219 C 252.746094 78.28125 258.015625 80.621094 262.011719 84.179688 C 267.355469 88.867188 270.460938 95.679688 269.886719 103.007812 Z M 269.886719 103.007812 " fill-opacity="1" fill-rule="nonzero"/><path fill="#2b1200" d="M 225.503906 148.695312 C 216.589844 159.425781 203.148438 166.265625 188.097656 166.265625 C 185.582031 166.265625 183.105469 166.070312 180.691406 165.703125 L 180.691406 156.878906 C 185.324219 158.347656 190.269531 159.144531 195.394531 159.144531 C 206.769531 159.144531 217.21875 155.238281 225.503906 148.695312 Z M 225.496094 352.929688 C 197.429688 362.835938 174.402344 357.441406 161.546875 352.332031 C 156.15625 350.183594 151.171875 347.152344 146.609375 343.558594 C 124.367188 326.046875 106.890625 331.5625 106.890625 331.5625 L 106.890625 375.054688 L 225.503906 375.054688 C 222.597656 360.941406 225.382812 353.242188 225.496094 352.929688 Z M 225.496094 352.929688 " fill-opacity="1" fill-rule="nonzero"/><path fill="#9895d1" d="M 334.449219 375.054688 L 225.503906 375.054688 C 223.074219 363.25 224.617188 355.953125 225.261719 353.691406 C 224.851562 353.5625 224.609375 353.136719 224.722656 352.71875 C 229.46875 335.359375 237.945312 327.574219 244.769531 321.316406 C 251.257812 315.355469 256.382812 310.648438 256.285156 300.082031 C 255.875 253.796875 296.464844 223.867188 296.875 223.566406 C 297.238281 223.304688 297.734375 223.390625 298 223.746094 C 298.257812 224.105469 298.179688 224.605469 297.824219 224.871094 C 297.421875 225.160156 257.5 254.617188 257.902344 300.0625 C 258 311.359375 252.378906 316.523438 245.863281 322.507812 C 238.863281 328.933594 230.933594 336.214844 226.308594 353.074219 C 344.027344 373.824219 326.429688 269.925781 326.429688 269.925781 C 328.140625 278.910156 331.238281 287.589844 335.886719 295.519531 C 344.503906 310.238281 351.636719 336.253906 334.449219 375.054688 Z M 215.898438 295.320312 C 214.59375 295.320312 213.277344 295.164062 211.949219 294.835938 L 200.648438 292.035156 C 191.863281 289.855469 186.492188 280.945312 188.664062 272.160156 L 198.425781 232.753906 C 199.320312 229.132812 202.996094 226.921875 206.617188 227.816406 L 236.660156 235.253906 C 238.414062 235.691406 239.894531 236.785156 240.828125 238.328125 C 241.757812 239.871094 242.03125 241.691406 241.597656 243.445312 L 231.832031 282.851562 C 229.976562 290.316406 223.257812 295.320312 215.898438 295.320312 Z M 230.265625 282.464844 L 240.03125 243.058594 C 240.714844 240.300781 239.023438 237.5 236.265625 236.816406 L 206.222656 229.375 C 203.464844 228.691406 200.664062 230.382812 199.980469 233.140625 L 190.214844 272.546875 C 188.253906 280.46875 193.101562 288.511719 201.027344 290.476562 L 212.328125 293.277344 C 220.257812 295.238281 228.300781 290.386719 230.265625 282.464844 Z M 111.386719 240.019531 C 111.347656 239.574219 110.953125 239.238281 110.515625 239.285156 C 110.074219 239.324219 109.746094 239.710938 109.785156 240.15625 C 112.769531 275.265625 105.917969 288.828125 102.964844 292.921875 C 74.015625 291.449219 89.484375 241.84375 90.046875 240.082031 C 84.90625 252.125 77.652344 263.160156 68.714844 272.789062 C 13.277344 332.503906 56.367188 375.054688 56.367188 375.054688 L 106.890625 375.054688 L 106.890625 331.5625 C 90.023438 318.960938 99.722656 300.707031 103.527344 294.84375 C 106.269531 291.714844 114.675781 278.773438 111.386719 240.019531 Z M 111.386719 240.019531 " fill-opacity="1" fill-rule="nonzero"/><path fill="#2b1200" d="M 268.585938 183.285156 C 268.820312 183.664062 268.691406 184.160156 268.3125 184.386719 L 226.5 209.539062 C 224.949219 210.472656 223.226562 210.929688 221.519531 210.929688 C 219.003906 210.929688 216.511719 209.941406 214.644531 208.027344 L 195.171875 188.175781 L 162.34375 198.867188 C 160.195312 199.566406 157.933594 198.953125 156.4375 197.265625 C 154.941406 195.574219 154.597656 193.257812 155.546875 191.207031 L 164.894531 171.042969 C 165.078125 170.640625 165.5625 170.464844 165.964844 170.648438 C 166.367188 170.832031 166.542969 171.316406 166.355469 171.71875 L 157.011719 191.882812 C 156.335938 193.339844 156.574219 194.996094 157.644531 196.195312 C 158.714844 197.394531 160.324219 197.835938 161.851562 197.335938 L 179.003906 191.753906 L 170.425781 177.542969 C 170.195312 177.164062 170.324219 176.664062 170.699219 176.441406 C 171.078125 176.207031 171.578125 176.335938 171.804688 176.714844 L 180.570312 191.242188 L 195.152344 186.496094 C 195.445312 186.398438 195.765625 186.476562 195.972656 186.695312 L 215.800781 206.902344 C 218.417969 209.570312 222.488281 210.085938 225.6875 208.164062 L 267.5 183.011719 C 267.863281 182.777344 268.359375 182.898438 268.585938 183.285156 Z M 288.726562 293.097656 C 288.347656 292.863281 287.859375 292.976562 287.617188 293.355469 C 287.382812 293.734375 287.496094 294.222656 287.875 294.464844 C 288.15625 294.644531 315.707031 312.410156 315.707031 354.289062 C 315.707031 354.730469 316.066406 355.089844 316.511719 355.089844 C 316.953125 355.089844 317.3125 354.730469 317.3125 354.289062 C 317.3125 311.488281 289.015625 293.285156 288.726562 293.097656 Z M 288.726562 293.097656 " fill-opacity="1" fill-rule="nonzero"/><path fill="#f9baa0" d="M 304.074219 291.730469 L 285.148438 322.746094 C 282.484375 327.695312 277.5625 331.058594 271.980469 331.660156 C 253.148438 333.703125 245.582031 316.230469 245.582031 316.230469 C 238.1875 302.40625 251.332031 302.269531 251.332031 302.269531 C 245.03125 289.808594 256.261719 288.578125 256.261719 288.578125 C 253.527344 274.75 267.902344 278.167969 267.902344 278.167969 C 267.902344 278.167969 262.488281 269.851562 269.414062 266.121094 C 272.011719 264.71875 275.695312 265.371094 279.300781 266.722656 C 284.6875 268.757812 289.417969 272.183594 293.160156 276.527344 C 295.050781 269.714844 305.488281 255.566406 311.988281 263.53125 C 318.183594 271.113281 304.074219 291.730469 304.074219 291.730469 Z M 304.074219 291.730469 " fill-opacity="1" fill-rule="nonzero"/><path fill="#2b1200" d="M 281.867188 287.597656 C 281.722656 287.597656 281.574219 287.554688 281.445312 287.476562 L 267.484375 278.851562 C 267.105469 278.621094 266.984375 278.121094 267.21875 277.742188 C 267.449219 277.363281 267.949219 277.246094 268.328125 277.476562 L 282.292969 286.101562 C 282.671875 286.332031 282.789062 286.832031 282.558594 287.210938 C 282.394531 287.460938 282.140625 287.597656 281.867188 287.597656 Z M 269.800781 297.714844 C 270.050781 297.34375 269.953125 296.847656 269.582031 296.597656 L 256.710938 287.910156 C 256.34375 287.660156 255.84375 287.757812 255.59375 288.128906 C 255.34375 288.496094 255.441406 288.996094 255.8125 289.246094 L 268.683594 297.933594 C 268.820312 298.027344 268.980469 298.070312 269.132812 298.070312 C 269.390625 298.070312 269.648438 297.941406 269.800781 297.714844 Z M 260.945312 309.667969 C 261.21875 309.316406 261.152344 308.808594 260.800781 308.542969 L 251.832031 301.625 C 251.476562 301.351562 250.96875 301.414062 250.703125 301.769531 C 250.429688 302.125 250.496094 302.628906 250.847656 302.894531 L 259.816406 309.8125 C 259.960938 309.925781 260.140625 309.980469 260.308594 309.980469 C 260.542969 309.980469 260.78125 309.871094 260.945312 309.667969 Z M 302.746094 290.082031 C 303.148438 289.890625 303.316406 289.414062 303.125 289.011719 C 299.191406 280.734375 293.898438 276.109375 293.671875 275.917969 C 293.335938 275.628906 292.828125 275.660156 292.539062 275.996094 C 292.25 276.335938 292.289062 276.84375 292.621094 277.132812 C 292.675781 277.179688 297.898438 281.75 301.667969 289.703125 C 301.804688 289.992188 302.09375 290.164062 302.394531 290.164062 C 302.523438 290.164062 302.632812 290.136719 302.746094 290.082031 Z M 184.328125 115.210938 C 184.464844 114.792969 184.238281 114.332031 183.8125 114.195312 L 181.261719 113.359375 C 177.882812 112.25 175.921875 108.800781 176.695312 105.324219 L 178.054688 99.261719 C 178.148438 98.824219 177.875 98.398438 177.441406 98.304688 C 177.007812 98.207031 176.582031 98.480469 176.484375 98.914062 L 175.125 104.988281 C 174.167969 109.265625 176.589844 113.53125 180.761719 114.90625 L 183.3125 115.742188 C 183.394531 115.765625 183.480469 115.78125 183.5625 115.78125 C 183.902344 115.765625 184.214844 115.546875 184.328125 115.210938 Z M 199.265625 119.554688 C 199.53125 119.199219 199.464844 118.695312 199.113281 118.429688 C 198.757812 118.15625 198.25 118.226562 197.984375 118.582031 C 197.914062 118.675781 190.167969 128.523438 173.621094 124.582031 C 173.1875 124.476562 172.753906 124.742188 172.65625 125.175781 C 172.550781 125.609375 172.816406 126.046875 173.25 126.140625 C 176.121094 126.824219 178.753906 127.117188 181.140625 127.117188 C 193.320312 127.125 199.191406 119.652344 199.265625 119.554688 Z M 248.757812 116.007812 L 248.847656 115.554688 C 249.554688 112.066406 248.015625 108.421875 244.9375 106.28125 C 241.300781 103.757812 242.144531 97.933594 242.152344 97.875 C 242.160156 97.835938 242.160156 97.796875 242.160156 97.753906 C 242.160156 93.71875 245.453125 90.429688 249.488281 90.429688 C 253.527344 90.429688 256.816406 93.71875 256.816406 97.753906 C 256.816406 98.199219 257.179688 98.558594 257.621094 98.558594 C 258.0625 98.558594 258.425781 98.199219 258.425781 97.753906 C 258.425781 92.824219 254.421875 88.820312 249.488281 88.820312 C 244.582031 88.820312 240.585938 92.792969 240.554688 97.691406 C 240.449219 98.429688 239.722656 104.625 244.011719 107.601562 C 246.570312 109.378906 247.839844 112.371094 247.261719 115.234375 L 247.171875 115.683594 C 247.085938 116.121094 247.367188 116.546875 247.800781 116.632812 C 247.855469 116.640625 247.90625 116.652344 247.960938 116.652344 C 248.347656 116.652344 248.683594 116.386719 248.757812 116.007812 Z M 248.757812 116.007812 " fill-opacity="1" fill-rule="nonzero"/></svg>