<svg xmlns="http://www.w3.org/2000/svg" xmlns:xlink="http://www.w3.org/1999/xlink" width="500" zoomAndPan="magnify" viewBox="0 0 375 374.999991" height="500" preserveAspectRatio="xMidYMid meet" version="1.0"><defs><clipPath id="87f4e57911"><path d="M 6.1875 240 L 363 240 L 363 352 L 6.1875 352 Z M 6.1875 240 " clip-rule="nonzero"/></clipPath><clipPath id="63c69be2b6"><path d="M 61 109 L 311 109 L 311 352.339844 L 61 352.339844 Z M 61 109 " clip-rule="nonzero"/></clipPath></defs><g clip-path="url(#87f4e57911)"><path fill="#11084e" d="M 316.265625 240.09375 L 362.363281 351.9375 L 299.898438 351.9375 L 293.601562 256.71875 Z M 57.066406 254.449219 L 6.429688 351.9375 L 100.140625 351.9375 Z M 57.066406 254.449219 " fill-opacity="1" fill-rule="nonzero"/></g><path fill="#fcf0ca" d="M 332.878906 293.652344 L 323.835938 300.820312 L 307.972656 313.394531 L 299.898438 351.929688 L 73.132812 351.929688 L 65.058594 313.394531 L 61.410156 310.507812 L 40.105469 293.621094 C 35.054688 289.617188 33.1875 282.8125 35.472656 276.789062 C 45.21875 251.140625 80.027344 187.335938 185.679688 185.234375 L 185.679688 185.1875 C 185.960938 185.195312 186.234375 185.203125 186.515625 185.210938 C 186.796875 185.203125 187.070312 185.195312 187.351562 185.1875 L 187.351562 185.234375 C 292.933594 187.335938 327.765625 251.050781 337.53125 276.742188 C 339.832031 282.789062 337.953125 289.632812 332.878906 293.652344 Z M 332.878906 293.652344 " fill-opacity="1" fill-rule="nonzero"/><path fill="#f7f4b1" d="M 323.835938 300.820312 L 307.972656 313.394531 L 299.898438 351.929688 L 73.132812 351.929688 L 65.058594 313.394531 L 56.132812 306.335938 L 61.1875 301.664062 C 62.816406 300.164062 65.058594 299.535156 67.234375 299.957031 C 234.316406 332.246094 306.046875 266.289062 306.046875 266.289062 Z M 323.835938 300.820312 " fill-opacity="1" fill-rule="nonzero"/><path fill="#a17ac4" d="M 254.488281 71.597656 C 264.824219 106.292969 241.226562 143.945312 201.785156 155.6875 C 162.347656 167.429688 121.996094 148.835938 111.660156 114.136719 C 101.324219 79.441406 125.625 48.644531 164.953125 36.515625 C 210.910156 22.355469 244.15625 36.902344 254.488281 71.597656 Z M 254.488281 71.597656 " fill-opacity="1" fill-rule="nonzero"/><path fill="#11084e" d="M 366.945312 183.050781 C 361.789062 173.699219 346.804688 155.507812 307 150.929688 C 272.113281 146.910156 253.464844 125.066406 244.601562 110.007812 C 247.308594 101.625 247.632812 92.648438 245.039062 83.941406 C 241.359375 71.597656 232.449219 61.625 219.945312 55.859375 C 207.476562 50.109375 192.90625 49.238281 178.945312 53.394531 C 150.125 61.980469 132.816406 89.59375 140.296875 114.996094 C 127.539062 141.289062 109.253906 196.257812 179.476562 196.257812 L 179.757812 173.246094 C 242.566406 189.371094 261.234375 249.226562 265.742188 268.929688 C 266.605469 272.710938 270.128906 275.292969 273.992188 274.945312 C 299.921875 272.613281 322.644531 258.140625 331.324219 251.941406 C 333.742188 250.207031 335.058594 247.332031 334.773438 244.371094 C 330.597656 200.792969 287.199219 170.945312 287.199219 170.945312 C 316.738281 171.632812 333.824219 191.753906 339.820312 200.394531 C 341.304688 202.535156 344.191406 203.167969 346.449219 201.867188 L 364.570312 191.441406 C 367.507812 189.753906 368.589844 186.019531 366.945312 183.050781 Z M 179.375 54.808594 C 185.042969 53.121094 190.8125 52.277344 196.488281 52.277344 C 204.449219 52.277344 212.242188 53.929688 219.332031 57.199219 C 231.445312 62.785156 240.074219 72.425781 243.625 84.355469 C 246 92.316406 245.828125 100.507812 243.585938 108.234375 C 239.429688 100.789062 237.785156 95.394531 237.785156 95.394531 L 190.917969 146.710938 C 187.238281 146.835938 183.613281 146.613281 180.097656 146.058594 L 180.890625 81.765625 L 147.761719 101.300781 C 147.761719 101.300781 144.855469 105.859375 141.289062 112.976562 C 135.21875 88.800781 151.945312 62.976562 179.375 54.808594 Z M 180.089844 147.554688 C 183 148.007812 185.972656 148.242188 189 148.242188 C 189.1875 148.242188 189.371094 148.234375 189.546875 148.234375 L 179.949219 158.742188 Z M 180.089844 147.554688 " fill-opacity="1" fill-rule="nonzero"/><path fill="#ffc7b6" d="M 241.730469 107.972656 L 241.730469 129.617188 C 241.730469 146.402344 232.878906 161.214844 219.621094 169.636719 C 212.300781 174.28125 203.628906 176.984375 194.359375 176.984375 C 191.539062 176.984375 188.769531 176.730469 186.078125 176.257812 C 192.390625 179.378906 199.476562 181.140625 206.960938 181.140625 C 211.589844 181.140625 216.074219 180.46875 220.316406 179.210938 L 221.425781 194.363281 C 221.425781 194.363281 201.402344 217.035156 153.417969 198.144531 L 150.011719 146.230469 L 150.019531 146.230469 C 148.066406 141.058594 146.992188 135.457031 146.992188 129.617188 L 153.976562 130.511719 L 169.945312 108.914062 C 171.730469 108.65625 173.519531 108.328125 175.320312 107.902344 C 190.164062 104.386719 202.113281 95.699219 208.832031 84.910156 C 213.042969 95.875 223.875 103.683594 236.578125 103.683594 C 238.257812 103.683594 239.902344 103.550781 241.5 103.285156 C 241.648438 104.828125 241.730469 106.390625 241.730469 107.972656 Z M 241.730469 107.972656 " fill-opacity="1" fill-rule="nonzero"/><path fill="#11084e" d="M 241.5 103.285156 C 239.902344 103.550781 238.257812 103.683594 236.578125 103.683594 C 223.875 103.683594 213.042969 95.875 208.832031 84.910156 C 202.113281 95.699219 190.164062 104.386719 175.320312 107.902344 C 173.519531 108.328125 171.730469 108.65625 169.945312 108.914062 L 153.976562 130.511719 L 146.992188 129.617188 L 147 107.546875 C 147 107.199219 147.007812 106.851562 147.023438 106.507812 C 147.03125 106.300781 147.039062 106.09375 147.046875 105.886719 C 147.050781 105.636719 147.066406 105.382812 147.082031 105.132812 C 147.105469 104.734375 147.132812 104.339844 147.171875 103.941406 C 147.1875 103.699219 147.214844 103.453125 147.238281 103.210938 C 147.257812 102.941406 147.289062 102.675781 147.328125 102.417969 C 147.371094 101.980469 147.429688 101.550781 147.496094 101.121094 C 147.570312 100.621094 147.652344 100.125 147.742188 99.628906 C 147.746094 99.554688 147.761719 99.488281 147.777344 99.414062 C 147.875 98.910156 147.96875 98.40625 148.082031 97.910156 C 148.132812 97.652344 148.191406 97.386719 148.257812 97.125 C 148.414062 96.460938 148.585938 95.792969 148.777344 95.144531 C 148.84375 94.882812 148.925781 94.625 149.007812 94.375 C 149.074219 94.113281 149.152344 93.863281 149.234375 93.613281 C 149.332031 93.300781 149.441406 92.984375 149.546875 92.671875 C 150.0625 91.164062 150.65625 89.691406 151.320312 88.253906 C 151.476562 87.914062 151.640625 87.574219 151.804688 87.234375 C 151.808594 87.226562 151.816406 87.21875 151.816406 87.210938 C 151.964844 86.914062 152.113281 86.621094 152.261719 86.332031 C 152.632812 85.613281 153.023438 84.910156 153.429688 84.214844 C 153.617188 83.882812 153.816406 83.554688 154.015625 83.238281 C 154.828125 81.914062 155.71875 80.625 156.65625 79.382812 C 156.855469 79.117188 157.0625 78.855469 157.269531 78.597656 C 157.507812 78.300781 157.746094 78.007812 157.988281 77.71875 C 158.113281 77.5625 158.246094 77.40625 158.375 77.257812 C 158.738281 76.835938 159.105469 76.414062 159.476562 76.007812 C 160.867188 74.5 162.347656 73.078125 163.917969 71.761719 C 164.175781 71.546875 164.433594 71.332031 164.691406 71.117188 C 164.960938 70.902344 165.226562 70.695312 165.492188 70.488281 C 166.023438 70.074219 166.566406 69.675781 167.121094 69.289062 C 167.628906 68.917969 168.15625 68.570312 168.679688 68.222656 C 170.695312 66.914062 172.808594 65.761719 175.007812 64.769531 C 175.332031 64.621094 175.660156 64.480469 175.984375 64.339844 C 176.992188 63.910156 178.003906 63.519531 179.039062 63.171875 C 179.269531 63.089844 179.5 63.007812 179.730469 62.941406 C 181.808594 62.253906 183.9375 61.71875 186.121094 61.328125 C 186.449219 61.277344 186.773438 61.214844 187.105469 61.164062 C 187.394531 61.121094 187.675781 61.082031 187.957031 61.046875 C 188.238281 61.003906 188.519531 60.972656 188.800781 60.941406 C 189.082031 60.90625 189.371094 60.867188 189.652344 60.847656 C 190.015625 60.808594 190.382812 60.773438 190.746094 60.75 C 190.96875 60.726562 191.191406 60.714844 191.414062 60.707031 C 191.671875 60.683594 191.9375 60.667969 192.195312 60.660156 C 192.558594 60.640625 192.914062 60.632812 193.277344 60.625 C 193.632812 60.617188 193.996094 60.609375 194.359375 60.609375 C 196.480469 60.609375 198.574219 60.75 200.625 61.03125 C 201.765625 61.1875 202.898438 61.378906 204.015625 61.609375 C 205.132812 61.84375 206.234375 62.121094 207.320312 62.429688 C 208.046875 62.636719 208.765625 62.859375 209.476562 63.105469 C 209.496094 63.109375 209.519531 63.117188 209.535156 63.125 C 209.734375 63.191406 209.917969 63.257812 210.113281 63.332031 C 210.472656 63.457031 210.835938 63.59375 211.199219 63.726562 C 211.222656 63.734375 211.234375 63.738281 211.257812 63.746094 C 211.382812 63.800781 211.515625 63.851562 211.644531 63.902344 C 212.085938 64.074219 212.523438 64.257812 212.953125 64.441406 C 213.050781 64.480469 213.144531 64.523438 213.234375 64.5625 C 213.765625 64.796875 214.292969 65.035156 214.808594 65.285156 C 214.949219 65.351562 215.097656 65.417969 215.238281 65.492188 C 219.914062 67.800781 224.15625 70.867188 227.8125 74.519531 C 235.359375 82.0625 240.390625 92.117188 241.5 103.285156 Z M 241.5 103.285156 " fill-opacity="1" fill-rule="nonzero"/><path fill="#ffc7b6" d="M 154.355469 154.886719 C 151.789062 156.574219 148.867188 157.671875 145.714844 157.921875 C 134.140625 158.832031 123.847656 147.953125 122.996094 137.136719 C 122.515625 130.964844 125.136719 125.222656 129.625 121.265625 C 132.484375 118.726562 136.09375 116.921875 140.148438 116.203125 C 140.882812 116.0625 141.636719 115.964844 142.398438 115.90625 C 143.96875 115.78125 145.507812 115.824219 146.992188 116.019531 C 150.359375 116.441406 153.488281 117.617188 156.160156 119.378906 C 156.796875 119.800781 157.410156 120.25 157.988281 120.738281 C 161.882812 123.972656 164.476562 128.574219 164.894531 133.835938 C 165.515625 141.703125 161.199219 150.382812 154.355469 154.886719 Z M 154.355469 154.886719 " fill-opacity="1" fill-rule="nonzero"/><g clip-path="url(#63c69be2b6)"><path fill="#11084e" d="M 206.960938 181.140625 C 199.476562 181.140625 192.390625 179.378906 186.078125 176.257812 C 188.769531 176.730469 191.539062 176.984375 194.359375 176.984375 C 203.628906 176.984375 212.300781 174.28125 219.621094 169.636719 L 220.316406 179.210938 C 216.074219 180.46875 211.589844 181.140625 206.960938 181.140625 Z M 140.371094 123.882812 C 144.046875 123.882812 146.386719 127.160156 146.800781 130.417969 C 146.808594 130.46875 147.554688 135.574219 144.367188 137.789062 C 141.644531 139.683594 140.289062 142.894531 140.910156 145.980469 L 140.992188 146.378906 C 141.066406 146.726562 141.371094 146.96875 141.71875 146.96875 C 141.769531 146.96875 141.8125 146.960938 141.867188 146.957031 C 142.265625 146.875 142.523438 146.480469 142.441406 146.082031 L 142.359375 145.691406 C 141.851562 143.183594 142.976562 140.5625 145.210938 139 C 149.160156 136.253906 148.304688 130.433594 148.265625 130.210938 C 147.769531 126.332031 144.90625 122.402344 140.371094 122.402344 C 136.011719 122.402344 132.476562 125.949219 132.476562 130.300781 C 132.476562 130.707031 132.808594 131.039062 133.214844 131.039062 C 133.621094 131.039062 133.957031 130.707031 133.957031 130.300781 C 133.957031 126.761719 136.832031 123.882812 140.371094 123.882812 Z M 191.769531 120.363281 C 194.667969 120.363281 197.023438 118.007812 197.023438 115.109375 C 197.023438 112.207031 194.667969 109.855469 191.769531 109.855469 C 188.867188 109.855469 186.515625 112.207031 186.515625 115.109375 C 186.515625 118.007812 188.867188 120.363281 191.769531 120.363281 Z M 220.390625 120.363281 C 223.289062 120.363281 225.644531 118.007812 225.644531 115.109375 C 225.644531 112.207031 223.289062 109.855469 220.390625 109.855469 C 217.488281 109.855469 215.136719 112.207031 215.136719 115.109375 C 215.136719 118.007812 217.488281 120.363281 220.390625 120.363281 Z M 210.464844 119.058594 C 212.109375 122.382812 212.175781 126.230469 210.644531 129.601562 L 210.179688 130.640625 C 210.007812 131.007812 210.179688 131.453125 210.546875 131.617188 C 210.644531 131.660156 210.746094 131.683594 210.851562 131.683594 C 211.132812 131.683594 211.398438 131.519531 211.523438 131.246094 L 211.992188 130.210938 C 213.707031 126.429688 213.632812 122.121094 211.792969 118.394531 L 210 114.765625 C 209.816406 114.398438 209.378906 114.25 209.007812 114.433594 C 208.640625 114.621094 208.492188 115.054688 208.675781 115.425781 Z M 195.660156 135.078125 C 195.46875 135.441406 195.609375 135.886719 195.972656 136.078125 C 200.558594 138.492188 204.515625 139.296875 207.757812 139.296875 C 214.128906 139.296875 217.742188 136.175781 217.960938 135.972656 C 218.265625 135.699219 218.296875 135.234375 218.023438 134.929688 C 217.746094 134.628906 217.28125 134.597656 216.976562 134.863281 C 216.667969 135.136719 209.320312 141.414062 196.652344 134.761719 C 196.296875 134.582031 195.851562 134.722656 195.660156 135.078125 Z M 294.253906 230.875 C 294.066406 230.511719 293.617188 230.371094 293.253906 230.554688 C 292.890625 230.742188 292.75 231.191406 292.933594 231.554688 C 293.15625 231.992188 315.179688 275.398438 307.246094 313.246094 L 299.171875 351.789062 C 299.089844 352.191406 299.34375 352.582031 299.742188 352.664062 C 299.792969 352.671875 299.847656 352.679688 299.898438 352.679688 C 300.238281 352.679688 300.550781 352.441406 300.621094 352.09375 L 308.695312 313.550781 C 316.730469 275.191406 294.480469 231.308594 294.253906 230.875 Z M 62.363281 298.558594 C 61.964844 298.632812 61.699219 299.015625 61.765625 299.414062 L 64.324219 313.519531 C 64.390625 313.875 64.703125 314.125 65.050781 314.125 C 65.09375 314.125 65.140625 314.125 65.183594 314.113281 C 65.582031 314.039062 65.851562 313.652344 65.78125 313.253906 L 63.222656 299.148438 C 63.148438 298.757812 62.765625 298.484375 62.363281 298.558594 Z M 237.03125 195.4375 C 236.625 195.4375 236.292969 195.769531 236.292969 196.175781 C 236.292969 209.207031 214.019531 219.8125 186.632812 219.8125 C 159.253906 219.8125 136.972656 209.207031 136.972656 196.175781 C 136.972656 195.769531 136.640625 195.4375 136.234375 195.4375 C 135.828125 195.4375 135.496094 195.769531 135.496094 196.175781 C 135.496094 210.023438 158.433594 221.292969 186.632812 221.292969 C 214.832031 221.292969 237.769531 210.023438 237.769531 196.175781 C 237.769531 195.761719 237.4375 195.4375 237.03125 195.4375 Z M 178.96875 123.933594 C 179.542969 123.933594 180.003906 123.46875 180.003906 122.898438 C 180.003906 122.324219 179.535156 121.863281 178.96875 121.863281 C 178.390625 121.863281 177.929688 122.328125 177.929688 122.898438 C 177.929688 123.46875 178.390625 123.933594 178.96875 123.933594 Z M 178.96875 123.933594 " fill-opacity="1" fill-rule="nonzero"/></g><path fill="#a17ac4" d="M 229.320312 268.566406 L 163.316406 268.566406 C 160.355469 268.566406 157.953125 266.164062 157.953125 263.203125 L 157.953125 245.703125 C 157.953125 242.742188 160.355469 240.335938 163.316406 240.335938 L 229.320312 240.335938 C 232.28125 240.335938 234.683594 242.742188 234.683594 245.703125 L 234.683594 263.203125 C 234.683594 266.164062 232.28125 268.566406 229.320312 268.566406 Z M 143.574219 147.703125 C 141.488281 147.703125 139.792969 149.398438 139.792969 151.484375 C 139.792969 153.570312 141.488281 155.265625 143.574219 155.265625 C 145.660156 155.265625 147.355469 153.570312 147.355469 151.484375 C 147.355469 149.398438 145.660156 147.703125 143.574219 147.703125 Z M 143.574219 147.703125 " fill-opacity="1" fill-rule="nonzero"/></svg>