<svg xmlns="http://www.w3.org/2000/svg" xmlns:xlink="http://www.w3.org/1999/xlink" width="1920" zoomAndPan="magnify" viewBox="0 0 1440 809.999993" height="1080" preserveAspectRatio="xMidYMid meet" version="1.0"><defs><clipPath id="1f5ad07e28"><path d="M 51.246094 642 L 347 642 L 347 735.699219 L 51.246094 735.699219 Z M 51.246094 642 " clip-rule="nonzero"/></clipPath><clipPath id="c6017c969c"><path d="M 74 596 L 327 596 L 327 735.699219 L 74 735.699219 Z M 74 596 " clip-rule="nonzero"/></clipPath><clipPath id="c5c8fc87fb"><path d="M 92 664 L 315 664 L 315 735.699219 L 92 735.699219 Z M 92 664 " clip-rule="nonzero"/></clipPath><clipPath id="22f410024c"><path d="M 97 534 L 304 534 L 304 735.699219 L 97 735.699219 Z M 97 534 " clip-rule="nonzero"/></clipPath><clipPath id="ee3e544abc"><path d="M 1145 575 L 1423.976562 575 L 1423.976562 743.894531 L 1145 743.894531 Z M 1145 575 " clip-rule="nonzero"/></clipPath><clipPath id="98761c47e4"><path d="M 1145 598 L 1423.976562 598 L 1423.976562 743.894531 L 1145 743.894531 Z M 1145 598 " clip-rule="nonzero"/></clipPath><clipPath id="2f48359423"><path d="M 943 594 L 1228.53125 594 L 1228.53125 743.894531 L 943 743.894531 Z M 943 594 " clip-rule="nonzero"/></clipPath><clipPath id="2e863e0e64"><path d="M 943 597 L 1228.53125 597 L 1228.53125 743.894531 L 943 743.894531 Z M 943 597 " clip-rule="nonzero"/></clipPath><clipPath id="8bd15ebf33"><path d="M 1051 604 L 1123 604 L 1123 743.894531 L 1051 743.894531 Z M 1051 604 " clip-rule="nonzero"/></clipPath><clipPath id="9483c9d745"><path d="M 1070 637 L 1106 637 L 1106 743.894531 L 1070 743.894531 Z M 1070 637 " clip-rule="nonzero"/></clipPath><clipPath id="df7bbee9a4"><path d="M 1027 707 L 1149 707 L 1149 743.894531 L 1027 743.894531 Z M 1027 707 " clip-rule="nonzero"/></clipPath><clipPath id="f85bd94a20"><path d="M 1024 600 L 1153 600 L 1153 743.894531 L 1024 743.894531 Z M 1024 600 " clip-rule="nonzero"/></clipPath><clipPath id="ddc2d32f25"><path d="M 1023 599 L 1153 599 L 1153 743.894531 L 1023 743.894531 Z M 1023 599 " clip-rule="nonzero"/></clipPath></defs><g clip-path="url(#1f5ad07e28)"><path fill="#11084e" d="M 308.21875 642.414062 L 346.425781 735.105469 L 294.65625 735.105469 L 289.4375 656.191406 Z M 93.410156 654.308594 L 51.445312 735.105469 L 129.105469 735.105469 Z M 93.410156 654.308594 " fill-opacity="1" fill-rule="nonzero"/></g><g clip-path="url(#c6017c969c)"><path fill="#fcf0ca" d="M 321.988281 686.800781 L 314.492188 692.742188 L 301.347656 703.160156 L 294.65625 735.097656 L 106.722656 735.097656 L 100.03125 703.160156 L 97.007812 700.769531 L 79.351562 686.773438 C 75.164062 683.457031 73.621094 677.816406 75.515625 672.824219 C 83.589844 651.570312 112.4375 598.6875 199.996094 596.945312 L 199.996094 596.910156 C 200.230469 596.917969 200.457031 596.921875 200.6875 596.929688 C 200.921875 596.921875 201.148438 596.917969 201.382812 596.910156 L 201.382812 596.945312 C 288.886719 598.6875 317.75 651.496094 325.84375 672.785156 C 327.75 677.796875 326.195312 683.46875 321.988281 686.800781 Z M 321.988281 686.800781 " fill-opacity="1" fill-rule="nonzero"/></g><g clip-path="url(#c5c8fc87fb)"><path fill="#f7f4b1" d="M 314.492188 692.742188 L 301.347656 703.160156 L 294.65625 735.097656 L 106.722656 735.097656 L 100.03125 703.160156 L 92.636719 697.308594 L 96.824219 693.441406 C 98.171875 692.195312 100.03125 691.675781 101.835938 692.023438 C 240.304688 718.785156 299.75 664.121094 299.75 664.121094 Z M 314.492188 692.742188 " fill-opacity="1" fill-rule="nonzero"/></g><path fill="#a17ac4" d="M 257.019531 502.773438 C 265.585938 531.527344 246.03125 562.726562 213.347656 572.460938 C 180.660156 582.191406 147.21875 566.78125 138.652344 538.027344 C 130.085938 509.273438 150.226562 483.75 182.820312 473.699219 C 220.90625 461.960938 248.460938 474.015625 257.019531 502.773438 Z M 257.019531 502.773438 " fill-opacity="1" fill-rule="nonzero"/><path fill="#11084e" d="M 350.222656 595.136719 C 345.945312 587.386719 333.527344 572.3125 300.542969 568.515625 C 271.628906 565.1875 256.175781 547.085938 248.828125 534.605469 C 251.074219 527.65625 251.34375 520.21875 249.191406 513 C 246.140625 502.773438 238.757812 494.503906 228.394531 489.726562 C 218.0625 484.964844 205.988281 484.238281 194.414062 487.6875 C 170.53125 494.800781 156.1875 517.6875 162.386719 538.738281 C 151.8125 560.527344 136.660156 606.085938 194.855469 606.085938 L 195.089844 587.011719 C 247.140625 600.375 262.613281 649.980469 266.347656 666.3125 C 267.066406 669.445312 269.984375 671.585938 273.1875 671.296875 C 294.671875 669.363281 313.507812 657.371094 320.699219 652.230469 C 322.703125 650.796875 323.796875 648.410156 323.558594 645.957031 C 320.097656 609.84375 284.132812 585.105469 284.132812 585.105469 C 308.613281 585.675781 322.773438 602.351562 327.738281 609.511719 C 328.972656 611.285156 331.363281 611.8125 333.234375 610.734375 L 348.253906 602.09375 C 350.6875 600.695312 351.582031 597.597656 350.222656 595.136719 Z M 194.769531 488.859375 C 199.46875 487.460938 204.25 486.761719 208.957031 486.761719 C 215.554688 486.761719 222.011719 488.128906 227.886719 490.839844 C 237.925781 495.46875 245.074219 503.457031 248.019531 513.34375 C 249.988281 519.941406 249.847656 526.730469 247.988281 533.132812 C 244.542969 526.964844 243.179688 522.492188 243.179688 522.492188 L 204.335938 565.023438 C 201.289062 565.125 198.285156 564.941406 195.371094 564.480469 L 196.027344 511.199219 L 168.574219 527.386719 C 168.574219 527.386719 166.164062 531.164062 163.207031 537.0625 C 158.179688 517.03125 172.039062 495.628906 194.769531 488.859375 Z M 195.367188 565.722656 C 197.777344 566.09375 200.242188 566.292969 202.75 566.292969 C 202.902344 566.292969 203.054688 566.285156 203.203125 566.285156 L 195.25 574.992188 Z M 195.367188 565.722656 " fill-opacity="1" fill-rule="nonzero"/><path fill="#ffc7b6" d="M 246.449219 532.917969 L 246.449219 550.855469 C 246.449219 564.765625 239.113281 577.042969 228.125 584.019531 C 222.058594 587.871094 214.871094 590.109375 207.1875 590.109375 C 204.851562 590.109375 202.558594 589.902344 200.328125 589.507812 C 205.558594 592.097656 211.433594 593.554688 217.632812 593.554688 C 221.472656 593.554688 225.1875 592.996094 228.703125 591.957031 L 229.621094 604.515625 C 229.621094 604.515625 213.027344 623.304688 173.257812 607.648438 L 170.4375 564.625 L 170.445312 564.625 C 168.824219 560.335938 167.9375 555.695312 167.9375 550.855469 L 173.722656 551.597656 L 186.957031 533.699219 C 188.4375 533.484375 189.921875 533.214844 191.410156 532.859375 C 203.710938 529.945312 213.617188 522.746094 219.183594 513.804688 C 222.671875 522.890625 231.652344 529.363281 242.179688 529.363281 C 243.574219 529.363281 244.933594 529.25 246.257812 529.03125 C 246.382812 530.3125 246.449219 531.605469 246.449219 532.917969 Z M 246.449219 532.917969 " fill-opacity="1" fill-rule="nonzero"/><path fill="#11084e" d="M 246.257812 529.03125 C 244.933594 529.25 243.574219 529.363281 242.179688 529.363281 C 231.652344 529.363281 222.671875 522.890625 219.183594 513.804688 C 213.617188 522.746094 203.710938 529.945312 191.410156 532.859375 C 189.921875 533.214844 188.4375 533.484375 186.957031 533.699219 L 173.722656 551.597656 L 167.9375 550.855469 L 167.941406 532.5625 C 167.941406 532.273438 167.949219 531.988281 167.960938 531.703125 C 167.964844 531.53125 167.972656 531.359375 167.980469 531.191406 C 167.984375 530.980469 167.996094 530.773438 168.007812 530.5625 C 168.027344 530.234375 168.050781 529.90625 168.082031 529.578125 C 168.09375 529.375 168.121094 529.171875 168.136719 528.96875 C 168.15625 528.75 168.179688 528.527344 168.210938 528.3125 C 168.25 527.953125 168.296875 527.597656 168.351562 527.242188 C 168.414062 526.824219 168.480469 526.414062 168.554688 526 C 168.5625 525.941406 168.574219 525.886719 168.585938 525.824219 C 168.664062 525.40625 168.746094 524.988281 168.835938 524.578125 C 168.878906 524.363281 168.929688 524.144531 168.984375 523.929688 C 169.113281 523.375 169.253906 522.824219 169.414062 522.285156 C 169.46875 522.070312 169.535156 521.855469 169.605469 521.648438 C 169.660156 521.433594 169.726562 521.222656 169.792969 521.015625 C 169.875 520.757812 169.964844 520.496094 170.050781 520.238281 C 170.480469 518.984375 170.972656 517.765625 171.523438 516.574219 C 171.652344 516.292969 171.785156 516.011719 171.921875 515.730469 C 171.929688 515.722656 171.933594 515.71875 171.933594 515.710938 C 172.054688 515.464844 172.179688 515.222656 172.300781 514.980469 C 172.609375 514.386719 172.933594 513.804688 173.269531 513.226562 C 173.425781 512.953125 173.589844 512.683594 173.753906 512.417969 C 174.429688 511.320312 175.164062 510.253906 175.945312 509.222656 C 176.109375 509.003906 176.28125 508.789062 176.453125 508.574219 C 176.648438 508.328125 176.847656 508.082031 177.046875 507.84375 C 177.152344 507.714844 177.261719 507.585938 177.367188 507.464844 C 177.667969 507.113281 177.972656 506.765625 178.28125 506.425781 C 179.433594 505.175781 180.660156 504 181.960938 502.90625 C 182.175781 502.730469 182.390625 502.550781 182.605469 502.375 C 182.824219 502.195312 183.046875 502.023438 183.265625 501.851562 C 183.707031 501.507812 184.15625 501.175781 184.617188 500.859375 C 185.039062 500.550781 185.472656 500.265625 185.910156 499.976562 C 187.578125 498.890625 189.332031 497.933594 191.152344 497.113281 C 191.421875 496.988281 191.691406 496.871094 191.960938 496.757812 C 192.796875 496.402344 193.636719 496.074219 194.496094 495.789062 C 194.683594 495.71875 194.875 495.652344 195.066406 495.597656 C 196.789062 495.027344 198.554688 494.585938 200.363281 494.261719 C 200.632812 494.21875 200.902344 494.167969 201.179688 494.125 C 201.417969 494.089844 201.652344 494.058594 201.882812 494.027344 C 202.117188 493.992188 202.351562 493.964844 202.582031 493.941406 C 202.816406 493.910156 203.054688 493.878906 203.289062 493.863281 C 203.589844 493.832031 203.894531 493.800781 204.195312 493.78125 C 204.378906 493.761719 204.5625 493.75 204.75 493.746094 C 204.964844 493.726562 205.183594 493.714844 205.398438 493.707031 C 205.699219 493.691406 205.992188 493.683594 206.292969 493.675781 C 206.589844 493.671875 206.886719 493.664062 207.1875 493.664062 C 208.949219 493.664062 210.683594 493.78125 212.382812 494.015625 C 213.328125 494.144531 214.265625 494.304688 215.191406 494.492188 C 216.117188 494.691406 217.03125 494.917969 217.933594 495.175781 C 218.535156 495.34375 219.128906 495.53125 219.71875 495.730469 C 219.734375 495.738281 219.753906 495.746094 219.765625 495.75 C 219.933594 495.804688 220.085938 495.859375 220.246094 495.921875 C 220.546875 496.027344 220.847656 496.136719 221.144531 496.246094 C 221.164062 496.253906 221.175781 496.257812 221.195312 496.265625 C 221.300781 496.308594 221.410156 496.351562 221.515625 496.394531 C 221.882812 496.535156 222.242188 496.6875 222.601562 496.84375 C 222.679688 496.871094 222.757812 496.910156 222.832031 496.941406 C 223.273438 497.136719 223.710938 497.332031 224.140625 497.542969 C 224.253906 497.597656 224.378906 497.652344 224.496094 497.710938 C 228.371094 499.625 231.882812 502.164062 234.914062 505.195312 C 241.167969 511.441406 245.339844 519.777344 246.257812 529.03125 Z M 246.257812 529.03125 " fill-opacity="1" fill-rule="nonzero"/><path fill="#ffc7b6" d="M 174.039062 571.796875 C 171.910156 573.195312 169.488281 574.105469 166.875 574.3125 C 157.285156 575.066406 148.753906 566.050781 148.046875 557.085938 C 147.648438 551.972656 149.820312 547.214844 153.542969 543.933594 C 155.910156 541.828125 158.902344 540.332031 162.261719 539.738281 C 162.871094 539.621094 163.496094 539.542969 164.128906 539.492188 C 165.425781 539.386719 166.703125 539.425781 167.9375 539.585938 C 170.726562 539.933594 173.320312 540.910156 175.535156 542.367188 C 176.0625 542.71875 176.570312 543.09375 177.046875 543.496094 C 180.273438 546.175781 182.425781 549.992188 182.769531 554.351562 C 183.285156 560.871094 179.710938 568.0625 174.039062 571.796875 Z M 174.039062 571.796875 " fill-opacity="1" fill-rule="nonzero"/><g clip-path="url(#22f410024c)"><path fill="#11084e" d="M 217.632812 593.554688 C 211.433594 593.554688 205.558594 592.097656 200.328125 589.507812 C 202.558594 589.902344 204.851562 590.109375 207.1875 590.109375 C 214.871094 590.109375 222.058594 587.871094 228.125 584.019531 L 228.703125 591.957031 C 225.1875 592.996094 221.472656 593.554688 217.632812 593.554688 Z M 162.445312 546.101562 C 165.496094 546.101562 167.433594 548.820312 167.777344 551.519531 C 167.78125 551.5625 168.402344 555.792969 165.757812 557.625 C 163.5 559.195312 162.378906 561.859375 162.894531 564.414062 L 162.960938 564.746094 C 163.023438 565.035156 163.273438 565.238281 163.5625 565.238281 C 163.605469 565.238281 163.644531 565.230469 163.6875 565.222656 C 164.015625 565.15625 164.230469 564.832031 164.164062 564.5 L 164.097656 564.175781 C 163.671875 562.097656 164.605469 559.925781 166.457031 558.632812 C 169.730469 556.355469 169.019531 551.53125 168.992188 551.347656 C 168.578125 548.132812 166.207031 544.878906 162.445312 544.878906 C 158.835938 544.878906 155.902344 547.8125 155.902344 551.421875 C 155.902344 551.757812 156.179688 552.035156 156.515625 552.035156 C 156.855469 552.035156 157.128906 551.757812 157.128906 551.421875 C 157.128906 548.488281 159.515625 546.101562 162.445312 546.101562 Z M 205.042969 543.183594 C 207.445312 543.183594 209.398438 541.234375 209.398438 538.832031 C 209.398438 536.425781 207.445312 534.476562 205.042969 534.476562 C 202.640625 534.476562 200.6875 536.425781 200.6875 538.832031 C 200.6875 541.234375 202.640625 543.183594 205.042969 543.183594 Z M 228.761719 543.183594 C 231.167969 543.183594 233.117188 541.234375 233.117188 538.832031 C 233.117188 536.425781 231.167969 534.476562 228.761719 534.476562 C 226.359375 534.476562 224.410156 536.425781 224.410156 538.832031 C 224.410156 541.234375 226.359375 543.183594 228.761719 543.183594 Z M 220.539062 542.105469 C 221.902344 544.859375 221.957031 548.046875 220.6875 550.84375 L 220.300781 551.703125 C 220.160156 552.007812 220.300781 552.375 220.605469 552.511719 C 220.6875 552.546875 220.773438 552.566406 220.859375 552.566406 C 221.089844 552.566406 221.3125 552.433594 221.417969 552.207031 L 221.800781 551.347656 C 223.226562 548.214844 223.164062 544.644531 221.636719 541.554688 L 220.152344 538.546875 C 220 538.242188 219.636719 538.117188 219.332031 538.273438 C 219.023438 538.425781 218.902344 538.789062 219.054688 539.09375 Z M 208.269531 555.382812 C 208.109375 555.683594 208.226562 556.050781 208.527344 556.210938 C 212.328125 558.207031 215.609375 558.878906 218.292969 558.878906 C 223.574219 558.878906 226.566406 556.289062 226.75 556.125 C 227.003906 555.898438 227.027344 555.511719 226.800781 555.257812 C 226.574219 555.007812 226.1875 554.984375 225.9375 555.203125 C 225.679688 555.429688 219.589844 560.632812 209.089844 555.117188 C 208.796875 554.972656 208.429688 555.085938 208.269531 555.382812 Z M 289.976562 634.773438 C 289.824219 634.472656 289.449219 634.355469 289.148438 634.507812 C 288.847656 634.660156 288.730469 635.035156 288.886719 635.335938 C 289.070312 635.699219 307.320312 671.671875 300.746094 703.039062 L 294.054688 734.980469 C 293.988281 735.3125 294.195312 735.636719 294.527344 735.703125 C 294.570312 735.710938 294.613281 735.71875 294.65625 735.71875 C 294.9375 735.71875 295.195312 735.519531 295.257812 735.234375 L 301.945312 703.289062 C 308.605469 671.5 290.167969 635.132812 289.976562 634.773438 Z M 97.800781 690.863281 C 97.46875 690.925781 97.246094 691.246094 97.300781 691.574219 L 99.425781 703.265625 C 99.480469 703.558594 99.738281 703.765625 100.027344 703.765625 C 100.0625 703.765625 100.097656 703.765625 100.136719 703.753906 C 100.46875 703.695312 100.6875 703.375 100.632812 703.042969 L 98.511719 691.355469 C 98.449219 691.03125 98.128906 690.804688 97.800781 690.863281 Z M 242.554688 605.402344 C 242.21875 605.402344 241.941406 605.679688 241.941406 606.015625 C 241.941406 616.816406 223.484375 625.605469 200.785156 625.605469 C 178.097656 625.605469 159.632812 616.816406 159.632812 606.015625 C 159.632812 605.679688 159.355469 605.402344 159.019531 605.402344 C 158.683594 605.402344 158.40625 605.679688 158.40625 606.015625 C 158.40625 617.492188 177.417969 626.832031 200.785156 626.832031 C 224.15625 626.832031 243.167969 617.492188 243.167969 606.015625 C 243.167969 605.671875 242.890625 605.402344 242.554688 605.402344 Z M 194.433594 546.144531 C 194.910156 546.144531 195.292969 545.761719 195.292969 545.289062 C 195.292969 544.808594 194.90625 544.429688 194.433594 544.429688 C 193.957031 544.429688 193.574219 544.816406 193.574219 545.289062 C 193.574219 545.761719 193.957031 546.144531 194.433594 546.144531 Z M 194.433594 546.144531 " fill-opacity="1" fill-rule="nonzero"/></g><path fill="#a17ac4" d="M 236.164062 666.011719 L 181.464844 666.011719 C 179.011719 666.011719 177.019531 664.015625 177.019531 661.5625 L 177.019531 647.0625 C 177.019531 644.609375 179.011719 642.613281 181.464844 642.613281 L 236.164062 642.613281 C 238.617188 642.613281 240.609375 644.609375 240.609375 647.0625 L 240.609375 661.5625 C 240.609375 664.015625 238.617188 666.011719 236.164062 666.011719 Z M 165.101562 565.84375 C 163.375 565.84375 161.96875 567.246094 161.96875 568.976562 C 161.96875 570.707031 163.375 572.109375 165.101562 572.109375 C 166.832031 572.109375 168.234375 570.707031 168.234375 568.976562 C 168.234375 567.246094 166.832031 565.84375 165.101562 565.84375 Z M 165.101562 565.84375 " fill-opacity="1" fill-rule="nonzero"/><path fill="#2b1200" d="M 1195.847656 548.03125 C 1197.433594 553.753906 1200.582031 560.480469 1206.800781 564.453125 C 1212.238281 567.925781 1216.320312 573.167969 1217.933594 579.417969 C 1219.226562 584.425781 1222.394531 589.671875 1229.660156 592.023438 C 1233.484375 593.257812 1236.933594 595.488281 1239.574219 598.53125 C 1245.226562 605.050781 1258.257812 613.828125 1283.140625 601.761719 C 1283.140625 601.761719 1305.941406 626.222656 1330.0625 609.570312 C 1333.5625 607.15625 1337.605469 605.609375 1341.839844 605.171875 C 1347.808594 604.550781 1356.5 602.132812 1361.675781 593.769531 C 1364.191406 589.710938 1368.085938 586.738281 1372.632812 585.285156 C 1376.746094 583.96875 1381.96875 580.9375 1386.957031 574.179688 C 1389.859375 570.253906 1387.050781 564.699219 1382.171875 564.628906 C 1371.925781 564.492188 1356.753906 560.554688 1346.851562 541.097656 C 1330.703125 509.386719 1303.984375 507.832031 1303.984375 507.832031 C 1303.984375 507.832031 1279.105469 494.503906 1248.140625 524.496094 C 1228.367188 543.648438 1211.867188 543.691406 1202.523438 541.222656 C 1198.421875 540.148438 1194.714844 543.953125 1195.847656 548.03125 Z M 1195.847656 548.03125 " fill-opacity="1" fill-rule="nonzero"/><path fill="#f9c7b2" d="M 1198.09375 591.246094 L 1202.492188 572.226562 C 1207.675781 569.828125 1210.8125 565.96875 1212.542969 563.105469 C 1214.21875 560.335938 1216.171875 557.742188 1218.367188 555.363281 C 1222.132812 551.273438 1226.660156 545.300781 1222.8125 543.5625 C 1214.320312 539.722656 1207.527344 551.5625 1207.527344 551.5625 C 1207.3125 531.875 1199.523438 513.019531 1195.039062 516.664062 C 1190.550781 520.3125 1198.425781 541.917969 1198.425781 541.917969 C 1185.386719 522.339844 1176.074219 518.78125 1175.734375 523.613281 C 1175.398438 528.441406 1190.296875 545.476562 1190.296875 545.476562 C 1190.296875 545.476562 1188.046875 543.648438 1184.203125 544.460938 C 1180.359375 545.269531 1183.132812 550.90625 1183.132812 550.90625 C 1183.132812 550.90625 1175.058594 548.527344 1177.261719 556.546875 C 1179.464844 564.566406 1186.011719 567.171875 1186.011719 567.171875 L 1182.164062 576.492188 Z M 1380.324219 634.675781 L 1375.921875 615.65625 C 1370.742188 613.257812 1367.605469 609.398438 1365.875 606.535156 C 1364.199219 603.765625 1362.246094 601.171875 1360.050781 598.789062 C 1356.28125 594.703125 1351.757812 588.726562 1355.605469 586.992188 C 1364.09375 583.152344 1370.890625 594.988281 1370.890625 594.988281 C 1371.105469 575.300781 1378.894531 556.449219 1383.378906 560.09375 C 1387.867188 563.738281 1379.992188 585.347656 1379.992188 585.347656 C 1393.03125 565.769531 1402.34375 562.210938 1402.683594 567.039062 C 1403.019531 571.871094 1388.121094 588.90625 1388.121094 588.90625 C 1388.121094 588.90625 1390.371094 587.078125 1394.214844 587.890625 C 1398.058594 588.699219 1395.28125 594.335938 1395.28125 594.335938 C 1395.28125 594.335938 1403.359375 591.953125 1401.152344 599.976562 C 1398.953125 607.996094 1392.40625 610.601562 1392.40625 610.601562 L 1396.253906 619.921875 Z M 1380.324219 634.675781 " fill-opacity="1" fill-rule="nonzero"/><g clip-path="url(#ee3e544abc)"><path fill="#ffa4a2" d="M 1168.261719 671.191406 C 1180.105469 681.457031 1196.871094 690.5625 1219.527344 691.640625 L 1230.078125 717.292969 L 1221.496094 743.894531 L 1353.796875 743.894531 L 1341.203125 718.023438 L 1341.371094 717.523438 L 1349.617188 692.777344 C 1349.617188 692.777344 1421.890625 713.769531 1423.925781 663.710938 C 1424.058594 660.5625 1423.929688 657.605469 1423.585938 654.847656 L 1423.585938 654.835938 C 1423.269531 652.316406 1422.765625 649.957031 1422.09375 647.75 C 1421.570312 645.703125 1420.886719 643.609375 1420 641.484375 L 1419.996094 641.464844 C 1419.992188 641.460938 1419.992188 641.453125 1419.992188 641.449219 C 1418.210938 637.101562 1415.652344 632.59375 1412.207031 627.976562 C 1408.324219 622.773438 1404.496094 620.773438 1398.183594 615.375 C 1398.183594 615.375 1382.9375 616.253906 1372.460938 622.273438 C 1367.238281 625.273438 1365.359375 635.070312 1362.835938 635.6875 C 1343.085938 629.941406 1281.480469 616.597656 1281.480469 616.597656 L 1238.804688 624.808594 L 1224.140625 623.386719 C 1224.140625 623.386719 1216.464844 616.660156 1205.648438 611.082031 C 1206.457031 608.582031 1207.382812 605.742188 1208.265625 602.804688 C 1208.851562 600.871094 1206.285156 591.253906 1199.59375 585.808594 C 1189.285156 577.414062 1172.386719 573.1875 1167.09375 577.550781 C 1158.566406 584.589844 1153.207031 591.15625 1149.878906 598.96875 C 1148.714844 601.707031 1147.792969 604.59375 1147.082031 607.707031 C 1141.710938 631.105469 1150.132812 655.476562 1168.261719 671.191406 Z M 1168.261719 671.191406 " fill-opacity="1" fill-rule="nonzero"/></g><path fill="#fff0fd" d="M 1245.261719 638.683594 C 1244.445312 641.050781 1244.011719 643.535156 1244.011719 646.101562 C 1244.011719 662.394531 1261.578125 675.601562 1283.246094 675.601562 C 1304.914062 675.601562 1322.480469 662.394531 1322.480469 646.101562 C 1322.480469 644.972656 1322.390625 643.863281 1322.230469 642.769531 C 1340.082031 646.789062 1341.207031 629.941406 1341.207031 629.941406 L 1324.015625 626.101562 L 1308.367188 623.441406 C 1301.558594 619.167969 1292.804688 616.597656 1283.25 616.597656 C 1277.253906 616.597656 1271.566406 617.617188 1266.484375 619.425781 L 1239.433594 622.824219 L 1224.144531 623.386719 C 1226.058594 634.761719 1240.960938 637.988281 1245.261719 638.683594 Z M 1245.261719 638.683594 " fill-opacity="1" fill-rule="nonzero"/><path fill="#f9c7b2" d="M 1254.707031 617.363281 L 1239.421875 622.824219 C 1239.421875 622.824219 1283.261719 659.515625 1324.007812 626.101562 L 1306.550781 620.09375 L 1306.632812 610.265625 C 1314.25 606.898438 1320.78125 601.230469 1325.128906 593.914062 C 1325.128906 593.914062 1325.128906 593.914062 1325.128906 593.910156 C 1325.507812 594.070312 1325.886719 594.226562 1326.285156 594.359375 C 1335.464844 597.410156 1345.984375 590.65625 1348.832031 582.058594 C 1350.457031 577.148438 1349.488281 571.96875 1346.636719 567.867188 C 1345.613281 566.378906 1344.34375 565.027344 1342.863281 563.882812 C 1341.265625 562.640625 1339.417969 561.640625 1337.367188 560.960938 C 1336.554688 560.691406 1335.746094 560.492188 1334.9375 560.335938 C 1337.53125 540.273438 1324.640625 520.855469 1304.570312 515.890625 C 1301.351562 515.097656 1298.117188 514.714844 1294.941406 514.714844 C 1287.679688 514.714844 1280.65625 516.699219 1274.566406 520.257812 C 1266.683594 524.859375 1260.347656 532.097656 1257.023438 541.078125 C 1257.023438 541.078125 1257.023438 541.085938 1257.023438 541.085938 C 1256.234375 540.84375 1255.425781 540.640625 1254.582031 540.503906 C 1253.3125 540.292969 1252.046875 540.21875 1250.816406 540.257812 C 1248.070312 540.359375 1245.457031 541.074219 1243.164062 542.285156 C 1238.738281 544.59375 1235.460938 548.726562 1234.625 553.828125 C 1233.148438 562.761719 1239.3125 573.640625 1248.859375 575.214844 C 1249.265625 575.285156 1249.667969 575.324219 1250.078125 575.359375 C 1250.078125 575.359375 1250.078125 575.367188 1250.078125 575.367188 C 1250.585938 584.96875 1254.535156 594.019531 1260.960938 600.917969 C 1261.222656 601.195312 1261.484375 601.46875 1261.753906 601.742188 C 1261.863281 601.855469 1261.980469 601.96875 1262.09375 602.078125 C 1262.375 602.359375 1262.65625 602.632812 1262.945312 602.902344 C 1262.957031 602.90625 1262.960938 602.917969 1262.972656 602.925781 C 1263.285156 603.21875 1263.605469 603.511719 1263.933594 603.789062 C 1264.019531 603.867188 1264.097656 603.941406 1264.183594 604.011719 C 1264.484375 604.269531 1264.789062 604.527344 1265.097656 604.777344 C 1265.117188 604.789062 1265.132812 604.804688 1265.148438 604.816406 C 1265.472656 605.082031 1265.800781 605.332031 1266.132812 605.585938 C 1266.183594 605.621094 1266.234375 605.660156 1266.28125 605.695312 C 1266.65625 605.976562 1267.027344 606.25 1267.40625 606.511719 C 1267.4375 606.535156 1267.464844 606.554688 1267.488281 606.570312 C 1267.816406 606.792969 1268.144531 607.011719 1268.46875 607.230469 C 1268.546875 607.277344 1268.621094 607.324219 1268.6875 607.375 C 1269.066406 607.609375 1269.449219 607.847656 1269.832031 608.078125 C 1270.238281 608.324219 1270.652344 608.558594 1271.074219 608.789062 C 1271.714844 609.132812 1272.371094 609.472656 1273.039062 609.789062 C 1273.25 609.894531 1273.460938 609.992188 1273.675781 610.089844 C 1274.90625 610.652344 1276.179688 611.160156 1277.484375 611.59375 C 1277.714844 611.675781 1277.945312 611.757812 1278.179688 611.824219 C 1279.011719 612.089844 1279.855469 612.332031 1280.71875 612.542969 C 1288.886719 614.5625 1297.113281 613.90625 1304.476562 611.140625 C 1295.722656 616.257812 1285.050781 618.117188 1274.492188 615.503906 C 1268.425781 614.011719 1263.011719 611.1875 1258.488281 607.433594 Z M 1254.707031 617.363281 " fill-opacity="1" fill-rule="nonzero"/><path fill="#2b1200" d="M 1243.378906 552.734375 C 1243.304688 553.042969 1243.488281 553.355469 1243.796875 553.429688 C 1244.101562 553.503906 1244.417969 553.316406 1244.492188 553.011719 C 1244.832031 551.640625 1245.683594 550.484375 1246.886719 549.757812 C 1248.09375 549.027344 1249.511719 548.8125 1250.875 549.152344 C 1252.242188 549.492188 1253.398438 550.34375 1254.125 551.550781 C 1254.855469 552.757812 1255.070312 554.175781 1254.730469 555.546875 C 1254.722656 555.574219 1254.71875 555.605469 1254.710938 555.632812 C 1254.707031 555.671875 1254.296875 559.894531 1251.316406 561.03125 C 1248.796875 561.996094 1247.101562 564.273438 1246.992188 566.832031 L 1246.980469 567.160156 C 1246.96875 567.476562 1247.210938 567.746094 1247.53125 567.757812 C 1247.539062 567.757812 1247.550781 567.757812 1247.554688 567.757812 C 1247.859375 567.757812 1248.117188 567.515625 1248.128906 567.207031 L 1248.140625 566.878906 C 1248.234375 564.78125 1249.640625 562.90625 1251.730469 562.101562 C 1255.234375 560.761719 1255.796875 556.3125 1255.855469 555.777344 C 1256.25 554.121094 1255.988281 552.414062 1255.109375 550.953125 C 1254.222656 549.480469 1252.816406 548.445312 1251.152344 548.035156 C 1249.484375 547.621094 1247.761719 547.886719 1246.289062 548.773438 C 1244.820312 549.65625 1243.792969 551.066406 1243.378906 552.734375 Z M 1332.035156 569.964844 C 1333.503906 569.082031 1335.230469 568.816406 1336.894531 569.230469 C 1340.328125 570.082031 1342.4375 573.570312 1341.589844 577.011719 C 1341.511719 577.320312 1341.199219 577.503906 1340.894531 577.429688 C 1340.582031 577.355469 1340.398438 577.042969 1340.472656 576.734375 C 1341.167969 573.910156 1339.441406 571.042969 1336.617188 570.347656 C 1333.796875 569.652344 1330.933594 571.382812 1330.238281 574.203125 C 1330.230469 574.234375 1330.21875 574.261719 1330.207031 574.289062 C 1330.191406 574.332031 1328.59375 578.253906 1330.703125 580.648438 C 1332.484375 582.671875 1332.929688 585.484375 1331.832031 587.796875 L 1331.691406 588.097656 C 1331.59375 588.304688 1331.386719 588.421875 1331.171875 588.421875 C 1331.09375 588.421875 1331.007812 588.40625 1330.925781 588.367188 C 1330.640625 588.226562 1330.519531 587.890625 1330.648438 587.601562 L 1330.792969 587.300781 C 1331.691406 585.398438 1331.316406 583.085938 1329.839844 581.402344 C 1327.359375 578.585938 1328.933594 574.382812 1329.132812 573.882812 C 1329.546875 572.238281 1330.582031 570.851562 1332.035156 569.964844 Z M 1295.503906 573.824219 C 1295.457031 573.824219 1295.414062 573.820312 1295.367188 573.808594 C 1295.058594 573.734375 1294.871094 573.421875 1294.949219 573.113281 C 1296.21875 567.964844 1292.039062 566.296875 1291.863281 566.230469 C 1291.5625 566.113281 1291.421875 565.785156 1291.53125 565.488281 C 1291.640625 565.1875 1291.972656 565.039062 1292.269531 565.152344 C 1292.324219 565.175781 1297.585938 567.234375 1296.066406 573.386719 C 1296 573.652344 1295.761719 573.824219 1295.503906 573.824219 Z M 1304.242188 580.984375 C 1304.28125 581.300781 1304.058594 581.585938 1303.742188 581.628906 C 1302.445312 581.789062 1301.152344 581.863281 1299.875 581.863281 C 1287.542969 581.863281 1276.804688 575.027344 1276.691406 574.953125 C 1276.425781 574.777344 1276.347656 574.421875 1276.519531 574.160156 C 1276.691406 573.894531 1277.046875 573.8125 1277.3125 573.984375 C 1277.4375 574.066406 1290.152344 582.15625 1303.597656 580.488281 C 1303.921875 580.441406 1304.203125 580.667969 1304.242188 580.984375 Z M 1280.472656 564.625 C 1278.121094 564.625 1276.214844 562.714844 1276.214844 560.363281 C 1276.214844 558.011719 1278.121094 556.105469 1280.472656 556.105469 C 1282.820312 556.105469 1284.726562 558.011719 1284.726562 560.363281 C 1284.726562 562.714844 1282.820312 564.625 1280.472656 564.625 Z M 1301.015625 565.695312 C 1301.015625 563.34375 1302.921875 561.433594 1305.269531 561.433594 C 1307.621094 561.433594 1309.527344 563.34375 1309.527344 565.695312 C 1309.527344 568.046875 1307.621094 569.957031 1305.269531 569.957031 C 1302.921875 569.957031 1301.015625 568.046875 1301.015625 565.695312 Z M 1261.753906 601.742188 C 1261.863281 601.855469 1261.980469 601.96875 1262.09375 602.078125 C 1262.371094 602.359375 1262.65625 602.632812 1262.945312 602.902344 C 1262.957031 602.90625 1262.960938 602.917969 1262.972656 602.925781 C 1263.289062 603.222656 1263.605469 603.511719 1263.933594 603.789062 C 1264.019531 603.867188 1264.097656 603.941406 1264.183594 604.011719 C 1264.484375 604.269531 1264.789062 604.527344 1265.097656 604.777344 C 1265.117188 604.789062 1265.132812 604.804688 1265.148438 604.816406 C 1265.472656 605.082031 1265.800781 605.332031 1266.132812 605.585938 C 1266.183594 605.621094 1266.234375 605.660156 1266.28125 605.695312 C 1266.648438 605.976562 1267.027344 606.25 1267.40625 606.511719 C 1267.4375 606.535156 1267.464844 606.554688 1267.488281 606.570312 C 1267.808594 606.792969 1268.136719 607.011719 1268.46875 607.230469 C 1268.546875 607.277344 1268.621094 607.324219 1268.6875 607.375 C 1269.0625 607.609375 1269.441406 607.847656 1269.832031 608.078125 C 1270.238281 608.324219 1270.652344 608.558594 1271.074219 608.789062 C 1271.714844 609.132812 1272.371094 609.472656 1273.039062 609.789062 C 1273.246094 609.894531 1273.457031 609.992188 1273.675781 610.089844 C 1274.90625 610.652344 1276.179688 611.160156 1277.484375 611.59375 C 1277.714844 611.675781 1277.945312 611.75 1278.179688 611.824219 C 1279.011719 612.089844 1279.855469 612.332031 1280.71875 612.542969 C 1288.886719 614.5625 1297.113281 613.90625 1304.476562 611.140625 C 1295.722656 616.257812 1285.050781 618.117188 1274.492188 615.503906 C 1268.425781 614.011719 1263.011719 611.1875 1258.488281 607.433594 L 1260.960938 600.917969 C 1261.222656 601.195312 1261.484375 601.46875 1261.753906 601.742188 Z M 1182.058594 559.664062 C 1182.324219 559.484375 1182.679688 559.546875 1182.859375 559.808594 C 1183.417969 560.617188 1187.886719 562.324219 1190.28125 561.605469 C 1191.085938 561.363281 1191.46875 560.894531 1191.488281 560.117188 C 1191.5625 557.019531 1185.523438 553.210938 1183.191406 552.011719 C 1182.910156 551.867188 1182.800781 551.515625 1182.945312 551.234375 C 1183.089844 550.953125 1183.433594 550.84375 1183.71875 550.988281 C 1184.019531 551.140625 1189.828125 554.175781 1191.90625 557.703125 C 1192.367188 557.984375 1192.871094 558.140625 1193.40625 558.15625 C 1194.277344 558.179688 1195.113281 557.800781 1195.6875 557.097656 C 1196.296875 556.355469 1196.53125 555.355469 1196.320312 554.429688 C 1195.324219 550.113281 1190.003906 545.976562 1189.953125 545.9375 C 1189.699219 545.742188 1189.65625 545.386719 1189.851562 545.132812 C 1190.046875 544.878906 1190.402344 544.835938 1190.65625 545.03125 C 1190.882812 545.207031 1196.347656 549.453125 1197.4375 554.175781 C 1197.730469 555.449219 1197.410156 556.816406 1196.578125 557.835938 C 1195.800781 558.785156 1194.679688 559.316406 1193.496094 559.316406 C 1193.457031 559.316406 1193.410156 559.316406 1193.371094 559.316406 C 1193.085938 559.304688 1192.804688 559.261719 1192.527344 559.195312 C 1192.601562 559.519531 1192.648438 559.839844 1192.640625 560.15625 C 1192.613281 561.429688 1191.890625 562.335938 1190.613281 562.722656 C 1190.121094 562.871094 1189.558594 562.933594 1188.953125 562.933594 C 1186.207031 562.933594 1182.691406 561.589844 1181.917969 560.472656 C 1181.734375 560.203125 1181.796875 559.839844 1182.058594 559.664062 Z M 1207.152344 551.128906 C 1207.386719 550.917969 1207.75 550.941406 1207.960938 551.175781 C 1208.175781 551.410156 1208.152344 551.773438 1207.917969 551.988281 L 1203.882812 555.605469 C 1203.773438 555.703125 1203.636719 555.753906 1203.5 555.753906 C 1203.34375 555.753906 1203.183594 555.691406 1203.070312 555.5625 C 1202.855469 555.328125 1202.878906 554.964844 1203.113281 554.753906 Z M 1371.207031 594.519531 L 1374.359375 596.6875 C 1374.625 596.863281 1374.6875 597.226562 1374.511719 597.484375 C 1374.402344 597.644531 1374.21875 597.734375 1374.035156 597.734375 C 1373.917969 597.734375 1373.808594 597.699219 1373.707031 597.628906 L 1370.550781 595.460938 C 1370.289062 595.285156 1370.226562 594.921875 1370.402344 594.664062 C 1370.582031 594.402344 1370.941406 594.339844 1371.207031 594.519531 Z M 1387.710938 588.503906 C 1387.933594 588.28125 1388.304688 588.285156 1388.519531 588.511719 C 1388.746094 588.734375 1388.738281 589.101562 1388.515625 589.320312 C 1388.476562 589.359375 1384.460938 593.34375 1383.203125 597.152344 C 1382.863281 598.167969 1383.023438 599.257812 1383.632812 600.136719 C 1384.144531 600.871094 1384.902344 601.347656 1385.757812 601.515625 C 1386.558594 597.96875 1393.679688 594.742188 1394.53125 594.367188 C 1394.816406 594.242188 1395.164062 594.375 1395.289062 594.664062 C 1395.414062 594.957031 1395.28125 595.292969 1394.996094 595.421875 C 1392.726562 596.414062 1386.832031 599.574219 1386.832031 602.148438 C 1386.832031 602.9375 1387.136719 603.21875 1387.367188 603.367188 C 1387.964844 603.742188 1390.101562 604.242188 1397.050781 600.847656 C 1397.339844 600.710938 1397.683594 600.824219 1397.820312 601.113281 C 1397.960938 601.402344 1397.84375 601.742188 1397.558594 601.882812 C 1393.605469 603.808594 1390.613281 604.78125 1388.625 604.78125 C 1387.847656 604.78125 1387.230469 604.636719 1386.757812 604.339844 C 1386.34375 604.082031 1385.863281 603.582031 1385.722656 602.675781 C 1384.496094 602.5 1383.410156 601.828125 1382.691406 600.792969 C 1381.871094 599.613281 1381.65625 598.152344 1382.109375 596.785156 C 1383.460938 592.722656 1387.539062 588.671875 1387.710938 588.503906 Z M 1387.710938 588.503906 " fill-opacity="1" fill-rule="nonzero"/><path fill="#fff0fd" d="M 1167.09375 577.550781 C 1172.730469 584.054688 1183.949219 580.320312 1183.949219 580.320312 C 1184.753906 591.332031 1197.738281 588.988281 1197.738281 588.988281 C 1198.214844 604.367188 1207.96875 603.035156 1207.96875 603.035156 L 1208.265625 602.804688 C 1209.222656 599.640625 1210.132812 596.375 1210.804688 593.292969 C 1211.496094 590.125 1210.6875 586.8125 1208.636719 584.308594 C 1204.441406 579.171875 1196.058594 570.621094 1184.5 567.070312 C 1182.882812 566.570312 1181.128906 566.757812 1179.660156 567.609375 C 1176.964844 569.160156 1172.230469 572.300781 1167.09375 577.550781 Z M 1366.980469 618.011719 C 1367.578125 616.144531 1369.4375 615.015625 1371.375 615.292969 C 1380.777344 616.621094 1389.203125 614.65625 1393.65625 613.246094 C 1395.839844 612.554688 1398.222656 613.078125 1399.917969 614.621094 C 1404.875 619.140625 1408.9375 623.605469 1412.199219 627.984375 L 1412.199219 627.988281 C 1412.199219 627.988281 1403.894531 635.222656 1393.371094 623.996094 C 1393.371094 623.996094 1385.183594 634.347656 1377.300781 626.621094 C 1377.300781 626.621094 1371.355469 636.84375 1362.832031 635.691406 L 1362.738281 635.261719 C 1364.027344 627.867188 1365.824219 621.617188 1366.980469 618.011719 Z M 1366.980469 618.011719 " fill-opacity="1" fill-rule="nonzero"/><g clip-path="url(#98761c47e4)"><path fill="#ef8ea0" d="M 1168.261719 671.191406 C 1180.105469 681.457031 1196.871094 690.5625 1219.527344 691.640625 L 1230.078125 717.292969 L 1221.496094 743.894531 L 1245.085938 743.894531 L 1249.699219 714.507812 L 1227.207031 676.78125 C 1225.363281 673.683594 1222.140625 671.703125 1218.554688 671.332031 C 1169.417969 666.257812 1149.878906 598.964844 1149.878906 598.964844 C 1148.714844 601.699219 1147.792969 604.585938 1147.082031 607.703125 C 1141.710938 631.105469 1150.132812 655.476562 1168.261719 671.191406 Z M 1346.441406 680.300781 C 1348.28125 676.820312 1352.238281 675.046875 1356.070312 675.941406 C 1422.863281 691.652344 1420.089844 642.875 1419.996094 641.464844 L 1420 641.484375 L 1423.585938 654.835938 L 1423.585938 654.847656 C 1423.929688 657.605469 1424.058594 660.5625 1423.925781 663.710938 C 1421.890625 713.769531 1349.617188 692.777344 1349.617188 692.777344 L 1341.203125 718.023438 L 1353.796875 743.894531 L 1330.402344 743.894531 L 1326.515625 718.023438 Z M 1346.441406 680.300781 " fill-opacity="1" fill-rule="nonzero"/></g><path fill="#2b1200" d="M 1250.816406 540.257812 C 1252.046875 540.21875 1253.3125 540.292969 1254.582031 540.503906 C 1258.53125 541.152344 1261.96875 542.996094 1264.542969 545.558594 C 1269.988281 544.007812 1271.761719 542.492188 1273.027344 538.359375 C 1273.027344 538.359375 1292.644531 546.167969 1301.480469 528.648438 C 1301.480469 528.648438 1302.109375 547.078125 1323.011719 551.84375 C 1323.011719 551.84375 1323.003906 555.355469 1326.8125 560.625 C 1330.117188 559.730469 1333.78125 559.773438 1337.359375 560.960938 C 1339.410156 561.640625 1341.261719 562.640625 1342.859375 563.882812 C 1349.402344 553.675781 1335.210938 515.296875 1303.664062 510.371094 C 1271.292969 505.316406 1250.300781 529.914062 1250.816406 540.257812 Z M 1250.816406 540.257812 " fill-opacity="1" fill-rule="nonzero"/><path fill="#ffa4a2" d="M 1271.898438 528.394531 C 1279.464844 529.207031 1292.324219 521.496094 1298.617188 517.351562 C 1299.941406 518.195312 1301.472656 518.804688 1303.152344 519.082031 C 1304.648438 519.320312 1306.125 519.277344 1307.503906 518.996094 C 1312.03125 525.460938 1320.320312 536.09375 1327.152344 538.082031 C 1334.332031 540.175781 1343.914062 530.046875 1346.746094 516.050781 C 1347.839844 510.65625 1347.925781 504.695312 1346.488281 498.632812 C 1342.324219 481.039062 1319.632812 494.71875 1311.027344 500.652344 C 1309.6875 499.785156 1308.136719 499.15625 1306.425781 498.882812 C 1304.402344 498.546875 1302.433594 498.75 1300.65625 499.351562 C 1294.675781 490.300781 1279.28125 470.148438 1268.964844 484.546875 C 1266.484375 488.015625 1264.679688 491.707031 1263.457031 495.425781 L 1263.457031 495.429688 C 1258.25 511.25 1263.558594 527.503906 1271.898438 528.394531 Z M 1271.898438 528.394531 " fill-opacity="1" fill-rule="nonzero"/><path fill="#fff0fd" d="M 1226.632812 717.292969 C 1226.632812 719.199219 1228.179688 720.746094 1230.078125 720.746094 L 1258.75 720.746094 C 1260.019531 727.835938 1263.902344 733.050781 1268.003906 732.847656 C 1273.265625 732.589844 1281.230469 725.9375 1285.09375 722.421875 C 1286.089844 722.859375 1287.203125 723.113281 1288.382812 723.121094 C 1289.433594 723.125 1290.4375 722.933594 1291.351562 722.589844 C 1295.144531 726.527344 1301.949219 732.90625 1306.832031 733.53125 C 1311.183594 734.089844 1315.765625 728.472656 1317.335938 720.738281 L 1341.207031 720.738281 C 1343.109375 720.738281 1344.65625 719.191406 1344.65625 717.289062 C 1344.65625 715.386719 1343.109375 713.839844 1341.207031 713.839844 L 1317.863281 713.839844 C 1317.730469 710.78125 1317.105469 707.59375 1315.824219 704.472656 C 1311.089844 692.886719 1297.039062 704.679688 1291.789062 709.664062 C 1290.777344 709.214844 1289.652344 708.953125 1288.449219 708.945312 C 1287.03125 708.933594 1285.703125 709.285156 1284.554688 709.890625 C 1279.496094 704.339844 1266.804688 692.214844 1261.296875 703.167969 C 1259.96875 705.808594 1259.128906 708.527344 1258.695312 711.199219 L 1258.695312 711.207031 C 1258.550781 712.089844 1258.453125 712.972656 1258.394531 713.839844 L 1230.085938 713.839844 C 1228.179688 713.84375 1226.632812 715.390625 1226.632812 717.292969 Z M 1226.632812 717.292969 " fill-opacity="1" fill-rule="nonzero"/><path fill="#ef8ea0" d="M 1271.898438 528.394531 C 1279.464844 529.207031 1292.324219 521.496094 1298.617188 517.351562 C 1299.941406 518.195312 1301.472656 518.804688 1303.152344 519.082031 C 1304.648438 519.320312 1306.125 519.277344 1307.503906 518.996094 C 1312.03125 525.460938 1320.320312 536.09375 1327.152344 538.082031 C 1334.332031 540.175781 1343.914062 530.046875 1346.746094 516.050781 C 1329.425781 536.117188 1310.234375 512.796875 1310.234375 512.796875 C 1303.117188 513.234375 1296.738281 510.59375 1296.738281 510.59375 C 1262.816406 523.167969 1263.4375 495.949219 1263.457031 495.429688 C 1258.25 511.25 1263.558594 527.503906 1271.898438 528.394531 Z M 1271.898438 528.394531 " fill-opacity="1" fill-rule="nonzero"/><path fill="#2b1200" d="M 1299.191406 517.351562 L 1299.191406 503.988281 C 1299.191406 503.671875 1298.933594 503.414062 1298.617188 503.414062 C 1298.300781 503.414062 1298.042969 503.671875 1298.042969 503.988281 L 1298.042969 517.351562 C 1298.042969 517.667969 1298.300781 517.925781 1298.617188 517.925781 C 1298.933594 517.925781 1299.191406 517.671875 1299.191406 517.351562 Z M 1308.050781 519.179688 C 1307.96875 519.417969 1307.746094 519.574219 1307.503906 519.574219 C 1307.449219 519.574219 1307.382812 519.5625 1307.328125 519.546875 C 1307.027344 519.449219 1306.863281 519.121094 1306.964844 518.820312 L 1311.015625 506.601562 C 1311.113281 506.304688 1311.441406 506.136719 1311.738281 506.242188 C 1312.039062 506.339844 1312.203125 506.667969 1312.101562 506.964844 Z M 1282.554688 712.328125 C 1282.867188 712.257812 1283.171875 712.460938 1283.234375 712.769531 L 1285.289062 722.628906 C 1285.355469 722.941406 1285.160156 723.246094 1284.847656 723.308594 C 1284.808594 723.316406 1284.769531 723.320312 1284.726562 723.320312 C 1284.464844 723.320312 1284.222656 723.136719 1284.164062 722.859375 L 1282.109375 713 C 1282.046875 712.695312 1282.242188 712.390625 1282.554688 712.328125 Z M 1293.695312 712.722656 C 1293.789062 712.417969 1294.109375 712.246094 1294.40625 712.339844 C 1294.710938 712.429688 1294.882812 712.753906 1294.792969 713.050781 L 1291.890625 722.757812 C 1291.816406 723.003906 1291.585938 723.164062 1291.339844 723.164062 C 1291.28125 723.164062 1291.230469 723.160156 1291.171875 723.140625 C 1290.867188 723.050781 1290.695312 722.726562 1290.789062 722.429688 Z M 1258.34375 712.902344 C 1258.660156 712.914062 1258.90625 713.183594 1258.894531 713.5 C 1258.894531 713.546875 1258.703125 718.324219 1259.386719 721.007812 C 1259.46875 721.320312 1259.28125 721.628906 1258.976562 721.710938 C 1258.929688 721.722656 1258.878906 721.726562 1258.832031 721.726562 C 1258.574219 721.726562 1258.34375 721.554688 1258.273438 721.296875 C 1257.550781 718.449219 1257.738281 713.660156 1257.746094 713.460938 C 1257.757812 713.136719 1258.027344 712.878906 1258.34375 712.902344 Z M 1317.324219 714.34375 C 1317.328125 714.027344 1317.585938 713.78125 1317.914062 713.789062 C 1318.230469 713.800781 1318.484375 714.0625 1318.472656 714.378906 C 1318.464844 714.5625 1318.34375 718.945312 1317.910156 720.796875 C 1317.84375 721.0625 1317.609375 721.238281 1317.351562 721.238281 C 1317.304688 721.238281 1317.265625 721.234375 1317.21875 721.222656 C 1316.910156 721.148438 1316.71875 720.84375 1316.789062 720.53125 C 1317.195312 718.789062 1317.316406 714.386719 1317.324219 714.34375 Z M 1246.371094 638.28125 C 1246.691406 638.242188 1246.96875 638.476562 1247.003906 638.792969 C 1247.363281 642.269531 1248.679688 644.707031 1250.910156 646.03125 C 1255.730469 648.894531 1263.339844 645.789062 1263.421875 645.753906 C 1263.667969 645.652344 1263.957031 645.738281 1264.109375 645.957031 C 1267.269531 650.429688 1270.722656 652.789062 1274.371094 652.960938 C 1279.804688 653.21875 1283.894531 648.503906 1283.933594 648.457031 C 1284.128906 648.226562 1284.46875 648.191406 1284.710938 648.371094 C 1289.898438 652.210938 1294.441406 653.691406 1298.203125 652.746094 C 1302.226562 651.746094 1303.945312 648.234375 1303.957031 648.199219 C 1304.085938 647.917969 1304.421875 647.789062 1304.703125 647.917969 C 1310.136719 650.261719 1314.328125 650.566406 1317.160156 648.832031 C 1320.453125 646.808594 1320.753906 642.582031 1320.753906 642.542969 C 1320.769531 642.226562 1321.046875 641.972656 1321.359375 642 C 1321.675781 642.019531 1321.917969 642.289062 1321.902344 642.609375 C 1321.890625 642.804688 1321.574219 647.464844 1317.769531 649.808594 C 1314.691406 651.710938 1310.304688 651.5 1304.726562 649.183594 C 1304.0625 650.285156 1302.140625 652.949219 1298.496094 653.863281 C 1297.664062 654.070312 1296.804688 654.171875 1295.914062 654.171875 C 1292.5 654.171875 1288.652344 652.644531 1284.433594 649.601562 C 1283.261719 650.816406 1279.410156 654.339844 1274.3125 654.109375 C 1270.390625 653.925781 1266.730469 651.535156 1263.421875 646.984375 C 1261.664062 647.640625 1254.992188 649.804688 1250.3125 647.019531 C 1247.753906 645.503906 1246.25 642.769531 1245.847656 638.90625 C 1245.824219 638.597656 1246.054688 638.316406 1246.371094 638.28125 Z M 1280.574219 658.078125 C 1280.574219 659.953125 1282.097656 661.476562 1283.96875 661.476562 C 1285.84375 661.476562 1287.363281 659.953125 1287.363281 658.078125 C 1287.363281 656.203125 1285.84375 654.679688 1283.96875 654.679688 C 1282.097656 654.679688 1280.574219 656.203125 1280.574219 658.078125 Z M 1281.722656 658.078125 C 1281.722656 656.835938 1282.730469 655.828125 1283.96875 655.828125 C 1285.210938 655.828125 1286.214844 656.835938 1286.214844 658.078125 C 1286.214844 659.320312 1285.203125 660.324219 1283.96875 660.324219 C 1282.734375 660.324219 1281.722656 659.320312 1281.722656 658.078125 Z M 1280.574219 667.902344 C 1280.574219 669.777344 1282.097656 671.300781 1283.96875 671.300781 C 1285.84375 671.300781 1287.363281 669.777344 1287.363281 667.902344 C 1287.363281 666.027344 1285.84375 664.503906 1283.96875 664.503906 C 1282.097656 664.503906 1280.574219 666.027344 1280.574219 667.902344 Z M 1281.722656 667.902344 C 1281.722656 666.660156 1282.730469 665.65625 1283.96875 665.65625 C 1285.210938 665.65625 1286.214844 666.667969 1286.214844 667.902344 C 1286.214844 669.140625 1285.203125 670.152344 1283.96875 670.152344 C 1282.734375 670.152344 1281.722656 669.140625 1281.722656 667.902344 Z M 1196.492188 633.15625 C 1200.902344 626.414062 1205.050781 611.09375 1205.089844 610.941406 C 1205.171875 610.636719 1205.488281 610.453125 1205.796875 610.53125 C 1206.101562 610.613281 1206.285156 610.929688 1206.203125 611.238281 C 1206.03125 611.878906 1201.972656 626.890625 1197.457031 633.789062 C 1197.347656 633.957031 1197.164062 634.046875 1196.972656 634.046875 C 1196.863281 634.046875 1196.753906 634.019531 1196.65625 633.957031 C 1196.394531 633.777344 1196.320312 633.421875 1196.492188 633.15625 Z M 1362.890625 635.117188 C 1363.203125 635.148438 1363.441406 635.421875 1363.410156 635.738281 C 1363.398438 635.867188 1362.335938 648.441406 1365.496094 659.699219 C 1365.582031 660.003906 1365.40625 660.320312 1365.101562 660.40625 C 1365.050781 660.421875 1364.996094 660.429688 1364.945312 660.429688 C 1364.691406 660.429688 1364.464844 660.261719 1364.394531 660.007812 C 1361.175781 648.550781 1362.261719 635.769531 1362.273438 635.640625 C 1362.292969 635.324219 1362.566406 635.089844 1362.890625 635.117188 Z M 1362.890625 635.117188 " fill-opacity="1" fill-rule="nonzero"/><g clip-path="url(#2f48359423)"><path fill="#94c3df" d="M 1228.191406 743.472656 L 1177.28125 743.472656 L 1171.992188 729.078125 C 1171.441406 727.585938 1169.230469 727.980469 1169.230469 729.574219 L 1169.230469 743.472656 L 1006.886719 743.472656 L 1006.886719 729.710938 C 1006.886719 728.097656 1004.640625 727.695312 1004.085938 729.210938 L 998.839844 743.472656 L 943.082031 743.472656 C 943.082031 716.140625 949.339844 693.269531 959.246094 674.195312 C 959.640625 673.421875 960.050781 672.652344 960.464844 671.890625 C 965.472656 662.652344 971.339844 654.320312 977.757812 646.824219 C 978.160156 646.351562 978.5625 645.882812 978.976562 645.417969 C 984.195312 639.457031 989.757812 634.039062 995.492188 629.117188 C 995.894531 628.761719 996.304688 628.421875 996.710938 628.078125 C 997.199219 627.664062 997.6875 627.257812 998.179688 626.847656 C 1002.355469 623.40625 1006.609375 620.210938 1010.878906 617.261719 C 1011.917969 616.550781 1012.957031 615.847656 1014.011719 615.171875 C 1014.414062 614.90625 1014.824219 614.640625 1015.230469 614.386719 C 1020.800781 610.851562 1026.585938 607.78125 1032.527344 605.164062 C 1032.929688 604.988281 1033.335938 604.8125 1033.746094 604.640625 C 1034.386719 604.367188 1035.027344 604.097656 1035.664062 603.835938 C 1039.699219 602.191406 1043.800781 600.753906 1047.949219 599.523438 C 1050.011719 598.914062 1052.082031 598.351562 1054.167969 597.847656 C 1076.722656 592.324219 1100.464844 592.832031 1122.800781 599.363281 C 1124.597656 599.894531 1126.390625 600.460938 1128.167969 601.066406 C 1132.042969 602.382812 1135.871094 603.878906 1139.632812 605.566406 C 1139.820312 605.652344 1140.007812 605.738281 1140.199219 605.824219 C 1140.605469 606.007812 1141.007812 606.195312 1141.417969 606.386719 C 1147.367188 609.15625 1153.15625 612.40625 1158.71875 616.125 C 1159.128906 616.398438 1159.535156 616.671875 1159.9375 616.953125 C 1160.089844 617.054688 1160.242188 617.160156 1160.394531 617.261719 C 1166.085938 621.195312 1171.746094 625.550781 1177.234375 630.371094 C 1177.640625 630.726562 1178.050781 631.089844 1178.453125 631.457031 C 1183.492188 635.964844 1188.378906 640.871094 1192.984375 646.203125 C 1193.652344 646.972656 1194.308594 647.753906 1194.96875 648.539062 C 1195.375 649.03125 1195.785156 649.53125 1196.1875 650.03125 C 1202.710938 658.101562 1208.59375 667.082031 1213.488281 677.070312 C 1213.902344 677.917969 1214.308594 678.769531 1214.707031 679.628906 C 1223.042969 697.578125 1228.191406 718.695312 1228.191406 743.472656 Z M 1228.191406 743.472656 " fill-opacity="1" fill-rule="nonzero"/></g><g clip-path="url(#2e863e0e64)"><path fill="#71afd4" d="M 1003.382812 731.113281 L 998.839844 743.472656 L 943.082031 743.472656 C 943.082031 688.21875 968.679688 651.183594 998.179688 626.847656 C 998.179688 626.847656 959.730469 684.511719 1003.382812 731.113281 Z M 1228.191406 743.472656 C 1228.191406 701.214844 1213.226562 669.617188 1192.984375 646.203125 C 1203.828125 677.808594 1212.226562 703.484375 1185.3125 743.472656 Z M 1128.167969 601.066406 C 1126.390625 600.460938 1124.597656 599.894531 1122.800781 599.363281 L 1134.023438 615.171875 L 1139.632812 605.566406 C 1135.871094 603.878906 1132.042969 602.382812 1128.167969 601.066406 Z M 1047.949219 599.523438 C 1043.800781 600.753906 1039.699219 602.191406 1035.664062 603.835938 L 1042.09375 614.851562 L 1054.167969 597.847656 C 1052.082031 598.351562 1050.011719 598.914062 1047.949219 599.523438 Z M 1047.949219 599.523438 " fill-opacity="1" fill-rule="nonzero"/></g><g clip-path="url(#8bd15ebf33)"><path fill="#ede6dd" d="M 1122.734375 610.894531 L 1122.734375 743.472656 L 1051.035156 743.472656 L 1051.035156 609.460938 C 1074.425781 602.222656 1099.574219 602.699219 1122.734375 610.894531 Z M 1122.734375 610.894531 " fill-opacity="1" fill-rule="nonzero"/></g><g clip-path="url(#9483c9d745)"><path fill="#94c3df" d="M 1105.929688 743.472656 L 1070.195312 743.472656 L 1080.964844 654.414062 L 1077.226562 637.769531 L 1098.886719 637.820312 L 1095.15625 654.414062 Z M 1105.929688 743.472656 " fill-opacity="1" fill-rule="nonzero"/></g><g clip-path="url(#df7bbee9a4)"><path fill="#71afd4" d="M 1039.242188 743.472656 L 1030.960938 743.472656 L 1027.847656 707.371094 Z M 1136.761719 743.472656 L 1145.042969 743.472656 L 1148.15625 707.371094 Z M 1136.761719 743.472656 " fill-opacity="1" fill-rule="nonzero"/></g><g clip-path="url(#f85bd94a20)"><path fill="#94c3df" d="M 1126.296875 600.472656 C 1126.296875 600.472656 1143.976562 611.820312 1151.953125 666.300781 C 1152.269531 668.472656 1151.539062 670.667969 1149.984375 672.214844 L 1135.359375 686.765625 L 1146.585938 693.289062 C 1149.230469 694.824219 1150.550781 697.914062 1149.839844 700.886719 C 1147.957031 708.722656 1143.722656 724.867188 1136.882812 743.320312 M 1049.820312 600.472656 C 1049.820312 600.472656 1032.144531 611.820312 1024.164062 666.300781 C 1023.847656 668.472656 1024.578125 670.667969 1026.132812 672.214844 L 1040.761719 686.765625 L 1029.535156 693.289062 C 1026.890625 694.824219 1025.566406 697.914062 1026.28125 700.886719 C 1028.164062 708.722656 1032.398438 724.867188 1039.238281 743.320312 " fill-opacity="1" fill-rule="nonzero"/></g><g clip-path="url(#ddc2d32f25)"><path fill="#11084e" d="M 1136.878906 743.925781 C 1136.804688 743.925781 1136.738281 743.910156 1136.664062 743.886719 C 1136.347656 743.773438 1136.1875 743.417969 1136.304688 743.101562 C 1143.113281 724.738281 1147.328125 708.675781 1149.234375 700.742188 C 1149.882812 698.054688 1148.664062 695.207031 1146.269531 693.8125 L 1135.050781 687.285156 C 1134.882812 687.1875 1134.773438 687.023438 1134.75 686.832031 C 1134.726562 686.644531 1134.792969 686.457031 1134.925781 686.320312 L 1149.554688 671.769531 C 1150.96875 670.363281 1151.636719 668.351562 1151.351562 666.382812 C 1143.507812 612.796875 1126.144531 601.089844 1125.96875 600.980469 C 1125.6875 600.796875 1125.601562 600.417969 1125.785156 600.136719 C 1125.96875 599.859375 1126.347656 599.773438 1126.625 599.957031 C 1127.359375 600.425781 1144.628906 612.078125 1152.550781 666.207031 C 1152.898438 668.550781 1152.09375 670.957031 1150.40625 672.632812 L 1136.339844 686.625 L 1146.878906 692.75 C 1149.734375 694.410156 1151.191406 697.808594 1150.417969 701.015625 C 1148.503906 708.980469 1144.269531 725.09375 1137.445312 743.515625 C 1137.359375 743.773438 1137.128906 743.925781 1136.878906 743.925781 Z M 1039.457031 743.882812 C 1039.773438 743.765625 1039.929688 743.414062 1039.816406 743.09375 C 1033.007812 724.734375 1028.792969 708.667969 1026.882812 700.734375 C 1026.238281 698.046875 1027.457031 695.203125 1029.851562 693.804688 L 1041.078125 687.285156 C 1041.242188 687.1875 1041.351562 687.023438 1041.375 686.832031 C 1041.398438 686.644531 1041.332031 686.457031 1041.199219 686.320312 L 1026.574219 671.769531 C 1025.160156 670.363281 1024.488281 668.351562 1024.773438 666.382812 C 1032.585938 613.007812 1049.925781 601.132812 1050.15625 600.980469 C 1050.4375 600.796875 1050.523438 600.417969 1050.339844 600.136719 C 1050.15625 599.859375 1049.78125 599.773438 1049.5 599.957031 C 1048.769531 600.425781 1031.496094 612.078125 1023.574219 666.207031 C 1023.234375 668.550781 1024.03125 670.957031 1025.71875 672.632812 L 1039.785156 686.625 L 1029.25 692.75 C 1026.390625 694.410156 1024.933594 697.808594 1025.707031 701.015625 C 1027.621094 708.980469 1031.855469 725.09375 1038.683594 743.515625 C 1038.773438 743.757812 1039.003906 743.910156 1039.253906 743.910156 C 1039.308594 743.925781 1039.382812 743.910156 1039.457031 743.882812 Z M 1039.457031 743.882812 " fill-opacity="1" fill-rule="nonzero"/></g><path fill="#ede6dd" d="M 1090.214844 643.046875 C 1088.867188 643.753906 1087.257812 643.753906 1085.910156 643.046875 L 1043.363281 620.777344 C 1041.394531 619.75 1040.492188 617.414062 1041.257812 615.332031 C 1053.214844 582.984375 1083.070312 577.316406 1087.753906 576.613281 L 1087.753906 576.53125 C 1087.753906 576.53125 1087.863281 576.542969 1088.0625 576.566406 C 1088.265625 576.542969 1088.375 576.53125 1088.375 576.53125 L 1088.375 576.613281 C 1093.054688 577.308594 1122.910156 582.976562 1134.867188 615.332031 C 1135.632812 617.414062 1134.730469 619.75 1132.761719 620.777344 Z M 1090.214844 643.046875 " fill-opacity="1" fill-rule="nonzero"/><path fill="#fcc1ae" d="M 1135.492188 529.324219 C 1135.492188 530.105469 1135.46875 530.894531 1135.421875 531.6875 L 1134.152344 553.054688 C 1133.996094 555.761719 1133.5625 558.394531 1132.890625 560.921875 C 1130.289062 570.703125 1124.0625 578.96875 1115.816406 584.261719 L 1115.914062 589.582031 L 1116.222656 607.097656 L 1088.375 634.398438 L 1059.894531 601.308594 L 1064.265625 584.238281 L 1065.738281 578.472656 C 1058.203125 570.703125 1053.800781 559.929688 1054.488281 548.335938 L 1055.75 526.972656 C 1055.789062 526.394531 1055.832031 525.8125 1055.890625 525.242188 C 1058.054688 504.1875 1076.617188 488.238281 1097.941406 489.5 C 1119.058594 490.746094 1135.492188 508.425781 1135.492188 529.324219 Z M 1135.492188 529.324219 " fill-opacity="1" fill-rule="nonzero"/><path fill="#11084e" d="M 1137.035156 535.851562 L 1124.160156 524.582031 C 1100.507812 525.300781 1089.007812 515.976562 1083.417969 507.019531 C 1080.367188 512.21875 1075.167969 517.628906 1066.277344 520.808594 L 1059.894531 533.253906 L 1052.410156 525.242188 C 1052.410156 525.242188 1045.222656 520.675781 1047.554688 509.207031 C 1049.433594 499.96875 1068.691406 481.570312 1080.671875 485.734375 C 1090.5625 470.15625 1115.5 481.734375 1134 497.9375 C 1154.378906 515.78125 1137.035156 535.851562 1137.035156 535.851562 Z M 1091.964844 590.527344 C 1081.644531 589.917969 1072.449219 585.382812 1065.738281 578.472656 L 1064.265625 584.238281 C 1071.003906 591.355469 1080.339844 596.035156 1090.84375 596.660156 C 1100.085938 597.207031 1108.8125 594.519531 1115.914062 589.582031 L 1115.816406 584.261719 C 1108.949219 588.679688 1100.691406 591.046875 1091.964844 590.527344 Z M 1091.964844 590.527344 " fill-opacity="1" fill-rule="nonzero"/><path fill="#fcc1ae" d="M 1154.183594 549.183594 C 1152.960938 558.035156 1143.964844 566.480469 1134.5 565.164062 C 1125.035156 563.855469 1118.679688 553.28125 1119.90625 544.429688 C 1120.585938 539.484375 1123.605469 535.386719 1127.785156 532.96875 C 1131.074219 531.066406 1135.089844 530.207031 1139.265625 530.785156 C 1143.332031 531.347656 1146.882812 533.1875 1149.511719 535.8125 C 1153.003906 539.28125 1154.878906 544.132812 1154.183594 549.183594 Z M 1035.121094 541.097656 C 1035.292969 550.03125 1043.234375 559.476562 1052.785156 559.289062 C 1062.339844 559.101562 1069.894531 549.355469 1069.726562 540.421875 C 1069.628906 535.425781 1067.117188 531.007812 1063.253906 528.113281 C 1060.207031 525.832031 1056.324219 524.503906 1052.113281 524.589844 C 1048.011719 524.660156 1044.269531 526.074219 1041.351562 528.375 C 1037.457031 531.402344 1035.027344 535.996094 1035.121094 541.097656 Z M 1035.121094 541.097656 " fill-opacity="1" fill-rule="nonzero"/><path fill="#11084e" d="M 1083.515625 535.785156 C 1083.382812 538.070312 1081.414062 539.816406 1079.128906 539.679688 C 1076.84375 539.542969 1075.09375 537.574219 1075.234375 535.289062 C 1075.375 533.003906 1077.335938 531.257812 1079.621094 531.394531 C 1081.90625 531.53125 1083.652344 533.5 1083.515625 535.785156 Z M 1111.203125 533.265625 C 1108.917969 533.132812 1106.949219 534.875 1106.816406 537.160156 C 1106.679688 539.445312 1108.421875 541.414062 1110.707031 541.550781 C 1112.996094 541.683594 1114.960938 539.941406 1115.097656 537.65625 C 1115.230469 535.371094 1113.488281 533.402344 1111.203125 533.265625 Z M 1138.546875 557.210938 L 1138.625 556.90625 C 1139.261719 554.515625 1138.347656 551.941406 1136.296875 550.332031 C 1133.933594 548.472656 1134.746094 544.546875 1134.75 544.511719 C 1134.757812 544.480469 1134.761719 544.449219 1134.761719 544.417969 C 1134.925781 541.683594 1137.265625 539.585938 1140.027344 539.746094 C 1141.355469 539.824219 1142.570312 540.414062 1143.453125 541.410156 C 1144.335938 542.402344 1144.78125 543.683594 1144.703125 545.011719 C 1144.683594 545.34375 1144.941406 545.632812 1145.273438 545.65625 C 1145.605469 545.679688 1145.898438 545.417969 1145.921875 545.082031 C 1146.019531 543.433594 1145.46875 541.839844 1144.367188 540.605469 C 1143.265625 539.367188 1141.753906 538.628906 1140.101562 538.53125 C 1136.6875 538.324219 1133.773438 540.914062 1133.550781 544.304688 C 1133.445312 544.832031 1132.703125 549.0625 1135.542969 551.292969 C 1137.207031 552.597656 1137.949219 554.683594 1137.445312 556.601562 L 1137.363281 556.90625 C 1137.28125 557.230469 1137.472656 557.5625 1137.796875 557.648438 C 1137.851562 557.660156 1137.902344 557.667969 1137.957031 557.667969 C 1138.222656 557.660156 1138.472656 557.484375 1138.546875 557.210938 Z M 1050.304688 551.441406 C 1050.003906 551.441406 1049.742188 551.21875 1049.699219 550.914062 L 1049.65625 550.605469 C 1049.308594 548.160156 1050.523438 545.707031 1052.742188 544.347656 C 1055.308594 542.78125 1054.964844 538.789062 1054.960938 538.746094 C 1054.960938 538.714844 1054.953125 538.683594 1054.960938 538.652344 C 1055.039062 537.324219 1054.59375 536.050781 1053.710938 535.050781 C 1052.828125 534.058594 1051.609375 533.46875 1050.285156 533.390625 C 1047.542969 533.238281 1045.183594 535.320312 1045.019531 538.0625 C 1045 538.398438 1044.710938 538.660156 1044.375 538.636719 C 1044.039062 538.617188 1043.78125 538.324219 1043.800781 537.988281 C 1044.003906 534.578125 1046.941406 531.960938 1050.351562 532.171875 C 1052.003906 532.265625 1053.519531 533.003906 1054.617188 534.242188 C 1055.710938 535.46875 1056.257812 537.039062 1056.171875 538.679688 C 1056.214844 539.214844 1056.453125 543.503906 1053.367188 545.386719 C 1051.566406 546.492188 1050.578125 548.472656 1050.859375 550.433594 L 1050.902344 550.746094 C 1050.949219 551.082031 1050.71875 551.386719 1050.382812 551.433594 C 1050.359375 551.433594 1050.332031 551.441406 1050.304688 551.441406 Z M 1095.316406 553.367188 C 1093.21875 553.367188 1091.226562 552.371094 1089.957031 550.660156 L 1089.878906 550.550781 C 1088.238281 548.324219 1088.148438 545.277344 1089.660156 542.960938 L 1092.109375 539.203125 C 1092.292969 538.921875 1092.671875 538.84375 1092.949219 539.027344 C 1093.230469 539.207031 1093.308594 539.585938 1093.128906 539.867188 L 1090.675781 543.628906 C 1089.445312 545.515625 1089.519531 548.007812 1090.859375 549.824219 L 1090.9375 549.933594 C 1092.117188 551.53125 1094.066406 552.359375 1096.039062 552.097656 L 1099.484375 551.636719 C 1099.820312 551.59375 1100.125 551.824219 1100.164062 552.160156 C 1100.207031 552.492188 1099.976562 552.796875 1099.640625 552.839844 L 1096.199219 553.304688 C 1095.90625 553.347656 1095.609375 553.367188 1095.316406 553.367188 Z M 1094.570312 562.117188 C 1091.175781 562.117188 1087.253906 561.347656 1083.429688 558.875 C 1083.152344 558.691406 1083.066406 558.3125 1083.25 558.035156 C 1083.429688 557.753906 1083.808594 557.667969 1084.089844 557.851562 C 1093.492188 563.9375 1103.53125 559.058594 1103.632812 559.007812 C 1103.9375 558.855469 1104.296875 558.984375 1104.449219 559.28125 C 1104.601562 559.582031 1104.480469 559.945312 1104.175781 560.097656 C 1104.113281 560.136719 1100.03125 562.117188 1094.570312 562.117188 Z M 1088.0625 644.1875 C 1087.226562 644.1875 1086.386719 643.984375 1085.625 643.589844 L 1043.074219 621.320312 C 1042.777344 621.164062 1042.660156 620.796875 1042.820312 620.5 C 1042.976562 620.199219 1043.34375 620.085938 1043.640625 620.242188 L 1086.191406 642.511719 C 1087.363281 643.125 1088.757812 643.125 1089.933594 642.511719 L 1132.484375 620.242188 C 1132.78125 620.085938 1133.148438 620.199219 1133.304688 620.5 C 1133.464844 620.796875 1133.347656 621.164062 1133.050781 621.320312 L 1090.5 643.589844 C 1089.734375 643.984375 1088.898438 644.1875 1088.0625 644.1875 Z M 1095.15625 655.023438 L 1080.964844 655.023438 C 1080.628906 655.023438 1080.355469 654.75 1080.355469 654.414062 C 1080.355469 654.078125 1080.628906 653.804688 1080.964844 653.804688 L 1095.15625 653.804688 C 1095.492188 653.804688 1095.765625 654.078125 1095.765625 654.414062 C 1095.765625 654.75 1095.492188 655.023438 1095.15625 655.023438 Z M 1095.15625 655.023438 " fill-opacity="1" fill-rule="nonzero"/></svg>