<svg xmlns="http://www.w3.org/2000/svg" xmlns:xlink="http://www.w3.org/1999/xlink" width="1601" zoomAndPan="magnify" viewBox="0 0 1200.75 647.24998" height="863" preserveAspectRatio="xMidYMid meet" version="1.0"><defs><filter x="0%" y="0%" width="100%" height="100%" id="241db9efb3"><feColorMatrix values="0 0 0 0 1 0 0 0 0 1 0 0 0 0 1 0 0 0 1 0" color-interpolation-filters="sRGB"/></filter><clipPath id="bb79ccb953"><path d="M 0.570312 0 L 1199.929688 0 L 1199.929688 646.5 L 0.570312 646.5 Z M 0.570312 0 " clip-rule="nonzero"/></clipPath><clipPath id="71f2fc4df3"><path d="M 0.570312 0.441406 L 1199.929688 0.441406 L 1199.929688 644.992188 L 0.570312 644.992188 Z M 0.570312 0.441406 " clip-rule="nonzero"/></clipPath><clipPath id="63cc3d015c"><path d="M 8.0625 0.441406 L 1192.433594 0.441406 C 1196.570312 0.441406 1199.925781 3.792969 1199.925781 7.929688 L 1199.925781 637.5 C 1199.925781 641.636719 1196.570312 644.992188 1192.433594 644.992188 L 8.0625 644.992188 C 3.925781 644.992188 0.570312 641.636719 0.570312 637.5 L 0.570312 7.929688 C 0.570312 3.792969 3.925781 0.441406 8.0625 0.441406 Z M 8.0625 0.441406 " clip-rule="nonzero"/></clipPath><clipPath id="a9201aed6b"><path d="M 886 0 L 1199.929688 0 L 1199.929688 243 L 886 243 Z M 886 0 " clip-rule="nonzero"/></clipPath><mask id="eff7068d8f"><g filter="url(#241db9efb3)"><rect x="-120.075" width="1440.9" fill="#000000" y="-64.724998" height="776.699976" fill-opacity="0.4"/></g></mask><clipPath id="cbe53df1f5"><path d="M 0.753906 0 L 313.890625 0 L 313.890625 241.96875 L 0.753906 241.96875 Z M 0.753906 0 " clip-rule="nonzero"/></clipPath><clipPath id="93d1ed5c95"><path d="M 63 0 L 313.890625 0 L 313.890625 194 L 63 194 Z M 63 0 " clip-rule="nonzero"/></clipPath><clipPath id="7766ddf444"><path d="M 126 0 L 313.890625 0 L 313.890625 146 L 126 146 Z M 126 0 " clip-rule="nonzero"/></clipPath><clipPath id="940a9a17eb"><path d="M 188 0 L 313.890625 0 L 313.890625 97 L 188 97 Z M 188 0 " clip-rule="nonzero"/></clipPath><clipPath id="bf73513066"><path d="M 251 0 L 313.890625 0 L 313.890625 49 L 251 49 Z M 251 0 " clip-rule="nonzero"/></clipPath><clipPath id="fb14bac1e6"><rect x="0" width="314" y="0" height="243"/></clipPath><clipPath id="6d2b383a7e"><path d="M 0.570312 385 L 247 385 L 247 646.5 L 0.570312 646.5 Z M 0.570312 385 " clip-rule="nonzero"/></clipPath><mask id="04f637a0d5"><g filter="url(#241db9efb3)"><rect x="-120.075" width="1440.9" fill="#000000" y="-64.724998" height="776.699976" fill-opacity="0.4"/></g></mask><clipPath id="210a8d45ad"><path d="M 0.570312 1.078125 L 245 1.078125 L 245 261.5 L 0.570312 261.5 Z M 0.570312 1.078125 " clip-rule="nonzero"/></clipPath><clipPath id="4092ee773c"><path d="M 0.570312 53 L 197 53 L 197 261.5 L 0.570312 261.5 Z M 0.570312 53 " clip-rule="nonzero"/></clipPath><clipPath id="15268273dd"><path d="M 0.570312 105 L 148 105 L 148 261.5 L 0.570312 261.5 Z M 0.570312 105 " clip-rule="nonzero"/></clipPath><clipPath id="87944e065d"><path d="M 0.570312 157 L 99 157 L 99 261.5 L 0.570312 261.5 Z M 0.570312 157 " clip-rule="nonzero"/></clipPath><clipPath id="96e87672bc"><path d="M 0.570312 209 L 50 209 L 50 261.5 L 0.570312 261.5 Z M 0.570312 209 " clip-rule="nonzero"/></clipPath><clipPath id="5dffc2b8e0"><rect x="0" width="247" y="0" height="262"/></clipPath></defs><g clip-path="url(#bb79ccb953)"><path fill="#ffffff" d="M 0.570312 0 L 1199.929688 0 L 1199.929688 646.5 L 0.570312 646.5 Z M 0.570312 0 " fill-opacity="1" fill-rule="nonzero"/></g><g clip-path="url(#71f2fc4df3)"><g clip-path="url(#63cc3d015c)"><path fill="#ffffff" d="M 0.570312 0.441406 L 1199.03125 0.441406 L 1199.03125 644.992188 L 0.570312 644.992188 Z M 0.570312 0.441406 " fill-opacity="1" fill-rule="nonzero"/></g></g><g clip-path="url(#a9201aed6b)"><g mask="url(#eff7068d8f)"><g transform="matrix(1, 0, 0, 1, 886, 0)"><g clip-path="url(#fb14bac1e6)"><g clip-path="url(#cbe53df1f5)"><path fill="#f4abba" d="M 313.882812 241.957031 C 273.238281 234.839844 232.53125 227.71875 191.136719 212.554688 C 149.734375 197.390625 107.578125 174.234375 75.675781 137.480469 C 43.828125 100.726562 22.289062 50.367188 0.75 0.0117188 L 313.882812 0.0117188 Z M 313.882812 241.957031 " fill-opacity="1" fill-rule="evenodd"/></g><g clip-path="url(#93d1ed5c95)"><path fill="#fcc4b0" d="M 313.882812 193.335938 C 281.335938 187.613281 248.785156 181.949219 215.652344 169.867188 C 182.523438 157.726562 148.753906 139.222656 123.265625 109.855469 C 97.78125 80.488281 80.519531 40.25 63.261719 0.0117188 L 313.882812 0.0117188 Z M 313.882812 193.335938 " fill-opacity="1" fill-rule="evenodd"/></g><g clip-path="url(#7766ddf444)"><path fill="#f7f4b1" d="M 313.882812 145.296875 C 289.554688 141.007812 265.164062 136.722656 240.375 127.628906 C 215.585938 118.53125 190.324219 104.628906 171.253906 82.558594 C 152.1875 60.488281 139.238281 30.25 126.351562 0.0117188 L 313.882812 0.0117188 Z M 313.882812 145.296875 " fill-opacity="1" fill-rule="evenodd"/></g><g clip-path="url(#940a9a17eb)"><path fill="#c3a1c1" d="M 313.882812 96.675781 C 297.640625 93.839844 281.402344 90.949219 264.871094 84.9375 C 248.339844 78.867188 231.519531 69.617188 218.800781 54.933594 C 206.027344 40.25 197.472656 20.128906 188.859375 0.0117188 L 313.882812 0.0117188 Z M 313.882812 96.675781 " fill-opacity="1" fill-rule="evenodd"/></g><g clip-path="url(#bf73513066)"><path fill="#9dd9e2" d="M 313.882812 48.632812 C 305.796875 47.179688 297.652344 45.78125 289.386719 42.699219 C 281.128906 39.675781 272.695312 35.023438 266.339844 27.636719 C 259.984375 20.25 255.707031 10.132812 251.371094 0.0117188 L 313.882812 0.0117188 Z M 313.882812 48.632812 " fill-opacity="1" fill-rule="evenodd"/></g></g></g></g></g><g clip-path="url(#6d2b383a7e)"><g mask="url(#04f637a0d5)"><g transform="matrix(1, 0, 0, 1, 0, 385)"><g clip-path="url(#5dffc2b8e0)"><g clip-path="url(#210a8d45ad)"><path fill="#9dd9e2" d="M 0.644531 6.742188 C 50.554688 0.84375 100.515625 -5.058594 142.703125 14.964844 C 184.945312 34.984375 219.460938 80.878906 234.484375 126.347656 C 249.5625 171.816406 245.152344 216.761719 240.738281 261.757812 L 0.644531 261.757812 Z M 0.644531 6.742188 " fill-opacity="1" fill-rule="evenodd"/></g><g clip-path="url(#4092ee773c)"><path fill="#c3a1c1" d="M 0.644531 57.730469 C 40.574219 53.039062 80.503906 48.296875 114.285156 64.316406 C 148.070312 80.335938 175.707031 117.0625 187.738281 153.421875 C 199.769531 189.777344 196.25 225.769531 192.730469 261.757812 L 0.644531 261.757812 Z M 0.644531 57.730469 " fill-opacity="1" fill-rule="evenodd"/></g><g clip-path="url(#15268273dd)"><path fill="#f7f4b1" d="M 0.644531 108.734375 C 30.589844 105.207031 60.535156 101.675781 85.859375 113.6875 C 111.234375 125.703125 131.933594 153.210938 140.972656 180.503906 C 150.007812 207.800781 147.328125 234.777344 144.703125 261.757812 L 0.644531 261.757812 Z M 0.644531 108.734375 " fill-opacity="1" fill-rule="evenodd"/></g><g clip-path="url(#87944e065d)"><path fill="#fcc4b2" d="M 0.644531 159.742188 C 20.605469 157.371094 40.570312 155.050781 57.484375 163.0625 C 74.347656 171.019531 88.164062 189.410156 94.203125 207.589844 C 100.191406 225.769531 98.460938 243.789062 96.671875 261.757812 L 0.644531 261.757812 Z M 0.644531 159.742188 " fill-opacity="1" fill-rule="evenodd"/></g><g clip-path="url(#96e87672bc)"><path fill="#f4abba" d="M 0.644531 210.753906 C 10.625 209.59375 20.601562 208.382812 29.058594 212.386719 C 37.515625 216.390625 44.398438 225.558594 47.390625 234.675781 C 50.4375 243.789062 49.546875 252.746094 48.652344 261.757812 L 0.644531 261.757812 Z M 0.644531 210.753906 " fill-opacity="1" fill-rule="evenodd"/></g></g></g></g></g></svg>