<svg xmlns="http://www.w3.org/2000/svg" xmlns:xlink="http://www.w3.org/1999/xlink" width="500" zoomAndPan="magnify" viewBox="0 0 375 374.999991" height="500" preserveAspectRatio="xMidYMid meet" version="1.0"><defs><clipPath id="a265680fa6"><path d="M 25.972656 25.972656 L 349.222656 25.972656 L 349.222656 349.222656 L 25.972656 349.222656 Z M 25.972656 25.972656 " clip-rule="nonzero"/></clipPath><clipPath id="f4ec44ddb0"><path d="M 142.746094 113.25 L 349.222656 113.25 L 349.222656 349.222656 L 142.746094 349.222656 Z M 142.746094 113.25 " clip-rule="nonzero"/></clipPath><clipPath id="e637f1dfef"><path d="M 349.222656 187.597656 C 349.222656 276.859375 276.859375 349.222656 187.597656 349.222656 C 98.332031 349.222656 25.972656 276.859375 25.972656 187.597656 C 25.972656 98.332031 98.332031 25.972656 187.597656 25.972656 C 276.859375 25.972656 349.222656 98.332031 349.222656 187.597656 Z M 349.222656 187.597656 " clip-rule="nonzero"/></clipPath></defs><g clip-path="url(#a265680fa6)"><path fill="#7ac943" d="M 349.222656 187.597656 C 349.222656 276.859375 276.859375 349.222656 187.597656 349.222656 C 98.332031 349.222656 25.972656 276.859375 25.972656 187.597656 C 25.972656 98.332031 98.332031 25.972656 187.597656 25.972656 C 276.859375 25.972656 349.222656 98.332031 349.222656 187.597656 " fill-opacity="1" fill-rule="nonzero"/></g><g clip-path="url(#f4ec44ddb0)"><g clip-path="url(#e637f1dfef)"><path fill="#69ad3a" d="M 421.148438 243.957031 L 290.671875 113.476562 L 142.835938 262.121094 L 261.199219 380.480469 L 421.148438 243.957031 " fill-opacity="1" fill-rule="nonzero"/></g></g><path fill="#ffffff" d="M 290.671875 113.476562 C 286.355469 109.160156 280.617188 106.785156 274.511719 106.785156 C 268.40625 106.785156 262.664062 109.160156 258.347656 113.476562 L 158.613281 213.210938 L 116.84375 171.441406 C 112.527344 167.125 106.789062 164.75 100.683594 164.75 C 94.578125 164.75 88.839844 167.125 84.519531 171.441406 C 75.609375 180.355469 75.609375 194.855469 84.519531 203.765625 L 142.242188 261.484375 C 142.304688 261.550781 142.371094 261.621094 142.449219 261.703125 C 143.546875 262.796875 144.757812 263.785156 146.039062 264.628906 C 149.777344 267.101562 154.132812 268.410156 158.632812 268.410156 C 164.738281 268.410156 170.476562 266.03125 174.789062 261.71875 C 175 261.507812 285.949219 150.523438 290.671875 145.800781 C 294.988281 141.484375 297.367188 135.746094 297.367188 129.640625 C 297.367188 123.535156 294.988281 117.796875 290.671875 113.476562 " fill-opacity="1" fill-rule="nonzero"/></svg>