<svg xmlns="http://www.w3.org/2000/svg" xmlns:xlink="http://www.w3.org/1999/xlink" width="500" zoomAndPan="magnify" viewBox="0 0 375 374.999991" height="500" preserveAspectRatio="xMidYMid meet" version="1.0"><path fill="#fcc9b4" d="M 228.277344 211.527344 C 228.277344 211.527344 232.40625 234.15625 230.207031 253.683594 C 228 273.207031 230.855469 282.847656 230.855469 282.847656 C 230.855469 282.847656 219.921875 291.246094 209.910156 284.328125 C 209.910156 284.328125 208.71875 273.453125 202.65625 250.46875 C 196.59375 227.484375 197.699219 211.527344 197.699219 211.527344 Z M 160.128906 210.066406 C 160.128906 210.066406 147.945312 229.582031 142.792969 248.539062 C 137.644531 267.5 131.4375 275.40625 131.4375 275.40625 C 131.4375 275.40625 138.507812 287.246094 150.355469 284.503906 C 150.355469 284.503906 155.476562 274.832031 169.582031 255.703125 C 183.6875 236.574219 188.550781 221.335938 188.550781 221.335938 Z M 160.128906 210.066406 " fill-opacity="1" fill-rule="nonzero"/><path fill="#000000" d="M 233.96875 318.246094 C 235.269531 330.480469 241.941406 343.273438 241.941406 347.722656 C 241.941406 352.171875 237.679688 359.027344 229.519531 359.953125 C 221.367188 360.882812 211.355469 355.324219 212.285156 348.652344 C 213.210938 341.980469 212.285156 319.734375 212.285156 319.734375 C 211.878906 299.703125 232.667969 306.015625 233.96875 318.246094 Z M 115.496094 307.175781 C 109.78125 318.066406 98.863281 327.496094 97.222656 331.632812 C 95.582031 335.773438 97.019531 343.714844 104.257812 347.585938 C 111.496094 351.453125 122.847656 349.972656 124.445312 343.429688 C 126.042969 336.890625 135.109375 316.554688 135.109375 316.554688 C 142.863281 298.09375 121.207031 296.277344 115.496094 307.175781 Z M 115.496094 307.175781 " fill-opacity="1" fill-rule="nonzero"/><path fill="#ede6dd" d="M 226.59375 351.484375 C 224.742188 351.484375 223.085938 350.816406 221.671875 349.5 C 214.433594 342.757812 215.59375 321.121094 215.644531 320.207031 C 215.660156 320.003906 215.820312 319.84375 216.03125 319.867188 C 216.234375 319.878906 216.386719 320.046875 216.371094 320.25 C 216.355469 320.476562 215.179688 342.457031 222.164062 348.96875 C 223.675781 350.378906 225.488281 350.960938 227.550781 350.691406 C 229.648438 350.421875 231.253906 349.398438 232.320312 347.65625 C 237.175781 339.742188 230.046875 319.496094 229.976562 319.292969 C 229.910156 319.101562 230.003906 318.894531 230.195312 318.828125 C 230.382812 318.753906 230.59375 318.855469 230.660156 319.046875 C 230.964844 319.886719 237.976562 339.824219 232.9375 348.035156 C 231.746094 349.972656 229.960938 351.113281 227.636719 351.410156 C 227.289062 351.460938 226.941406 351.484375 226.59375 351.484375 Z M 217.242188 339.671875 C 227.667969 334.777344 234.09375 338.117188 234.148438 338.144531 C 234.324219 338.242188 234.542969 338.175781 234.644531 338 C 234.738281 337.828125 234.671875 337.609375 234.5 337.507812 C 234.230469 337.363281 227.71875 333.949219 216.9375 339.011719 C 216.753906 339.097656 216.675781 339.316406 216.761719 339.496094 C 216.828125 339.628906 216.957031 339.707031 217.089844 339.707031 C 217.140625 339.707031 217.199219 339.691406 217.242188 339.671875 Z M 216.457031 333.753906 C 216.546875 333.703125 225.148438 328.722656 233.578125 332.542969 C 233.757812 332.621094 233.976562 332.542969 234.054688 332.359375 C 234.136719 332.179688 234.054688 331.960938 233.875 331.878906 C 225.097656 327.902344 216.175781 333.070312 216.082031 333.128906 C 215.90625 333.230469 215.847656 333.457031 215.949219 333.628906 C 216.015625 333.746094 216.136719 333.8125 216.261719 333.8125 C 216.335938 333.804688 216.398438 333.78125 216.457031 333.753906 Z M 220.191406 335.054688 C 224.582031 332.445312 230.613281 333.777344 230.671875 333.789062 C 230.867188 333.839844 231.066406 333.710938 231.109375 333.515625 C 231.152344 333.316406 231.027344 333.121094 230.832031 333.078125 C 230.578125 333.019531 224.457031 331.664062 219.8125 334.421875 C 219.636719 334.523438 219.578125 334.75 219.6875 334.921875 C 219.753906 335.039062 219.878906 335.097656 220 335.097656 C 220.066406 335.105469 220.132812 335.089844 220.191406 335.054688 Z M 115.761719 340.808594 C 124.453125 337.371094 130.347656 319.285156 130.59375 318.515625 C 130.652344 318.328125 130.550781 318.125 130.363281 318.058594 C 130.175781 317.992188 129.972656 318.101562 129.90625 318.289062 C 129.847656 318.472656 123.871094 336.808594 115.503906 340.128906 C 113.484375 340.925781 111.464844 340.78125 109.5 339.683594 C 107.648438 338.660156 106.535156 337.121094 106.179688 335.105469 C 104.582031 325.957031 118.675781 309.765625 118.820312 309.601562 C 118.949219 309.449219 118.9375 309.222656 118.785156 309.085938 C 118.632812 308.953125 118.40625 308.96875 118.269531 309.121094 C 117.679688 309.796875 103.804688 325.738281 105.460938 335.226562 C 105.855469 337.472656 107.085938 339.183594 109.140625 340.316406 C 110.390625 341.007812 111.660156 341.355469 112.945312 341.355469 C 113.875 341.375 114.820312 341.1875 115.761719 340.808594 Z M 123.648438 333.273438 C 123.792969 333.136719 123.800781 332.90625 123.660156 332.757812 C 115.503906 324.082031 108.199219 324.847656 107.886719 324.890625 C 107.691406 324.910156 107.546875 325.09375 107.566406 325.296875 C 107.589844 325.492188 107.777344 325.644531 107.972656 325.617188 C 108.046875 325.609375 115.21875 324.851562 123.132812 333.265625 C 123.203125 333.339844 123.300781 333.382812 123.394531 333.382812 C 123.488281 333.367188 123.582031 333.339844 123.648438 333.273438 Z M 126.566406 328.105469 C 126.726562 327.980469 126.753906 327.757812 126.632812 327.597656 C 126.566406 327.519531 120.164062 319.414062 110.550781 319.878906 C 110.347656 319.886719 110.195312 320.0625 110.203125 320.257812 C 110.210938 320.460938 110.375 320.628906 110.578125 320.597656 C 119.820312 320.164062 125.984375 327.960938 126.050781 328.039062 C 126.125 328.132812 126.230469 328.179688 126.339844 328.179688 C 126.421875 328.1875 126.492188 328.164062 126.566406 328.105469 Z M 122.609375 327.945312 C 122.769531 327.824219 122.796875 327.597656 122.675781 327.4375 C 119.378906 323.160156 113.191406 322.167969 112.933594 322.125 C 112.734375 322.09375 112.546875 322.234375 112.519531 322.429688 C 112.488281 322.625 112.628906 322.8125 112.824219 322.84375 C 112.882812 322.847656 118.980469 323.828125 122.101562 327.878906 C 122.171875 327.976562 122.28125 328.019531 122.390625 328.019531 C 122.464844 328.019531 122.542969 327.996094 122.609375 327.945312 Z M 122.609375 327.945312 " fill-opacity="1" fill-rule="nonzero"/><path fill="#ede6dd" d="M 231.261719 285.257812 C 231.058594 287.027344 231.378906 288.808594 232.132812 290.425781 C 233.773438 293.925781 233.902344 298.433594 233.832031 300.886719 C 233.800781 301.867188 233.933594 302.835938 234.1875 303.777344 C 235.378906 308.207031 236.496094 324.183594 222.839844 324.019531 C 210.699219 323.875 209.835938 311.988281 210.046875 306.761719 C 210.097656 305.449219 209.929688 304.117188 209.421875 302.90625 C 208.195312 299.972656 208.753906 295.835938 209.386719 293.011719 C 209.777344 291.261719 209.617188 289.445312 209.039062 287.753906 C 207.398438 282.976562 208.074219 273.554688 208.074219 273.554688 C 221.519531 277.359375 229.394531 270.230469 229.394531 270.230469 C 231.753906 276.203125 231.644531 281.933594 231.261719 285.257812 Z M 156.105469 275.101562 C 156.105469 275.101562 145.636719 276.917969 136.316406 266.503906 C 136.316406 266.503906 130.703125 274.105469 129.535156 279.015625 C 129.121094 280.757812 128.285156 282.375 127.015625 283.640625 C 124.96875 285.679688 122.289062 288.878906 121.753906 292.015625 C 121.535156 293.316406 120.96875 294.527344 120.222656 295.609375 C 117.246094 299.914062 111.617188 310.421875 121.796875 317.035156 C 133.246094 324.476562 140.851562 310.382812 142.210938 306 C 142.5 305.0625 142.90625 304.175781 143.453125 303.363281 C 144.824219 301.332031 147.125 297.445312 147.613281 293.613281 C 147.835938 291.84375 148.519531 290.164062 149.636719 288.777344 C 151.742188 286.179688 154.902344 281.402344 156.105469 275.101562 Z M 156.105469 275.101562 " fill-opacity="1" fill-rule="nonzero"/><path fill="#50c878" d="M 233.226562 201.871094 L 237.316406 228.382812 C 237.476562 229.398438 236.960938 230.417969 236.046875 230.882812 C 224.929688 236.542969 215.617188 232.644531 215.617188 232.644531 C 208.574219 238.207031 195.601562 235.300781 195.601562 235.300781 C 183.179688 239.441406 174.496094 234.875 174.496094 234.875 C 163.773438 236.542969 157.972656 232.835938 157.972656 232.835938 C 151.683594 233.617188 146.445312 230.886719 143.910156 229.21875 C 142.964844 228.601562 142.691406 227.347656 143.292969 226.394531 L 159.011719 205.328125 Z M 233.226562 201.871094 " fill-opacity="1" fill-rule="nonzero"/><path fill="#0f52ba" d="M 191.832031 32.359375 C 191.832031 32.359375 202.023438 27.429688 206.011719 37.085938 C 209.996094 46.742188 217.9375 44.230469 218.34375 55.597656 C 218.753906 66.96875 209.089844 72.5 209.894531 79.542969 C 210.699219 86.582031 208.296875 106.636719 182.480469 104.625 C 156.664062 102.613281 179.476562 139.902344 156.671875 150.101562 C 133.871094 160.292969 128.234375 146.078125 128.234375 146.078125 C 128.234375 146.078125 116.03125 147.691406 113.882812 137.230469 C 113.882812 137.230469 134.007812 141.851562 128.503906 125.589844 C 123 109.328125 122.871094 100.8125 133.738281 93.199219 C 144.605469 85.582031 148.628906 84.785156 143.394531 74.183594 C 138.160156 63.585938 149.695312 57.414062 149.695312 57.414062 C 149.695312 57.414062 143.925781 44.265625 158.683594 37.289062 C 158.683594 37.289062 178.003906 14.085938 191.832031 32.359375 Z M 191.832031 32.359375 " fill-opacity="1" fill-rule="nonzero"/><path fill="#000000" d="M 241.75 98.039062 C 241.75 98.039062 235.632812 97.234375 243.050781 87.195312 C 250.46875 77.152344 276.941406 91.867188 278.226562 108.800781 C 279.378906 124.007812 239.886719 133.589844 231.847656 135.378906 C 230.992188 135.566406 230.339844 136.261719 230.199219 137.128906 L 228.066406 150.203125 C 227.355469 154.574219 227.246094 159.023438 227.761719 163.421875 L 230.898438 190.496094 C 230.925781 190.761719 231.015625 191.015625 231.136719 191.25 C 233.359375 195.394531 234.316406 200.5625 234.695312 203.222656 C 234.839844 204.253906 234.222656 205.238281 233.234375 205.558594 C 211.230469 212.667969 156.585938 213.027344 155.378906 208.695312 C 154.320312 204.890625 156.511719 198.015625 157.167969 196.097656 C 157.28125 195.757812 157.3125 195.402344 157.246094 195.046875 C 155.496094 184.957031 155.496094 174.761719 155.78125 168.164062 C 155.976562 163.640625 155.0625 159.140625 153.109375 155.058594 C 149.761719 148.066406 144.6875 134.6875 142.464844 114.535156 C 139.226562 85.144531 177.632812 88.015625 182.546875 88.5 C 182.894531 88.535156 183.238281 88.480469 183.5625 88.347656 C 216.972656 74.671875 241.75 98.039062 241.75 98.039062 Z M 241.75 98.039062 " fill-opacity="1" fill-rule="nonzero"/><path fill="#ede6dd" d="M 231.015625 191.257812 C 230.621094 191.335938 199.558594 197.59375 175.070312 197.59375 C 168.398438 197.59375 162.210938 197.128906 157.261719 195.945312 C 157.066406 195.902344 156.949219 195.707031 156.992188 195.511719 C 157.035156 195.316406 157.238281 195.191406 157.429688 195.242188 C 180.367188 200.722656 230.367188 190.648438 230.867188 190.546875 C 231.058594 190.5 231.253906 190.632812 231.296875 190.828125 C 231.332031 191.023438 231.210938 191.21875 231.015625 191.257812 Z M 230.230469 135.980469 C 230.296875 136.023438 230.367188 136.046875 230.441406 136.046875 C 230.554688 136.046875 230.664062 135.996094 230.738281 135.894531 C 230.855469 135.726562 230.8125 135.5 230.652344 135.386719 C 212.066406 122.375 224.71875 88.269531 224.851562 87.925781 C 224.921875 87.738281 224.828125 87.527344 224.640625 87.460938 C 224.449219 87.390625 224.242188 87.484375 224.167969 87.671875 C 224.03125 88.015625 211.179688 122.644531 230.230469 135.980469 Z M 155.648438 111.464844 C 155.539062 111.59375 154.566406 112.84375 153.660156 116.191406 C 152.613281 109.25 147.589844 97.988281 147.351562 97.453125 C 147.269531 97.269531 147.054688 97.191406 146.871094 97.269531 C 146.691406 97.351562 146.609375 97.566406 146.691406 97.75 C 146.753906 97.894531 153.167969 112.285156 153.121094 118.492188 C 151.765625 125.285156 151.046875 137.992188 154.777344 160.691406 C 154.808594 160.875 154.960938 160.996094 155.132812 160.996094 C 155.15625 160.996094 155.171875 160.996094 155.191406 160.992188 C 155.386719 160.960938 155.527344 160.773438 155.488281 160.578125 C 149.035156 121.316406 156.128906 112.023438 156.199219 111.929688 C 156.324219 111.777344 156.300781 111.542969 156.148438 111.421875 C 156.003906 111.28125 155.78125 111.304688 155.648438 111.464844 Z M 155.648438 111.464844 " fill-opacity="1" fill-rule="nonzero"/><path fill="#ede6dd" d="M 197.160156 101.066406 L 184.988281 142.019531 C 184.761719 142.78125 183.703125 142.828125 183.425781 142.085938 C 180.464844 134.265625 170.84375 108.792969 169.28125 103.78125 C 167.636719 98.511719 191.164062 99.679688 196.429688 100.007812 C 196.949219 100.042969 197.304688 100.558594 197.160156 101.066406 Z M 250.585938 82.835938 C 245.621094 82.835938 241.597656 86.859375 241.597656 91.824219 C 241.597656 96.792969 245.621094 100.8125 250.585938 100.8125 C 255.550781 100.8125 259.574219 96.792969 259.574219 91.824219 C 259.582031 86.867188 255.550781 82.835938 250.585938 82.835938 Z M 250.585938 82.835938 " fill-opacity="1" fill-rule="nonzero"/><path fill="#50c878" d="M 254.417969 132.96875 C 254.210938 133.28125 253.867188 133.445312 253.511719 133.445312 C 253.300781 133.445312 253.089844 133.386719 252.902344 133.257812 L 248.960938 130.601562 C 248.929688 130.644531 248.917969 130.6875 248.894531 130.722656 L 247.609375 132.574219 L 251.566406 135.238281 C 252.066406 135.574219 252.199219 136.257812 251.863281 136.75 C 251.652344 137.0625 251.3125 137.230469 250.957031 137.230469 C 250.746094 137.230469 250.535156 137.171875 250.347656 137.039062 L 246.367188 134.359375 L 245.003906 136.328125 L 249.011719 139.027344 C 249.511719 139.363281 249.644531 140.046875 249.308594 140.539062 C 249.097656 140.851562 248.757812 141.019531 248.402344 141.019531 C 248.191406 141.019531 247.980469 140.960938 247.792969 140.828125 L 243.753906 138.113281 L 242.390625 140.082031 L 246.449219 142.820312 C 246.949219 143.152344 247.082031 143.835938 246.746094 144.328125 C 246.535156 144.640625 246.195312 144.808594 245.839844 144.808594 C 245.628906 144.808594 245.417969 144.75 245.230469 144.621094 L 241.140625 141.867188 L 239.777344 143.835938 L 243.894531 146.609375 C 244.394531 146.941406 244.523438 147.625 244.191406 148.117188 C 243.980469 148.429688 243.640625 148.597656 243.285156 148.597656 C 243.074219 148.597656 242.863281 148.539062 242.671875 148.410156 L 238.535156 145.621094 L 237.324219 147.363281 C 237.273438 147.4375 237.207031 147.5 237.148438 147.574219 L 241.335938 150.398438 C 241.839844 150.730469 241.96875 151.414062 241.636719 151.910156 C 241.425781 152.21875 241.082031 152.386719 240.726562 152.386719 C 240.515625 152.386719 240.308594 152.328125 240.117188 152.199219 L 235.160156 148.859375 C 234.238281 149.097656 233.226562 148.988281 232.351562 148.480469 C 218.257812 140.261719 202.941406 121.125 194.378906 109.402344 C 191.09375 110.839844 187.550781 111.667969 183.96875 111.667969 C 169.804688 111.667969 158.394531 101.613281 158.394531 89.050781 C 158.394531 76.492188 171.816406 65.386719 185.980469 65.386719 C 200.144531 65.386719 211.621094 73.648438 211.621094 86.207031 C 211.621094 87.035156 211.558594 87.863281 211.449219 88.6875 C 219.695312 103.796875 240.328125 119.863281 248.03125 125.53125 C 248.96875 126.222656 249.476562 127.269531 249.535156 128.34375 L 254.109375 131.429688 C 254.625 131.792969 254.753906 132.472656 254.417969 132.96875 Z M 254.417969 132.96875 " fill-opacity="1" fill-rule="nonzero"/><path fill="#fcc9b4" d="M 202.148438 61.589844 C 202.148438 66.386719 200.871094 70.828125 198.6875 74.472656 C 197.421875 76.578125 195.148438 78.378906 193.277344 79.867188 C 193.457031 81.015625 193.605469 82.378906 193.707031 84.007812 C 194.019531 89.167969 189.285156 93.371094 183.832031 93.371094 C 178.378906 93.371094 174.523438 89.167969 174.886719 84.007812 C 174.953125 83.128906 175.019531 82.324219 175.089844 81.574219 C 174.519531 81.195312 173.945312 80.796875 173.363281 80.339844 C 171.488281 78.875 169 76.980469 167.664062 74.84375 C 165.347656 71.128906 163.976562 66.546875 163.976562 61.589844 C 163.976562 49.203125 172.519531 39.15625 183.070312 39.15625 C 193.605469 39.15625 202.148438 49.203125 202.148438 61.589844 Z M 202.148438 61.589844 " fill-opacity="1" fill-rule="nonzero"/><path fill="#0f52ba" d="M 202.867188 60.207031 C 198.15625 62.207031 190.984375 50.203125 187.992188 44.703125 C 184.761719 50.117188 177.101562 59.984375 163.996094 60.203125 C 145.921875 60.5 168.070312 29.636719 189.808594 34.734375 C 202.039062 37.601562 200.5 39.300781 196.820312 40.230469 C 204.136719 44.636719 207.609375 58.199219 202.867188 60.207031 Z M 202.867188 60.207031 " fill-opacity="1" fill-rule="nonzero"/><path fill="#fcc9b4" d="M 206.488281 68.210938 C 204.035156 71.773438 200.421875 73.539062 198.417969 72.160156 C 196.414062 70.777344 196.785156 66.773438 199.238281 63.214844 C 201.691406 59.65625 205.308594 57.886719 207.308594 59.265625 C 209.3125 60.644531 208.945312 64.644531 206.488281 68.210938 Z M 159.621094 68.210938 C 162.074219 71.773438 165.691406 73.539062 167.691406 72.160156 C 169.695312 70.777344 169.328125 66.773438 166.871094 63.214844 C 164.417969 59.648438 160.804688 57.886719 158.800781 59.265625 C 156.796875 60.644531 157.167969 64.644531 159.621094 68.210938 Z M 159.621094 68.210938 " fill-opacity="1" fill-rule="nonzero"/><path fill="#50c878" d="M 192.210938 132.429688 L 196.59375 141.140625 C 197 141.949219 196.5 142.914062 195.609375 143.042969 L 189.039062 144.039062 C 188.414062 144.132812 187.808594 143.777344 187.59375 143.183594 L 183.191406 131.109375 C 182.503906 131.289062 181.855469 131.355469 181.371094 131.371094 L 182.132812 143.871094 C 182.175781 144.554688 181.742188 145.171875 181.082031 145.359375 L 176.355469 146.726562 C 175.417969 146.992188 174.480469 146.289062 174.488281 145.308594 L 174.5625 136.714844 C 172.703125 138.019531 170.75 138.992188 169.210938 138.773438 C 165.078125 138.195312 162.726562 122.796875 164.15625 118.554688 C 165.101562 115.761719 170.953125 117.5625 174.828125 119.117188 L 165.574219 101.667969 C 165.101562 100.785156 165.441406 99.6875 166.328125 99.214844 C 167.214844 98.746094 168.308594 99.085938 168.78125 99.972656 L 179.460938 120.117188 C 181.4375 119.371094 182.859375 119.695312 182.859375 119.695312 C 182.859375 119.695312 185.117188 115.484375 188.578125 113.054688 L 195.300781 104.398438 C 195.917969 103.609375 197.058594 103.464844 197.851562 104.082031 C 198.640625 104.695312 198.789062 105.835938 198.171875 106.628906 L 193.785156 112.269531 C 198.046875 115.390625 201.929688 128.109375 199.449219 131.238281 C 198.140625 132.878906 195.144531 132.910156 192.210938 132.429688 Z M 192.210938 132.429688 " fill-opacity="1" fill-rule="nonzero"/><path fill="#fcc9b4" d="M 255.683594 90.082031 C 255.945312 91.601562 256.164062 94.351562 254.753906 95.820312 C 250.515625 100.238281 241.585938 96.632812 241.585938 96.632812 C 241.585938 96.632812 236.625 96.449219 234.816406 92.9375 C 233.011719 89.414062 235.574219 88.53125 235.574219 88.53125 C 233.859375 85.546875 238.246094 84.566406 238.246094 84.566406 C 221.648438 83.417969 217.132812 75.96875 222.910156 77.597656 C 228.683594 79.222656 239.238281 80.390625 239.238281 80.390625 C 230.324219 74.140625 226.425781 63.433594 229.679688 66.140625 C 232.101562 68.160156 239.007812 73.804688 242.347656 76.535156 C 254.652344 77.152344 255.550781 85.371094 255.507812 88.121094 C 255.496094 88.777344 255.566406 89.429688 255.683594 90.082031 Z M 255.683594 90.082031 " fill-opacity="1" fill-rule="nonzero"/><path fill="#000000" d="M 175.503906 81.851562 C 177.777344 83.25 180.101562 84.015625 183.0625 84.015625 C 187.003906 84.015625 189.871094 82.5625 192.914062 80.152344 C 192.964844 80.109375 193.023438 80.066406 193.082031 80.019531 C 192.40625 84.085938 188.609375 87.195312 184.027344 87.195312 C 180.164062 87.195312 176.855469 84.988281 175.503906 81.851562 Z M 211.558594 88.203125 C 211.363281 88.160156 211.164062 88.28125 211.121094 88.480469 C 211.085938 88.636719 207.425781 104.480469 194.273438 109.089844 C 194.082031 109.15625 193.980469 109.367188 194.046875 109.554688 C 194.097656 109.707031 194.242188 109.792969 194.386719 109.792969 C 194.425781 109.792969 194.46875 109.785156 194.511719 109.773438 C 208.050781 105.023438 211.796875 88.796875 211.832031 88.632812 C 211.878906 88.433594 211.753906 88.246094 211.558594 88.203125 Z M 184.820312 130.839844 C 187.039062 132.765625 195.390625 133.46875 195.753906 133.496094 C 195.761719 133.496094 195.773438 133.496094 195.78125 133.496094 C 195.96875 133.496094 196.128906 133.351562 196.144531 133.164062 C 196.160156 132.96875 196.015625 132.785156 195.8125 132.769531 C 193.320312 132.566406 186.5625 131.703125 185.160156 130.164062 C 184.421875 129.351562 184.019531 127.582031 183.804688 125.851562 C 184.585938 123.964844 188.136719 123.304688 188.171875 123.296875 C 188.371094 123.261719 188.5 123.070312 188.464844 122.875 C 188.425781 122.679688 188.238281 122.550781 188.042969 122.585938 C 187.90625 122.605469 185.082031 123.136719 183.6875 124.710938 C 183.542969 122.964844 183.554688 121.496094 183.554688 121.46875 C 183.554688 121.265625 183.394531 121.105469 183.199219 121.097656 C 182.996094 121.097656 182.835938 121.257812 182.832031 121.453125 C 182.832031 121.605469 182.808594 123.632812 183.070312 125.800781 C 183.070312 125.800781 183.070312 125.808594 183.070312 125.808594 C 183.273438 127.464844 183.644531 129.191406 184.320312 130.246094 C 183.628906 130.476562 182.074219 130.863281 179.597656 130.738281 C 178.734375 128.539062 178.683594 124.269531 178.683594 124.226562 C 178.683594 124.03125 178.519531 123.863281 178.320312 123.863281 C 178.117188 123.863281 177.957031 124.03125 177.957031 124.226562 C 177.957031 124.304688 177.972656 125.121094 178.046875 126.199219 C 176.644531 125.597656 174.539062 125.953125 174.429688 125.96875 C 174.234375 126.003906 174.105469 126.195312 174.132812 126.390625 C 174.167969 126.585938 174.359375 126.714844 174.554688 126.6875 C 175.273438 126.5625 177.253906 126.410156 178.117188 127.085938 C 178.25 128.421875 178.496094 129.941406 178.929688 131.035156 C 178.25 131.957031 174.53125 136.9375 172.566406 138.527344 C 172.414062 138.652344 172.382812 138.882812 172.507812 139.035156 C 172.578125 139.125 172.679688 139.175781 172.789062 139.175781 C 172.871094 139.175781 172.949219 139.144531 173.015625 139.09375 C 175.070312 137.433594 178.792969 132.445312 179.511719 131.464844 C 182.488281 131.617188 184.214844 131.078125 184.820312 130.839844 Z M 214.597656 204.644531 C 214.59375 204.449219 214.441406 204.273438 214.222656 204.304688 C 214.019531 204.308594 213.867188 204.484375 213.878906 204.679688 L 215.261719 231.925781 C 215.265625 232.121094 215.425781 232.269531 215.621094 232.269531 C 215.628906 232.269531 215.636719 232.269531 215.644531 232.269531 C 215.847656 232.261719 216 232.085938 215.984375 231.890625 Z M 198.105469 206.53125 C 197.902344 206.515625 197.726562 206.664062 197.714844 206.859375 L 195.246094 234.539062 C 195.230469 234.742188 195.375 234.917969 195.570312 234.933594 C 195.585938 234.933594 195.59375 234.933594 195.609375 234.933594 C 195.796875 234.933594 195.949219 234.789062 195.96875 234.597656 L 198.4375 206.917969 C 198.445312 206.71875 198.300781 206.546875 198.105469 206.53125 Z M 181.601562 206.539062 C 181.414062 206.488281 181.210938 206.605469 181.160156 206.800781 L 174.148438 234.046875 C 174.097656 234.242188 174.210938 234.4375 174.410156 234.488281 C 174.4375 234.496094 174.464844 234.503906 174.503906 234.503906 C 174.664062 234.503906 174.816406 234.394531 174.851562 234.226562 L 181.863281 206.980469 C 181.914062 206.785156 181.800781 206.589844 181.601562 206.539062 Z M 167.546875 205.804688 C 167.359375 205.742188 167.148438 205.835938 167.082031 206.023438 L 157.632812 231.976562 C 157.566406 232.167969 157.660156 232.375 157.847656 232.441406 C 157.890625 232.457031 157.929688 232.464844 157.972656 232.464844 C 158.117188 232.464844 158.261719 232.371094 158.3125 232.222656 L 167.765625 206.269531 C 167.832031 206.082031 167.738281 205.878906 167.546875 205.804688 Z M 167.546875 205.804688 " fill-opacity="1" fill-rule="nonzero"/><path fill="#0f52ba" d="M 189.808594 33.238281 C 189.75 33.238281 189.691406 33.230469 189.632812 33.214844 C 189.242188 33.121094 189.007812 32.730469 189.101562 32.339844 C 189.117188 32.289062 190.285156 27.386719 187.757812 24.898438 C 186.074219 23.234375 183.078125 22.949219 178.851562 24.039062 L 177.988281 24.265625 C 164.398438 27.785156 159.316406 29.101562 155.046875 21.339844 C 154.859375 20.992188 154.980469 20.546875 155.335938 20.351562 C 155.691406 20.15625 156.128906 20.285156 156.324219 20.636719 C 160.046875 27.410156 164.121094 26.355469 177.625 22.855469 L 178.488281 22.632812 C 183.25 21.398438 186.714844 21.8125 188.789062 23.867188 C 191.898438 26.945312 190.578125 32.453125 190.519531 32.6875 C 190.429688 33.019531 190.132812 33.238281 189.808594 33.238281 Z M 191.554688 53.027344 C 189.195312 53.734375 187.527344 55.105469 187.816406 56.085938 C 188.109375 57.066406 190.257812 57.289062 192.617188 56.585938 C 194.976562 55.882812 196.644531 54.507812 196.355469 53.53125 C 196.066406 52.550781 193.910156 52.324219 191.554688 53.027344 Z M 182.25 75.601562 C 190.175781 74.351562 192.542969 70.277344 192.644531 70.105469 C 192.738281 69.929688 192.683594 69.710938 192.507812 69.609375 C 192.332031 69.507812 192.117188 69.574219 192.015625 69.75 C 191.992188 69.785156 189.691406 73.691406 182.140625 74.882812 C 181.945312 74.910156 181.804688 75.097656 181.835938 75.292969 C 181.863281 75.476562 182.015625 75.601562 182.191406 75.601562 C 182.214844 75.601562 182.226562 75.601562 182.25 75.601562 Z M 182.25 75.601562 " fill-opacity="1" fill-rule="nonzero"/><path fill="#50c878" d="M 194.019531 55.003906 C 193.851562 55.003906 193.675781 54.945312 193.539062 54.820312 C 193.242188 54.554688 193.210938 54.097656 193.472656 53.796875 L 200.433594 45.90625 C 200.703125 45.601562 201.160156 45.578125 201.460938 45.839844 C 201.757812 46.109375 201.785156 46.566406 201.523438 46.863281 L 194.5625 54.757812 C 194.417969 54.921875 194.214844 55.003906 194.019531 55.003906 Z M 194.019531 55.003906 " fill-opacity="1" fill-rule="nonzero"/><path fill="#ede6dd" d="M 173.296875 58.980469 C 173.117188 58.980469 172.933594 58.917969 172.796875 58.777344 L 164.570312 50.851562 C 164.28125 50.574219 164.273438 50.109375 164.550781 49.828125 C 164.824219 49.535156 165.289062 49.53125 165.574219 49.804688 L 173.792969 57.734375 C 174.082031 58.007812 174.089844 58.472656 173.8125 58.757812 C 173.675781 58.910156 173.488281 58.980469 173.296875 58.980469 Z M 173.296875 58.980469 " fill-opacity="1" fill-rule="nonzero"/><path fill="#000000" d="M 177.855469 56.492188 C 177.667969 56.492188 177.472656 56.417969 177.335938 56.265625 L 169.863281 48.433594 C 169.589844 48.144531 169.59375 47.683594 169.886719 47.410156 C 170.175781 47.132812 170.632812 47.140625 170.910156 47.429688 L 178.378906 55.265625 C 178.65625 55.554688 178.648438 56.011719 178.359375 56.289062 C 178.21875 56.425781 178.039062 56.492188 177.855469 56.492188 Z M 163.933594 65.746094 C 164.113281 65.667969 164.195312 65.449219 164.113281 65.269531 C 162.828125 62.445312 161.53125 60.933594 160.25 60.78125 C 159.308594 60.667969 158.761719 61.332031 158.742188 61.363281 C 158.617188 61.515625 158.640625 61.742188 158.800781 61.871094 C 158.953125 61.996094 159.183594 61.972656 159.308594 61.820312 C 159.324219 61.804688 159.636719 61.4375 160.171875 61.507812 C 160.738281 61.582031 161.921875 62.210938 163.453125 65.574219 C 163.511719 65.703125 163.648438 65.785156 163.789062 65.785156 C 163.832031 65.777344 163.882812 65.769531 163.933594 65.746094 Z M 202.496094 65.566406 C 204.027344 62.207031 205.210938 61.574219 205.777344 61.5 C 206.300781 61.429688 206.628906 61.792969 206.644531 61.8125 C 206.765625 61.964844 207 61.996094 207.152344 61.871094 C 207.308594 61.746094 207.332031 61.515625 207.207031 61.363281 C 207.1875 61.332031 206.644531 60.667969 205.699219 60.78125 C 204.421875 60.941406 203.121094 62.453125 201.835938 65.269531 C 201.757812 65.449219 201.835938 65.667969 202.019531 65.746094 C 202.070312 65.769531 202.121094 65.777344 202.171875 65.777344 C 202.300781 65.777344 202.433594 65.695312 202.496094 65.566406 Z M 191.882812 59.605469 C 190.460938 59.605469 189.3125 60.761719 189.3125 62.175781 C 189.3125 63.589844 190.46875 64.746094 191.882812 64.746094 C 193.300781 64.746094 194.453125 63.589844 194.453125 62.175781 C 194.453125 60.761719 193.304688 59.605469 191.882812 59.605469 Z M 174.226562 59.605469 C 172.804688 59.605469 171.65625 60.761719 171.65625 62.175781 C 171.65625 63.589844 172.8125 64.746094 174.226562 64.746094 C 175.644531 64.746094 176.796875 63.589844 176.796875 62.175781 C 176.796875 60.761719 175.648438 59.605469 174.226562 59.605469 Z M 184.609375 69.167969 C 184.695312 69 185.457031 67.503906 185.378906 66.5625 C 185.285156 65.472656 183.476562 65.125 183.113281 65.058594 C 182.910156 65.023438 182.726562 65.160156 182.699219 65.355469 C 182.671875 65.550781 182.800781 65.742188 182.996094 65.769531 C 183.671875 65.878906 184.625 66.234375 184.660156 66.621094 C 184.71875 67.242188 184.179688 68.425781 183.96875 68.824219 C 183.875 69.007812 183.949219 69.226562 184.121094 69.3125 C 184.171875 69.339844 184.230469 69.355469 184.289062 69.355469 C 184.421875 69.363281 184.550781 69.289062 184.609375 69.167969 Z M 249.816406 81.808594 C 249.960938 81.667969 249.976562 81.445312 249.839844 81.292969 C 247.386719 78.613281 242.703125 76.296875 242.507812 76.203125 C 242.324219 76.113281 242.105469 76.1875 242.019531 76.371094 C 241.933594 76.550781 242.003906 76.769531 242.1875 76.855469 C 242.238281 76.878906 246.941406 79.207031 249.308594 81.785156 C 249.382812 81.863281 249.476562 81.902344 249.578125 81.902344 C 249.65625 81.902344 249.746094 81.871094 249.816406 81.808594 Z M 174.488281 110.070312 C 174.546875 109.875 174.429688 109.675781 174.242188 109.621094 C 170.667969 108.589844 168.796875 106.882812 168.773438 106.859375 C 168.628906 106.722656 168.398438 106.730469 168.257812 106.882812 C 168.121094 107.027344 168.128906 107.261719 168.28125 107.398438 C 168.359375 107.46875 170.285156 109.234375 174.039062 110.324219 C 174.074219 110.332031 174.105469 110.339844 174.140625 110.339844 C 174.300781 110.332031 174.445312 110.230469 174.488281 110.070312 Z M 188.949219 113.226562 C 191.722656 110.695312 193.480469 112.457031 193.558594 112.539062 C 193.699219 112.683594 193.921875 112.691406 194.074219 112.550781 C 194.222656 112.414062 194.226562 112.183594 194.089844 112.035156 C 194.070312 112.015625 191.773438 109.65625 188.464844 112.691406 C 188.320312 112.828125 188.304688 113.054688 188.441406 113.207031 C 188.515625 113.285156 188.609375 113.320312 188.710938 113.320312 C 188.789062 113.320312 188.878906 113.292969 188.949219 113.226562 Z M 178.453125 120.988281 L 179.503906 120.488281 C 179.6875 120.402344 179.765625 120.183594 179.679688 120 C 179.59375 119.820312 179.375 119.738281 179.191406 119.828125 L 178.300781 120.246094 L 171.488281 116.980469 C 171.308594 116.894531 171.089844 116.972656 171.003906 117.148438 C 170.917969 117.320312 170.996094 117.546875 171.171875 117.632812 L 178.132812 120.972656 C 178.183594 120.996094 178.234375 121.011719 178.292969 121.011719 C 178.351562 121.015625 178.402344 121.011719 178.453125 120.988281 Z M 178.453125 120.988281 " fill-opacity="1" fill-rule="nonzero"/></svg>