<svg xmlns="http://www.w3.org/2000/svg" xmlns:xlink="http://www.w3.org/1999/xlink" width="500" zoomAndPan="magnify" viewBox="0 0 375 374.999991" height="500" preserveAspectRatio="xMidYMid meet" version="1.0"><defs><clipPath id="b974f01e5e"><path d="M 125 15 L 209 15 L 209 74 L 125 74 Z M 125 15 " clip-rule="nonzero"/></clipPath><clipPath id="c3f047c0ce"><path d="M 131.148438 4.109375 L 209.003906 15.945312 L 198.972656 81.9375 L 121.117188 70.101562 Z M 131.148438 4.109375 " clip-rule="nonzero"/></clipPath><clipPath id="46cf60a7ca"><path d="M 131.148438 4.109375 L 209.003906 15.945312 L 198.972656 81.9375 L 121.117188 70.101562 Z M 131.148438 4.109375 " clip-rule="nonzero"/></clipPath><clipPath id="4f57b4e702"><path d="M 131.148438 4.109375 L 209.003906 15.945312 L 198.972656 81.9375 L 121.117188 70.101562 Z M 131.148438 4.109375 " clip-rule="nonzero"/></clipPath><clipPath id="6204800ce4"><path d="M 284 81 L 342 81 L 342 121 L 284 121 Z M 284 81 " clip-rule="nonzero"/></clipPath><clipPath id="f3a2bab172"><path d="M 288.769531 73.839844 L 341.414062 81.839844 L 334.652344 126.328125 L 282.003906 118.328125 Z M 288.769531 73.839844 " clip-rule="nonzero"/></clipPath><clipPath id="d7d6f6bd4e"><path d="M 288.769531 73.839844 L 341.414062 81.839844 L 334.652344 126.328125 L 282.003906 118.328125 Z M 288.769531 73.839844 " clip-rule="nonzero"/></clipPath><clipPath id="213003d93a"><path d="M 288.769531 73.839844 L 341.414062 81.839844 L 334.652344 126.328125 L 282.003906 118.328125 Z M 288.769531 73.839844 " clip-rule="nonzero"/></clipPath><clipPath id="e5e6246a3b"><path d="M 36 304 L 94 304 L 94 344 L 36 344 Z M 36 304 " clip-rule="nonzero"/></clipPath><clipPath id="3d550e92fd"><path d="M 40.519531 296.976562 L 93.164062 304.980469 L 86.398438 349.46875 L 33.753906 341.464844 Z M 40.519531 296.976562 " clip-rule="nonzero"/></clipPath><clipPath id="91ba6c794f"><path d="M 40.519531 296.976562 L 93.164062 304.980469 L 86.398438 349.46875 L 33.753906 341.464844 Z M 40.519531 296.976562 " clip-rule="nonzero"/></clipPath><clipPath id="4fc63fcfad"><path d="M 40.519531 296.976562 L 93.164062 304.980469 L 86.398438 349.46875 L 33.753906 341.464844 Z M 40.519531 296.976562 " clip-rule="nonzero"/></clipPath></defs><g clip-path="url(#b974f01e5e)"><g clip-path="url(#c3f047c0ce)"><g clip-path="url(#46cf60a7ca)"><g clip-path="url(#4f57b4e702)"><path fill="#13ab25" d="M 125.332031 42.367188 L 136.0625 32.039062 L 145.03125 50.820312 C 145.03125 50.820312 168.792969 17.976562 209 15.96875 C 190.164062 21.941406 153.902344 51.84375 145.097656 73.710938 C 133.203125 51.828125 125.332031 42.367188 125.332031 42.367188 " fill-opacity="1" fill-rule="nonzero"/></g></g></g></g><path fill="#e5a385" d="M 99.0625 321.804688 C 101.914062 338.527344 98.648438 342.386719 83.539062 342.03125 C 76.503906 341.867188 75.277344 333.144531 75.976562 323.875 C 76.019531 323.347656 76.0625 322.835938 76.109375 322.316406 C 76.144531 321.960938 76.183594 321.605469 76.222656 321.253906 C 76.261719 320.914062 76.304688 320.578125 76.34375 320.238281 C 76.402344 319.703125 76.472656 319.171875 76.550781 318.644531 C 76.609375 318.253906 76.664062 317.867188 76.722656 317.476562 C 76.84375 316.695312 76.972656 315.910156 77.105469 315.152344 C 77.917969 310.453125 78.933594 306.320312 79.546875 303.972656 C 79.925781 302.558594 80.074219 301.078125 80.003906 299.613281 C 79.53125 289.859375 79.46875 280.980469 79.632812 273.167969 C 80.09375 250.222656 82.507812 236.421875 82.507812 236.421875 C 94.464844 213.332031 112.652344 222.921875 106.988281 238.269531 C 104.214844 245.804688 100.890625 261.164062 98.230469 274.824219 C 96.058594 285.980469 94.324219 296.003906 93.691406 299.746094 C 93.527344 300.652344 93.648438 301.597656 94.039062 302.4375 C 94.785156 304.03125 96.132812 307.523438 97.632812 314.417969 C 97.773438 315.066406 97.917969 315.742188 98.066406 316.453125 C 98.160156 316.902344 98.25 317.363281 98.335938 317.832031 C 98.402344 318.140625 98.457031 318.457031 98.515625 318.773438 C 98.707031 319.726562 98.878906 320.734375 99.0625 321.804688 Z M 147.222656 307.308594 C 146.003906 306.464844 145.242188 305.105469 145.144531 303.625 L 143.214844 273.855469 L 141.089844 240.980469 C 141.089844 240.980469 128.53125 230.957031 117.539062 243.910156 C 118.804688 253.835938 120.542969 264.445312 122.894531 275.613281 C 123.203125 277.09375 123.53125 278.589844 123.863281 280.089844 C 126.019531 289.808594 128.4375 298.9375 130.980469 307.445312 C 130.351562 308.855469 125.863281 319.375 130.542969 324.421875 C 131.894531 325.871094 134.003906 326.855469 137.203125 327.011719 C 152.136719 327.742188 168.472656 327.558594 168.167969 324.492188 C 167.917969 321.964844 152.679688 311.117188 147.222656 307.308594 Z M 147.222656 307.308594 " fill-opacity="1" fill-rule="nonzero"/><path fill="#ede6dd" d="M 83.546875 342.03125 C 76.507812 341.867188 75.285156 333.144531 75.984375 323.875 C 76.023438 323.347656 76.066406 322.835938 76.117188 322.316406 C 76.152344 321.960938 76.1875 321.605469 76.230469 321.253906 C 76.265625 320.914062 76.308594 320.578125 76.351562 320.238281 C 76.410156 319.703125 76.480469 319.171875 76.558594 318.644531 C 76.617188 318.253906 76.671875 317.867188 76.730469 317.476562 C 76.851562 316.695312 76.980469 315.910156 77.113281 315.152344 C 77.925781 310.453125 78.941406 306.320312 79.554688 303.972656 C 79.929688 302.558594 80.082031 301.078125 80.007812 299.613281 C 79.539062 289.859375 79.476562 280.980469 79.640625 273.167969 C 86.980469 275.445312 94.324219 275.203125 98.238281 274.824219 C 96.066406 285.980469 94.332031 296.003906 93.699219 299.746094 C 93.535156 300.652344 93.65625 301.597656 94.046875 302.4375 C 94.792969 304.03125 96.136719 307.523438 97.640625 314.417969 C 97.78125 315.066406 97.925781 315.742188 98.074219 316.453125 C 98.167969 316.902344 98.257812 317.363281 98.34375 317.832031 C 98.40625 318.140625 98.464844 318.457031 98.523438 318.773438 C 98.707031 319.738281 98.882812 320.742188 99.070312 321.808594 C 101.921875 338.527344 98.65625 342.386719 83.546875 342.03125 Z M 147.222656 307.308594 C 146.003906 306.464844 145.242188 305.105469 145.144531 303.625 L 143.214844 273.855469 C 131.640625 279.015625 124.609375 276.425781 122.902344 275.613281 C 123.210938 277.09375 123.535156 278.589844 123.871094 280.089844 C 126.027344 289.808594 128.445312 298.9375 130.984375 307.445312 C 130.828125 307.792969 130.445312 308.699219 130.011719 309.9375 C 128.703125 313.71875 127.03125 320.628906 130.550781 324.414062 C 131.171875 325.074219 131.933594 325.636719 132.890625 326.070312 C 134.046875 326.589844 135.46875 326.917969 137.210938 327.003906 C 140.796875 327.179688 144.453125 327.300781 147.953125 327.34375 C 159.023438 327.488281 168.410156 326.820312 168.175781 324.484375 C 167.917969 321.964844 152.679688 311.117188 147.222656 307.308594 Z M 147.222656 307.308594 " fill-opacity="1" fill-rule="nonzero"/><path fill="#000000" d="M 99.0625 321.804688 C 98.878906 320.734375 98.699219 319.726562 98.515625 318.765625 C 98.457031 318.453125 98.394531 318.132812 98.335938 317.824219 C 98.246094 317.347656 98.160156 316.894531 98.066406 316.445312 C 97.917969 315.734375 97.78125 315.050781 97.632812 314.410156 C 89.09375 313.613281 81.675781 314.402344 77.105469 315.152344 C 76.972656 315.910156 76.835938 316.695312 76.722656 317.476562 C 76.664062 317.867188 76.609375 318.253906 76.550781 318.644531 C 76.480469 319.171875 76.402344 319.710938 76.34375 320.238281 C 76.304688 320.578125 76.261719 320.914062 76.222656 321.253906 C 76.183594 321.605469 76.144531 321.960938 76.109375 322.316406 C 76.0625 322.835938 76.019531 323.355469 75.976562 323.875 C 75.277344 333.144531 76.210938 342.101562 83.53125 342.640625 C 98.613281 343.75 101.921875 338.527344 99.0625 321.804688 Z M 88 327.082031 C 80.914062 326.96875 77.988281 321.019531 77.070312 318.542969 C 81.46875 317.789062 89.117188 316.90625 97.851562 317.769531 C 97.242188 320.648438 95.085938 327.195312 88 327.082031 Z M 147.953125 327.351562 C 143.523438 328.902344 138.027344 329.152344 132.898438 326.078125 C 132.109375 325.609375 131.328125 325.054688 130.558594 324.421875 C 127.039062 320.628906 128.710938 313.71875 130.019531 309.941406 C 130.019531 309.941406 145.214844 317.328125 154.441406 317.960938 C 159.921875 318.332031 155.460938 324.710938 147.953125 327.351562 Z M 147.953125 327.351562 " fill-opacity="1" fill-rule="nonzero"/><path fill="#ede6dd" d="M 168.898438 300.59375 C 168.222656 304.691406 168.101562 308.050781 168.621094 311.214844 C 168.792969 312.3125 169.054688 313.386719 169.390625 314.453125 C 170.507812 318.039062 170.636719 318.445312 170.230469 322.835938 C 170.058594 324.777344 168.90625 326.5625 167.070312 327.628906 C 165.742188 328.398438 162.832031 326.96875 160.054688 327.949219 C 156.875 329.074219 154.847656 338.144531 149.019531 339.453125 C 135.261719 342.527344 123.480469 334.339844 127.726562 328.625 C 129.285156 326.535156 135.453125 320.941406 140.875 315.941406 C 141.699219 315.171875 142.527344 314.417969 143.300781 313.691406 C 146.550781 310.660156 149.15625 308.144531 149.691406 307.210938 C 152.300781 302.742188 152.769531 280.269531 152.914062 258.125 C 157.914062 259.214844 165.691406 260.160156 174.625 258.582031 C 174.164062 264.941406 173.375 270.292969 172.585938 274.546875 C 171 283.175781 170.324219 291.9375 168.898438 300.59375 Z M 200.703125 300.59375 C 201.378906 304.691406 201.5 308.050781 200.980469 311.214844 C 200.808594 312.3125 200.546875 313.386719 200.210938 314.453125 C 199.09375 318.039062 198.964844 318.445312 199.371094 322.835938 C 199.542969 324.777344 200.695312 326.5625 202.53125 327.628906 C 203.859375 328.398438 206.769531 326.96875 209.546875 327.949219 C 212.726562 329.074219 214.753906 338.144531 220.582031 339.453125 C 234.339844 342.527344 246.121094 334.339844 241.875 328.625 C 240.316406 326.535156 234.148438 320.941406 228.726562 315.941406 C 227.902344 315.171875 227.074219 314.417969 226.300781 313.691406 C 223.050781 310.660156 220.445312 308.144531 219.910156 307.210938 C 217.300781 302.742188 216.832031 280.269531 216.6875 258.125 C 211.6875 259.214844 203.910156 260.160156 194.976562 258.582031 C 195.4375 264.941406 196.226562 270.292969 197.015625 274.546875 C 198.597656 283.175781 199.273438 291.9375 200.703125 300.59375 Z M 200.703125 300.59375 " fill-opacity="1" fill-rule="nonzero"/><path fill="#000000" d="M 169.640625 326.746094 C 167.605469 328.554688 159.03125 331.597656 156.433594 334.894531 C 153.839844 338.1875 144.019531 345.585938 130.707031 340.109375 C 116.65625 334.324219 131.816406 324.351562 131.816406 324.351562 C 139.089844 329.515625 147.269531 327.160156 154.058594 323.019531 C 151.960938 320.84375 147.363281 316.914062 140.875 315.933594 C 141.699219 315.164062 142.527344 314.410156 143.300781 313.683594 C 149.859375 315.257812 154.335938 319.363281 156.320312 321.539062 C 163.40625 316.609375 168.492188 310.320312 168.492188 310.320312 C 171.859375 316.347656 171.675781 324.941406 169.640625 326.746094 Z M 199.960938 326.746094 C 201.996094 328.554688 210.570312 331.597656 213.167969 334.894531 C 215.761719 338.1875 225.582031 345.585938 238.894531 340.109375 C 252.945312 334.324219 237.785156 324.351562 237.785156 324.351562 C 230.511719 329.515625 222.332031 327.160156 215.542969 323.019531 C 217.640625 320.84375 222.238281 316.914062 228.726562 315.933594 C 227.902344 315.164062 227.074219 314.410156 226.300781 313.683594 C 219.742188 315.257812 215.265625 319.363281 213.28125 321.539062 C 206.195312 316.609375 201.109375 310.320312 201.109375 310.320312 C 197.734375 316.347656 197.925781 324.941406 199.960938 326.746094 Z M 199.960938 326.746094 " fill-opacity="1" fill-rule="nonzero"/><path fill="#e5a385" d="M 153.679688 230.523438 C 155.503906 205.300781 181.109375 212.074219 175.046875 243.898438 C 175.125 249.253906 174.953125 254.164062 174.625 258.574219 C 165.691406 260.15625 157.90625 259.207031 152.914062 258.121094 C 152.984375 248.152344 153.121094 238.355469 153.679688 230.523438 Z M 215.921875 230.523438 C 214.097656 205.300781 188.492188 212.074219 194.554688 243.898438 C 194.476562 249.253906 194.648438 254.164062 194.976562 258.574219 C 203.910156 260.15625 211.695312 259.207031 216.6875 258.121094 C 216.617188 248.152344 216.480469 238.355469 215.921875 230.523438 Z M 215.921875 230.523438 " fill-opacity="1" fill-rule="nonzero"/><path fill="#e5a385" d="M 330.453125 296.078125 C 330.453125 296.078125 331.40625 302.089844 330.679688 308.640625 C 328.074219 308.753906 323.050781 309.339844 317.589844 311.886719 C 317.902344 309.816406 318.191406 307.964844 318.34375 306.542969 C 318.355469 306.40625 318.371094 306.273438 318.378906 306.152344 C 318.386719 306.085938 318.390625 306.015625 318.390625 305.957031 C 318.40625 305.765625 318.421875 305.589844 318.425781 305.425781 C 318.476562 304.65625 318.449219 304.09375 318.3125 303.804688 C 317.714844 302.445312 300.675781 279.777344 286.46875 260.964844 L 286.460938 260.964844 C 276.1875 247.355469 267.378906 235.773438 267.378906 235.773438 C 259.148438 218.007812 292.515625 216.847656 292.515625 216.847656 C 292.515625 216.847656 296.847656 237.386719 305.214844 249.460938 C 305.890625 250.429688 306.589844 251.347656 307.308594 252.1875 C 317.070312 263.597656 324.011719 282.472656 326.789062 290.910156 C 326.902344 291.253906 327.027344 291.578125 327.171875 291.90625 C 327.269531 292.132812 327.378906 292.355469 327.492188 292.574219 C 327.535156 292.648438 327.5625 292.726562 327.621094 292.804688 C 327.691406 292.953125 327.777344 293.09375 327.875 293.238281 C 327.898438 293.292969 327.933594 293.34375 327.96875 293.386719 C 328.066406 293.558594 328.1875 293.734375 328.308594 293.898438 C 328.339844 293.941406 328.367188 293.984375 328.402344 294.019531 C 328.542969 294.210938 328.6875 294.40625 328.851562 294.582031 C 329.019531 294.78125 329.199219 294.988281 329.390625 295.164062 C 329.40625 295.179688 329.414062 295.195312 329.425781 295.199219 C 329.597656 295.371094 329.78125 295.535156 329.976562 295.699219 C 330.132812 295.835938 330.289062 295.960938 330.453125 296.078125 Z M 255.804688 309.738281 C 255.734375 309.496094 255.667969 309.257812 255.613281 309.023438 C 255.605469 309.011719 255.613281 308.988281 255.605469 308.976562 C 255.546875 308.71875 255.507812 308.457031 255.46875 308.191406 C 255.433594 307.957031 255.414062 307.714844 255.398438 307.480469 C 255.390625 307.429688 255.390625 307.382812 255.390625 307.324219 C 255.378906 307.117188 255.378906 306.90625 255.386719 306.707031 C 255.378906 306.648438 255.378906 306.585938 255.386719 306.527344 C 255.378906 306.355469 255.390625 306.191406 255.40625 306.023438 C 255.40625 305.929688 255.421875 305.84375 255.421875 305.765625 C 255.441406 305.515625 255.476562 305.277344 255.511719 305.035156 C 255.570312 304.679688 255.640625 304.335938 255.734375 303.988281 C 257.96875 295.394531 262.363281 275.769531 260.34375 260.886719 C 260.195312 259.792969 260.109375 258.644531 260.058594 257.464844 C 259.570312 242.789062 267.058594 223.171875 267.058594 223.171875 C 267.058594 223.171875 238.386719 206.0625 235.675781 225.449219 C 235.675781 225.449219 236.800781 239.964844 238.0625 256.96875 L 238.066406 256.96875 C 239.816406 280.472656 241.851562 308.761719 241.617188 310.226562 C 241.570312 310.546875 241.285156 311.03125 240.828125 311.648438 C 240.730469 311.785156 240.621094 311.925781 240.507812 312.078125 C 240.472656 312.121094 240.429688 312.175781 240.394531 312.226562 C 240.316406 312.324219 240.238281 312.425781 240.152344 312.53125 C 239.257812 313.640625 238.011719 315.035156 236.625 316.617188 C 242.59375 317.433594 247.132812 319.667969 249.378906 320.984375 C 253.535156 315.875 255.996094 310.304688 255.996094 310.304688 C 255.933594 310.121094 255.867188 309.9375 255.804688 309.738281 Z M 255.804688 309.738281 " fill-opacity="1" fill-rule="nonzero"/><path fill="#000000" d="M 331.261719 296.632812 C 331.449219 296.738281 331.632812 296.859375 331.816406 296.980469 C 331.773438 296.953125 331.738281 296.921875 331.695312 296.894531 C 331.546875 296.808594 331.410156 296.722656 331.261719 296.632812 Z M 316.917969 315.570312 C 316.914062 315.597656 316.914062 315.621094 316.90625 315.65625 C 316.855469 316.03125 316.8125 316.402344 316.761719 316.785156 C 316.707031 317.214844 316.65625 317.640625 316.605469 318.066406 C 316.554688 318.429688 316.527344 318.800781 316.492188 319.171875 C 316.476562 319.253906 316.472656 319.339844 316.464844 319.417969 C 316.429688 319.769531 316.394531 320.109375 316.363281 320.449219 C 316.363281 320.492188 316.355469 320.523438 316.355469 320.566406 C 316.308594 321.164062 316.257812 321.765625 316.222656 322.359375 C 316.152344 323.390625 316.058594 324.789062 316.050781 325.785156 C 325.535156 325.871094 329.546875 318.664062 331.078125 311.367188 C 328.0625 311.585938 322.554688 312.445312 316.917969 315.570312 Z M 331.648438 297.058594 C 331.453125 296.878906 329.019531 294.789062 328.851562 294.589844 C 328.695312 294.410156 328.542969 294.226562 328.402344 294.027344 C 328.367188 293.992188 328.339844 293.949219 328.308594 293.90625 C 328.183594 293.742188 328.066406 293.566406 327.96875 293.394531 C 327.933594 293.34375 327.898438 293.292969 327.875 293.246094 C 327.777344 293.101562 327.699219 292.960938 327.621094 292.8125 C 327.570312 292.730469 327.535156 292.652344 327.492188 292.582031 C 327.378906 292.363281 326.902344 291.257812 326.789062 290.917969 C 324.011719 282.480469 317.070312 263.613281 307.308594 252.191406 C 306.582031 251.355469 305.890625 250.4375 305.214844 249.46875 C 305.066406 249.753906 298.621094 262.238281 286.46875 260.964844 C 300.675781 279.769531 317.714844 302.445312 318.3125 303.804688 C 318.441406 304.101562 318.46875 304.664062 318.425781 305.425781 C 318.421875 305.59375 318.40625 305.773438 318.390625 305.957031 C 318.390625 306.015625 318.386719 306.078125 318.378906 306.152344 C 318.371094 306.273438 318.355469 306.40625 318.34375 306.542969 C 318.191406 307.964844 317.902344 309.808594 317.589844 311.886719 C 323.050781 309.339844 328.671875 310.335938 331.277344 310.21875 C 332.003906 303.675781 331.660156 297.066406 331.648438 297.058594 Z M 256.386719 311.214844 C 256.480469 311.410156 256.582031 311.609375 256.664062 311.808594 C 256.644531 311.765625 256.628906 311.714844 256.609375 311.671875 C 256.53125 311.515625 256.464844 311.371094 256.386719 311.214844 Z M 234.070312 319.355469 C 234.046875 319.375 234.035156 319.398438 234.011719 319.417969 C 233.761719 319.703125 233.527344 319.996094 233.28125 320.292969 C 233.003906 320.621094 232.726562 320.949219 232.453125 321.289062 C 232.21875 321.566406 231.992188 321.859375 231.757812 322.152344 C 231.699219 322.214844 231.644531 322.28125 231.601562 322.34375 C 231.378906 322.621094 231.167969 322.882812 230.960938 323.160156 C 230.9375 323.195312 230.917969 323.21875 230.890625 323.253906 C 230.519531 323.730469 230.15625 324.207031 229.800781 324.691406 C 229.183594 325.523438 228.34375 326.648438 227.800781 327.480469 C 235.726562 332.6875 243.003906 328.8125 248.25 323.503906 C 245.589844 322.050781 240.492188 319.78125 234.070312 319.355469 Z M 256.480469 311.777344 C 256.421875 311.523438 255.507812 308.449219 255.46875 308.191406 C 255.433594 307.957031 255.414062 307.714844 255.398438 307.480469 C 255.390625 307.429688 255.390625 307.382812 255.390625 307.324219 C 255.378906 307.117188 255.378906 306.90625 255.386719 306.707031 C 255.378906 306.648438 255.378906 306.585938 255.386719 306.527344 C 255.378906 306.355469 255.390625 306.191406 255.40625 306.023438 C 255.40625 305.929688 255.421875 305.84375 255.421875 305.765625 C 255.441406 305.515625 255.640625 304.335938 255.734375 303.988281 C 257.96875 295.394531 262.363281 275.769531 260.34375 260.886719 C 260.195312 259.792969 260.109375 258.644531 260.058594 257.464844 C 259.78125 257.621094 247.59375 264.621094 238.066406 256.96875 C 239.816406 280.472656 241.851562 308.761719 241.617188 310.226562 C 241.570312 310.546875 241.285156 311.03125 240.828125 311.648438 C 240.730469 311.785156 240.621094 311.925781 240.507812 312.078125 C 240.472656 312.121094 240.429688 312.175781 240.394531 312.226562 C 240.316406 312.324219 240.238281 312.425781 240.152344 312.53125 C 239.257812 313.640625 238.011719 315.035156 236.625 316.617188 C 242.59375 317.433594 246.777344 321.324219 249.03125 322.640625 C 253.195312 317.535156 256.488281 311.800781 256.480469 311.777344 Z M 256.480469 311.777344 " fill-opacity="1" fill-rule="nonzero"/><path fill="#ede6dd" d="M 339.28125 309.03125 C 338.605469 314.476562 340.675781 323.523438 338.019531 329.800781 C 333.359375 340.8125 320.554688 342.769531 316.691406 334.109375 C 316.152344 332.894531 315.667969 329.542969 315.695312 327.058594 C 315.703125 326.46875 315.675781 325.460938 315.675781 325.460938 C 324.945312 325.539062 328.816406 318.863281 330.308594 311.726562 C 327.355469 311.949219 322.175781 313.136719 316.671875 316.1875 C 316.863281 314.703125 316.871094 312.921875 317.074219 311.578125 C 322.832031 308.898438 328.125 308.277344 330.871094 308.164062 C 331.632812 301.261719 329.546875 295.222656 329.546875 295.222656 C 329.632812 295.285156 330.378906 295.542969 330.957031 295.757812 C 331.0625 295.792969 331.25 295.835938 331.476562 295.917969 C 332.039062 296.140625 332.570312 296.433594 333.054688 296.792969 C 337.871094 300.417969 339.714844 305.503906 339.28125 309.03125 Z M 257.804688 312.320312 C 257.597656 311.75 257.304688 311.214844 256.949219 310.726562 C 256.808594 310.535156 256.671875 310.398438 256.601562 310.304688 C 256.230469 309.816406 255.746094 309.195312 255.710938 309.097656 C 255.710938 309.097656 254.191406 315.300781 249.808594 320.691406 C 247.429688 319.304688 242.65625 316.949219 236.359375 316.089844 C 235.457031 317.105469 234.480469 318.601562 233.523438 319.746094 C 239.804688 320.160156 244.796875 321.964844 247.402344 323.382812 C 242.28125 328.570312 235.40625 332.078125 227.667969 326.988281 C 227.667969 326.988281 227.140625 327.855469 226.820312 328.347656 C 225.453125 330.417969 224.039062 333.5 223.839844 334.816406 C 222.394531 344.191406 234.21875 349.484375 244.101562 342.753906 C 249.730469 338.921875 252.894531 330.191406 256.410156 325.984375 C 258.6875 323.253906 259.894531 317.976562 257.804688 312.320312 Z M 257.804688 312.320312 " fill-opacity="1" fill-rule="nonzero"/><path fill="#000000" d="M 224.335938 236.503906 C 224.480469 237.894531 223.773438 239.238281 222.535156 239.886719 C 220.375 241.023438 216.730469 242.625 212.882812 242.945312 C 212.882812 242.945312 207.800781 246.5 198.496094 246.160156 C 198.496094 246.160156 191.339844 247.851562 185.605469 247.683594 C 179.871094 247.851562 172.714844 246.160156 172.714844 246.160156 C 163.398438 246.5 158.328125 242.945312 158.328125 242.945312 C 154.308594 242.609375 150.507812 240.875 148.386719 239.734375 C 147.335938 239.167969 146.714844 238.019531 146.84375 236.832031 L 152.761719 179.609375 L 153.246094 166.605469 L 217.960938 166.605469 L 218.445312 179.609375 Z M 213.421875 85.382812 C 208.570312 76.070312 205.945312 68.308594 205.945312 68.308594 L 165.433594 68.308594 C 165.433594 68.308594 162.816406 76.070312 157.957031 85.382812 C 151.242188 98.277344 162.53125 115.207031 185.605469 115.292969 L 185.605469 115.300781 C 185.632812 115.300781 185.660156 115.300781 185.691406 115.300781 C 185.71875 115.300781 185.746094 115.300781 185.777344 115.300781 L 185.777344 115.292969 C 208.847656 115.207031 220.144531 98.277344 213.421875 85.382812 Z M 213.421875 85.382812 " fill-opacity="1" fill-rule="nonzero"/><path fill="#06605a" d="M 215.117188 122.101562 C 214.503906 126.828125 214.070312 131.464844 214.011719 135.351562 C 213.792969 149.808594 219.179688 164.484375 220.765625 181.367188 C 220.835938 182.085938 220.304688 182.726562 219.585938 182.804688 L 192.683594 185.769531 C 190.101562 186.054688 187.710938 184.363281 187.121094 181.828125 L 185.703125 175.734375 C 185.648438 175.46875 185.613281 175.191406 185.613281 174.914062 C 185.613281 175.191406 185.578125 175.460938 185.519531 175.734375 L 185.183594 182.171875 C 185.058594 184.511719 182.992188 186.261719 180.667969 186.007812 L 151.527344 182.945312 C 150.90625 182.882812 150.464844 182.320312 150.542969 181.707031 C 152.285156 166.710938 156.710938 153.328125 157.707031 140.378906 C 157.863281 138.378906 157.941406 136.386719 157.90625 134.402344 C 157.828125 129.144531 156.226562 122.585938 154.257812 116.324219 C 154.257812 116.324219 99.566406 100.070312 100 96.773438 L 76.863281 87.808594 C 75.753906 87.382812 75.179688 86.167969 75.554688 85.035156 C 76.394531 82.496094 78.132812 78.046875 80.914062 74.546875 C 81.453125 73.871094 82.328125 73.558594 83.175781 73.75 L 116.960938 81.550781 C 117.453125 81.664062 117.859375 81.933594 118.15625 82.289062 C 121.480469 82.003906 125.378906 82.097656 129.988281 82.6875 C 153.140625 85.652344 160.304688 88.671875 162.496094 90.378906 C 167.5625 88.871094 172.8125 87.539062 176.492188 87.234375 C 176.734375 87.21875 176.945312 87.070312 177.1875 87.027344 L 181.328125 86.230469 C 183.554688 85.796875 185.617188 87.496094 185.617188 89.765625 C 185.617188 87.496094 187.683594 85.804688 189.910156 86.230469 L 194.050781 87.027344 C 194.292969 87.070312 194.527344 87.140625 194.746094 87.234375 C 196.96875 88.164062 214.753906 93.378906 219.023438 94.554688 C 220.488281 93.636719 226.683594 92.535156 252.824219 100.402344 C 286.746094 110.613281 271.960938 130.773438 271.960938 130.773438 Z M 215.117188 122.101562 " fill-opacity="1" fill-rule="nonzero"/><path fill="#ede6dd" d="M 200.191406 99.421875 C 198.425781 108.042969 194.425781 115.394531 191.054688 120.386719 C 188.074219 124.804688 185.605469 128.710938 185.605469 128.710938 C 185.605469 128.710938 183.128906 124.804688 180.160156 120.394531 C 176.789062 115.402344 172.785156 108.042969 171.019531 99.421875 C 167.703125 83.171875 185.605469 82.617188 185.605469 82.617188 C 185.605469 82.617188 203.519531 83.171875 200.191406 99.421875 Z M 200.191406 99.421875 " fill-opacity="1" fill-rule="nonzero"/><path fill="#e5a385" d="M 194.15625 82.246094 C 194.207031 82.601562 194.242188 82.964844 194.234375 83.328125 C 194.21875 84.21875 194.242188 85.375 194.363281 86.550781 C 194.527344 88.144531 194.164062 89.753906 193.316406 91.109375 C 191.625 93.84375 188.613281 97.882812 185.605469 97.882812 C 182.59375 97.882812 179.578125 93.84375 177.890625 91.109375 C 177.046875 89.746094 176.691406 88.144531 176.847656 86.550781 C 176.96875 85.335938 176.988281 84.140625 176.976562 83.242188 C 176.96875 82.90625 176.996094 82.566406 177.039062 82.238281 C 170.84375 78.617188 166.59375 71.175781 166.59375 62.59375 C 166.59375 50.445312 175.109375 40.589844 185.613281 40.589844 C 196.113281 40.589844 204.628906 50.445312 204.628906 62.59375 C 204.621094 71.191406 200.359375 78.632812 194.15625 82.246094 Z M 296.785156 121.5625 C 297.589844 121.570312 298.351562 121.894531 298.925781 122.457031 C 306.632812 129.984375 307.1875 126.984375 307.1875 126.984375 C 307.554688 125.070312 301.992188 118.757812 301.992188 118.757812 C 314.101562 125.609375 316.386719 123.765625 315.191406 122.03125 C 313.589844 119.699219 303.488281 114.113281 303.488281 114.113281 C 315.894531 114.851562 322.140625 114.453125 320.648438 112.085938 C 319.144531 109.714844 303.472656 109.074219 303.472656 109.074219 C 315.996094 104.101562 318.875 102.558594 317.539062 101.0625 C 316.199219 99.570312 312.472656 100.800781 308.496094 101.988281 C 304.519531 103.175781 296.734375 106.4375 296.386719 104.222656 C 296.039062 102.011719 302.832031 96.6875 299.347656 94.832031 C 295.859375 92.96875 295.050781 97.402344 290.402344 102.914062 C 288.511719 105.164062 287.363281 107.160156 286.667969 108.734375 C 285.523438 111.351562 285.542969 114.390625 287.007812 116.835938 C 289.519531 121.007812 294.5 121.546875 296.785156 121.5625 Z M 66.875 84.671875 C 66.144531 84.351562 65.324219 84.402344 64.554688 84.621094 C 53.679688 87.695312 54.808594 84.808594 54.808594 84.808594 C 55.242188 82.90625 63.511719 79.726562 63.511719 79.726562 C 49.324219 79.636719 47.835938 77.101562 49.628906 76.007812 C 52.042969 74.527344 63.773438 75.144531 63.773438 75.144531 C 52.140625 70.777344 46.59375 67.875 48.917969 66.316406 C 51.246094 64.757812 65.835938 70.550781 65.835938 70.550781 C 56.410156 60.910156 54.410156 58.335938 56.238281 57.515625 C 58.066406 56.699219 60.976562 59.335938 64.121094 62.039062 C 67.265625 64.746094 73.058594 70.882812 74.273438 69.007812 C 75.492188 67.128906 71.449219 59.507812 75.386719 59.214844 C 79.320312 58.925781 78.265625 63.308594 80.265625 70.238281 C 81.082031 73.0625 81.320312 75.351562 81.3125 77.074219 C 81.296875 79.925781 80.039062 82.703125 77.703125 84.339844 C 73.742188 87.125 68.96875 85.589844 66.875 84.671875 Z M 66.875 84.671875 " fill-opacity="1" fill-rule="nonzero"/><path fill="#000000" d="M 209.558594 53.792969 C 209.21875 64.546875 203.703125 63.613281 203.703125 63.613281 L 200.921875 52.863281 C 188.835938 53.160156 182.273438 43.992188 180.886719 41.820312 C 179.480469 45.335938 176.339844 50.847656 170.03125 52.863281 L 167.660156 64.203125 C 167.660156 64.203125 161.144531 63.785156 162.078125 54.214844 C 163.007812 44.652344 169.695312 35.679688 180.609375 34.160156 C 193.140625 29.933594 209.902344 43.050781 209.558594 53.792969 Z M 209.558594 53.792969 " fill-opacity="1" fill-rule="nonzero"/><path fill="#e5a385" d="M 171.296875 66.378906 C 173.035156 69.929688 172.300781 73.859375 169.660156 75.144531 C 167.019531 76.433594 163.476562 74.597656 161.742188 71.046875 C 160.007812 67.496094 160.738281 63.570312 163.378906 62.28125 C 166.019531 60.996094 169.5625 62.832031 171.296875 66.378906 Z M 199.804688 66.378906 C 198.070312 69.929688 198.800781 73.859375 201.441406 75.144531 C 204.082031 76.433594 207.625 74.597656 209.359375 71.046875 C 211.097656 67.496094 210.363281 63.570312 207.722656 62.28125 C 205.085938 60.996094 201.542969 62.832031 199.804688 66.378906 Z M 199.804688 66.378906 " fill-opacity="1" fill-rule="nonzero"/><path fill="#c3113d" d="M 191.746094 119.347656 C 189.011719 123.398438 185.605469 128.710938 185.605469 128.710938 C 185.605469 128.710938 182.339844 123.617188 179.613281 119.570312 C 180.359375 116.425781 182.566406 110.554688 183.136719 108.988281 C 183.34375 108.441406 183.300781 107.824219 183.035156 107.296875 L 181.484375 104.265625 C 180.996094 103.296875 181.308594 102.117188 182.21875 101.527344 L 184.445312 100.074219 C 185.148438 99.621094 186.054688 99.621094 186.75 100.074219 L 188.984375 101.527344 C 189.894531 102.117188 190.207031 103.296875 189.71875 104.265625 L 188.171875 107.296875 C 187.902344 107.824219 187.867188 108.433594 188.066406 108.988281 C 188.644531 110.554688 190.996094 116.210938 191.746094 119.347656 Z M 191.746094 119.347656 " fill-opacity="1" fill-rule="nonzero"/><path fill="#ede6dd" d="M 177.132812 70.898438 L 195.101562 70.898438 C 195.878906 70.898438 196.410156 71.6875 196.113281 72.398438 C 195.167969 74.613281 192.589844 78.503906 186.117188 78.503906 C 179.644531 78.503906 177.066406 74.613281 176.121094 72.398438 C 175.816406 71.6875 176.355469 70.898438 177.132812 70.898438 Z M 153.070312 112.710938 C 150.671875 106.386719 144.011719 99.90625 135.640625 94.019531 C 133.769531 92.703125 131.910156 91.558594 130.109375 90.5625 L 136.628906 125.359375 L 157.703125 140.394531 C 157.859375 138.394531 157.9375 136.402344 157.902344 134.417969 C 157.863281 132.269531 157.480469 124.34375 153.070312 112.710938 Z M 186.558594 135.355469 C 186.558594 136.308594 185.78125 137.09375 184.820312 137.09375 C 183.867188 137.09375 183.085938 136.316406 183.085938 135.355469 C 183.085938 134.394531 183.863281 133.621094 184.820312 133.621094 C 185.78125 133.621094 186.558594 134.394531 186.558594 135.355469 Z M 186.558594 147.167969 C 186.558594 148.121094 185.78125 148.902344 184.820312 148.902344 C 183.867188 148.902344 183.085938 148.128906 183.085938 147.167969 C 183.085938 146.207031 183.863281 145.429688 184.820312 145.429688 C 185.78125 145.429688 186.558594 146.207031 186.558594 147.167969 Z M 185.589844 247.703125 C 185.390625 247.703125 185.234375 247.546875 185.234375 247.347656 L 185.234375 195.382812 C 185.234375 195.183594 185.390625 195.027344 185.589844 195.027344 C 185.789062 195.027344 185.945312 195.183594 185.945312 195.382812 L 185.945312 247.347656 C 185.945312 247.539062 185.789062 247.703125 185.589844 247.703125 Z M 198.480469 246.179688 C 198.289062 246.179688 198.132812 246.023438 198.125 245.832031 L 196.910156 194.265625 C 196.902344 194.066406 197.058594 193.910156 197.257812 193.902344 C 197.480469 193.917969 197.613281 194.050781 197.621094 194.25 L 198.839844 245.820312 C 198.84375 246.019531 198.6875 246.175781 198.488281 246.179688 C 198.488281 246.179688 198.480469 246.179688 198.480469 246.179688 Z M 212.867188 242.964844 C 212.683594 242.964844 212.519531 242.816406 212.511719 242.632812 L 209.972656 192.707031 C 209.964844 192.507812 210.113281 192.34375 210.308594 192.339844 C 210.519531 192.308594 210.667969 192.480469 210.675781 192.671875 L 213.214844 242.59375 C 213.222656 242.792969 213.074219 242.957031 212.882812 242.964844 C 212.882812 242.964844 212.875 242.964844 212.867188 242.964844 Z M 172.707031 246.34375 C 172.707031 246.34375 172.699219 246.34375 172.699219 246.34375 C 172.5 246.339844 172.351562 246.175781 172.351562 245.980469 L 173.601562 192.878906 C 173.609375 192.679688 173.792969 192.515625 173.964844 192.53125 C 174.164062 192.539062 174.3125 192.699219 174.3125 192.894531 L 173.0625 245.996094 C 173.054688 246.195312 172.898438 246.34375 172.707031 246.34375 Z M 158.320312 243.128906 C 158.3125 243.128906 158.304688 243.128906 158.300781 243.128906 C 158.101562 243.121094 157.949219 242.953125 157.964844 242.757812 L 160.582031 191.320312 C 160.589844 191.121094 160.753906 190.957031 160.953125 190.984375 C 161.152344 190.992188 161.300781 191.164062 161.285156 191.355469 L 158.667969 242.792969 C 158.660156 242.988281 158.503906 243.128906 158.320312 243.128906 Z M 158.320312 243.128906 " fill-opacity="1" fill-rule="nonzero"/><path fill="#c3113d" d="M 195.089844 55.6875 C 191.351562 55.6875 188.265625 57.941406 187.816406 60.839844 C 186.914062 60.574219 185.21875 60.261719 183.386719 60.832031 C 182.929688 57.9375 179.847656 55.6875 176.113281 55.6875 C 172.074219 55.6875 168.777344 58.328125 168.777344 61.5625 C 168.777344 64.808594 172.066406 67.441406 176.113281 67.441406 C 180 67.441406 183.179688 65.007812 183.421875 61.933594 C 185.292969 61.25 187.085938 61.707031 187.773438 61.933594 C 188.023438 65 191.195312 67.433594 195.082031 67.433594 C 199.121094 67.433594 202.417969 64.792969 202.417969 61.558594 C 202.421875 58.328125 199.136719 55.6875 195.089844 55.6875 Z M 176.121094 66.378906 C 172.664062 66.378906 169.851562 64.226562 169.851562 61.570312 C 169.851562 58.917969 172.664062 56.761719 176.121094 56.761719 C 179.578125 56.761719 182.390625 58.917969 182.390625 61.570312 C 182.390625 64.226562 179.578125 66.378906 176.121094 66.378906 Z M 195.089844 66.378906 C 191.632812 66.378906 188.820312 64.226562 188.820312 61.570312 C 188.820312 58.917969 191.632812 56.761719 195.089844 56.761719 C 198.546875 56.761719 201.355469 58.917969 201.355469 61.570312 C 201.355469 64.226562 198.546875 66.378906 195.089844 66.378906 Z M 195.089844 66.378906 " fill-opacity="1" fill-rule="nonzero"/><path fill="#000000" d="M 177.144531 82.308594 C 179.691406 83.78125 182.566406 84.601562 185.605469 84.601562 C 188.648438 84.601562 191.523438 83.777344 194.070312 82.304688 C 192.386719 85.726562 189.226562 88.03125 185.605469 88.03125 C 181.984375 88.03125 178.832031 85.730469 177.144531 82.308594 Z M 173.515625 107.617188 L 185.605469 99.761719 L 197.621094 107.792969 C 197.679688 107.835938 197.75 107.851562 197.820312 107.851562 C 197.933594 107.851562 198.046875 107.792969 198.121094 107.695312 C 198.226562 107.53125 198.183594 107.3125 198.019531 107.203125 L 185.804688 99.042969 C 185.683594 98.964844 185.535156 98.964844 185.414062 99.042969 L 173.132812 107.027344 C 172.96875 107.132812 172.917969 107.355469 173.027344 107.515625 C 173.132812 107.675781 173.351562 107.722656 173.515625 107.617188 Z M 175.828125 54.433594 C 178.355469 54.777344 180.503906 54.328125 180.625 53.4375 C 180.746094 52.550781 178.796875 51.546875 176.269531 51.207031 C 173.746094 50.863281 171.597656 51.3125 171.476562 52.203125 C 171.355469 53.097656 173.304688 54.09375 175.828125 54.433594 Z M 194.582031 54.429688 C 197.09375 54 199.015625 52.941406 198.867188 52.050781 C 198.71875 51.164062 196.554688 50.785156 194.042969 51.210938 C 191.53125 51.640625 189.609375 52.699219 189.757812 53.589844 C 189.910156 54.476562 192.070312 54.855469 194.582031 54.429688 Z M 162.738281 65.960938 C 162.746094 65.953125 163.734375 65.085938 164.816406 65.300781 C 165.535156 65.441406 166.160156 66.039062 166.664062 67.078125 C 166.730469 67.207031 166.851562 67.277344 166.984375 67.277344 C 167.035156 67.277344 167.09375 67.261719 167.140625 67.242188 C 167.320312 67.15625 167.390625 66.941406 167.304688 66.765625 C 166.695312 65.519531 165.90625 64.785156 164.949219 64.601562 C 163.527344 64.324219 162.3125 65.382812 162.261719 65.433594 C 162.113281 65.5625 162.105469 65.789062 162.234375 65.941406 C 162.367188 66.074219 162.589844 66.089844 162.738281 65.960938 Z M 203.546875 67.234375 C 203.597656 67.253906 203.65625 67.269531 203.703125 67.269531 C 203.832031 67.269531 203.960938 67.199219 204.023438 67.070312 C 204.53125 66.039062 205.148438 65.441406 205.867188 65.292969 C 206.949219 65.078125 207.945312 65.945312 207.953125 65.953125 C 208.101562 66.082031 208.320312 66.066406 208.457031 65.925781 C 208.585938 65.777344 208.578125 65.554688 208.429688 65.425781 C 208.378906 65.382812 207.160156 64.316406 205.738281 64.59375 C 204.785156 64.78125 203.996094 65.511719 203.382812 66.757812 C 203.300781 66.9375 203.371094 67.148438 203.546875 67.234375 Z M 185.839844 65.867188 C 186.03125 65.832031 186.160156 65.648438 186.125 65.457031 C 186.089844 65.261719 185.902344 65.136719 185.710938 65.164062 C 185.691406 65.171875 183.425781 65.589844 183.8125 68.359375 C 183.832031 68.535156 183.988281 68.664062 184.160156 68.664062 C 184.175781 68.664062 184.195312 68.664062 184.210938 68.664062 C 184.402344 68.636719 184.539062 68.457031 184.515625 68.265625 C 184.238281 66.230469 185.675781 65.902344 185.839844 65.867188 Z M 188.085938 52.570312 C 188.160156 52.59375 188.222656 52.597656 188.292969 52.597656 C 188.601562 52.597656 188.882812 52.402344 188.976562 52.09375 C 189.089844 51.71875 188.878906 51.320312 188.5 51.207031 C 182.851562 49.496094 181.613281 41.785156 181.597656 41.707031 C 181.542969 41.324219 181.179688 41.050781 180.789062 41.109375 C 180.398438 41.167969 180.132812 41.527344 180.191406 41.921875 C 180.246094 42.285156 181.570312 50.609375 188.085938 52.570312 Z M 183.214844 108.300781 C 183.25 108.300781 183.277344 108.292969 183.3125 108.285156 C 183.335938 108.277344 185.363281 107.703125 187.804688 108.292969 C 187.996094 108.335938 188.1875 108.222656 188.230469 108.03125 C 188.273438 107.835938 188.160156 107.644531 187.96875 107.601562 C 185.339844 106.976562 183.207031 107.582031 183.113281 107.609375 C 182.921875 107.667969 182.816406 107.859375 182.871094 108.050781 C 182.921875 108.199219 183.066406 108.300781 183.214844 108.300781 Z M 187.902344 132.703125 C 187.703125 132.683594 187.539062 132.84375 187.53125 133.042969 L 185.339844 177.917969 C 185.335938 178.117188 185.484375 178.28125 185.683594 178.285156 C 185.691406 178.285156 185.699219 178.285156 185.699219 178.285156 C 185.882812 178.285156 186.046875 178.136719 186.054688 177.945312 L 188.246094 133.074219 C 188.25 132.882812 188.101562 132.710938 187.902344 132.703125 Z M 161.820312 108.769531 L 168.90625 109.480469 L 162.632812 115.039062 C 162.496094 115.160156 162.476562 115.351562 162.574219 115.5 C 162.644531 115.605469 169.726562 125.929688 186.046875 129.417969 C 186.074219 129.421875 186.097656 129.421875 186.117188 129.421875 C 186.28125 129.421875 186.429688 129.308594 186.464844 129.140625 C 186.507812 128.945312 186.386719 128.753906 186.195312 128.71875 C 171.597656 125.59375 164.539062 116.9375 163.351562 115.351562 L 169.996094 109.472656 C 170.101562 109.382812 170.144531 109.230469 170.09375 109.097656 C 170.050781 108.960938 169.929688 108.871094 169.789062 108.855469 L 162.253906 108.101562 C 163.34375 99.839844 168.089844 92.070312 168.136719 91.992188 C 168.246094 91.828125 168.1875 91.609375 168.023438 91.503906 C 167.859375 91.394531 167.640625 91.453125 167.535156 91.617188 C 167.484375 91.695312 162.519531 99.8125 161.5 108.371094 C 161.484375 108.464844 161.515625 108.5625 161.578125 108.632812 C 161.644531 108.707031 161.722656 108.761719 161.820312 108.769531 Z M 207.183594 115.363281 C 206.1875 116.894531 200.332031 125.148438 187.667969 128.726562 C 187.476562 128.777344 187.371094 128.976562 187.417969 129.167969 C 187.460938 129.324219 187.605469 129.421875 187.761719 129.421875 C 187.796875 129.421875 187.824219 129.417969 187.859375 129.410156 C 202.046875 125.402344 207.894531 115.578125 207.953125 115.480469 C 208.039062 115.328125 208.007812 115.144531 207.878906 115.03125 L 201.605469 109.472656 L 208.699219 108.761719 C 208.792969 108.753906 208.882812 108.707031 208.941406 108.632812 C 208.996094 108.5625 209.027344 108.464844 209.019531 108.371094 C 208.007812 99.8125 203.035156 91.695312 202.984375 91.617188 C 202.878906 91.445312 202.664062 91.394531 202.496094 91.503906 C 202.324219 91.609375 202.273438 91.824219 202.382812 91.992188 C 202.429688 92.070312 207.175781 99.832031 208.265625 108.101562 L 200.730469 108.855469 C 200.589844 108.871094 200.46875 108.960938 200.425781 109.097656 C 200.382812 109.230469 200.425781 109.382812 200.523438 109.472656 Z M 216.996094 160.535156 L 202.949219 160.535156 C 201.164062 160.535156 199.714844 159.085938 199.714844 157.296875 L 199.714844 153.429688 L 216.003906 153.429688 C 216.203125 153.429688 216.359375 153.273438 216.359375 153.074219 C 216.359375 152.875 216.203125 152.714844 216.003906 152.714844 L 199.355469 152.714844 C 199.15625 152.714844 199 152.875 199 153.074219 L 199 157.296875 C 199 159.476562 200.773438 161.246094 202.949219 161.246094 L 216.996094 161.246094 C 217.195312 161.246094 217.351562 161.089844 217.351562 160.890625 C 217.351562 160.691406 217.195312 160.535156 216.996094 160.535156 Z M 173.011719 152.714844 L 156.363281 152.714844 C 156.164062 152.714844 156.007812 152.875 156.007812 153.074219 C 156.007812 153.273438 156.164062 153.429688 156.363281 153.429688 L 172.65625 153.429688 L 172.65625 157.296875 C 172.65625 159.085938 171.203125 160.535156 169.417969 160.535156 L 154.527344 160.535156 C 154.328125 160.535156 154.171875 160.691406 154.171875 160.890625 C 154.171875 161.089844 154.328125 161.246094 154.527344 161.246094 L 169.417969 161.246094 C 171.597656 161.246094 173.367188 159.476562 173.367188 157.296875 L 173.367188 153.074219 C 173.367188 152.875 173.203125 152.714844 173.011719 152.714844 Z M 190.355469 60.996094 C 190.1875 61.085938 190.121094 61.300781 190.214844 61.480469 C 190.308594 61.648438 190.519531 61.714844 190.699219 61.621094 C 190.734375 61.597656 194.554688 59.59375 198.445312 61.621094 C 198.496094 61.648438 198.554688 61.664062 198.609375 61.664062 C 198.738281 61.664062 198.859375 61.59375 198.921875 61.472656 C 199.015625 61.292969 198.945312 61.082031 198.773438 60.996094 C 194.539062 58.789062 190.527344 60.902344 190.355469 60.996094 Z M 181.164062 60.996094 C 180.996094 60.902344 176.980469 58.78125 172.75 60.996094 C 172.578125 61.085938 172.507812 61.300781 172.597656 61.472656 C 172.664062 61.59375 172.785156 61.664062 172.914062 61.664062 C 172.96875 61.664062 173.027344 61.648438 173.074219 61.621094 C 176.96875 59.59375 180.789062 61.597656 180.824219 61.621094 C 180.996094 61.714844 181.214844 61.648438 181.308594 61.480469 C 181.40625 61.308594 181.34375 61.085938 181.164062 60.996094 Z M 73.507812 78.753906 C 73.664062 78.632812 73.699219 78.410156 73.578125 78.253906 C 71.292969 75.21875 74.160156 69.625 74.195312 69.566406 C 74.289062 69.398438 74.21875 69.175781 74.046875 69.089844 C 73.871094 69 73.65625 69.070312 73.570312 69.242188 C 73.441406 69.488281 70.460938 75.289062 73.015625 78.6875 C 73.085938 78.78125 73.195312 78.832031 73.300781 78.832031 C 73.371094 78.824219 73.441406 78.796875 73.507812 78.753906 Z M 73.507812 78.753906 " fill-opacity="1" fill-rule="nonzero"/><path fill="#e5a385" d="M 304.832031 132.496094 C 304.832031 132.496094 319.089844 159.667969 317.019531 165.03125 C 314.949219 170.394531 292.773438 188.632812 292.773438 188.632812 L 285.851562 180.457031 C 285.851562 180.457031 291.222656 170.617188 301.542969 160.742188 L 295.207031 149.117188 Z M 304.832031 132.496094 " fill-opacity="1" fill-rule="nonzero"/><path fill="#06605a" d="M 292.601562 186.867188 C 300.621094 202.425781 310.308594 237.566406 310.308594 237.566406 C 307.90625 244.039062 298.835938 244.410156 298.835938 244.410156 C 293.46875 250.328125 286.0625 247.738281 286.0625 247.738281 C 279.035156 252.179688 271.996094 248.109375 271.996094 248.109375 C 267.558594 252.917969 258.117188 249.40625 258.117188 249.40625 C 252.9375 253.289062 244.050781 248.855469 244.050781 248.855469 C 237.390625 250.890625 229.246094 246.636719 229.246094 246.636719 C 223.511719 222.953125 230.015625 184.847656 230.015625 184.847656 C 244.117188 153.585938 284.582031 171.308594 292.601562 186.867188 Z M 292.601562 186.867188 " fill-opacity="1" fill-rule="nonzero"/><path fill="#ede6dd" d="M 235.839844 155.570312 C 222.808594 158.949219 213.167969 151.59375 209.410156 148.015625 C 208.34375 146.996094 207.988281 145.429688 208.5625 144.074219 C 218.902344 119.449219 233.785156 105.503906 233.785156 105.503906 C 247.394531 100.117188 252.789062 151.171875 235.839844 155.570312 Z M 319.34375 144.828125 L 307.917969 124.164062 C 295.597656 101.867188 292.046875 106.984375 292.046875 106.984375 L 295.859375 157.433594 C 295.851562 157.121094 295.847656 156.941406 295.847656 156.941406 C 307.933594 160.90625 316.214844 151.941406 319.109375 148.097656 C 319.820312 147.144531 319.929688 145.863281 319.34375 144.828125 Z M 319.34375 144.828125 " fill-opacity="1" fill-rule="nonzero"/><path fill="#000000" d="M 293.441406 176.792969 C 293.441406 176.792969 293.839844 182.179688 293.675781 186.0625 C 293.613281 187.472656 292.542969 188.625 291.144531 188.800781 C 282.976562 189.832031 254.660156 192.730469 231.613281 186.894531 C 230.304688 186.566406 229.445312 185.328125 229.582031 183.992188 C 229.808594 181.792969 230.234375 178.472656 230.824219 176.066406 C 230.824219 176.066406 225.839844 173.390625 231.929688 137.941406 C 235.09375 133.085938 237.164062 104.570312 237.164062 104.570312 C 237.164062 104.570312 250.191406 99.65625 260.90625 98.878906 C 271.636719 98.105469 272.730469 99.578125 272.730469 99.578125 L 292.339844 106.273438 L 295.882812 153.136719 C 296.023438 156.144531 296.550781 173.128906 293.441406 176.792969 Z M 293.441406 176.792969 " fill-opacity="1" fill-rule="nonzero"/><path fill="#ede6dd" d="M 282.882812 103.746094 C 281.6875 106.519531 276.308594 117.710938 266.632812 119.519531 L 269.464844 123.484375 C 269.785156 123.929688 269.800781 124.519531 269.5 124.984375 L 266.070312 130.335938 C 265.542969 131.160156 264.335938 131.160156 263.808594 130.328125 L 260.394531 124.933594 C 260.117188 124.492188 260.117188 123.9375 260.394531 123.496094 L 262.828125 119.65625 C 252.3125 118.203125 246.511719 106.648438 245.195312 103.703125 C 245.011719 103.292969 245.0625 102.800781 245.324219 102.429688 C 253.078125 91.730469 261.9375 93.851562 263.929688 94.503906 C 264.199219 94.589844 264.484375 94.589844 264.746094 94.492188 C 266.746094 93.765625 275.726562 91.316406 282.785156 102.550781 C 283.019531 102.914062 283.054688 103.363281 282.882812 103.746094 Z M 282.882812 103.746094 " fill-opacity="1" fill-rule="nonzero"/><path fill="#c3113d" d="M 277.390625 125.410156 C 276.464844 125.574219 274.707031 125.078125 272.835938 124.363281 L 275.300781 129.515625 C 275.613281 130.164062 275.214844 130.929688 274.503906 131.058594 L 268.652344 132.089844 C 268.070312 132.191406 267.515625 131.8125 267.402344 131.238281 L 265.472656 121.847656 L 264.371094 121.847656 L 262.441406 131.238281 C 262.320312 131.8125 261.765625 132.191406 261.191406 132.089844 L 255.34375 131.058594 C 254.632812 130.929688 254.238281 130.171875 254.546875 129.515625 L 257.050781 124.265625 C 255.078125 125.027344 253.199219 125.582031 252.234375 125.410156 C 249.671875 124.957031 248.578125 110.597656 252.046875 108.542969 C 254.738281 106.949219 260.316406 110.085938 262.683594 111.578125 C 263.183594 111.324219 263.738281 111.160156 264.335938 111.160156 L 265.574219 111.160156 C 266.113281 111.160156 266.617188 111.289062 267.074219 111.496094 C 269.507812 109.980469 274.9375 106.976562 277.582031 108.542969 C 281.046875 110.597656 279.953125 124.949219 277.390625 125.410156 Z M 277.390625 125.410156 " fill-opacity="1" fill-rule="nonzero"/><path fill="#000000" d="M 273.121094 124.507812 C 273.058594 124.636719 272.9375 124.707031 272.800781 124.707031 C 272.75 124.707031 272.695312 124.691406 272.644531 124.671875 L 266.582031 121.726562 C 264.839844 122.210938 263.703125 121.894531 263.289062 121.730469 L 257.199219 124.585938 C 257.019531 124.671875 256.808594 124.59375 256.722656 124.414062 C 256.636719 124.238281 256.714844 124.023438 256.894531 123.9375 L 262.898438 121.128906 L 262.394531 117.042969 L 258.335938 116.011719 C 258.144531 115.960938 258.03125 115.769531 258.082031 115.578125 C 258.132812 115.386719 258.324219 115.273438 258.515625 115.320312 L 262.300781 116.28125 L 262.109375 114.703125 C 262.085938 114.511719 262.222656 114.332031 262.414062 114.304688 C 262.613281 114.277344 262.785156 114.417969 262.8125 114.617188 L 263.609375 121.085938 C 263.949219 121.207031 264.867188 121.417969 266.277344 121.054688 L 266.675781 114.324219 C 266.691406 114.132812 266.855469 113.984375 267.054688 113.992188 C 267.253906 114.007812 267.402344 114.167969 267.386719 114.367188 L 267.289062 116.054688 L 271.074219 115.320312 C 271.257812 115.285156 271.449219 115.40625 271.492188 115.605469 C 271.527344 115.796875 271.398438 115.984375 271.207031 116.027344 L 267.238281 116.792969 L 266.980469 121.128906 L 272.957031 124.03125 C 273.136719 124.117188 273.207031 124.328125 273.121094 124.507812 Z M 273.121094 124.507812 " fill-opacity="1" fill-rule="nonzero"/><path fill="#000000" d="M 256.585938 98.089844 C 252.625 97.570312 253.640625 93.742188 253.640625 93.742188 C 253.640625 93.742188 251.757812 96.042969 249.835938 95.300781 C 247.914062 94.5625 249.132812 92.625 249.132812 92.625 C 246.101562 94.980469 243.972656 91.582031 246.605469 89.988281 C 249.238281 88.394531 250.554688 84.296875 250.554688 84.296875 C 265.515625 81.761719 260.550781 98.609375 256.585938 98.089844 Z M 273.847656 98.070312 C 277.839844 98.355469 277.609375 94.398438 277.609375 94.398438 C 277.609375 94.398438 279 97.03125 281.035156 96.6875 C 283.066406 96.347656 282.257812 94.214844 282.257812 94.214844 C 284.746094 97.128906 287.523438 94.226562 285.265625 92.136719 C 283.011719 90.050781 282.542969 85.769531 282.542969 85.769531 C 268.382812 80.277344 269.863281 97.777344 273.847656 98.070312 Z M 273.847656 98.070312 " fill-opacity="1" fill-rule="nonzero"/><path fill="#e5a385" d="M 285.394531 74.746094 C 284.859375 79.984375 283.792969 84.90625 280.761719 88.394531 C 278.914062 90.519531 276.457031 92.277344 273.777344 93.496094 C 273.691406 98.394531 274.808594 102.679688 274.808594 102.679688 C 272.453125 105.597656 265.023438 111.210938 265.023438 111.210938 C 262.515625 109.679688 255.371094 101.742188 255.371094 101.742188 C 256.265625 99.355469 256.886719 95.621094 257.261719 92.832031 C 254.269531 91.082031 251.679688 88.527344 249.964844 85.605469 C 247.574219 81.535156 247.21875 76.296875 247.757812 70.941406 C 248.980469 58.910156 258.222656 51.703125 268.609375 52.757812 C 279.003906 53.792969 286.609375 62.714844 285.394531 74.746094 Z M 247.183594 105.816406 C 244.421875 103.113281 241.453125 111.003906 239.292969 111.332031 C 237.128906 111.65625 237.882812 103.441406 237.832031 99.386719 C 237.785156 95.328125 237.832031 91.496094 236.046875 90.683594 C 234.261719 89.875 233.671875 93.011719 232.695312 106.144531 C 232.695312 106.144531 227.511719 91.707031 224.855469 91.003906 C 222.210938 90.300781 223.667969 96.246094 227.992188 107.601562 C 227.992188 107.601562 220.265625 99.035156 217.621094 98.226562 C 215.65625 97.621094 214.5625 100.261719 224.101562 110.363281 C 224.101562 110.363281 216.589844 107.019531 214.910156 107.929688 C 214.910156 107.929688 212.269531 109.332031 221.546875 114.3125 C 222.238281 114.683594 222.773438 115.300781 223.011719 116.046875 C 223.488281 117.527344 224.59375 120.160156 226.777344 121.988281 C 223.296875 128.0625 210.269531 151.242188 210.890625 157.027344 C 211.601562 163.695312 223.796875 168.9375 228.621094 160.152344 C 233.066406 152.046875 235.457031 126.988281 235.804688 123.105469 C 236.566406 122.742188 237.285156 122.28125 237.933594 121.71875 C 239.199219 120.617188 240.722656 118.957031 242.273438 116.53125 C 246.042969 110.570312 249.933594 108.519531 247.183594 105.816406 Z M 247.183594 105.816406 " fill-opacity="1" fill-rule="nonzero"/><path fill="#000000" d="M 287.085938 73.582031 C 282.421875 75.300781 276.214844 63.464844 273.347656 57.296875 C 269.683594 62.878906 260.679688 73.730469 247.859375 70.015625 C 247.859375 70.015625 241.171875 69.070312 243.9375 59.671875 C 247.496094 47.597656 269.492188 38.613281 275.980469 49.21875 C 291.355469 48.964844 293.261719 71.304688 287.085938 73.582031 Z M 287.085938 73.582031 " fill-opacity="1" fill-rule="nonzero"/><path fill="#e5a385" d="M 290.152344 80.0625 C 288.28125 83.484375 285.1875 85.390625 283.238281 84.332031 C 281.289062 83.261719 281.226562 79.628906 283.097656 76.207031 C 284.96875 72.785156 288.0625 70.878906 290.011719 71.9375 C 291.960938 72.996094 292.023438 76.640625 290.152344 80.0625 Z M 242.378906 76.355469 C 243.703125 80.027344 246.464844 82.386719 248.554688 81.632812 C 250.648438 80.878906 251.273438 77.292969 249.949219 73.628906 C 248.625 69.964844 245.867188 67.597656 243.773438 68.351562 C 241.683594 69.097656 241.054688 72.683594 242.378906 76.355469 Z M 242.378906 76.355469 " fill-opacity="1" fill-rule="nonzero"/><path fill="#000000" d="M 273.519531 93.601562 C 272.070312 96.617188 268.640625 98.554688 264.882812 98.167969 C 261.574219 97.835938 258.878906 95.792969 257.726562 93.097656 C 259.789062 94.234375 262.03125 94.988281 264.292969 95.214844 C 267.332031 95.527344 270.558594 94.910156 273.519531 93.601562 Z M 257.855469 76.417969 C 259.320312 76.484375 260.566406 75.34375 260.628906 73.878906 C 260.691406 72.414062 259.554688 71.167969 258.089844 71.105469 C 256.621094 71.039062 255.378906 72.179688 255.3125 73.644531 C 255.25 75.117188 256.386719 76.355469 257.855469 76.417969 Z M 245.125 70.273438 C 243.710938 69.6875 242.445312 70.316406 242.394531 70.34375 C 242.214844 70.429688 242.152344 70.640625 242.238281 70.820312 C 242.324219 70.996094 242.535156 71.070312 242.714844 70.976562 C 242.722656 70.96875 243.757812 70.472656 244.871094 70.933594 C 245.851562 71.339844 246.621094 72.351562 247.160156 73.945312 C 247.210938 74.09375 247.34375 74.183594 247.496094 74.183594 C 247.53125 74.183594 247.574219 74.179688 247.609375 74.164062 C 247.792969 74.101562 247.894531 73.902344 247.828125 73.714844 C 247.21875 71.914062 246.3125 70.757812 245.125 70.273438 Z M 285.003906 76.78125 C 285.058594 76.816406 285.125 76.832031 285.179688 76.832031 C 285.300781 76.832031 285.421875 76.769531 285.488281 76.652344 C 286.332031 75.203125 287.292969 74.363281 288.332031 74.164062 C 289.515625 73.9375 290.425781 74.632812 290.4375 74.640625 C 290.59375 74.761719 290.816406 74.734375 290.9375 74.582031 C 291.058594 74.425781 291.027344 74.207031 290.878906 74.085938 C 290.828125 74.050781 289.71875 73.1875 288.210938 73.464844 C 286.953125 73.703125 285.828125 74.65625 284.875 76.296875 C 284.777344 76.46875 284.832031 76.691406 285.003906 76.78125 Z M 266.300781 81.941406 C 266.347656 81.960938 266.398438 81.976562 266.449219 81.976562 C 266.582031 81.976562 266.710938 81.898438 266.769531 81.769531 C 266.855469 81.589844 266.777344 81.378906 266.597656 81.292969 C 265.792969 80.914062 264.675781 80.140625 264.707031 79.601562 C 264.734375 78.972656 265.722656 78.011719 266.335938 77.550781 C 266.492188 77.429688 266.527344 77.210938 266.40625 77.050781 C 266.285156 76.894531 266.0625 76.859375 265.90625 76.980469 C 265.714844 77.125 264.042969 78.410156 263.992188 79.570312 C 263.945312 80.800781 266.058594 81.828125 266.300781 81.941406 Z M 270.160156 67.675781 C 270.234375 68.335938 270.824219 68.820312 271.492188 68.75 L 276.5 68.222656 C 277.164062 68.152344 277.648438 67.5625 277.574219 66.894531 L 277.527344 66.417969 C 277.453125 65.753906 276.863281 65.269531 276.195312 65.34375 L 271.1875 65.867188 C 270.523438 65.941406 270.042969 66.53125 270.113281 67.199219 Z M 270.867188 75.257812 C 270.71875 75.386719 270.710938 75.617188 270.839844 75.765625 C 270.910156 75.84375 271.007812 75.886719 271.101562 75.886719 C 271.1875 75.886719 271.273438 75.855469 271.335938 75.792969 C 271.363281 75.773438 274.109375 73.382812 277.917969 75.308594 C 278.085938 75.402344 278.308594 75.332031 278.394531 75.152344 C 278.480469 74.976562 278.414062 74.761719 278.238281 74.675781 C 274.011719 72.527344 270.902344 75.230469 270.867188 75.257812 Z M 238.679688 110.847656 C 238.4375 110.898438 232.808594 112.027344 231.472656 115.003906 C 231.394531 115.179688 231.472656 115.394531 231.652344 115.472656 C 231.699219 115.492188 231.75 115.5 231.800781 115.5 C 231.933594 115.5 232.0625 115.421875 232.128906 115.292969 C 233.316406 112.660156 238.765625 111.558594 238.820312 111.542969 C 239.015625 111.507812 239.140625 111.316406 239.101562 111.125 C 239.058594 110.941406 238.871094 110.8125 238.679688 110.847656 Z M 241.070312 198.710938 C 240.871094 198.726562 240.730469 198.898438 240.742188 199.097656 L 244.699219 248.648438 C 244.714844 248.835938 244.871094 248.976562 245.054688 248.976562 C 245.0625 248.976562 245.074219 248.976562 245.082031 248.976562 C 245.28125 248.964844 245.425781 248.792969 245.410156 248.59375 L 241.453125 199.039062 C 241.441406 198.839844 241.261719 198.699219 241.070312 198.710938 Z M 252.851562 202.96875 C 252.660156 202.996094 252.519531 203.171875 252.546875 203.367188 L 258.566406 249.207031 C 258.585938 249.382812 258.742188 249.511719 258.921875 249.511719 C 258.933594 249.511719 258.949219 249.511719 258.972656 249.511719 C 259.164062 249.484375 259.304688 249.304688 259.277344 249.113281 L 253.257812 203.273438 C 253.222656 203.082031 253.042969 202.945312 252.851562 202.96875 Z M 263.894531 203.699219 C 263.703125 203.734375 263.574219 203.925781 263.617188 204.121094 L 272.253906 247.960938 C 272.289062 248.128906 272.4375 248.246094 272.601562 248.246094 C 272.625 248.246094 272.652344 248.246094 272.671875 248.238281 C 272.867188 248.203125 272.992188 248.011719 272.949219 247.816406 L 264.3125 203.976562 C 264.269531 203.792969 264.078125 203.664062 263.894531 203.699219 Z M 275.25 200.925781 C 275.199219 200.734375 275.007812 200.621094 274.816406 200.660156 C 274.621094 200.710938 274.507812 200.902344 274.550781 201.097656 L 286.105469 247.613281 C 286.148438 247.773438 286.289062 247.882812 286.453125 247.882812 C 286.484375 247.882812 286.511719 247.882812 286.539062 247.875 C 286.730469 247.824219 286.847656 247.632812 286.804688 247.441406 Z M 299.390625 244.148438 L 286.804688 200.917969 C 286.746094 200.726562 286.554688 200.621094 286.363281 200.675781 C 286.171875 200.734375 286.0625 200.933594 286.121094 201.117188 L 298.707031 244.347656 C 298.75 244.503906 298.890625 244.601562 299.046875 244.601562 C 299.082031 244.601562 299.113281 244.59375 299.148438 244.585938 C 299.332031 244.53125 299.445312 244.332031 299.390625 244.148438 Z M 299.390625 244.148438 " fill-opacity="1" fill-rule="nonzero"/><path fill="#ede6dd" d="M 264.414062 179.347656 C 254.472656 179.347656 242.726562 178.757812 230.449219 176.871094 C 230.257812 176.84375 230.121094 176.65625 230.148438 176.464844 C 230.179688 176.273438 230.355469 176.136719 230.554688 176.167969 C 263.601562 181.230469 292.765625 176.941406 293.058594 176.898438 C 293.25 176.871094 293.433594 177.007812 293.460938 177.199219 C 293.492188 177.390625 293.355469 177.574219 293.164062 177.605469 C 292.980469 177.632812 281.3125 179.347656 264.414062 179.347656 Z M 273.675781 83.347656 L 259.390625 83.953125 C 258.558594 83.988281 258.136719 84.949219 258.65625 85.605469 C 259.953125 87.207031 262.542969 89.445312 266.894531 89.390625 C 271.429688 89.332031 273.632812 86.613281 274.601562 84.820312 C 274.980469 84.140625 274.453125 83.320312 273.675781 83.347656 Z M 273.675781 83.347656 " fill-opacity="1" fill-rule="nonzero"/><path fill="#ede6dd" d="M 135.746094 149.28125 L 87.214844 150.503906 C 87.214844 150.503906 84.378906 140.066406 81.019531 128.460938 C 75.589844 133.058594 69.691406 136.773438 69.691406 136.773438 C 69.691406 136.773438 71.542969 136.210938 75.371094 141.105469 C 79.199219 146 72.175781 154.082031 66.648438 155.5 C 61.121094 156.914062 57.414062 151.742188 57.414062 151.742188 C 57.414062 151.742188 43.25 151.742188 38.78125 138.765625 C 34.3125 125.789062 76.375 91.070312 76.375 91.070312 C 76.375 91.070312 76.386719 91.089844 76.394531 91.097656 C 81.625 85.945312 90.277344 83.554688 90.277344 83.554688 C 119.125 77.949219 136.96875 87.554688 138.640625 110.824219 C 140.570312 137.46875 135.746094 149.28125 135.746094 149.28125 Z M 135.746094 149.28125 " fill-opacity="1" fill-rule="nonzero"/><path fill="#06605a" d="M 85.859375 150.011719 L 85.6875 145.070312 C 85.6875 145.070312 89.449219 144.578125 95.15625 144 C 93.269531 115.101562 88.398438 92.933594 86.09375 84.816406 C 86.746094 84.375 89.785156 82.957031 91.753906 82.957031 C 94.195312 91.625 98.09375 114.789062 99.964844 143.539062 C 109.15625 142.707031 121.210938 141.894531 131.234375 142.1875 C 129.355469 115.394531 125.679688 94.25 123.34375 85.796875 C 125.03125 86.101562 127.847656 87.625 130.082031 89.644531 C 132.578125 99.242188 134.386719 117.3125 136.09375 142.4375 C 136.804688 142.492188 137.503906 142.550781 138.179688 142.621094 L 138.179688 147.730469 C 142.503906 169.34375 146.511719 191.777344 150.09375 215.003906 C 152.015625 227.421875 153.753906 239.648438 155.316406 251.679688 C 155.394531 252.308594 155.046875 252.910156 154.464844 253.148438 C 153.417969 253.566406 152.238281 253.957031 150.933594 254.304688 C 148.273438 255.011719 144.796875 255.539062 141.535156 254.832031 C 141.535156 254.832031 135.191406 258.886719 127.265625 256.417969 C 127.265625 256.417969 120.050781 262.0625 112.296875 257.214844 C 112.296875 257.214844 105.074219 262.117188 98.257812 257.535156 C 98.257812 257.535156 91.09375 261.058594 83.105469 256.832031 C 83.105469 256.832031 74.539062 259.527344 69.488281 254.476562 C 69.488281 254.476562 61.460938 256.40625 57.976562 251.53125 C 57.664062 251.097656 57.578125 250.535156 57.71875 250.015625 C 60.023438 241.71875 80.535156 168.125 85.859375 150.011719 Z M 85.859375 150.011719 " fill-opacity="1" fill-rule="nonzero"/><path fill="#000000" d="M 123.984375 73.148438 C 123.984375 73.148438 138.675781 71.453125 142.371094 84.898438 C 146.0625 98.347656 134.03125 104.414062 134.351562 110.605469 C 134.671875 116.792969 130.582031 117.789062 129.8125 111.046875 C 129.8125 111.046875 124.382812 111.210938 124.695312 105.441406 C 125.007812 99.664062 128.234375 92.164062 120.34375 83.535156 C 112.453125 74.902344 121.507812 73.210938 123.984375 73.148438 Z M 123.984375 73.148438 " fill-opacity="1" fill-rule="nonzero"/><path fill="#c3113d" d="M 135.796875 75.984375 C 135.757812 77.671875 134.914062 79.316406 133.382812 80.289062 C 132.359375 80.945312 131.191406 81.191406 130.066406 81.085938 C 129.675781 82.0625 128.992188 82.9375 128.039062 83.542969 C 126.566406 84.488281 124.796875 84.585938 123.289062 83.988281 C 120.855469 85.53125 117.632812 84.820312 116.082031 82.394531 C 114.53125 79.96875 115.234375 76.738281 117.660156 75.179688 C 117.746094 73.558594 118.585938 72 120.058594 71.054688 C 121.082031 70.402344 122.25 70.152344 123.375 70.257812 C 123.765625 69.285156 124.449219 68.410156 125.402344 67.804688 C 126.824219 66.894531 128.515625 66.765625 129.988281 67.296875 C 130.003906 67.285156 130.019531 67.277344 130.039062 67.261719 C 132.472656 65.703125 135.703125 66.417969 137.261719 68.847656 C 138.785156 71.246094 138.121094 74.398438 135.796875 75.984375 Z M 135.796875 75.984375 " fill-opacity="1" fill-rule="nonzero"/><path fill="#ede6dd" d="M 106.320312 82.03125 L 119.75 82.773438 C 119.75 82.773438 129.542969 89.027344 128.929688 101.179688 C 128.316406 113.328125 111.945312 101.597656 111.945312 101.597656 C 111.945312 101.597656 104.855469 109.757812 99.199219 107.867188 C 93.542969 105.980469 89.691406 91.175781 92.566406 85.371094 C 95.433594 79.5625 106.320312 82.03125 106.320312 82.03125 Z M 106.320312 82.03125 " fill-opacity="1" fill-rule="nonzero"/><path fill="#000000" d="M 100.675781 108.507812 C 100.664062 108.507812 100.640625 108.507812 100.628906 108.5 C 97.410156 108.03125 95.832031 105.652344 95.769531 105.554688 C 95.660156 105.390625 95.710938 105.167969 95.875 105.0625 C 96.039062 104.957031 96.257812 105 96.367188 105.164062 C 96.378906 105.183594 97.847656 107.367188 100.734375 107.792969 C 100.925781 107.824219 101.0625 108 101.035156 108.199219 C 100.996094 108.378906 100.847656 108.507812 100.675781 108.507812 Z M 100.675781 108.507812 " fill-opacity="1" fill-rule="nonzero"/><path fill="#c3113d" d="M 123.289062 108.511719 C 122.09375 108.996094 120.292969 108.441406 118.570312 107.625 C 120.585938 111.523438 121.851562 116.195312 122.390625 118.453125 C 122.511719 118.949219 122.199219 119.457031 121.695312 119.5625 L 119.816406 119.976562 C 119.324219 120.082031 118.835938 119.78125 118.71875 119.292969 C 117.640625 114.804688 115.519531 108.910156 113.277344 106.320312 C 112.046875 108.933594 110.003906 114.070312 109.207031 120.730469 C 109.152344 121.226562 108.703125 121.597656 108.203125 121.546875 L 106.285156 121.355469 C 105.773438 121.304688 105.394531 120.84375 105.457031 120.332031 C 106.019531 115.578125 107.167969 111.558594 108.277344 108.542969 C 106.398438 110.261719 104.085938 111.921875 102.648438 111.257812 C 99.902344 110 98.273438 97.648438 100.398438 96.523438 C 102.527344 95.402344 107.394531 97.195312 110.878906 100.582031 L 113.484375 100.097656 C 113.484375 100.097656 119.910156 92.804688 122.328125 94.183594 C 124.738281 95.558594 126.191406 107.332031 123.289062 108.511719 Z M 123.289062 108.511719 " fill-opacity="1" fill-rule="nonzero"/><path fill="#000000" d="M 118.871094 107.824219 C 118.761719 107.988281 118.542969 108.035156 118.378906 107.921875 L 114.058594 105.089844 L 112.863281 105.363281 L 113.535156 106.082031 C 113.667969 106.222656 113.660156 106.449219 113.519531 106.585938 C 113.449219 106.648438 113.363281 106.683594 113.277344 106.683594 C 113.183594 106.683594 113.085938 106.648438 113.019531 106.570312 L 112.117188 105.609375 C 112.105469 105.589844 112.089844 105.566406 112.082031 105.546875 L 111.511719 105.675781 L 108.503906 108.8125 C 108.433594 108.882812 108.339844 108.917969 108.246094 108.917969 C 108.160156 108.917969 108.070312 108.882812 108 108.820312 C 107.855469 108.683594 107.847656 108.457031 107.992188 108.3125 L 110.972656 105.207031 C 110.957031 104.722656 110.921875 104.238281 110.871094 103.789062 C 110.851562 103.789062 110.835938 103.789062 110.816406 103.78125 C 109.8125 103.417969 108.382812 103.632812 108.367188 103.632812 C 108.175781 103.660156 107.992188 103.53125 107.960938 103.335938 C 107.933594 103.140625 108.0625 102.957031 108.261719 102.929688 C 108.324219 102.921875 109.648438 102.722656 110.78125 103.027344 C 110.695312 102.429688 110.609375 102.023438 110.609375 102.011719 C 110.566406 101.820312 110.695312 101.632812 110.886719 101.589844 C 111.078125 101.554688 111.265625 101.675781 111.308594 101.867188 C 111.320312 101.933594 111.605469 103.371094 111.667969 104.898438 L 113.554688 104.472656 C 113.910156 103.597656 113.753906 101.847656 113.65625 101.226562 C 113.625 101.035156 113.753906 100.851562 113.953125 100.824219 C 114.144531 100.792969 114.332031 100.921875 114.359375 101.121094 C 114.367188 101.164062 114.445312 101.65625 114.480469 102.289062 C 115.496094 101.546875 117.347656 101.3125 117.589844 101.285156 C 117.789062 101.261719 117.957031 101.40625 117.980469 101.597656 C 118 101.789062 117.859375 101.96875 117.667969 101.988281 C 116.699219 102.097656 115.011719 102.507812 114.601562 103.140625 C 114.574219 103.191406 114.53125 103.21875 114.488281 103.25 C 114.472656 103.648438 114.429688 104.050781 114.332031 104.402344 C 114.332031 104.402344 114.335938 104.402344 114.335938 104.402344 L 118.785156 107.316406 C 118.933594 107.4375 118.976562 107.660156 118.871094 107.824219 Z M 118.871094 107.824219 " fill-opacity="1" fill-rule="nonzero"/><path fill="#e5a385" d="M 114.765625 38.503906 C 125.171875 40.320312 134.679688 53.160156 132.691406 64.539062 C 132.011719 68.429688 130.878906 72.863281 128.617188 75.671875 C 126.84375 77.871094 123.734375 79.429688 121.339844 80.695312 C 120.335938 81.222656 119.316406 81.707031 118.277344 82.105469 C 115.675781 83.105469 112.929688 83.605469 110.039062 83.101562 C 106.148438 82.425781 103.695312 80.390625 101.273438 77.621094 C 100.992188 77.308594 100.714844 76.972656 100.429688 76.640625 C 98.800781 74.691406 96.101562 71.832031 95.277344 69.324219 C 94.1875 65.996094 94.359375 61.75 95.019531 57.972656 C 97.007812 46.585938 104.371094 36.691406 114.765625 38.503906 Z M 114.765625 38.503906 " fill-opacity="1" fill-rule="nonzero"/><path fill="#000000" d="M 133.617188 63.207031 C 127.078125 64.601562 122.824219 45.074219 122.214844 42.070312 C 119.589844 42.347656 114.472656 43.429688 112.929688 47.570312 C 110.789062 53.332031 103.238281 59.957031 95.257812 58.746094 C 95.257812 58.746094 96.144531 63.34375 93.335938 62.660156 C 90.523438 61.976562 87.578125 45.875 99.566406 36.242188 C 112.929688 25.515625 125.125 36.796875 125.125 36.796875 C 138.621094 39.34375 140.699219 61.691406 133.617188 63.207031 Z M 133.617188 63.207031 " fill-opacity="1" fill-rule="nonzero"/><path fill="#e5a385" d="M 119.921875 77.542969 C 119.921875 77.542969 118.90625 83.613281 120.171875 91.332031 C 120.300781 92.121094 120.042969 92.917969 119.488281 93.488281 C 117.660156 95.351562 114.039062 97.839844 111.625 98.160156 C 109.1875 98.480469 101.394531 93.671875 98.246094 90.804688 C 97.40625 90.042969 97.171875 88.820312 97.683594 87.808594 C 98.714844 85.761719 100.335938 81.753906 101.074219 75.714844 C 102.199219 66.5 120.761719 67.574219 119.921875 77.542969 Z M 119.921875 77.542969 " fill-opacity="1" fill-rule="nonzero"/><path fill="#000000" d="M 140.164062 247.613281 C 140.183594 247.804688 140.042969 247.980469 139.851562 248.003906 C 139.835938 248.003906 139.820312 248.003906 139.808594 248.003906 C 139.628906 248.003906 139.472656 247.867188 139.453125 247.691406 L 128.28125 147.742188 C 125.785156 147.785156 122.875 147.855469 119.632812 147.976562 L 126.078125 249.84375 C 126.089844 250.042969 125.941406 250.207031 125.742188 250.222656 C 125.734375 250.222656 125.726562 250.222656 125.722656 250.222656 C 125.535156 250.222656 125.378906 250.082031 125.367188 249.886719 L 118.917969 148.007812 C 116.726562 148.09375 114.386719 148.199219 111.941406 148.328125 L 113.183594 248.410156 C 113.183594 248.609375 113.027344 248.765625 112.835938 248.769531 C 112.835938 248.769531 112.835938 248.769531 112.828125 248.769531 C 112.636719 248.769531 112.472656 248.613281 112.472656 248.421875 L 111.226562 148.371094 C 109.101562 148.484375 106.886719 148.625 104.605469 148.78125 L 98.914062 246.019531 C 98.898438 246.210938 98.742188 246.351562 98.558594 246.351562 C 98.550781 246.351562 98.542969 246.351562 98.535156 246.351562 C 98.335938 246.339844 98.1875 246.175781 98.203125 245.976562 L 103.894531 148.832031 C 102.042969 148.96875 100.136719 149.109375 98.203125 149.273438 C 98.214844 149.324219 98.230469 149.371094 98.222656 149.429688 L 85.523438 246.039062 C 85.503906 246.21875 85.34375 246.34375 85.167969 246.34375 C 85.152344 246.34375 85.140625 246.34375 85.117188 246.34375 C 84.925781 246.316406 84.785156 246.140625 84.8125 245.945312 L 97.511719 149.335938 C 97.511719 149.335938 97.511719 149.328125 97.511719 149.328125 C 96.125 149.449219 94.722656 149.578125 93.300781 149.714844 L 72.425781 240.78125 C 72.390625 240.945312 72.242188 241.058594 72.078125 241.058594 C 72.046875 241.058594 72.027344 241.058594 72 241.050781 C 71.804688 241.007812 71.683594 240.816406 71.726562 240.625 L 92.550781 149.792969 C 90.617188 149.984375 88.652344 150.191406 86.675781 150.417969 C 86.660156 150.417969 86.648438 150.417969 86.632812 150.417969 C 86.457031 150.417969 86.300781 150.285156 86.277344 150.105469 C 86.257812 149.914062 86.398438 149.734375 86.589844 149.714844 C 88.730469 149.472656 90.851562 149.246094 92.9375 149.046875 C 92.945312 149.046875 92.949219 149.046875 92.957031 149.046875 C 99.574219 148.398438 105.863281 147.957031 111.535156 147.652344 C 111.542969 147.652344 111.554688 147.644531 111.5625 147.644531 C 111.570312 147.644531 111.578125 147.644531 111.585938 147.644531 C 118.265625 147.28125 124.085938 147.117188 128.539062 147.039062 C 128.539062 147.039062 128.546875 147.039062 128.546875 147.039062 C 128.550781 147.039062 128.558594 147.039062 128.574219 147.039062 C 134.34375 146.945312 137.828125 147.003906 137.914062 147.003906 C 138.113281 147.011719 138.269531 147.167969 138.265625 147.367188 C 138.257812 147.566406 138.109375 147.707031 137.902344 147.714844 C 137.816406 147.714844 134.5 147.65625 128.988281 147.742188 Z M 140.164062 247.613281 " fill-opacity="1" fill-rule="nonzero"/><path fill="#e5a385" d="M 93.46875 54.691406 C 96.792969 54.65625 99.519531 57.742188 99.558594 61.585938 C 99.601562 65.425781 98.601562 69.285156 95.277344 69.320312 C 91.960938 69.355469 87.578125 65.5625 87.535156 61.714844 C 87.492188 57.871094 90.15625 54.726562 93.46875 54.691406 Z M 135.46875 62.019531 C 132.359375 60.859375 128.746094 62.84375 127.40625 66.445312 C 126.070312 70.042969 125.707031 74.007812 128.816406 75.167969 C 131.925781 76.328125 137.332031 74.242188 138.675781 70.640625 C 140.019531 67.035156 138.585938 63.179688 135.46875 62.019531 Z M 135.46875 62.019531 " fill-opacity="1" fill-rule="nonzero"/><path fill="#000000" d="M 111.035156 83.257812 C 113.960938 83.542969 116.65625 82.828125 119.175781 81.632812 C 117.253906 84.417969 113.917969 86.101562 110.3125 85.753906 C 106.128906 85.347656 102.820312 82.332031 101.871094 78.46875 C 104.5 81.035156 107.101562 82.878906 111.035156 83.257812 Z M 104.390625 59.152344 C 104.15625 60.476562 105.046875 61.742188 106.371094 61.96875 C 107.691406 62.203125 108.957031 61.316406 109.1875 59.992188 C 109.421875 58.667969 108.53125 57.402344 107.207031 57.175781 C 105.886719 56.941406 104.625 57.820312 104.390625 59.152344 Z M 120.46875 61.957031 C 120.234375 63.277344 121.125 64.546875 122.449219 64.773438 C 123.773438 65.007812 125.039062 64.117188 125.265625 62.792969 C 125.5 61.472656 124.609375 60.207031 123.289062 59.976562 C 121.964844 59.742188 120.699219 60.632812 120.46875 61.957031 Z M 113.484375 53.261719 C 113.726562 52.957031 113.675781 52.507812 113.371094 52.265625 C 113.183594 52.117188 108.808594 48.742188 102.710938 51.78125 C 102.363281 51.960938 102.214844 52.386719 102.390625 52.734375 C 102.570312 53.082031 102.996094 53.234375 103.34375 53.054688 C 108.609375 50.429688 112.332031 53.261719 112.488281 53.382812 C 112.617188 53.480469 112.773438 53.53125 112.929688 53.53125 C 113.136719 53.53125 113.339844 53.4375 113.484375 53.261719 Z M 129.632812 57.65625 C 129.839844 57.324219 129.734375 56.882812 129.398438 56.675781 C 124.710938 53.792969 120.355469 55.722656 120.171875 55.808594 C 119.816406 55.972656 119.660156 56.390625 119.824219 56.753906 C 119.988281 57.109375 120.40625 57.265625 120.769531 57.101562 C 120.804688 57.089844 124.609375 55.394531 128.660156 57.886719 C 128.773438 57.957031 128.902344 57.992188 129.027344 57.992188 C 129.265625 58 129.5 57.878906 129.632812 57.65625 Z M 115.746094 69.164062 C 116.386719 66.339844 115.191406 64.730469 115.132812 64.660156 C 115.011719 64.503906 114.792969 64.472656 114.636719 64.59375 C 114.480469 64.714844 114.453125 64.9375 114.574219 65.09375 C 114.585938 65.105469 115.617188 66.5 115.054688 69.007812 C 115.011719 69.199219 115.132812 69.390625 115.328125 69.433594 C 115.355469 69.441406 115.375 69.441406 115.40625 69.441406 C 115.5625 69.441406 115.710938 69.332031 115.746094 69.164062 Z M 89.800781 59.707031 C 89.804688 59.691406 90.789062 58.09375 92.332031 57.816406 C 93.199219 57.65625 94.109375 57.949219 95.027344 58.691406 C 95.183594 58.8125 95.40625 58.789062 95.527344 58.632812 C 95.648438 58.476562 95.625 58.253906 95.46875 58.136719 C 94.382812 57.257812 93.277344 56.925781 92.195312 57.117188 C 90.332031 57.453125 89.230469 59.265625 89.179688 59.34375 C 89.082031 59.515625 89.136719 59.726562 89.300781 59.835938 C 89.359375 59.871094 89.421875 59.886719 89.484375 59.886719 C 89.613281 59.886719 89.734375 59.820312 89.800781 59.707031 Z M 137.660156 67.71875 C 137.84375 67.652344 137.9375 67.449219 137.871094 67.261719 C 137.84375 67.175781 137.105469 65.183594 135.339844 64.503906 C 134.316406 64.105469 133.171875 64.230469 131.933594 64.878906 C 131.761719 64.972656 131.691406 65.183594 131.78125 65.363281 C 131.875 65.535156 132.089844 65.605469 132.265625 65.511719 C 133.304688 64.964844 134.257812 64.851562 135.082031 65.171875 C 136.550781 65.742188 137.203125 67.496094 137.210938 67.511719 C 137.261719 67.652344 137.402344 67.746094 137.546875 67.746094 C 137.574219 67.738281 137.617188 67.730469 137.660156 67.71875 Z M 137.660156 67.71875 " fill-opacity="1" fill-rule="nonzero"/><path fill="#ede6dd" d="M 105.585938 69.0625 L 119.4375 72.3125 C 120.15625 72.484375 120.414062 73.394531 119.871094 73.894531 C 118.476562 75.167969 115.726562 76.890625 111.425781 76.140625 C 106.96875 75.375 105.179688 72.214844 104.492188 70.273438 C 104.25 69.582031 104.875 68.898438 105.585938 69.0625 Z M 105.585938 69.0625 " fill-opacity="1" fill-rule="nonzero"/><path fill="#e5a385" d="M 71.785156 141.953125 L 75.597656 144.1875 C 75.597656 144.1875 81.558594 143.21875 84.1875 139.917969 C 86.8125 136.625 87.292969 134.082031 88.296875 134.203125 C 89.308594 134.324219 91.996094 139.492188 85.410156 145.53125 C 85.410156 145.53125 92.582031 149.542969 91.429688 152.460938 C 90.839844 153.960938 90.3125 154.617188 89.949219 154.902344 C 89.613281 155.164062 89.371094 155.511719 89.285156 155.925781 C 89.101562 156.855469 88.589844 158.308594 87.210938 158.855469 C 86.269531 159.226562 85.550781 160.015625 85.140625 160.941406 C 84.761719 161.773438 84.15625 162.640625 83.191406 162.96875 C 82.605469 163.167969 82.121094 163.566406 81.710938 164.027344 C 81.382812 164.390625 80.742188 164.742188 79.519531 164.824219 C 76.757812 165.003906 69.367188 154.84375 69.367188 154.84375 L 65.183594 152.019531 C 63.980469 151.207031 63.574219 149.644531 64.214844 148.335938 C 65.472656 145.746094 68.179688 141.667969 71.785156 141.953125 Z M 71.785156 141.953125 " fill-opacity="1" fill-rule="nonzero"/><path fill="#000000" d="M 70.035156 136.863281 C 69.984375 137.058594 69.785156 137.164062 69.601562 137.113281 C 69.28125 137.027344 61.652344 135.03125 57.96875 142.535156 C 57.90625 142.664062 57.785156 142.734375 57.648438 142.734375 C 57.597656 142.734375 57.542969 142.71875 57.492188 142.699219 C 57.3125 142.613281 57.242188 142.398438 57.328125 142.222656 C 61.277344 134.183594 69.707031 136.410156 69.792969 136.429688 C 69.976562 136.480469 70.085938 136.679688 70.035156 136.863281 Z M 84.976562 125.566406 C 84.976562 125.425781 84.597656 111.019531 70.9375 105.042969 C 70.761719 104.964844 70.546875 105.042969 70.46875 105.226562 C 70.390625 105.40625 70.46875 105.617188 70.652344 105.695312 C 83.097656 111.140625 84.171875 123.789062 84.265625 125.410156 L 81.148438 127.894531 C 80.992188 128.015625 80.96875 128.242188 81.089844 128.390625 C 81.160156 128.476562 81.261719 128.527344 81.367188 128.527344 C 81.445312 128.527344 81.523438 128.5 81.589844 128.449219 L 84.847656 125.851562 C 84.933594 125.78125 84.984375 125.675781 84.976562 125.566406 Z M 113.234375 105.972656 C 113.042969 105.996094 112.902344 106.164062 112.914062 106.363281 L 116.605469 142.402344 C 116.628906 142.585938 116.777344 142.71875 116.960938 142.71875 C 116.976562 142.71875 116.984375 142.71875 117 142.71875 C 117.191406 142.699219 117.332031 142.527344 117.320312 142.328125 L 113.625 106.292969 C 113.605469 106.09375 113.425781 105.953125 113.234375 105.972656 Z M 122.0625 41.742188 C 121.820312 41.847656 116.101562 44.503906 115.226562 49.726562 C 115.191406 49.917969 115.328125 50.101562 115.519531 50.136719 C 115.539062 50.136719 115.5625 50.144531 115.574219 50.144531 C 115.746094 50.144531 115.894531 50.023438 115.925781 49.847656 C 116.734375 45.007812 122.300781 42.417969 122.355469 42.398438 C 122.535156 42.320312 122.613281 42.105469 122.535156 41.925781 C 122.457031 41.742188 122.242188 41.664062 122.0625 41.742188 Z M 139.816406 107.140625 C 139.585938 107.125 139.460938 107.289062 139.453125 107.488281 L 139.066406 127.347656 C 139.0625 127.546875 139.21875 127.703125 139.417969 127.707031 C 139.417969 127.707031 139.421875 127.707031 139.421875 127.707031 C 139.617188 127.707031 139.773438 127.550781 139.78125 127.359375 L 140.164062 107.503906 C 140.171875 107.304688 140.015625 107.140625 139.816406 107.140625 Z M 84.519531 144.328125 C 84.363281 144.207031 84.144531 144.242188 84.023438 144.398438 C 83.902344 144.554688 83.9375 144.777344 84.09375 144.898438 L 85.722656 146.128906 C 85.785156 146.179688 85.863281 146.199219 85.9375 146.199219 C 86.042969 146.199219 86.148438 146.148438 86.21875 146.058594 C 86.339844 145.902344 86.304688 145.679688 86.148438 145.558594 Z M 84.519531 144.328125 " fill-opacity="1" fill-rule="nonzero"/><g clip-path="url(#6204800ce4)"><g clip-path="url(#f3a2bab172)"><g clip-path="url(#d7d6f6bd4e)"><g clip-path="url(#213003d93a)"><path fill="#13ab25" d="M 284.847656 99.628906 L 292.101562 92.671875 L 298.167969 105.335938 C 298.167969 105.335938 314.226562 83.195312 341.410156 81.855469 C 328.679688 85.875 304.167969 106.027344 298.222656 120.769531 C 290.171875 106.011719 284.847656 99.628906 284.847656 99.628906 " fill-opacity="1" fill-rule="nonzero"/></g></g></g></g><g clip-path="url(#e5e6246a3b)"><g clip-path="url(#3d550e92fd)"><g clip-path="url(#91ba6c794f)"><g clip-path="url(#4fc63fcfad)"><path fill="#13ab25" d="M 36.597656 322.765625 L 43.851562 315.808594 L 49.917969 328.476562 C 49.917969 328.476562 65.976562 306.335938 93.160156 304.992188 C 80.425781 309.015625 55.917969 329.167969 49.972656 343.90625 C 41.921875 329.148438 36.597656 322.765625 36.597656 322.765625 " fill-opacity="1" fill-rule="nonzero"/></g></g></g></g></svg>