<svg xmlns="http://www.w3.org/2000/svg" xmlns:xlink="http://www.w3.org/1999/xlink" width="500" zoomAndPan="magnify" viewBox="0 0 375 374.999991" height="500" preserveAspectRatio="xMidYMid meet" version="1.0"><defs><clipPath id="2dda1a3966"><path d="M 149 270 L 233 270 L 233 355.847656 L 149 355.847656 Z M 149 270 " clip-rule="nonzero"/></clipPath></defs><path fill="#87ceeb" d="M 160.109375 117.625 C 160.109375 117.625 161.304688 118.222656 163.164062 118.355469 C 166.21875 118.621094 170.867188 117.824219 174.121094 111.320312 C 179.367188 100.894531 189.523438 91.269531 201.609375 95.382812 C 213.691406 99.5 208.179688 127.785156 220 129.710938 C 231.816406 131.636719 238.390625 129.710938 244.167969 106.671875 C 249.945312 83.632812 274.90625 84.695312 288.386719 94.453125 C 301.863281 104.214844 295.558594 128.382812 283.738281 136.617188 C 271.921875 144.847656 266.078125 173.199219 287.523438 167.953125 C 311.160156 162.179688 320.386719 174.460938 309.699219 197.832031 C 292.4375 235.742188 322.84375 214.5625 323.972656 233.550781 C 324.769531 247.296875 302.128906 248.957031 297.347656 254.398438 C 289.316406 263.496094 297.214844 274.851562 299.9375 276.910156 C 304.320312 280.226562 314.746094 288.460938 325.765625 290.917969 C 336.722656 293.375 339.777344 317.277344 327.957031 325.242188 C 316.140625 333.210938 299.40625 337.0625 291.175781 310.703125 C 282.941406 284.34375 258.773438 289.257812 250.804688 301.671875 C 242.839844 314.023438 227.765625 339.585938 213.757812 337.660156 C 199.75 335.734375 192.644531 331.351562 182.152344 317.875 C 171.664062 304.394531 147.894531 330.289062 133.820312 326.105469 C 122.265625 322.65625 119.542969 318.40625 119.808594 300.808594 C 120.074219 283.214844 94.644531 303.332031 85.949219 290.320312 C 78.710938 279.5625 93.449219 268.210938 90.992188 262.632812 C 85.484375 250.351562 66.03125 259.378906 49.230469 264.425781 C 15.503906 274.585938 16.433594 227.445312 45.910156 231.429688 C 68.285156 234.414062 92.1875 237.070312 83.625 218.148438 C 73.664062 196.238281 79.773438 187.671875 86.347656 178.910156 C 92.917969 170.144531 84.15625 158.328125 74.261719 146.507812 C 64.371094 134.691406 72.335938 122.871094 85.550781 125.660156 C 98.761719 128.449219 113.632812 147.238281 128.175781 134.027344 C 128.042969 133.960938 133.753906 106.539062 160.109375 117.625 Z M 160.109375 117.625 " fill-opacity="1" fill-rule="nonzero"/><path fill="#87ceeb" d="M 230.554688 78.1875 C 230.554688 78.824219 230.492188 79.457031 230.371094 80.078125 C 230.246094 80.703125 230.0625 81.308594 229.816406 81.898438 C 229.574219 82.484375 229.277344 83.042969 228.921875 83.574219 C 228.570312 84.101562 228.167969 84.59375 227.71875 85.042969 C 227.265625 85.492188 226.777344 85.894531 226.246094 86.25 C 225.71875 86.601562 225.160156 86.902344 224.570312 87.144531 C 223.984375 87.386719 223.378906 87.570312 222.753906 87.695312 C 222.128906 87.820312 221.5 87.882812 220.863281 87.882812 C 220.226562 87.882812 219.59375 87.820312 218.972656 87.695312 C 218.347656 87.570312 217.742188 87.386719 217.152344 87.144531 C 216.566406 86.902344 216.007812 86.601562 215.476562 86.25 C 214.949219 85.894531 214.457031 85.492188 214.007812 85.042969 C 213.558594 84.59375 213.15625 84.101562 212.800781 83.574219 C 212.449219 83.042969 212.148438 82.484375 211.90625 81.898438 C 211.664062 81.308594 211.480469 80.703125 211.355469 80.078125 C 211.230469 79.457031 211.167969 78.824219 211.167969 78.1875 C 211.167969 77.550781 211.230469 76.921875 211.355469 76.296875 C 211.480469 75.671875 211.664062 75.066406 211.90625 74.480469 C 212.148438 73.890625 212.449219 73.332031 212.800781 72.800781 C 213.15625 72.273438 213.558594 71.785156 214.007812 71.332031 C 214.457031 70.882812 214.949219 70.480469 215.476562 70.128906 C 216.007812 69.773438 216.566406 69.476562 217.152344 69.234375 C 217.742188 68.988281 218.347656 68.804688 218.972656 68.679688 C 219.59375 68.554688 220.226562 68.496094 220.863281 68.496094 C 221.5 68.496094 222.128906 68.554688 222.753906 68.679688 C 223.378906 68.804688 223.984375 68.988281 224.570312 69.234375 C 225.160156 69.476562 225.71875 69.773438 226.246094 70.128906 C 226.777344 70.480469 227.265625 70.882812 227.71875 71.332031 C 228.167969 71.785156 228.570312 72.273438 228.921875 72.800781 C 229.277344 73.332031 229.574219 73.890625 229.816406 74.480469 C 230.0625 75.066406 230.246094 75.671875 230.371094 76.296875 C 230.492188 76.921875 230.554688 77.550781 230.554688 78.1875 Z M 230.554688 78.1875 " fill-opacity="1" fill-rule="nonzero"/><path fill="#87ceeb" d="M 175.582031 331.550781 C 175.582031 331.953125 175.542969 332.347656 175.464844 332.742188 C 175.386719 333.136719 175.269531 333.519531 175.117188 333.890625 C 174.960938 334.257812 174.773438 334.613281 174.550781 334.945312 C 174.328125 335.277344 174.074219 335.585938 173.792969 335.871094 C 173.507812 336.152344 173.199219 336.40625 172.867188 336.628906 C 172.53125 336.851562 172.179688 337.042969 171.808594 337.195312 C 171.441406 337.347656 171.058594 337.464844 170.664062 337.542969 C 170.269531 337.621094 169.875 337.660156 169.472656 337.660156 C 169.070312 337.660156 168.675781 337.621094 168.28125 337.542969 C 167.886719 337.464844 167.503906 337.347656 167.136719 337.195312 C 166.765625 337.042969 166.414062 336.851562 166.078125 336.628906 C 165.746094 336.40625 165.4375 336.152344 165.152344 335.871094 C 164.871094 335.585938 164.617188 335.277344 164.394531 334.945312 C 164.171875 334.613281 163.984375 334.257812 163.828125 333.890625 C 163.675781 333.519531 163.558594 333.136719 163.480469 332.742188 C 163.402344 332.347656 163.363281 331.953125 163.363281 331.550781 C 163.363281 331.148438 163.402344 330.753906 163.480469 330.359375 C 163.558594 329.964844 163.675781 329.585938 163.828125 329.214844 C 163.984375 328.84375 164.171875 328.492188 164.394531 328.15625 C 164.617188 327.824219 164.871094 327.515625 165.152344 327.230469 C 165.4375 326.949219 165.746094 326.695312 166.078125 326.472656 C 166.414062 326.25 166.765625 326.0625 167.136719 325.90625 C 167.503906 325.753906 167.886719 325.636719 168.28125 325.558594 C 168.675781 325.480469 169.070312 325.441406 169.472656 325.441406 C 169.875 325.441406 170.269531 325.480469 170.664062 325.558594 C 171.058594 325.636719 171.441406 325.753906 171.808594 325.90625 C 172.179688 326.0625 172.53125 326.25 172.867188 326.472656 C 173.199219 326.695312 173.507812 326.949219 173.792969 327.230469 C 174.074219 327.515625 174.328125 327.824219 174.550781 328.15625 C 174.773438 328.492188 174.960938 328.84375 175.117188 329.214844 C 175.269531 329.585938 175.386719 329.964844 175.464844 330.359375 C 175.542969 330.753906 175.582031 331.148438 175.582031 331.550781 Z M 175.582031 331.550781 " fill-opacity="1" fill-rule="nonzero"/><path fill="#87ceeb" d="M 282.957031 331.863281 C 283.117188 332.285156 283.25 332.710938 283.351562 333.140625 C 283.453125 333.574219 283.523438 334.003906 283.5625 334.433594 C 283.605469 334.863281 283.613281 335.28125 283.585938 335.691406 C 283.5625 336.101562 283.507812 336.492188 283.417969 336.867188 C 283.332031 337.242188 283.214844 337.589844 283.066406 337.914062 C 282.917969 338.238281 282.746094 338.53125 282.542969 338.792969 C 282.34375 339.054688 282.117188 339.277344 281.871094 339.46875 C 281.621094 339.65625 281.355469 339.804688 281.070312 339.914062 C 280.785156 340.023438 280.488281 340.09375 280.175781 340.117188 C 279.867188 340.144531 279.546875 340.125 279.222656 340.066406 C 278.898438 340.007812 278.574219 339.90625 278.246094 339.765625 C 277.917969 339.625 277.597656 339.441406 277.285156 339.222656 C 276.96875 339.003906 276.664062 338.75 276.371094 338.464844 C 276.082031 338.175781 275.804688 337.859375 275.546875 337.515625 C 275.289062 337.167969 275.054688 336.800781 274.839844 336.410156 C 274.628906 336.023438 274.441406 335.617188 274.277344 335.199219 C 274.117188 334.777344 273.988281 334.351562 273.882812 333.921875 C 273.78125 333.488281 273.710938 333.058594 273.671875 332.628906 C 273.632812 332.199219 273.625 331.78125 273.648438 331.371094 C 273.671875 330.960938 273.726562 330.570312 273.816406 330.195312 C 273.902344 329.820312 274.019531 329.472656 274.167969 329.148438 C 274.316406 328.824219 274.488281 328.53125 274.691406 328.269531 C 274.894531 328.007812 275.117188 327.785156 275.367188 327.59375 C 275.613281 327.40625 275.878906 327.257812 276.164062 327.148438 C 276.449219 327.039062 276.75 326.96875 277.058594 326.945312 C 277.371094 326.917969 277.6875 326.9375 278.011719 326.996094 C 278.335938 327.054688 278.664062 327.15625 278.988281 327.296875 C 279.316406 327.4375 279.636719 327.621094 279.953125 327.839844 C 280.265625 328.058594 280.570312 328.3125 280.863281 328.597656 C 281.15625 328.886719 281.429688 329.203125 281.6875 329.546875 C 281.945312 329.894531 282.179688 330.261719 282.394531 330.652344 C 282.609375 331.042969 282.796875 331.445312 282.957031 331.863281 Z M 282.957031 331.863281 " fill-opacity="1" fill-rule="nonzero"/><path fill="#87ceeb" d="M 351.925781 197.789062 C 352.421875 198.332031 352.878906 198.902344 353.296875 199.5 C 353.714844 200.097656 354.082031 200.714844 354.398438 201.347656 C 354.714844 201.980469 354.980469 202.617188 355.1875 203.257812 C 355.394531 203.898438 355.542969 204.53125 355.632812 205.15625 C 355.722656 205.78125 355.75 206.386719 355.71875 206.972656 C 355.683594 207.558594 355.589844 208.113281 355.4375 208.636719 C 355.285156 209.164062 355.074219 209.644531 354.804688 210.085938 C 354.539062 210.527344 354.21875 210.917969 353.847656 211.261719 C 353.472656 211.605469 353.054688 211.890625 352.59375 212.121094 C 352.132812 212.347656 351.632812 212.519531 351.097656 212.628906 C 350.5625 212.734375 350.003906 212.78125 349.414062 212.765625 C 348.828125 212.746094 348.226562 212.667969 347.613281 212.527344 C 346.996094 212.386719 346.378906 212.183594 345.757812 211.921875 C 345.136719 211.660156 344.523438 211.347656 343.917969 210.976562 C 343.316406 210.605469 342.734375 210.1875 342.171875 209.722656 C 341.609375 209.257812 341.082031 208.753906 340.582031 208.210938 C 340.085938 207.667969 339.625 207.097656 339.210938 206.5 C 338.792969 205.898438 338.425781 205.285156 338.109375 204.652344 C 337.789062 204.019531 337.527344 203.382812 337.320312 202.742188 C 337.113281 202.101562 336.964844 201.46875 336.875 200.84375 C 336.785156 200.214844 336.757812 199.609375 336.789062 199.023438 C 336.824219 198.4375 336.914062 197.882812 337.070312 197.359375 C 337.222656 196.835938 337.433594 196.355469 337.699219 195.914062 C 337.96875 195.472656 338.289062 195.078125 338.660156 194.738281 C 339.035156 194.394531 339.453125 194.109375 339.914062 193.878906 C 340.375 193.648438 340.875 193.480469 341.410156 193.371094 C 341.945312 193.261719 342.503906 193.21875 343.089844 193.234375 C 343.679688 193.25 344.28125 193.332031 344.894531 193.472656 C 345.511719 193.613281 346.128906 193.816406 346.75 194.078125 C 347.371094 194.335938 347.984375 194.652344 348.585938 195.023438 C 349.191406 195.394531 349.773438 195.8125 350.335938 196.277344 C 350.894531 196.742188 351.425781 197.246094 351.925781 197.789062 Z M 351.925781 197.789062 " fill-opacity="1" fill-rule="nonzero"/><path fill="#87ceeb" d="M 96.304688 332.8125 C 93.117188 337.328125 87.675781 338.988281 84.222656 336.53125 C 80.769531 334.074219 80.503906 328.429688 83.757812 323.847656 C 86.945312 319.335938 96.238281 313.625 99.691406 316.082031 C 103.144531 318.605469 99.558594 328.296875 96.304688 332.8125 Z M 96.304688 332.8125 " fill-opacity="1" fill-rule="nonzero"/><path fill="#87ceeb" d="M 33.628906 177.316406 C 27.054688 173.996094 24 166.691406 26.855469 160.984375 C 29.710938 155.273438 37.414062 153.347656 43.984375 156.667969 C 50.558594 159.988281 59.65625 171.671875 56.800781 177.382812 C 53.945312 183.09375 40.203125 180.636719 33.628906 177.316406 Z M 33.628906 177.316406 " fill-opacity="1" fill-rule="nonzero"/><path fill="#87ceeb" d="M 154.667969 61.855469 C 156.59375 66.835938 156.128906 77.523438 151.148438 79.449219 C 146.167969 81.375 138.597656 73.804688 136.671875 68.828125 C 134.75 63.847656 137.203125 58.269531 142.183594 56.34375 C 147.164062 54.417969 152.742188 56.875 154.667969 61.855469 Z M 154.667969 61.855469 " fill-opacity="1" fill-rule="nonzero"/><path fill="#f7b5a4" d="M 185.808594 229.613281 C 184.566406 235.738281 184.167969 242 184.441406 248.25 C 184.59375 251.675781 184.671875 255.097656 184.671875 258.414062 C 184.671875 261.023438 184.621094 263.730469 184.527344 266.492188 L 184.527344 266.5 C 184.5 267.300781 184.472656 268.105469 184.433594 268.914062 C 184.40625 269.609375 184.371094 270.316406 184.328125 271.023438 C 184.160156 274.390625 183.925781 277.804688 183.628906 281.160156 L 179.691406 326.773438 L 164.894531 326.773438 L 161.785156 279.695312 C 161.542969 276.945312 161.324219 274.167969 161.175781 271.410156 C 161.136719 270.804688 161.101562 270.199219 161.074219 269.597656 C 161.03125 268.804688 160.996094 268.011719 160.964844 267.21875 L 160.964844 267.214844 C 160.84375 264.203125 160.777344 261.246094 160.777344 258.414062 C 160.777344 254.953125 160.871094 251.382812 161.050781 247.804688 C 161.390625 241.128906 160.929688 234.441406 159.582031 227.890625 C 157.402344 217.25 156.183594 204.953125 156.183594 194.371094 C 156.183594 188.460938 156.566406 182.238281 157.285156 176.183594 L 188.273438 176.183594 C 188.925781 182.238281 189.265625 188.460938 189.265625 194.371094 C 189.265625 205.53125 188.054688 218.589844 185.808594 229.613281 Z M 225.824219 194.371094 C 225.824219 188.460938 225.441406 182.238281 224.730469 176.183594 L 193.738281 176.183594 C 193.082031 182.238281 192.742188 188.460938 192.742188 194.371094 C 192.742188 205.53125 193.953125 218.589844 196.199219 229.613281 C 197.445312 235.738281 197.839844 242 197.566406 248.25 C 197.414062 251.675781 197.335938 255.097656 197.335938 258.414062 C 197.335938 261.023438 197.386719 263.730469 197.480469 266.492188 L 197.480469 266.5 C 197.507812 267.300781 197.539062 268.105469 197.574219 268.914062 C 197.601562 269.609375 197.636719 270.316406 197.683594 271.023438 C 197.847656 274.390625 198.085938 277.804688 198.378906 281.160156 L 201.351562 315.585938 L 202.316406 326.773438 L 217.113281 326.773438 L 217.730469 317.457031 L 220.222656 279.695312 C 220.46875 276.945312 220.683594 274.167969 220.835938 271.410156 C 220.871094 270.804688 220.90625 270.199219 220.9375 269.597656 C 220.980469 268.804688 221.015625 268.011719 221.042969 267.21875 L 221.042969 267.214844 C 221.164062 264.203125 221.230469 261.246094 221.230469 258.414062 C 221.230469 254.953125 221.136719 251.382812 220.957031 247.804688 C 220.617188 241.128906 221.078125 234.441406 222.425781 227.890625 C 224.605469 217.25 225.824219 204.953125 225.824219 194.371094 Z M 225.824219 194.371094 " fill-opacity="1" fill-rule="nonzero"/><path fill="#ede6dd" d="M 184.328125 271.023438 C 184.160156 274.390625 183.925781 277.804688 183.628906 281.160156 L 179.691406 326.773438 L 164.894531 326.773438 L 161.785156 279.695312 C 161.542969 276.945312 161.324219 274.167969 161.175781 271.410156 C 167.0625 272.714844 175.378906 273.492188 184.328125 271.023438 Z M 197.683594 271.023438 C 197.847656 274.390625 198.085938 277.804688 198.378906 281.160156 L 202.316406 326.773438 L 217.113281 326.773438 L 220.222656 279.695312 C 220.46875 276.945312 220.683594 274.167969 220.835938 271.410156 C 214.945312 272.714844 206.628906 273.492188 197.683594 271.023438 Z M 197.683594 271.023438 " fill-opacity="1" fill-rule="nonzero"/><g clip-path="url(#2dda1a3966)"><path fill="#000000" d="M 183.246094 326.578125 C 184.335938 333.195312 183.664062 334.433594 181.980469 343.621094 C 180.230469 353.136719 170.863281 355.886719 162.945312 355.132812 C 155.550781 354.425781 149.613281 351.496094 149.988281 344.800781 C 150.433594 336.789062 158.640625 324.699219 161.5625 320.632812 C 162.339844 319.546875 163.472656 318.769531 164.773438 318.445312 C 171.230469 316.859375 177.09375 321.777344 177.09375 321.777344 C 177.183594 319.6875 179.992188 316.613281 179.992188 316.613281 C 182.972656 314.613281 182.160156 319.960938 183.246094 326.578125 Z M 198.753906 326.578125 C 197.667969 333.195312 198.335938 334.433594 200.023438 343.621094 C 201.765625 353.128906 211.136719 355.886719 219.054688 355.132812 C 226.449219 354.425781 232.390625 351.496094 232.015625 344.800781 C 231.570312 336.789062 223.363281 324.699219 220.4375 320.632812 C 219.660156 319.546875 218.53125 318.769531 217.226562 318.445312 C 210.769531 316.859375 204.910156 321.777344 204.910156 321.777344 C 204.816406 319.6875 202.007812 316.613281 202.007812 316.613281 C 199.027344 314.613281 199.839844 319.960938 198.753906 326.578125 Z M 172.550781 272.929688 C 169.28125 272.929688 165.421875 272.628906 161.101562 271.761719 C 160.90625 271.726562 160.777344 271.53125 160.820312 271.339844 C 160.855469 271.144531 161.050781 271.015625 161.246094 271.058594 C 175.175781 273.851562 184.117188 270.710938 184.203125 270.683594 C 184.390625 270.617188 184.601562 270.710938 184.664062 270.898438 C 184.730469 271.085938 184.636719 271.296875 184.449219 271.359375 C 184.382812 271.382812 179.964844 272.929688 172.550781 272.929688 Z M 220.921875 271.757812 C 221.117188 271.707031 221.230469 271.511719 221.179688 271.316406 C 221.128906 271.121094 220.9375 271.007812 220.742188 271.058594 C 210.136719 273.84375 197.890625 270.699219 197.769531 270.667969 C 197.574219 270.617188 197.378906 270.734375 197.328125 270.929688 C 197.277344 271.121094 197.394531 271.316406 197.589844 271.367188 C 197.675781 271.390625 203.664062 272.929688 210.921875 272.929688 C 214.140625 272.929688 217.609375 272.628906 220.921875 271.757812 Z M 220.921875 271.757812 " fill-opacity="1" fill-rule="nonzero"/></g><path fill="#ede6dd" d="M 161.261719 343.160156 C 158.105469 343.160156 154.542969 342.503906 150.578125 341.195312 C 150.390625 341.128906 150.289062 340.925781 150.347656 340.738281 C 150.410156 340.550781 150.613281 340.445312 150.800781 340.507812 C 159.359375 343.339844 165.984375 343.058594 170.476562 339.660156 C 177.191406 334.589844 176.839844 324.195312 176.839844 324.085938 C 176.832031 323.886719 176.984375 323.722656 177.183594 323.714844 C 177.378906 323.714844 177.550781 323.859375 177.558594 324.058594 C 177.582031 324.5 177.925781 334.945312 170.90625 340.230469 C 168.335938 342.1875 165.105469 343.160156 161.261719 343.160156 Z M 230.8125 339.148438 C 230.992188 339.0625 231.070312 338.855469 230.984375 338.671875 C 230.898438 338.492188 230.683594 338.414062 230.511719 338.5 C 222.699219 342.121094 216.574219 342.539062 212.296875 339.746094 C 205.527344 335.324219 205.6875 324.203125 205.6875 324.09375 C 205.695312 323.894531 205.535156 323.734375 205.335938 323.726562 C 205.335938 323.726562 205.328125 323.726562 205.328125 323.726562 C 205.132812 323.726562 204.976562 323.886719 204.96875 324.082031 C 204.960938 324.554688 204.800781 335.707031 211.902344 340.351562 C 213.878906 341.648438 216.21875 342.296875 218.914062 342.296875 C 222.324219 342.289062 226.300781 341.242188 230.8125 339.148438 Z M 230.8125 339.148438 " fill-opacity="1" fill-rule="nonzero"/><path fill="#87ceeb" d="M 233.929688 225.113281 C 234.015625 225.996094 233.5625 226.855469 232.785156 227.285156 C 230.648438 228.464844 226.046875 230.707031 220.617188 231.496094 C 220.617188 231.496094 211.101562 235.355469 202.160156 233.519531 C 202.160156 233.519531 197.363281 235.175781 190.75 235.175781 C 184.132812 235.175781 179.339844 233.519531 179.339844 233.519531 C 170.398438 235.355469 160.878906 231.496094 160.878906 231.496094 C 155.351562 230.683594 150.675781 228.378906 148.597656 227.222656 C 147.890625 226.824219 147.480469 226.054688 147.554688 225.25 C 149.75 202.355469 160 161.46875 160 161.46875 L 190.742188 162.242188 L 221.484375 161.46875 C 221.496094 161.460938 231.707031 202.1875 233.929688 225.113281 Z M 233.929688 225.113281 " fill-opacity="1" fill-rule="nonzero"/><path fill="#ede6dd" d="M 256.988281 82.421875 C 254.050781 78.175781 251.144531 75.914062 247.804688 73.003906 C 248.566406 74.199219 234.414062 80.570312 234.414062 80.570312 C 234.414062 80.570312 233.375 86.511719 235.097656 94.882812 C 219.25 91.601562 204.117188 92.097656 196.125 92.746094 C 195.945312 91.210938 192.960938 92.601562 191.871094 93.164062 C 191.460938 93.214844 191.125 93.257812 190.863281 93.292969 C 190.605469 93.257812 190.265625 93.214844 189.855469 93.164062 C 188.761719 92.601562 185.78125 91.210938 185.601562 92.746094 C 177.320312 92.074219 161.375 91.566406 144.910156 95.257812 C 146.6875 86.71875 147.324219 79.570312 147.324219 79.570312 L 132.738281 71.472656 C 118.914062 83.507812 103.925781 111.707031 123.054688 122.378906 C 131.476562 127.078125 146.960938 132.261719 158.890625 128.546875 L 155.164062 160.820312 C 154.96875 162.484375 155.910156 164.082031 157.472656 164.6875 C 172.671875 170.589844 189.375 170.261719 190.855469 170.21875 C 192.339844 170.261719 209.042969 170.589844 224.238281 164.6875 C 225.800781 164.082031 226.746094 162.484375 226.550781 160.820312 L 222.820312 128.546875 C 234.808594 132.277344 253.339844 124.6875 257.019531 122.378906 C 271.101562 113.542969 266.203125 95.753906 256.988281 82.421875 Z M 190.980469 111.105469 L 182.40625 111.105469 C 186.0625 107.128906 188.8125 103.960938 190.855469 101.425781 C 192.902344 103.960938 195.660156 107.128906 199.308594 111.105469 Z M 190.980469 111.105469 " fill-opacity="1" fill-rule="nonzero"/><path fill="#b0e0e6" d="M 202.125 156.992188 C 202.136719 158.402344 200.375 159.066406 199.46875 157.984375 C 197.285156 155.40625 194.167969 151.382812 191.722656 146.839844 C 189.257812 151.425781 186.113281 155.5 183.910156 158.101562 C 182.996094 159.179688 181.238281 158.519531 181.253906 157.105469 C 181.441406 138.613281 184.773438 131.007812 187.753906 127.914062 C 186.992188 126.753906 186.421875 125.25 186.0625 124.097656 C 178.136719 120.203125 171.9375 108.511719 171.9375 108.511719 L 210.078125 107.136719 C 210.078125 107.136719 203.875 119.023438 196.371094 123.585938 C 195.953125 125.078125 195.472656 126.25 194.953125 127.164062 C 198.070312 129.785156 201.921875 137.0625 202.125 156.992188 Z M 202.125 156.992188 " fill-opacity="1" fill-rule="nonzero"/><path fill="#87ceeb" d="M 221.597656 92.867188 C 222.578125 93.59375 222.894531 94.925781 222.339844 96.015625 C 212.167969 115.863281 196.507812 117.257812 191.484375 117.15625 C 190.785156 117.144531 190.09375 117.144531 189.394531 117.15625 C 184.371094 117.257812 168.703125 115.855469 158.539062 96.015625 C 157.984375 94.925781 158.292969 93.59375 159.273438 92.867188 C 162.929688 90.144531 172.851562 84.183594 189.871094 83.925781 L 189.871094 83.910156 C 190.066406 83.910156 190.246094 83.917969 190.4375 83.917969 C 190.632812 83.917969 190.8125 83.910156 191.007812 83.910156 L 191.007812 83.925781 C 208.019531 84.183594 217.941406 90.144531 221.597656 92.867188 Z M 221.597656 92.867188 " fill-opacity="1" fill-rule="nonzero"/><path fill="#ede6dd" d="M 218.914062 91.382812 C 211.589844 109.390625 195.722656 112.175781 193.269531 112.492188 L 194.054688 110.917969 C 198.113281 110.152344 211.210938 106.523438 217.582031 90.835938 C 217.726562 90.46875 218.148438 90.289062 218.515625 90.441406 C 218.882812 90.59375 219.0625 91.011719 218.914062 91.382812 Z M 187.546875 110.929688 C 183.570312 110.195312 170.359375 106.617188 163.945312 90.835938 C 163.792969 90.46875 163.378906 90.289062 163.011719 90.441406 C 162.644531 90.59375 162.460938 91.011719 162.613281 91.382812 C 170.152344 109.953125 186.796875 112.335938 188.445312 112.523438 Z M 187.546875 110.929688 " fill-opacity="1" fill-rule="nonzero"/><path fill="#000000" d="M 231.71875 115.855469 C 225.296875 120.550781 220.683594 120.484375 220.683594 120.484375 C 219.035156 113.039062 218.609375 108.84375 218.667969 106.472656 C 217.257812 105.777344 215.976562 104.371094 215.25 102.515625 C 214.464844 100.5 214.507812 98.433594 215.226562 96.929688 C 213.679688 96.300781 212.238281 94.820312 211.445312 92.808594 C 210.667969 90.824219 210.707031 88.785156 211.398438 87.28125 C 209.855469 86.648438 208.4375 85.171875 207.652344 83.175781 C 206.832031 81.074219 206.917969 78.921875 207.730469 77.394531 C 206.113281 76.820312 204.59375 75.300781 203.78125 73.214844 C 202.503906 69.953125 203.417969 66.546875 205.824219 65.605469 C 208.230469 64.660156 211.214844 66.546875 212.492188 69.808594 C 213.3125 71.910156 213.226562 74.0625 212.410156 75.589844 C 214.03125 76.164062 215.550781 77.683594 216.363281 79.773438 C 217.140625 81.757812 217.105469 83.796875 216.414062 85.300781 C 217.957031 85.933594 219.375 87.410156 220.15625 89.40625 C 220.941406 91.421875 220.898438 93.488281 220.179688 94.992188 C 221.726562 95.617188 223.167969 97.101562 223.960938 99.109375 C 224.707031 101.015625 224.699219 102.96875 224.089844 104.457031 C 227.960938 108.316406 231.71875 115.855469 231.71875 115.855469 Z M 148.964844 117.75 C 155.386719 122.441406 160 122.378906 160 122.378906 C 161.648438 114.933594 162.074219 110.738281 162.015625 108.367188 C 163.425781 107.667969 164.710938 106.265625 165.4375 104.40625 C 166.222656 102.390625 166.175781 100.328125 165.457031 98.820312 C 167.003906 98.195312 168.445312 96.710938 169.238281 94.703125 C 170.015625 92.714844 169.980469 90.679688 169.289062 89.175781 C 170.828125 88.539062 172.246094 87.066406 173.03125 85.070312 C 173.851562 82.96875 173.765625 80.816406 172.953125 79.289062 C 174.570312 78.714844 176.089844 77.195312 176.90625 75.105469 C 178.179688 71.847656 177.265625 68.441406 174.859375 67.496094 C 172.457031 66.554688 169.46875 68.441406 168.195312 71.703125 C 167.371094 73.804688 167.460938 75.957031 168.273438 77.484375 C 166.652344 78.058594 165.132812 79.578125 164.320312 81.664062 C 163.542969 83.652344 163.578125 85.691406 164.269531 87.195312 C 162.730469 87.828125 161.3125 89.304688 160.527344 91.296875 C 159.742188 93.3125 159.785156 95.378906 160.503906 96.886719 C 158.957031 97.511719 157.515625 98.996094 156.726562 101.003906 C 155.976562 102.910156 155.984375 104.863281 156.59375 106.351562 C 152.722656 110.210938 148.964844 117.75 148.964844 117.75 Z M 148.964844 117.75 " fill-opacity="1" fill-rule="nonzero"/><path fill="#f7b5a4" d="M 200.078125 78.84375 C 201.238281 84.582031 203.234375 87.109375 204.328125 88.09375 C 204.75 88.484375 204.882812 89.09375 204.621094 89.605469 L 198.402344 102.132812 L 194.046875 110.917969 L 193.261719 112.492188 L 192.058594 114.917969 C 191.65625 115.734375 191.125 117.683594 190.1875 115.828125 C 189.742188 114.949219 189.308594 114.0625 188.820312 113.199219 L 188.4375 112.523438 L 187.539062 110.929688 L 182.535156 102.070312 L 175.902344 90.320312 C 175.574219 89.722656 175.773438 88.988281 176.351562 88.621094 C 178.972656 86.957031 180.230469 82.398438 180.835938 78.535156 C 173.507812 74.414062 168.46875 65.882812 168.46875 56.007812 C 168.46875 42.097656 178.445312 30.824219 190.75 30.824219 C 203.050781 30.824219 213.03125 42.097656 213.03125 56.007812 C 213.03125 66.144531 207.726562 74.863281 200.078125 78.84375 Z M 200.078125 78.84375 " fill-opacity="1" fill-rule="nonzero"/><path fill="#000000" d="M 210.28125 57.742188 L 210.527344 48.867188 C 203.234375 47.777344 198.882812 36.605469 198.882812 36.605469 C 199.375 38.996094 199.683594 43.34375 199.683594 43.34375 C 197.042969 44.421875 192.136719 44.316406 191.007812 44.273438 C 189.878906 44.316406 184.976562 44.421875 182.332031 43.34375 C 182.332031 43.34375 182.640625 38.996094 183.132812 36.605469 C 183.132812 36.605469 178.796875 48.320312 171.511719 49.40625 L 171.742188 57.734375 C 171.742188 57.734375 160.828125 56.546875 163.472656 43.15625 C 165.933594 30.585938 183.5625 19.210938 191 25.171875 C 197.960938 19.089844 216.070312 30.585938 218.546875 43.164062 C 221.1875 56.554688 210.28125 57.742188 210.28125 57.742188 Z M 210.28125 57.742188 " fill-opacity="1" fill-rule="nonzero"/><path fill="#f7b5a4" d="M 174.472656 59.195312 C 175.449219 61.996094 174.78125 64.925781 172.988281 66.691406 C 172.398438 67.273438 171.691406 67.726562 170.878906 68.015625 C 170.066406 68.304688 169.230469 68.390625 168.402344 68.304688 C 165.898438 68.042969 163.542969 66.179688 162.5625 63.378906 C 161.261719 59.664062 162.867188 55.710938 166.15625 54.558594 C 169.445312 53.402344 173.167969 55.480469 174.472656 59.195312 Z M 206.996094 59.195312 C 206.019531 61.996094 206.6875 64.925781 208.480469 66.691406 C 209.070312 67.273438 209.777344 67.726562 210.589844 68.015625 C 211.402344 68.304688 212.238281 68.390625 213.066406 68.304688 C 215.570312 68.042969 217.925781 66.179688 218.90625 63.378906 C 220.207031 59.664062 218.601562 55.710938 215.3125 54.558594 C 212.023438 53.402344 208.300781 55.480469 206.996094 59.195312 Z M 206.996094 59.195312 " fill-opacity="1" fill-rule="nonzero"/><path fill="#ede6dd" d="M 198.410156 102.132812 L 194.054688 110.917969 L 193.269531 112.492188 L 192.066406 114.917969 C 191.664062 115.734375 191.128906 117.683594 190.195312 115.828125 C 189.75 114.949219 189.316406 114.0625 188.828125 113.199219 L 188.445312 112.523438 L 187.546875 110.929688 L 182.542969 102.070312 C 189.214844 100.542969 195.046875 101.347656 198.410156 102.132812 Z M 198.410156 102.132812 " fill-opacity="1" fill-rule="nonzero"/><path fill="#000000" d="M 203.324219 56 C 203.324219 57.691406 201.957031 59.058594 200.265625 59.058594 C 198.574219 59.058594 197.207031 57.691406 197.207031 56 C 197.207031 54.308594 198.574219 52.941406 200.265625 52.941406 C 201.957031 52.941406 203.324219 54.308594 203.324219 56 Z M 181.707031 53.277344 C 180.015625 53.277344 178.648438 54.648438 178.648438 56.339844 C 178.648438 58.03125 180.015625 59.398438 181.707031 59.398438 C 183.398438 59.398438 184.765625 58.03125 184.765625 56.339844 C 184.757812 54.648438 183.390625 53.277344 181.707031 53.277344 Z M 205.789062 50.328125 C 206.070312 50.046875 206.078125 49.59375 205.796875 49.3125 C 202.398438 45.847656 197.042969 46.160156 196.8125 46.171875 C 196.414062 46.203125 196.113281 46.539062 196.140625 46.9375 C 196.171875 47.332031 196.507812 47.632812 196.90625 47.605469 C 196.953125 47.597656 201.835938 47.332031 204.765625 50.3125 C 204.910156 50.457031 205.089844 50.527344 205.277344 50.527344 C 205.464844 50.535156 205.644531 50.464844 205.789062 50.328125 Z M 177.410156 50.320312 C 180.339844 47.332031 185.21875 47.605469 185.269531 47.613281 C 185.667969 47.640625 186.011719 47.339844 186.035156 46.941406 C 186.0625 46.546875 185.761719 46.203125 185.363281 46.179688 C 185.140625 46.164062 179.785156 45.855469 176.378906 49.320312 C 176.097656 49.601562 176.105469 50.0625 176.386719 50.335938 C 176.523438 50.472656 176.710938 50.542969 176.890625 50.542969 C 177.085938 50.535156 177.273438 50.464844 177.410156 50.320312 Z M 199.324219 79.246094 C 196.6875 80.5 193.792969 81.183594 190.75 81.183594 C 187.703125 81.183594 184.808594 80.5 182.175781 79.246094 C 181.863281 79.101562 181.554688 78.945312 181.253906 78.777344 C 182.023438 82.953125 186.140625 85.445312 190.75 85.445312 C 195.234375 85.445312 198.703125 83.113281 199.605469 79.101562 C 199.511719 79.160156 199.417969 79.203125 199.324219 79.246094 Z M 189.171875 63.132812 C 189.367188 63.121094 189.519531 62.941406 189.496094 62.746094 C 189.410156 61.78125 189.597656 61.0625 190.066406 60.601562 C 190.757812 59.917969 191.851562 60.011719 191.863281 60.011719 C 192.058594 60.023438 192.238281 59.886719 192.253906 59.6875 C 192.269531 59.484375 192.132812 59.3125 191.929688 59.289062 C 191.871094 59.28125 190.488281 59.160156 189.5625 60.082031 C 188.933594 60.703125 188.675781 61.617188 188.785156 62.804688 C 188.796875 62.992188 188.957031 63.132812 189.144531 63.132812 C 189.152344 63.132812 189.15625 63.132812 189.171875 63.132812 Z M 169.246094 60.363281 C 169.4375 60.304688 169.546875 60.109375 169.488281 59.917969 C 169 58.238281 168.214844 57.253906 167.140625 56.964844 C 165.328125 56.480469 163.457031 58.269531 163.378906 58.347656 C 163.234375 58.484375 163.234375 58.714844 163.371094 58.859375 C 163.507812 59.003906 163.738281 59.003906 163.882812 58.867188 C 163.894531 58.851562 165.542969 57.28125 166.960938 57.664062 C 167.769531 57.878906 168.386719 58.707031 168.796875 60.117188 C 168.839844 60.277344 168.984375 60.378906 169.144531 60.378906 C 169.179688 60.378906 169.207031 60.371094 169.246094 60.363281 Z M 212.691406 60.117188 C 213.101562 58.707031 213.722656 57.878906 214.527344 57.664062 C 215.945312 57.28125 217.589844 58.851562 217.609375 58.867188 C 217.753906 59.003906 217.976562 59.003906 218.121094 58.859375 C 218.257812 58.714844 218.257812 58.492188 218.113281 58.347656 C 218.035156 58.269531 216.164062 56.480469 214.347656 56.964844 C 213.277344 57.246094 212.492188 58.238281 212 59.917969 C 211.945312 60.109375 212.058594 60.304688 212.246094 60.363281 C 212.28125 60.371094 212.3125 60.378906 212.347656 60.378906 C 212.503906 60.378906 212.648438 60.269531 212.691406 60.117188 Z M 198.753906 102.207031 C 198.796875 102.011719 198.667969 101.816406 198.480469 101.78125 C 189.691406 99.910156 182.519531 101.703125 182.449219 101.714844 C 182.253906 101.765625 182.136719 101.960938 182.1875 102.15625 C 182.238281 102.347656 182.433594 102.464844 182.628906 102.414062 C 182.699219 102.390625 189.71875 100.644531 198.328125 102.480469 C 198.359375 102.484375 198.378906 102.484375 198.410156 102.484375 C 198.574219 102.492188 198.71875 102.371094 198.753906 102.207031 Z M 198.753906 102.207031 " fill-opacity="1" fill-rule="nonzero"/><path fill="#87ceeb" d="M 245.59375 87.65625 C 240.613281 89.484375 235.089844 86.933594 233.261719 81.953125 L 232.820312 80.765625 L 232.074219 78.714844 L 231.417969 76.9375 C 229.582031 71.953125 232.136719 66.4375 237.113281 64.601562 C 238.207031 64.199219 239.324219 64.011719 240.425781 64.011719 C 244.339844 64.011719 248.011719 66.417969 249.445312 70.304688 L 249.738281 71.105469 L 250.710938 73.753906 L 251.289062 75.324219 C 253.125 80.304688 250.566406 85.820312 245.59375 87.65625 Z M 135.402344 87.683594 C 140.382812 89.511719 145.90625 86.964844 147.734375 81.980469 L 148.171875 80.792969 L 148.921875 78.742188 L 149.574219 76.964844 C 151.410156 71.984375 148.855469 66.46875 143.882812 64.632812 C 142.789062 64.230469 141.671875 64.042969 140.570312 64.042969 C 136.652344 64.042969 132.980469 66.445312 131.550781 70.332031 L 131.253906 71.132812 L 130.28125 73.78125 L 129.707031 75.351562 C 127.871094 80.332031 130.425781 85.847656 135.402344 87.683594 Z M 135.402344 87.683594 " fill-opacity="1" fill-rule="nonzero"/><path fill="#f7b5a4" d="M 231.222656 59.476562 C 230.992188 58.007812 230.589844 56.570312 230.058594 55.1875 C 228.550781 51.277344 225.347656 42.121094 226.441406 37.476562 C 227.855469 31.472656 231.894531 50.328125 234.773438 50.671875 C 234.773438 50.671875 236.304688 37.722656 238.820312 34.839844 C 241.332031 31.960938 241.144531 40.234375 240.164062 51.386719 C 240.164062 51.386719 248.128906 53.957031 247.824219 58.613281 C 247.585938 62.257812 246.441406 67.289062 245.960938 69.304688 C 245.800781 69.972656 245.492188 70.609375 245.054688 71.132812 C 243.816406 72.617188 240.878906 75.316406 235.945312 75.214844 C 234.40625 75.1875 232.914062 74.597656 231.777344 73.550781 C 228.539062 70.585938 221.265625 63.472656 221.171875 59.289062 C 221.050781 53.898438 226.378906 59.902344 229.199219 61.003906 C 231.308594 61.824219 231.527344 61.414062 231.222656 59.476562 Z M 149.769531 59.507812 C 150 58.039062 150.402344 56.597656 150.9375 55.214844 C 152.441406 51.304688 155.644531 42.148438 154.550781 37.503906 C 153.140625 31.5 149.101562 50.355469 146.222656 50.703125 C 146.222656 50.703125 144.6875 37.75 142.175781 34.871094 C 139.664062 31.992188 139.851562 40.261719 140.828125 51.414062 C 140.828125 51.414062 132.867188 53.984375 133.167969 58.640625 C 133.40625 62.285156 134.550781 67.316406 135.035156 69.332031 C 135.191406 70.003906 135.5 70.636719 135.941406 71.160156 C 137.179688 72.644531 140.117188 75.34375 145.046875 75.242188 C 146.589844 75.214844 148.078125 74.625 149.214844 73.582031 C 152.457031 70.613281 159.726562 63.5 159.820312 59.320312 C 159.941406 53.925781 154.617188 59.929688 151.792969 61.03125 C 149.675781 61.859375 149.460938 61.449219 149.769531 59.507812 Z M 149.769531 59.507812 " fill-opacity="1" fill-rule="nonzero"/><path fill="#ede6dd" d="M 250.710938 73.753906 C 249.890625 76.84375 248.171875 79.859375 244.738281 81.414062 C 243 82.199219 241.289062 82.523438 239.652344 82.523438 C 237.132812 82.523438 234.800781 81.757812 232.820312 80.765625 L 232.074219 78.714844 C 235.175781 80.605469 239.582031 82.167969 244.140625 80.101562 C 247.859375 78.417969 249.273438 74.574219 249.738281 71.105469 Z M 130.28125 73.78125 C 131.101562 76.871094 132.824219 79.886719 136.257812 81.441406 C 137.992188 82.226562 139.707031 82.550781 141.339844 82.550781 C 143.859375 82.550781 146.191406 81.789062 148.171875 80.792969 L 148.921875 78.742188 C 145.816406 80.636719 141.410156 82.199219 136.855469 80.132812 C 133.132812 78.449219 131.722656 74.601562 131.253906 71.132812 Z M 130.28125 73.78125 " fill-opacity="1" fill-rule="nonzero"/><path fill="#000000" d="M 249.386719 109.929688 C 249.367188 110.117188 249.214844 110.253906 249.027344 110.253906 C 249.011719 110.253906 249 110.253906 248.992188 110.253906 C 237.550781 109.042969 234.773438 95.097656 234.742188 94.957031 C 234.707031 94.761719 234.835938 94.574219 235.03125 94.539062 C 235.226562 94.5 235.414062 94.632812 235.449219 94.824219 C 235.476562 94.960938 238.15625 108.390625 249.0625 109.542969 C 249.265625 109.554688 249.410156 109.726562 249.386719 109.929688 Z M 145.003906 94.90625 C 144.816406 94.855469 144.617188 94.960938 144.566406 95.15625 C 144.523438 95.324219 139.988281 111.390625 127.828125 110.742188 C 127.625 110.738281 127.460938 110.886719 127.445312 111.082031 C 127.4375 111.285156 127.589844 111.449219 127.785156 111.464844 C 128.035156 111.476562 128.289062 111.484375 128.53125 111.484375 C 140.699219 111.484375 145.207031 95.515625 145.257812 95.351562 C 145.308594 95.15625 145.191406 94.960938 145.003906 94.90625 Z M 159.476562 124.609375 C 159.273438 124.574219 159.09375 124.71875 159.066406 124.910156 L 158.539062 128.496094 C 158.511719 128.691406 158.648438 128.878906 158.839844 128.90625 C 158.855469 128.90625 158.878906 128.914062 158.890625 128.914062 C 159.066406 128.914062 159.222656 128.785156 159.246094 128.605469 L 159.769531 125.019531 C 159.804688 124.816406 159.667969 124.632812 159.476562 124.609375 Z M 222.585938 124.601562 C 222.382812 124.617188 222.238281 124.78125 222.246094 124.984375 L 222.46875 128.570312 C 222.484375 128.761719 222.640625 128.90625 222.828125 128.90625 C 222.835938 128.90625 222.84375 128.90625 222.851562 128.90625 C 223.050781 128.894531 223.195312 128.726562 223.1875 128.527344 L 222.964844 124.941406 C 222.957031 124.738281 222.777344 124.585938 222.585938 124.601562 Z M 194.78125 126.839844 C 194.757812 126.855469 192.460938 128.042969 187.789062 127.554688 C 187.6875 127.546875 187.59375 127.574219 187.523438 127.640625 C 187.453125 127.707031 187.402344 127.792969 187.394531 127.890625 C 187.367188 128.367188 186.6875 139.699219 191.417969 147.042969 C 191.492188 147.152344 191.605469 147.207031 191.722656 147.207031 C 191.785156 147.207031 191.859375 147.1875 191.914062 147.152344 C 192.082031 147.042969 192.132812 146.820312 192.023438 146.652344 C 187.890625 140.238281 188.019531 130.339844 188.09375 128.308594 C 189.511719 128.433594 190.699219 128.410156 191.683594 128.308594 L 192.398438 130.996094 C 192.441406 131.152344 192.585938 131.261719 192.742188 131.261719 C 192.773438 131.261719 192.800781 131.253906 192.835938 131.246094 C 193.03125 131.195312 193.144531 131.003906 193.097656 130.808594 L 192.410156 128.214844 C 194.167969 127.964844 195.0625 127.503906 195.117188 127.46875 C 195.292969 127.375 195.363281 127.15625 195.269531 126.976562 C 195.167969 126.8125 194.953125 126.746094 194.78125 126.839844 Z M 191.828125 121.945312 C 192.125 119.765625 191.125 117.136719 191.082031 117.019531 C 191.007812 116.835938 190.800781 116.742188 190.613281 116.8125 C 190.425781 116.882812 190.332031 117.09375 190.402344 117.28125 C 190.410156 117.308594 191.410156 119.929688 191.09375 121.945312 C 187.710938 122.03125 185.875 123.773438 185.796875 123.855469 C 185.652344 123.992188 185.652344 124.21875 185.789062 124.363281 C 185.859375 124.4375 185.953125 124.472656 186.046875 124.472656 C 186.140625 124.472656 186.226562 124.4375 186.300781 124.371094 C 186.3125 124.359375 188.105469 122.664062 191.339844 122.664062 C 194.566406 122.664062 196.097656 123.855469 196.125 123.875 C 196.277344 123.996094 196.507812 123.976562 196.628906 123.824219 C 196.753906 123.671875 196.730469 123.441406 196.582031 123.320312 C 196.53125 123.257812 195.019531 122.0625 191.828125 121.945312 Z M 235.039062 58.65625 C 235.542969 64.597656 238.179688 64.726562 238.402344 64.726562 C 238.410156 64.726562 238.410156 64.726562 238.410156 64.726562 C 238.601562 64.71875 238.761719 64.558594 238.753906 64.367188 C 238.753906 64.171875 238.589844 64.011719 238.394531 64.003906 C 238.371094 64.003906 236.207031 63.917969 235.75 58.597656 C 235.292969 53.179688 240.058594 51.78125 240.257812 51.730469 C 240.453125 51.679688 240.5625 51.480469 240.511719 51.285156 C 240.460938 51.089844 240.257812 50.980469 240.070312 51.03125 C 240.015625 51.046875 234.527344 52.628906 235.039062 58.65625 Z M 240.214844 64.300781 C 240.496094 64.589844 240.855469 64.734375 241.265625 64.734375 C 241.316406 64.734375 241.367188 64.734375 241.417969 64.726562 C 243.132812 64.589844 244.238281 60.390625 244.449219 59.550781 C 244.5 59.355469 244.375 59.160156 244.183594 59.117188 C 243.996094 59.074219 243.792969 59.1875 243.75 59.382812 C 243.289062 61.261719 242.246094 63.941406 241.359375 64.011719 C 241.09375 64.035156 240.890625 63.96875 240.726562 63.796875 C 239.871094 62.941406 240.144531 59.722656 240.230469 58.664062 C 240.511719 55.300781 244.738281 53.984375 244.773438 53.96875 C 244.960938 53.914062 245.066406 53.710938 245.011719 53.523438 C 244.953125 53.335938 244.75 53.226562 244.5625 53.285156 C 244.371094 53.34375 239.832031 54.753906 239.511719 58.605469 C 239.242188 61.789062 239.460938 63.542969 240.214844 64.300781 Z M 231.058594 61.125 C 230.90625 60.996094 230.683594 61.011719 230.546875 61.160156 C 230.410156 61.3125 230.429688 61.535156 230.582031 61.671875 L 233.570312 64.285156 C 233.636719 64.34375 233.722656 64.371094 233.808594 64.371094 C 233.910156 64.371094 234.007812 64.328125 234.082031 64.25 C 234.210938 64.097656 234.195312 63.875 234.046875 63.738281 Z M 235.132812 50.707031 C 235.152344 50.515625 235.015625 50.335938 234.816406 50.304688 C 234.621094 50.285156 234.441406 50.421875 234.414062 50.621094 L 234.140625 52.898438 C 234.117188 53.089844 234.253906 53.273438 234.457031 53.300781 C 234.46875 53.300781 234.484375 53.300781 234.5 53.300781 C 234.679688 53.300781 234.832031 53.164062 234.859375 52.984375 Z M 138.496094 65.488281 C 138.511719 65.488281 138.523438 65.488281 138.539062 65.488281 C 138.804688 65.488281 139.1875 65.394531 139.582031 64.96875 C 139.785156 64.761719 139.957031 64.480469 140.125 64.171875 C 141.074219 64.105469 144.609375 63.480469 144.953125 57.765625 C 145.199219 53.769531 141.1875 51.210938 141.015625 51.105469 C 140.851562 50.996094 140.628906 51.046875 140.519531 51.21875 C 140.410156 51.390625 140.460938 51.609375 140.632812 51.714844 C 140.671875 51.738281 144.449219 54.15625 144.234375 57.71875 C 143.953125 62.320312 141.550781 63.234375 140.453125 63.414062 C 140.878906 62.21875 141.082031 60.664062 140.9375 59.167969 C 140.648438 56.015625 137.648438 54.511719 137.515625 54.445312 C 137.335938 54.359375 137.121094 54.429688 137.035156 54.609375 C 136.949219 54.789062 137.019531 55.007812 137.199219 55.09375 C 137.230469 55.105469 139.964844 56.480469 140.21875 59.234375 C 140.425781 61.523438 139.792969 63.695312 139.058594 64.472656 C 138.929688 64.609375 138.699219 64.753906 138.523438 64.761719 C 137.820312 64.734375 137.0625 64.140625 136.804688 59.917969 C 136.789062 59.714844 136.632812 59.570312 136.421875 59.578125 C 136.222656 59.59375 136.078125 59.757812 136.085938 59.960938 C 136.285156 63.242188 136.777344 65.429688 138.496094 65.488281 Z M 146.488281 53.179688 C 146.503906 53.179688 146.515625 53.179688 146.53125 53.179688 C 146.726562 53.148438 146.871094 52.96875 146.839844 52.773438 L 146.566406 50.65625 C 146.539062 50.464844 146.363281 50.328125 146.164062 50.347656 C 145.96875 50.378906 145.824219 50.558594 145.855469 50.75 L 146.128906 52.867188 C 146.15625 53.042969 146.308594 53.179688 146.488281 53.179688 Z M 150.546875 61.0625 L 148.914062 61.945312 L 146.574219 61.386719 C 146.386719 61.34375 146.183594 61.457031 146.140625 61.652344 C 146.097656 61.847656 146.214844 62.039062 146.410156 62.082031 L 148.886719 62.679688 C 148.914062 62.6875 148.941406 62.6875 148.972656 62.6875 C 149.027344 62.6875 149.085938 62.671875 149.144531 62.644531 L 150.902344 61.695312 C 151.074219 61.601562 151.136719 61.386719 151.042969 61.207031 C 150.945312 61.03125 150.726562 60.96875 150.546875 61.0625 Z M 212.460938 168.070312 C 212.269531 168.101562 212.125 168.28125 212.152344 168.476562 L 220.222656 231.1875 C 220.246094 231.367188 220.402344 231.503906 220.582031 231.503906 C 220.597656 231.503906 220.613281 231.503906 220.625 231.503906 C 220.820312 231.476562 220.964844 231.296875 220.9375 231.101562 L 212.863281 168.386719 C 212.835938 168.1875 212.65625 168.050781 212.460938 168.070312 Z M 199.417969 169.871094 C 199.214844 169.878906 199.0625 170.050781 199.070312 170.246094 L 201.785156 233.253906 C 201.792969 233.449219 201.949219 233.601562 202.144531 233.601562 C 202.152344 233.601562 202.152344 233.601562 202.160156 233.601562 C 202.363281 233.59375 202.511719 233.417969 202.503906 233.226562 L 199.792969 170.21875 C 199.785156 170.015625 199.617188 169.851562 199.417969 169.871094 Z M 183.015625 169.871094 C 182.816406 169.863281 182.648438 170.007812 182.636719 170.210938 L 179.015625 232.964844 C 179 233.167969 179.152344 233.332031 179.351562 233.347656 C 179.359375 233.347656 179.367188 233.347656 179.375 233.347656 C 179.5625 233.347656 179.71875 233.195312 179.734375 233.007812 L 183.355469 170.253906 C 183.363281 170.050781 183.210938 169.886719 183.015625 169.871094 Z M 169.800781 168.070312 C 169.597656 168.042969 169.417969 168.179688 169.394531 168.382812 L 160.582031 231.09375 C 160.554688 231.289062 160.691406 231.476562 160.894531 231.496094 C 160.90625 231.496094 160.929688 231.496094 160.945312 231.496094 C 161.125 231.496094 161.273438 231.367188 161.296875 231.1875 L 170.109375 168.476562 C 170.128906 168.289062 169.992188 168.101562 169.800781 168.070312 Z M 217.824219 120.851562 C 217.824219 120.648438 217.667969 120.492188 217.464844 120.492188 L 203.84375 120.492188 C 203.644531 120.492188 203.484375 120.648438 203.484375 120.851562 C 203.484375 121.054688 203.644531 121.210938 203.84375 121.210938 L 217.464844 121.210938 C 217.660156 121.210938 217.824219 121.054688 217.824219 120.851562 Z M 217.824219 120.851562 " fill-opacity="1" fill-rule="nonzero"/><path fill="#ede6dd" d="M 200.589844 67.273438 C 199.382812 69.457031 196.59375 72.71875 190.75 72.71875 C 184.980469 72.71875 182.1875 69.542969 180.957031 67.359375 C 180.519531 66.589844 181.21875 65.675781 182.082031 65.871094 C 189.007812 67.382812 196.183594 66.394531 199.511719 65.769531 C 200.359375 65.605469 201.015625 66.511719 200.589844 67.273438 Z M 200.589844 67.273438 " fill-opacity="1" fill-rule="nonzero"/></svg>