<svg xmlns="http://www.w3.org/2000/svg" xmlns:xlink="http://www.w3.org/1999/xlink" width="500" zoomAndPan="magnify" viewBox="0 0 375 374.999991" height="500" preserveAspectRatio="xMidYMid meet" version="1.0"><defs><clipPath id="66ec62e3f5"><path d="M 109 32 L 276.582031 32 L 276.582031 197 L 109 197 Z M 109 32 " clip-rule="nonzero"/></clipPath><clipPath id="6b30b793b1"><path d="M 171 17.328125 L 236 17.328125 L 236 81 L 171 81 Z M 171 17.328125 " clip-rule="nonzero"/></clipPath><clipPath id="ad1e3a8120"><path d="M 98.082031 44 L 261 44 L 261 349 L 98.082031 349 Z M 98.082031 44 " clip-rule="nonzero"/></clipPath></defs><path fill="#2c2c54" d="M 156.90625 307.042969 C 156.90625 307.042969 161.058594 325.78125 157.597656 330.421875 C 155.46875 333.273438 151.601562 335.820312 148.953125 337.347656 C 147.027344 338.460938 145.269531 339.839844 143.734375 341.457031 C 140.039062 345.367188 132.796875 352.445312 127.652344 353.933594 C 120.460938 356.003906 98.121094 357.648438 99.363281 343.417969 C 100.152344 334.371094 109.050781 328.722656 115.421875 325.808594 C 120.0625 323.6875 124.011719 320.296875 126.90625 316.085938 L 131.03125 310.082031 Z M 260.179688 342.929688 C 259.390625 333.886719 250.492188 328.238281 244.121094 325.320312 C 239.480469 323.199219 235.53125 319.808594 232.636719 315.601562 L 228.511719 309.59375 L 202.644531 306.554688 C 202.644531 306.554688 198.492188 325.296875 201.953125 329.933594 C 204.082031 332.789062 207.949219 335.332031 210.597656 336.859375 C 212.523438 337.972656 214.28125 339.355469 215.816406 340.972656 C 219.515625 344.878906 226.753906 351.957031 231.898438 353.445312 C 239.082031 355.515625 261.421875 357.160156 260.179688 342.929688 Z M 260.179688 342.929688 " fill-opacity="1" fill-rule="nonzero"/><path fill="#000000" d="M 150.835938 307.539062 C 147.839844 307.539062 145.402344 311.097656 145.402344 315.460938 C 145.402344 319.835938 147.839844 323.394531 150.835938 323.394531 C 153.835938 323.394531 156.273438 319.835938 156.273438 315.460938 C 156.273438 311.089844 153.835938 307.539062 150.835938 307.539062 Z M 150.835938 322.582031 C 148.285156 322.582031 146.214844 319.386719 146.214844 315.460938 C 146.214844 311.535156 148.285156 308.351562 150.835938 308.351562 C 153.390625 308.351562 155.460938 311.546875 155.460938 315.460938 C 155.460938 319.386719 153.390625 322.582031 150.835938 322.582031 Z M 209.054688 307.539062 C 206.054688 307.539062 203.617188 311.097656 203.617188 315.460938 C 203.617188 319.835938 206.054688 323.394531 209.054688 323.394531 C 212.054688 323.394531 214.492188 319.835938 214.492188 315.460938 C 214.492188 311.089844 212.054688 307.539062 209.054688 307.539062 Z M 209.054688 322.582031 C 206.503906 322.582031 204.429688 319.386719 204.429688 315.460938 C 204.429688 311.535156 206.503906 308.351562 209.054688 308.351562 C 211.605469 308.351562 213.679688 311.546875 213.679688 315.460938 C 213.679688 319.386719 211.605469 322.582031 209.054688 322.582031 Z M 209.054688 322.582031 " fill-opacity="1" fill-rule="nonzero"/><path fill="#4b0082" d="M 239.554688 169.585938 C 236.238281 216.878906 232.929688 264.175781 229.613281 311.472656 C 227.625 312.746094 223.445312 315.039062 217.703125 315.414062 C 210.0625 315.910156 200.417969 311.878906 198.476562 310.644531 L 197.824219 194.304688 C 185.894531 233.359375 173.964844 272.417969 162.027344 311.472656 C 159.476562 313.007812 153.339844 316.234375 144.871094 316.242188 C 136.371094 316.25 130.203125 313.007812 127.652344 311.472656 L 151.527344 174.949219 Z M 239.554688 169.585938 " fill-opacity="1" fill-rule="nonzero"/><path fill="#000000" d="M 217.667969 94.917969 L 211.371094 129.847656 L 217.667969 178.816406 L 182.320312 178.816406 L 187.828125 129.570312 L 177.972656 92.21875 L 199.492188 82.347656 L 202.53125 80.949219 L 203.390625 81.746094 Z M 160.160156 191.371094 C 159.9375 191.339844 159.726562 191.476562 159.6875 191.695312 L 137.21875 315.371094 C 137.175781 315.59375 137.324219 315.804688 137.542969 315.84375 C 137.566406 315.84375 137.589844 315.851562 137.617188 315.851562 C 137.8125 315.851562 137.980469 315.714844 138.015625 315.519531 L 160.492188 191.851562 C 160.53125 191.625 160.386719 191.410156 160.160156 191.371094 Z M 200.390625 186.210938 C 200.179688 186.144531 199.953125 186.269531 199.886719 186.480469 L 189.21875 221.082031 C 189.152344 221.292969 189.277344 221.519531 189.488281 221.585938 C 189.527344 221.601562 189.566406 221.601562 189.609375 221.601562 C 189.78125 221.601562 189.941406 221.488281 190 221.316406 L 200.667969 186.714844 C 200.726562 186.503906 200.605469 186.277344 200.390625 186.210938 Z M 233.214844 191.371094 C 232.996094 191.347656 232.800781 191.527344 232.785156 191.753906 L 225.542969 313.398438 C 225.527344 313.625 225.699219 313.8125 225.925781 313.828125 C 225.933594 313.828125 225.941406 313.828125 225.949219 313.828125 C 226.160156 313.828125 226.339844 313.65625 226.355469 313.445312 L 233.597656 191.800781 C 233.613281 191.574219 233.441406 191.378906 233.214844 191.371094 Z M 233.214844 191.371094 " fill-opacity="1" fill-rule="nonzero"/><g clip-path="url(#66ec62e3f5)"><path fill="#4b0082" d="M 188.421875 48.199219 L 160.019531 71.699219 L 168.480469 78.558594 C 168.757812 78.453125 169.03125 78.355469 169.292969 78.265625 C 171.210938 77.609375 173.28125 78.679688 173.835938 80.625 L 187.699219 129.121094 C 187.789062 129.414062 187.828125 129.722656 187.835938 130.03125 L 187.894531 134.0625 L 188.421875 168.957031 C 188.519531 175.320312 186.34375 181.503906 182.285156 186.414062 L 181.480469 187.390625 L 181.480469 192.582031 C 181.480469 194.53125 179.90625 196.101562 177.964844 196.101562 L 150.050781 196.101562 C 148.105469 196.101562 146.53125 194.53125 146.53125 192.582031 L 146.53125 187.390625 L 145.449219 186.347656 C 140.445312 181.539062 137.617188 174.890625 137.617188 167.941406 L 137.617188 134.0625 C 137.617188 134.0625 110.417969 119.363281 109.605469 92.050781 C 109.441406 86.433594 110.390625 80.289062 112.917969 73.625 C 115.421875 67.035156 119.078125 61.511719 123.433594 56.878906 C 144.898438 34.019531 183.261719 32.816406 183.261719 32.816406 Z M 269.207031 125.53125 C 259.667969 107.132812 242.886719 91.066406 230.671875 87.058594 C 228.8125 86.441406 226.796875 87.472656 226.128906 89.320312 L 211.679688 129.007812 C 211.476562 129.5625 211.410156 130.144531 211.484375 130.730469 L 211.914062 134.0625 L 211.914062 134.070312 L 217.5625 178.003906 C 217.636719 178.539062 217.816406 179.050781 218.109375 179.507812 L 223.105469 187.390625 L 223.105469 192.417969 C 223.105469 194.449219 224.746094 196.101562 226.789062 196.101562 L 246.386719 196.101562 C 248.417969 196.101562 250.070312 194.449219 250.070312 192.417969 L 250.070312 187.390625 C 250.070312 187.390625 275.796875 182.511719 276.625 153.363281 C 276.886719 144.300781 273.9375 134.632812 269.207031 125.53125 Z M 198.679688 96.121094 C 198.679688 96.121094 198.667969 96.121094 198.660156 96.121094 C 198.214844 96.128906 197.855469 96.496094 197.863281 96.949219 L 198.679688 146.058594 C 198.6875 146.503906 199.050781 146.855469 199.492188 146.855469 C 199.492188 146.855469 199.5 146.855469 199.507812 146.855469 C 199.953125 146.847656 200.3125 146.480469 200.304688 146.027344 L 199.492188 96.917969 C 199.492188 96.46875 199.125 96.121094 198.679688 96.121094 Z M 198.679688 96.121094 " fill-opacity="1" fill-rule="nonzero"/><path fill="#800080" d="M 187.894531 134.0625 L 188.421875 168.957031 C 188.519531 175.320312 186.34375 181.503906 182.285156 186.414062 L 181.480469 187.390625 L 181.480469 192.582031 C 181.480469 194.53125 179.90625 196.101562 177.964844 196.101562 L 150.050781 196.101562 C 148.105469 196.101562 146.53125 194.53125 146.53125 192.582031 L 146.53125 187.390625 L 145.449219 186.347656 C 140.445312 181.539062 137.617188 174.890625 137.617188 167.941406 L 137.617188 134.0625 Z M 269.207031 125.53125 C 254.011719 122.394531 239.804688 134.0625 239.804688 134.0625 L 211.914062 134.0625 L 211.914062 134.070312 L 217.5625 178.003906 C 217.636719 178.539062 217.816406 179.050781 218.109375 179.507812 L 223.105469 187.390625 L 223.105469 192.417969 C 223.105469 194.449219 224.746094 196.101562 226.789062 196.101562 L 246.386719 196.101562 C 248.417969 196.101562 250.070312 194.449219 250.070312 192.417969 L 250.070312 187.390625 C 250.070312 187.390625 275.796875 182.511719 276.625 153.363281 C 276.886719 144.300781 273.9375 134.632812 269.207031 125.53125 Z M 160.019531 71.699219 L 188.421875 48.199219 L 183.261719 32.816406 C 183.261719 32.816406 144.898438 34.019531 123.433594 56.878906 C 119.078125 61.511719 115.421875 67.035156 112.917969 73.625 C 110.390625 80.289062 109.441406 86.433594 109.605469 92.050781 C 113.730469 94.347656 118.527344 94.878906 123.027344 94.59375 C 131.324219 94.066406 139.144531 90.546875 145.3125 84.980469 Z M 234.296875 79.21875 C 223.066406 70.605469 204.105469 74.925781 200.269531 77.292969 L 217.667969 94.917969 L 211.371094 129.847656 C 230.046875 121.320312 247.160156 89.089844 234.296875 79.21875 Z M 161.261719 76.699219 C 149.128906 87.019531 158.628906 125.171875 187.828125 129.570312 L 177.972656 92.21875 L 199.492188 82.347656 C 198.335938 78.03125 197.410156 75.242188 197.410156 75.242188 C 197.410156 75.242188 173.40625 66.378906 161.261719 76.699219 Z M 161.261719 76.699219 " fill-opacity="1" fill-rule="nonzero"/></g><path fill="#000000" d="M 160.363281 109.496094 C 160.523438 109.652344 160.53125 109.902344 160.386719 110.074219 L 137.90625 134.347656 C 137.828125 134.4375 137.722656 134.476562 137.609375 134.476562 C 137.511719 134.476562 137.414062 134.445312 137.332031 134.371094 C 137.167969 134.21875 137.160156 133.964844 137.308594 133.796875 L 159.785156 109.523438 C 159.9375 109.351562 160.199219 109.34375 160.363281 109.496094 Z M 178.3125 151.859375 L 161.710938 171.363281 C 161.5625 171.535156 161.589844 171.792969 161.757812 171.941406 C 161.832031 172.003906 161.929688 172.039062 162.019531 172.039062 C 162.132812 172.039062 162.246094 171.988281 162.328125 171.890625 L 178.929688 152.386719 C 179.078125 152.21875 179.050781 151.957031 178.882812 151.8125 C 178.71875 151.664062 178.460938 151.691406 178.3125 151.859375 Z M 236.261719 171.40625 L 223.648438 151.902344 C 223.527344 151.714844 223.277344 151.65625 223.089844 151.777344 C 222.902344 151.902344 222.847656 152.152344 222.96875 152.339844 L 235.578125 171.84375 C 235.660156 171.964844 235.792969 172.03125 235.921875 172.03125 C 235.996094 172.03125 236.074219 172.003906 236.140625 171.964844 C 236.328125 171.84375 236.382812 171.589844 236.261719 171.40625 Z M 236.261719 171.40625 " fill-opacity="1" fill-rule="nonzero"/><path fill="#fcd0b9" d="M 220.878906 66.695312 C 219.804688 68.261719 216.359375 72.628906 211.371094 75.21875 L 211.371094 86.238281 L 184.246094 86.238281 L 186.316406 65.257812 C 185.699219 64.265625 185.015625 63.015625 184.382812 61.542969 C 183.675781 61.664062 182.863281 61.617188 181.953125 61.355469 C 175.273438 59.414062 173.503906 50.191406 176.613281 47.558594 C 178.628906 45.851562 181.109375 46.792969 182.59375 47.671875 C 182.90625 45.574219 183.570312 42.964844 185.058594 40.277344 C 188.925781 33.277344 196.371094 29.078125 203.855469 29.078125 C 209.792969 29.078125 215.351562 31.824219 219.140625 36.503906 C 222.261719 40.332031 224.1875 45.453125 224.1875 51.433594 C 224.1875 52.058594 224.171875 52.667969 224.144531 53.261719 C 225.820312 52.894531 228.175781 52.847656 229.550781 54.871094 C 231.800781 58.210938 227.707031 66.46875 220.878906 66.695312 Z M 220.878906 66.695312 " fill-opacity="1" fill-rule="nonzero"/><g clip-path="url(#6b30b793b1)"><path fill="#000000" d="M 183.636719 53.976562 C 183.71875 54.1875 183.601562 54.425781 183.398438 54.496094 C 183.351562 54.511719 183.300781 54.523438 183.261719 54.523438 C 183.097656 54.523438 182.945312 54.425781 182.878906 54.253906 C 182.1875 52.390625 181.261719 51.199219 180.132812 50.710938 C 179.050781 50.238281 178.160156 50.597656 178.125 50.613281 C 177.921875 50.703125 177.679688 50.605469 177.597656 50.402344 C 177.507812 50.199219 177.605469 49.960938 177.808594 49.875 C 177.859375 49.847656 179.027344 49.363281 180.441406 49.960938 C 181.78125 50.539062 182.863281 51.890625 183.636719 53.976562 Z M 228.730469 56.707031 C 228.65625 56.683594 226.902344 56.082031 225.234375 56.894531 C 224.171875 57.414062 223.398438 58.375 222.925781 59.753906 C 222.855469 59.964844 222.96875 60.203125 223.179688 60.265625 C 223.21875 60.285156 223.269531 60.292969 223.308594 60.292969 C 223.480469 60.292969 223.632812 60.1875 223.691406 60.015625 C 224.089844 58.851562 224.722656 58.046875 225.578125 57.625 C 226.933594 56.960938 228.4375 57.464844 228.453125 57.472656 C 228.664062 57.542969 228.890625 57.429688 228.972656 57.21875 C 229.054688 57.007812 228.941406 56.78125 228.730469 56.707031 Z M 209.421875 59.640625 C 209.4375 59.640625 209.453125 59.640625 209.46875 59.640625 C 209.671875 59.640625 209.84375 59.488281 209.875 59.285156 C 210.070312 57.675781 209.785156 56.382812 209.046875 55.449219 C 208.121094 54.285156 206.804688 54.132812 206.746094 54.132812 C 206.511719 54.105469 206.324219 54.269531 206.300781 54.488281 C 206.277344 54.707031 206.4375 54.910156 206.65625 54.9375 C 206.667969 54.9375 207.707031 55.066406 208.414062 55.96875 C 209.007812 56.722656 209.226562 57.804688 209.0625 59.1875 C 209.039062 59.414062 209.203125 59.617188 209.421875 59.640625 Z M 200.621094 61.910156 C 200.457031 62.0625 200.441406 62.316406 200.59375 62.484375 C 202.511719 64.566406 206.851562 64.695312 207.902344 64.695312 C 208.023438 64.695312 208.105469 64.695312 208.121094 64.695312 C 208.347656 64.6875 208.519531 64.5 208.519531 64.28125 C 208.511719 64.0625 208.332031 63.882812 208.113281 63.882812 C 208.113281 63.882812 208.105469 63.882812 208.105469 63.882812 C 208.054688 63.890625 203.082031 63.988281 201.195312 61.941406 C 201.042969 61.769531 200.78125 61.761719 200.621094 61.910156 Z M 203.375 42.242188 C 203.210938 42.195312 199.328125 41 195.882812 43.550781 C 195.703125 43.679688 195.664062 43.941406 195.792969 44.121094 C 195.875 44.226562 195.996094 44.28125 196.117188 44.28125 C 196.199219 44.28125 196.289062 44.257812 196.363281 44.199219 C 199.464844 41.902344 203.089844 43.007812 203.132812 43.015625 C 203.351562 43.078125 203.570312 42.964844 203.644531 42.746094 C 203.707031 42.535156 203.59375 42.308594 203.375 42.242188 Z M 232.328125 35.726562 C 235.703125 37.953125 237.984375 34.3125 233.160156 32.320312 C 230.996094 31.425781 228.972656 31.230469 227.398438 31.28125 C 225.347656 31.34375 223.4375 30.296875 222.277344 28.605469 C 219.613281 24.730469 214.335938 18.960938 207.691406 21.300781 C 205.863281 21.941406 204.511719 22.828125 203.519531 23.835938 C 204.910156 21.128906 207.722656 19.902344 207.902344 19.828125 C 208.519531 19.570312 208.820312 18.863281 208.558594 18.238281 C 208.308594 17.621094 207.59375 17.320312 206.964844 17.570312 C 204.976562 18.390625 201.929688 20.585938 200.773438 24.097656 C 199.191406 23.382812 197.183594 23.015625 194.664062 23.460938 C 186.519531 24.917969 187.398438 30.515625 187.398438 30.515625 C 187.398438 30.515625 178.214844 29.0625 177.957031 37.050781 C 177.695312 45.039062 171.316406 41.527344 171.421875 43.851562 C 171.527344 46.175781 176.085938 46.542969 179.410156 44.625 C 179.410156 44.625 179.441406 49.507812 185.367188 50.050781 C 191.289062 50.589844 195.125 45.296875 195.183594 40.066406 C 195.230469 34.824219 198.09375 30.9375 201.644531 34.929688 C 201.644531 34.929688 205.660156 29.6875 207.113281 36.742188 C 208.566406 43.792969 216.710938 54.132812 228.589844 52.074219 C 240.472656 50.019531 234.207031 44.835938 230.160156 46.597656 C 230.160156 46.597656 231.242188 39.960938 225.941406 36.222656 C 225.949219 36.238281 228.957031 33.492188 232.328125 35.726562 Z M 201.726562 51.214844 C 201.953125 49.800781 200.992188 48.46875 199.578125 48.238281 C 198.164062 48.011719 196.832031 48.972656 196.605469 50.386719 C 196.378906 51.800781 197.335938 53.132812 198.75 53.359375 C 200.164062 53.585938 201.496094 52.628906 201.726562 51.214844 Z M 215.492188 50.832031 C 214.078125 50.605469 212.746094 51.5625 212.515625 52.976562 C 212.289062 54.390625 213.25 55.722656 214.664062 55.953125 C 216.078125 56.179688 217.410156 55.21875 217.636719 53.804688 C 217.863281 52.390625 216.90625 51.058594 215.492188 50.832031 Z M 193.679688 73.625 C 196.597656 76.984375 201.359375 81.039062 207.796875 80.949219 C 209.039062 80.933594 210.234375 80.761719 211.371094 80.46875 L 211.371094 75.21875 C 209.144531 76.382812 206.617188 77.179688 203.855469 77.21875 C 199.78125 77.277344 196.371094 75.667969 193.679688 73.625 Z M 193.679688 73.625 " fill-opacity="1" fill-rule="nonzero"/></g><path fill="#4b0082" d="M 228.203125 103.90625 L 197.921875 98.316406 L 169.472656 106.109375 C 167.984375 106.515625 166.820312 104.808594 167.75 103.582031 L 181.871094 84.6875 C 182.382812 84.003906 183.335938 83.832031 184.050781 84.296875 L 198.5625 93.707031 L 211.835938 83.410156 C 212.507812 82.890625 213.46875 82.980469 214.035156 83.613281 L 229.710938 101.25 C 230.730469 102.386719 229.710938 104.183594 228.203125 103.90625 Z M 228.203125 103.90625 " fill-opacity="1" fill-rule="nonzero"/><path fill="#2c2c54" d="M 213.347656 81.851562 L 213.347656 87.589844 C 213.347656 91.058594 211.558594 94.332031 208.566406 96.089844 C 205.96875 97.617188 202.390625 99.03125 197.996094 99.144531 C 193.207031 99.265625 189.308594 97.804688 186.480469 96.195312 C 183.359375 94.40625 181.480469 91.035156 181.480469 87.433594 L 181.480469 81.851562 C 181.480469 80.394531 182.660156 79.226562 184.105469 79.226562 L 210.714844 79.226562 C 212.167969 79.226562 213.347656 80.40625 213.347656 81.851562 Z M 213.347656 81.851562 " fill-opacity="1" fill-rule="nonzero"/><path fill="#000000" d="M 181.886719 187.390625 C 181.886719 187.617188 181.710938 187.796875 181.480469 187.796875 L 146.539062 187.796875 C 146.3125 187.796875 146.132812 187.617188 146.132812 187.390625 C 146.132812 187.160156 146.3125 186.984375 146.539062 186.984375 L 181.480469 186.984375 C 181.703125 186.984375 181.886719 187.167969 181.886719 187.390625 Z M 250.070312 186.984375 L 223.308594 186.984375 C 223.082031 186.984375 222.902344 187.160156 222.902344 187.390625 C 222.902344 187.617188 223.082031 187.796875 223.308594 187.796875 L 250.070312 187.796875 C 250.296875 187.796875 250.476562 187.617188 250.476562 187.390625 C 250.476562 187.160156 250.296875 186.984375 250.070312 186.984375 Z M 213.347656 81.445312 C 213.117188 81.445312 212.941406 81.625 212.941406 81.851562 L 212.941406 87.589844 C 212.941406 90.960938 211.183594 94.082031 208.355469 95.738281 C 205.121094 97.632812 201.628906 98.648438 197.980469 98.738281 C 194.011719 98.851562 190.226562 97.867188 186.675781 95.835938 C 183.71875 94.144531 181.878906 90.929688 181.878906 87.433594 L 181.878906 81.851562 C 181.878906 81.625 181.703125 81.445312 181.472656 81.445312 C 181.246094 81.445312 181.066406 81.625 181.066406 81.851562 L 181.066406 87.433594 C 181.066406 91.222656 183.058594 94.707031 186.269531 96.542969 C 189.769531 98.542969 193.515625 99.558594 197.402344 99.558594 C 197.597656 99.558594 197.792969 99.558594 197.988281 99.550781 C 201.773438 99.453125 205.398438 98.40625 208.753906 96.4375 C 211.828125 94.632812 213.734375 91.246094 213.734375 87.589844 L 213.734375 81.851562 C 213.753906 81.632812 213.566406 81.445312 213.347656 81.445312 Z M 160.320312 71.433594 C 160.175781 71.261719 159.914062 71.253906 159.742188 71.398438 L 142.757812 86.582031 C 142.589844 86.726562 142.582031 86.988281 142.726562 87.15625 C 142.808594 87.246094 142.921875 87.296875 143.027344 87.296875 C 143.125 87.296875 143.222656 87.261719 143.296875 87.191406 L 160.28125 72.011719 C 160.460938 71.855469 160.476562 71.601562 160.320312 71.433594 Z M 160.320312 71.433594 " fill-opacity="1" fill-rule="nonzero"/><path fill="#800080" d="M 250.070312 187.390625 C 207.640625 186.039062 240.730469 138.003906 240.730469 138.003906 Z M 250.070312 187.390625 " fill-opacity="1" fill-rule="nonzero"/><path fill="#000000" d="M 250.476562 187.40625 C 250.46875 187.625 250.289062 187.796875 250.070312 187.796875 C 250.070312 187.796875 250.0625 187.796875 250.054688 187.796875 C 239.628906 187.460938 232.816406 184.277344 229.808594 178.320312 C 222.765625 164.367188 238.707031 140.265625 240.292969 137.921875 L 236.296875 120.949219 C 236.246094 120.726562 236.375 120.507812 236.597656 120.460938 C 236.816406 120.410156 237.035156 120.539062 237.082031 120.761719 L 241.121094 137.914062 C 241.148438 138.027344 241.128906 138.144531 241.066406 138.242188 C 240.886719 138.5 223.496094 164.027344 230.535156 177.953125 C 233.402344 183.625 239.976562 186.65625 250.078125 186.984375 C 250.304688 186.992188 250.484375 187.179688 250.476562 187.40625 Z M 255.3125 172.730469 C 255.3125 178.9375 250.257812 183.992188 244.046875 183.992188 C 237.839844 183.992188 232.785156 178.9375 232.785156 172.730469 C 232.785156 166.519531 237.839844 161.464844 244.046875 161.464844 C 250.257812 161.464844 255.3125 166.519531 255.3125 172.730469 Z M 254.5 172.730469 C 254.5 166.96875 249.808594 162.277344 244.046875 162.277344 C 238.285156 162.277344 233.597656 166.96875 233.597656 172.730469 C 233.597656 178.492188 238.285156 183.179688 244.046875 183.179688 C 249.808594 183.171875 254.5 178.492188 254.5 172.730469 Z M 254.5 172.730469 " fill-opacity="1" fill-rule="nonzero"/><path fill="#fcd0b9" d="M 247.957031 181.757812 C 247.964844 181.757812 245.851562 191.605469 240.871094 197.652344 C 235.222656 204.503906 226.445312 207.707031 223.105469 208.597656 C 216.808594 210.289062 221.617188 205.640625 221.617188 205.640625 C 216.898438 208.828125 215.507812 205.382812 215.507812 205.382812 C 211.199219 207.175781 212.914062 202.007812 212.914062 202.007812 C 211.808594 201.074219 211.191406 199.855469 210.84375 198.652344 C 210.25 196.597656 210.46875 194.394531 211.304688 192.425781 L 213.257812 187.820312 C 214.71875 184.375 217.230469 181.488281 220.441406 179.5625 L 234.757812 170.980469 C 236.148438 170.105469 237.789062 169.585938 239.5625 169.585938 C 244.527344 169.585938 248.550781 173.605469 248.550781 178.570312 C 248.550781 179.695312 248.332031 180.765625 247.957031 181.757812 Z M 247.957031 181.757812 " fill-opacity="1" fill-rule="nonzero"/><g clip-path="url(#ad1e3a8120)"><path fill="#000000" d="M 221.644531 186.878906 C 214.808594 194.394531 213.328125 202.007812 213.3125 202.082031 C 213.28125 202.277344 213.109375 202.414062 212.914062 202.414062 C 212.890625 202.414062 212.867188 202.414062 212.84375 202.40625 C 212.621094 202.367188 212.476562 202.15625 212.515625 201.933594 C 212.574219 201.617188 214.046875 194.027344 221.042969 186.332031 C 221.195312 186.171875 221.449219 186.152344 221.617188 186.308594 C 221.78125 186.453125 221.789062 186.707031 221.644531 186.878906 Z M 215.238281 205.691406 C 215.3125 205.753906 215.410156 205.789062 215.507812 205.789062 C 215.621094 205.789062 215.734375 205.738281 215.816406 205.648438 L 227.496094 192.046875 C 227.640625 191.875 227.625 191.625 227.453125 191.46875 C 227.28125 191.324219 227.03125 191.347656 226.875 191.507812 L 215.199219 205.113281 C 215.042969 205.285156 215.070312 205.542969 215.238281 205.691406 Z M 221.269531 205.851562 C 221.34375 205.972656 221.480469 206.046875 221.609375 206.046875 C 221.683594 206.046875 221.757812 206.03125 221.820312 205.984375 C 221.886719 205.941406 228.582031 201.742188 232.613281 197.410156 C 232.769531 197.246094 232.761719 196.988281 232.589844 196.832031 C 232.425781 196.675781 232.167969 196.6875 232.011719 196.855469 C 228.046875 201.113281 221.449219 205.257812 221.382812 205.300781 C 221.210938 205.414062 221.15625 205.664062 221.269531 205.851562 Z M 124.9375 319.09375 C 131.121094 318.46875 135.503906 323.207031 135.550781 323.253906 C 135.632812 323.34375 135.738281 323.386719 135.851562 323.386719 C 135.949219 323.386719 136.046875 323.351562 136.128906 323.28125 C 136.289062 323.132812 136.308594 322.875 136.160156 322.703125 C 135.972656 322.492188 131.480469 317.597656 124.863281 318.28125 C 124.644531 318.304688 124.484375 318.5 124.5 318.730469 C 124.515625 318.957031 124.710938 319.128906 124.9375 319.09375 Z M 120.144531 322.90625 C 126.328125 322.28125 130.707031 327.019531 130.757812 327.066406 C 130.839844 327.15625 130.945312 327.195312 131.058594 327.195312 C 131.15625 327.195312 131.253906 327.164062 131.332031 327.089844 C 131.496094 326.945312 131.511719 326.683594 131.367188 326.515625 C 131.179688 326.304688 126.675781 321.410156 120.070312 322.09375 C 119.851562 322.117188 119.6875 322.3125 119.703125 322.539062 C 119.722656 322.757812 119.917969 322.929688 120.144531 322.90625 Z M 113.984375 326.789062 C 120.175781 326.164062 124.546875 330.902344 124.597656 330.949219 C 124.679688 331.039062 124.785156 331.082031 124.898438 331.082031 C 124.996094 331.082031 125.09375 331.046875 125.175781 330.976562 C 125.335938 330.828125 125.351562 330.570312 125.207031 330.398438 C 125.019531 330.1875 120.515625 325.296875 113.910156 325.976562 C 113.691406 326.003906 113.527344 326.195312 113.546875 326.425781 C 113.5625 326.644531 113.765625 326.816406 113.984375 326.789062 Z M 158.671875 321.523438 C 158.628906 321.558594 154.722656 324.953125 149.226562 328.855469 C 146.601562 330.722656 144.269531 332.917969 142.3125 335.394531 C 137.355469 341.636719 123.257812 354.941406 99.496094 343.75 C 99.292969 343.652344 99.046875 343.742188 98.949219 343.945312 C 98.851562 344.148438 98.941406 344.390625 99.144531 344.488281 C 105.898438 347.675781 111.886719 348.910156 117.128906 348.910156 C 130.734375 348.910156 139.28125 340.523438 142.945312 335.910156 C 144.863281 333.496094 147.140625 331.347656 149.699219 329.519531 C 155.226562 325.597656 159.167969 322.175781 159.199219 322.140625 C 159.371094 321.996094 159.386719 321.734375 159.238281 321.566406 C 159.101562 321.394531 158.84375 321.378906 158.671875 321.523438 Z M 223.390625 322.214844 C 223.242188 322.378906 223.253906 322.636719 223.421875 322.792969 C 223.503906 322.867188 223.59375 322.898438 223.691406 322.898438 C 223.804688 322.898438 223.910156 322.847656 223.992188 322.757812 C 224.03125 322.710938 228.414062 317.972656 234.605469 318.597656 C 234.824219 318.625 235.027344 318.460938 235.050781 318.234375 C 235.078125 318.015625 234.914062 317.8125 234.6875 317.785156 C 228.078125 317.121094 223.585938 322.011719 223.390625 322.214844 Z M 228.191406 326.027344 C 228.046875 326.1875 228.054688 326.449219 228.226562 326.601562 C 228.308594 326.675781 228.394531 326.710938 228.492188 326.710938 C 228.609375 326.710938 228.714844 326.660156 228.792969 326.570312 C 228.835938 326.523438 233.214844 321.785156 239.40625 322.410156 C 239.628906 322.433594 239.832031 322.273438 239.855469 322.042969 C 239.878906 321.824219 239.714844 321.621094 239.488281 321.597656 C 232.875 320.921875 228.378906 325.816406 228.191406 326.027344 Z M 234.34375 329.910156 C 234.199219 330.074219 234.207031 330.332031 234.378906 330.488281 C 234.449219 330.5625 234.546875 330.59375 234.644531 330.59375 C 234.757812 330.59375 234.863281 330.542969 234.945312 330.464844 C 234.988281 330.414062 239.382812 325.683594 245.558594 326.304688 C 245.777344 326.328125 245.980469 326.164062 246.007812 325.9375 C 246.03125 325.71875 245.867188 325.515625 245.640625 325.488281 C 239.042969 324.808594 234.53125 329.699219 234.34375 329.910156 Z M 260.585938 343.449219 C 260.488281 343.246094 260.242188 343.15625 260.039062 343.253906 C 236.277344 354.453125 222.179688 341.140625 217.222656 334.902344 C 215.253906 332.429688 212.929688 330.226562 210.308594 328.359375 C 204.820312 324.457031 200.90625 321.0625 200.863281 321.027344 C 200.691406 320.882812 200.441406 320.898438 200.285156 321.070312 C 200.140625 321.238281 200.15625 321.492188 200.328125 321.644531 C 200.367188 321.679688 204.308594 325.101562 209.828125 329.023438 C 212.386719 330.84375 214.664062 332.992188 216.582031 335.414062 C 220.246094 340.027344 228.792969 348.414062 242.398438 348.414062 C 247.640625 348.414062 253.628906 347.171875 260.375 343.992188 C 260.59375 343.886719 260.683594 343.652344 260.585938 343.449219 Z M 199.140625 58.550781 C 198.765625 58.550781 198.394531 58.519531 198.011719 58.464844 C 196.109375 58.164062 194.445312 57.136719 193.3125 55.585938 C 192.25 54.117188 191.785156 52.335938 191.988281 50.546875 L 180.660156 45.6875 C 180.457031 45.597656 180.359375 45.363281 180.449219 45.152344 C 180.539062 44.949219 180.773438 44.851562 180.988281 44.941406 L 192.136719 49.71875 C 192.980469 46.078125 196.523438 43.640625 200.269531 44.234375 C 202.171875 44.535156 203.839844 45.558594 204.96875 47.109375 C 206.015625 48.558594 206.480469 50.304688 206.300781 52.066406 L 210.070312 52.660156 C 210.875 48.964844 214.433594 46.46875 218.222656 47.070312 C 222.148438 47.6875 224.828125 51.386719 224.210938 55.308594 C 223.652344 58.851562 220.578125 61.386719 217.101562 61.386719 C 216.726562 61.386719 216.351562 61.355469 215.972656 61.300781 C 212.183594 60.699219 209.558594 57.234375 209.941406 53.464844 L 206.171875 52.871094 C 205.445312 56.203125 202.488281 58.550781 199.140625 58.550781 Z M 210.777344 53.1875 C 210.226562 56.667969 212.613281 59.949219 216.09375 60.496094 C 219.578125 61.046875 222.855469 58.65625 223.398438 55.179688 C 223.949219 51.703125 221.5625 48.417969 218.082031 47.875 C 217.75 47.824219 217.410156 47.792969 217.085938 47.792969 C 214.003906 47.792969 211.273438 50.042969 210.777344 53.1875 Z M 205.445312 52.34375 C 205.714844 50.660156 205.308594 48.972656 204.300781 47.589844 C 203.292969 46.207031 201.816406 45.304688 200.132812 45.039062 C 199.800781 44.988281 199.457031 44.957031 199.132812 44.957031 C 196.042969 44.957031 193.324219 47.207031 192.828125 50.351562 C 192.558594 52.035156 192.964844 53.726562 193.972656 55.105469 C 194.980469 56.488281 196.460938 57.390625 198.140625 57.660156 C 201.613281 58.203125 204.894531 55.820312 205.445312 52.34375 Z M 205.445312 52.34375 " fill-opacity="1" fill-rule="nonzero"/></g></svg>