<svg xmlns="http://www.w3.org/2000/svg" xmlns:xlink="http://www.w3.org/1999/xlink" width="642" zoomAndPan="magnify" viewBox="0 0 481.5 274.499992" height="366" preserveAspectRatio="xMidYMid meet" version="1.0"><defs><clipPath id="acd8efec22"><path d="M 202 105 L 480.511719 105 L 480.511719 273.253906 L 202 273.253906 Z M 202 105 " clip-rule="nonzero"/></clipPath><clipPath id="4e1f6d27c7"><path d="M 202 128 L 480.511719 128 L 480.511719 273.253906 L 202 273.253906 Z M 202 128 " clip-rule="nonzero"/></clipPath><clipPath id="729698dfe7"><path d="M 0.1875 123 L 285.417969 123 L 285.417969 273 L 0.1875 273 Z M 0.1875 123 " clip-rule="nonzero"/></clipPath><clipPath id="bcb1eb4ae2"><path d="M 0.1875 127 L 285.417969 127 L 285.417969 273 L 0.1875 273 Z M 0.1875 127 " clip-rule="nonzero"/></clipPath><clipPath id="3c3cc3d857"><path d="M 80 129 L 210 129 L 210 273.253906 L 80 273.253906 Z M 80 129 " clip-rule="nonzero"/></clipPath></defs><path fill="#2b1200" d="M 252.796875 77.746094 C 254.378906 83.457031 257.519531 90.171875 263.730469 94.136719 C 269.15625 97.605469 273.234375 102.839844 274.84375 109.078125 C 276.132812 114.074219 279.292969 119.308594 286.546875 121.65625 C 290.367188 122.890625 293.808594 125.117188 296.445312 128.15625 C 302.085938 134.664062 315.09375 143.421875 339.933594 131.378906 C 339.933594 131.378906 362.691406 155.796875 386.769531 139.175781 C 390.261719 136.765625 394.296875 135.21875 398.523438 134.785156 C 404.480469 134.164062 413.15625 131.746094 418.324219 123.402344 C 420.835938 119.351562 424.722656 116.382812 429.257812 114.929688 C 433.363281 113.617188 438.578125 110.59375 443.558594 103.847656 C 446.457031 99.929688 443.652344 94.382812 438.785156 94.316406 C 428.554688 94.175781 413.410156 90.246094 403.523438 70.824219 C 387.40625 39.171875 360.734375 37.621094 360.734375 37.621094 C 360.734375 37.621094 335.902344 24.316406 304.992188 54.253906 C 285.257812 73.371094 268.789062 73.414062 259.460938 70.949219 C 255.363281 69.878906 251.667969 73.675781 252.796875 77.746094 Z M 252.796875 77.746094 " fill-opacity="1" fill-rule="nonzero"/><path fill="#f9c7b2" d="M 255.039062 120.882812 L 259.429688 101.898438 C 264.601562 99.503906 267.734375 95.652344 269.460938 92.792969 C 271.132812 90.027344 273.082031 87.441406 275.273438 85.0625 C 279.035156 80.984375 283.554688 75.019531 279.710938 73.285156 C 271.238281 69.453125 264.453125 81.269531 264.453125 81.269531 C 264.242188 61.617188 256.464844 42.796875 251.988281 46.4375 C 247.507812 50.074219 255.371094 71.644531 255.371094 71.644531 C 242.355469 52.101562 233.058594 48.550781 232.722656 53.371094 C 232.382812 58.191406 247.257812 75.199219 247.257812 75.199219 C 247.257812 75.199219 245.007812 73.371094 241.171875 74.179688 C 237.335938 74.992188 240.105469 80.617188 240.105469 80.617188 C 240.105469 80.617188 232.042969 78.238281 234.246094 86.246094 C 236.441406 94.253906 242.980469 96.851562 242.980469 96.851562 L 239.136719 106.15625 Z M 436.9375 164.234375 L 432.542969 145.246094 C 427.371094 142.851562 424.242188 139.003906 422.515625 136.144531 C 420.839844 133.378906 418.890625 130.789062 416.703125 128.414062 C 412.941406 124.332031 408.421875 118.371094 412.261719 116.636719 C 420.738281 112.800781 427.523438 124.621094 427.523438 124.621094 C 427.734375 104.96875 435.507812 86.148438 439.988281 89.785156 C 444.464844 93.425781 436.605469 114.996094 436.605469 114.996094 C 449.621094 95.453125 458.917969 91.898438 459.253906 96.71875 C 459.59375 101.542969 444.71875 118.546875 444.71875 118.546875 C 444.71875 118.546875 446.964844 116.722656 450.800781 117.53125 C 454.636719 118.339844 451.867188 123.964844 451.867188 123.964844 C 451.867188 123.964844 459.929688 121.589844 457.730469 129.59375 C 455.53125 137.601562 448.996094 140.203125 448.996094 140.203125 L 452.839844 149.503906 Z M 436.9375 164.234375 " fill-opacity="1" fill-rule="nonzero"/><g clip-path="url(#acd8efec22)"><path fill="#ffa4a2" d="M 225.261719 200.683594 C 237.085938 210.929688 253.816406 220.019531 276.433594 221.09375 L 286.964844 246.703125 L 278.398438 273.253906 L 410.457031 273.253906 L 397.886719 247.429688 L 398.054688 246.929688 L 406.289062 222.230469 C 406.289062 222.230469 478.429688 243.183594 480.460938 193.214844 C 480.589844 190.070312 480.464844 187.121094 480.121094 184.367188 L 480.121094 184.355469 C 479.804688 181.839844 479.300781 179.488281 478.628906 177.285156 C 478.109375 175.242188 477.425781 173.152344 476.542969 171.027344 L 476.539062 171.011719 C 476.53125 171.003906 476.53125 171 476.53125 170.992188 C 474.753906 166.65625 472.203125 162.15625 468.761719 157.546875 C 464.886719 152.351562 461.066406 150.355469 454.765625 144.964844 C 454.765625 144.964844 439.546875 145.84375 429.085938 151.851562 C 423.875 154.847656 422 164.628906 419.480469 165.242188 C 399.769531 159.507812 338.273438 146.1875 338.273438 146.1875 L 295.675781 154.382812 L 281.035156 152.964844 C 281.035156 152.964844 273.375 146.25 262.578125 140.683594 C 263.386719 138.1875 264.308594 135.351562 265.191406 132.417969 C 265.777344 130.492188 263.214844 120.890625 256.535156 115.453125 C 246.246094 107.074219 229.378906 102.855469 224.097656 107.210938 C 215.582031 114.238281 210.230469 120.792969 206.910156 128.589844 C 205.746094 131.324219 204.828125 134.203125 204.117188 137.316406 C 198.757812 160.667969 207.164062 184.996094 225.261719 200.683594 Z M 225.261719 200.683594 " fill-opacity="1" fill-rule="nonzero"/></g><path fill="#fff0fd" d="M 302.121094 168.234375 C 301.308594 170.597656 300.871094 173.078125 300.871094 175.636719 C 300.871094 191.902344 318.40625 205.085938 340.035156 205.085938 C 361.664062 205.085938 379.199219 191.902344 379.199219 175.636719 C 379.199219 174.511719 379.109375 173.402344 378.949219 172.3125 C 396.769531 176.324219 397.894531 159.507812 397.894531 159.507812 L 380.730469 155.675781 L 365.109375 153.019531 C 358.316406 148.753906 349.578125 146.1875 340.042969 146.1875 C 334.054688 146.1875 328.378906 147.203125 323.304688 149.011719 L 296.300781 152.402344 L 281.042969 152.964844 C 282.953125 164.320312 297.828125 167.539062 302.121094 168.234375 Z M 302.121094 168.234375 " fill-opacity="1" fill-rule="nonzero"/><path fill="#f9c7b2" d="M 311.546875 146.953125 L 296.289062 152.402344 C 296.289062 152.402344 340.050781 189.027344 380.726562 155.675781 L 363.300781 149.675781 L 363.378906 139.867188 C 370.984375 136.503906 377.503906 130.847656 381.84375 123.546875 C 381.84375 123.546875 381.84375 123.546875 381.84375 123.539062 C 382.222656 123.699219 382.601562 123.855469 382.996094 123.988281 C 392.160156 127.035156 402.660156 120.292969 405.503906 111.710938 C 407.125 106.808594 406.15625 101.640625 403.3125 97.546875 C 402.292969 96.058594 401.023438 94.710938 399.542969 93.570312 C 397.949219 92.328125 396.105469 91.332031 394.058594 90.652344 C 393.25 90.382812 392.441406 90.183594 391.632812 90.027344 C 394.222656 70.003906 381.355469 50.621094 361.320312 45.664062 C 358.109375 44.871094 354.882812 44.492188 351.710938 44.492188 C 344.460938 44.492188 337.449219 46.472656 331.371094 50.023438 C 323.503906 54.617188 317.179688 61.84375 313.859375 70.808594 C 313.859375 70.808594 313.859375 70.8125 313.859375 70.8125 C 313.074219 70.570312 312.265625 70.371094 311.421875 70.234375 C 310.15625 70.019531 308.894531 69.945312 307.667969 69.984375 C 304.925781 70.089844 302.316406 70.800781 300.027344 72.011719 C 295.605469 74.3125 292.339844 78.441406 291.5 83.53125 C 290.027344 92.449219 296.179688 103.308594 305.710938 104.882812 C 306.117188 104.949219 306.519531 104.992188 306.925781 105.023438 C 306.925781 105.023438 306.925781 105.03125 306.925781 105.03125 C 307.4375 114.617188 311.375 123.648438 317.792969 130.535156 C 318.050781 130.8125 318.316406 131.085938 318.585938 131.355469 C 318.691406 131.472656 318.808594 131.585938 318.921875 131.695312 C 319.203125 131.976562 319.484375 132.246094 319.769531 132.515625 C 319.78125 132.523438 319.789062 132.535156 319.800781 132.539062 C 320.109375 132.832031 320.429688 133.125 320.757812 133.402344 C 320.84375 133.480469 320.921875 133.554688 321.007812 133.625 C 321.308594 133.882812 321.613281 134.140625 321.921875 134.386719 C 321.9375 134.398438 321.957031 134.417969 321.972656 134.429688 C 322.292969 134.691406 322.621094 134.945312 322.953125 135.195312 C 323.003906 135.230469 323.058594 135.273438 323.101562 135.304688 C 323.476562 135.585938 323.847656 135.855469 324.226562 136.121094 C 324.253906 136.144531 324.285156 136.160156 324.308594 136.179688 C 324.632812 136.402344 324.960938 136.621094 325.289062 136.839844 C 325.363281 136.882812 325.4375 136.929688 325.503906 136.980469 C 325.882812 137.21875 326.261719 137.453125 326.644531 137.683594 C 327.054688 137.929688 327.464844 138.164062 327.886719 138.394531 C 328.527344 138.738281 329.179688 139.078125 329.847656 139.390625 C 330.058594 139.496094 330.269531 139.59375 330.480469 139.691406 C 331.710938 140.253906 332.984375 140.757812 334.285156 141.195312 C 334.511719 141.273438 334.742188 141.355469 334.976562 141.425781 C 335.808594 141.6875 336.652344 141.929688 337.511719 142.140625 C 345.667969 144.15625 353.878906 143.5 361.230469 140.742188 C 352.488281 145.847656 341.835938 147.703125 331.296875 145.097656 C 325.242188 143.605469 319.839844 140.789062 315.320312 137.039062 Z M 311.546875 146.953125 " fill-opacity="1" fill-rule="nonzero"/><path fill="#2b1200" d="M 300.242188 82.441406 C 300.164062 82.75 300.347656 83.058594 300.660156 83.136719 C 300.964844 83.210938 301.277344 83.019531 301.351562 82.714844 C 301.691406 81.351562 302.539062 80.195312 303.742188 79.46875 C 304.949219 78.738281 306.363281 78.527344 307.722656 78.863281 C 309.089844 79.203125 310.242188 80.054688 310.96875 81.257812 C 311.699219 82.464844 311.910156 83.882812 311.570312 85.246094 C 311.566406 85.277344 311.558594 85.304688 311.554688 85.332031 C 311.546875 85.375 311.140625 89.585938 308.164062 90.722656 C 305.648438 91.6875 303.957031 93.960938 303.847656 96.511719 L 303.835938 96.839844 C 303.824219 97.15625 304.066406 97.425781 304.386719 97.4375 C 304.390625 97.4375 304.402344 97.4375 304.410156 97.4375 C 304.714844 97.4375 304.972656 97.195312 304.984375 96.886719 L 304.992188 96.558594 C 305.085938 94.464844 306.492188 92.59375 308.578125 91.789062 C 312.074219 90.453125 312.636719 86.011719 312.695312 85.476562 C 313.089844 83.824219 312.828125 82.121094 311.949219 80.660156 C 311.066406 79.191406 309.660156 78.160156 308 77.75 C 306.335938 77.339844 304.617188 77.601562 303.148438 78.484375 C 301.679688 79.371094 300.652344 80.777344 300.242188 82.441406 Z M 388.734375 99.640625 C 390.203125 98.757812 391.925781 98.492188 393.585938 98.90625 C 397.015625 99.757812 399.121094 103.238281 398.273438 106.671875 C 398.195312 106.980469 397.882812 107.164062 397.578125 107.089844 C 397.269531 107.015625 397.085938 106.707031 397.160156 106.398438 C 397.851562 103.578125 396.128906 100.714844 393.3125 100.019531 C 390.496094 99.324219 387.636719 101.054688 386.941406 103.871094 C 386.933594 103.898438 386.921875 103.929688 386.914062 103.957031 C 386.894531 103.996094 385.300781 107.910156 387.40625 110.304688 C 389.183594 112.324219 389.628906 115.132812 388.535156 117.4375 L 388.390625 117.738281 C 388.292969 117.945312 388.085938 118.066406 387.875 118.066406 C 387.796875 118.066406 387.710938 118.046875 387.628906 118.007812 C 387.34375 117.871094 387.222656 117.53125 387.355469 117.246094 L 387.496094 116.945312 C 388.390625 115.046875 388.019531 112.738281 386.546875 111.058594 C 384.066406 108.246094 385.640625 104.050781 385.839844 103.550781 C 386.253906 101.910156 387.285156 100.523438 388.734375 99.640625 Z M 352.273438 103.492188 C 352.226562 103.492188 352.179688 103.488281 352.132812 103.476562 C 351.824219 103.402344 351.640625 103.089844 351.714844 102.78125 C 352.984375 97.644531 348.816406 95.980469 348.636719 95.910156 C 348.339844 95.796875 348.195312 95.46875 348.304688 95.171875 C 348.414062 94.871094 348.746094 94.722656 349.042969 94.835938 C 349.09375 94.859375 354.347656 96.914062 352.835938 103.054688 C 352.765625 103.320312 352.53125 103.492188 352.273438 103.492188 Z M 360.992188 110.636719 C 361.035156 110.953125 360.808594 111.242188 360.496094 111.28125 C 359.199219 111.441406 357.910156 111.515625 356.636719 111.515625 C 344.324219 111.515625 333.609375 104.691406 333.492188 104.617188 C 333.230469 104.445312 333.148438 104.089844 333.320312 103.824219 C 333.492188 103.5625 333.847656 103.480469 334.113281 103.652344 C 334.238281 103.734375 346.929688 111.808594 360.351562 110.144531 C 360.671875 110.097656 360.953125 110.324219 360.992188 110.636719 Z M 337.265625 94.308594 C 334.921875 94.308594 333.015625 92.402344 333.015625 90.058594 C 333.015625 87.710938 334.921875 85.804688 337.265625 85.804688 C 339.609375 85.804688 341.515625 87.710938 341.515625 90.058594 C 341.515625 92.402344 339.609375 94.308594 337.265625 94.308594 Z M 357.769531 95.378906 C 357.769531 93.03125 359.675781 91.125 362.019531 91.125 C 364.367188 91.125 366.269531 93.03125 366.269531 95.378906 C 366.269531 97.722656 364.367188 99.628906 362.019531 99.628906 C 359.675781 99.628906 357.769531 97.722656 357.769531 95.378906 Z M 318.585938 131.355469 C 318.691406 131.472656 318.808594 131.585938 318.921875 131.695312 C 319.199219 131.976562 319.484375 132.246094 319.769531 132.515625 C 319.78125 132.523438 319.789062 132.535156 319.800781 132.539062 C 320.113281 132.839844 320.429688 133.125 320.757812 133.402344 C 320.84375 133.480469 320.921875 133.554688 321.007812 133.625 C 321.308594 133.882812 321.613281 134.140625 321.921875 134.386719 C 321.9375 134.398438 321.957031 134.417969 321.972656 134.429688 C 322.292969 134.691406 322.621094 134.945312 322.953125 135.195312 C 323.003906 135.230469 323.058594 135.273438 323.101562 135.304688 C 323.46875 135.585938 323.847656 135.855469 324.226562 136.121094 C 324.253906 136.144531 324.285156 136.160156 324.308594 136.179688 C 324.628906 136.402344 324.953125 136.621094 325.289062 136.839844 C 325.363281 136.882812 325.4375 136.929688 325.503906 136.980469 C 325.878906 137.21875 326.257812 137.453125 326.644531 137.683594 C 327.054688 137.929688 327.464844 138.164062 327.886719 138.394531 C 328.527344 138.738281 329.179688 139.078125 329.847656 139.390625 C 330.050781 139.496094 330.265625 139.59375 330.480469 139.691406 C 331.710938 140.253906 332.984375 140.757812 334.285156 141.195312 C 334.511719 141.273438 334.742188 141.351562 334.976562 141.425781 C 335.808594 141.6875 336.652344 141.929688 337.511719 142.140625 C 345.667969 144.15625 353.878906 143.5 361.230469 140.742188 C 352.488281 145.847656 341.835938 147.703125 331.296875 145.097656 C 325.242188 143.605469 319.839844 140.789062 315.320312 137.039062 L 317.792969 130.535156 C 318.050781 130.8125 318.316406 131.085938 318.585938 131.355469 Z M 239.035156 89.355469 C 239.296875 89.179688 239.652344 89.242188 239.832031 89.5 C 240.386719 90.308594 244.847656 92.015625 247.238281 91.296875 C 248.042969 91.054688 248.425781 90.585938 248.445312 89.808594 C 248.519531 86.714844 242.492188 82.917969 240.164062 81.71875 C 239.882812 81.574219 239.773438 81.222656 239.917969 80.941406 C 240.058594 80.660156 240.40625 80.550781 240.691406 80.695312 C 240.988281 80.851562 246.785156 83.882812 248.863281 87.398438 C 249.320312 87.679688 249.824219 87.835938 250.359375 87.851562 C 251.230469 87.875 252.0625 87.496094 252.636719 86.796875 C 253.242188 86.054688 253.476562 85.058594 253.265625 84.132812 C 252.273438 79.824219 246.964844 75.695312 246.914062 75.65625 C 246.660156 75.460938 246.613281 75.105469 246.808594 74.851562 C 247.003906 74.601562 247.359375 74.554688 247.613281 74.75 C 247.839844 74.925781 253.292969 79.164062 254.382812 83.882812 C 254.675781 85.148438 254.355469 86.515625 253.523438 87.53125 C 252.75 88.476562 251.632812 89.011719 250.449219 89.011719 C 250.410156 89.011719 250.363281 89.011719 250.324219 89.011719 C 250.039062 89 249.757812 88.953125 249.480469 88.890625 C 249.554688 89.214844 249.601562 89.535156 249.597656 89.851562 C 249.566406 91.117188 248.84375 92.023438 247.570312 92.410156 C 247.078125 92.558594 246.515625 92.621094 245.914062 92.621094 C 243.175781 92.621094 239.664062 91.277344 238.890625 90.164062 C 238.707031 89.894531 238.769531 89.535156 239.035156 89.355469 Z M 264.082031 80.839844 C 264.316406 80.625 264.675781 80.648438 264.890625 80.886719 C 265.101562 81.121094 265.078125 81.480469 264.84375 81.695312 L 260.816406 85.304688 C 260.710938 85.402344 260.570312 85.453125 260.433594 85.453125 C 260.277344 85.453125 260.117188 85.390625 260.003906 85.265625 C 259.792969 85.027344 259.816406 84.667969 260.050781 84.457031 Z M 427.835938 124.148438 L 430.984375 126.3125 C 431.25 126.492188 431.3125 126.851562 431.132812 127.109375 C 431.023438 127.269531 430.839844 127.355469 430.65625 127.355469 C 430.542969 127.355469 430.433594 127.324219 430.332031 127.253906 L 427.183594 125.089844 C 426.917969 124.910156 426.855469 124.550781 427.035156 124.292969 C 427.210938 124.035156 427.574219 123.972656 427.835938 124.148438 Z M 444.3125 118.144531 C 444.535156 117.921875 444.902344 117.925781 445.121094 118.152344 C 445.34375 118.375 445.335938 118.742188 445.113281 118.960938 C 445.074219 119 441.066406 122.976562 439.808594 126.777344 C 439.472656 127.792969 439.632812 128.878906 440.238281 129.757812 C 440.75 130.492188 441.507812 130.96875 442.363281 131.132812 C 443.160156 127.59375 450.269531 124.371094 451.117188 124 C 451.40625 123.875 451.75 124.003906 451.875 124.292969 C 452 124.585938 451.867188 124.921875 451.582031 125.050781 C 449.316406 126.042969 443.433594 129.195312 443.433594 131.765625 C 443.433594 132.550781 443.738281 132.832031 443.96875 132.980469 C 444.5625 133.355469 446.695312 133.855469 453.636719 130.46875 C 453.921875 130.328125 454.265625 130.445312 454.402344 130.730469 C 454.539062 131.019531 454.425781 131.355469 454.140625 131.5 C 450.195312 133.421875 447.207031 134.394531 445.222656 134.394531 C 444.449219 134.394531 443.828125 134.25 443.359375 133.953125 C 442.945312 133.691406 442.464844 133.195312 442.328125 132.292969 C 441.101562 132.113281 440.015625 131.445312 439.300781 130.410156 C 438.480469 129.234375 438.265625 127.777344 438.71875 126.410156 C 440.066406 122.359375 444.140625 118.3125 444.3125 118.144531 Z M 444.3125 118.144531 " fill-opacity="1" fill-rule="nonzero"/><path fill="#fff0fd" d="M 224.097656 107.210938 C 229.722656 113.703125 240.921875 109.976562 240.921875 109.976562 C 241.722656 120.96875 254.683594 118.628906 254.683594 118.628906 C 255.160156 133.980469 264.894531 132.648438 264.894531 132.648438 L 265.191406 132.417969 C 266.144531 129.261719 267.058594 126.003906 267.726562 122.925781 C 268.414062 119.765625 267.605469 116.457031 265.558594 113.957031 C 261.375 108.832031 253.007812 100.296875 241.472656 96.75 C 239.855469 96.25 238.105469 96.4375 236.636719 97.289062 C 233.949219 98.839844 229.222656 101.972656 224.097656 107.210938 Z M 423.617188 147.601562 C 424.214844 145.734375 426.070312 144.609375 428.003906 144.886719 C 437.390625 146.210938 445.800781 144.246094 450.246094 142.84375 C 452.425781 142.152344 454.804688 142.675781 456.496094 144.214844 C 461.445312 148.726562 465.5 153.183594 468.757812 157.550781 L 468.757812 157.558594 C 468.757812 157.558594 460.464844 164.777344 449.960938 153.574219 C 449.960938 153.574219 441.789062 163.90625 433.921875 156.191406 C 433.921875 156.191406 427.984375 166.394531 419.476562 165.25 L 419.386719 164.816406 C 420.667969 157.4375 422.464844 151.199219 423.617188 147.601562 Z M 423.617188 147.601562 " fill-opacity="1" fill-rule="nonzero"/><g clip-path="url(#4e1f6d27c7)"><path fill="#ef8ea0" d="M 225.261719 200.683594 C 237.085938 210.929688 253.816406 220.019531 276.433594 221.09375 L 286.964844 246.703125 L 278.398438 273.253906 L 301.945312 273.253906 L 306.546875 243.917969 L 284.097656 206.261719 C 282.257812 203.167969 279.042969 201.195312 275.464844 200.820312 C 226.414062 195.757812 206.910156 128.585938 206.910156 128.585938 C 205.746094 131.316406 204.828125 134.199219 204.117188 137.308594 C 198.757812 160.667969 207.164062 184.996094 225.261719 200.683594 Z M 403.117188 209.773438 C 404.953125 206.300781 408.902344 204.527344 412.726562 205.425781 C 479.398438 221.105469 476.628906 172.417969 476.539062 171.011719 L 476.542969 171.027344 L 480.121094 184.355469 L 480.121094 184.367188 C 480.464844 187.121094 480.589844 190.070312 480.460938 193.214844 C 478.429688 243.183594 406.289062 222.230469 406.289062 222.230469 L 397.886719 247.429688 L 410.457031 273.253906 L 387.105469 273.253906 L 383.226562 247.429688 Z M 403.117188 209.773438 " fill-opacity="1" fill-rule="nonzero"/></g><path fill="#2b1200" d="M 307.667969 69.984375 C 308.894531 69.945312 310.15625 70.019531 311.421875 70.234375 C 315.367188 70.882812 318.796875 72.71875 321.363281 75.277344 C 326.800781 73.726562 328.574219 72.21875 329.835938 68.09375 C 329.835938 68.09375 349.417969 75.886719 358.234375 58.398438 C 358.234375 58.398438 358.867188 76.792969 379.726562 81.550781 C 379.726562 81.550781 379.722656 85.058594 383.523438 90.316406 C 386.820312 89.425781 390.480469 89.464844 394.050781 90.652344 C 396.097656 91.332031 397.945312 92.328125 399.539062 93.570312 C 406.070312 83.382812 391.90625 45.070312 360.414062 40.152344 C 328.101562 35.109375 307.148438 59.660156 307.667969 69.984375 Z M 307.667969 69.984375 " fill-opacity="1" fill-rule="nonzero"/><path fill="#ffa4a2" d="M 328.710938 58.144531 C 336.261719 58.953125 349.09375 51.257812 355.378906 47.121094 C 356.699219 47.964844 358.230469 48.574219 359.90625 48.847656 C 361.402344 49.089844 362.875 49.042969 364.25 48.761719 C 368.769531 55.21875 377.042969 65.832031 383.863281 67.816406 C 391.03125 69.90625 400.59375 59.792969 403.421875 45.824219 C 404.511719 40.441406 404.597656 34.488281 403.164062 28.4375 C 399.003906 10.875 376.355469 24.53125 367.765625 30.453125 C 366.429688 29.585938 364.882812 28.960938 363.171875 28.683594 C 361.15625 28.351562 359.1875 28.554688 357.414062 29.15625 C 351.445312 20.121094 336.078125 0.00390625 325.78125 14.378906 C 323.304688 17.839844 321.503906 21.523438 320.28125 25.234375 L 320.28125 25.242188 C 315.085938 41.03125 320.382812 57.257812 328.710938 58.144531 Z M 328.710938 58.144531 " fill-opacity="1" fill-rule="nonzero"/><path fill="#fff0fd" d="M 283.523438 246.703125 C 283.523438 248.601562 285.066406 250.144531 286.964844 250.144531 L 315.585938 250.144531 C 316.851562 257.222656 320.730469 262.429688 324.824219 262.226562 C 330.074219 261.96875 338.023438 255.328125 341.882812 251.820312 C 342.875 252.257812 343.988281 252.511719 345.160156 252.515625 C 346.210938 252.523438 347.214844 252.332031 348.125 251.988281 C 351.910156 255.917969 358.707031 262.285156 363.578125 262.910156 C 367.921875 263.464844 372.496094 257.859375 374.0625 250.140625 L 397.894531 250.140625 C 399.792969 250.140625 401.332031 248.597656 401.332031 246.695312 C 401.332031 244.796875 399.792969 243.253906 397.894531 243.253906 L 374.589844 243.253906 C 374.457031 240.199219 373.832031 237.019531 372.554688 233.902344 C 367.828125 222.339844 353.804688 234.109375 348.5625 239.085938 C 347.554688 238.636719 346.429688 238.375 345.230469 238.367188 C 343.8125 238.355469 342.488281 238.707031 341.34375 239.308594 C 336.292969 233.769531 323.625 221.667969 318.125 232.601562 C 316.800781 235.234375 315.964844 237.949219 315.527344 240.617188 L 315.527344 240.625 C 315.382812 241.507812 315.285156 242.386719 315.230469 243.253906 L 286.972656 243.253906 C 285.066406 243.257812 283.523438 244.800781 283.523438 246.703125 Z M 283.523438 246.703125 " fill-opacity="1" fill-rule="nonzero"/><path fill="#ef8ea0" d="M 328.710938 58.144531 C 336.261719 58.953125 349.09375 51.257812 355.378906 47.121094 C 356.699219 47.964844 358.230469 48.574219 359.90625 48.847656 C 361.402344 49.089844 362.875 49.042969 364.25 48.761719 C 368.769531 55.21875 377.042969 65.832031 383.863281 67.816406 C 391.03125 69.90625 400.59375 59.792969 403.421875 45.824219 C 386.132812 65.855469 366.972656 42.574219 366.972656 42.574219 C 359.871094 43.011719 353.503906 40.375 353.503906 40.375 C 319.644531 52.929688 320.265625 25.757812 320.28125 25.242188 C 315.085938 41.03125 320.382812 57.257812 328.710938 58.144531 Z M 328.710938 58.144531 " fill-opacity="1" fill-rule="nonzero"/><path fill="#2b1200" d="M 355.953125 47.121094 L 355.953125 33.78125 C 355.953125 33.464844 355.695312 33.207031 355.378906 33.207031 C 355.066406 33.207031 354.808594 33.464844 354.808594 33.78125 L 354.808594 47.121094 C 354.808594 47.4375 355.066406 47.695312 355.378906 47.695312 C 355.695312 47.695312 355.953125 47.441406 355.953125 47.121094 Z M 364.796875 48.945312 C 364.714844 49.1875 364.492188 49.339844 364.25 49.339844 C 364.195312 49.339844 364.128906 49.328125 364.074219 49.3125 C 363.773438 49.214844 363.609375 48.886719 363.710938 48.589844 L 367.753906 36.394531 C 367.851562 36.09375 368.179688 35.929688 368.476562 36.03125 C 368.773438 36.128906 368.941406 36.457031 368.839844 36.753906 Z M 339.347656 241.742188 C 339.65625 241.675781 339.960938 241.875 340.023438 242.183594 L 342.078125 252.027344 C 342.140625 252.339844 341.945312 252.640625 341.636719 252.707031 C 341.59375 252.710938 341.554688 252.714844 341.515625 252.714844 C 341.25 252.714844 341.011719 252.53125 340.953125 252.257812 L 338.898438 242.414062 C 338.835938 242.109375 339.03125 241.804688 339.347656 241.742188 Z M 350.464844 242.140625 C 350.558594 241.835938 350.878906 241.664062 351.175781 241.753906 C 351.480469 241.847656 351.652344 242.167969 351.5625 242.464844 L 348.664062 252.152344 C 348.589844 252.402344 348.363281 252.5625 348.113281 252.5625 C 348.058594 252.5625 348.007812 252.554688 347.949219 252.539062 C 347.644531 252.445312 347.472656 252.125 347.566406 251.828125 Z M 315.179688 242.316406 C 315.492188 242.328125 315.738281 242.597656 315.726562 242.914062 C 315.726562 242.960938 315.539062 247.730469 316.222656 250.410156 C 316.300781 250.71875 316.113281 251.03125 315.808594 251.109375 C 315.761719 251.121094 315.710938 251.125 315.664062 251.125 C 315.40625 251.125 315.179688 250.953125 315.109375 250.695312 C 314.386719 247.855469 314.574219 243.074219 314.582031 242.875 C 314.59375 242.550781 314.863281 242.292969 315.179688 242.316406 Z M 374.050781 243.757812 C 374.054688 243.441406 374.3125 243.195312 374.640625 243.199219 C 374.957031 243.210938 375.207031 243.476562 375.199219 243.792969 C 375.191406 243.976562 375.070312 248.347656 374.636719 250.195312 C 374.574219 250.460938 374.335938 250.640625 374.078125 250.640625 C 374.035156 250.640625 373.992188 250.632812 373.949219 250.621094 C 373.636719 250.546875 373.449219 250.242188 373.515625 249.933594 C 373.925781 248.195312 374.042969 243.796875 374.050781 243.757812 Z M 303.226562 167.832031 C 303.550781 167.789062 303.824219 168.027344 303.859375 168.34375 C 304.21875 171.8125 305.53125 174.246094 307.757812 175.566406 C 312.570312 178.425781 320.167969 175.328125 320.246094 175.292969 C 320.492188 175.1875 320.78125 175.273438 320.933594 175.492188 C 324.089844 179.957031 327.535156 182.3125 331.175781 182.484375 C 336.601562 182.742188 340.683594 178.035156 340.722656 177.988281 C 340.917969 177.761719 341.257812 177.726562 341.496094 177.902344 C 346.675781 181.738281 351.210938 183.210938 354.96875 182.273438 C 358.980469 181.273438 360.695312 177.765625 360.707031 177.730469 C 360.839844 177.449219 361.171875 177.324219 361.453125 177.449219 C 366.878906 179.792969 371.0625 180.097656 373.890625 178.363281 C 377.175781 176.34375 377.472656 172.125 377.472656 172.085938 C 377.492188 171.769531 377.765625 171.515625 378.082031 171.542969 C 378.398438 171.5625 378.636719 171.832031 378.621094 172.152344 C 378.609375 172.347656 378.292969 176.996094 374.496094 179.339844 C 371.425781 181.238281 367.042969 181.027344 361.476562 178.714844 C 360.816406 179.816406 358.894531 182.472656 355.257812 183.386719 C 354.429688 183.589844 353.566406 183.695312 352.679688 183.695312 C 349.273438 183.695312 345.429688 182.167969 341.222656 179.132812 C 340.050781 180.34375 336.207031 183.859375 331.117188 183.632812 C 327.203125 183.449219 323.550781 181.058594 320.246094 176.519531 C 318.492188 177.175781 311.835938 179.332031 307.160156 176.554688 C 304.609375 175.039062 303.109375 172.3125 302.707031 168.457031 C 302.683594 168.148438 302.914062 167.867188 303.226562 167.832031 Z M 337.367188 187.59375 C 337.367188 189.464844 338.890625 190.984375 340.757812 190.984375 C 342.628906 190.984375 344.148438 189.464844 344.148438 187.59375 C 344.148438 185.722656 342.628906 184.199219 340.757812 184.199219 C 338.890625 184.199219 337.367188 185.722656 337.367188 187.59375 Z M 338.515625 187.59375 C 338.515625 186.351562 339.519531 185.347656 340.757812 185.347656 C 341.996094 185.347656 343 186.351562 343 187.59375 C 343 188.832031 341.992188 189.835938 340.757812 189.835938 C 339.523438 189.835938 338.515625 188.832031 338.515625 187.59375 Z M 337.367188 197.402344 C 337.367188 199.273438 338.890625 200.792969 340.757812 200.792969 C 342.628906 200.792969 344.148438 199.273438 344.148438 197.402344 C 344.148438 195.53125 342.628906 194.007812 340.757812 194.007812 C 338.890625 194.007812 337.367188 195.53125 337.367188 197.402344 Z M 338.515625 197.402344 C 338.515625 196.160156 339.519531 195.15625 340.757812 195.15625 C 341.996094 195.15625 343 196.167969 343 197.402344 C 343 198.632812 341.992188 199.644531 340.757812 199.644531 C 339.523438 199.644531 338.515625 198.632812 338.515625 197.402344 Z M 253.4375 162.71875 C 257.84375 155.984375 261.980469 140.695312 262.023438 140.539062 C 262.101562 140.234375 262.417969 140.050781 262.726562 140.132812 C 263.03125 140.214844 263.214844 140.527344 263.132812 140.839844 C 262.960938 141.476562 258.910156 156.460938 254.402344 163.347656 C 254.292969 163.515625 254.109375 163.605469 253.917969 163.605469 C 253.8125 163.605469 253.703125 163.578125 253.605469 163.515625 C 253.339844 163.335938 253.265625 162.980469 253.4375 162.71875 Z M 419.535156 164.675781 C 419.847656 164.703125 420.085938 164.980469 420.054688 165.292969 C 420.042969 165.421875 418.984375 177.972656 422.136719 189.210938 C 422.222656 189.515625 422.046875 189.832031 421.742188 189.917969 C 421.691406 189.933594 421.636719 189.9375 421.585938 189.9375 C 421.335938 189.9375 421.105469 189.773438 421.035156 189.519531 C 417.824219 178.082031 418.910156 165.324219 418.921875 165.195312 C 418.9375 164.882812 419.210938 164.644531 419.535156 164.675781 Z M 419.535156 164.675781 " fill-opacity="1" fill-rule="nonzero"/><g clip-path="url(#729698dfe7)"><path fill="#94c3df" d="M 285.082031 272.832031 L 234.265625 272.832031 L 228.984375 258.464844 C 228.4375 256.972656 226.226562 257.371094 226.226562 258.957031 L 226.226562 272.832031 L 64.179688 272.832031 L 64.179688 259.097656 C 64.179688 257.484375 61.9375 257.082031 61.382812 258.597656 L 56.144531 272.832031 L 0.492188 272.832031 C 0.492188 245.550781 6.738281 222.71875 16.625 203.679688 C 17.019531 202.90625 17.425781 202.140625 17.839844 201.378906 C 22.839844 192.160156 28.699219 183.84375 35.105469 176.359375 C 35.503906 175.886719 35.90625 175.417969 36.320312 174.957031 C 41.527344 169.007812 47.082031 163.597656 52.804688 158.683594 C 53.207031 158.332031 53.613281 157.988281 54.023438 157.648438 C 54.507812 157.234375 54.996094 156.828125 55.488281 156.421875 C 59.65625 152.984375 63.902344 149.796875 68.164062 146.851562 C 69.199219 146.140625 70.238281 145.441406 71.292969 144.765625 C 71.691406 144.496094 72.101562 144.234375 72.507812 143.980469 C 78.070312 140.453125 83.839844 137.386719 89.773438 134.777344 C 90.171875 134.601562 90.582031 134.425781 90.988281 134.253906 C 91.628906 133.980469 92.265625 133.710938 92.90625 133.449219 C 96.933594 131.808594 101.027344 130.371094 105.167969 129.144531 C 107.226562 128.535156 109.292969 127.976562 111.375 127.472656 C 133.886719 121.960938 157.585938 122.464844 179.882812 128.984375 C 181.675781 129.515625 183.464844 130.082031 185.238281 130.683594 C 189.109375 131.996094 192.929688 133.492188 196.683594 135.179688 C 196.871094 135.261719 197.058594 135.347656 197.25 135.433594 C 197.65625 135.617188 198.058594 135.804688 198.464844 135.992188 C 204.402344 138.761719 210.179688 142.003906 215.734375 145.714844 C 216.140625 145.988281 216.550781 146.261719 216.953125 146.542969 C 217.101562 146.644531 217.253906 146.75 217.40625 146.851562 C 223.089844 150.777344 228.742188 155.125 234.214844 159.9375 C 234.621094 160.289062 235.03125 160.65625 235.433594 161.019531 C 240.460938 165.519531 245.339844 170.417969 249.941406 175.742188 C 250.601562 176.507812 251.261719 177.285156 251.917969 178.070312 C 252.324219 178.5625 252.730469 179.0625 253.132812 179.5625 C 259.648438 187.613281 265.519531 196.582031 270.402344 206.550781 C 270.816406 207.398438 271.226562 208.25 271.621094 209.105469 C 279.941406 227.019531 285.082031 248.097656 285.082031 272.832031 Z M 285.082031 272.832031 " fill-opacity="1" fill-rule="nonzero"/></g><g clip-path="url(#bcb1eb4ae2)"><path fill="#71afd4" d="M 60.683594 260.496094 L 56.144531 272.832031 L 0.492188 272.832031 C 0.492188 217.675781 26.039062 180.710938 55.488281 156.421875 C 55.488281 156.421875 17.109375 213.980469 60.683594 260.496094 Z M 285.082031 272.832031 C 285.082031 230.652344 270.140625 199.113281 249.941406 175.742188 C 260.761719 207.289062 269.144531 232.914062 242.28125 272.832031 Z M 185.238281 130.683594 C 183.464844 130.082031 181.675781 129.515625 179.882812 128.984375 L 191.085938 144.765625 L 196.683594 135.179688 C 192.929688 133.492188 189.109375 131.996094 185.238281 130.683594 Z M 105.167969 129.144531 C 101.027344 130.371094 96.933594 131.808594 92.90625 133.449219 L 99.324219 144.441406 L 111.375 127.472656 C 109.292969 127.976562 107.226562 128.535156 105.167969 129.144531 Z M 105.167969 129.144531 " fill-opacity="1" fill-rule="nonzero"/></g><path fill="#ede6dd" d="M 179.8125 140.496094 L 179.8125 272.832031 L 108.246094 272.832031 L 108.246094 139.066406 C 131.59375 131.839844 156.699219 132.3125 179.8125 140.496094 Z M 179.8125 140.496094 " fill-opacity="1" fill-rule="nonzero"/><path fill="#94c3df" d="M 163.042969 272.832031 L 127.371094 272.832031 L 138.121094 183.933594 L 134.390625 167.320312 L 156.011719 167.371094 L 152.289062 183.933594 Z M 163.042969 272.832031 " fill-opacity="1" fill-rule="nonzero"/><path fill="#71afd4" d="M 96.476562 272.832031 L 88.207031 272.832031 L 85.101562 236.796875 Z M 193.816406 272.832031 L 202.085938 272.832031 L 205.191406 236.796875 Z M 193.816406 272.832031 " fill-opacity="1" fill-rule="nonzero"/><path fill="#94c3df" d="M 183.371094 130.09375 C 183.371094 130.09375 201.019531 141.417969 208.984375 195.800781 C 209.296875 197.96875 208.570312 200.15625 207.019531 201.703125 L 192.417969 216.230469 L 203.625 222.738281 C 206.261719 224.269531 207.582031 227.355469 206.871094 230.324219 C 204.992188 238.148438 200.765625 254.261719 193.9375 272.679688 M 107.035156 130.09375 C 107.035156 130.09375 89.390625 141.417969 81.425781 195.800781 C 81.109375 197.96875 81.839844 200.15625 83.390625 201.703125 L 97.992188 216.230469 L 86.785156 222.738281 C 84.144531 224.269531 82.824219 227.355469 83.535156 230.324219 C 85.417969 238.148438 89.644531 254.261719 96.46875 272.679688 " fill-opacity="1" fill-rule="nonzero"/><g clip-path="url(#3c3cc3d857)"><path fill="#11084e" d="M 193.933594 273.28125 C 193.859375 273.28125 193.792969 273.269531 193.71875 273.246094 C 193.402344 273.128906 193.246094 272.777344 193.359375 272.460938 C 200.15625 254.132812 204.367188 238.097656 206.269531 230.179688 C 206.914062 227.496094 205.699219 224.65625 203.308594 223.261719 L 192.109375 216.746094 C 191.945312 216.648438 191.835938 216.484375 191.808594 216.296875 C 191.785156 216.109375 191.851562 215.917969 191.988281 215.785156 L 206.585938 201.257812 C 207.996094 199.855469 208.667969 197.847656 208.378906 195.882812 C 200.550781 142.394531 183.21875 130.707031 183.042969 130.597656 C 182.765625 130.414062 182.679688 130.039062 182.863281 129.757812 C 183.042969 129.476562 183.421875 129.394531 183.703125 129.574219 C 184.429688 130.042969 201.671875 141.675781 209.578125 195.703125 C 209.925781 198.046875 209.121094 200.449219 207.4375 202.121094 L 193.398438 216.089844 L 203.914062 222.203125 C 206.769531 223.859375 208.222656 227.25 207.449219 230.453125 C 205.539062 238.402344 201.3125 254.484375 194.5 272.875 C 194.414062 273.128906 194.183594 273.28125 193.933594 273.28125 Z M 96.6875 273.238281 C 97.003906 273.125 97.164062 272.773438 97.046875 272.457031 C 90.253906 254.128906 86.042969 238.09375 84.140625 230.171875 C 83.496094 227.488281 84.710938 224.648438 87.101562 223.253906 L 98.308594 216.746094 C 98.472656 216.648438 98.582031 216.484375 98.605469 216.296875 C 98.628906 216.109375 98.5625 215.917969 98.429688 215.785156 L 83.828125 201.257812 C 82.417969 199.855469 81.75 197.847656 82.035156 195.882812 C 89.832031 142.605469 107.140625 130.75 107.371094 130.597656 C 107.652344 130.414062 107.734375 130.039062 107.554688 129.757812 C 107.371094 129.476562 106.992188 129.394531 106.714844 129.574219 C 105.984375 130.042969 88.746094 141.675781 80.835938 195.703125 C 80.496094 198.046875 81.292969 200.449219 82.976562 202.121094 L 97.015625 216.089844 L 86.5 222.203125 C 83.648438 223.859375 82.191406 227.25 82.964844 230.453125 C 84.875 238.402344 89.101562 254.484375 95.917969 272.875 C 96.007812 273.117188 96.238281 273.269531 96.488281 273.269531 C 96.542969 273.28125 96.617188 273.269531 96.6875 273.238281 Z M 96.6875 273.238281 " fill-opacity="1" fill-rule="nonzero"/></g><path fill="#ede6dd" d="M 147.355469 172.589844 C 146.011719 173.296875 144.40625 173.296875 143.058594 172.589844 L 100.589844 150.363281 C 98.625 149.332031 97.722656 147.003906 98.488281 144.921875 C 110.425781 112.632812 140.226562 106.976562 144.898438 106.277344 L 144.898438 106.191406 C 144.898438 106.191406 145.007812 106.203125 145.207031 106.230469 C 145.40625 106.203125 145.519531 106.191406 145.519531 106.191406 L 145.519531 106.277344 C 150.1875 106.972656 179.992188 112.628906 191.925781 144.921875 C 192.691406 147.003906 191.792969 149.332031 189.828125 150.363281 Z M 147.355469 172.589844 " fill-opacity="1" fill-rule="nonzero"/><path fill="#fcc1ae" d="M 192.550781 59.074219 C 192.550781 59.851562 192.527344 60.640625 192.480469 61.433594 L 191.214844 82.761719 C 191.054688 85.460938 190.625 88.089844 189.953125 90.613281 C 187.355469 100.378906 181.140625 108.625 172.910156 113.910156 L 173.007812 119.222656 L 173.316406 136.707031 L 145.519531 163.957031 L 117.089844 130.925781 L 121.453125 113.886719 L 122.925781 108.132812 C 115.398438 100.378906 111.007812 89.621094 111.695312 78.050781 L 112.953125 56.726562 C 112.992188 56.148438 113.035156 55.570312 113.09375 54.996094 C 115.253906 33.980469 133.785156 18.0625 155.066406 19.320312 C 176.144531 20.566406 192.550781 38.214844 192.550781 59.074219 Z M 192.550781 59.074219 " fill-opacity="1" fill-rule="nonzero"/><path fill="#11084e" d="M 194.089844 65.585938 L 181.238281 54.339844 C 157.628906 55.058594 146.148438 45.75 140.570312 36.808594 C 137.523438 41.996094 132.335938 47.398438 123.460938 50.574219 L 117.089844 62.996094 L 109.621094 54.996094 C 109.621094 54.996094 102.441406 50.441406 104.773438 38.992188 C 106.648438 29.769531 125.871094 11.40625 137.828125 15.558594 C 147.703125 0.0117188 172.59375 11.570312 191.0625 27.746094 C 211.402344 45.554688 194.089844 65.585938 194.089844 65.585938 Z M 149.101562 120.164062 C 138.800781 119.558594 129.621094 115.03125 122.925781 108.132812 L 121.453125 113.886719 C 128.179688 120.992188 137.5 125.664062 147.980469 126.285156 C 157.210938 126.832031 165.921875 124.148438 173.007812 119.222656 L 172.910156 113.910156 C 166.054688 118.320312 157.8125 120.683594 149.101562 120.164062 Z M 149.101562 120.164062 " fill-opacity="1" fill-rule="nonzero"/><path fill="#fcc1ae" d="M 211.207031 78.898438 C 209.984375 87.730469 201.007812 96.160156 191.558594 94.847656 C 182.113281 93.539062 175.769531 82.984375 176.992188 74.152344 C 177.671875 69.214844 180.683594 65.125 184.855469 62.710938 C 188.140625 60.8125 192.152344 59.953125 196.316406 60.53125 C 200.375 61.09375 203.921875 62.929688 206.542969 65.550781 C 210.027344 69.011719 211.902344 73.855469 211.207031 78.898438 Z M 92.363281 70.824219 C 92.535156 79.742188 100.460938 89.171875 109.992188 88.984375 C 119.53125 88.792969 127.074219 79.066406 126.902344 70.148438 C 126.804688 65.160156 124.300781 60.75 120.441406 57.863281 C 117.402344 55.585938 113.527344 54.261719 109.324219 54.347656 C 105.230469 54.417969 101.496094 55.832031 98.582031 58.125 C 94.695312 61.148438 92.265625 65.734375 92.363281 70.824219 Z M 92.363281 70.824219 " fill-opacity="1" fill-rule="nonzero"/><path fill="#11084e" d="M 140.667969 65.519531 C 140.535156 67.800781 138.570312 69.546875 136.289062 69.40625 C 134.007812 69.273438 132.261719 67.308594 132.402344 65.027344 C 132.542969 62.746094 134.5 61 136.78125 61.140625 C 139.0625 61.273438 140.804688 63.238281 140.667969 65.519531 Z M 168.304688 63.007812 C 166.023438 62.875 164.058594 64.613281 163.925781 66.894531 C 163.792969 69.175781 165.53125 71.140625 167.8125 71.277344 C 170.09375 71.410156 172.058594 69.667969 172.191406 67.386719 C 172.324219 65.105469 170.585938 63.140625 168.304688 63.007812 Z M 195.601562 86.910156 L 195.679688 86.605469 C 196.3125 84.21875 195.398438 81.648438 193.355469 80.042969 C 190.996094 78.1875 191.804688 74.269531 191.808594 74.230469 C 191.816406 74.203125 191.820312 74.171875 191.820312 74.140625 C 191.984375 71.410156 194.320312 69.316406 197.078125 69.476562 C 198.402344 69.554688 199.613281 70.144531 200.496094 71.136719 C 201.378906 72.128906 201.824219 73.40625 201.742188 74.730469 C 201.726562 75.066406 201.980469 75.351562 202.316406 75.375 C 202.644531 75.398438 202.9375 75.136719 202.960938 74.804688 C 203.058594 73.15625 202.511719 71.566406 201.410156 70.332031 C 200.308594 69.097656 198.800781 68.363281 197.152344 68.265625 C 193.746094 68.058594 190.835938 70.644531 190.613281 74.023438 C 190.507812 74.554688 189.765625 78.777344 192.601562 81.003906 C 194.261719 82.304688 195.003906 84.382812 194.5 86.300781 L 194.417969 86.605469 C 194.335938 86.925781 194.527344 87.261719 194.851562 87.347656 C 194.90625 87.359375 194.953125 87.367188 195.007812 87.367188 C 195.277344 87.359375 195.527344 87.183594 195.601562 86.910156 Z M 107.515625 81.148438 C 107.21875 81.148438 106.957031 80.929688 106.914062 80.625 L 106.871094 80.316406 C 106.523438 77.875 107.734375 75.425781 109.949219 74.066406 C 112.511719 72.503906 112.171875 68.519531 112.164062 68.476562 C 112.164062 68.445312 112.15625 68.417969 112.164062 68.386719 C 112.242188 67.058594 111.800781 65.789062 110.917969 64.789062 C 110.035156 63.800781 108.820312 63.210938 107.5 63.128906 C 104.761719 62.976562 102.40625 65.058594 102.242188 67.796875 C 102.222656 68.128906 101.933594 68.390625 101.597656 68.367188 C 101.261719 68.347656 101.007812 68.058594 101.027344 67.722656 C 101.226562 64.316406 104.160156 61.707031 107.566406 61.914062 C 109.214844 62.011719 110.726562 62.746094 111.824219 63.980469 C 112.914062 65.203125 113.460938 66.773438 113.375 68.410156 C 113.417969 68.945312 113.65625 73.226562 110.578125 75.109375 C 108.777344 76.207031 107.789062 78.1875 108.070312 80.144531 L 108.113281 80.453125 C 108.160156 80.789062 107.929688 81.09375 107.59375 81.140625 C 107.570312 81.140625 107.546875 81.148438 107.515625 81.148438 Z M 152.445312 83.070312 C 150.355469 83.070312 148.363281 82.078125 147.097656 80.371094 L 147.019531 80.261719 C 145.382812 78.039062 145.292969 75 146.800781 72.6875 L 149.246094 68.933594 C 149.429688 68.652344 149.804688 68.574219 150.085938 68.757812 C 150.367188 68.941406 150.445312 69.316406 150.261719 69.597656 L 147.816406 73.351562 C 146.589844 75.234375 146.660156 77.722656 148 79.535156 L 148.078125 79.644531 C 149.253906 81.238281 151.199219 82.066406 153.171875 81.804688 L 156.605469 81.34375 C 156.941406 81.300781 157.246094 81.53125 157.289062 81.867188 C 157.332031 82.199219 157.101562 82.503906 156.765625 82.546875 L 153.328125 83.011719 C 153.035156 83.050781 152.738281 83.070312 152.445312 83.070312 Z M 151.703125 91.804688 C 148.316406 91.804688 144.398438 91.039062 140.585938 88.570312 C 140.304688 88.386719 140.21875 88.011719 140.402344 87.730469 C 140.585938 87.449219 140.960938 87.367188 141.242188 87.546875 C 150.628906 93.625 160.644531 88.753906 160.75 88.703125 C 161.054688 88.550781 161.414062 88.679688 161.566406 88.976562 C 161.71875 89.273438 161.59375 89.640625 161.292969 89.792969 C 161.230469 89.828125 157.15625 91.804688 151.703125 91.804688 Z M 145.207031 173.726562 C 144.375 173.726562 143.535156 173.527344 142.773438 173.128906 L 100.300781 150.902344 C 100.003906 150.746094 99.886719 150.378906 100.046875 150.082031 C 100.203125 149.785156 100.570312 149.667969 100.867188 149.828125 L 143.339844 172.054688 C 144.507812 172.667969 145.902344 172.667969 147.074219 172.054688 L 189.546875 149.828125 C 189.84375 149.667969 190.210938 149.785156 190.367188 150.082031 C 190.527344 150.378906 190.410156 150.746094 190.113281 150.902344 L 147.640625 173.128906 C 146.875 173.527344 146.039062 173.726562 145.207031 173.726562 Z M 152.289062 184.542969 L 138.121094 184.542969 C 137.785156 184.542969 137.511719 184.269531 137.511719 183.933594 C 137.511719 183.601562 137.785156 183.324219 138.121094 183.324219 L 152.289062 183.324219 C 152.621094 183.324219 152.894531 183.601562 152.894531 183.933594 C 152.894531 184.269531 152.621094 184.542969 152.289062 184.542969 Z M 152.289062 184.542969 " fill-opacity="1" fill-rule="nonzero"/></svg>