<svg xmlns="http://www.w3.org/2000/svg" xmlns:xlink="http://www.w3.org/1999/xlink" width="500" zoomAndPan="magnify" viewBox="0 0 375 374.999991" height="500" preserveAspectRatio="xMidYMid meet" version="1.0"><path fill="#ede6dd" d="M 182.0625 302.503906 C 182.0625 302.503906 188.71875 310.851562 192.710938 317.753906 C 196.707031 324.648438 193.195312 335.179688 193.195312 335.179688 C 193.195312 335.179688 196.105469 341.351562 194.40625 343.285156 C 192.710938 345.21875 188.355469 346.675781 178.550781 345.339844 C 168.746094 344.007812 164.757812 347.757812 161.609375 348.730469 C 158.460938 349.695312 126.636719 355.625 127.363281 341.714844 C 128.085938 327.800781 149.871094 326.34375 154.953125 319.929688 C 160.039062 313.515625 170.445312 304.4375 170.445312 304.4375 Z M 218.960938 300.734375 C 218.65625 305.097656 218.03125 316.980469 219.6875 323.988281 C 220.140625 325.929688 220.042969 327.957031 219.445312 329.863281 C 217.746094 335.320312 215.101562 346.285156 219.566406 350.820312 C 225.621094 356.96875 238.148438 359.144531 242.683594 358.421875 C 247.222656 357.695312 258.476562 351.339844 259.023438 341.90625 C 259.414062 335.144531 252.4375 327.445312 248.457031 323.625 C 246.84375 322.078125 245.699219 320.09375 245.207031 317.902344 C 244.15625 313.238281 241.242188 304.453125 233.429688 296.886719 C 226.398438 290.085938 222.550781 292.636719 220.660156 295.507812 C 219.636719 297.050781 219.097656 298.871094 218.960938 300.734375 Z M 218.960938 300.734375 " fill-opacity="1" fill-rule="nonzero"/><path fill="#e8b09a" d="M 210.378906 49.199219 C 210.378906 53.792969 208.722656 58.164062 205.984375 61.613281 C 205.902344 61.726562 205.808594 61.835938 205.722656 61.941406 C 204.257812 63.710938 202.503906 65.21875 200.53125 66.363281 C 200.574219 67.03125 200.640625 67.828125 200.738281 68.710938 C 200.972656 70.800781 201.398438 73.359375 202.183594 75.796875 C 202.695312 77.390625 203.347656 78.925781 204.207031 80.242188 C 204.207031 80.242188 201.394531 83.597656 191.683594 83.597656 C 189.632812 83.597656 187.898438 83.445312 186.429688 83.210938 C 183.804688 82.792969 182.027344 82.097656 180.898438 81.492188 C 179.636719 80.816406 179.15625 80.242188 179.15625 80.242188 C 181.863281 76.039062 182.617188 69.683594 182.832031 66.363281 C 181.722656 65.714844 180.683594 64.957031 179.722656 64.09375 C 175.601562 60.417969 172.984375 54.972656 172.984375 49.199219 C 172.984375 38.871094 181.359375 30.503906 191.683594 30.503906 C 202.003906 30.503906 210.378906 38.871094 210.378906 49.199219 Z M 210.378906 49.199219 " fill-opacity="1" fill-rule="nonzero"/><path fill="#000000" d="M 191.683594 68.800781 C 194.667969 68.800781 197.496094 68.027344 200 66.660156 C 199.0625 70.1875 195.699219 72.796875 191.683594 72.796875 C 187.664062 72.796875 184.296875 70.1875 183.355469 66.660156 C 185.867188 68.019531 188.6875 68.800781 191.683594 68.800781 Z M 210.925781 31.441406 C 208.6875 24.90625 202.210938 25.148438 202.210938 25.148438 C 206.261719 22.0625 204.5625 18.894531 202.515625 20.492188 C 199.488281 22.851562 196.585938 23.457031 196.585938 23.457031 C 196.585938 23.457031 194.46875 19.027344 189.8125 17.40625 C 185.398438 15.871094 188.738281 20.238281 190.5 22.339844 C 185.597656 19.917969 180.1875 21.167969 179.921875 21.230469 C 179.730469 21.273438 179.617188 21.464844 179.660156 21.660156 C 179.703125 21.851562 179.902344 21.972656 180.085938 21.921875 C 180.144531 21.90625 184.410156 20.917969 188.679688 22.363281 C 185.375 22.050781 179.0625 22.148438 176.496094 26.960938 C 176.496094 26.960938 175.289062 29.445312 170.324219 27.511719 C 165.363281 25.574219 166.875 31.867188 170.628906 33.078125 C 170.628906 33.078125 164.097656 38.324219 166.207031 43.726562 C 168.328125 49.128906 169.890625 44.1875 169.890625 44.1875 C 170.558594 48.910156 173.949219 50.246094 173.949219 50.246094 L 174.378906 45.601562 C 182.304688 42.398438 182.910156 38.160156 182.910156 38.160156 C 188.519531 38.636719 192.085938 35.742188 193.871094 33.703125 C 193.566406 34.597656 193.097656 35.507812 192.386719 36.269531 C 191.242188 37.5 189.613281 38.132812 187.558594 38.152344 C 186.96875 38.160156 186.5 38.644531 186.507812 39.234375 C 186.511719 39.816406 186.988281 40.285156 187.574219 40.285156 C 187.574219 40.285156 187.578125 40.285156 187.585938 40.285156 C 190.253906 40.257812 192.394531 39.398438 193.949219 37.726562 C 195.050781 36.539062 195.699219 35.117188 196.082031 33.800781 C 199.195312 39.667969 207.179688 42.824219 207.179688 42.824219 L 208.816406 49.179688 C 212.867188 47.246094 212.625 40.527344 212.625 40.527344 C 215.066406 41.855469 217.347656 40.710938 217.28125 38.648438 C 217.21875 36.582031 213.160156 37.976562 210.925781 31.441406 Z M 210.925781 31.441406 " fill-opacity="1" fill-rule="nonzero"/><path fill="#e8b09a" d="M 176.695312 51.519531 C 178.488281 54.625 178.195312 58.144531 176.046875 59.382812 C 173.902344 60.617188 170.703125 59.113281 168.910156 56.003906 C 167.117188 52.898438 167.410156 49.378906 169.558594 48.140625 C 171.710938 46.90625 174.902344 48.410156 176.695312 51.519531 Z M 206.09375 51.519531 C 204.300781 54.625 204.59375 58.144531 206.738281 59.382812 C 208.886719 60.617188 212.085938 59.113281 213.878906 56.003906 C 215.667969 52.898438 215.378906 49.378906 213.230469 48.140625 C 211.082031 46.90625 207.882812 48.410156 206.09375 51.519531 Z M 206.09375 51.519531 " fill-opacity="1" fill-rule="nonzero"/><path fill="#e8b09a" d="M 235.648438 190.863281 C 235.648438 190.863281 238.925781 208.980469 238.5625 212.25 C 238.199219 215.519531 232.027344 228.34375 228.273438 228.34375 C 224.519531 228.34375 223.070312 193.011719 227.789062 184.964844 C 232.511719 176.910156 235.648438 190.863281 235.648438 190.863281 Z M 235.648438 190.863281 " fill-opacity="1" fill-rule="nonzero"/><path fill="#191970" d="M 200 75.605469 C 200 75.605469 227.257812 85.585938 233.792969 93.214844 C 240.324219 100.835938 218.179688 147.488281 218.179688 147.488281 C 218.179688 147.488281 184.535156 153.484375 165.78125 148.578125 C 165.78125 148.578125 149.386719 107.007812 150.289062 97.203125 C 151.191406 87.398438 184.34375 76.507812 184.34375 76.507812 Z M 209.226562 56.425781 C 208.660156 56.425781 208.195312 56.886719 208.195312 57.453125 C 208.195312 58.023438 208.660156 58.484375 209.226562 58.484375 C 209.796875 58.484375 210.257812 58.023438 210.257812 57.453125 C 210.257812 56.886719 209.796875 56.425781 209.226562 56.425781 Z M 174.859375 57.453125 C 174.859375 58.023438 174.398438 58.484375 173.828125 58.484375 C 173.261719 58.484375 172.800781 58.023438 172.800781 57.453125 C 172.800781 56.886719 173.261719 56.425781 173.828125 56.425781 C 174.398438 56.425781 174.859375 56.886719 174.859375 57.453125 Z M 174.859375 57.453125 " fill-opacity="1" fill-rule="nonzero"/><path fill="#000000" d="M 218.1875 151.554688 L 218.1875 160.230469 C 218.1875 160.441406 218.199219 160.65625 218.234375 160.871094 C 219.257812 167.105469 235.199219 264.46875 238.839844 298.914062 C 238.988281 300.351562 238.363281 301.757812 237.175781 302.582031 C 234.636719 304.34375 229.484375 307.027344 221.421875 307.261719 C 219.542969 307.316406 217.902344 306.023438 217.46875 304.195312 C 214.054688 289.742188 199.367188 226.878906 192.828125 188.953125 C 192.710938 188.285156 192.128906 187.800781 191.453125 187.800781 L 184.457031 187.800781 C 183.875 187.800781 183.414062 188.269531 183.421875 188.851562 C 183.65625 199.460938 185.582031 287.027344 186.648438 305.3125 C 186.734375 306.734375 186.050781 308.078125 184.863281 308.859375 C 181.96875 310.78125 175.871094 313.183594 166.996094 308.25 C 165.953125 307.664062 165.25 306.628906 165.050781 305.449219 C 162.832031 292.023438 149.785156 207.925781 162.453125 160.917969 L 165.007812 151.464844 C 165.46875 149.757812 167.003906 148.554688 168.773438 148.511719 L 214.121094 147.566406 C 216.351562 147.523438 218.1875 149.324219 218.1875 151.554688 Z M 218.1875 151.554688 " fill-opacity="1" fill-rule="nonzero"/><path fill="#ede6dd" d="M 213.644531 125.882812 L 172.804688 125.882812 L 172.804688 108.722656 L 213.644531 108.722656 Z M 216.84375 206.191406 L 211.027344 207.699219 C 210.839844 207.75 210.65625 207.769531 210.472656 207.769531 C 210.066406 207.769531 209.660156 207.65625 209.304688 207.429688 C 208.789062 207.101562 208.4375 206.589844 208.316406 205.992188 L 199.167969 159.433594 C 181.222656 160.871094 161.402344 160.917969 158.851562 160.917969 C 158.6875 160.917969 158.59375 160.917969 158.578125 160.917969 C 158.382812 160.917969 158.222656 160.753906 158.222656 160.5625 C 158.222656 160.371094 158.382812 160.207031 158.578125 160.207031 C 158.59375 160.199219 158.6875 160.207031 158.851562 160.207031 C 160.710938 160.207031 171.847656 160.179688 184.707031 159.605469 C 184.542969 159.417969 184.4375 159.183594 184.429688 158.933594 L 184.117188 151.257812 C 184.097656 150.667969 184.550781 150.167969 185.140625 150.148438 L 195.421875 149.730469 C 195.691406 149.714844 195.984375 149.820312 196.1875 150.011719 C 196.394531 150.207031 196.523438 150.46875 196.53125 150.753906 L 196.84375 158.429688 C 196.851562 158.601562 196.816406 158.757812 196.75 158.90625 C 204.308594 158.359375 211.671875 157.578125 217.445312 156.460938 C 217.636719 156.425781 217.824219 156.546875 217.867188 156.746094 C 217.902344 156.9375 217.773438 157.121094 217.582031 157.164062 C 214.765625 157.707031 211.574219 158.167969 208.175781 158.566406 L 218.433594 203.582031 C 218.703125 204.742188 218 205.894531 216.84375 206.191406 Z M 186.300781 152.230469 L 186.527344 157.777344 L 194.675781 157.441406 L 194.449219 151.898438 Z M 217.746094 203.730469 L 207.472656 158.636719 C 205.027344 158.914062 202.480469 159.15625 199.894531 159.371094 L 209.023438 205.851562 C 209.101562 206.257812 209.339844 206.605469 209.691406 206.824219 C 210.039062 207.046875 210.449219 207.109375 210.855469 207.003906 L 216.671875 205.496094 C 217.445312 205.304688 217.921875 204.523438 217.746094 203.730469 Z M 217.746094 203.730469 " fill-opacity="1" fill-rule="nonzero"/><path fill="#000000" d="M 192.953125 109.816406 C 192.820312 109.816406 192.699219 109.738281 192.632812 109.617188 L 181.015625 86.476562 C 180.933594 86.296875 181.003906 86.085938 181.175781 86 C 181.351562 85.914062 181.566406 85.984375 181.648438 86.15625 L 192.90625 108.578125 L 202.507812 83.554688 C 202.582031 83.367188 202.785156 83.285156 202.972656 83.347656 C 203.15625 83.417969 203.25 83.625 203.179688 83.808594 L 193.289062 109.589844 C 193.238281 109.722656 193.117188 109.808594 192.976562 109.816406 C 192.96875 109.816406 192.960938 109.816406 192.953125 109.816406 Z M 192.953125 109.816406 " fill-opacity="1" fill-rule="nonzero"/><path fill="#8b0000" d="M 181.613281 150.347656 C 181.914062 152.792969 181.175781 155.253906 179.59375 157.144531 C 172.34375 165.78125 166.636719 168.035156 162.773438 168.148438 C 162.234375 167.957031 161.695312 167.746094 161.160156 167.507812 C 159.867188 166.941406 158.480469 166.542969 157.007812 166.371094 C 151.839844 168.632812 149.609375 172.75 148.65625 175.722656 C 148.542969 176.070312 148.355469 176.359375 148.113281 176.601562 C 148.113281 176.609375 148.113281 176.609375 148.113281 176.609375 C 147.320312 177.433594 145.953125 177.570312 144.992188 176.75 L 138.316406 171.085938 C 110.542969 173.808594 104.980469 163.828125 108.542969 140.046875 C 112.113281 116.273438 151.925781 92.191406 151.925781 92.191406 C 150.519531 73.726562 164.496094 67.328125 179.722656 64.09375 C 180.683594 64.957031 181.722656 65.714844 182.832031 66.363281 C 182.636719 69.3125 182.027344 74.667969 179.988281 78.769531 C 179.191406 80.375 178.570312 82.074219 178.023438 83.789062 L 176.175781 89.605469 C 175.265625 92.460938 174.980469 95.484375 175.34375 98.457031 Z M 253.578125 141.503906 C 262.472656 95.398438 232.164062 81.058594 232.164062 81.058594 C 231.941406 66.355469 217.574219 62.402344 205.984375 61.613281 C 205.902344 61.726562 205.808594 61.835938 205.722656 61.941406 C 204.257812 63.710938 202.503906 65.21875 200.53125 66.363281 C 200.574219 67.03125 200.640625 67.828125 200.738281 68.710938 C 200.972656 70.800781 201.398438 73.359375 202.183594 75.796875 L 210.480469 86.539062 C 212.945312 89.730469 213.871094 93.855469 213.003906 97.792969 L 201.734375 149.179688 C 201.128906 151.945312 202.0625 154.828125 204.179688 156.703125 L 213.644531 165.097656 C 213.464844 182.886719 224.746094 185.140625 224.746094 185.140625 L 224.746094 191.242188 C 224.746094 192.476562 225.296875 193.664062 226.277344 194.410156 C 229.367188 196.777344 232.726562 197.261719 234.9375 197.261719 C 236.351562 197.261719 237.566406 196.261719 237.808594 194.859375 L 239.058594 187.800781 C 270.097656 175.664062 253.578125 141.503906 253.578125 141.503906 Z M 197.347656 113.96875 C 197.347656 111.457031 195.308594 109.425781 192.804688 109.425781 C 190.300781 109.425781 188.261719 111.464844 188.261719 113.96875 C 188.261719 116.46875 190.300781 118.511719 192.804688 118.511719 C 195.308594 118.511719 197.347656 116.476562 197.347656 113.96875 Z M 195.214844 113.96875 C 195.214844 115.296875 194.132812 116.378906 192.804688 116.378906 C 191.476562 116.378906 190.394531 115.296875 190.394531 113.96875 C 190.394531 112.636719 191.476562 111.558594 192.804688 111.558594 C 194.132812 111.558594 195.214844 112.636719 195.214844 113.96875 Z M 168.972656 327.046875 C 169.542969 326.507812 169.570312 325.609375 169.03125 325.035156 C 160.925781 316.453125 155.117188 316.949219 154.867188 316.972656 C 154.09375 317.050781 153.546875 317.734375 153.609375 318.507812 C 153.675781 319.28125 154.371094 319.867188 155.140625 319.800781 C 155.1875 319.800781 159.945312 319.558594 166.960938 326.980469 C 167.238281 327.28125 167.617188 327.429688 167.992188 327.429688 C 168.347656 327.4375 168.695312 327.308594 168.972656 327.046875 Z M 162.441406 331.574219 C 163.015625 331.042969 163.050781 330.140625 162.519531 329.5625 C 154.492188 320.910156 148.667969 321.351562 148.433594 321.378906 C 147.660156 321.449219 147.105469 322.132812 147.164062 322.902344 C 147.21875 323.667969 147.894531 324.246094 148.675781 324.210938 C 148.71875 324.195312 153.484375 324.011719 160.4375 331.496094 C 160.710938 331.796875 161.097656 331.953125 161.480469 331.953125 C 161.816406 331.953125 162.164062 331.832031 162.441406 331.574219 Z M 226.566406 324.671875 C 226.78125 324.480469 231.894531 319.972656 240.113281 321.507812 C 240.886719 321.648438 241.625 321.144531 241.769531 320.371094 C 241.910156 319.59375 241.40625 318.855469 240.628906 318.714844 C 230.960938 316.90625 224.898438 322.339844 224.648438 322.574219 C 224.074219 323.101562 224.03125 323.996094 224.554688 324.578125 C 224.832031 324.886719 225.222656 325.042969 225.609375 325.042969 C 225.957031 325.042969 226.296875 324.921875 226.566406 324.671875 Z M 228.210938 332.476562 C 228.421875 332.285156 233.535156 327.777344 241.753906 329.3125 C 242.527344 329.464844 243.269531 328.953125 243.410156 328.175781 C 243.550781 327.402344 243.046875 326.664062 242.273438 326.519531 C 232.605469 324.714844 226.539062 330.144531 226.289062 330.378906 C 225.714844 330.90625 225.671875 331.800781 226.199219 332.386719 C 226.476562 332.691406 226.867188 332.847656 227.25 332.847656 C 227.597656 332.847656 227.941406 332.726562 228.210938 332.476562 Z M 228.210938 332.476562 " fill-opacity="1" fill-rule="nonzero"/><path fill="#e8b09a" d="M 175.125 185.644531 C 175.457031 186.734375 175.621094 187.566406 175.621094 187.976562 C 175.621094 190.515625 173.210938 190.332031 173.210938 190.332031 C 173.210938 190.332031 173.4375 192.136719 172.664062 192.953125 C 171.355469 194.339844 168.945312 193.367188 168.945312 193.367188 C 166.71875 195.320312 163.542969 193.417969 163.542969 193.417969 C 163.542969 193.417969 163.09375 195.320312 161.550781 195.320312 C 160.007812 195.320312 155.828125 191.964844 154.199219 190.785156 C 152.566406 189.605469 148.113281 176.609375 148.113281 176.609375 C 148.113281 176.609375 148.113281 176.609375 148.113281 176.601562 C 148.355469 176.359375 148.542969 176.070312 148.65625 175.722656 C 149.609375 172.75 151.839844 168.632812 157.007812 166.371094 C 158.480469 166.542969 159.867188 166.941406 161.160156 167.507812 C 161.695312 167.746094 162.234375 167.957031 162.773438 168.148438 C 163.171875 168.292969 163.5625 168.417969 163.96875 168.535156 C 167.195312 169.441406 174.597656 172.058594 176.011719 177.300781 C 177.277344 182.003906 176.003906 184.542969 175.125 185.644531 Z M 175.125 185.644531 " fill-opacity="1" fill-rule="nonzero"/><path fill="#ede6dd" d="M 202.722656 72.554688 L 206.15625 79.898438 C 207.960938 83.761719 207.101562 88.375 203.953125 91.246094 C 201.394531 93.585938 197.683594 95.695312 192.648438 95.695312 C 187.179688 95.695312 182.851562 93.179688 179.84375 90.578125 C 176.644531 87.8125 175.585938 83.3125 177.214844 79.367188 C 177.214844 79.367188 178.648438 75.882812 179.652344 73.453125 C 180.164062 72.199219 181.566406 71.554688 182.84375 71.988281 C 191.589844 74.980469 198.085938 72.96875 200.738281 71.792969 C 201.484375 71.46875 202.382812 71.816406 202.722656 72.554688 Z M 202.722656 72.554688 " fill-opacity="1" fill-rule="nonzero"/><path fill="#000000" d="M 187.375 61.691406 C 191.085938 59.273438 196.144531 60.382812 196.359375 60.433594 C 196.550781 60.476562 196.671875 60.667969 196.628906 60.859375 C 196.585938 61.050781 196.394531 61.171875 196.203125 61.128906 C 196.152344 61.117188 191.21875 60.042969 187.765625 62.289062 C 187.707031 62.324219 187.636719 62.347656 187.574219 62.347656 C 187.457031 62.347656 187.34375 62.289062 187.273438 62.183594 C 187.160156 62.027344 187.210938 61.804688 187.375 61.691406 Z M 168.929688 52.34375 C 168.972656 52.355469 169.015625 52.363281 169.050781 52.363281 C 169.195312 52.363281 169.328125 52.277344 169.386719 52.128906 C 169.394531 52.117188 169.820312 50.984375 170.738281 50.695312 C 171.277344 50.523438 171.902344 50.679688 172.601562 51.148438 C 172.761719 51.253906 172.984375 51.21875 173.089844 51.054688 C 173.203125 50.894531 173.160156 50.671875 172.996094 50.566406 C 172.109375 49.960938 171.269531 49.777344 170.507812 50.019531 C 169.265625 50.417969 168.730469 51.824219 168.710938 51.886719 C 168.652344 52.074219 168.746094 52.273438 168.929688 52.34375 Z M 209.867188 51.15625 C 210.566406 50.679688 211.195312 50.523438 211.730469 50.699219 C 212.648438 50.992188 213.082031 52.128906 213.082031 52.136719 C 213.136719 52.277344 213.273438 52.371094 213.414062 52.371094 C 213.457031 52.371094 213.5 52.363281 213.535156 52.351562 C 213.722656 52.277344 213.8125 52.082031 213.75 51.894531 C 213.726562 51.839844 213.195312 50.429688 211.949219 50.027344 C 211.191406 49.777344 210.351562 49.96875 209.460938 50.574219 C 209.300781 50.6875 209.257812 50.90625 209.371094 51.0625 C 209.492188 51.226562 209.710938 51.261719 209.867188 51.15625 Z M 190.941406 57.085938 C 191 57.128906 191.070312 57.140625 191.140625 57.140625 C 191.253906 57.140625 191.367188 57.085938 191.441406 56.984375 C 191.546875 56.820312 191.503906 56.601562 191.339844 56.496094 C 191.011719 56.273438 190.117188 55.585938 189.90625 55.03125 C 189.777344 54.695312 190.585938 53.628906 191.390625 52.875 C 191.53125 52.742188 191.539062 52.515625 191.40625 52.371094 C 191.269531 52.230469 191.050781 52.222656 190.898438 52.355469 C 190.417969 52.804688 188.878906 54.347656 189.234375 55.285156 C 189.570312 56.152344 190.800781 56.992188 190.941406 57.085938 Z M 196.699219 49.648438 C 196.699219 50.898438 197.71875 51.917969 198.96875 51.917969 C 200.21875 51.917969 201.238281 50.898438 201.238281 49.648438 C 201.238281 48.398438 200.21875 47.378906 198.96875 47.378906 C 197.71875 47.378906 196.699219 48.398438 196.699219 49.648438 Z M 181.570312 49.648438 C 181.570312 50.898438 182.589844 51.917969 183.839844 51.917969 C 185.089844 51.917969 186.109375 50.898438 186.109375 49.648438 C 186.109375 48.398438 185.089844 47.378906 183.839844 47.378906 C 182.589844 47.378906 181.570312 48.398438 181.570312 49.648438 Z M 199.574219 45.453125 C 201.804688 45.128906 203.503906 44.097656 203.363281 43.15625 C 203.226562 42.210938 201.300781 41.714844 199.070312 42.042969 C 196.835938 42.367188 195.136719 43.398438 195.277344 44.339844 C 195.421875 45.285156 197.339844 45.78125 199.574219 45.453125 Z M 184.125 45.453125 C 186.355469 45.78125 188.277344 45.285156 188.417969 44.339844 C 188.554688 43.390625 186.863281 42.367188 184.628906 42.042969 C 182.398438 41.714844 180.476562 42.210938 180.335938 43.15625 C 180.199219 44.101562 181.890625 45.132812 184.125 45.453125 Z M 175.550781 187.332031 C 175.59375 187.488281 175.734375 187.59375 175.890625 187.59375 C 175.921875 187.59375 175.957031 187.59375 175.984375 187.578125 C 176.175781 187.53125 176.289062 187.339844 176.238281 187.144531 C 176.148438 186.785156 173.835938 178.257812 167.992188 174.234375 C 167.828125 174.121094 167.609375 174.164062 167.496094 174.328125 C 167.382812 174.492188 167.425781 174.710938 167.585938 174.824219 C 173.210938 178.699219 175.523438 187.246094 175.550781 187.332031 Z M 166.074219 182.105469 C 165.910156 182.210938 165.867188 182.441406 165.980469 182.597656 C 171.207031 190.316406 174.492188 190.949219 174.625 190.976562 C 174.648438 190.976562 174.667969 190.984375 174.683594 190.984375 C 174.855469 190.984375 175.003906 190.863281 175.03125 190.695312 C 175.066406 190.5 174.9375 190.316406 174.746094 190.28125 C 174.71875 190.273438 171.582031 189.605469 166.570312 182.203125 C 166.457031 182.042969 166.238281 182 166.074219 182.105469 Z M 161.671875 185.722656 C 161.574219 185.554688 161.351562 185.503906 161.183594 185.609375 C 161.011719 185.710938 160.960938 185.929688 161.066406 186.101562 C 164.160156 191.132812 170.039062 194.839844 170.289062 194.988281 C 170.347656 195.023438 170.410156 195.042969 170.472656 195.042969 C 170.59375 195.042969 170.707031 194.988281 170.773438 194.875 C 170.878906 194.710938 170.824219 194.488281 170.660156 194.382812 C 170.601562 194.347656 164.679688 190.617188 161.671875 185.722656 Z M 157.890625 187.800781 C 157.761719 187.652344 157.542969 187.628906 157.394531 187.757812 C 157.242188 187.886719 157.222656 188.105469 157.351562 188.253906 C 160.492188 192 164.886719 194.953125 164.929688 194.980469 C 164.992188 195.023438 165.058594 195.039062 165.128906 195.039062 C 165.242188 195.039062 165.355469 194.980469 165.425781 194.882812 C 165.53125 194.71875 165.492188 194.496094 165.328125 194.390625 C 165.277344 194.363281 160.96875 191.46875 157.890625 187.800781 Z M 231.707031 207.835938 C 231.699219 207.96875 231.167969 221.207031 225.785156 221.292969 C 225.585938 221.292969 225.429688 221.457031 225.4375 221.65625 C 225.4375 221.847656 225.601562 222.003906 225.792969 222.003906 C 225.792969 222.003906 225.792969 222.003906 225.800781 222.003906 C 231.851562 221.910156 232.40625 208.4375 232.425781 207.863281 C 232.433594 207.664062 232.277344 207.5 232.085938 207.492188 C 231.886719 207.492188 231.714844 207.636719 231.707031 207.835938 Z M 227.535156 171.972656 C 233.039062 170.511719 234.039062 131.203125 234.148438 126.183594 L 250.769531 101.789062 C 250.882812 101.625 250.839844 101.40625 250.675781 101.300781 C 250.511719 101.191406 250.292969 101.226562 250.1875 101.390625 L 233.507812 125.871094 C 233.472656 125.925781 233.449219 125.988281 233.441406 126.0625 C 233.300781 133.121094 232.902344 141.617188 232.234375 149.332031 C 200.972656 148.554688 171.675781 117.34375 158.679688 101.339844 C 162.277344 103.894531 166.933594 106.453125 171.847656 107.179688 C 171.859375 107.179688 171.882812 107.1875 171.894531 107.1875 C 172.066406 107.1875 172.222656 107.058594 172.246094 106.878906 C 172.273438 106.6875 172.136719 106.503906 171.945312 106.476562 C 166.085938 105.605469 160.59375 102.058594 156.886719 99.109375 C 153.582031 94.921875 151.710938 92.207031 151.625 92.085938 L 147.511719 94.886719 C 147.914062 95.484375 157.589844 109.632812 172.839844 124.113281 C 193.308594 143.566406 213.125 153.71875 231.742188 154.292969 C 230.742188 163.5625 229.289062 170.765625 227.34375 171.285156 C 222.160156 172.664062 213.960938 164.914062 213.882812 164.835938 C 213.742188 164.703125 213.515625 164.707031 213.378906 164.851562 C 213.246094 164.992188 213.25 165.21875 213.394531 165.355469 C 213.714844 165.660156 220.582031 172.167969 226.019531 172.167969 C 226.539062 172.167969 227.050781 172.101562 227.535156 171.972656 Z M 250.3125 135.070312 C 250.136719 135.160156 250.070312 135.375 250.15625 135.546875 L 253.257812 141.660156 C 253.320312 141.78125 253.441406 141.851562 253.578125 141.851562 C 253.632812 141.851562 253.683594 141.835938 253.742188 141.816406 C 253.917969 141.722656 253.980469 141.511719 253.898438 141.339844 L 250.796875 135.226562 C 250.703125 135.054688 250.492188 134.984375 250.3125 135.070312 Z M 215.703125 101.136719 C 215.746094 101.136719 215.789062 101.128906 215.832031 101.113281 C 225.417969 97.351562 231.5 84.300781 231.757812 83.746094 C 231.84375 83.566406 231.765625 83.355469 231.582031 83.277344 C 231.402344 83.199219 231.1875 83.269531 231.109375 83.453125 C 231.046875 83.589844 224.890625 96.796875 215.570312 100.453125 C 215.382812 100.523438 215.300781 100.730469 215.371094 100.914062 C 215.425781 101.050781 215.5625 101.136719 215.703125 101.136719 Z M 192.960938 334.910156 C 192.910156 334.953125 188.113281 338.925781 177.382812 338.117188 C 172.878906 337.789062 168.425781 339.636719 163.273438 341.785156 C 154.535156 345.429688 143.664062 349.96875 128.28125 344.285156 C 128.09375 344.214844 127.886719 344.316406 127.824219 344.5 C 127.753906 344.683594 127.851562 344.890625 128.039062 344.953125 C 133.390625 346.929688 138.203125 347.691406 142.570312 347.691406 C 150.964844 347.691406 157.726562 344.871094 163.550781 342.445312 C 168.617188 340.332031 172.996094 338.507812 177.335938 338.832031 C 188.347656 339.660156 193.222656 335.632812 193.421875 335.457031 C 193.574219 335.328125 193.59375 335.109375 193.464844 334.953125 C 193.339844 334.800781 193.117188 334.78125 192.960938 334.910156 Z M 257.421875 334.824219 C 257.222656 334.824219 257.066406 334.988281 257.074219 335.1875 C 257.175781 340.867188 250.171875 352.640625 240.332031 353.828125 C 230.554688 355 217.496094 343.746094 217.367188 343.632812 C 217.21875 343.503906 217 343.519531 216.863281 343.667969 C 216.734375 343.816406 216.75 344.039062 216.898438 344.171875 C 217.410156 344.621094 229.011719 354.632812 238.824219 354.632812 C 239.359375 354.632812 239.890625 354.601562 240.417969 354.539062 C 250.621094 353.308594 257.886719 341.082031 257.785156 335.179688 C 257.785156 334.972656 257.601562 334.808594 257.421875 334.824219 Z M 150.113281 134.007812 C 147.296875 130.78125 144.367188 129.160156 144.296875 129.125 C 144.125 129.03125 143.90625 129.097656 143.8125 129.273438 C 143.722656 129.445312 143.785156 129.664062 143.964844 129.757812 C 144.304688 129.941406 148.285156 132.148438 151.285156 136.527344 L 151.441406 136.859375 C 151.476562 136.9375 151.542969 136.988281 151.613281 137.023438 C 154.753906 141.914062 156.566406 149.332031 151.257812 159.496094 C 151.171875 159.660156 151.222656 159.859375 151.378906 159.960938 C 151.421875 159.988281 155.976562 163.015625 156.667969 166.449219 C 156.703125 166.621094 156.851562 166.734375 157.015625 166.734375 C 157.039062 166.734375 157.066406 166.734375 157.085938 166.726562 C 157.277344 166.691406 157.40625 166.5 157.363281 166.308594 C 156.710938 163.042969 153.0625 160.273438 152.03125 159.539062 C 157.273438 149.300781 155.351562 141.710938 152.109375 136.667969 C 152.101562 136.632812 152.101562 136.589844 152.082031 136.554688 L 139.363281 109.3125 C 139.277344 109.132812 139.070312 109.054688 138.894531 109.140625 C 138.714844 109.226562 138.636719 109.433594 138.722656 109.609375 Z M 150.113281 134.007812 " fill-opacity="1" fill-rule="nonzero"/></svg>