<svg xmlns="http://www.w3.org/2000/svg" xmlns:xlink="http://www.w3.org/1999/xlink" width="500" zoomAndPan="magnify" viewBox="0 0 375 374.999991" height="500" preserveAspectRatio="xMidYMid meet" version="1.0"><path fill="#dda98c" d="M 160.109375 117.625 C 160.109375 117.625 161.304688 118.222656 163.164062 118.355469 C 166.21875 118.621094 170.867188 117.824219 174.121094 111.320312 C 179.367188 100.894531 189.523438 91.269531 201.609375 95.382812 C 213.691406 99.5 208.179688 127.785156 220 129.710938 C 231.816406 131.636719 238.390625 129.710938 244.167969 106.671875 C 249.945312 83.632812 274.90625 84.695312 288.386719 94.453125 C 301.863281 104.214844 295.558594 128.382812 283.738281 136.617188 C 271.921875 144.847656 266.078125 173.199219 287.523438 167.953125 C 311.160156 162.179688 320.386719 174.460938 309.699219 197.832031 C 292.4375 235.742188 322.84375 214.5625 323.972656 233.550781 C 324.769531 247.296875 302.128906 248.957031 297.347656 254.398438 C 289.316406 263.496094 297.214844 274.851562 299.9375 276.910156 C 304.320312 280.226562 314.746094 288.460938 325.765625 290.917969 C 336.722656 293.375 339.777344 317.277344 327.957031 325.242188 C 316.140625 333.210938 299.40625 337.0625 291.175781 310.703125 C 282.941406 284.34375 258.773438 289.257812 250.804688 301.671875 C 242.839844 314.023438 227.765625 339.585938 213.757812 337.660156 C 199.75 335.734375 192.644531 331.351562 182.152344 317.875 C 171.664062 304.394531 147.894531 330.289062 133.820312 326.105469 C 122.265625 322.65625 119.542969 318.40625 119.808594 300.808594 C 120.074219 283.214844 94.644531 303.332031 85.949219 290.320312 C 78.710938 279.5625 93.449219 268.210938 90.992188 262.632812 C 85.484375 250.351562 66.03125 259.378906 49.230469 264.425781 C 15.503906 274.585938 16.433594 227.445312 45.910156 231.429688 C 68.285156 234.414062 92.1875 237.070312 83.625 218.148438 C 73.664062 196.238281 79.773438 187.671875 86.347656 178.910156 C 92.917969 170.144531 84.15625 158.328125 74.261719 146.507812 C 64.371094 134.691406 72.335938 122.871094 85.550781 125.660156 C 98.761719 128.449219 113.632812 147.238281 128.175781 134.027344 C 128.042969 133.960938 133.753906 106.539062 160.109375 117.625 Z M 160.109375 117.625 " fill-opacity="1" fill-rule="nonzero"/><path fill="#dda98c" d="M 230.554688 78.1875 C 230.554688 78.824219 230.492188 79.457031 230.371094 80.078125 C 230.246094 80.703125 230.0625 81.308594 229.816406 81.898438 C 229.574219 82.484375 229.277344 83.042969 228.921875 83.574219 C 228.570312 84.101562 228.167969 84.59375 227.71875 85.042969 C 227.265625 85.492188 226.777344 85.894531 226.246094 86.25 C 225.71875 86.601562 225.160156 86.902344 224.570312 87.144531 C 223.984375 87.386719 223.378906 87.570312 222.753906 87.695312 C 222.128906 87.820312 221.5 87.882812 220.863281 87.882812 C 220.226562 87.882812 219.59375 87.820312 218.972656 87.695312 C 218.347656 87.570312 217.742188 87.386719 217.152344 87.144531 C 216.566406 86.902344 216.007812 86.601562 215.476562 86.25 C 214.949219 85.894531 214.457031 85.492188 214.007812 85.042969 C 213.558594 84.59375 213.15625 84.101562 212.800781 83.574219 C 212.449219 83.042969 212.148438 82.484375 211.90625 81.898438 C 211.664062 81.308594 211.480469 80.703125 211.355469 80.078125 C 211.230469 79.457031 211.167969 78.824219 211.167969 78.1875 C 211.167969 77.550781 211.230469 76.921875 211.355469 76.296875 C 211.480469 75.671875 211.664062 75.066406 211.90625 74.480469 C 212.148438 73.890625 212.449219 73.332031 212.800781 72.800781 C 213.15625 72.273438 213.558594 71.785156 214.007812 71.332031 C 214.457031 70.882812 214.949219 70.480469 215.476562 70.128906 C 216.007812 69.773438 216.566406 69.476562 217.152344 69.234375 C 217.742188 68.988281 218.347656 68.804688 218.972656 68.679688 C 219.59375 68.554688 220.226562 68.496094 220.863281 68.496094 C 221.5 68.496094 222.128906 68.554688 222.753906 68.679688 C 223.378906 68.804688 223.984375 68.988281 224.570312 69.234375 C 225.160156 69.476562 225.71875 69.773438 226.246094 70.128906 C 226.777344 70.480469 227.265625 70.882812 227.71875 71.332031 C 228.167969 71.785156 228.570312 72.273438 228.921875 72.800781 C 229.277344 73.332031 229.574219 73.890625 229.816406 74.480469 C 230.0625 75.066406 230.246094 75.671875 230.371094 76.296875 C 230.492188 76.921875 230.554688 77.550781 230.554688 78.1875 Z M 230.554688 78.1875 " fill-opacity="1" fill-rule="nonzero"/><path fill="#dda98c" d="M 175.582031 331.550781 C 175.582031 331.953125 175.542969 332.347656 175.464844 332.742188 C 175.386719 333.136719 175.269531 333.519531 175.117188 333.890625 C 174.960938 334.257812 174.773438 334.613281 174.550781 334.945312 C 174.328125 335.277344 174.074219 335.585938 173.792969 335.871094 C 173.507812 336.152344 173.199219 336.40625 172.867188 336.628906 C 172.53125 336.851562 172.179688 337.042969 171.808594 337.195312 C 171.441406 337.347656 171.058594 337.464844 170.664062 337.542969 C 170.269531 337.621094 169.875 337.660156 169.472656 337.660156 C 169.070312 337.660156 168.675781 337.621094 168.28125 337.542969 C 167.886719 337.464844 167.503906 337.347656 167.136719 337.195312 C 166.765625 337.042969 166.414062 336.851562 166.078125 336.628906 C 165.746094 336.40625 165.4375 336.152344 165.152344 335.871094 C 164.871094 335.585938 164.617188 335.277344 164.394531 334.945312 C 164.171875 334.613281 163.984375 334.257812 163.828125 333.890625 C 163.675781 333.519531 163.558594 333.136719 163.480469 332.742188 C 163.402344 332.347656 163.363281 331.953125 163.363281 331.550781 C 163.363281 331.148438 163.402344 330.753906 163.480469 330.359375 C 163.558594 329.964844 163.675781 329.585938 163.828125 329.214844 C 163.984375 328.84375 164.171875 328.492188 164.394531 328.15625 C 164.617188 327.824219 164.871094 327.515625 165.152344 327.230469 C 165.4375 326.949219 165.746094 326.695312 166.078125 326.472656 C 166.414062 326.25 166.765625 326.0625 167.136719 325.90625 C 167.503906 325.753906 167.886719 325.636719 168.28125 325.558594 C 168.675781 325.480469 169.070312 325.441406 169.472656 325.441406 C 169.875 325.441406 170.269531 325.480469 170.664062 325.558594 C 171.058594 325.636719 171.441406 325.753906 171.808594 325.90625 C 172.179688 326.0625 172.53125 326.25 172.867188 326.472656 C 173.199219 326.695312 173.507812 326.949219 173.792969 327.230469 C 174.074219 327.515625 174.328125 327.824219 174.550781 328.15625 C 174.773438 328.492188 174.960938 328.84375 175.117188 329.214844 C 175.269531 329.585938 175.386719 329.964844 175.464844 330.359375 C 175.542969 330.753906 175.582031 331.148438 175.582031 331.550781 Z M 175.582031 331.550781 " fill-opacity="1" fill-rule="nonzero"/><path fill="#dda98c" d="M 282.957031 331.863281 C 283.117188 332.285156 283.25 332.710938 283.351562 333.140625 C 283.453125 333.574219 283.523438 334.003906 283.5625 334.433594 C 283.605469 334.863281 283.613281 335.28125 283.585938 335.691406 C 283.5625 336.101562 283.507812 336.492188 283.417969 336.867188 C 283.332031 337.242188 283.214844 337.589844 283.066406 337.914062 C 282.917969 338.238281 282.746094 338.53125 282.542969 338.792969 C 282.34375 339.054688 282.117188 339.277344 281.871094 339.46875 C 281.621094 339.65625 281.355469 339.804688 281.070312 339.914062 C 280.785156 340.023438 280.488281 340.09375 280.175781 340.117188 C 279.867188 340.144531 279.546875 340.125 279.222656 340.066406 C 278.898438 340.007812 278.574219 339.90625 278.246094 339.765625 C 277.917969 339.625 277.597656 339.441406 277.285156 339.222656 C 276.96875 339.003906 276.664062 338.75 276.371094 338.464844 C 276.082031 338.175781 275.804688 337.859375 275.546875 337.515625 C 275.289062 337.167969 275.054688 336.800781 274.839844 336.410156 C 274.628906 336.023438 274.441406 335.617188 274.277344 335.199219 C 274.117188 334.777344 273.988281 334.351562 273.882812 333.921875 C 273.78125 333.488281 273.710938 333.058594 273.671875 332.628906 C 273.632812 332.199219 273.625 331.78125 273.648438 331.371094 C 273.671875 330.960938 273.726562 330.570312 273.816406 330.195312 C 273.902344 329.820312 274.019531 329.472656 274.167969 329.148438 C 274.316406 328.824219 274.488281 328.53125 274.691406 328.269531 C 274.894531 328.007812 275.117188 327.785156 275.367188 327.59375 C 275.613281 327.40625 275.878906 327.257812 276.164062 327.148438 C 276.449219 327.039062 276.75 326.96875 277.058594 326.945312 C 277.371094 326.917969 277.6875 326.9375 278.011719 326.996094 C 278.335938 327.054688 278.664062 327.15625 278.988281 327.296875 C 279.316406 327.4375 279.636719 327.621094 279.953125 327.839844 C 280.265625 328.058594 280.570312 328.3125 280.863281 328.597656 C 281.15625 328.886719 281.429688 329.203125 281.6875 329.546875 C 281.945312 329.894531 282.179688 330.261719 282.394531 330.652344 C 282.609375 331.042969 282.796875 331.445312 282.957031 331.863281 Z M 282.957031 331.863281 " fill-opacity="1" fill-rule="nonzero"/><path fill="#dda98c" d="M 351.925781 197.789062 C 352.421875 198.332031 352.878906 198.902344 353.296875 199.5 C 353.714844 200.097656 354.082031 200.714844 354.398438 201.347656 C 354.714844 201.980469 354.980469 202.617188 355.1875 203.257812 C 355.394531 203.898438 355.542969 204.53125 355.632812 205.15625 C 355.722656 205.78125 355.75 206.386719 355.71875 206.972656 C 355.683594 207.558594 355.589844 208.113281 355.4375 208.636719 C 355.285156 209.164062 355.074219 209.644531 354.804688 210.085938 C 354.539062 210.527344 354.21875 210.917969 353.847656 211.261719 C 353.472656 211.605469 353.054688 211.890625 352.59375 212.121094 C 352.132812 212.347656 351.632812 212.519531 351.097656 212.628906 C 350.5625 212.734375 350.003906 212.78125 349.414062 212.765625 C 348.828125 212.746094 348.226562 212.667969 347.613281 212.527344 C 346.996094 212.386719 346.378906 212.183594 345.757812 211.921875 C 345.136719 211.660156 344.523438 211.347656 343.917969 210.976562 C 343.316406 210.605469 342.734375 210.1875 342.171875 209.722656 C 341.609375 209.257812 341.082031 208.753906 340.582031 208.210938 C 340.085938 207.667969 339.625 207.097656 339.210938 206.5 C 338.792969 205.898438 338.425781 205.285156 338.109375 204.652344 C 337.789062 204.019531 337.527344 203.382812 337.320312 202.742188 C 337.113281 202.101562 336.964844 201.46875 336.875 200.84375 C 336.785156 200.214844 336.757812 199.609375 336.789062 199.023438 C 336.824219 198.4375 336.914062 197.882812 337.070312 197.359375 C 337.222656 196.835938 337.433594 196.355469 337.699219 195.914062 C 337.96875 195.472656 338.289062 195.078125 338.660156 194.738281 C 339.035156 194.394531 339.453125 194.109375 339.914062 193.878906 C 340.375 193.648438 340.875 193.480469 341.410156 193.371094 C 341.945312 193.261719 342.503906 193.21875 343.089844 193.234375 C 343.679688 193.25 344.28125 193.332031 344.894531 193.472656 C 345.511719 193.613281 346.128906 193.816406 346.75 194.078125 C 347.371094 194.335938 347.984375 194.652344 348.585938 195.023438 C 349.191406 195.394531 349.773438 195.8125 350.335938 196.277344 C 350.894531 196.742188 351.425781 197.246094 351.925781 197.789062 Z M 351.925781 197.789062 " fill-opacity="1" fill-rule="nonzero"/><path fill="#dda98c" d="M 96.304688 332.8125 C 93.117188 337.328125 87.675781 338.988281 84.222656 336.53125 C 80.769531 334.074219 80.503906 328.429688 83.757812 323.847656 C 86.945312 319.335938 96.238281 313.625 99.691406 316.082031 C 103.144531 318.605469 99.558594 328.296875 96.304688 332.8125 Z M 96.304688 332.8125 " fill-opacity="1" fill-rule="nonzero"/><path fill="#dda98c" d="M 33.628906 177.316406 C 27.054688 173.996094 24 166.691406 26.855469 160.984375 C 29.710938 155.273438 37.414062 153.347656 43.984375 156.667969 C 50.558594 159.988281 59.65625 171.671875 56.800781 177.382812 C 53.945312 183.09375 40.203125 180.636719 33.628906 177.316406 Z M 33.628906 177.316406 " fill-opacity="1" fill-rule="nonzero"/><path fill="#dda98c" d="M 154.667969 61.855469 C 156.59375 66.835938 156.128906 77.523438 151.148438 79.449219 C 146.167969 81.375 138.597656 73.804688 136.671875 68.828125 C 134.75 63.847656 137.203125 58.269531 142.183594 56.34375 C 147.164062 54.417969 152.742188 56.875 154.667969 61.855469 Z M 154.667969 61.855469 " fill-opacity="1" fill-rule="nonzero"/><path fill="#a0522d" d="M 190.367188 301.367188 C 194.769531 305.585938 196.742188 316.765625 196.046875 323.621094 C 195.351562 330.472656 203.800781 338.128906 200.984375 345.265625 C 198.171875 352.40625 189.058594 359.445312 177.4375 354.140625 C 163.640625 347.832031 175.554688 332.636719 174.257812 323.199219 C 172.964844 313.773438 177.28125 303.066406 177.28125 303.066406 C 179.183594 296.9375 185.96875 297.152344 190.367188 301.367188 Z M 227.886719 301.890625 C 223.964844 306.550781 223.1875 317.878906 224.609375 324.621094 C 226.03125 331.363281 218.441406 339.871094 221.996094 346.671875 C 225.550781 353.472656 235.367188 359.503906 246.351562 352.988281 C 259.402344 345.242188 245.941406 331.402344 246.21875 321.890625 C 246.496094 312.378906 241.070312 302.195312 241.070312 302.195312 C 238.53125 296.292969 231.804688 297.226562 227.886719 301.890625 Z M 227.886719 301.890625 " fill-opacity="1" fill-rule="nonzero"/><path fill="#f7b5a4" d="M 127.84375 107.367188 L 133.253906 118.570312 L 121.515625 124.269531 L 116.671875 109.761719 C 112.601562 107.757812 109.878906 102.152344 109.878906 102.152344 C 109.878906 102.152344 100.609375 98.304688 99.851562 96.613281 C 98.3125 93.1875 111.121094 97.574219 111.121094 97.574219 C 111.121094 97.574219 99.03125 83.941406 101.476562 81.90625 C 103.921875 79.863281 114.277344 93.171875 114.277344 93.171875 C 114.277344 93.171875 104.476562 72.992188 107.882812 72.632812 C 111.277344 72.273438 119.824219 90.875 119.824219 90.875 C 117.03125 72.371094 117.617188 69.410156 119.824219 71.871094 C 123.257812 75.695312 126.683594 94.917969 126.683594 94.917969 C 130.761719 84.179688 135.460938 85.453125 135.867188 88.03125 C 136.277344 90.613281 134.375 92.042969 130.710938 100.332031 C 129.371094 103.347656 128.800781 105.96875 127.84375 107.367188 Z M 127.84375 107.367188 " fill-opacity="1" fill-rule="nonzero"/><path fill="#000000" d="M 179.804688 322.984375 C 179.546875 322.984375 179.300781 322.855469 179.160156 322.625 C 178.941406 322.273438 179.054688 321.808594 179.414062 321.597656 C 184.71875 318.375 189.957031 320.695312 190.171875 320.789062 C 190.546875 320.964844 190.710938 321.40625 190.546875 321.785156 C 190.375 322.160156 189.933594 322.324219 189.558594 322.160156 C 189.492188 322.128906 184.800781 320.078125 180.199219 322.878906 C 180.074219 322.945312 179.9375 322.984375 179.804688 322.984375 Z M 180.789062 329.554688 C 185.40625 326.746094 190.105469 328.8125 190.160156 328.835938 C 190.53125 329.007812 190.972656 328.84375 191.148438 328.460938 C 191.320312 328.085938 191.152344 327.636719 190.773438 327.464844 C 190.554688 327.367188 185.316406 325.046875 180.011719 328.273438 C 179.660156 328.492188 179.546875 328.945312 179.757812 329.296875 C 179.898438 329.53125 180.148438 329.65625 180.402344 329.65625 C 180.527344 329.664062 180.664062 329.628906 180.789062 329.554688 Z M 180.789062 336.242188 C 185.40625 333.4375 190.105469 335.5 190.160156 335.523438 C 190.53125 335.695312 190.972656 335.53125 191.148438 335.148438 C 191.320312 334.777344 191.152344 334.328125 190.773438 334.15625 C 190.554688 334.058594 185.316406 331.738281 180.011719 334.960938 C 179.660156 335.179688 179.546875 335.636719 179.757812 335.988281 C 179.898438 336.21875 180.148438 336.347656 180.402344 336.347656 C 180.527344 336.347656 180.664062 336.308594 180.789062 336.242188 Z M 230.519531 322.796875 C 230.5625 322.765625 234.941406 320.09375 239.894531 322.257812 C 240.277344 322.421875 240.71875 322.25 240.882812 321.867188 C 241.046875 321.488281 240.875 321.050781 240.492188 320.878906 C 234.800781 318.394531 229.929688 321.398438 229.726562 321.523438 C 229.375 321.742188 229.269531 322.203125 229.496094 322.558594 C 229.636719 322.78125 229.882812 322.910156 230.128906 322.910156 C 230.257812 322.914062 230.398438 322.878906 230.519531 322.796875 Z M 230.828125 329.5 C 230.871094 329.46875 235.25 326.800781 240.203125 328.960938 C 240.582031 329.125 241.023438 328.953125 241.191406 328.574219 C 241.355469 328.191406 241.183594 327.757812 240.800781 327.585938 C 235.105469 325.101562 230.234375 328.101562 230.03125 328.226562 C 229.679688 328.445312 229.578125 328.910156 229.800781 329.261719 C 229.941406 329.484375 230.191406 329.613281 230.4375 329.613281 C 230.570312 329.613281 230.707031 329.574219 230.828125 329.5 Z M 231.722656 336.121094 C 231.769531 336.09375 236.125 333.414062 241.101562 335.582031 C 241.480469 335.75 241.921875 335.578125 242.085938 335.195312 C 242.253906 334.8125 242.078125 334.378906 241.699219 334.207031 C 236.003906 331.722656 231.132812 334.722656 230.921875 334.851562 C 230.570312 335.066406 230.46875 335.53125 230.691406 335.882812 C 230.832031 336.109375 231.074219 336.234375 231.328125 336.234375 C 231.460938 336.234375 231.605469 336.195312 231.722656 336.121094 Z M 165.324219 188.433594 C 165.902344 197.40625 172.125 293.914062 173.167969 310.023438 C 173.253906 311.40625 174.242188 312.566406 175.597656 312.851562 C 179.570312 313.699219 188.101562 315.015625 196.113281 312.941406 C 197.410156 312.605469 198.316406 311.445312 198.382812 310.105469 L 203.097656 215.542969 C 203.105469 215.371094 203.238281 215.234375 203.402344 215.21875 L 208.339844 214.769531 C 208.574219 214.75 208.78125 214.921875 208.8125 215.152344 L 221.167969 309.011719 C 221.339844 310.332031 222.324219 311.394531 223.628906 311.648438 C 228.085938 312.53125 238.375 313.921875 244.839844 309.605469 C 245.738281 309.003906 246.277344 308.003906 246.253906 306.925781 L 243.636719 188.46875 C 243.621094 187.910156 243.464844 187.371094 243.164062 186.898438 C 238.234375 179.011719 194.003906 111.746094 165.527344 187.132812 C 165.363281 187.542969 165.292969 187.984375 165.324219 188.433594 Z M 165.324219 188.433594 " fill-opacity="1" fill-rule="nonzero"/><path fill="#654321" d="M 274.652344 135.851562 C 272.511719 131.140625 268.746094 123.582031 262.140625 111.511719 C 249.683594 88.75 248.933594 88.59375 245.101562 88.144531 C 233.871094 81.261719 207.136719 74.4375 204.308594 73.882812 L 204.308594 73.816406 C 204.308594 73.816406 204.25 73.832031 204.136719 73.847656 C 204.03125 73.824219 203.964844 73.816406 203.964844 73.816406 L 203.964844 73.882812 C 200.6875 74.527344 176.765625 78.6875 167.238281 88.09375 C 165.527344 87.859375 162.300781 88.285156 158.917969 93.226562 C 153.949219 100.484375 145.546875 126.035156 145.546875 126.035156 L 134.445312 110.890625 C 133.15625 108.78125 130.3125 108.234375 128.359375 109.746094 C 125.875 111.664062 122.351562 113.832031 118.722656 114.25 C 116.351562 114.527344 114.734375 116.789062 115.09375 119.144531 C 116.222656 126.410156 119.128906 139.550781 126.117188 148.582031 C 136.238281 161.660156 143.878906 160.394531 154.960938 151.738281 C 159.351562 148.304688 163.597656 143.253906 167.121094 138.40625 C 167.734375 141.039062 168.296875 143.074219 168.707031 144.21875 C 168.96875 144.953125 169.019531 145.746094 168.855469 146.507812 L 159.996094 187.617188 C 159.488281 189.964844 161.058594 192.257812 163.4375 192.628906 L 198.398438 198.25 C 199.722656 198.460938 200.976562 197.613281 201.277344 196.304688 L 204.578125 181.816406 L 209.148438 195.488281 C 209.582031 196.992188 211.066406 197.941406 212.613281 197.695312 L 244.839844 192.628906 C 247.210938 192.257812 248.785156 189.964844 248.28125 187.617188 L 246.949219 181.4375 C 260.148438 169.859375 269.0625 157.359375 273.6875 150.019531 C 276.371094 145.761719 276.730469 140.441406 274.652344 135.851562 Z M 241.023438 153.921875 L 239.421875 146.507812 C 239.257812 145.730469 239.320312 144.929688 239.589844 144.179688 C 240.238281 142.355469 241.308594 138.324219 242.402344 133.226562 C 246.710938 138.636719 250.878906 143.285156 250.878906 143.285156 C 249.53125 144.0625 245.53125 148.566406 241.023438 153.921875 Z M 241.023438 153.921875 " fill-opacity="1" fill-rule="nonzero"/><path fill="#a0522d" d="M 210.554688 109.898438 C 207.601562 115.238281 204.855469 119.292969 204.21875 120.222656 L 204.21875 120.4375 C 204.21875 120.4375 204.1875 120.394531 204.144531 120.328125 C 204.097656 120.394531 204.070312 120.4375 204.070312 120.4375 L 204.070312 120.222656 C 203.433594 119.292969 200.6875 115.238281 197.730469 109.898438 C 193.03125 101.382812 187.808594 89.605469 189.785156 82.039062 C 193.023438 69.640625 203.222656 70.292969 204.144531 70.375 C 205.0625 70.292969 215.261719 69.640625 218.503906 82.039062 C 220.476562 89.605469 215.253906 101.382812 210.554688 109.898438 Z M 210.554688 109.898438 " fill-opacity="1" fill-rule="nonzero"/><path fill="#f7b5a4" d="M 212.816406 67.84375 L 214.066406 76.082031 C 214.265625 77.390625 213.59375 78.671875 212.410156 79.261719 L 204 83.4375 L 195.589844 79.261719 C 194.410156 78.671875 193.734375 77.390625 193.9375 76.082031 L 195.1875 67.84375 C 189.074219 64.164062 184.890625 56.761719 184.890625 48.234375 C 184.890625 36.023438 193.445312 26.121094 203.992188 26.121094 C 214.542969 26.121094 223.105469 36.015625 223.105469 48.226562 C 223.105469 56.753906 218.929688 64.164062 212.816406 67.84375 Z M 212.816406 67.84375 " fill-opacity="1" fill-rule="nonzero"/><path fill="#000000" d="M 215.171875 22.484375 C 201.375 15.511719 192.972656 23.152344 192.972656 23.152344 C 192.972656 23.152344 182.863281 24.535156 181.34375 35.476562 C 179.824219 46.414062 182.910156 50.46875 185.632812 48.226562 C 187.691406 46.527344 189.289062 43.878906 190.480469 41.253906 C 191.511719 41.507812 192.996094 41.558594 194.609375 41.347656 C 196.28125 41.132812 197.730469 40.683594 198.667969 40.160156 C 199.625 40.945312 200.695312 41.597656 201.867188 41.96875 C 207.242188 43.691406 201.382812 36.238281 203.246094 29.265625 C 203.246094 29.265625 204.742188 34.054688 209.351562 37.621094 C 207.210938 37.59375 205.601562 38.066406 205.503906 38.851562 C 205.378906 39.84375 207.675781 40.960938 210.636719 41.34375 C 212.996094 41.648438 215.0625 41.394531 215.875 40.78125 C 216.550781 40.953125 217.261719 41.09375 218 41.199219 C 218 41.199219 219.371094 47.117188 222.691406 46.738281 C 226 46.371094 228.96875 29.460938 215.171875 22.484375 Z M 194.140625 37.757812 C 193.242188 37.878906 192.402344 38.058594 191.679688 38.289062 C 192.769531 35.242188 193.265625 32.8125 193.265625 32.8125 C 193.265625 32.8125 194.3125 35.234375 196.210938 37.628906 C 195.570312 37.621094 194.867188 37.660156 194.140625 37.757812 Z M 214.402344 47.3125 C 214.402344 48.808594 213.191406 50.023438 211.695312 50.023438 C 210.195312 50.023438 208.984375 48.808594 208.984375 47.3125 C 208.984375 45.816406 210.195312 44.605469 211.695312 44.605469 C 213.191406 44.605469 214.402344 45.816406 214.402344 47.3125 Z M 194.761719 50.023438 C 193.265625 50.023438 192.050781 48.808594 192.050781 47.3125 C 192.050781 45.816406 193.265625 44.605469 194.761719 44.605469 C 196.257812 44.605469 197.46875 45.816406 197.46875 47.3125 C 197.46875 48.808594 196.257812 50.023438 194.761719 50.023438 Z M 204 70.34375 C 207.070312 70.34375 209.972656 69.507812 212.539062 68.007812 C 211.507812 71.355469 208.070312 73.808594 204 73.808594 C 199.929688 73.808594 196.496094 71.355469 195.464844 68.007812 C 198.03125 69.507812 200.933594 70.34375 204 70.34375 Z M 204 70.34375 " fill-opacity="1" fill-rule="nonzero"/><path fill="#f7b5a4" d="M 191.476562 48.480469 C 193.183594 52.339844 191.902344 56.652344 188.609375 58.101562 C 185.316406 59.554688 181.269531 57.609375 179.5625 53.746094 C 177.859375 49.886719 179.136719 45.578125 182.429688 44.125 C 185.722656 42.671875 189.769531 44.621094 191.476562 48.480469 Z M 216.535156 48.480469 C 214.828125 52.339844 216.109375 56.652344 219.402344 58.101562 C 222.691406 59.554688 226.742188 57.609375 228.445312 53.746094 C 230.152344 49.886719 228.875 45.578125 225.582031 44.125 C 222.289062 42.667969 218.242188 44.621094 216.535156 48.480469 Z M 216.535156 48.480469 " fill-opacity="1" fill-rule="nonzero"/><path fill="#000000" d="M 221.070312 49.863281 C 221.007812 49.863281 220.941406 49.847656 220.882812 49.820312 C 220.703125 49.714844 220.636719 49.492188 220.738281 49.3125 C 221.660156 47.679688 222.804688 46.730469 224.136719 46.496094 C 226.105469 46.144531 227.734375 47.5 227.804688 47.558594 C 227.960938 47.695312 227.984375 47.925781 227.847656 48.082031 C 227.714844 48.242188 227.480469 48.261719 227.324219 48.128906 C 227.308594 48.113281 225.886719 46.945312 224.273438 47.238281 C 223.171875 47.441406 222.207031 48.261719 221.398438 49.683594 C 221.324219 49.796875 221.203125 49.863281 221.070312 49.863281 Z M 186.890625 49.8125 C 187.070312 49.707031 187.136719 49.484375 187.03125 49.304688 C 186.109375 47.671875 184.964844 46.722656 183.632812 46.488281 C 181.660156 46.136719 180.035156 47.492188 179.96875 47.550781 C 179.808594 47.6875 179.789062 47.917969 179.921875 48.074219 C 180.058594 48.234375 180.289062 48.253906 180.445312 48.121094 C 180.460938 48.105469 181.867188 46.9375 183.5 47.230469 C 184.597656 47.425781 185.570312 48.25 186.378906 49.675781 C 186.449219 49.796875 186.574219 49.863281 186.710938 49.863281 C 186.769531 49.863281 186.835938 49.847656 186.890625 49.8125 Z M 202.699219 54.554688 C 202.773438 54.363281 202.675781 54.144531 202.484375 54.078125 C 202.429688 54.054688 201.179688 53.566406 201.128906 52.371094 C 201.082031 51.367188 202.667969 50.285156 203.289062 49.945312 C 203.46875 49.847656 203.539062 49.625 203.441406 49.4375 C 203.34375 49.257812 203.109375 49.191406 202.929688 49.289062 C 202.660156 49.429688 200.304688 50.753906 200.378906 52.402344 C 200.453125 54.09375 202.144531 54.742188 202.214844 54.773438 C 202.257812 54.789062 202.304688 54.796875 202.339844 54.796875 C 202.496094 54.796875 202.640625 54.707031 202.699219 54.554688 Z M 202.699219 54.554688 " fill-opacity="1" fill-rule="nonzero"/><path fill="#b22222" d="M 210.554688 109.898438 C 207.601562 115.238281 204.855469 119.292969 204.21875 120.222656 L 204.21875 120.4375 C 204.21875 120.4375 204.1875 120.394531 204.144531 120.328125 C 204.097656 120.394531 204.070312 120.4375 204.070312 120.4375 L 204.070312 120.222656 C 203.433594 119.292969 200.6875 115.238281 197.730469 109.898438 L 201.398438 93.511719 L 199.863281 89.714844 L 204.007812 85.71875 L 204.277344 85.71875 L 208.421875 89.714844 L 206.890625 93.511719 Z M 210.554688 109.898438 " fill-opacity="1" fill-rule="nonzero"/><path fill="#a0522d" d="M 212.390625 58.6875 C 211.484375 60.640625 209.148438 64.019531 203.851562 64.019531 C 198.636719 64.019531 196.003906 60.742188 194.886719 58.777344 C 194.519531 58.132812 194.976562 57.332031 195.726562 57.332031 L 211.515625 57.332031 C 212.210938 57.339844 212.6875 58.058594 212.390625 58.6875 Z M 201.882812 127.609375 C 200.730469 127.609375 199.804688 128.542969 199.804688 129.6875 C 199.804688 130.839844 200.738281 131.769531 201.882812 131.769531 C 203.035156 131.769531 203.964844 130.832031 203.964844 129.6875 C 203.964844 128.542969 203.035156 127.609375 201.882812 127.609375 Z M 203.484375 140.351562 C 203.484375 141.503906 202.550781 142.429688 201.40625 142.429688 C 200.261719 142.429688 199.324219 141.496094 199.324219 140.351562 C 199.324219 139.207031 200.261719 138.269531 201.40625 138.269531 C 202.550781 138.269531 203.484375 139.199219 203.484375 140.351562 Z M 131.21875 114.191406 C 128.128906 117.003906 122.972656 118.726562 120.21875 119.496094 C 119.203125 119.78125 118.15625 119.175781 117.894531 118.148438 L 117.085938 115.015625 C 116.835938 114.050781 117.382812 113.0625 118.328125 112.753906 C 122.34375 111.421875 125.800781 109.761719 127.703125 108.773438 C 128.585938 108.316406 129.671875 108.625 130.1875 109.484375 L 131.585938 111.820312 C 132.042969 112.589844 131.886719 113.585938 131.21875 114.191406 Z M 131.21875 114.191406 " fill-opacity="1" fill-rule="nonzero"/><path fill="#000000" d="M 193.003906 94.730469 C 191.679688 93.210938 189.410156 90.1875 189.027344 86.960938 C 189.007812 86.761719 189.148438 86.574219 189.359375 86.542969 C 189.566406 86.519531 189.746094 86.664062 189.777344 86.871094 C 190.136719 89.894531 192.304688 92.785156 193.570312 94.234375 C 193.714844 94.398438 193.921875 94.496094 194.140625 94.511719 C 194.371094 94.527344 194.582031 94.4375 194.746094 94.28125 L 203.753906 85.457031 C 203.898438 85.316406 204.128906 85.316406 204.277344 85.457031 L 213.421875 94.289062 C 213.585938 94.445312 213.804688 94.527344 214.027344 94.519531 C 214.253906 94.511719 214.453125 94.414062 214.597656 94.242188 C 215.859375 92.792969 218.039062 89.902344 218.398438 86.878906 C 218.421875 86.679688 218.613281 86.527344 218.808594 86.550781 C 219.011719 86.574219 219.160156 86.761719 219.136719 86.96875 C 218.757812 90.195312 216.480469 93.226562 215.15625 94.738281 C 214.875 95.058594 214.484375 95.246094 214.058594 95.269531 C 214.035156 95.269531 214.011719 95.269531 213.992188 95.269531 C 213.585938 95.269531 213.191406 95.109375 212.898438 94.828125 L 204.015625 86.25 L 195.269531 94.820312 C 194.960938 95.117188 194.542969 95.28125 194.109375 95.269531 C 193.675781 95.238281 193.285156 95.050781 193.003906 94.730469 Z M 201.332031 93.144531 C 201.128906 93.179688 200.992188 93.375 201.03125 93.578125 C 201.0625 93.757812 201.21875 93.882812 201.398438 93.882812 C 201.421875 93.882812 201.441406 93.882812 201.464844 93.875 C 204.871094 93.246094 206.753906 93.855469 206.769531 93.863281 C 206.964844 93.929688 207.179688 93.824219 207.242188 93.628906 C 207.308594 93.433594 207.203125 93.226562 207.007812 93.15625 C 206.933594 93.128906 204.945312 92.476562 201.332031 93.144531 Z M 205.789062 128.320312 C 205.59375 128.320312 205.414062 128.476562 205.40625 128.683594 L 204.171875 186.210938 C 204.167969 186.421875 204.332031 186.585938 204.539062 186.59375 C 204.539062 186.59375 204.546875 186.59375 204.546875 186.59375 C 204.75 186.59375 204.914062 186.425781 204.921875 186.226562 L 206.15625 128.699219 C 206.164062 128.492188 206 128.320312 205.789062 128.320312 Z M 203.214844 122.617188 C 189.589844 118.664062 181.898438 108.828125 180.671875 107.152344 L 186.828125 100.625 C 186.933594 100.511719 186.964844 100.347656 186.894531 100.207031 C 186.828125 100.066406 186.6875 99.980469 186.53125 99.996094 L 180.632812 100.46875 C 182.894531 86.3125 186.828125 80.386719 186.867188 80.332031 C 186.980469 80.160156 186.941406 79.929688 186.769531 79.816406 C 186.597656 79.703125 186.363281 79.742188 186.253906 79.914062 C 186.082031 80.160156 182.101562 86.140625 179.824219 100.828125 C 179.808594 100.941406 179.839844 101.050781 179.921875 101.140625 C 179.996094 101.222656 180.109375 101.269531 180.230469 101.261719 L 185.632812 100.828125 L 179.929688 106.875 C 179.808594 107 179.796875 107.195312 179.894531 107.335938 C 179.96875 107.449219 187.914062 118.964844 203.019531 123.34375 C 203.058594 123.351562 203.089844 123.359375 203.125 123.359375 C 203.289062 123.359375 203.441406 123.253906 203.484375 123.089844 C 203.53125 122.878906 203.417969 122.675781 203.214844 122.617188 Z M 229.605469 107.328125 C 229.703125 107.1875 229.6875 106.992188 229.570312 106.867188 L 223.867188 100.820312 L 229.269531 101.253906 C 229.390625 101.261719 229.496094 101.21875 229.578125 101.132812 C 229.652344 101.050781 229.6875 100.933594 229.675781 100.820312 C 227.390625 86.132812 223.410156 80.152344 223.246094 79.90625 C 223.125 79.734375 222.894531 79.691406 222.730469 79.808594 C 222.558594 79.929688 222.511719 80.160156 222.632812 80.324219 C 222.671875 80.386719 226.605469 86.3125 228.867188 100.460938 L 222.96875 99.988281 C 222.804688 99.980469 222.671875 100.066406 222.601562 100.199219 C 222.535156 100.339844 222.566406 100.507812 222.671875 100.617188 L 228.828125 107.144531 C 227.601562 108.820312 219.910156 118.660156 206.285156 122.609375 C 206.089844 122.667969 205.96875 122.871094 206.027344 123.074219 C 206.074219 123.238281 206.222656 123.34375 206.386719 123.34375 C 206.425781 123.34375 206.457031 123.335938 206.492188 123.328125 C 221.585938 118.957031 229.53125 107.441406 229.605469 107.328125 Z M 185.699219 160.777344 L 166.425781 158.160156 C 166.214844 158.136719 166.027344 158.269531 166.003906 158.480469 C 165.976562 158.683594 166.117188 158.878906 166.328125 158.898438 L 185.175781 161.457031 L 183.753906 166.613281 C 183.378906 167.96875 182.054688 168.84375 180.664062 168.65625 L 164.628906 166.492188 C 164.417969 166.464844 164.238281 166.613281 164.210938 166.816406 C 164.179688 167.019531 164.328125 167.210938 164.53125 167.234375 L 180.566406 169.398438 C 180.722656 169.417969 180.878906 169.425781 181.039062 169.425781 C 182.617188 169.425781 184.046875 168.363281 184.472656 166.808594 L 186.007812 161.242188 C 186.035156 161.136719 186.011719 161.023438 185.960938 160.933594 C 185.910156 160.851562 185.8125 160.792969 185.699219 160.777344 Z M 247.324219 181.363281 C 247.371094 181.5625 247.242188 181.765625 247.039062 181.804688 C 247.011719 181.8125 246.988281 181.8125 246.957031 181.8125 C 246.785156 181.8125 246.628906 181.691406 246.59375 181.519531 L 243.523438 167.28125 L 227.832031 169.398438 C 227.675781 169.417969 227.519531 169.425781 227.363281 169.425781 C 225.78125 169.425781 224.355469 168.363281 223.925781 166.808594 L 222.394531 161.242188 C 222.363281 161.136719 222.386719 161.023438 222.445312 160.933594 C 222.503906 160.84375 222.601562 160.785156 222.707031 160.769531 L 241.578125 158.210938 L 240.671875 154 C 240.628906 153.796875 240.753906 153.59375 240.957031 153.558594 C 241.160156 153.511719 241.363281 153.640625 241.398438 153.839844 Z M 243.367188 166.546875 L 241.726562 158.953125 L 223.222656 161.464844 L 224.644531 166.621094 C 225.019531 167.976562 226.335938 168.851562 227.734375 168.664062 Z M 242.378906 133.601562 C 242.386719 133.601562 242.402344 133.601562 242.410156 133.601562 C 242.605469 133.601562 242.769531 133.453125 242.785156 133.257812 L 246.082031 89.171875 C 246.097656 88.96875 245.941406 88.78125 245.738281 88.765625 C 245.535156 88.742188 245.355469 88.90625 245.335938 89.109375 L 242.035156 133.195312 C 242.011719 133.40625 242.167969 133.585938 242.378906 133.601562 Z M 256.566406 143.949219 C 253.519531 143.1875 250.945312 142.917969 250.917969 142.910156 C 250.714844 142.886719 250.527344 143.035156 250.503906 143.246094 C 250.484375 143.457031 250.632812 143.636719 250.84375 143.65625 C 250.863281 143.65625 253.394531 143.925781 256.386719 144.675781 C 256.417969 144.683594 256.445312 144.691406 256.476562 144.691406 C 256.640625 144.691406 256.796875 144.578125 256.84375 144.40625 C 256.886719 144.195312 256.769531 143.996094 256.566406 143.949219 Z M 145.890625 125.863281 C 145.796875 125.675781 145.570312 125.601562 145.390625 125.699219 C 145.203125 125.796875 145.136719 126.019531 145.226562 126.199219 L 148.136719 131.941406 C 148.203125 132.066406 148.332031 132.140625 148.472656 132.140625 C 148.535156 132.140625 148.585938 132.128906 148.644531 132.105469 C 148.832031 132.007812 148.898438 131.78125 148.808594 131.601562 Z M 167.128906 138.773438 C 167.144531 138.773438 167.148438 138.773438 167.164062 138.773438 C 167.367188 138.75 167.523438 138.570312 167.5 138.359375 C 165.175781 114.917969 166.484375 88.332031 166.5 88.070312 C 166.507812 87.859375 166.347656 87.6875 166.148438 87.679688 C 165.9375 87.664062 165.765625 87.832031 165.757812 88.03125 C 165.742188 88.300781 164.433594 114.941406 166.769531 138.433594 C 166.777344 138.628906 166.941406 138.773438 167.128906 138.773438 Z M 126.558594 94.566406 C 126.265625 94.664062 119.441406 97.070312 119.441406 102.152344 C 119.441406 102.363281 119.605469 102.527344 119.816406 102.527344 C 120.023438 102.527344 120.191406 102.363281 120.191406 102.152344 C 120.191406 97.601562 126.738281 95.289062 126.804688 95.269531 C 127 95.199219 127.105469 94.992188 127.035156 94.789062 C 126.96875 94.601562 126.753906 94.496094 126.558594 94.566406 Z M 126.558594 94.566406 " fill-opacity="1" fill-rule="nonzero"/></svg>