<svg xmlns="http://www.w3.org/2000/svg" xmlns:xlink="http://www.w3.org/1999/xlink" width="1818" zoomAndPan="magnify" viewBox="0 0 1363.5 163.5" height="218" preserveAspectRatio="xMidYMid meet" version="1.0"><defs><clipPath id="91417f79ae"><path d="M 125.703125 0 L 248.828125 0 L 248.828125 162.5625 L 125.703125 162.5625 Z M 125.703125 0 " clip-rule="nonzero"/></clipPath><clipPath id="346f0eb096"><path d="M 166.765625 3.554688 C 173.058594 1.410156 180.253906 0 187.296875 0 C 194.339844 0 201.117188 1.207031 207.363281 3.355469 C 207.496094 3.421875 207.628906 3.421875 207.761719 3.488281 C 231.21875 12.074219 248.496094 34.75 248.828125 61.484375 L 248.828125 162.355469 L 125.703125 162.355469 L 125.703125 61.5625 C 126.035156 34.613281 143.042969 11.941406 166.765625 3.554688 Z M 166.765625 3.554688 " clip-rule="nonzero"/></clipPath><clipPath id="3ab57b5ed3"><path d="M 249.574219 0 L 372.699219 0 L 372.699219 162.5625 L 249.574219 162.5625 Z M 249.574219 0 " clip-rule="nonzero"/></clipPath><clipPath id="9aa95cd79a"><path d="M 290.636719 3.554688 C 296.929688 1.410156 304.128906 0 311.171875 0 C 318.214844 0 324.992188 1.207031 331.238281 3.355469 C 331.371094 3.421875 331.503906 3.421875 331.636719 3.488281 C 355.089844 12.074219 372.367188 34.75 372.699219 61.484375 L 372.699219 162.355469 L 249.574219 162.355469 L 249.574219 61.5625 C 249.90625 34.613281 266.917969 11.941406 290.636719 3.554688 Z M 290.636719 3.554688 " clip-rule="nonzero"/></clipPath><clipPath id="6057659a80"><path d="M 373.449219 0 L 496.570312 0 L 496.570312 162.5625 L 373.449219 162.5625 Z M 373.449219 0 " clip-rule="nonzero"/></clipPath><clipPath id="8ee67c2af8"><path d="M 414.511719 3.554688 C 420.804688 1.410156 428 0 435.042969 0 C 442.085938 0 448.863281 1.207031 455.109375 3.355469 C 455.242188 3.421875 455.375 3.421875 455.507812 3.488281 C 478.964844 12.074219 496.238281 34.75 496.570312 61.484375 L 496.570312 162.355469 L 373.449219 162.355469 L 373.449219 61.5625 C 373.78125 34.613281 390.789062 11.941406 414.511719 3.554688 Z M 414.511719 3.554688 " clip-rule="nonzero"/></clipPath><clipPath id="d776f93743"><path d="M 497.320312 0 L 620.445312 0 L 620.445312 162.5625 L 497.320312 162.5625 Z M 497.320312 0 " clip-rule="nonzero"/></clipPath><clipPath id="ddba4fdf6c"><path d="M 538.382812 3.554688 C 544.675781 1.410156 551.871094 0 558.914062 0 C 565.960938 0 572.738281 1.207031 578.980469 3.355469 C 579.117188 3.421875 579.25 3.421875 579.382812 3.488281 C 602.835938 12.074219 620.113281 34.75 620.445312 61.484375 L 620.445312 162.355469 L 497.320312 162.355469 L 497.320312 61.5625 C 497.652344 34.613281 514.664062 11.941406 538.382812 3.554688 Z M 538.382812 3.554688 " clip-rule="nonzero"/></clipPath><clipPath id="76e113542b"><path d="M 621.191406 0 L 744.316406 0 L 744.316406 162.5625 L 621.191406 162.5625 Z M 621.191406 0 " clip-rule="nonzero"/></clipPath><clipPath id="f35093aaa2"><path d="M 662.257812 3.554688 C 668.546875 1.410156 675.746094 0 682.789062 0 C 689.832031 0 696.609375 1.207031 702.855469 3.355469 C 702.988281 3.421875 703.121094 3.421875 703.253906 3.488281 C 726.710938 12.074219 743.984375 34.75 744.316406 61.484375 L 744.316406 162.355469 L 621.191406 162.355469 L 621.191406 61.5625 C 621.523438 34.613281 638.535156 11.941406 662.257812 3.554688 Z M 662.257812 3.554688 " clip-rule="nonzero"/></clipPath><clipPath id="8e2db84b8a"><path d="M 745.066406 0 L 868.191406 0 L 868.191406 162.5625 L 745.066406 162.5625 Z M 745.066406 0 " clip-rule="nonzero"/></clipPath><clipPath id="810912fd05"><path d="M 786.128906 3.554688 C 792.421875 1.410156 799.617188 0 806.660156 0 C 813.703125 0 820.480469 1.207031 826.726562 3.355469 C 826.859375 3.421875 826.992188 3.421875 827.125 3.488281 C 850.582031 12.074219 867.859375 34.75 868.191406 61.484375 L 868.191406 162.355469 L 745.066406 162.355469 L 745.066406 61.5625 C 745.398438 34.613281 762.40625 11.941406 786.128906 3.554688 Z M 786.128906 3.554688 " clip-rule="nonzero"/></clipPath><clipPath id="4c6783f320"><path d="M 868.191406 0 L 991.316406 0 L 991.316406 162.5625 L 868.191406 162.5625 Z M 868.191406 0 " clip-rule="nonzero"/></clipPath><clipPath id="b1cb03bfd7"><path d="M 909.253906 3.554688 C 915.546875 1.410156 922.742188 0 929.785156 0 C 936.828125 0 943.605469 1.207031 949.851562 3.355469 C 949.984375 3.421875 950.117188 3.421875 950.25 3.488281 C 973.707031 12.074219 990.984375 34.75 991.316406 61.484375 L 991.316406 162.355469 L 868.191406 162.355469 L 868.191406 61.5625 C 868.523438 34.613281 885.53125 11.941406 909.253906 3.554688 Z M 909.253906 3.554688 " clip-rule="nonzero"/></clipPath><clipPath id="2f60b27078"><path d="M 991.316406 0 L 1114.441406 0 L 1114.441406 162.5625 L 991.316406 162.5625 Z M 991.316406 0 " clip-rule="nonzero"/></clipPath><clipPath id="7114622f44"><path d="M 1032.378906 3.554688 C 1038.671875 1.410156 1045.867188 0 1052.910156 0 C 1059.953125 0 1066.730469 1.207031 1072.976562 3.355469 C 1073.109375 3.421875 1073.242188 3.421875 1073.375 3.488281 C 1096.832031 12.074219 1114.109375 34.75 1114.441406 61.484375 L 1114.441406 162.355469 L 991.316406 162.355469 L 991.316406 61.5625 C 991.648438 34.613281 1008.65625 11.941406 1032.378906 3.554688 Z M 1032.378906 3.554688 " clip-rule="nonzero"/></clipPath><clipPath id="8107030fee"><path d="M 1114.441406 0 L 1237.566406 0 L 1237.566406 162.5625 L 1114.441406 162.5625 Z M 1114.441406 0 " clip-rule="nonzero"/></clipPath><clipPath id="bf222e16c6"><path d="M 1155.503906 3.554688 C 1161.796875 1.410156 1168.992188 0 1176.035156 0 C 1183.078125 0 1189.855469 1.207031 1196.101562 3.355469 C 1196.234375 3.421875 1196.367188 3.421875 1196.5 3.488281 C 1219.957031 12.074219 1237.234375 34.75 1237.566406 61.484375 L 1237.566406 162.355469 L 1114.441406 162.355469 L 1114.441406 61.5625 C 1114.773438 34.613281 1131.78125 11.941406 1155.503906 3.554688 Z M 1155.503906 3.554688 " clip-rule="nonzero"/></clipPath><clipPath id="408667b357"><path d="M 1237.566406 0 L 1360.691406 0 L 1360.691406 162.5625 L 1237.566406 162.5625 Z M 1237.566406 0 " clip-rule="nonzero"/></clipPath><clipPath id="f0e05e0903"><path d="M 1278.628906 3.554688 C 1284.921875 1.410156 1292.117188 0 1299.160156 0 C 1306.203125 0 1312.980469 1.207031 1319.226562 3.355469 C 1319.359375 3.421875 1319.492188 3.421875 1319.625 3.488281 C 1343.082031 12.074219 1360.359375 34.75 1360.691406 61.484375 L 1360.691406 162.355469 L 1237.566406 162.355469 L 1237.566406 61.5625 C 1237.898438 34.613281 1254.90625 11.941406 1278.628906 3.554688 Z M 1278.628906 3.554688 " clip-rule="nonzero"/></clipPath><clipPath id="c50cb40edc"><path d="M 1.828125 0 L 124.953125 0 L 124.953125 162.5625 L 1.828125 162.5625 Z M 1.828125 0 " clip-rule="nonzero"/></clipPath><clipPath id="9ff92ca1e9"><path d="M 42.894531 3.554688 C 49.183594 1.410156 56.382812 0 63.425781 0 C 70.46875 0 77.246094 1.207031 83.492188 3.355469 C 83.625 3.421875 83.757812 3.421875 83.890625 3.488281 C 107.347656 12.074219 124.621094 34.75 124.953125 61.484375 L 124.953125 162.355469 L 1.828125 162.355469 L 1.828125 61.5625 C 2.160156 34.613281 19.171875 11.941406 42.894531 3.554688 Z M 42.894531 3.554688 " clip-rule="nonzero"/></clipPath></defs><g clip-path="url(#91417f79ae)"><g clip-path="url(#346f0eb096)"><path fill="#fbb9c5" d="M 125.703125 0 L 248.828125 0 L 248.828125 162.5625 L 125.703125 162.5625 Z M 125.703125 0 " fill-opacity="1" fill-rule="nonzero"/></g></g><g clip-path="url(#3ab57b5ed3)"><g clip-path="url(#9aa95cd79a)"><path fill="#ffd391" d="M 249.574219 0 L 372.699219 0 L 372.699219 162.5625 L 249.574219 162.5625 Z M 249.574219 0 " fill-opacity="1" fill-rule="nonzero"/></g></g><g clip-path="url(#6057659a80)"><g clip-path="url(#8ee67c2af8)"><path fill="#e9edbf" d="M 373.449219 0 L 496.570312 0 L 496.570312 162.5625 L 373.449219 162.5625 Z M 373.449219 0 " fill-opacity="1" fill-rule="nonzero"/></g></g><g clip-path="url(#d776f93743)"><g clip-path="url(#ddba4fdf6c)"><path fill="#c7f2c5" d="M 497.320312 0 L 620.445312 0 L 620.445312 162.5625 L 497.320312 162.5625 Z M 497.320312 0 " fill-opacity="1" fill-rule="nonzero"/></g></g><g clip-path="url(#76e113542b)"><g clip-path="url(#f35093aaa2)"><path fill="#c5f2ef" d="M 621.191406 0 L 744.316406 0 L 744.316406 162.5625 L 621.191406 162.5625 Z M 621.191406 0 " fill-opacity="1" fill-rule="nonzero"/></g></g><g clip-path="url(#8e2db84b8a)"><g clip-path="url(#810912fd05)"><path fill="#c5dff2" d="M 745.066406 0 L 868.191406 0 L 868.191406 162.5625 L 745.066406 162.5625 Z M 745.066406 0 " fill-opacity="1" fill-rule="nonzero"/></g></g><g clip-path="url(#4c6783f320)"><g clip-path="url(#b1cb03bfd7)"><path fill="#c7c5f2" d="M 868.191406 0 L 991.316406 0 L 991.316406 162.5625 L 868.191406 162.5625 Z M 868.191406 0 " fill-opacity="1" fill-rule="nonzero"/></g></g><g clip-path="url(#2f60b27078)"><g clip-path="url(#7114622f44)"><path fill="#eec5f2" d="M 991.316406 0 L 1114.441406 0 L 1114.441406 162.5625 L 991.316406 162.5625 Z M 991.316406 0 " fill-opacity="1" fill-rule="nonzero"/></g></g><g clip-path="url(#8107030fee)"><g clip-path="url(#bf222e16c6)"><path fill="#f2c5d5" d="M 1114.441406 0 L 1237.566406 0 L 1237.566406 162.5625 L 1114.441406 162.5625 Z M 1114.441406 0 " fill-opacity="1" fill-rule="nonzero"/></g></g><g clip-path="url(#408667b357)"><g clip-path="url(#f0e05e0903)"><path fill="#ffb5b5" d="M 1237.566406 0 L 1360.691406 0 L 1360.691406 162.5625 L 1237.566406 162.5625 Z M 1237.566406 0 " fill-opacity="1" fill-rule="nonzero"/></g></g><g clip-path="url(#c50cb40edc)"><g clip-path="url(#9ff92ca1e9)"><path fill="#ffb3b3" d="M 1.828125 0 L 124.953125 0 L 124.953125 162.5625 L 1.828125 162.5625 Z M 1.828125 0 " fill-opacity="1" fill-rule="nonzero"/></g></g></svg>