<svg xmlns="http://www.w3.org/2000/svg" xmlns:xlink="http://www.w3.org/1999/xlink" width="500" zoomAndPan="magnify" viewBox="0 0 375 374.999991" height="500" preserveAspectRatio="xMidYMid meet" version="1.0"><defs><clipPath id="e471112df6"><path d="M 288 22 L 333 22 L 333 82 L 288 82 Z M 288 22 " clip-rule="nonzero"/></clipPath><clipPath id="2192012926"><path d="M 289.480469 18.171875 L 337.339844 21.878906 L 330.847656 105.628906 L 282.992188 101.921875 Z M 289.480469 18.171875 " clip-rule="nonzero"/></clipPath><clipPath id="ab088c3717"><path d="M 289.480469 18.171875 L 337.339844 21.878906 L 330.847656 105.628906 L 282.992188 101.921875 Z M 289.480469 18.171875 " clip-rule="nonzero"/></clipPath><clipPath id="f46228d40d"><path d="M 297 86 L 313 86 L 313 103 L 297 103 Z M 297 86 " clip-rule="nonzero"/></clipPath><clipPath id="f0a37203e6"><path d="M 289.480469 18.171875 L 337.339844 21.878906 L 330.847656 105.628906 L 282.992188 101.921875 Z M 289.480469 18.171875 " clip-rule="nonzero"/></clipPath><clipPath id="c98864f5d5"><path d="M 289.480469 18.171875 L 337.339844 21.878906 L 330.847656 105.628906 L 282.992188 101.921875 Z M 289.480469 18.171875 " clip-rule="nonzero"/></clipPath><clipPath id="926f85ffa2"><path d="M 167 51 L 195 51 L 195 87 L 167 87 Z M 167 51 " clip-rule="nonzero"/></clipPath><clipPath id="c3ec9c896f"><path d="M 174.929688 45.433594 L 202.140625 58.0625 L 180.035156 105.683594 L 152.824219 93.050781 Z M 174.929688 45.433594 " clip-rule="nonzero"/></clipPath><clipPath id="3fa5b40ca3"><path d="M 174.929688 45.433594 L 202.140625 58.0625 L 180.035156 105.683594 L 152.824219 93.050781 Z M 174.929688 45.433594 " clip-rule="nonzero"/></clipPath><clipPath id="89affb5dd6"><path d="M 162 88 L 172 88 L 172 99 L 162 99 Z M 162 88 " clip-rule="nonzero"/></clipPath><clipPath id="02e0de56c3"><path d="M 174.929688 45.433594 L 202.140625 58.0625 L 180.035156 105.683594 L 152.824219 93.050781 Z M 174.929688 45.433594 " clip-rule="nonzero"/></clipPath><clipPath id="e551a1aeff"><path d="M 174.929688 45.433594 L 202.140625 58.0625 L 180.035156 105.683594 L 152.824219 93.050781 Z M 174.929688 45.433594 " clip-rule="nonzero"/></clipPath><clipPath id="8f6302c230"><path d="M 87 297 L 115 297 L 115 333 L 87 333 Z M 87 297 " clip-rule="nonzero"/></clipPath><clipPath id="c04d777c9c"><path d="M 94.910156 291.476562 L 122.121094 304.105469 L 100.015625 351.726562 L 72.804688 339.09375 Z M 94.910156 291.476562 " clip-rule="nonzero"/></clipPath><clipPath id="726e52212e"><path d="M 94.910156 291.476562 L 122.121094 304.105469 L 100.015625 351.726562 L 72.804688 339.09375 Z M 94.910156 291.476562 " clip-rule="nonzero"/></clipPath><clipPath id="23efaf6ea4"><path d="M 82 334 L 92 334 L 92 345 L 82 345 Z M 82 334 " clip-rule="nonzero"/></clipPath><clipPath id="d265a94c37"><path d="M 94.910156 291.476562 L 122.121094 304.105469 L 100.015625 351.726562 L 72.804688 339.09375 Z M 94.910156 291.476562 " clip-rule="nonzero"/></clipPath><clipPath id="759aa2fea3"><path d="M 94.910156 291.476562 L 122.121094 304.105469 L 100.015625 351.726562 L 72.804688 339.09375 Z M 94.910156 291.476562 " clip-rule="nonzero"/></clipPath></defs><path fill="#ffd391" d="M 195.9375 352.308594 C 196.070312 359.996094 188.921875 368.015625 186.144531 368.941406 C 183.359375 369.867188 172.640625 367.9375 167.738281 361.847656 C 165.703125 359.3125 165.039062 355.117188 164.792969 350.761719 C 164.449219 344.664062 164.90625 338.230469 163.515625 335.601562 C 161.136719 331.097656 159.527344 320.402344 159.527344 320.402344 C 165.886719 303.058594 178.667969 315.488281 178.667969 315.488281 C 178.667969 315.488281 182.828125 323.585938 184.285156 329.277344 C 185.070312 332.335938 188.328125 336.527344 191.199219 340.953125 C 193.679688 344.765625 195.882812 348.746094 195.9375 352.308594 Z M 99.4375 328.734375 C 98.488281 323.304688 96.910156 317.546875 96.503906 313.785156 C 95.578125 305.179688 83 300.015625 75.058594 313.785156 C 75.058594 313.785156 66.324219 327.15625 57.183594 329.808594 C 54.21875 330.664062 50.65625 332.296875 47.390625 334.320312 C 40.601562 338.535156 35.109375 344.492188 39.042969 348.871094 C 43.648438 354.007812 60.761719 355.742188 70.144531 353.945312 C 72.625 353.46875 74.5625 352.753906 75.589844 351.78125 C 78.226562 349.292969 81.546875 347.527344 85.351562 346.140625 C 88.625 344.945312 92.25 344.035156 96.109375 343.179688 C 100.796875 342.136719 100.632812 335.703125 99.4375 328.734375 Z M 98.496094 62.210938 C 98.496094 62.210938 77.523438 79.332031 64.261719 85.082031 C 63.140625 85.570312 62.730469 86.949219 63.414062 87.964844 L 63.515625 88.121094 L 51.257812 95.683594 C 50.671875 96.039062 50.496094 96.8125 50.851562 97.394531 C 51.210938 97.976562 51.980469 98.15625 52.5625 97.796875 L 64.898438 90.191406 L 66.394531 92.421875 L 53.972656 100.085938 C 53.386719 100.445312 53.210938 101.214844 53.566406 101.796875 C 53.925781 102.378906 54.695312 102.558594 55.277344 102.203125 L 67.777344 94.492188 L 69.273438 96.726562 L 56.6875 104.480469 C 56.101562 104.839844 55.925781 105.609375 56.28125 106.191406 C 56.640625 106.773438 57.410156 106.953125 57.992188 106.597656 L 70.65625 98.785156 L 71.925781 100.683594 L 59.191406 108.53125 C 58.609375 108.890625 58.429688 109.660156 58.785156 110.246094 C 59.144531 110.828125 59.914062 111.007812 60.496094 110.648438 L 73.308594 102.753906 L 74.6875 104.824219 L 61.796875 112.773438 C 61.214844 113.128906 61.035156 113.898438 61.390625 114.484375 C 61.75 115.066406 62.519531 115.246094 63.105469 114.886719 L 76.070312 106.890625 L 77.5625 109.125 L 64.511719 117.167969 C 63.929688 117.523438 63.75 118.296875 64.105469 118.878906 C 64.464844 119.460938 65.234375 119.640625 65.816406 119.28125 L 78.949219 111.183594 L 80.214844 113.082031 L 67.015625 121.21875 C 66.433594 121.578125 66.253906 122.347656 66.613281 122.929688 C 66.96875 123.515625 67.738281 123.691406 68.324219 123.335938 L 81.601562 115.144531 L 82.503906 116.492188 C 82.503906 116.492188 112.769531 102.117188 121.910156 84.195312 Z M 98.496094 62.210938 " fill-opacity="1" fill-rule="nonzero"/><path fill="#ede6dd" d="M 186.460938 138.457031 C 186.460938 138.457031 194.707031 166.855469 192.21875 174.796875 C 189.738281 182.738281 164.613281 202.597656 164.613281 202.597656 L 158.257812 143.910156 Z M 186.460938 138.457031 " fill-opacity="1" fill-rule="nonzero"/><path fill="#a2c3e6" d="M 195.882812 136.597656 C 193.585938 141.359375 186.695312 152.09375 169.847656 156.765625 C 169.847656 156.765625 174.289062 199.828125 175.449219 217.664062 C 175.601562 220.105469 173.914062 222.285156 171.503906 222.722656 C 158.414062 225.117188 116.835938 231.433594 80.207031 222.796875 C 78.101562 222.300781 76.582031 220.457031 76.496094 218.296875 C 76.171875 209.566406 77.453125 187.664062 76.832031 166.957031 C 48.597656 164.40625 46.847656 137.957031 46.847656 137.957031 C 46.847656 137.957031 57.945312 116.351562 69.3125 98.4375 C 78.007812 84.730469 85.503906 79.871094 98.683594 78.5 C 101.855469 70.480469 96.949219 68.386719 97.988281 65.929688 C 102.609375 66.304688 107.410156 66.824219 112.117188 67.570312 C 112.148438 67.578125 112.171875 67.578125 112.195312 67.585938 C 96.878906 64.203125 85.40625 50.542969 85.40625 34.203125 C 85.40625 15.316406 100.71875 0 119.605469 0 C 138.492188 0 153.808594 15.316406 153.808594 34.203125 C 153.808594 53.089844 138.492188 68.402344 119.605469 68.402344 C 118.261719 68.402344 116.945312 68.316406 115.640625 68.171875 C 117.839844 68.574219 120.011719 69.027344 122.117188 69.539062 C 125.875 70.457031 129.648438 71.28125 133.460938 71.972656 C 142.0625 73.554688 157.433594 76.984375 164.285156 82.359375 C 172.835938 89.054688 191.246094 123.546875 195.820312 132.257812 C 196.527344 133.617188 196.550781 135.222656 195.882812 136.597656 Z M 195.882812 136.597656 " fill-opacity="1" fill-rule="nonzero"/><path fill="#ede6dd" d="M 146.347656 78.507812 L 157.667969 161.261719 L 112.449219 169.46875 L 91.464844 167.882812 L 93.53125 76.523438 Z M 126.722656 206.796875 C 126.863281 206.636719 126.839844 206.386719 126.675781 206.246094 L 114.230469 195.652344 C 114.066406 195.511719 113.828125 195.535156 113.679688 195.699219 C 113.539062 195.863281 113.5625 196.109375 113.726562 196.25 L 126.171875 206.84375 C 126.242188 206.90625 126.335938 206.9375 126.421875 206.9375 C 126.535156 206.929688 126.644531 206.882812 126.722656 206.796875 Z M 126.722656 206.796875 " fill-opacity="1" fill-rule="nonzero"/><path fill="#000000" d="M 167.730469 260.828125 L 178.855469 316.4375 C 168.261719 326.5 159.527344 320.410156 159.527344 320.410156 C 159.527344 320.410156 146.808594 284.574219 141.582031 266.988281 C 135.886719 247.8125 126.421875 206.550781 126.421875 206.550781 L 107.089844 267.191406 C 105.238281 280.957031 96.496094 313.792969 96.496094 313.792969 C 84.84375 321.996094 75.050781 313.792969 75.050781 313.792969 C 75.050781 313.792969 80.347656 285.992188 82.992188 260.828125 C 85.636719 235.664062 91.472656 167.882812 91.472656 167.882812 C 119.007812 157.023438 157.675781 161.261719 157.675781 161.261719 C 167.203125 184.304688 167.730469 260.828125 167.730469 260.828125 Z M 167.730469 260.828125 " fill-opacity="1" fill-rule="nonzero"/><path fill="#a2c3e6" d="M 153.808594 81.292969 L 170.914062 218.988281 L 151.109375 215.734375 C 149.476562 215.464844 148.230469 214.125 148.082031 212.476562 L 136.214844 80.234375 Z M 96.699219 78.359375 L 82.992188 91.816406 L 80.613281 220.707031 L 100.339844 214.964844 C 101.597656 214.601562 102.460938 213.449219 102.460938 212.140625 L 102.460938 84.871094 Z M 96.699219 78.359375 " fill-opacity="1" fill-rule="nonzero"/><path fill="#000000" d="M 169.855469 157.148438 C 169.652344 157.148438 169.488281 157 169.464844 156.796875 L 167.351562 133.757812 L 171.332031 91.054688 C 171.355469 90.835938 171.542969 90.679688 171.753906 90.703125 C 171.964844 90.726562 172.125 90.914062 172.101562 91.125 L 168.121094 133.75 L 170.238281 156.710938 C 170.25 156.921875 170.097656 157.117188 169.886719 157.132812 C 169.878906 157.148438 169.863281 157.148438 169.855469 157.148438 Z M 145.335938 138.992188 L 156.578125 100.628906 C 156.609375 100.519531 156.59375 100.40625 156.53125 100.3125 L 141.71875 77.371094 C 141.605469 77.195312 141.363281 77.140625 141.183594 77.253906 C 141.003906 77.371094 140.949219 77.613281 141.066406 77.792969 L 155.785156 100.582031 L 144.597656 138.777344 C 144.535156 138.984375 144.652344 139.195312 144.863281 139.257812 C 144.902344 139.265625 144.933594 139.273438 144.972656 139.273438 C 145.128906 139.273438 145.28125 139.164062 145.335938 138.992188 Z M 100.128906 140.308594 C 100.332031 140.230469 100.425781 140.003906 100.347656 139.800781 L 88.058594 108.246094 L 101.886719 78.664062 C 101.980469 78.46875 101.894531 78.234375 101.699219 78.140625 C 101.503906 78.058594 101.273438 78.132812 101.179688 78.328125 L 87.277344 108.058594 C 87.230469 108.152344 87.230469 108.269531 87.269531 108.363281 L 99.625 140.074219 C 99.6875 140.230469 99.832031 140.324219 99.988281 140.324219 C 100.035156 140.332031 100.082031 140.324219 100.128906 140.308594 Z M 123.660156 162.445312 C 123.875 162.4375 124.039062 162.257812 124.03125 162.042969 L 122.179688 100.511719 C 122.171875 100.296875 122.011719 100.132812 121.777344 100.140625 C 121.558594 100.148438 121.394531 100.328125 121.402344 100.542969 L 123.253906 162.070312 C 123.261719 162.28125 123.433594 162.445312 123.644531 162.445312 C 123.652344 162.445312 123.652344 162.445312 123.660156 162.445312 Z M 81 141.507812 L 81 123.925781 C 81 123.707031 80.832031 123.539062 80.613281 123.539062 C 80.394531 123.539062 80.222656 123.707031 80.222656 123.925781 L 80.222656 141.507812 C 80.222656 141.722656 80.394531 141.894531 80.613281 141.894531 C 80.832031 141.894531 81 141.722656 81 141.507812 Z M 81 141.507812 " fill-opacity="1" fill-rule="nonzero"/><path fill="#ffd391" d="M 151.320312 72.820312 C 151.320312 87.484375 136.128906 105.917969 119.933594 105.917969 C 103.738281 105.917969 87.636719 88.277344 87.636719 73.617188 C 87.636719 58.953125 103.714844 51.089844 119.910156 51.089844 C 136.105469 51.089844 151.320312 58.160156 151.320312 72.820312 Z M 151.320312 72.820312 " fill-opacity="1" fill-rule="nonzero"/><path fill="#efaf9c" d="M 129.695312 60.382812 L 131.910156 74.640625 C 131.910156 74.640625 121.949219 82.53125 107.945312 75.335938 L 109.371094 62.070312 C 106.789062 60.3125 104.539062 58.003906 102.929688 55.546875 C 100.671875 52.132812 99.996094 46.382812 99.996094 41.824219 C 99.996094 30.367188 108.40625 21.085938 118.765625 21.085938 C 129.136719 21.085938 137.535156 30.375 137.535156 41.824219 C 137.535156 46.320312 136.445312 51.625 134.253906 55.023438 C 133.007812 56.921875 131.460938 58.78125 129.695312 60.382812 Z M 129.695312 60.382812 " fill-opacity="1" fill-rule="nonzero"/><path fill="#000000" d="M 148.332031 34.855469 C 148.332031 36.542969 145.625 37.257812 140.492188 36.230469 C 139.855469 40.976562 135.140625 42.828125 135.140625 42.828125 L 133.453125 34.179688 C 133.453125 34.179688 133.453125 34.179688 133.453125 34.171875 C 125.890625 31.230469 120.058594 26.183594 120.058594 26.183594 C 127.113281 32.070312 120.539062 32.101562 116.378906 30.054688 C 112.214844 28.011719 109.960938 25.023438 109.960938 25.023438 C 109.253906 28.398438 108.460938 31.144531 107.628906 33.386719 L 112.007812 32.894531 C 112.933594 32.792969 113.765625 33.464844 113.875 34.386719 L 113.898438 34.605469 C 113.996094 35.53125 113.328125 36.363281 112.402344 36.472656 L 107.136719 37.054688 C 106.757812 37.09375 106.398438 37.011719 106.09375 36.824219 C 101.511719 45.363281 96.152344 41.328125 94.589844 37.601562 C 92.871094 33.507812 95.53125 30.71875 96.425781 29.929688 C 95.5 30.679688 92.445312 32.863281 90.78125 30.964844 C 88.804688 28.710938 97.554688 22.503906 102.632812 17.773438 C 107.714844 13.042969 110.039062 15.726562 110.039062 15.726562 C 110.039062 15.726562 113.003906 10.929688 119.628906 11.355469 C 126.257812 11.785156 130.707031 6.558594 131.835938 10.4375 C 132.960938 14.320312 126.964844 15.449219 126.964844 15.449219 C 150.597656 20.105469 148.976562 27.582031 146.015625 26.875 C 143.050781 26.167969 140.65625 25.886719 140.65625 25.886719 C 144.667969 32.738281 148.332031 32.667969 148.332031 34.855469 Z M 127.011719 39.53125 C 125.597656 39.53125 124.453125 40.671875 124.453125 42.089844 C 124.453125 43.503906 125.597656 44.648438 127.011719 44.648438 C 128.425781 44.648438 129.570312 43.503906 129.570312 42.089844 C 129.570312 40.671875 128.417969 39.53125 127.011719 39.53125 Z M 113.058594 42.089844 C 113.058594 40.671875 111.914062 39.53125 110.496094 39.53125 C 109.082031 39.53125 107.9375 40.671875 107.9375 42.089844 C 107.9375 43.503906 109.082031 44.648438 110.496094 44.648438 C 111.914062 44.648438 113.058594 43.496094 113.058594 42.089844 Z M 130.160156 33.484375 L 124.894531 32.902344 C 123.96875 32.800781 123.136719 33.472656 123.027344 34.394531 L 123.003906 34.613281 C 122.90625 35.539062 123.574219 36.371094 124.5 36.480469 L 129.765625 37.0625 C 130.691406 37.164062 131.523438 36.496094 131.632812 35.570312 L 131.65625 35.351562 C 131.757812 34.417969 131.085938 33.585938 130.160156 33.484375 Z M 109.882812 62.421875 C 111.183594 66.125 114.953125 68.808594 119.402344 68.808594 C 124.5 68.808594 128.707031 65.285156 129.328125 60.734375 C 126.289062 63.402344 122.617188 65.285156 118.75 65.285156 C 115.671875 65.277344 112.613281 64.179688 109.882812 62.421875 Z M 109.882812 62.421875 " fill-opacity="1" fill-rule="nonzero"/><path fill="#efaf9c" d="M 105.667969 51.789062 C 103.769531 54.792969 99.648438 53.578125 96.636719 51.6875 C 93.632812 49.789062 92.605469 44.773438 94.496094 41.761719 C 96.394531 38.761719 100.011719 39.203125 103.023438 41.101562 C 106.03125 42.992188 107.566406 48.785156 105.667969 51.789062 Z M 131.851562 51.789062 C 133.746094 54.792969 137.871094 53.578125 140.878906 51.6875 C 143.882812 49.789062 144.910156 44.773438 143.019531 41.761719 C 141.121094 38.761719 137.503906 39.203125 134.496094 41.101562 C 131.484375 42.992188 129.953125 48.785156 131.851562 51.789062 Z M 131.851562 51.789062 " fill-opacity="1" fill-rule="nonzero"/><path fill="#ede6dd" d="M 79.539062 164.375 C 54.121094 159.210938 33.148438 139.949219 51.421875 132.597656 C 70.273438 125.015625 89.410156 150.902344 89.410156 150.902344 C 89.410156 150.902344 104.960938 169.539062 79.539062 164.375 Z M 125.050781 51.75 L 113.804688 54.441406 C 113.242188 54.574219 113.101562 55.304688 113.570312 55.640625 C 114.800781 56.535156 117.03125 57.738281 119.925781 57.53125 C 123.074219 57.296875 124.964844 54.402344 125.8125 52.691406 C 126.070312 52.1875 125.605469 51.617188 125.050781 51.75 Z M 125.050781 51.75 " fill-opacity="1" fill-rule="nonzero"/><path fill="#efaf9c" d="M 109.617188 157.273438 C 110.117188 158.332031 110.359375 159.449219 110.132812 160.585938 C 109.105469 165.882812 106.40625 162.601562 106.40625 162.601562 C 106.40625 162.601562 108.078125 164.941406 106.996094 166.644531 C 105.464844 169.058594 103.101562 167.128906 103.101562 167.128906 C 103.101562 167.128906 104.992188 169.152344 104.019531 170.808594 C 102.300781 173.738281 99.664062 171.546875 99.664062 171.546875 C 99.664062 171.546875 102.253906 173.871094 100.386719 175.496094 C 98.605469 177.0625 92.25 175.242188 89.339844 171.773438 C 89.089844 171.476562 88.828125 171.210938 88.515625 171.015625 L 80.582031 166.023438 C 79.097656 165.089844 78.101562 163.300781 78.023438 161.355469 C 77.882812 157.605469 78.839844 151.929688 85.777344 151.191406 L 99.179688 150.527344 C 100.519531 150.464844 101.847656 150.707031 103.125 151.214844 C 103.480469 151.050781 103.855469 150.902344 104.25 150.785156 C 107.425781 149.84375 110.472656 150.949219 111.058594 153.265625 C 111.398438 154.621094 110.808594 156.097656 109.617188 157.273438 Z M 109.617188 157.273438 " fill-opacity="1" fill-rule="nonzero"/><path fill="#000000" d="M 70.144531 353.945312 C 60.761719 355.742188 43.648438 354.003906 39.042969 348.871094 C 35.109375 344.492188 40.601562 338.535156 47.390625 334.320312 C 47.140625 336.527344 48.464844 339.109375 55.863281 339.335938 C 68.734375 339.722656 79.179688 341.652344 70.144531 353.945312 Z M 99.4375 328.734375 C 97.476562 330.4375 94.582031 332.660156 91.347656 334.171875 C 87.714844 335.867188 84.480469 342.035156 85.351562 346.140625 C 88.625 344.945312 92.25 344.035156 96.109375 343.179688 C 100.796875 342.136719 100.632812 335.703125 99.4375 328.734375 Z M 191.199219 340.953125 C 189.558594 346.007812 186.632812 353.226562 181.710938 355.054688 C 176.613281 356.945312 168.457031 353.59375 164.792969 350.761719 C 165.039062 355.117188 165.703125 359.3125 167.738281 361.847656 C 172.640625 367.9375 183.359375 369.867188 186.144531 368.941406 C 188.921875 368.015625 196.070312 359.996094 195.9375 352.308594 C 195.882812 348.746094 193.679688 344.765625 191.199219 340.953125 Z M 78.933594 327.972656 C 79.382812 327.511719 79.375 326.773438 78.910156 326.324219 C 73.167969 320.722656 68.308594 321.054688 68.105469 321.070312 C 67.46875 321.125 66.992188 321.679688 67.046875 322.316406 C 67.09375 322.953125 67.652344 323.4375 68.292969 323.398438 C 68.332031 323.398438 72.367188 323.195312 77.285156 327.996094 C 77.507812 328.21875 77.804688 328.328125 78.101562 328.328125 C 78.402344 328.328125 78.707031 328.203125 78.933594 327.972656 Z M 74.109375 334.265625 C 74.671875 333.945312 74.863281 333.238281 74.554688 332.675781 C 70.351562 325.257812 63.523438 325.429688 63.234375 325.433594 C 62.589844 325.457031 62.09375 325.996094 62.117188 326.640625 C 62.140625 327.285156 62.675781 327.808594 63.3125 327.769531 C 63.539062 327.769531 69.039062 327.683594 72.523438 333.828125 C 72.742188 334.210938 73.128906 334.417969 73.542969 334.417969 C 73.738281 334.417969 73.929688 334.363281 74.109375 334.265625 Z M 169.351562 335.121094 C 172.835938 330.234375 180.105469 331.105469 180.214844 331.121094 C 180.863281 331.207031 181.4375 330.757812 181.523438 330.117188 C 181.609375 329.480469 181.15625 328.890625 180.519531 328.8125 C 180.160156 328.765625 171.769531 327.730469 167.453125 333.773438 C 167.078125 334.296875 167.195312 335.027344 167.722656 335.398438 C 167.925781 335.546875 168.167969 335.617188 168.402344 335.617188 C 168.757812 335.609375 169.117188 335.4375 169.351562 335.121094 Z M 171.800781 341.4375 C 175.285156 336.550781 182.558594 337.414062 182.667969 337.4375 C 183.304688 337.523438 183.886719 337.070312 183.972656 336.433594 C 184.058594 335.796875 183.609375 335.207031 182.96875 335.128906 C 182.613281 335.082031 174.21875 334.046875 169.902344 340.089844 C 169.527344 340.613281 169.644531 341.34375 170.175781 341.714844 C 170.375 341.863281 170.617188 341.933594 170.851562 341.933594 C 171.214844 341.925781 171.574219 341.753906 171.800781 341.4375 Z M 117.800781 50.605469 C 117.644531 50.605469 117.507812 50.511719 117.445312 50.367188 C 116.167969 47.230469 118.539062 45.824219 118.5625 45.808594 C 118.75 45.699219 118.984375 45.761719 119.09375 45.949219 C 119.203125 46.132812 119.140625 46.367188 118.953125 46.476562 C 118.875 46.523438 117.148438 47.574219 118.167969 50.070312 C 118.246094 50.273438 118.152344 50.496094 117.957031 50.574219 C 117.902344 50.597656 117.855469 50.605469 117.800781 50.605469 Z M 101.359375 45.542969 C 101.550781 45.449219 101.628906 45.214844 101.535156 45.023438 C 100.898438 43.683594 100.011719 42.828125 98.90625 42.476562 C 97.21875 41.949219 95.664062 42.796875 95.601562 42.835938 C 95.414062 42.9375 95.34375 43.179688 95.453125 43.363281 C 95.554688 43.550781 95.796875 43.621094 95.984375 43.511719 C 96 43.503906 97.320312 42.78125 98.683594 43.21875 C 99.570312 43.496094 100.300781 44.21875 100.84375 45.347656 C 100.914062 45.488281 101.046875 45.566406 101.195312 45.566406 C 101.25 45.582031 101.304688 45.566406 101.359375 45.542969 Z M 136.5625 45.355469 C 137.109375 44.21875 137.832031 43.503906 138.726562 43.226562 C 140.085938 42.789062 141.410156 43.511719 141.425781 43.519531 C 141.613281 43.621094 141.84375 43.558594 141.953125 43.371094 C 142.054688 43.1875 141.992188 42.953125 141.804688 42.84375 C 141.742188 42.804688 140.179688 41.949219 138.5 42.484375 C 137.394531 42.835938 136.507812 43.691406 135.871094 45.03125 C 135.777344 45.222656 135.863281 45.457031 136.050781 45.550781 C 136.105469 45.574219 136.160156 45.589844 136.222656 45.589844 C 136.359375 45.582031 136.5 45.496094 136.5625 45.355469 Z M 72.859375 162.054688 C 72.859375 147.214844 85.226562 146.957031 85.753906 146.957031 C 85.972656 146.957031 86.144531 146.78125 86.144531 146.570312 C 86.144531 146.351562 85.949219 146.195312 85.753906 146.179688 C 85.613281 146.179688 72.085938 146.429688 72.085938 162.054688 C 72.085938 162.273438 72.257812 162.445312 72.476562 162.445312 C 72.695312 162.445312 72.859375 162.273438 72.859375 162.054688 Z M 109.617188 157.660156 C 109.472656 157.660156 109.324219 157.578125 109.261719 157.429688 C 107.765625 154.011719 102.84375 151.664062 102.796875 151.640625 C 102.601562 151.546875 102.515625 151.316406 102.609375 151.121094 C 102.703125 150.925781 102.9375 150.839844 103.132812 150.933594 C 103.339844 151.035156 108.367188 153.429688 109.976562 157.117188 C 110.0625 157.3125 109.976562 157.546875 109.773438 157.628906 C 109.726562 157.644531 109.671875 157.660156 109.617188 157.660156 Z M 107.339844 164.554688 C 107.222656 164.554688 107.113281 164.507812 107.035156 164.40625 L 102.664062 158.992188 C 102.53125 158.828125 102.554688 158.578125 102.726562 158.449219 C 102.898438 158.316406 103.140625 158.339844 103.273438 158.507812 L 107.644531 163.921875 C 107.773438 164.085938 107.75 164.335938 107.582031 164.46875 C 107.511719 164.523438 107.425781 164.554688 107.339844 164.554688 Z M 104.375 168.535156 C 104.289062 168.535156 104.210938 168.511719 104.144531 168.457031 L 98.386719 164.023438 C 98.214844 163.890625 98.183594 163.652344 98.316406 163.480469 C 98.449219 163.308594 98.691406 163.277344 98.859375 163.410156 L 104.617188 167.84375 C 104.789062 167.976562 104.820312 168.21875 104.6875 168.386719 C 104.609375 168.480469 104.492188 168.535156 104.375 168.535156 Z M 100.511719 172.433594 C 100.441406 172.433594 100.378906 172.417969 100.316406 172.378906 L 94.386719 168.878906 C 94.203125 168.769531 94.140625 168.527344 94.25 168.339844 C 94.355469 168.15625 94.597656 168.09375 94.785156 168.203125 L 100.710938 171.703125 C 100.898438 171.8125 100.960938 172.050781 100.851562 172.238281 C 100.773438 172.363281 100.640625 172.433594 100.511719 172.433594 Z M 100.511719 172.433594 " fill-opacity="1" fill-rule="nonzero"/><path fill="#efaf9c" d="M 248.9375 237.65625 C 248.9375 237.65625 246.855469 248.988281 244.785156 257.1875 C 243.75 261.253906 240.523438 277.386719 237.527344 292.609375 C 234.488281 308.089844 231.6875 322.636719 231.6875 322.636719 C 231.6875 322.636719 219.015625 326.734375 213.617188 319.3125 C 213.617188 319.3125 214.722656 305.382812 215.996094 289.679688 C 217.390625 272.628906 219 253.5 219.636719 247.804688 C 220.882812 236.863281 225.253906 211.667969 225.253906 211.667969 C 225.253906 211.667969 256.632812 201.90625 248.9375 237.65625 Z M 266.589844 223.59375 C 266.589844 223.59375 269.296875 241.367188 266.589844 255.4375 C 265.289062 262.1875 265.964844 278.59375 267.03125 293.839844 C 268.183594 310.390625 269.777344 325.566406 269.777344 325.566406 C 278.871094 330.640625 286.679688 324.394531 286.679688 324.394531 C 286.679688 324.394531 287.761719 309.863281 288.960938 293.941406 C 290.3125 275.996094 291.8125 256.269531 292.101562 253.476562 C 292.644531 248.203125 292.101562 243.964844 292.101562 243.964844 C 296.558594 202.03125 266.589844 223.59375 266.589844 223.59375 Z M 266.589844 223.59375 " fill-opacity="1" fill-rule="nonzero"/><path fill="#ede6dd" d="M 286.6875 324.394531 C 286.6875 324.394531 295.742188 332.34375 302.253906 335.992188 C 308.761719 339.640625 324.265625 343.675781 323.222656 352.140625 C 322.179688 360.601562 292.613281 358.394531 284.152344 355.917969 C 275.6875 353.445312 270.671875 355.023438 268.136719 351.214844 C 266.667969 349.003906 265.980469 332.21875 269.792969 325.574219 C 273.597656 318.925781 286.6875 324.394531 286.6875 324.394531 Z M 213.671875 318.636719 C 208.109375 325.171875 204.507812 333.144531 202.992188 337.390625 C 202.316406 339.28125 201.527344 341.132812 200.632812 342.929688 C 189.953125 364.398438 199.738281 375.039062 211.074219 373.625 C 226.550781 371.6875 230.054688 356.136719 230.699219 348.996094 C 230.984375 345.816406 231.4375 342.65625 232.160156 339.539062 C 234.035156 331.441406 231.265625 319.8125 231.265625 319.8125 C 233.5625 306.058594 221.371094 309.597656 213.671875 318.636719 Z M 213.671875 318.636719 " fill-opacity="1" fill-rule="nonzero"/><path fill="#ffd391" d="M 288.96875 293.941406 C 287.769531 309.863281 286.6875 324.394531 286.6875 324.394531 C 286.6875 324.394531 278.878906 330.648438 269.785156 325.566406 C 269.785156 325.566406 268.183594 310.382812 267.039062 293.839844 C 276.847656 296.917969 284.386719 295.136719 288.96875 293.941406 Z M 215.996094 289.6875 C 214.722656 305.390625 213.617188 319.320312 213.617188 319.320312 C 219.015625 326.742188 231.6875 322.644531 231.6875 322.644531 C 231.6875 322.644531 234.488281 308.097656 237.527344 292.617188 C 232.644531 293.582031 224.777344 293.941406 215.996094 289.6875 Z M 215.996094 289.6875 " fill-opacity="1" fill-rule="nonzero"/><path fill="#efaf9c" d="M 268.96875 40.542969 C 268.96875 47.261719 266.703125 53.289062 262.933594 57.375 C 261.960938 58.433594 260.886719 59.367188 259.71875 60.144531 L 260.132812 62.949219 L 261.601562 72.804688 C 249.359375 78.140625 239.222656 71.949219 239.222656 71.949219 L 238.984375 57.351562 C 238.15625 56.605469 237.324219 55.800781 236.445312 54.929688 C 233.054688 51.570312 231.972656 46.023438 231.972656 40.542969 C 231.972656 28.21875 240.453125 18.234375 250.898438 18.234375 C 261.351562 18.242188 268.96875 28.21875 268.96875 40.542969 Z M 268.96875 40.542969 " fill-opacity="1" fill-rule="nonzero"/><path fill="#000000" d="M 275.355469 32.351562 C 275.84375 34.023438 280.238281 37.609375 278.777344 38.675781 C 277.316406 39.738281 273.597656 37.351562 273.597656 37.351562 C 273.597656 37.351562 272.914062 41.3125 270.570312 41.289062 C 268.222656 41.265625 266.757812 34.527344 266.757812 34.527344 C 260 32.195312 256.25 27.425781 254.234375 23.609375 C 254.121094 25.605469 253.03125 30.1875 245.609375 31.550781 C 243.632812 31.914062 238.960938 33.523438 237.253906 34.394531 C 236.742188 36.246094 234.867188 42.65625 233.421875 42.578125 C 232.722656 42.539062 231.878906 41.34375 231.140625 39.949219 C 230.949219 40.324219 230.878906 40.542969 230.878906 40.542969 C 230.878906 40.542969 226.613281 42.46875 222.414062 38.667969 C 218.214844 34.863281 228.714844 38.875 230.347656 26.859375 C 231.609375 17.601562 248.378906 12.117188 253.480469 16.25 C 259.8125 9.464844 267.476562 15.9375 269.296875 20.667969 C 271.246094 25.746094 280.730469 31.449219 279.074219 32.808594 C 277.414062 34.1875 275.355469 32.351562 275.355469 32.351562 Z M 275.355469 32.351562 " fill-opacity="1" fill-rule="nonzero"/><path fill="#efaf9c" d="M 235.652344 42.308594 C 237.015625 46.203125 235.738281 50.195312 232.804688 51.214844 C 229.875 52.230469 226.398438 49.90625 225.035156 46.007812 C 223.675781 42.113281 224.949219 38.121094 227.882812 37.101562 C 230.824219 36.078125 234.300781 38.410156 235.652344 42.308594 Z M 263.398438 45.097656 C 261.84375 48.917969 262.917969 52.972656 265.785156 54.136719 C 268.664062 55.304688 272.25 53.15625 273.808594 49.339844 C 275.363281 45.519531 274.289062 41.46875 271.417969 40.300781 C 268.546875 39.125 264.953125 41.28125 263.398438 45.097656 Z M 263.398438 45.097656 " fill-opacity="1" fill-rule="nonzero"/><path fill="#000000" d="M 259.726562 60.152344 L 260.140625 62.957031 C 257.992188 64.839844 255.066406 65.992188 251.855469 65.992188 C 246.644531 65.992188 242.210938 62.972656 240.5625 58.75 C 243.71875 61.222656 246.863281 62.65625 250.9375 62.65625 C 254.167969 62.648438 257.144531 61.746094 259.726562 60.152344 Z M 240.863281 39.753906 C 240.75 41.195312 241.820312 42.453125 243.261719 42.570312 C 244.699219 42.6875 245.960938 41.613281 246.078125 40.175781 C 246.191406 38.738281 245.121094 37.476562 243.679688 37.359375 C 242.242188 37.242188 240.980469 38.316406 240.863281 39.753906 Z M 260.109375 38.683594 C 258.667969 38.566406 257.410156 39.640625 257.292969 41.078125 C 257.175781 42.515625 258.25 43.777344 259.6875 43.894531 C 261.128906 44.011719 262.386719 42.9375 262.503906 41.5 C 262.621094 40.058594 261.546875 38.800781 260.109375 38.683594 Z M 253.871094 48.328125 C 253.707031 48.46875 253.699219 48.714844 253.839844 48.878906 C 253.917969 48.964844 254.027344 49.011719 254.128906 49.011719 C 254.21875 49.011719 254.3125 48.980469 254.382812 48.910156 C 255.433594 47.96875 255.894531 47.003906 255.746094 46.039062 C 255.480469 44.296875 253.292969 43.289062 253.203125 43.25 C 253.007812 43.164062 252.773438 43.25 252.6875 43.441406 C 252.601562 43.636719 252.6875 43.871094 252.882812 43.957031 C 252.898438 43.964844 254.773438 44.835938 254.976562 46.15625 C 255.089844 46.851562 254.710938 47.574219 253.871094 48.328125 Z M 229.34375 39.28125 C 227.734375 38.96875 226.109375 40.65625 226.039062 40.726562 C 225.890625 40.882812 225.898438 41.132812 226.054688 41.28125 C 226.210938 41.429688 226.460938 41.421875 226.605469 41.273438 C 226.996094 40.867188 228.226562 39.855469 229.203125 40.050781 C 229.75 40.152344 230.191406 40.625 230.519531 41.445312 C 230.582031 41.589844 230.730469 41.683594 230.878906 41.683594 C 230.925781 41.683594 230.976562 41.675781 231.023438 41.652344 C 231.226562 41.574219 231.320312 41.351562 231.242188 41.148438 C 230.800781 40.066406 230.160156 39.4375 229.34375 39.28125 Z M 273.292969 43.894531 C 273.246094 43.839844 272.078125 42.609375 270.773438 42.828125 C 270.011719 42.960938 269.394531 43.535156 268.9375 44.554688 C 268.851562 44.75 268.9375 44.984375 269.132812 45.070312 C 269.1875 45.089844 269.242188 45.097656 269.289062 45.097656 C 269.433594 45.097656 269.574219 45.015625 269.644531 44.867188 C 269.988281 44.105469 270.40625 43.675781 270.898438 43.589844 C 271.800781 43.433594 272.71875 44.40625 272.726562 44.421875 C 272.875 44.578125 273.121094 44.585938 273.277344 44.4375 C 273.433594 44.289062 273.441406 44.050781 273.292969 43.894531 Z M 248.574219 32.273438 C 248.984375 32.375 249.414062 32.117188 249.515625 31.703125 C 249.617188 31.285156 249.359375 30.863281 248.945312 30.765625 C 248.714844 30.710938 243.128906 29.378906 239.480469 32.605469 C 239.160156 32.894531 239.128906 33.386719 239.410156 33.703125 C 239.566406 33.875 239.777344 33.96875 239.992188 33.96875 C 240.179688 33.96875 240.359375 33.90625 240.507812 33.773438 C 243.539062 31.082031 248.519531 32.257812 248.574219 32.273438 Z M 265.972656 35.539062 C 262.195312 33.828125 258.414062 32.148438 258.414062 32.148438 C 258.015625 31.96875 257.558594 32.148438 257.386719 32.546875 C 257.214844 32.933594 257.386719 33.402344 257.78125 33.570312 C 257.78125 33.570312 261.554688 35.246094 265.328125 36.957031 C 265.429688 37.003906 265.539062 37.027344 265.648438 37.027344 C 265.941406 37.027344 266.222656 36.855469 266.355469 36.566406 C 266.535156 36.175781 266.363281 35.710938 265.972656 35.539062 Z M 249.085938 33.828125 C 249.195312 34.15625 249.5 34.359375 249.824219 34.359375 C 249.910156 34.359375 249.996094 34.34375 250.074219 34.320312 C 253.714844 33.074219 255.183594 30.125 255.597656 27.210938 C 255.917969 29.160156 255.769531 31.347656 254.34375 33.089844 C 254.074219 33.425781 254.121094 33.914062 254.453125 34.1875 C 254.789062 34.457031 255.277344 34.402344 255.550781 34.078125 C 259.625 29.089844 255.363281 21.78125 255.183594 21.46875 C 254.984375 21.132812 254.570312 20.992188 254.210938 21.148438 C 253.855469 21.296875 253.660156 21.695312 253.761719 22.066406 C 253.855469 22.417969 255.957031 30.671875 249.578125 32.855469 C 249.164062 32.980469 248.953125 33.417969 249.085938 33.828125 Z M 249.085938 33.828125 " fill-opacity="1" fill-rule="nonzero"/><path fill="#ffd391" d="M 339.785156 124.207031 C 337.667969 136.707031 319.265625 173.351562 303.503906 165.765625 C 282.386719 155.609375 301.234375 126.308594 301.234375 126.308594 L 294.972656 127.425781 L 290.601562 158.347656 L 227.492188 156.191406 L 215.539062 122.84375 C 204.1875 121.867188 189.496094 116.445312 183.769531 112.210938 C 175.527344 106.128906 153.039062 89.039062 175.480469 76.53125 C 187.171875 70.015625 201.652344 68.707031 212.855469 68.949219 C 222.375 69.160156 231.773438 71.140625 240.625 74.664062 L 243.476562 75.800781 L 237.253906 79.667969 C 241.835938 83.066406 248.921875 86.753906 256.523438 84.894531 C 262.378906 83.457031 265.640625 81.144531 267.46875 79.027344 L 265.65625 74.542969 C 265.65625 74.542969 271.007812 68.527344 298.644531 80.242188 C 326.28125 91.949219 341.898438 111.707031 339.785156 124.207031 Z M 231.03125 48.824219 C 229.6875 48.824219 228.597656 49.914062 228.597656 51.261719 C 228.597656 52.605469 229.6875 53.695312 231.03125 53.695312 C 232.378906 53.695312 233.46875 52.605469 233.46875 51.261719 C 233.460938 49.914062 232.371094 48.824219 231.03125 48.824219 Z M 268.882812 51.261719 C 267.539062 51.261719 266.449219 52.347656 266.449219 53.695312 C 266.449219 55.039062 267.539062 56.128906 268.882812 56.128906 C 270.230469 56.128906 271.316406 55.039062 271.316406 53.695312 C 271.316406 52.347656 270.222656 51.261719 268.882812 51.261719 Z M 268.882812 51.261719 " fill-opacity="1" fill-rule="nonzero"/><path fill="#000000" d="M 305.816406 162.765625 C 301.1875 162.765625 297.421875 159 297.421875 154.371094 C 297.421875 149.742188 301.1875 145.976562 305.816406 145.976562 C 310.441406 145.976562 314.207031 149.742188 314.207031 154.371094 C 314.207031 159 310.441406 162.765625 305.816406 162.765625 Z M 305.816406 146.757812 C 301.613281 146.757812 298.199219 150.171875 298.199219 154.371094 C 298.199219 158.570312 301.613281 161.988281 305.816406 161.988281 C 310.015625 161.988281 313.429688 158.570312 313.429688 154.371094 C 313.429688 150.171875 310.015625 146.757812 305.816406 146.757812 Z M 301.589844 126.453125 C 304.257812 119.84375 311.175781 115.898438 311.246094 115.859375 C 311.429688 115.75 311.5 115.519531 311.390625 115.332031 C 311.292969 115.144531 311.050781 115.074219 310.863281 115.183594 C 310.566406 115.347656 303.644531 119.296875 300.867188 126.167969 C 300.789062 126.367188 300.882812 126.59375 301.085938 126.671875 C 301.132812 126.6875 301.1875 126.703125 301.234375 126.703125 C 301.382812 126.695312 301.527344 126.601562 301.589844 126.453125 Z M 295.351562 127.496094 L 296.339844 122.074219 C 296.378906 121.867188 296.238281 121.664062 296.03125 121.625 C 295.820312 121.585938 295.617188 121.726562 295.578125 121.933594 L 294.589844 127.355469 C 294.550781 127.566406 294.691406 127.769531 294.902344 127.808594 C 294.925781 127.816406 294.949219 127.816406 294.972656 127.816406 C 295.152344 127.816406 295.3125 127.683594 295.351562 127.496094 Z M 295.351562 127.496094 " fill-opacity="1" fill-rule="nonzero"/><path fill="#efaf9c" d="M 297.941406 154.90625 C 300.402344 151.476562 305.488281 151.128906 308.234375 154.332031 C 308.273438 154.378906 308.3125 154.417969 308.34375 154.464844 C 309.960938 156.441406 309.84375 159.320312 308.171875 161.253906 L 305.046875 164.863281 C 305.046875 164.863281 305.984375 175.015625 303.300781 182.289062 C 303.300781 182.289062 309.527344 190.828125 308.609375 192.710938 C 307.691406 194.59375 302.578125 190.671875 297.648438 185.671875 C 297.648438 185.671875 298.316406 200.980469 294.722656 199.84375 C 291.128906 198.707031 289.628906 172.472656 289.832031 170.894531 C 289.960938 169.890625 292.34375 164.894531 294.0625 161.394531 C 295.175781 159.132812 296.464844 156.953125 297.941406 154.90625 Z M 297.941406 154.90625 " fill-opacity="1" fill-rule="nonzero"/><path fill="#a2c3e6" d="M 290.59375 158.5 L 290.59375 166.015625 C 290.59375 166.242188 290.617188 166.46875 290.664062 166.691406 L 305.425781 239.625 C 305.683594 240.882812 305.207031 242.183594 304.21875 242.921875 C 299.507812 246.445312 284.609375 255.492188 261.601562 250.007812 C 261.277344 249.929688 260.933594 249.90625 260.597656 249.945312 C 256.4375 250.457031 226.855469 253.507812 209.183594 239.839844 C 208.195312 239.070312 207.742188 237.75 208.03125 236.480469 L 226.519531 155.617188 Z M 290.59375 158.5 " fill-opacity="1" fill-rule="nonzero"/><path fill="#000000" d="M 278.769531 184.847656 C 278.910156 185.011719 278.894531 185.253906 278.738281 185.398438 L 263.820312 198.578125 L 260.988281 249.960938 C 260.980469 250.171875 260.800781 250.328125 260.597656 250.328125 C 260.589844 250.328125 260.582031 250.328125 260.574219 250.328125 C 260.359375 250.320312 260.195312 250.132812 260.210938 249.914062 L 263.050781 198.367188 C 263.058594 198.265625 263.101562 198.164062 263.179688 198.09375 L 278.226562 184.808594 C 278.378906 184.675781 278.628906 184.691406 278.769531 184.847656 Z M 289.832031 165.378906 L 224.894531 161.988281 C 224.6875 161.972656 224.5 162.140625 224.484375 162.351562 C 224.476562 162.570312 224.640625 162.75 224.847656 162.765625 L 289.785156 166.15625 C 289.792969 166.15625 289.800781 166.15625 289.808594 166.15625 C 290.007812 166.15625 290.1875 165.992188 290.195312 165.789062 C 290.210938 165.574219 290.039062 165.394531 289.832031 165.378906 Z M 268.617188 160.859375 C 268.617188 159.367188 269.832031 158.152344 271.324219 158.152344 C 272.820312 158.152344 274.03125 159.367188 274.03125 160.859375 C 274.03125 162.351562 272.820312 163.566406 271.324219 163.566406 C 269.832031 163.566406 268.617188 162.351562 268.617188 160.859375 Z M 269.394531 160.859375 C 269.394531 161.925781 270.257812 162.789062 271.324219 162.789062 C 272.390625 162.789062 273.253906 161.925781 273.253906 160.859375 C 273.253906 159.792969 272.390625 158.929688 271.324219 158.929688 C 270.257812 158.929688 269.394531 159.792969 269.394531 160.859375 Z M 232.277344 119.546875 C 234.386719 117.089844 235.328125 114.507812 235.0625 111.863281 C 234.648438 107.730469 231.46875 104.824219 230.730469 104.207031 C 230 78.710938 200.519531 74.191406 200.214844 74.152344 C 200.003906 74.121094 199.800781 74.269531 199.769531 74.480469 C 199.738281 74.6875 199.886719 74.890625 200.097656 74.921875 C 200.386719 74.960938 228.917969 79.363281 229.914062 103.867188 C 228.132812 103.390625 222.460938 102.433594 218.695312 108.019531 C 218.578125 108.199219 218.625 108.441406 218.804688 108.554688 C 218.875 108.601562 218.945312 108.625 219.023438 108.625 C 219.148438 108.625 219.273438 108.5625 219.347656 108.457031 C 223.339844 102.535156 229.460938 104.496094 230.144531 104.738281 C 230.566406 105.078125 233.886719 107.933594 234.285156 111.941406 C 234.527344 114.359375 233.644531 116.746094 231.6875 119.042969 C 224.972656 126.859375 216.128906 122.820312 215.757812 122.652344 C 215.5625 122.558594 215.328125 122.644531 215.234375 122.835938 C 215.140625 123.03125 215.226562 123.265625 215.421875 123.359375 C 215.46875 123.382812 218.082031 124.578125 221.582031 124.578125 C 224.832031 124.570312 228.855469 123.53125 232.277344 119.546875 Z M 232.277344 119.546875 " fill-opacity="1" fill-rule="nonzero"/><path fill="#a2c3e6" d="M 273.457031 20.863281 C 272.171875 22.675781 270.445312 23.683594 268.9375 24.292969 C 263.703125 26.390625 257.136719 25.886719 252.757812 26.152344 C 239.992188 26.914062 235.980469 34.871094 226.839844 32.351562 C 225.089844 31.867188 222.742188 30.847656 221.714844 28.414062 C 219.328125 22.722656 229.757812 13.300781 235.808594 10.335938 C 236.601562 9.949219 237.417969 9.589844 238.242188 9.273438 C 238.210938 9.085938 238.1875 8.898438 238.1875 8.703125 C 238.1875 7.046875 239.535156 5.703125 241.191406 5.703125 C 242.445312 5.703125 243.507812 6.464844 243.960938 7.546875 C 261.035156 3.84375 280.238281 11.285156 273.457031 20.863281 Z M 273.457031 20.863281 " fill-opacity="1" fill-rule="nonzero"/><path fill="#000000" d="M 291.8125 341.09375 C 291.230469 341.09375 290.648438 340.96875 290.09375 340.695312 L 289.246094 340.285156 C 288.195312 339.769531 287.441406 338.828125 287.179688 337.695312 C 286.914062 336.558594 287.164062 335.375 287.878906 334.449219 C 290.132812 331.519531 293.625 330.015625 293.773438 329.945312 C 293.976562 329.863281 294.203125 329.953125 294.289062 330.148438 C 294.371094 330.34375 294.28125 330.578125 294.085938 330.664062 C 294.054688 330.679688 290.632812 332.15625 288.5 334.917969 C 287.933594 335.65625 287.722656 336.605469 287.941406 337.507812 C 288.148438 338.417969 288.757812 339.171875 289.597656 339.578125 L 290.445312 339.988281 C 291.835938 340.664062 293.523438 340.230469 294.371094 338.96875 C 295.484375 337.304688 297.453125 335.199219 300.488281 334.589844 C 300.695312 334.550781 300.898438 334.683594 300.945312 334.894531 C 300.992188 335.105469 300.851562 335.304688 300.640625 335.351562 C 297.867188 335.914062 296.054688 337.867188 295.027344 339.40625 C 294.289062 340.496094 293.066406 341.09375 291.8125 341.09375 Z M 306.78125 344.3125 C 307.890625 343 309.773438 341.359375 312.457031 341.039062 C 312.667969 341.015625 312.824219 340.820312 312.800781 340.613281 C 312.777344 340.402344 312.574219 340.238281 312.371094 340.269531 C 309.433594 340.617188 307.386719 342.386719 306.1875 343.808594 C 305.347656 344.804688 303.964844 345.175781 302.757812 344.734375 C 301.746094 344.359375 301.015625 343.503906 300.804688 342.4375 C 300.59375 341.367188 300.953125 340.292969 301.753906 339.554688 C 303.242188 338.191406 304.796875 337.5625 304.8125 337.554688 C 305.015625 337.476562 305.105469 337.25 305.03125 337.046875 C 304.953125 336.847656 304.726562 336.753906 304.523438 336.832031 C 304.453125 336.863281 302.828125 337.515625 301.226562 338.976562 C 300.222656 339.894531 299.769531 341.25 300.035156 342.585938 C 300.292969 343.917969 301.210938 344.992188 302.476562 345.457031 C 302.90625 345.613281 303.355469 345.691406 303.800781 345.691406 C 304.929688 345.699219 306.023438 345.207031 306.78125 344.3125 Z M 223.199219 342.414062 C 224.289062 341.957031 225.136719 341.054688 225.535156 339.941406 L 225.695312 339.484375 C 226.429688 337.421875 225.425781 335.121094 223.417969 334.25 C 221.007812 333.207031 217.125 331.929688 212.324219 331.804688 C 210.527344 331.765625 208.894531 332.878906 208.273438 334.644531 C 207.851562 335.835938 207.992188 337.140625 208.652344 338.214844 C 209.324219 339.304688 210.441406 340.019531 211.71875 340.183594 C 214.898438 340.589844 217.644531 341.320312 219.886719 342.363281 C 220.4375 342.617188 221.015625 342.742188 221.597656 342.742188 C 222.132812 342.742188 222.679688 342.632812 223.199219 342.414062 Z M 212.292969 332.589844 C 216.96875 332.714844 220.75 333.953125 223.097656 334.972656 C 224.730469 335.679688 225.550781 337.546875 224.957031 339.226562 L 224.792969 339.6875 C 224.476562 340.597656 223.785156 341.328125 222.898438 341.699219 C 222.019531 342.066406 221.070312 342.058594 220.207031 341.660156 C 217.886719 340.589844 215.0625 339.832031 211.804688 339.421875 C 210.761719 339.289062 209.851562 338.707031 209.308594 337.820312 C 208.769531 336.949219 208.652344 335.890625 209.011719 334.871094 C 209.496094 333.5 210.769531 332.589844 212.203125 332.589844 C 212.230469 332.589844 212.261719 332.589844 212.292969 332.589844 Z M 219.273438 354.503906 C 220.359375 354.042969 221.207031 353.140625 221.605469 352.03125 L 221.769531 351.570312 C 222.5 349.511719 221.496094 347.207031 219.488281 346.335938 C 217.078125 345.292969 213.195312 344.019531 208.398438 343.894531 C 206.609375 343.871094 204.96875 344.96875 204.34375 346.734375 C 203.925781 347.921875 204.066406 349.230469 204.734375 350.304688 C 205.402344 351.390625 206.523438 352.109375 207.796875 352.269531 C 210.980469 352.675781 213.734375 353.40625 215.964844 354.449219 C 216.511719 354.707031 217.09375 354.832031 217.675781 354.832031 C 218.207031 354.832031 218.75 354.722656 219.273438 354.503906 Z M 208.367188 344.671875 C 213.042969 344.796875 216.820312 346.03125 219.171875 347.050781 C 220.804688 347.757812 221.621094 349.632812 221.03125 351.308594 L 220.867188 351.765625 C 220.546875 352.675781 219.855469 353.40625 218.96875 353.78125 C 218.089844 354.152344 217.140625 354.136719 216.285156 353.742188 C 213.976562 352.667969 211.152344 351.914062 207.882812 351.5 C 206.84375 351.367188 205.933594 350.785156 205.386719 349.898438 C 204.851562 349.027344 204.734375 347.96875 205.089844 346.949219 C 205.574219 345.582031 206.847656 344.671875 208.28125 344.671875 C 208.304688 344.671875 208.335938 344.671875 208.367188 344.671875 Z M 208.367188 344.671875 " fill-opacity="1" fill-rule="nonzero"/><path fill="#efaf9c" d="M 236.191406 144.796875 C 235.203125 146.273438 231.941406 148.117188 229.179688 149.183594 C 229.179688 149.183594 229.136719 149.199219 229.074219 149.222656 C 228.996094 149.253906 228.917969 149.285156 228.839844 149.308594 C 227.570312 149.773438 226.179688 151.167969 223.898438 150.738281 C 221.230469 150.242188 220.34375 142.6875 221.136719 141.101562 C 221.933594 139.515625 224.164062 138.371094 224.980469 144.585938 C 226.351562 143.0625 227.695312 142.585938 227.695312 142.585938 C 227.695312 142.585938 221.09375 129.472656 225.183594 121.71875 L 222.617188 119.21875 C 221.292969 117.9375 221.167969 115.859375 222.335938 114.429688 C 223.316406 113.214844 224.832031 112.042969 227.066406 111.777344 C 228.386719 111.621094 229.695312 112.148438 230.613281 113.121094 C 232.613281 115.230469 236.359375 119.359375 237.101562 121.453125 C 238.109375 124.332031 237.660156 142.59375 236.191406 144.796875 Z M 236.191406 144.796875 " fill-opacity="1" fill-rule="nonzero"/><path fill="#ede6dd" d="M 269.785156 74.144531 C 269.785156 74.144531 269.542969 82.484375 256.523438 85.671875 C 243.5 88.859375 231.980469 74.976562 231.980469 74.976562 L 238.953125 69.226562 C 251.195312 72.914062 261.074219 69.226562 261.074219 69.226562 Z M 257.738281 51.175781 L 245.71875 49.992188 C 244.792969 49.898438 244.101562 50.871094 244.535156 51.695312 C 245.238281 53.027344 246.746094 54.746094 250.042969 55.78125 C 253.824219 56.96875 256.804688 54.871094 258.476562 53.179688 C 259.175781 52.480469 258.730469 51.277344 257.738281 51.175781 Z M 257.738281 51.175781 " fill-opacity="1" fill-rule="nonzero"/><g clip-path="url(#e471112df6)"><g clip-path="url(#2192012926)"><g clip-path="url(#ab088c3717)"><path fill="#ff5757" d="M 319.4375 66.199219 C 314.898438 67.796875 310.339844 70.601562 311.785156 78.179688 C 312.582031 82.355469 305.574219 81.214844 303.738281 81.5 C 300.503906 82.007812 297.894531 79.53125 298.167969 76.019531 C 298.582031 70.675781 299.136719 65.128906 303.515625 61.746094 C 308.628906 57.789062 318.308594 57.132812 320.273438 50.171875 C 321.53125 45.714844 319.6875 39.144531 315.8125 36.140625 C 312.609375 33.660156 303.777344 33.601562 301.855469 37.121094 C 299.628906 41.195312 297.769531 46.179688 301.777344 51.4375 C 303.128906 53.210938 304.082031 55.042969 302.640625 57.34375 C 301.488281 59.175781 299.898438 58.941406 298.296875 58.421875 C 292.792969 56.640625 287.953125 49.4375 288.160156 41.976562 C 288.445312 31.671875 291.90625 27.066406 299.128906 24.507812 C 311.726562 20.042969 325.707031 21.441406 330.96875 38.992188 C 335.101562 52.78125 328.628906 62.96875 319.4375 66.199219 Z M 319.4375 66.199219 " fill-opacity="1" fill-rule="nonzero"/></g></g></g><g clip-path="url(#f46228d40d)"><g clip-path="url(#f0a37203e6)"><g clip-path="url(#c98864f5d5)"><path fill="#ff5757" d="M 299.886719 88.457031 C 302.910156 84.945312 307.207031 85.714844 309.609375 88.546875 C 311.582031 90.871094 313.972656 94.347656 311.402344 97.933594 C 309.023438 101.253906 306.167969 103.699219 301.734375 101.003906 C 296.710938 97.953125 295.324219 93.753906 299.886719 88.457031 Z M 299.886719 88.457031 " fill-opacity="1" fill-rule="nonzero"/></g></g></g><g clip-path="url(#926f85ffa2)"><g clip-path="url(#c3ec9c896f)"><g clip-path="url(#3fa5b40ca3)"><path fill="#ff5757" d="M 181.96875 80.085938 C 178.964844 80.027344 175.683594 80.671875 174.871094 85.425781 C 174.425781 88.042969 170.574219 85.84375 169.4375 85.613281 C 167.433594 85.203125 166.449219 83.183594 167.375 81.1875 C 168.785156 78.148438 170.320312 75.023438 173.625 74 C 177.480469 72.804688 183.289062 74.53125 185.960938 70.886719 C 187.671875 68.554688 188.027344 64.304688 186.414062 61.703125 C 185.082031 59.550781 179.925781 57.585938 178.03125 59.226562 C 175.839844 61.121094 173.660156 63.632812 174.859375 67.589844 C 175.261719 68.921875 175.417969 70.203125 174.074219 71.230469 C 173 72.054688 172.117188 71.566406 171.292969 70.914062 C 168.460938 68.667969 167.203125 63.394531 168.957031 59.074219 C 171.375 53.105469 174.40625 51.167969 179.191406 51.246094 C 187.539062 51.386719 195.417969 55.261719 194.660156 66.679688 C 194.070312 75.65625 188.054688 80.203125 181.96875 80.085938 Z M 181.96875 80.085938 " fill-opacity="1" fill-rule="nonzero"/></g></g></g><g clip-path="url(#89affb5dd6)"><g clip-path="url(#02e0de56c3)"><g clip-path="url(#e551a1aeff)"><path fill="#ff5757" d="M 165.664062 88.839844 C 168.199219 87.445312 170.546875 88.835938 171.335938 91.015625 C 171.980469 92.808594 172.621094 95.367188 170.332031 96.902344 C 168.214844 98.328125 166.007812 99.132812 164.003906 96.585938 C 161.730469 93.703125 161.835938 90.945312 165.664062 88.839844 Z M 165.664062 88.839844 " fill-opacity="1" fill-rule="nonzero"/></g></g></g><g clip-path="url(#8f6302c230)"><g clip-path="url(#c04d777c9c)"><g clip-path="url(#726e52212e)"><path fill="#ff5757" d="M 101.949219 326.128906 C 98.945312 326.070312 95.660156 326.714844 94.851562 331.46875 C 94.40625 334.085938 90.554688 331.886719 89.414062 331.652344 C 87.410156 331.246094 86.425781 329.226562 87.355469 327.230469 C 88.765625 324.191406 90.300781 321.066406 93.601562 320.042969 C 97.460938 318.84375 103.265625 320.574219 105.9375 316.929688 C 107.648438 314.59375 108.003906 310.347656 106.394531 307.742188 C 105.058594 305.59375 99.90625 303.628906 98.011719 305.269531 C 95.816406 307.164062 93.640625 309.675781 94.835938 313.628906 C 95.238281 314.964844 95.398438 316.246094 94.050781 317.273438 C 92.976562 318.097656 92.097656 317.609375 91.273438 316.957031 C 88.441406 314.710938 87.183594 309.4375 88.933594 305.117188 C 91.355469 299.148438 94.382812 297.207031 99.171875 297.289062 C 107.519531 297.429688 115.394531 301.300781 114.640625 312.722656 C 114.046875 321.699219 108.03125 326.246094 101.949219 326.128906 Z M 101.949219 326.128906 " fill-opacity="1" fill-rule="nonzero"/></g></g></g><g clip-path="url(#23efaf6ea4)"><g clip-path="url(#d265a94c37)"><g clip-path="url(#759aa2fea3)"><path fill="#ff5757" d="M 85.640625 334.882812 C 88.179688 333.488281 90.527344 334.878906 91.3125 337.058594 C 91.960938 338.851562 92.597656 341.410156 90.3125 342.945312 C 88.191406 344.371094 85.988281 345.175781 83.980469 342.628906 C 81.707031 339.746094 81.8125 336.988281 85.640625 334.882812 Z M 85.640625 334.882812 " fill-opacity="1" fill-rule="nonzero"/></g></g></g></svg>