<svg xmlns="http://www.w3.org/2000/svg" xmlns:xlink="http://www.w3.org/1999/xlink" width="500" zoomAndPan="magnify" viewBox="0 0 375 374.999991" height="500" preserveAspectRatio="xMidYMid meet" version="1.0"><defs><clipPath id="b030f27223"><path d="M 56 12.472656 L 196 12.472656 L 196 225 L 56 225 Z M 56 12.472656 " clip-rule="nonzero"/></clipPath></defs><path fill="#c9846f" d="M 195.375 341.34375 C 195.5 348.519531 188.828125 356.003906 186.234375 356.867188 C 183.636719 357.730469 173.628906 355.929688 169.054688 350.246094 C 167.152344 347.878906 166.535156 343.964844 166.304688 339.898438 C 165.984375 334.207031 166.414062 328.203125 165.113281 325.746094 C 162.890625 321.542969 161.386719 311.558594 161.386719 311.558594 C 167.328125 295.367188 179.257812 306.972656 179.257812 306.972656 C 179.257812 306.972656 183.140625 314.53125 184.5 319.84375 C 185.234375 322.699219 188.273438 326.613281 190.953125 330.742188 C 193.269531 334.300781 195.324219 338.019531 195.375 341.34375 Z M 105.296875 319.335938 C 104.410156 314.269531 102.9375 308.894531 102.558594 305.378906 C 101.695312 297.351562 89.953125 292.527344 82.542969 305.378906 C 82.542969 305.378906 74.386719 317.863281 65.855469 320.339844 C 63.089844 321.136719 59.761719 322.660156 56.714844 324.550781 C 50.375 328.484375 45.25 334.046875 48.921875 338.136719 C 53.222656 342.925781 69.195312 344.546875 77.953125 342.867188 C 80.269531 342.425781 82.078125 341.757812 83.035156 340.851562 C 85.496094 338.527344 88.597656 336.878906 92.148438 335.585938 C 95.203125 334.46875 98.585938 333.617188 102.1875 332.820312 C 106.566406 331.847656 106.414062 325.84375 105.296875 319.335938 Z M 104.417969 70.546875 C 104.417969 70.546875 84.84375 86.527344 72.464844 91.894531 C 71.417969 92.351562 71.03125 93.636719 71.671875 94.585938 L 71.765625 94.734375 L 60.324219 101.789062 C 59.777344 102.125 59.609375 102.84375 59.945312 103.386719 C 60.277344 103.933594 60.996094 104.097656 61.542969 103.765625 L 73.058594 96.664062 L 74.453125 98.75 L 62.855469 105.898438 C 62.3125 106.234375 62.144531 106.953125 62.480469 107.496094 C 62.8125 108.042969 63.53125 108.210938 64.078125 107.875 L 75.746094 100.679688 L 77.140625 102.761719 L 65.390625 110.003906 C 64.847656 110.335938 64.679688 111.054688 65.011719 111.601562 C 65.347656 112.144531 66.066406 112.3125 66.609375 111.976562 L 78.429688 104.6875 L 79.613281 106.460938 L 67.730469 113.785156 C 67.183594 114.121094 67.015625 114.839844 67.351562 115.382812 C 67.683594 115.925781 68.402344 116.09375 68.949219 115.761719 L 80.90625 108.390625 L 82.191406 110.320312 L 70.160156 117.742188 C 69.617188 118.078125 69.449219 118.796875 69.785156 119.339844 C 70.117188 119.886719 70.835938 120.050781 71.382812 119.71875 L 83.484375 112.253906 L 84.878906 114.335938 L 72.695312 121.84375 C 72.152344 122.179688 71.984375 122.898438 72.316406 123.441406 C 72.652344 123.988281 73.371094 124.15625 73.914062 123.820312 L 86.171875 116.261719 L 87.355469 118.035156 L 75.035156 125.628906 C 74.488281 125.960938 74.320312 126.679688 74.65625 127.226562 C 74.988281 127.769531 75.707031 127.9375 76.253906 127.601562 L 88.648438 119.957031 L 89.488281 121.214844 C 89.488281 121.214844 117.742188 107.796875 126.273438 91.066406 Z M 104.417969 70.546875 " fill-opacity="1" fill-rule="nonzero"/><path fill="#ede6dd" d="M 186.53125 141.71875 C 186.53125 141.71875 194.230469 168.226562 191.90625 175.640625 C 189.589844 183.054688 166.136719 201.59375 166.136719 201.59375 L 160.203125 146.808594 Z M 186.53125 141.71875 " fill-opacity="1" fill-rule="nonzero"/><g clip-path="url(#b030f27223)"><path fill="#a2c3e6" d="M 195.324219 139.984375 C 193.183594 144.425781 186.75 154.445312 171.023438 158.8125 C 171.023438 158.8125 175.167969 199.007812 176.25 215.65625 C 176.394531 217.9375 174.820312 219.96875 172.570312 220.375 C 160.347656 222.613281 121.539062 228.507812 87.347656 220.449219 C 85.378906 219.984375 83.964844 218.261719 83.882812 216.246094 C 83.578125 208.097656 84.777344 187.652344 84.195312 168.324219 C 57.839844 165.941406 56.207031 141.253906 56.207031 141.253906 C 56.207031 141.253906 66.566406 121.082031 77.175781 104.359375 C 85.292969 91.566406 92.292969 87.027344 104.59375 85.75 C 107.554688 78.265625 102.972656 76.3125 103.945312 74.015625 C 108.257812 74.367188 112.738281 74.851562 117.132812 75.550781 C 117.160156 75.558594 117.183594 75.558594 117.203125 75.5625 C 102.90625 72.40625 92.199219 59.65625 92.199219 44.398438 C 92.199219 26.769531 106.496094 12.472656 124.125 12.472656 C 141.753906 12.472656 156.050781 26.769531 156.050781 44.398438 C 156.050781 62.03125 141.753906 76.328125 124.125 76.328125 C 122.867188 76.328125 121.640625 76.246094 120.421875 76.109375 C 122.476562 76.484375 124.503906 76.90625 126.46875 77.386719 C 129.976562 78.242188 133.5 79.011719 137.054688 79.660156 C 145.085938 81.132812 159.433594 84.335938 165.832031 89.351562 C 173.8125 95.605469 190.996094 127.800781 195.265625 135.929688 C 195.929688 137.203125 195.949219 138.699219 195.324219 139.984375 Z M 195.324219 139.984375 " fill-opacity="1" fill-rule="nonzero"/></g><path fill="#ede6dd" d="M 149.085938 85.757812 L 159.652344 163.007812 L 117.445312 170.667969 L 97.855469 169.1875 L 99.785156 83.90625 Z M 130.769531 205.511719 C 130.898438 205.359375 130.878906 205.128906 130.726562 204.996094 L 119.105469 195.109375 C 118.953125 194.976562 118.730469 195 118.589844 195.152344 C 118.460938 195.304688 118.484375 195.535156 118.636719 195.667969 L 130.253906 205.558594 C 130.316406 205.613281 130.40625 205.644531 130.484375 205.644531 C 130.59375 205.636719 130.695312 205.59375 130.769531 205.511719 Z M 130.769531 205.511719 " fill-opacity="1" fill-rule="nonzero"/><path fill="#000000" d="M 169.046875 255.949219 L 179.429688 307.855469 C 169.542969 317.253906 161.386719 311.566406 161.386719 311.566406 C 161.386719 311.566406 149.515625 278.117188 144.636719 261.699219 C 139.320312 243.800781 130.484375 205.28125 130.484375 205.28125 L 112.441406 261.886719 C 110.714844 274.738281 102.550781 305.386719 102.550781 305.386719 C 91.675781 313.046875 82.535156 305.386719 82.535156 305.386719 C 82.535156 305.386719 87.480469 279.4375 89.949219 255.949219 C 92.414062 232.457031 97.863281 169.1875 97.863281 169.1875 C 123.566406 159.050781 159.660156 163.007812 159.660156 163.007812 C 168.554688 184.515625 169.046875 255.949219 169.046875 255.949219 Z M 169.046875 255.949219 " fill-opacity="1" fill-rule="nonzero"/><path fill="#a2c3e6" d="M 156.050781 88.359375 L 172.019531 216.890625 L 153.53125 213.855469 C 152.007812 213.601562 150.84375 212.351562 150.707031 210.8125 L 139.625 87.371094 Z M 102.742188 85.621094 L 89.949219 98.183594 L 87.726562 218.496094 L 106.140625 213.136719 C 107.316406 212.796875 108.121094 211.722656 108.121094 210.5 L 108.121094 91.699219 Z M 102.742188 85.621094 " fill-opacity="1" fill-rule="nonzero"/><path fill="#000000" d="M 171.03125 159.167969 C 170.839844 159.167969 170.6875 159.027344 170.667969 158.839844 L 168.691406 137.332031 L 172.410156 97.46875 C 172.433594 97.265625 172.605469 97.121094 172.800781 97.144531 C 173 97.164062 173.152344 97.339844 173.128906 97.535156 L 169.410156 137.324219 L 171.386719 158.761719 C 171.402344 158.957031 171.253906 159.136719 171.058594 159.152344 C 171.050781 159.167969 171.039062 159.167969 171.03125 159.167969 Z M 148.144531 142.21875 L 158.636719 106.410156 C 158.664062 106.308594 158.652344 106.199219 158.59375 106.109375 L 144.765625 84.699219 C 144.660156 84.53125 144.433594 84.480469 144.265625 84.589844 C 144.097656 84.699219 144.046875 84.921875 144.15625 85.089844 L 157.894531 106.363281 L 147.453125 142.015625 C 147.394531 142.210938 147.503906 142.410156 147.699219 142.464844 C 147.738281 142.472656 147.765625 142.480469 147.800781 142.480469 C 147.949219 142.480469 148.09375 142.378906 148.144531 142.21875 Z M 105.941406 143.445312 C 106.132812 143.375 106.21875 143.164062 106.144531 142.976562 L 94.675781 113.515625 L 107.585938 85.902344 C 107.671875 85.722656 107.589844 85.503906 107.410156 85.417969 C 107.226562 85.335938 107.011719 85.410156 106.921875 85.589844 L 93.949219 113.34375 C 93.90625 113.429688 93.90625 113.539062 93.941406 113.625 L 105.472656 143.230469 C 105.527344 143.375 105.667969 143.460938 105.8125 143.460938 C 105.855469 143.46875 105.898438 143.460938 105.941406 143.445312 Z M 127.90625 164.113281 C 128.109375 164.105469 128.261719 163.9375 128.257812 163.734375 L 126.527344 106.300781 C 126.519531 106.097656 126.367188 105.945312 126.152344 105.949219 C 125.945312 105.957031 125.792969 106.125 125.800781 106.328125 L 127.53125 163.761719 C 127.539062 163.957031 127.695312 164.113281 127.894531 164.113281 C 127.898438 164.113281 127.898438 164.113281 127.90625 164.113281 Z M 88.089844 144.566406 L 88.089844 128.15625 C 88.089844 127.953125 87.929688 127.792969 87.726562 127.792969 C 87.523438 127.792969 87.363281 127.953125 87.363281 128.15625 L 87.363281 144.566406 C 87.363281 144.769531 87.523438 144.929688 87.726562 144.929688 C 87.929688 144.929688 88.089844 144.769531 88.089844 144.566406 Z M 88.089844 144.566406 " fill-opacity="1" fill-rule="nonzero"/><path fill="#c9846f" d="M 153.726562 80.449219 C 153.726562 94.136719 139.546875 111.347656 124.429688 111.347656 C 109.3125 111.347656 94.28125 94.878906 94.28125 81.191406 C 94.28125 67.503906 109.289062 60.164062 124.40625 60.164062 C 139.523438 60.164062 153.726562 66.765625 153.726562 80.449219 Z M 153.726562 80.449219 " fill-opacity="1" fill-rule="nonzero"/><path fill="#efaf9c" d="M 133.542969 68.839844 L 135.613281 82.148438 C 135.613281 82.148438 126.308594 89.511719 113.242188 82.796875 L 114.570312 70.414062 C 112.160156 68.773438 110.058594 66.617188 108.558594 64.324219 C 106.453125 61.136719 105.820312 55.769531 105.820312 51.515625 C 105.820312 40.820312 113.667969 32.15625 123.339844 32.15625 C 133.019531 32.15625 140.859375 40.828125 140.859375 51.515625 C 140.859375 55.710938 139.84375 60.664062 137.796875 63.835938 C 136.636719 65.609375 135.191406 67.34375 133.542969 68.839844 Z M 133.542969 68.839844 " fill-opacity="1" fill-rule="nonzero"/><path fill="#000000" d="M 150.9375 45.011719 C 150.9375 46.585938 148.414062 47.253906 143.621094 46.296875 C 143.023438 50.722656 138.625 52.453125 138.625 52.453125 L 137.050781 44.378906 C 137.050781 44.378906 137.050781 44.378906 137.050781 44.371094 C 129.992188 41.625 124.546875 36.914062 124.546875 36.914062 C 131.132812 42.410156 124.996094 42.441406 121.109375 40.53125 C 117.226562 38.621094 115.121094 35.832031 115.121094 35.832031 C 114.460938 38.984375 113.71875 41.546875 112.941406 43.636719 L 117.03125 43.179688 C 117.894531 43.085938 118.671875 43.710938 118.773438 44.574219 L 118.796875 44.777344 C 118.890625 45.640625 118.265625 46.417969 117.402344 46.519531 L 112.484375 47.066406 C 112.128906 47.101562 111.796875 47.019531 111.511719 46.847656 C 107.234375 54.820312 102.234375 51.050781 100.773438 47.574219 C 99.167969 43.753906 101.652344 41.148438 102.488281 40.414062 C 101.621094 41.109375 98.769531 43.152344 97.214844 41.378906 C 95.371094 39.273438 103.539062 33.480469 108.28125 29.066406 C 113.023438 24.648438 115.195312 27.15625 115.195312 27.15625 C 115.195312 27.15625 117.960938 22.675781 124.144531 23.074219 C 130.332031 23.472656 134.484375 18.59375 135.539062 22.21875 C 136.589844 25.839844 130.992188 26.894531 130.992188 26.894531 C 153.050781 31.242188 151.542969 38.222656 148.777344 37.558594 C 146.007812 36.898438 143.773438 36.636719 143.773438 36.636719 C 147.519531 43.035156 150.9375 42.96875 150.9375 45.011719 Z M 131.035156 49.375 C 129.714844 49.375 128.648438 50.441406 128.648438 51.761719 C 128.648438 53.085938 129.714844 54.152344 131.035156 54.152344 C 132.359375 54.152344 133.425781 53.085938 133.425781 51.761719 C 133.425781 50.441406 132.351562 49.375 131.035156 49.375 Z M 118.011719 51.761719 C 118.011719 50.441406 116.945312 49.375 115.621094 49.375 C 114.300781 49.375 113.234375 50.441406 113.234375 51.761719 C 113.234375 53.085938 114.300781 54.152344 115.621094 54.152344 C 116.945312 54.152344 118.011719 53.078125 118.011719 51.761719 Z M 133.976562 43.730469 L 129.0625 43.1875 C 128.199219 43.09375 127.421875 43.71875 127.320312 44.582031 L 127.296875 44.785156 C 127.203125 45.648438 127.828125 46.425781 128.691406 46.527344 L 133.605469 47.070312 C 134.472656 47.167969 135.25 46.542969 135.351562 45.679688 L 135.371094 45.476562 C 135.464844 44.601562 134.839844 43.828125 133.976562 43.730469 Z M 115.046875 70.742188 C 116.261719 74.199219 119.78125 76.703125 123.9375 76.703125 C 128.691406 76.703125 132.621094 73.414062 133.199219 69.167969 C 130.363281 71.65625 126.933594 73.414062 123.324219 73.414062 C 120.449219 73.40625 117.597656 72.382812 115.046875 70.742188 Z M 115.046875 70.742188 " fill-opacity="1" fill-rule="nonzero"/><path fill="#efaf9c" d="M 111.113281 60.816406 C 109.339844 63.621094 105.492188 62.488281 102.683594 60.722656 C 99.878906 58.949219 98.921875 54.269531 100.6875 51.457031 C 102.457031 48.65625 105.835938 49.070312 108.644531 50.839844 C 111.453125 52.605469 112.882812 58.015625 111.113281 60.816406 Z M 135.554688 60.816406 C 137.324219 63.621094 141.171875 62.488281 143.984375 60.722656 C 146.785156 58.949219 147.746094 54.269531 145.980469 51.457031 C 144.207031 48.65625 140.832031 49.070312 138.023438 50.839844 C 135.210938 52.605469 133.78125 58.015625 135.554688 60.816406 Z M 135.554688 60.816406 " fill-opacity="1" fill-rule="nonzero"/><path fill="#ede6dd" d="M 86.722656 165.914062 C 62.996094 161.089844 43.417969 143.113281 60.476562 136.25 C 78.074219 129.171875 95.9375 153.335938 95.9375 153.335938 C 95.9375 153.335938 110.453125 170.734375 86.722656 165.914062 Z M 129.207031 60.78125 L 118.707031 63.292969 C 118.183594 63.417969 118.054688 64.097656 118.488281 64.410156 C 119.636719 65.246094 121.722656 66.371094 124.421875 66.175781 C 127.363281 65.957031 129.128906 63.257812 129.917969 61.660156 C 130.160156 61.1875 129.722656 60.65625 129.207031 60.78125 Z M 129.207031 60.78125 " fill-opacity="1" fill-rule="nonzero"/><path fill="#efaf9c" d="M 114.800781 159.28125 C 115.265625 160.269531 115.492188 161.316406 115.28125 162.375 C 114.324219 167.320312 111.804688 164.257812 111.804688 164.257812 C 111.804688 164.257812 113.363281 166.441406 112.355469 168.03125 C 110.925781 170.285156 108.71875 168.484375 108.71875 168.484375 C 108.71875 168.484375 110.480469 170.371094 109.574219 171.917969 C 107.96875 174.65625 105.507812 172.605469 105.507812 172.605469 C 105.507812 172.605469 107.925781 174.777344 106.183594 176.296875 C 104.519531 177.753906 98.585938 176.054688 95.871094 172.816406 C 95.640625 172.542969 95.394531 172.292969 95.101562 172.113281 L 87.695312 167.453125 C 86.308594 166.582031 85.378906 164.910156 85.308594 163.09375 C 85.175781 159.59375 86.070312 154.292969 92.546875 153.605469 L 105.058594 152.988281 C 106.304688 152.929688 107.546875 153.15625 108.738281 153.625 C 109.074219 153.472656 109.421875 153.335938 109.792969 153.226562 C 112.753906 152.347656 115.601562 153.378906 116.144531 155.542969 C 116.464844 156.808594 115.914062 158.1875 114.800781 159.28125 Z M 114.800781 159.28125 " fill-opacity="1" fill-rule="nonzero"/><path fill="#000000" d="M 77.953125 342.867188 C 69.195312 344.546875 53.222656 342.925781 48.921875 338.136719 C 45.25 334.046875 50.375 328.484375 56.714844 324.550781 C 56.480469 326.613281 57.714844 329.023438 64.621094 329.234375 C 76.636719 329.597656 86.390625 331.398438 77.953125 342.867188 Z M 105.296875 319.335938 C 103.46875 320.925781 100.765625 323.003906 97.746094 324.410156 C 94.355469 325.996094 91.335938 331.753906 92.148438 335.585938 C 95.203125 334.46875 98.585938 333.617188 102.1875 332.820312 C 106.566406 331.847656 106.414062 325.84375 105.296875 319.335938 Z M 190.953125 330.742188 C 189.421875 335.460938 186.691406 342.199219 182.097656 343.90625 C 177.339844 345.671875 169.722656 342.542969 166.304688 339.898438 C 166.535156 343.964844 167.152344 347.878906 169.054688 350.246094 C 173.628906 355.929688 183.636719 357.730469 186.234375 356.867188 C 188.828125 356.003906 195.5 348.519531 195.375 341.34375 C 195.324219 338.019531 193.269531 334.300781 190.953125 330.742188 Z M 86.15625 318.625 C 86.578125 318.195312 86.570312 317.507812 86.136719 317.085938 C 80.777344 311.855469 76.238281 312.167969 76.050781 312.183594 C 75.453125 312.234375 75.011719 312.75 75.0625 313.347656 C 75.105469 313.941406 75.628906 314.390625 76.222656 314.355469 C 76.261719 314.355469 80.027344 314.167969 84.617188 318.644531 C 84.828125 318.855469 85.105469 318.957031 85.378906 318.957031 C 85.664062 318.957031 85.945312 318.84375 86.15625 318.625 Z M 81.65625 324.5 C 82.179688 324.199219 82.359375 323.539062 82.070312 323.015625 C 78.148438 316.089844 71.773438 316.25 71.503906 316.257812 C 70.902344 316.277344 70.4375 316.78125 70.457031 317.382812 C 70.480469 317.984375 70.980469 318.472656 71.578125 318.4375 C 71.789062 318.4375 76.921875 318.355469 80.175781 324.09375 C 80.378906 324.449219 80.742188 324.644531 81.125 324.644531 C 81.308594 324.644531 81.488281 324.59375 81.65625 324.5 Z M 170.558594 325.296875 C 173.8125 320.738281 180.601562 321.550781 180.703125 321.566406 C 181.304688 321.644531 181.84375 321.222656 181.921875 320.628906 C 182 320.03125 181.582031 319.480469 180.984375 319.410156 C 180.652344 319.363281 172.816406 318.398438 168.785156 324.042969 C 168.4375 324.527344 168.546875 325.210938 169.039062 325.558594 C 169.230469 325.695312 169.453125 325.761719 169.671875 325.761719 C 170.007812 325.753906 170.339844 325.59375 170.558594 325.296875 Z M 172.84375 331.191406 C 176.097656 326.632812 182.886719 327.4375 182.988281 327.460938 C 183.585938 327.542969 184.128906 327.121094 184.210938 326.523438 C 184.289062 325.929688 183.867188 325.378906 183.273438 325.304688 C 182.9375 325.261719 175.105469 324.296875 171.074219 329.9375 C 170.726562 330.421875 170.835938 331.105469 171.328125 331.453125 C 171.515625 331.59375 171.742188 331.65625 171.960938 331.65625 C 172.300781 331.652344 172.636719 331.492188 172.84375 331.191406 Z M 122.441406 59.714844 C 122.292969 59.714844 122.164062 59.625 122.105469 59.488281 C 120.914062 56.5625 123.128906 55.246094 123.152344 55.234375 C 123.324219 55.132812 123.542969 55.191406 123.644531 55.363281 C 123.746094 55.539062 123.6875 55.757812 123.515625 55.859375 C 123.441406 55.902344 121.832031 56.882812 122.78125 59.210938 C 122.855469 59.402344 122.765625 59.613281 122.585938 59.683594 C 122.535156 59.707031 122.492188 59.714844 122.441406 59.714844 Z M 107.089844 54.988281 C 107.273438 54.898438 107.34375 54.679688 107.257812 54.5 C 106.660156 53.25 105.835938 52.453125 104.804688 52.125 C 103.226562 51.632812 101.773438 52.421875 101.71875 52.460938 C 101.542969 52.554688 101.476562 52.777344 101.578125 52.953125 C 101.671875 53.128906 101.898438 53.191406 102.074219 53.089844 C 102.085938 53.085938 103.320312 52.410156 104.59375 52.816406 C 105.421875 53.078125 106.101562 53.753906 106.609375 54.804688 C 106.675781 54.9375 106.800781 55.007812 106.9375 55.007812 C 106.988281 55.023438 107.039062 55.007812 107.089844 54.988281 Z M 139.953125 54.8125 C 140.460938 53.753906 141.136719 53.085938 141.972656 52.824219 C 143.242188 52.417969 144.476562 53.089844 144.492188 53.097656 C 144.664062 53.191406 144.882812 53.136719 144.984375 52.960938 C 145.078125 52.785156 145.023438 52.570312 144.847656 52.46875 C 144.789062 52.429688 143.328125 51.632812 141.761719 52.132812 C 140.730469 52.460938 139.902344 53.257812 139.308594 54.507812 C 139.21875 54.6875 139.300781 54.90625 139.472656 54.992188 C 139.523438 55.015625 139.574219 55.03125 139.632812 55.03125 C 139.765625 55.023438 139.894531 54.941406 139.953125 54.8125 Z M 80.484375 163.75 C 80.484375 149.894531 92.03125 149.65625 92.523438 149.65625 C 92.726562 149.65625 92.886719 149.488281 92.886719 149.292969 C 92.886719 149.089844 92.707031 148.941406 92.523438 148.929688 C 92.394531 148.929688 79.765625 149.160156 79.765625 163.75 C 79.765625 163.953125 79.925781 164.113281 80.128906 164.113281 C 80.332031 164.113281 80.484375 163.953125 80.484375 163.75 Z M 114.800781 159.644531 C 114.664062 159.644531 114.527344 159.566406 114.46875 159.429688 C 113.074219 156.242188 108.476562 154.046875 108.433594 154.027344 C 108.253906 153.9375 108.171875 153.722656 108.257812 153.539062 C 108.347656 153.359375 108.5625 153.277344 108.746094 153.363281 C 108.941406 153.460938 113.632812 155.695312 115.136719 159.136719 C 115.214844 159.320312 115.136719 159.535156 114.945312 159.617188 C 114.902344 159.632812 114.851562 159.644531 114.800781 159.644531 Z M 112.675781 166.078125 C 112.566406 166.078125 112.464844 166.035156 112.390625 165.941406 L 108.308594 160.886719 C 108.1875 160.734375 108.207031 160.503906 108.367188 160.378906 C 108.527344 160.253906 108.753906 160.277344 108.875 160.4375 L 112.957031 165.492188 C 113.082031 165.644531 113.058594 165.875 112.898438 166 C 112.832031 166.050781 112.753906 166.078125 112.675781 166.078125 Z M 109.90625 169.796875 C 109.828125 169.796875 109.753906 169.773438 109.691406 169.722656 L 104.316406 165.585938 C 104.15625 165.460938 104.128906 165.238281 104.25 165.078125 C 104.375 164.917969 104.601562 164.886719 104.757812 165.011719 L 110.132812 169.152344 C 110.292969 169.273438 110.320312 169.5 110.199219 169.660156 C 110.125 169.746094 110.015625 169.796875 109.90625 169.796875 Z M 106.300781 173.433594 C 106.234375 173.433594 106.175781 173.421875 106.117188 173.382812 L 100.585938 170.117188 C 100.410156 170.015625 100.351562 169.789062 100.453125 169.613281 C 100.554688 169.441406 100.78125 169.382812 100.953125 169.484375 L 106.488281 172.75 C 106.660156 172.855469 106.71875 173.078125 106.617188 173.253906 C 106.546875 173.367188 106.421875 173.433594 106.300781 173.433594 Z M 106.300781 173.433594 " fill-opacity="1" fill-rule="nonzero"/><path fill="#efaf9c" d="M 244.851562 234.316406 C 244.851562 234.316406 242.90625 244.898438 240.976562 252.550781 C 240.007812 256.347656 236.996094 271.40625 234.199219 285.617188 C 231.363281 300.066406 228.746094 313.644531 228.746094 313.644531 C 228.746094 313.644531 216.917969 317.46875 211.878906 310.542969 C 211.878906 310.542969 212.910156 297.539062 214.101562 282.878906 C 215.402344 266.960938 216.90625 249.109375 217.5 243.792969 C 218.664062 233.578125 222.742188 210.058594 222.742188 210.058594 C 222.742188 210.058594 252.035156 200.945312 244.851562 234.316406 Z M 261.328125 221.191406 C 261.328125 221.191406 263.855469 237.78125 261.328125 250.917969 C 260.113281 257.21875 260.746094 272.53125 261.742188 286.761719 C 262.816406 302.214844 264.304688 316.382812 264.304688 316.382812 C 272.792969 321.113281 280.082031 315.285156 280.082031 315.285156 C 280.082031 315.285156 281.09375 301.722656 282.210938 286.859375 C 283.472656 270.105469 284.875 251.691406 285.144531 249.085938 C 285.652344 244.164062 285.144531 240.207031 285.144531 240.207031 C 289.304688 201.0625 261.328125 221.191406 261.328125 221.191406 Z M 261.328125 221.191406 " fill-opacity="1" fill-rule="nonzero"/><path fill="#ede6dd" d="M 280.089844 315.285156 C 280.089844 315.285156 288.542969 322.707031 294.621094 326.109375 C 300.695312 329.515625 315.167969 333.285156 314.195312 341.183594 C 313.222656 349.085938 285.621094 347.023438 277.722656 344.714844 C 269.824219 342.402344 265.140625 343.878906 262.773438 340.320312 C 261.398438 338.257812 260.761719 322.589844 264.320312 316.386719 C 267.871094 310.179688 280.089844 315.285156 280.089844 315.285156 Z M 211.929688 309.910156 C 206.738281 316.011719 203.378906 323.453125 201.960938 327.417969 C 201.332031 329.183594 200.597656 330.910156 199.761719 332.585938 C 189.792969 352.628906 198.925781 362.5625 209.507812 361.238281 C 223.957031 359.429688 227.222656 344.917969 227.824219 338.25 C 228.09375 335.28125 228.515625 332.332031 229.191406 329.421875 C 230.941406 321.863281 228.355469 311.007812 228.355469 311.007812 C 230.496094 298.171875 219.121094 301.472656 211.929688 309.910156 Z M 211.929688 309.910156 " fill-opacity="1" fill-rule="nonzero"/><path fill="#c9846f" d="M 282.21875 286.859375 C 281.097656 301.722656 280.089844 315.285156 280.089844 315.285156 C 280.089844 315.285156 272.800781 321.121094 264.3125 316.382812 C 264.3125 316.382812 262.816406 302.207031 261.75 286.761719 C 270.90625 289.640625 277.941406 287.976562 282.21875 286.859375 Z M 214.101562 282.886719 C 212.910156 297.546875 211.878906 310.550781 211.878906 310.550781 C 216.917969 317.476562 228.746094 313.652344 228.746094 313.652344 C 228.746094 313.652344 231.363281 300.074219 234.199219 285.625 C 229.640625 286.523438 222.300781 286.859375 214.101562 282.886719 Z M 214.101562 282.886719 " fill-opacity="1" fill-rule="nonzero"/><path fill="#efaf9c" d="M 263.550781 50.316406 C 263.550781 56.589844 261.4375 62.21875 257.914062 66.03125 C 257.007812 67.019531 256.003906 67.890625 254.917969 68.617188 L 255.300781 71.238281 L 256.671875 80.4375 C 245.246094 85.417969 235.785156 79.636719 235.785156 79.636719 L 235.558594 66.007812 C 234.789062 65.3125 234.011719 64.5625 233.191406 63.75 C 230.027344 60.613281 229.015625 55.4375 229.015625 50.316406 C 229.015625 38.816406 236.929688 29.492188 246.683594 29.492188 C 256.441406 29.5 263.550781 38.816406 263.550781 50.316406 Z M 263.550781 50.316406 " fill-opacity="1" fill-rule="nonzero"/><path fill="#000000" d="M 269.511719 42.671875 C 269.96875 44.234375 274.070312 47.582031 272.707031 48.574219 C 271.339844 49.570312 267.871094 47.339844 267.871094 47.339844 C 267.871094 47.339844 267.230469 51.035156 265.046875 51.015625 C 262.851562 50.992188 261.488281 44.703125 261.488281 44.703125 C 255.175781 42.527344 251.679688 38.074219 249.796875 34.511719 C 249.6875 36.375 248.671875 40.652344 241.746094 41.925781 C 239.902344 42.265625 235.535156 43.769531 233.945312 44.582031 C 233.46875 46.308594 231.71875 52.292969 230.367188 52.21875 C 229.714844 52.183594 228.929688 51.066406 228.238281 49.765625 C 228.058594 50.113281 227.992188 50.316406 227.992188 50.316406 C 227.992188 50.316406 224.011719 52.117188 220.09375 48.566406 C 216.171875 45.015625 225.972656 48.765625 227.5 37.546875 C 228.675781 28.90625 244.328125 23.785156 249.09375 27.640625 C 255.003906 21.308594 262.15625 27.351562 263.855469 31.765625 C 265.675781 36.507812 274.527344 41.828125 272.980469 43.101562 C 271.433594 44.386719 269.511719 42.671875 269.511719 42.671875 Z M 269.511719 42.671875 " fill-opacity="1" fill-rule="nonzero"/><path fill="#efaf9c" d="M 232.449219 51.964844 C 233.722656 55.605469 232.53125 59.328125 229.792969 60.28125 C 227.054688 61.230469 223.808594 59.058594 222.539062 55.421875 C 221.269531 51.785156 222.460938 48.058594 225.195312 47.109375 C 227.941406 46.148438 231.1875 48.328125 232.449219 51.964844 Z M 258.351562 54.574219 C 256.898438 58.136719 257.902344 61.921875 260.578125 63.011719 C 263.265625 64.097656 266.613281 62.09375 268.066406 58.53125 C 269.519531 54.964844 268.515625 51.183594 265.835938 50.09375 C 263.15625 48.996094 259.804688 51.007812 258.351562 54.574219 Z M 258.351562 54.574219 " fill-opacity="1" fill-rule="nonzero"/><path fill="#000000" d="M 254.921875 68.621094 L 255.308594 71.242188 C 253.304688 73 250.574219 74.074219 247.574219 74.074219 C 242.710938 74.074219 238.570312 71.257812 237.03125 67.316406 C 239.980469 69.625 242.914062 70.960938 246.71875 70.960938 C 249.730469 70.953125 252.511719 70.109375 254.921875 68.621094 Z M 237.316406 49.585938 C 237.207031 50.925781 238.207031 52.105469 239.550781 52.210938 C 240.894531 52.320312 242.070312 51.320312 242.179688 49.976562 C 242.289062 48.632812 241.289062 47.457031 239.945312 47.347656 C 238.601562 47.238281 237.425781 48.242188 237.316406 49.585938 Z M 255.277344 48.582031 C 253.9375 48.472656 252.757812 49.476562 252.652344 50.820312 C 252.542969 52.160156 253.542969 53.339844 254.886719 53.445312 C 256.230469 53.554688 257.40625 52.554688 257.515625 51.210938 C 257.625 49.867188 256.621094 48.691406 255.277344 48.582031 Z M 249.457031 57.585938 C 249.304688 57.714844 249.296875 57.949219 249.425781 58.101562 C 249.5 58.179688 249.601562 58.226562 249.695312 58.226562 C 249.78125 58.226562 249.871094 58.195312 249.933594 58.128906 C 250.914062 57.25 251.34375 56.351562 251.207031 55.453125 C 250.960938 53.824219 248.917969 52.878906 248.832031 52.84375 C 248.648438 52.765625 248.433594 52.84375 248.351562 53.027344 C 248.273438 53.207031 248.351562 53.425781 248.535156 53.503906 C 248.546875 53.511719 250.296875 54.324219 250.488281 55.558594 C 250.597656 56.207031 250.238281 56.882812 249.457031 57.585938 Z M 226.5625 49.140625 C 225.058594 48.851562 223.542969 50.425781 223.476562 50.492188 C 223.339844 50.636719 223.34375 50.871094 223.492188 51.007812 C 223.636719 51.144531 223.867188 51.136719 224.007812 51 C 224.371094 50.621094 225.515625 49.679688 226.429688 49.859375 C 226.941406 49.953125 227.355469 50.398438 227.660156 51.160156 C 227.714844 51.296875 227.855469 51.386719 227.992188 51.386719 C 228.035156 51.386719 228.085938 51.378906 228.128906 51.355469 C 228.320312 51.285156 228.40625 51.074219 228.332031 50.882812 C 227.921875 49.875 227.324219 49.285156 226.5625 49.140625 Z M 267.585938 53.445312 C 267.542969 53.394531 266.453125 52.25 265.234375 52.453125 C 264.523438 52.574219 263.949219 53.113281 263.519531 54.0625 C 263.441406 54.246094 263.519531 54.464844 263.703125 54.542969 C 263.753906 54.566406 263.804688 54.574219 263.847656 54.574219 C 263.984375 54.574219 264.117188 54.492188 264.179688 54.355469 C 264.5 53.644531 264.894531 53.242188 265.351562 53.164062 C 266.191406 53.019531 267.050781 53.925781 267.054688 53.941406 C 267.195312 54.085938 267.425781 54.09375 267.570312 53.957031 C 267.71875 53.816406 267.722656 53.59375 267.585938 53.445312 Z M 244.511719 42.597656 C 244.894531 42.695312 245.296875 42.453125 245.390625 42.070312 C 245.484375 41.675781 245.246094 41.285156 244.859375 41.191406 C 244.640625 41.140625 239.429688 39.898438 236.023438 42.910156 C 235.726562 43.179688 235.695312 43.636719 235.957031 43.933594 C 236.101562 44.09375 236.300781 44.183594 236.503906 44.183594 C 236.675781 44.183594 236.84375 44.125 236.980469 44 C 239.8125 41.488281 244.460938 42.585938 244.511719 42.597656 Z M 260.753906 45.648438 C 257.226562 44.050781 253.695312 42.484375 253.695312 42.484375 C 253.324219 42.316406 252.898438 42.484375 252.738281 42.851562 C 252.578125 43.214844 252.738281 43.652344 253.109375 43.8125 C 253.109375 43.8125 256.628906 45.371094 260.152344 46.96875 C 260.246094 47.015625 260.347656 47.035156 260.449219 47.035156 C 260.726562 47.035156 260.988281 46.875 261.109375 46.605469 C 261.277344 46.246094 261.117188 45.808594 260.753906 45.648438 Z M 244.992188 44.050781 C 245.09375 44.355469 245.375 44.546875 245.679688 44.546875 C 245.761719 44.546875 245.839844 44.53125 245.914062 44.507812 C 249.3125 43.347656 250.683594 40.59375 251.066406 37.871094 C 251.367188 39.695312 251.226562 41.734375 249.898438 43.363281 C 249.644531 43.675781 249.6875 44.132812 250 44.386719 C 250.3125 44.640625 250.769531 44.589844 251.023438 44.285156 C 254.828125 39.628906 250.851562 32.804688 250.683594 32.515625 C 250.496094 32.203125 250.109375 32.070312 249.777344 32.214844 C 249.441406 32.355469 249.261719 32.722656 249.355469 33.074219 C 249.441406 33.398438 251.402344 41.105469 245.449219 43.144531 C 245.0625 43.261719 244.867188 43.667969 244.992188 44.050781 Z M 244.992188 44.050781 " fill-opacity="1" fill-rule="nonzero"/><path fill="#c9846f" d="M 329.652344 128.417969 C 327.679688 140.085938 310.5 174.292969 295.789062 167.210938 C 276.074219 157.730469 293.667969 130.378906 293.667969 130.378906 L 287.824219 131.421875 L 283.742188 160.285156 L 224.835938 158.273438 L 213.675781 127.144531 C 203.082031 126.230469 189.363281 121.171875 184.019531 117.21875 C 176.324219 111.542969 155.332031 95.589844 176.28125 83.914062 C 187.191406 77.828125 200.714844 76.609375 211.167969 76.835938 C 220.054688 77.03125 228.828125 78.882812 237.089844 82.171875 L 239.753906 83.230469 L 233.945312 86.839844 C 238.222656 90.011719 244.839844 93.453125 251.933594 91.71875 C 257.398438 90.375 260.441406 88.21875 262.148438 86.246094 L 260.457031 82.054688 C 260.457031 82.054688 265.453125 76.441406 291.25 87.378906 C 317.046875 98.304688 331.628906 116.75 329.652344 128.417969 Z M 228.136719 58.050781 C 226.882812 58.050781 225.863281 59.066406 225.863281 60.324219 C 225.863281 61.578125 226.882812 62.597656 228.136719 62.597656 C 229.394531 62.597656 230.410156 61.578125 230.410156 60.324219 C 230.402344 59.066406 229.386719 58.050781 228.136719 58.050781 Z M 263.46875 60.324219 C 262.214844 60.324219 261.195312 61.339844 261.195312 62.597656 C 261.195312 63.851562 262.214844 64.867188 263.46875 64.867188 C 264.726562 64.867188 265.742188 63.851562 265.742188 62.597656 C 265.742188 61.339844 264.71875 60.324219 263.46875 60.324219 Z M 263.46875 60.324219 " fill-opacity="1" fill-rule="nonzero"/><path fill="#000000" d="M 297.945312 164.410156 C 293.625 164.410156 290.109375 160.894531 290.109375 156.574219 C 290.109375 152.253906 293.625 148.738281 297.945312 148.738281 C 302.265625 148.738281 305.777344 152.253906 305.777344 156.574219 C 305.777344 160.894531 302.265625 164.410156 297.945312 164.410156 Z M 297.945312 149.464844 C 294.023438 149.464844 290.835938 152.652344 290.835938 156.574219 C 290.835938 160.496094 294.023438 163.683594 297.945312 163.683594 C 301.867188 163.683594 305.054688 160.496094 305.054688 156.574219 C 305.054688 152.652344 301.867188 149.464844 297.945312 149.464844 Z M 294.003906 130.515625 C 296.492188 124.34375 302.949219 120.660156 303.011719 120.625 C 303.1875 120.523438 303.253906 120.304688 303.152344 120.132812 C 303.054688 119.957031 302.832031 119.890625 302.65625 119.992188 C 302.382812 120.144531 295.917969 123.835938 293.328125 130.246094 C 293.253906 130.433594 293.339844 130.644531 293.53125 130.71875 C 293.574219 130.734375 293.625 130.746094 293.667969 130.746094 C 293.804688 130.738281 293.945312 130.652344 294.003906 130.515625 Z M 288.179688 131.488281 L 289.101562 126.425781 C 289.136719 126.230469 289.007812 126.042969 288.808594 126.007812 C 288.613281 125.96875 288.425781 126.101562 288.390625 126.296875 L 287.46875 131.355469 C 287.429688 131.554688 287.5625 131.742188 287.757812 131.777344 C 287.78125 131.785156 287.800781 131.785156 287.824219 131.785156 C 287.988281 131.785156 288.140625 131.664062 288.179688 131.488281 Z M 288.179688 131.488281 " fill-opacity="1" fill-rule="nonzero"/><path fill="#efaf9c" d="M 290.597656 157.074219 C 292.890625 153.875 297.640625 153.546875 300.203125 156.539062 C 300.238281 156.582031 300.277344 156.617188 300.304688 156.660156 C 301.816406 158.507812 301.707031 161.191406 300.144531 163 L 297.226562 166.371094 C 297.226562 166.371094 298.105469 175.84375 295.597656 182.632812 C 295.597656 182.632812 301.40625 190.605469 300.550781 192.363281 C 299.695312 194.121094 294.925781 190.460938 290.320312 185.792969 C 290.320312 185.792969 290.945312 200.082031 287.589844 199.023438 C 284.234375 197.960938 282.835938 173.472656 283.023438 171.996094 C 283.148438 171.058594 285.367188 166.398438 286.972656 163.132812 C 288.011719 161.019531 289.21875 158.984375 290.597656 157.074219 Z M 290.597656 157.074219 " fill-opacity="1" fill-rule="nonzero"/><path fill="#a2c3e6" d="M 283.734375 160.429688 L 283.734375 167.445312 C 283.734375 167.65625 283.757812 167.867188 283.800781 168.074219 L 297.582031 236.15625 C 297.820312 237.332031 297.378906 238.542969 296.457031 239.234375 C 292.054688 242.523438 278.152344 250.96875 256.671875 245.847656 C 256.367188 245.773438 256.050781 245.753906 255.738281 245.789062 C 251.851562 246.269531 224.238281 249.117188 207.742188 236.359375 C 206.820312 235.640625 206.398438 234.40625 206.667969 233.222656 L 223.925781 157.734375 Z M 283.734375 160.429688 " fill-opacity="1" fill-rule="nonzero"/><path fill="#000000" d="M 272.699219 185.023438 C 272.828125 185.175781 272.816406 185.402344 272.667969 185.539062 L 258.742188 197.839844 L 256.101562 245.804688 C 256.09375 246 255.925781 246.144531 255.738281 246.144531 C 255.730469 246.144531 255.722656 246.144531 255.714844 246.144531 C 255.511719 246.136719 255.359375 245.964844 255.375 245.761719 L 258.023438 197.640625 C 258.03125 197.546875 258.074219 197.453125 258.148438 197.386719 L 272.191406 184.988281 C 272.335938 184.863281 272.566406 184.878906 272.699219 185.023438 Z M 283.023438 166.847656 L 222.410156 163.683594 C 222.210938 163.667969 222.039062 163.828125 222.023438 164.023438 C 222.015625 164.226562 222.167969 164.394531 222.367188 164.410156 L 282.980469 167.574219 C 282.988281 167.574219 282.996094 167.574219 283 167.574219 C 283.191406 167.574219 283.355469 167.421875 283.363281 167.234375 C 283.378906 167.03125 283.21875 166.863281 283.023438 166.847656 Z M 263.222656 162.628906 C 263.222656 161.234375 264.355469 160.101562 265.75 160.101562 C 267.144531 160.101562 268.277344 161.234375 268.277344 162.628906 C 268.277344 164.023438 267.144531 165.15625 265.75 165.15625 C 264.355469 165.15625 263.222656 164.023438 263.222656 162.628906 Z M 263.949219 162.628906 C 263.949219 163.625 264.753906 164.429688 265.75 164.429688 C 266.746094 164.429688 267.550781 163.625 267.550781 162.628906 C 267.550781 161.636719 266.746094 160.828125 265.75 160.828125 C 264.753906 160.828125 263.949219 161.636719 263.949219 162.628906 Z M 229.300781 124.066406 C 231.265625 121.773438 232.144531 119.363281 231.898438 116.894531 C 231.515625 113.039062 228.542969 110.320312 227.855469 109.75 C 227.171875 85.945312 199.652344 81.730469 199.371094 81.691406 C 199.175781 81.664062 198.984375 81.800781 198.957031 81.996094 C 198.925781 82.191406 199.066406 82.382812 199.261719 82.410156 C 199.53125 82.449219 226.164062 86.558594 227.09375 109.429688 C 225.429688 108.984375 220.136719 108.09375 216.621094 113.304688 C 216.511719 113.472656 216.554688 113.699219 216.722656 113.808594 C 216.789062 113.851562 216.855469 113.871094 216.925781 113.871094 C 217.042969 113.871094 217.160156 113.816406 217.230469 113.714844 C 220.957031 108.1875 226.671875 110.015625 227.308594 110.242188 C 227.703125 110.5625 230.800781 113.226562 231.171875 116.964844 C 231.398438 119.222656 230.578125 121.453125 228.746094 123.59375 C 222.480469 130.890625 214.226562 127.125 213.878906 126.964844 C 213.695312 126.878906 213.476562 126.957031 213.390625 127.136719 C 213.304688 127.320312 213.382812 127.539062 213.566406 127.625 C 213.609375 127.648438 216.046875 128.765625 219.316406 128.765625 C 222.351562 128.757812 226.105469 127.785156 229.300781 124.066406 Z M 229.300781 124.066406 " fill-opacity="1" fill-rule="nonzero"/><path fill="#a2c3e6" d="M 267.738281 31.949219 C 266.542969 33.640625 264.929688 34.582031 263.519531 35.148438 C 258.632812 37.109375 252.503906 36.636719 248.417969 36.886719 C 236.503906 37.597656 232.753906 45.023438 224.222656 42.671875 C 222.589844 42.222656 220.398438 41.269531 219.4375 38.996094 C 217.210938 33.683594 226.945312 24.890625 232.597656 22.125 C 233.335938 21.761719 234.097656 21.425781 234.867188 21.128906 C 234.839844 20.953125 234.816406 20.78125 234.816406 20.597656 C 234.816406 19.050781 236.074219 17.796875 237.621094 17.796875 C 238.789062 17.796875 239.785156 18.507812 240.207031 19.515625 C 256.144531 16.058594 274.070312 23.007812 267.738281 31.949219 Z M 267.738281 31.949219 " fill-opacity="1" fill-rule="nonzero"/><path fill="#000000" d="M 284.875 330.875 C 284.332031 330.875 283.785156 330.757812 283.269531 330.503906 L 282.480469 330.117188 C 281.5 329.640625 280.792969 328.761719 280.546875 327.699219 C 280.300781 326.640625 280.53125 325.535156 281.199219 324.671875 C 283.304688 321.9375 286.566406 320.535156 286.703125 320.46875 C 286.894531 320.390625 287.105469 320.476562 287.183594 320.65625 C 287.265625 320.839844 287.175781 321.058594 286.996094 321.136719 C 286.964844 321.152344 283.769531 322.53125 281.78125 325.109375 C 281.25 325.796875 281.054688 326.683594 281.257812 327.527344 C 281.453125 328.375 282.019531 329.082031 282.804688 329.457031 L 283.597656 329.84375 C 284.898438 330.472656 286.472656 330.066406 287.265625 328.890625 C 288.300781 327.335938 290.140625 325.371094 292.972656 324.804688 C 293.167969 324.765625 293.355469 324.890625 293.398438 325.085938 C 293.441406 325.28125 293.3125 325.472656 293.117188 325.515625 C 290.523438 326.039062 288.832031 327.859375 287.875 329.296875 C 287.183594 330.316406 286.042969 330.875 284.875 330.875 Z M 298.84375 333.878906 C 299.882812 332.652344 301.640625 331.121094 304.144531 330.824219 C 304.339844 330.800781 304.488281 330.621094 304.464844 330.421875 C 304.441406 330.226562 304.253906 330.074219 304.066406 330.105469 C 301.320312 330.429688 299.410156 332.078125 298.292969 333.40625 C 297.507812 334.335938 296.214844 334.6875 295.089844 334.273438 C 294.148438 333.921875 293.464844 333.125 293.269531 332.128906 C 293.074219 331.128906 293.40625 330.125 294.15625 329.4375 C 295.542969 328.164062 296.992188 327.578125 297.007812 327.570312 C 297.195312 327.496094 297.285156 327.285156 297.210938 327.097656 C 297.140625 326.910156 296.929688 326.820312 296.738281 326.894531 C 296.675781 326.925781 295.15625 327.535156 293.660156 328.898438 C 292.722656 329.753906 292.304688 331.019531 292.550781 332.269531 C 292.789062 333.507812 293.644531 334.511719 294.828125 334.945312 C 295.230469 335.09375 295.648438 335.164062 296.0625 335.164062 C 297.117188 335.171875 298.140625 334.714844 298.84375 333.878906 Z M 220.824219 332.109375 C 221.84375 331.679688 222.632812 330.835938 223.003906 329.800781 L 223.15625 329.371094 C 223.839844 327.445312 222.902344 325.296875 221.03125 324.484375 C 218.777344 323.511719 215.15625 322.320312 210.675781 322.203125 C 208.996094 322.167969 207.472656 323.207031 206.890625 324.855469 C 206.5 325.964844 206.632812 327.183594 207.25 328.1875 C 207.871094 329.203125 208.917969 329.871094 210.109375 330.023438 C 213.078125 330.402344 215.640625 331.085938 217.734375 332.058594 C 218.25 332.296875 218.785156 332.414062 219.332031 332.414062 C 219.832031 332.414062 220.339844 332.3125 220.824219 332.109375 Z M 210.644531 322.9375 C 215.011719 323.054688 218.539062 324.207031 220.730469 325.160156 C 222.257812 325.820312 223.019531 327.5625 222.46875 329.132812 L 222.316406 329.558594 C 222.015625 330.410156 221.371094 331.089844 220.542969 331.441406 C 219.722656 331.78125 218.835938 331.773438 218.03125 331.402344 C 215.867188 330.402344 213.230469 329.699219 210.1875 329.3125 C 209.214844 329.1875 208.367188 328.644531 207.859375 327.816406 C 207.355469 327.003906 207.246094 326.015625 207.582031 325.066406 C 208.03125 323.785156 209.222656 322.9375 210.558594 322.9375 C 210.589844 322.9375 210.617188 322.9375 210.644531 322.9375 Z M 217.160156 343.390625 C 218.175781 342.964844 218.96875 342.121094 219.335938 341.082031 L 219.488281 340.65625 C 220.171875 338.730469 219.234375 336.582031 217.363281 335.769531 C 215.113281 334.792969 211.488281 333.605469 207.007812 333.488281 C 205.339844 333.464844 203.804688 334.488281 203.226562 336.136719 C 202.832031 337.25 202.964844 338.46875 203.589844 339.472656 C 204.214844 340.488281 205.257812 341.15625 206.449219 341.308594 C 209.417969 341.683594 211.988281 342.367188 214.074219 343.339844 C 214.582031 343.582031 215.125 343.695312 215.671875 343.695312 C 216.164062 343.695312 216.671875 343.59375 217.160156 343.390625 Z M 206.980469 334.214844 C 211.34375 334.328125 214.871094 335.484375 217.066406 336.4375 C 218.589844 337.097656 219.351562 338.847656 218.800781 340.40625 L 218.648438 340.835938 C 218.351562 341.683594 217.703125 342.367188 216.875 342.714844 C 216.054688 343.066406 215.167969 343.050781 214.371094 342.679688 C 212.214844 341.679688 209.578125 340.972656 206.527344 340.589844 C 205.554688 340.464844 204.707031 339.921875 204.199219 339.09375 C 203.699219 338.28125 203.589844 337.292969 203.921875 336.339844 C 204.371094 335.0625 205.5625 334.214844 206.898438 334.214844 C 206.921875 334.214844 206.949219 334.214844 206.980469 334.214844 Z M 206.980469 334.214844 " fill-opacity="1" fill-rule="nonzero"/><path fill="#efaf9c" d="M 232.953125 147.636719 C 232.03125 149.015625 228.988281 150.738281 226.410156 151.730469 C 226.410156 151.730469 226.367188 151.746094 226.308594 151.769531 C 226.234375 151.796875 226.164062 151.824219 226.089844 151.847656 C 224.90625 152.285156 223.605469 153.582031 221.480469 153.183594 C 218.988281 152.71875 218.160156 145.667969 218.902344 144.1875 C 219.640625 142.707031 221.726562 141.640625 222.488281 147.441406 C 223.765625 146.015625 225.023438 145.574219 225.023438 145.574219 C 225.023438 145.574219 218.859375 133.332031 222.675781 126.09375 L 220.28125 123.761719 C 219.046875 122.5625 218.929688 120.625 220.019531 119.289062 C 220.933594 118.15625 222.351562 117.058594 224.433594 116.8125 C 225.667969 116.667969 226.890625 117.160156 227.746094 118.070312 C 229.613281 120.039062 233.113281 123.894531 233.800781 125.847656 C 234.746094 128.53125 234.324219 145.582031 232.953125 147.636719 Z M 232.953125 147.636719 " fill-opacity="1" fill-rule="nonzero"/><path fill="#ede6dd" d="M 264.3125 81.683594 C 264.3125 81.683594 264.085938 89.46875 251.933594 92.445312 C 239.777344 95.421875 229.023438 82.460938 229.023438 82.460938 L 235.53125 77.097656 C 246.957031 80.539062 256.179688 77.097656 256.179688 77.097656 Z M 253.066406 60.242188 L 241.847656 59.140625 C 240.984375 59.050781 240.335938 59.960938 240.742188 60.730469 C 241.394531 61.972656 242.804688 63.578125 245.882812 64.542969 C 249.414062 65.652344 252.195312 63.691406 253.753906 62.117188 C 254.40625 61.464844 253.992188 60.335938 253.066406 60.242188 Z M 253.066406 60.242188 " fill-opacity="1" fill-rule="nonzero"/></svg>