<svg xmlns="http://www.w3.org/2000/svg" xmlns:xlink="http://www.w3.org/1999/xlink" width="1920" zoomAndPan="magnify" viewBox="0 0 1440 809.999993" height="1080" preserveAspectRatio="xMidYMid meet" version="1.0"><defs><filter x="0%" y="0%" width="100%" height="100%" id="1d2b42e880"><feColorMatrix values="0 0 0 0 1 0 0 0 0 1 0 0 0 0 1 0 0 0 1 0" color-interpolation-filters="sRGB"/></filter><mask id="ae3627105f"><g filter="url(#1d2b42e880)"><rect x="-144" width="1728" fill="#000000" y="-80.999999" height="971.999992" fill-opacity="0.4"/></g></mask><clipPath id="e86d2330c4"><path d="M 0 1.242188 L 374.144531 1.242188 L 374.144531 289.992188 L 0 289.992188 Z M 0 1.242188 " clip-rule="nonzero"/></clipPath><clipPath id="36d7b02fc1"><path d="M 0 59 L 300 59 L 300 289.992188 L 0 289.992188 Z M 0 59 " clip-rule="nonzero"/></clipPath><clipPath id="6a76303c67"><path d="M 0 116 L 225 116 L 225 289.992188 L 0 289.992188 Z M 0 116 " clip-rule="nonzero"/></clipPath><clipPath id="c471484bf2"><path d="M 0 174 L 150 174 L 150 289.992188 L 0 289.992188 Z M 0 174 " clip-rule="nonzero"/></clipPath><clipPath id="3a77873ef5"><path d="M 0 231 L 75 231 L 75 289.992188 L 0 289.992188 Z M 0 231 " clip-rule="nonzero"/></clipPath><clipPath id="b07e110d7f"><rect x="0" width="375" y="0" height="290"/></clipPath><mask id="d2fca90dfb"><g filter="url(#1d2b42e880)"><rect x="-144" width="1728" fill="#000000" y="-80.999999" height="971.999992" fill-opacity="0.4"/></g></mask><clipPath id="bff8ff6b7a"><path d="M 0.84375 1.242188 L 374.988281 1.242188 L 374.988281 289.992188 L 0.84375 289.992188 Z M 0.84375 1.242188 " clip-rule="nonzero"/></clipPath><clipPath id="e832a39da1"><path d="M 75 59 L 374.988281 59 L 374.988281 289.992188 L 75 289.992188 Z M 75 59 " clip-rule="nonzero"/></clipPath><clipPath id="5308695d90"><path d="M 150 116 L 374.988281 116 L 374.988281 289.992188 L 150 289.992188 Z M 150 116 " clip-rule="nonzero"/></clipPath><clipPath id="c6bc63dae4"><path d="M 225 174 L 374.988281 174 L 374.988281 289.992188 L 225 289.992188 Z M 225 174 " clip-rule="nonzero"/></clipPath><clipPath id="08e6a864de"><path d="M 300 231 L 374.988281 231 L 374.988281 289.992188 L 300 289.992188 Z M 300 231 " clip-rule="nonzero"/></clipPath><clipPath id="177db58be0"><rect x="0" width="375" y="0" height="290"/></clipPath></defs><rect x="-144" width="1728" fill="#ffffff" y="-80.999999" height="971.999992" fill-opacity="1"/><rect x="-144" width="1728" fill="#fffdfa" y="-80.999999" height="971.999992" fill-opacity="1"/><path fill="#fffdfa" d="M 0 0 L 1439.648438 0 L 1439.648438 810 L 0 810 Z M 0 0 " fill-opacity="1" fill-rule="nonzero"/><g mask="url(#ae3627105f)"><g transform="matrix(1, 0, 0, 1, 0, 520)"><g clip-path="url(#b07e110d7f)"><g clip-path="url(#e86d2330c4)"><path fill="#f4abba" d="M -0.0976562 1.261719 C 48.476562 9.753906 97.128906 18.25 146.605469 36.347656 C 196.089844 54.445312 246.46875 82.074219 284.601562 125.933594 C 322.660156 169.792969 348.40625 229.886719 374.148438 289.976562 L -0.0976562 289.976562 Z M -0.0976562 1.261719 " fill-opacity="1" fill-rule="evenodd"/></g><g clip-path="url(#36d7b02fc1)"><path fill="#fcc4b0" d="M -0.0976562 59.28125 C 38.800781 66.109375 77.707031 72.871094 117.300781 87.289062 C 156.898438 101.777344 197.261719 123.851562 227.71875 158.898438 C 258.179688 193.945312 278.808594 241.960938 299.4375 289.976562 L -0.0976562 289.976562 Z M -0.0976562 59.28125 " fill-opacity="1" fill-rule="evenodd"/></g><g clip-path="url(#6a76303c67)"><path fill="#f7f4b1" d="M -0.0976562 116.609375 C 28.976562 121.722656 58.128906 126.839844 87.757812 137.691406 C 117.386719 148.546875 147.574219 165.136719 170.367188 191.472656 C 193.15625 217.808594 208.628906 253.894531 224.035156 289.976562 L -0.0976562 289.976562 Z M -0.0976562 116.609375 " fill-opacity="1" fill-rule="evenodd"/></g><g clip-path="url(#c471484bf2)"><path fill="#c3a1c1" d="M -0.0976562 174.628906 C 19.3125 178.007812 38.722656 181.457031 58.480469 188.632812 C 78.238281 195.875 98.339844 206.914062 113.539062 224.4375 C 128.808594 241.960938 139.03125 265.96875 149.324219 289.976562 L -0.0976562 289.976562 Z M -0.0976562 174.628906 " fill-opacity="1" fill-rule="evenodd"/></g><g clip-path="url(#3a77873ef5)"><path fill="#9dd9e2" d="M -0.0976562 231.957031 C 9.566406 233.691406 19.296875 235.359375 29.175781 239.035156 C 39.050781 242.644531 49.128906 248.199219 56.722656 257.011719 C 64.320312 265.824219 69.433594 277.902344 74.613281 289.976562 L -0.0976562 289.976562 Z M -0.0976562 231.957031 " fill-opacity="1" fill-rule="evenodd"/></g></g></g></g><g mask="url(#d2fca90dfb)"><g transform="matrix(1, 0, 0, 1, 1065, 520)"><g clip-path="url(#177db58be0)"><g clip-path="url(#bff8ff6b7a)"><path fill="#f4abba" d="M 375.089844 1.261719 C 326.511719 9.753906 277.859375 18.25 228.382812 36.347656 C 178.902344 54.445312 128.519531 82.074219 90.390625 125.933594 C 52.328125 169.792969 26.585938 229.886719 0.839844 289.976562 L 375.089844 289.976562 Z M 375.089844 1.261719 " fill-opacity="1" fill-rule="evenodd"/></g><g clip-path="url(#e832a39da1)"><path fill="#fcc4b0" d="M 375.089844 59.28125 C 336.191406 66.109375 297.285156 72.871094 257.6875 87.289062 C 218.089844 101.777344 177.730469 123.851562 147.269531 158.898438 C 116.8125 193.945312 96.183594 241.960938 75.554688 289.976562 L 375.089844 289.976562 Z M 375.089844 59.28125 " fill-opacity="1" fill-rule="evenodd"/></g><g clip-path="url(#5308695d90)"><path fill="#f7f4b1" d="M 375.089844 116.609375 C 346.011719 121.722656 316.863281 126.839844 287.234375 137.691406 C 257.605469 148.546875 227.414062 165.136719 204.621094 191.472656 C 181.835938 217.808594 166.359375 253.894531 150.957031 289.976562 L 375.089844 289.976562 Z M 375.089844 116.609375 " fill-opacity="1" fill-rule="evenodd"/></g><g clip-path="url(#c6bc63dae4)"><path fill="#c3a1c1" d="M 375.089844 174.628906 C 355.675781 178.007812 336.265625 181.457031 316.507812 188.632812 C 296.75 195.875 276.648438 206.914062 261.449219 224.4375 C 246.183594 241.960938 235.957031 265.96875 225.664062 289.976562 L 375.089844 289.976562 Z M 375.089844 174.628906 " fill-opacity="1" fill-rule="evenodd"/></g><g clip-path="url(#08e6a864de)"><path fill="#9dd9e2" d="M 375.089844 231.957031 C 365.425781 233.691406 355.691406 235.359375 345.8125 239.035156 C 335.941406 242.644531 325.863281 248.199219 318.265625 257.011719 C 310.671875 265.824219 305.558594 277.902344 300.375 289.976562 L 375.089844 289.976562 Z M 375.089844 231.957031 " fill-opacity="1" fill-rule="evenodd"/></g></g></g></g></svg>