<svg xmlns="http://www.w3.org/2000/svg" xmlns:xlink="http://www.w3.org/1999/xlink" width="1920" zoomAndPan="magnify" viewBox="0 0 1440 809.999993" height="1080" preserveAspectRatio="xMidYMid meet" version="1.0"><defs><filter x="0%" y="0%" width="100%" height="100%" id="41faa832f2"><feColorMatrix values="0 0 0 0 1 0 0 0 0 1 0 0 0 0 1 0 0 0 1 0" color-interpolation-filters="sRGB"/></filter><mask id="b5f8244b25"><g filter="url(#41faa832f2)"><rect x="-144" width="1728" fill="#000000" y="-80.999999" height="971.999992" fill-opacity="0.4"/></g></mask><clipPath id="2bb0fde001"><path d="M 0.222656 1.246094 L 342.972656 1.246094 L 342.972656 265.996094 L 0.222656 265.996094 Z M 0.222656 1.246094 " clip-rule="nonzero"/></clipPath><clipPath id="98e73a4a53"><path d="M 0.222656 54 L 275 54 L 275 265.996094 L 0.222656 265.996094 Z M 0.222656 54 " clip-rule="nonzero"/></clipPath><clipPath id="e4016a24e1"><path d="M 0.222656 107 L 206 107 L 206 265.996094 L 0.222656 265.996094 Z M 0.222656 107 " clip-rule="nonzero"/></clipPath><clipPath id="6332b5ce7d"><path d="M 0.222656 160 L 138 160 L 138 265.996094 L 0.222656 265.996094 Z M 0.222656 160 " clip-rule="nonzero"/></clipPath><clipPath id="783c1605a0"><path d="M 0.222656 212 L 69 212 L 69 265.996094 L 0.222656 265.996094 Z M 0.222656 212 " clip-rule="nonzero"/></clipPath><clipPath id="3d589e687b"><rect x="0" width="344" y="0" height="266"/></clipPath></defs><rect x="-144" width="1728" fill="#ffffff" y="-80.999999" height="971.999992" fill-opacity="1"/><rect x="-144" width="1728" fill="#fffdfa" y="-80.999999" height="971.999992" fill-opacity="1"/><path fill="#fffdfa" d="M 0 0 L 1439.648438 0 L 1439.648438 810 L 0 810 Z M 0 0 " fill-opacity="1" fill-rule="nonzero"/><g mask="url(#b5f8244b25)"><g transform="matrix(1, 0, 0, 1, 0, 544)"><g clip-path="url(#3d589e687b)"><g clip-path="url(#2bb0fde001)"><path fill="#f4abba" d="M 0.230469 1.257812 C 44.71875 9.046875 89.273438 16.835938 134.585938 33.429688 C 179.902344 50.023438 226.042969 75.355469 260.964844 115.570312 C 295.824219 155.785156 319.398438 210.882812 342.976562 265.984375 L 0.230469 265.984375 Z M 0.230469 1.257812 " fill-opacity="1" fill-rule="evenodd"/></g><g clip-path="url(#98e73a4a53)"><path fill="#fcc4b0" d="M 0.230469 54.457031 C 35.851562 60.71875 71.484375 66.917969 107.75 80.136719 C 144.011719 93.421875 180.976562 113.664062 208.871094 145.796875 C 236.765625 177.929688 255.660156 221.957031 274.550781 265.984375 L 0.230469 265.984375 Z M 0.230469 54.457031 " fill-opacity="1" fill-rule="evenodd"/></g><g clip-path="url(#e4016a24e1)"><path fill="#f7f4b1" d="M 0.230469 107.019531 C 26.855469 111.710938 53.554688 116.402344 80.691406 126.351562 C 107.824219 136.304688 135.472656 151.515625 156.347656 175.664062 C 177.21875 199.8125 191.390625 232.898438 205.496094 265.984375 L 0.230469 265.984375 Z M 0.230469 107.019531 " fill-opacity="1" fill-rule="evenodd"/></g><g clip-path="url(#6332b5ce7d)"><path fill="#c3a1c1" d="M 0.230469 160.21875 C 18.007812 163.316406 35.785156 166.480469 53.878906 173.058594 C 71.972656 179.703125 90.382812 189.824219 104.300781 205.890625 C 118.285156 221.957031 127.648438 243.96875 137.074219 265.984375 L 0.230469 265.984375 Z M 0.230469 160.21875 " fill-opacity="1" fill-rule="evenodd"/></g><g clip-path="url(#783c1605a0)"><path fill="#9dd9e2" d="M 0.230469 212.785156 C 9.078125 214.375 17.992188 215.902344 27.039062 219.273438 C 36.082031 222.582031 45.3125 227.675781 52.269531 235.757812 C 59.226562 243.835938 63.90625 254.910156 68.652344 265.984375 L 0.230469 265.984375 Z M 0.230469 212.785156 " fill-opacity="1" fill-rule="evenodd"/></g></g></g></g></svg>