<svg xmlns="http://www.w3.org/2000/svg" xmlns:xlink="http://www.w3.org/1999/xlink" width="1485" zoomAndPan="magnify" viewBox="0 0 1113.75 117.749996" height="157" preserveAspectRatio="xMidYMid meet" version="1.0"><defs><g/><clipPath id="4ee6c394d2"><path d="M 1.054688 58 L 412 58 L 412 62 L 1.054688 62 Z M 1.054688 58 " clip-rule="nonzero"/></clipPath><clipPath id="d9e25f0459"><path d="M 701 60 L 1112.445312 60 L 1112.445312 64 L 701 64 Z M 701 60 " clip-rule="nonzero"/></clipPath></defs><path stroke-linecap="butt" transform="matrix(0.748411, 0, 0, 0.748411, 435.469683, 22.364505)" fill="none" stroke-linejoin="miter" d="M 46.446118 23.339484 L 46.446118 71.99987 L 34.598099 71.99987 L 34.598099 51.957407 L 16.14755 51.957407 L 16.14755 71.99987 L 4.299532 71.99987 L 4.299532 23.339484 L 16.14755 23.339484 L 16.14755 42.395482 L 34.598099 42.395482 L 34.598099 23.339484 Z M 46.446118 23.339484 " stroke="#7e3c47" stroke-width="2.859999" stroke-opacity="1" stroke-miterlimit="4"/><path stroke-linecap="butt" transform="matrix(0.748411, 0, 0, 0.748411, 435.469683, 22.364505)" fill="none" stroke-linejoin="miter" d="M 66.629504 23.339484 L 66.629504 52.44803 C 66.629504 55.36045 67.34978 57.604789 68.779894 59.186264 C 70.215226 60.757301 72.318641 61.54021 75.095357 61.54021 C 77.872074 61.54021 79.996366 60.757301 81.478673 59.186264 C 82.955761 57.604789 83.691695 55.36045 83.691695 52.44803 L 83.691695 23.339484 L 95.539714 23.339484 L 95.539714 52.380178 C 95.539714 56.727931 94.615881 60.402383 92.768217 63.403533 C 90.915333 66.404683 88.425683 68.669899 85.299268 70.2044 C 82.18851 71.728462 78.717615 72.490493 74.891801 72.490493 C 71.055548 72.490493 67.621189 71.738901 64.583503 70.240935 C 61.561475 68.727312 59.165775 66.456877 57.40684 63.434849 C 55.658344 60.412821 54.781486 56.727931 54.781486 52.380178 L 54.781486 23.339484 Z M 66.629504 23.339484 " stroke="#7e3c47" stroke-width="2.859999" stroke-opacity="1" stroke-miterlimit="4"/><path stroke-linecap="butt" transform="matrix(0.748411, 0, 0, 0.748411, 435.469683, 22.364505)" fill="none" stroke-linejoin="miter" d="M 115.72832 32.833557 L 115.72832 42.666891 L 131.600489 42.666891 L 131.600489 51.821703 L 115.72832 51.821703 L 115.72832 62.505797 L 133.683026 62.505797 L 133.683026 71.99987 L 103.875082 71.99987 L 103.875082 23.339484 L 133.683026 23.339484 L 133.683026 32.833557 Z M 115.72832 32.833557 " stroke="#7e3c47" stroke-width="2.859999" stroke-opacity="1" stroke-miterlimit="4"/><g fill="#fbb9c5" fill-opacity="1"><g transform="translate(435.469683, 76.250097)"><g><path d="M 34.765625 -36.421875 L 34.765625 0 L 25.890625 0 L 25.890625 -15 L 12.09375 -15 L 12.09375 0 L 3.21875 0 L 3.21875 -36.421875 L 12.09375 -36.421875 L 12.09375 -22.15625 L 25.890625 -22.15625 L 25.890625 -36.421875 Z M 34.765625 -36.421875 "/></g></g></g><g fill="#f9efc7" fill-opacity="1"><g transform="translate(473.404766, 76.250097)"><g><path d="M 11.9375 -36.421875 L 11.9375 -14.640625 C 11.9375 -12.453125 12.472656 -10.769531 13.546875 -9.59375 C 14.617188 -8.414062 16.191406 -7.828125 18.265625 -7.828125 C 20.335938 -7.828125 21.925781 -8.414062 23.03125 -9.59375 C 24.144531 -10.769531 24.703125 -12.453125 24.703125 -14.640625 L 24.703125 -36.421875 L 33.578125 -36.421875 L 33.578125 -14.6875 C 33.578125 -11.4375 32.882812 -8.6875 31.5 -6.4375 C 30.113281 -4.1875 28.253906 -2.488281 25.921875 -1.34375 C 23.585938 -0.207031 20.984375 0.359375 18.109375 0.359375 C 15.234375 0.359375 12.660156 -0.203125 10.390625 -1.328125 C 8.128906 -2.453125 6.34375 -4.144531 5.03125 -6.40625 C 3.71875 -8.675781 3.0625 -11.4375 3.0625 -14.6875 L 3.0625 -36.421875 Z M 11.9375 -36.421875 "/></g></g></g><g fill="#b8dfe6" fill-opacity="1"><g transform="translate(509.995048, 76.250097)"><g><path d="M 12.09375 -29.3125 L 12.09375 -21.953125 L 23.96875 -21.953125 L 23.96875 -15.09375 L 12.09375 -15.09375 L 12.09375 -7.109375 L 25.53125 -7.109375 L 25.53125 0 L 3.21875 0 L 3.21875 -36.421875 L 25.53125 -36.421875 L 25.53125 -29.3125 Z M 12.09375 -29.3125 "/></g></g></g><path stroke-linecap="butt" transform="matrix(0.748411, 0, 0, 0.748411, 542.252767, 25.809313)" fill="none" stroke-linejoin="miter" d="M 0.272931 37.244617 L 17.267269 36.837504 L 17.063713 46.081046 C 17.465606 45.063265 17.935351 44.087239 18.467729 43.152968 C 18.994888 42.213477 19.600337 41.373155 20.278858 40.626782 C 20.952159 39.885629 21.708971 39.26974 22.544074 38.784337 C 23.379176 38.298934 24.308228 38.001428 25.32079 37.886602 C 26.60998 37.886602 27.815659 38.116255 28.943048 38.580781 C 30.070436 39.045307 31.103876 39.676853 32.043366 40.47542 C 32.977637 41.279206 33.807521 42.218697 34.527797 43.30433 C 35.253292 44.384744 35.858741 45.53823 36.359803 46.754348 C 36.855645 47.975685 37.215783 49.22312 37.440217 50.496651 C 37.664651 51.770183 37.7586 53.017618 37.711625 54.238955 C 37.690748 55.502048 37.654212 56.801676 37.612457 58.132621 C 37.565482 59.280887 37.513288 60.549199 37.455875 61.937557 C 37.403681 63.325916 37.33061 64.688177 37.236661 66.019122 L 42.012404 66.086974 L 42.012404 67.339628 L 23.222595 66.932515 L 23.222595 65.679861 L 26.912704 65.747713 C 27.455521 59.719316 27.591225 53.617848 27.319817 47.432869 C 27.387669 44.614397 27.236307 42.557957 26.860511 41.273987 C 26.489934 39.984797 25.717464 39.321934 24.543101 39.27496 C 24.156866 39.389786 23.650585 39.603782 23.019038 39.916945 C 22.387492 40.235328 21.714191 40.783364 21.004353 41.561053 C 20.294516 42.338743 19.584679 43.398279 18.874842 44.739663 C 18.159785 46.086266 17.533458 47.819104 16.995861 49.938177 L 16.6566 65.679861 L 20.17447 65.679861 L 20.17447 66.932515 L 2.574682 66.932515 L 2.574682 65.679861 L 5.617587 65.679861 L 6.296108 38.361566 L 0.272931 38.497271 Z M 44.413324 40.595466 L 59.476488 40.157037 L 58.970207 65.815565 L 64.659343 65.815565 L 64.659343 67.068219 L 43.599099 67.068219 L 43.599099 65.815565 L 49.220383 65.815565 L 49.42394 41.67588 L 44.413324 41.84812 Z M 60.222861 31.55548 C 60.155009 32.437557 59.925355 33.26744 59.528682 34.04513 C 59.132008 34.822819 58.620507 35.50134 57.988961 36.075473 C 57.357415 36.649606 56.631919 37.098474 55.822914 37.411637 C 55.008689 37.73002 54.163147 37.865724 53.28107 37.81875 C 52.357238 37.797872 51.511696 37.594316 50.744446 37.208081 C 49.977195 36.827065 49.319552 36.326004 48.781955 35.704896 C 48.239138 35.083789 47.832025 34.368732 47.560617 33.554507 C 47.289209 32.740282 47.19004 31.873863 47.257892 30.944811 C 47.299647 30.067953 47.529301 29.24329 47.936413 28.476039 C 48.338306 27.708788 48.855026 27.045926 49.476134 26.49789 C 50.097241 25.944634 50.812298 25.511425 51.626523 25.2087 C 52.435529 24.905975 53.270631 24.765052 54.126611 24.785929 C 55.029566 24.806807 55.864669 25.005144 56.631919 25.37572 C 57.39917 25.751517 58.062033 26.242139 58.615288 26.852808 C 59.168544 27.458258 59.586095 28.173314 59.867942 28.98232 C 60.149789 29.796545 60.269835 30.652525 60.222861 31.55548 Z M 104.264086 37.411637 L 104.264086 38.632975 L 98.240908 38.768679 L 98.846357 82.606348 L 104.128381 82.606348 L 104.128381 83.859002 L 82.024259 83.859002 L 82.024259 82.606348 L 88.793809 82.606348 L 88.793809 64.291503 C 88.590253 65.037876 88.177921 65.700739 87.556814 66.29053 C 86.935706 66.875102 86.241527 67.365725 85.474276 67.762398 C 84.707026 68.159072 83.934556 68.461797 83.156867 68.675792 C 82.379177 68.889787 81.742412 68.999394 81.246569 68.999394 C 79.482415 68.999394 77.921817 68.769741 76.554336 68.320873 C 75.192075 67.866786 73.996835 67.266556 72.968615 66.509744 C 71.940394 65.752933 71.079195 64.870855 70.379796 63.868732 C 69.680398 62.866609 69.111484 61.801853 68.683494 60.684904 C 68.255504 59.567954 67.94756 58.424907 67.754442 57.250544 C 67.561325 56.076181 67.467376 54.959231 67.467376 53.899695 C 67.467376 53.153322 67.566544 52.239928 67.770101 51.159514 C 67.973657 50.073881 68.297259 48.946492 68.735688 47.772129 C 69.174117 46.597766 69.74825 45.428622 70.447648 44.269917 C 71.147047 43.105993 71.992588 42.062115 72.984273 41.138283 C 73.975957 40.209231 75.129443 39.462858 76.43951 38.883505 C 77.744358 38.309372 79.237104 38.022306 80.907309 38.022306 C 81.674559 38.022306 82.436591 38.142352 83.193402 38.377225 C 83.944995 38.612097 84.67049 38.940919 85.35945 39.35847 C 86.04319 39.776021 86.685175 40.261425 87.269747 40.81468 C 87.854319 41.367936 88.386697 41.962946 88.861661 42.594493 L 88.861661 37.683045 Z M 83.412617 67.068219 C 84.247719 67.068219 84.973215 66.828127 85.594322 66.358382 C 86.21543 65.883417 86.747808 65.277968 87.186237 64.547253 C 87.624666 63.811319 87.974365 63.023191 88.235334 62.177649 C 88.496304 61.332108 88.678983 60.533541 88.793809 59.787168 L 88.861661 45.099801 C 88.501523 44.33255 88.094411 43.654029 87.640324 43.064238 C 87.191456 42.479666 86.72693 41.978605 86.251966 41.561053 C 85.782221 41.143502 85.307256 40.793803 84.832291 40.511956 C 84.357327 40.230108 83.908459 39.995236 83.480469 39.817777 C 82.95853 39.817777 82.405274 40.000455 81.820702 40.376251 C 81.230911 40.746828 80.672436 41.435788 80.145278 42.437911 C 79.6129 43.445254 79.164032 44.838831 78.788236 46.618644 C 78.417659 48.403675 78.198445 50.694988 78.130593 53.492582 C 78.041863 56.112717 78.135812 58.289203 78.417659 60.02726 C 78.699506 61.765318 79.09618 63.158895 79.602461 64.207993 C 80.108742 65.25709 80.698533 65.998244 81.361396 66.426234 C 82.029478 66.854224 82.713218 67.068219 83.412617 67.068219 Z M 138.117058 40.157037 L 137.271517 66.019122 L 140.789387 65.679861 L 140.925091 66.932515 L 127.756566 68.117317 L 127.824419 62.563884 C 127.438184 63.398987 127.046729 64.134921 126.639617 64.766468 C 126.232504 65.398014 125.820172 65.94605 125.402621 66.405357 C 124.98507 66.869882 124.572738 67.266556 124.170845 67.590158 C 123.763732 67.91898 123.377497 68.185169 123.017359 68.388725 C 122.161379 68.884567 121.315837 69.166415 120.480735 69.234267 C 118.513024 69.234267 116.801064 68.842812 115.334415 68.065123 C 113.867766 67.287434 112.646428 66.253994 111.675621 64.970024 C 110.704815 63.680834 109.979319 62.219405 109.493916 60.585735 C 109.008512 58.946846 108.763201 57.271422 108.763201 55.559461 L 109.478258 41.138283 L 105.448887 41.070431 L 105.448887 39.817777 L 120.209326 40.021333 C 119.713484 44.149871 119.332469 47.631206 119.071499 50.465335 C 118.815749 53.294245 118.627851 55.590777 118.513024 57.349712 C 118.37732 59.42703 118.299029 61.097235 118.278152 62.360328 C 118.278152 63.534691 118.366881 64.484621 118.54956 65.204897 C 118.727019 65.930392 118.967111 66.494086 119.259397 66.895979 C 119.551683 67.303092 119.870066 67.57972 120.209326 67.725863 C 120.548587 67.872006 120.872189 67.960735 121.190572 67.981613 C 121.665537 67.866786 122.187476 67.642352 122.761609 67.303092 C 123.340961 66.963831 123.925533 66.441892 124.525763 65.732055 C 125.120774 65.022218 125.705346 64.087947 126.26904 62.939681 C 126.832734 61.786195 127.349454 60.366521 127.824419 58.670218 L 128.059291 41.341839 L 123.048675 41.273987 L 123.048675 40.021333 Z M 172.914741 50.006029 C 172.914741 51.201269 172.533726 52.281683 171.766475 53.236832 C 170.994005 54.1972 170.00754 55.016644 168.801861 55.695165 C 167.596181 56.368467 166.249578 56.906064 164.772491 57.302738 C 163.295403 57.694192 161.844412 57.902968 160.424737 57.929065 C 160.330788 57.929065 160.132452 57.918626 159.814069 57.892529 C 159.495686 57.871652 159.11467 57.79858 158.660583 57.673315 C 158.211716 57.548049 157.705435 57.349712 157.14174 57.083523 C 156.572827 56.812115 156.009132 56.415441 155.445438 55.898722 C 155.51329 57.902968 155.701188 59.625367 156.003913 61.0607 C 156.311857 62.490813 156.71897 63.665176 157.225251 64.57857 C 157.731532 65.491963 158.331762 66.160045 159.020721 66.577596 C 159.704461 66.995148 160.456054 67.203923 161.270279 67.203923 C 161.745244 67.203923 162.382009 67.047342 163.180576 66.728959 C 163.984362 66.415795 164.819465 65.930392 165.685884 65.272749 C 166.557522 64.620325 167.408283 63.785222 168.243386 62.767441 C 169.078489 61.754879 169.777887 60.533541 170.341581 59.113867 L 171.322827 56.608559 L 172.544164 57.015671 L 172.001348 58.534514 C 171.505506 59.870678 170.847862 61.133771 170.038857 62.329012 C 169.224631 63.524252 168.285141 64.589008 167.209946 65.528499 C 166.139971 66.46277 164.94995 67.219582 163.639883 67.793715 C 162.329815 68.373067 160.931018 68.701889 159.443492 68.795838 C 156.844235 68.701889 154.646871 68.242582 152.840962 67.40748 C 151.035052 66.572377 149.568403 65.512841 148.441015 64.223651 C 147.313626 62.939681 146.494182 61.504348 145.982681 59.922872 C 145.4764 58.346616 145.22587 56.754702 145.22587 55.152349 C 145.22587 54.092812 145.387671 52.934107 145.716492 51.681453 C 146.040095 50.428799 146.520279 49.165707 147.151825 47.892175 C 147.783371 46.613424 148.555841 45.381648 149.474454 44.181188 C 150.387848 42.985947 151.426507 41.926411 152.585212 41.002578 C 153.749136 40.073527 155.022667 39.337593 156.411025 38.784337 C 157.799384 38.231082 159.297349 37.954454 160.899702 37.954454 C 162.366351 38.001428 163.676418 38.220643 164.840343 38.612097 C 166.004267 39.008771 167.032487 39.53071 167.919784 40.172695 C 168.8123 40.81468 169.574331 41.545395 170.205877 42.354401 C 170.837423 43.168626 171.359363 44.008948 171.766475 44.875367 C 172.168368 45.747005 172.465874 46.623863 172.643333 47.516379 C 172.826012 48.408895 172.914741 49.238778 172.914741 50.006029 Z M 160.356885 39.207108 C 159.63139 39.254082 158.963308 39.655975 158.3422 40.423226 C 157.721093 41.190477 157.188715 42.234355 156.750286 43.554861 C 156.311857 44.875367 155.967377 46.430746 155.716846 48.210558 C 155.471535 49.99559 155.34627 51.911107 155.34627 53.967547 C 155.909964 54.619971 156.473658 55.131471 157.037352 55.491609 C 157.601047 55.851747 158.122986 56.117936 158.592731 56.284957 C 159.067696 56.457196 159.464369 56.561584 159.777533 56.608559 C 160.095916 56.650314 160.289033 56.676411 160.356885 56.676411 C 161.233743 56.650314 161.964458 56.462416 162.538591 56.097058 C 163.112724 55.73692 163.566811 55.241078 163.895633 54.609532 C 164.219235 53.977986 164.454108 53.221174 164.589812 52.344316 C 164.720297 51.462239 164.788149 50.480993 164.788149 49.39536 C 164.788149 48.043537 164.704638 46.749128 164.537618 45.522571 C 164.365378 44.290795 164.109628 43.205162 163.759929 42.270891 C 163.410229 41.336619 162.950923 40.590246 162.387229 40.036991 C 161.823534 39.483736 161.145014 39.207108 160.356885 39.207108 Z M 160.356885 39.207108 " stroke="#545454" stroke-width="2.166666" stroke-opacity="1" stroke-miterlimit="4"/><g fill="#545454" fill-opacity="1"><g transform="translate(542.252767, 75.95285)"><g><path d="M 0.203125 -22.265625 L 12.921875 -22.578125 L 12.765625 -15.65625 C 13.066406 -16.414062 13.414062 -17.144531 13.8125 -17.84375 C 14.21875 -18.550781 14.671875 -19.179688 15.171875 -19.734375 C 15.679688 -20.296875 16.25 -20.753906 16.875 -21.109375 C 17.5 -21.472656 18.191406 -21.703125 18.953125 -21.796875 C 19.910156 -21.796875 20.8125 -21.617188 21.65625 -21.265625 C 22.507812 -20.921875 23.285156 -20.445312 23.984375 -19.84375 C 24.679688 -19.25 25.300781 -18.546875 25.84375 -17.734375 C 26.382812 -16.921875 26.835938 -16.054688 27.203125 -15.140625 C 27.578125 -14.234375 27.847656 -13.300781 28.015625 -12.34375 C 28.191406 -11.394531 28.257812 -10.460938 28.21875 -9.546875 C 28.207031 -8.609375 28.1875 -7.640625 28.15625 -6.640625 C 28.113281 -5.773438 28.070312 -4.820312 28.03125 -3.78125 C 27.988281 -2.75 27.9375 -1.734375 27.875 -0.734375 L 31.4375 -0.6875 L 31.4375 0.25 L 17.375 -0.046875 L 17.375 -0.984375 L 20.140625 -0.9375 C 20.546875 -5.445312 20.648438 -10.015625 20.453125 -14.640625 C 20.492188 -16.753906 20.375 -18.289062 20.09375 -19.25 C 19.820312 -20.21875 19.25 -20.71875 18.375 -20.75 C 18.082031 -20.664062 17.695312 -20.503906 17.21875 -20.265625 C 16.75 -20.035156 16.25 -19.628906 15.71875 -19.046875 C 15.1875 -18.460938 14.65625 -17.664062 14.125 -16.65625 C 13.59375 -15.65625 13.125 -14.359375 12.71875 -12.765625 L 12.46875 -0.984375 L 15.09375 -0.984375 L 15.09375 -0.046875 L 1.921875 -0.046875 L 1.921875 -0.984375 L 4.203125 -0.984375 L 4.71875 -21.4375 L 0.203125 -21.328125 Z M 0.203125 -22.265625 "/></g></g></g><g fill="#545454" fill-opacity="1"><g transform="translate(574.048107, 75.95285)"><g><path d="M 1.4375 -19.765625 L 12.71875 -20.09375 L 12.34375 -0.890625 L 16.59375 -0.890625 L 16.59375 0.046875 L 0.84375 0.046875 L 0.84375 -0.890625 L 5.046875 -0.890625 L 5.1875 -18.953125 L 1.4375 -18.828125 Z M 13.28125 -26.53125 C 13.226562 -25.875 13.050781 -25.253906 12.75 -24.671875 C 12.457031 -24.085938 12.070312 -23.578125 11.59375 -23.140625 C 11.125 -22.710938 10.585938 -22.378906 9.984375 -22.140625 C 9.378906 -21.910156 8.742188 -21.8125 8.078125 -21.84375 C 7.390625 -21.851562 6.757812 -22.003906 6.1875 -22.296875 C 5.613281 -22.585938 5.125 -22.960938 4.71875 -23.421875 C 4.3125 -23.890625 4.003906 -24.425781 3.796875 -25.03125 C 3.597656 -25.644531 3.523438 -26.296875 3.578125 -26.984375 C 3.609375 -27.640625 3.773438 -28.253906 4.078125 -28.828125 C 4.378906 -29.398438 4.757812 -29.894531 5.21875 -30.3125 C 5.6875 -30.726562 6.222656 -31.050781 6.828125 -31.28125 C 7.441406 -31.507812 8.070312 -31.613281 8.71875 -31.59375 C 9.394531 -31.570312 10.019531 -31.421875 10.59375 -31.140625 C 11.164062 -30.867188 11.65625 -30.503906 12.0625 -30.046875 C 12.476562 -29.585938 12.789062 -29.054688 13 -28.453125 C 13.21875 -27.847656 13.3125 -27.207031 13.28125 -26.53125 Z M 13.28125 -26.53125 "/></g></g></g><g fill="#545454" fill-opacity="1"><g transform="translate(591.073178, 75.95285)"><g><path d="M 29.21875 -22.140625 L 29.21875 -21.234375 L 24.703125 -21.125 L 25.15625 11.6875 L 29.109375 11.6875 L 29.109375 12.625 L 12.5625 12.625 L 12.5625 11.6875 L 17.640625 11.6875 L 17.640625 -2.03125 C 17.484375 -1.46875 17.171875 -0.96875 16.703125 -0.53125 C 16.242188 -0.09375 15.726562 0.269531 15.15625 0.5625 C 14.582031 0.863281 14.003906 1.09375 13.421875 1.25 C 12.835938 1.414062 12.359375 1.5 11.984375 1.5 C 10.671875 1.5 9.5 1.328125 8.46875 0.984375 C 7.445312 0.648438 6.550781 0.203125 5.78125 -0.359375 C 5.019531 -0.929688 4.375 -1.59375 3.84375 -2.34375 C 3.320312 -3.09375 2.898438 -3.882812 2.578125 -4.71875 C 2.265625 -5.5625 2.035156 -6.421875 1.890625 -7.296875 C 1.742188 -8.171875 1.671875 -9.007812 1.671875 -9.8125 C 1.671875 -10.363281 1.742188 -11.046875 1.890625 -11.859375 C 2.046875 -12.671875 2.285156 -13.515625 2.609375 -14.390625 C 2.941406 -15.265625 3.367188 -16.132812 3.890625 -17 C 4.421875 -17.875 5.054688 -18.65625 5.796875 -19.34375 C 6.546875 -20.039062 7.410156 -20.601562 8.390625 -21.03125 C 9.367188 -21.46875 10.484375 -21.6875 11.734375 -21.6875 C 12.304688 -21.6875 12.875 -21.597656 13.4375 -21.421875 C 14.007812 -21.242188 14.550781 -21 15.0625 -20.6875 C 15.570312 -20.375 16.046875 -20.007812 16.484375 -19.59375 C 16.929688 -19.1875 17.332031 -18.742188 17.6875 -18.265625 L 17.6875 -21.9375 Z M 13.609375 0.046875 C 14.234375 0.046875 14.773438 -0.128906 15.234375 -0.484375 C 15.703125 -0.835938 16.097656 -1.285156 16.421875 -1.828125 C 16.753906 -2.378906 17.019531 -2.972656 17.21875 -3.609375 C 17.414062 -4.242188 17.554688 -4.835938 17.640625 -5.390625 L 17.6875 -16.390625 C 17.414062 -16.960938 17.109375 -17.46875 16.765625 -17.90625 C 16.429688 -18.351562 16.085938 -18.734375 15.734375 -19.046875 C 15.378906 -19.359375 15.023438 -19.617188 14.671875 -19.828125 C 14.316406 -20.035156 13.976562 -20.207031 13.65625 -20.34375 C 13.269531 -20.34375 12.851562 -20.203125 12.40625 -19.921875 C 11.96875 -19.648438 11.550781 -19.132812 11.15625 -18.375 C 10.757812 -17.625 10.421875 -16.582031 10.140625 -15.25 C 9.867188 -13.914062 9.707031 -12.203125 9.65625 -10.109375 C 9.582031 -8.148438 9.648438 -6.519531 9.859375 -5.21875 C 10.078125 -3.914062 10.375 -2.867188 10.75 -2.078125 C 11.132812 -1.296875 11.578125 -0.742188 12.078125 -0.421875 C 12.578125 -0.109375 13.085938 0.046875 13.609375 0.046875 Z M 13.609375 0.046875 "/></g></g></g><g fill="#545454" fill-opacity="1"><g transform="translate(620.183016, 75.95285)"><g><path d="M 25.4375 -20.09375 L 24.8125 -0.734375 L 27.4375 -0.984375 L 27.546875 -0.046875 L 17.6875 0.84375 L 17.734375 -3.3125 C 17.453125 -2.6875 17.15625 -2.140625 16.84375 -1.671875 C 16.539062 -1.203125 16.234375 -0.789062 15.921875 -0.4375 C 15.609375 -0.09375 15.300781 0.195312 15 0.4375 C 14.695312 0.6875 14.410156 0.882812 14.140625 1.03125 C 13.492188 1.40625 12.859375 1.617188 12.234375 1.671875 C 10.765625 1.671875 9.476562 1.378906 8.375 0.796875 C 7.28125 0.210938 6.367188 -0.554688 5.640625 -1.515625 C 4.921875 -2.484375 4.378906 -3.578125 4.015625 -4.796875 C 3.648438 -6.023438 3.46875 -7.28125 3.46875 -8.5625 L 4 -19.359375 L 0.984375 -19.40625 L 0.984375 -20.34375 L 12.03125 -20.1875 C 11.664062 -17.101562 11.382812 -14.5 11.1875 -12.375 C 10.988281 -10.257812 10.847656 -8.539062 10.765625 -7.21875 C 10.660156 -5.664062 10.601562 -4.414062 10.59375 -3.46875 C 10.59375 -2.59375 10.660156 -1.882812 10.796875 -1.34375 C 10.929688 -0.800781 11.109375 -0.378906 11.328125 -0.078125 C 11.546875 0.222656 11.78125 0.425781 12.03125 0.53125 C 12.289062 0.644531 12.535156 0.710938 12.765625 0.734375 C 13.117188 0.648438 13.507812 0.476562 13.9375 0.21875 C 14.375 -0.03125 14.816406 -0.421875 15.265625 -0.953125 C 15.710938 -1.484375 16.144531 -2.175781 16.5625 -3.03125 C 16.988281 -3.894531 17.378906 -4.960938 17.734375 -6.234375 L 17.90625 -19.203125 L 14.15625 -19.25 L 14.15625 -20.1875 Z M 25.4375 -20.09375 "/></g></g></g><g fill="#545454" fill-opacity="1"><g transform="translate(649.343523, 75.95285)"><g><path d="M 22.328125 -12.71875 C 22.328125 -11.820312 22.035156 -11.015625 21.453125 -10.296875 C 20.878906 -9.578125 20.140625 -8.960938 19.234375 -8.453125 C 18.335938 -7.953125 17.332031 -7.550781 16.21875 -7.25 C 15.113281 -6.957031 14.03125 -6.804688 12.96875 -6.796875 C 12.90625 -6.796875 12.753906 -6.800781 12.515625 -6.8125 C 12.273438 -6.832031 11.984375 -6.890625 11.640625 -6.984375 C 11.304688 -7.078125 10.925781 -7.222656 10.5 -7.421875 C 10.082031 -7.628906 9.664062 -7.925781 9.25 -8.3125 C 9.300781 -6.8125 9.441406 -5.523438 9.671875 -4.453125 C 9.898438 -3.378906 10.203125 -2.5 10.578125 -1.8125 C 10.953125 -1.125 11.394531 -0.625 11.90625 -0.3125 C 12.425781 0 12.992188 0.15625 13.609375 0.15625 C 13.960938 0.15625 14.4375 0.0351562 15.03125 -0.203125 C 15.632812 -0.441406 16.257812 -0.804688 16.90625 -1.296875 C 17.5625 -1.785156 18.203125 -2.410156 18.828125 -3.171875 C 19.453125 -3.929688 19.972656 -4.84375 20.390625 -5.90625 L 21.125 -7.78125 L 22.046875 -7.46875 L 21.640625 -6.328125 C 21.265625 -5.335938 20.769531 -4.394531 20.15625 -3.5 C 19.550781 -2.601562 18.847656 -1.800781 18.046875 -1.09375 C 17.242188 -0.394531 16.351562 0.164062 15.375 0.59375 C 14.394531 1.019531 13.347656 1.269531 12.234375 1.34375 C 10.296875 1.269531 8.648438 0.921875 7.296875 0.296875 C 5.941406 -0.328125 4.84375 -1.117188 4 -2.078125 C 3.15625 -3.035156 2.539062 -4.101562 2.15625 -5.28125 C 1.78125 -6.46875 1.59375 -7.664062 1.59375 -8.875 C 1.59375 -9.664062 1.710938 -10.53125 1.953125 -11.46875 C 2.203125 -12.40625 2.5625 -13.347656 3.03125 -14.296875 C 3.507812 -15.253906 4.085938 -16.179688 4.765625 -17.078125 C 5.453125 -17.972656 6.226562 -18.765625 7.09375 -19.453125 C 7.96875 -20.148438 8.925781 -20.703125 9.96875 -21.109375 C 11.007812 -21.523438 12.128906 -21.734375 13.328125 -21.734375 C 14.421875 -21.703125 15.398438 -21.535156 16.265625 -21.234375 C 17.140625 -20.941406 17.910156 -20.554688 18.578125 -20.078125 C 19.242188 -19.597656 19.8125 -19.050781 20.28125 -18.4375 C 20.757812 -17.832031 21.148438 -17.203125 21.453125 -16.546875 C 21.765625 -15.898438 21.988281 -15.242188 22.125 -14.578125 C 22.257812 -13.910156 22.328125 -13.289062 22.328125 -12.71875 Z M 12.921875 -20.796875 C 12.378906 -20.765625 11.875 -20.460938 11.40625 -19.890625 C 10.945312 -19.316406 10.550781 -18.535156 10.21875 -17.546875 C 9.894531 -16.554688 9.640625 -15.394531 9.453125 -14.0625 C 9.265625 -12.726562 9.171875 -11.289062 9.171875 -9.75 C 9.597656 -9.257812 10.019531 -8.878906 10.4375 -8.609375 C 10.863281 -8.335938 11.253906 -8.140625 11.609375 -8.015625 C 11.960938 -7.890625 12.253906 -7.8125 12.484375 -7.78125 C 12.722656 -7.75 12.867188 -7.734375 12.921875 -7.734375 C 13.578125 -7.742188 14.117188 -7.882812 14.546875 -8.15625 C 14.984375 -8.425781 15.320312 -8.796875 15.5625 -9.265625 C 15.8125 -9.742188 15.984375 -10.3125 16.078125 -10.96875 C 16.179688 -11.625 16.234375 -12.359375 16.234375 -13.171875 C 16.234375 -14.191406 16.171875 -15.160156 16.046875 -16.078125 C 15.921875 -16.992188 15.726562 -17.800781 15.46875 -18.5 C 15.207031 -19.207031 14.863281 -19.765625 14.4375 -20.171875 C 14.019531 -20.585938 13.515625 -20.796875 12.921875 -20.796875 Z M 12.921875 -20.796875 "/></g></g></g><g clip-path="url(#4ee6c394d2)"><path stroke-linecap="butt" transform="matrix(0.748411, 0.000000000000000039, -0.000000000000000039, 0.748411, 1.055105, 58.888022)" fill="none" stroke-linejoin="miter" d="M -0.000557906 2.002505 L 546.647185 2.002505 " stroke="#a47e70" stroke-width="4" stroke-opacity="1" stroke-miterlimit="4"/></g><path stroke-linecap="round" transform="matrix(0.748411, 0.000000000000000039, -0.000000000000000039, 0.748411, 1.055105, 58.888022)" fill="none" stroke-linejoin="round" d="M 547.649308 -3.999795 L 547.649308 7.999586 " stroke="#a47e70" stroke-width="4" stroke-opacity="1" stroke-miterlimit="4"/><g clip-path="url(#d9e25f0459)"><path stroke-linecap="butt" transform="matrix(0.748411, 0.000000000000000039, -0.000000000000000039, 0.748411, 700.445673, 60.384844)" fill="none" stroke-linejoin="miter" d="M 3.000669 2.001532 L 549.648412 2.001532 " stroke="#a47e70" stroke-width="4" stroke-opacity="1" stroke-miterlimit="4"/></g><path stroke-linecap="round" transform="matrix(0.748411, 0.000000000000000039, -0.000000000000000039, 0.748411, 700.445673, 60.384844)" fill="none" stroke-linejoin="round" d="M 1.998546 -4.000768 L 1.998546 7.998613 " stroke="#a47e70" stroke-width="4" stroke-opacity="1" stroke-miterlimit="4"/></svg>