<svg xmlns="http://www.w3.org/2000/svg" xmlns:xlink="http://www.w3.org/1999/xlink" width="500" zoomAndPan="magnify" viewBox="0 0 375 374.999991" height="500" preserveAspectRatio="xMidYMid meet" version="1.0"><path fill="#87ceeb" d="M 160.109375 117.625 C 160.109375 117.625 161.304688 118.222656 163.164062 118.355469 C 166.21875 118.621094 170.867188 117.824219 174.121094 111.320312 C 179.367188 100.894531 189.523438 91.269531 201.609375 95.382812 C 213.691406 99.5 208.179688 127.785156 220 129.710938 C 231.816406 131.636719 238.390625 129.710938 244.167969 106.671875 C 249.945312 83.632812 274.90625 84.695312 288.386719 94.453125 C 301.863281 104.214844 295.558594 128.382812 283.738281 136.617188 C 271.921875 144.847656 266.078125 173.199219 287.523438 167.953125 C 311.160156 162.179688 320.386719 174.460938 309.699219 197.832031 C 292.4375 235.742188 322.84375 214.5625 323.972656 233.550781 C 324.769531 247.296875 302.128906 248.957031 297.347656 254.398438 C 289.316406 263.496094 297.214844 274.851562 299.9375 276.910156 C 304.320312 280.226562 314.746094 288.460938 325.765625 290.917969 C 336.722656 293.375 339.777344 317.277344 327.957031 325.242188 C 316.140625 333.210938 299.40625 337.0625 291.175781 310.703125 C 282.941406 284.34375 258.773438 289.257812 250.804688 301.671875 C 242.839844 314.023438 227.765625 339.585938 213.757812 337.660156 C 199.75 335.734375 192.644531 331.351562 182.152344 317.875 C 171.664062 304.394531 147.894531 330.289062 133.820312 326.105469 C 122.265625 322.65625 119.542969 318.40625 119.808594 300.808594 C 120.074219 283.214844 94.644531 303.332031 85.949219 290.320312 C 78.710938 279.5625 93.449219 268.210938 90.992188 262.632812 C 85.484375 250.351562 66.03125 259.378906 49.230469 264.425781 C 15.503906 274.585938 16.433594 227.445312 45.910156 231.429688 C 68.285156 234.414062 92.1875 237.070312 83.625 218.148438 C 73.664062 196.238281 79.773438 187.671875 86.347656 178.910156 C 92.917969 170.144531 84.15625 158.328125 74.261719 146.507812 C 64.371094 134.691406 72.335938 122.871094 85.550781 125.660156 C 98.761719 128.449219 113.632812 147.238281 128.175781 134.027344 C 128.042969 133.960938 133.753906 106.539062 160.109375 117.625 Z M 160.109375 117.625 " fill-opacity="1" fill-rule="nonzero"/><path fill="#87ceeb" d="M 230.554688 78.1875 C 230.554688 78.824219 230.492188 79.457031 230.371094 80.078125 C 230.246094 80.703125 230.0625 81.308594 229.816406 81.898438 C 229.574219 82.484375 229.277344 83.042969 228.921875 83.574219 C 228.570312 84.101562 228.167969 84.59375 227.71875 85.042969 C 227.265625 85.492188 226.777344 85.894531 226.246094 86.25 C 225.71875 86.601562 225.160156 86.902344 224.570312 87.144531 C 223.984375 87.386719 223.378906 87.570312 222.753906 87.695312 C 222.128906 87.820312 221.5 87.882812 220.863281 87.882812 C 220.226562 87.882812 219.59375 87.820312 218.972656 87.695312 C 218.347656 87.570312 217.742188 87.386719 217.152344 87.144531 C 216.566406 86.902344 216.007812 86.601562 215.476562 86.25 C 214.949219 85.894531 214.457031 85.492188 214.007812 85.042969 C 213.558594 84.59375 213.15625 84.101562 212.800781 83.574219 C 212.449219 83.042969 212.148438 82.484375 211.90625 81.898438 C 211.664062 81.308594 211.480469 80.703125 211.355469 80.078125 C 211.230469 79.457031 211.167969 78.824219 211.167969 78.1875 C 211.167969 77.550781 211.230469 76.921875 211.355469 76.296875 C 211.480469 75.671875 211.664062 75.066406 211.90625 74.480469 C 212.148438 73.890625 212.449219 73.332031 212.800781 72.800781 C 213.15625 72.273438 213.558594 71.785156 214.007812 71.332031 C 214.457031 70.882812 214.949219 70.480469 215.476562 70.128906 C 216.007812 69.773438 216.566406 69.476562 217.152344 69.234375 C 217.742188 68.988281 218.347656 68.804688 218.972656 68.679688 C 219.59375 68.554688 220.226562 68.496094 220.863281 68.496094 C 221.5 68.496094 222.128906 68.554688 222.753906 68.679688 C 223.378906 68.804688 223.984375 68.988281 224.570312 69.234375 C 225.160156 69.476562 225.71875 69.773438 226.246094 70.128906 C 226.777344 70.480469 227.265625 70.882812 227.71875 71.332031 C 228.167969 71.785156 228.570312 72.273438 228.921875 72.800781 C 229.277344 73.332031 229.574219 73.890625 229.816406 74.480469 C 230.0625 75.066406 230.246094 75.671875 230.371094 76.296875 C 230.492188 76.921875 230.554688 77.550781 230.554688 78.1875 Z M 230.554688 78.1875 " fill-opacity="1" fill-rule="nonzero"/><path fill="#87ceeb" d="M 175.582031 331.550781 C 175.582031 331.953125 175.542969 332.347656 175.464844 332.742188 C 175.386719 333.136719 175.269531 333.519531 175.117188 333.890625 C 174.960938 334.257812 174.773438 334.613281 174.550781 334.945312 C 174.328125 335.277344 174.074219 335.585938 173.792969 335.871094 C 173.507812 336.152344 173.199219 336.40625 172.867188 336.628906 C 172.53125 336.851562 172.179688 337.042969 171.808594 337.195312 C 171.441406 337.347656 171.058594 337.464844 170.664062 337.542969 C 170.269531 337.621094 169.875 337.660156 169.472656 337.660156 C 169.070312 337.660156 168.675781 337.621094 168.28125 337.542969 C 167.886719 337.464844 167.503906 337.347656 167.136719 337.195312 C 166.765625 337.042969 166.414062 336.851562 166.078125 336.628906 C 165.746094 336.40625 165.4375 336.152344 165.152344 335.871094 C 164.871094 335.585938 164.617188 335.277344 164.394531 334.945312 C 164.171875 334.613281 163.984375 334.257812 163.828125 333.890625 C 163.675781 333.519531 163.558594 333.136719 163.480469 332.742188 C 163.402344 332.347656 163.363281 331.953125 163.363281 331.550781 C 163.363281 331.148438 163.402344 330.753906 163.480469 330.359375 C 163.558594 329.964844 163.675781 329.585938 163.828125 329.214844 C 163.984375 328.84375 164.171875 328.492188 164.394531 328.15625 C 164.617188 327.824219 164.871094 327.515625 165.152344 327.230469 C 165.4375 326.949219 165.746094 326.695312 166.078125 326.472656 C 166.414062 326.25 166.765625 326.0625 167.136719 325.90625 C 167.503906 325.753906 167.886719 325.636719 168.28125 325.558594 C 168.675781 325.480469 169.070312 325.441406 169.472656 325.441406 C 169.875 325.441406 170.269531 325.480469 170.664062 325.558594 C 171.058594 325.636719 171.441406 325.753906 171.808594 325.90625 C 172.179688 326.0625 172.53125 326.25 172.867188 326.472656 C 173.199219 326.695312 173.507812 326.949219 173.792969 327.230469 C 174.074219 327.515625 174.328125 327.824219 174.550781 328.15625 C 174.773438 328.492188 174.960938 328.84375 175.117188 329.214844 C 175.269531 329.585938 175.386719 329.964844 175.464844 330.359375 C 175.542969 330.753906 175.582031 331.148438 175.582031 331.550781 Z M 175.582031 331.550781 " fill-opacity="1" fill-rule="nonzero"/><path fill="#87ceeb" d="M 282.957031 331.863281 C 283.117188 332.285156 283.25 332.710938 283.351562 333.140625 C 283.453125 333.574219 283.523438 334.003906 283.5625 334.433594 C 283.605469 334.863281 283.613281 335.28125 283.585938 335.691406 C 283.5625 336.101562 283.507812 336.492188 283.417969 336.867188 C 283.332031 337.242188 283.214844 337.589844 283.066406 337.914062 C 282.917969 338.238281 282.746094 338.53125 282.542969 338.792969 C 282.34375 339.054688 282.117188 339.277344 281.871094 339.46875 C 281.621094 339.65625 281.355469 339.804688 281.070312 339.914062 C 280.785156 340.023438 280.488281 340.09375 280.175781 340.117188 C 279.867188 340.144531 279.546875 340.125 279.222656 340.066406 C 278.898438 340.007812 278.574219 339.90625 278.246094 339.765625 C 277.917969 339.625 277.597656 339.441406 277.285156 339.222656 C 276.96875 339.003906 276.664062 338.75 276.371094 338.464844 C 276.082031 338.175781 275.804688 337.859375 275.546875 337.515625 C 275.289062 337.167969 275.054688 336.800781 274.839844 336.410156 C 274.628906 336.023438 274.441406 335.617188 274.277344 335.199219 C 274.117188 334.777344 273.988281 334.351562 273.882812 333.921875 C 273.78125 333.488281 273.710938 333.058594 273.671875 332.628906 C 273.632812 332.199219 273.625 331.78125 273.648438 331.371094 C 273.671875 330.960938 273.726562 330.570312 273.816406 330.195312 C 273.902344 329.820312 274.019531 329.472656 274.167969 329.148438 C 274.316406 328.824219 274.488281 328.53125 274.691406 328.269531 C 274.894531 328.007812 275.117188 327.785156 275.367188 327.59375 C 275.613281 327.40625 275.878906 327.257812 276.164062 327.148438 C 276.449219 327.039062 276.75 326.96875 277.058594 326.945312 C 277.371094 326.917969 277.6875 326.9375 278.011719 326.996094 C 278.335938 327.054688 278.664062 327.15625 278.988281 327.296875 C 279.316406 327.4375 279.636719 327.621094 279.953125 327.839844 C 280.265625 328.058594 280.570312 328.3125 280.863281 328.597656 C 281.15625 328.886719 281.429688 329.203125 281.6875 329.546875 C 281.945312 329.894531 282.179688 330.261719 282.394531 330.652344 C 282.609375 331.042969 282.796875 331.445312 282.957031 331.863281 Z M 282.957031 331.863281 " fill-opacity="1" fill-rule="nonzero"/><path fill="#87ceeb" d="M 351.925781 197.789062 C 352.421875 198.332031 352.878906 198.902344 353.296875 199.5 C 353.714844 200.097656 354.082031 200.714844 354.398438 201.347656 C 354.714844 201.980469 354.980469 202.617188 355.1875 203.257812 C 355.394531 203.898438 355.542969 204.53125 355.632812 205.15625 C 355.722656 205.78125 355.75 206.386719 355.71875 206.972656 C 355.683594 207.558594 355.589844 208.113281 355.4375 208.636719 C 355.285156 209.164062 355.074219 209.644531 354.804688 210.085938 C 354.539062 210.527344 354.21875 210.917969 353.847656 211.261719 C 353.472656 211.605469 353.054688 211.890625 352.59375 212.121094 C 352.132812 212.347656 351.632812 212.519531 351.097656 212.628906 C 350.5625 212.734375 350.003906 212.78125 349.414062 212.765625 C 348.828125 212.746094 348.226562 212.667969 347.613281 212.527344 C 346.996094 212.386719 346.378906 212.183594 345.757812 211.921875 C 345.136719 211.660156 344.523438 211.347656 343.917969 210.976562 C 343.316406 210.605469 342.734375 210.1875 342.171875 209.722656 C 341.609375 209.257812 341.082031 208.753906 340.582031 208.210938 C 340.085938 207.667969 339.625 207.097656 339.210938 206.5 C 338.792969 205.898438 338.425781 205.285156 338.109375 204.652344 C 337.789062 204.019531 337.527344 203.382812 337.320312 202.742188 C 337.113281 202.101562 336.964844 201.46875 336.875 200.84375 C 336.785156 200.214844 336.757812 199.609375 336.789062 199.023438 C 336.824219 198.4375 336.914062 197.882812 337.070312 197.359375 C 337.222656 196.835938 337.433594 196.355469 337.699219 195.914062 C 337.96875 195.472656 338.289062 195.078125 338.660156 194.738281 C 339.035156 194.394531 339.453125 194.109375 339.914062 193.878906 C 340.375 193.648438 340.875 193.480469 341.410156 193.371094 C 341.945312 193.261719 342.503906 193.21875 343.089844 193.234375 C 343.679688 193.25 344.28125 193.332031 344.894531 193.472656 C 345.511719 193.613281 346.128906 193.816406 346.75 194.078125 C 347.371094 194.335938 347.984375 194.652344 348.585938 195.023438 C 349.191406 195.394531 349.773438 195.8125 350.335938 196.277344 C 350.894531 196.742188 351.425781 197.246094 351.925781 197.789062 Z M 351.925781 197.789062 " fill-opacity="1" fill-rule="nonzero"/><path fill="#87ceeb" d="M 96.304688 332.8125 C 93.117188 337.328125 87.675781 338.988281 84.222656 336.53125 C 80.769531 334.074219 80.503906 328.429688 83.757812 323.847656 C 86.945312 319.335938 96.238281 313.625 99.691406 316.082031 C 103.144531 318.605469 99.558594 328.296875 96.304688 332.8125 Z M 96.304688 332.8125 " fill-opacity="1" fill-rule="nonzero"/><path fill="#87ceeb" d="M 33.628906 177.316406 C 27.054688 173.996094 24 166.691406 26.855469 160.984375 C 29.710938 155.273438 37.414062 153.347656 43.984375 156.667969 C 50.558594 159.988281 59.65625 171.671875 56.800781 177.382812 C 53.945312 183.09375 40.203125 180.636719 33.628906 177.316406 Z M 33.628906 177.316406 " fill-opacity="1" fill-rule="nonzero"/><path fill="#87ceeb" d="M 154.667969 61.855469 C 156.59375 66.835938 156.128906 77.523438 151.148438 79.449219 C 146.167969 81.375 138.597656 73.804688 136.671875 68.828125 C 134.75 63.847656 137.203125 58.269531 142.183594 56.34375 C 147.164062 54.417969 152.742188 56.875 154.667969 61.855469 Z M 154.667969 61.855469 " fill-opacity="1" fill-rule="nonzero"/><path fill="#f7d2ba" d="M 231.082031 345.511719 C 221.613281 354.367188 206.503906 348.058594 206.503906 337.132812 C 206.503906 328.980469 209.140625 315.5625 210.175781 310.628906 C 210.183594 310.621094 210.183594 310.613281 210.183594 310.613281 C 210.425781 309.421875 210.582031 308.730469 210.582031 308.730469 C 210.582031 308.730469 208.804688 294.289062 206.808594 280.398438 C 205.582031 271.84375 204.261719 263.5 203.222656 258.851562 C 200.492188 246.648438 195.941406 217.15625 195.941406 217.15625 C 188.660156 198.765625 203.40625 189.117188 218.152344 204.414062 C 232.902344 219.703125 217.0625 229.722656 224.34375 247.199219 C 227.480469 254.730469 228.152344 266.851562 227.894531 278.21875 C 227.660156 288.730469 226.640625 298.589844 226.046875 303.5625 C 225.785156 305.726562 226.082031 307.917969 226.910156 309.9375 C 230.277344 318.148438 238.183594 338.859375 231.082031 345.511719 Z M 149.257812 346.136719 C 158.726562 354.996094 173.835938 348.683594 173.835938 337.761719 C 173.835938 329.609375 171.199219 316.1875 170.164062 311.253906 C 170.15625 311.246094 170.15625 311.242188 170.15625 311.242188 C 169.914062 310.050781 169.757812 309.359375 169.757812 309.359375 C 169.757812 309.359375 171.53125 294.917969 173.53125 281.027344 C 174.757812 272.46875 176.074219 264.128906 177.117188 259.476562 C 179.847656 247.277344 184.398438 217.785156 184.398438 217.785156 C 191.675781 199.394531 176.929688 189.746094 162.183594 205.042969 C 147.4375 220.332031 163.277344 230.347656 155.996094 247.828125 C 152.859375 255.355469 152.1875 267.480469 152.445312 278.84375 C 152.679688 289.355469 153.699219 299.21875 154.289062 304.1875 C 154.554688 306.355469 154.253906 308.546875 153.429688 310.5625 C 150.0625 318.777344 142.152344 339.484375 149.257812 346.136719 Z M 149.257812 346.136719 " fill-opacity="1" fill-rule="nonzero"/><path fill="#ffe4e1" d="M 231.082031 345.511719 C 221.613281 354.367188 206.503906 348.058594 206.503906 337.132812 C 206.503906 328.980469 209.140625 315.5625 210.175781 310.628906 C 210.183594 310.621094 210.183594 310.613281 210.183594 310.613281 C 210.425781 309.421875 210.582031 308.730469 210.582031 308.730469 C 210.582031 308.730469 208.804688 294.289062 206.808594 280.398438 C 216.40625 281.132812 224.015625 279.402344 227.894531 278.21875 C 227.660156 288.730469 226.640625 298.589844 226.046875 303.5625 C 225.785156 305.726562 226.082031 307.917969 226.910156 309.9375 C 230.277344 318.148438 238.183594 338.859375 231.082031 345.511719 Z M 149.257812 346.136719 C 158.726562 354.996094 173.835938 348.683594 173.835938 337.761719 C 173.835938 329.609375 171.199219 316.1875 170.164062 311.253906 C 170.15625 311.246094 170.15625 311.242188 170.15625 311.242188 C 169.914062 310.050781 169.757812 309.359375 169.757812 309.359375 C 169.757812 309.359375 171.53125 294.917969 173.53125 281.027344 C 163.933594 281.761719 156.324219 280.027344 152.445312 278.84375 C 152.679688 289.355469 153.699219 299.21875 154.289062 304.1875 C 154.554688 306.355469 154.253906 308.546875 153.429688 310.5625 C 150.0625 318.777344 142.152344 339.484375 149.257812 346.136719 Z M 149.257812 346.136719 " fill-opacity="1" fill-rule="nonzero"/><path fill="#000000" d="M 231.617188 346.300781 C 221.675781 355.59375 205.824219 348.976562 205.824219 337.511719 C 205.824219 330.328125 208.550781 315.597656 209.417969 311.046875 C 209.476562 310.753906 209.890625 310.761719 209.945312 311.054688 L 211.488281 319.113281 L 211.578125 319.105469 C 212.421875 316.117188 215.621094 313.894531 219.453125 313.894531 C 222.953125 313.894531 225.933594 315.753906 227.054688 318.363281 L 227.238281 318.355469 L 227.238281 310.699219 C 227.238281 310.328125 227.746094 310.226562 227.878906 310.570312 C 231.660156 320.011719 238.648438 339.722656 231.617188 346.300781 Z M 148.722656 346.9375 C 158.660156 356.230469 174.515625 349.609375 174.515625 338.144531 C 174.515625 330.964844 171.789062 316.230469 170.917969 311.683594 C 170.863281 311.390625 170.449219 311.398438 170.390625 311.691406 L 168.851562 319.742188 L 168.757812 319.734375 C 167.917969 316.746094 164.714844 314.519531 160.886719 314.519531 C 157.386719 314.519531 154.40625 316.382812 153.285156 318.992188 L 153.101562 318.984375 L 153.101562 311.324219 C 153.101562 310.957031 152.59375 310.855469 152.457031 311.199219 C 148.679688 320.644531 141.691406 340.355469 148.722656 346.9375 Z M 148.722656 346.9375 " fill-opacity="1" fill-rule="nonzero"/><path fill="#ffe4e1" d="M 227.582031 318.242188 C 227.523438 318.058594 227.324219 317.949219 227.132812 318.007812 C 226.945312 318.066406 226.839844 318.265625 226.898438 318.457031 C 226.910156 318.507812 227.566406 320.609375 228.074219 323.503906 C 226.054688 322.921875 218.996094 321.28125 211.109375 324.132812 C 211.414062 321.300781 211.90625 319.242188 211.921875 319.191406 C 211.972656 319 211.851562 318.804688 211.65625 318.761719 C 211.464844 318.714844 211.273438 318.835938 211.230469 319.027344 C 211.09375 319.570312 208 332.449219 212.898438 338.574219 C 214.554688 340.640625 216.925781 341.6875 219.972656 341.6875 C 220.058594 341.6875 220.144531 341.6875 220.230469 341.6875 C 223.339844 341.632812 225.699219 340.503906 227.246094 338.351562 C 231.832031 331.957031 227.753906 318.800781 227.582031 318.242188 Z M 228.207031 324.289062 C 228.464844 325.894531 228.65625 327.699219 228.679688 329.503906 C 227.546875 329.132812 219.714844 326.808594 210.929688 330.121094 C 210.816406 328.324219 210.886719 326.527344 211.03125 324.925781 C 219.417969 321.757812 226.902344 323.875 228.207031 324.289062 Z M 226.667969 337.925781 C 225.257812 339.886719 223.089844 340.90625 220.214844 340.960938 C 217.292969 341.019531 215.007812 340.0625 213.453125 338.117188 C 211.9375 336.21875 211.246094 333.566406 210.996094 330.855469 C 220.265625 327.269531 228.5 330.1875 228.578125 330.214844 C 228.613281 330.230469 228.644531 330.230469 228.679688 330.230469 C 228.636719 333.089844 228.121094 335.898438 226.667969 337.925781 Z M 168.679688 319.390625 C 168.488281 319.441406 168.375 319.632812 168.417969 319.820312 C 168.429688 319.867188 168.921875 321.929688 169.230469 324.761719 C 161.34375 321.90625 154.285156 323.546875 152.265625 324.132812 C 152.777344 321.238281 153.429688 319.132812 153.441406 319.085938 C 153.5 318.898438 153.398438 318.699219 153.207031 318.636719 C 153.023438 318.578125 152.820312 318.679688 152.757812 318.871094 C 152.578125 319.425781 148.5 332.589844 153.085938 338.972656 C 154.632812 341.125 156.992188 342.246094 160.101562 342.308594 C 160.1875 342.308594 160.273438 342.308594 160.359375 342.308594 C 163.402344 342.308594 165.777344 341.261719 167.433594 339.191406 C 172.332031 333.066406 169.238281 320.191406 169.101562 319.648438 C 169.058594 319.460938 168.875 319.339844 168.679688 319.390625 Z M 169.308594 325.550781 C 169.449219 327.15625 169.515625 328.953125 169.40625 330.75 C 160.628906 327.441406 152.800781 329.757812 151.667969 330.128906 C 151.6875 328.324219 151.878906 326.523438 152.136719 324.917969 C 153.433594 324.503906 160.921875 322.394531 169.308594 325.550781 Z M 166.882812 338.75 C 165.328125 340.699219 163.035156 341.640625 160.125 341.597656 C 157.25 341.539062 155.082031 340.519531 153.671875 338.558594 C 152.214844 336.535156 151.703125 333.722656 151.660156 330.871094 C 151.695312 330.871094 151.722656 330.871094 151.757812 330.855469 C 151.835938 330.828125 160.058594 327.90625 169.34375 331.5 C 169.09375 334.207031 168.402344 336.855469 166.882812 338.75 Z M 166.882812 338.75 " fill-opacity="1" fill-rule="nonzero"/><path fill="#f7d2ba" d="M 157.101562 53.535156 C 153.792969 55.125 151.109375 59.382812 146.832031 60.984375 L 145.449219 68.046875 L 136.164062 65.542969 L 138.066406 59.695312 C 136.335938 57.953125 135.765625 55.367188 135.585938 53.570312 C 135.445312 52.15625 134.9375 50.816406 134.074219 49.691406 C 132 46.988281 128.605469 42.1875 130.175781 41.675781 C 132.171875 41.019531 137.089844 46.882812 137.953125 47.929688 C 137.984375 47.964844 138.03125 47.929688 138.019531 47.886719 C 134.652344 37.125 134.902344 33.027344 136.964844 33.675781 C 138.816406 34.257812 141.078125 43.53125 141.527344 45.65625 C 141.535156 45.703125 141.890625 45.660156 141.890625 45.613281 C 141.882812 43.144531 141.769531 30.980469 144.085938 30.878906 C 146.566406 30.773438 146.15625 33.730469 146.199219 45.574219 C 146.199219 45.625 146.269531 45.625 146.277344 45.574219 C 148.886719 34.34375 151.246094 31.742188 152.820312 33.402344 C 154.0625 34.714844 149.65625 48.828125 149.65625 48.828125 C 149.648438 48.84375 149.648438 48.847656 149.648438 48.863281 C 148.972656 53.226562 151.367188 50.867188 155.105469 49.183594 C 158.839844 47.523438 161.613281 51.367188 157.101562 53.535156 Z M 224.734375 157.351562 L 216.449219 166 C 216.449219 166 209.988281 199.957031 220.726562 197.519531 C 231.46875 195.078125 231.382812 190.851562 230.199219 190.394531 C 229.015625 189.9375 227.011719 191.214844 227.011719 191.214844 C 227.011719 191.214844 227.375 189.210938 229.164062 182.472656 C 230.953125 175.734375 227.738281 172.003906 227.738281 172.003906 L 229.164062 169.757812 Z M 224.734375 157.351562 " fill-opacity="1" fill-rule="nonzero"/><path fill="#e6e6fa" d="M 218.523438 165.550781 L 232.644531 228.203125 C 232.902344 229.328125 232.246094 230.464844 231.140625 230.789062 C 228.585938 231.554688 223.84375 232.730469 218.9375 232.710938 C 218.5625 232.710938 218.195312 232.792969 217.863281 232.980469 C 216.414062 233.773438 211.707031 235.910156 204.871094 234.835938 C 204.421875 234.761719 203.964844 234.8125 203.558594 235.011719 C 201.902344 235.816406 196.785156 237.820312 189.332031 236.097656 C 189.003906 236.019531 188.660156 236.019531 188.332031 236.097656 C 180.882812 237.820312 175.761719 235.816406 174.105469 235.011719 C 173.699219 234.8125 173.238281 234.761719 172.796875 234.835938 C 165.957031 235.910156 161.25 233.773438 159.804688 232.980469 C 159.476562 232.800781 159.105469 232.710938 158.726562 232.710938 C 153.8125 232.730469 149.070312 231.546875 146.519531 230.785156 C 145.421875 230.457031 144.765625 229.328125 145.007812 228.210938 L 158.597656 165.988281 L 159.566406 160.074219 C 159.746094 159.011719 160.660156 158.234375 161.734375 158.234375 L 214.53125 158.234375 C 215.480469 158.234375 216.320312 158.847656 216.621094 159.746094 L 218.460938 165.335938 C 218.488281 165.414062 218.511719 165.488281 218.523438 165.550781 Z M 218.523438 165.550781 " fill-opacity="1" fill-rule="nonzero"/><path fill="#faf0e6" d="M 262.152344 140.230469 C 261.015625 150.726562 244.222656 163.164062 236.957031 163.648438 L 231.816406 169.402344 C 230.796875 170.542969 229.136719 170.855469 227.765625 170.15625 C 225.191406 168.839844 221.382812 166.363281 220.648438 163.003906 L 224.335938 156.1875 C 224.335938 156.1875 220.449219 149.984375 231.375 136.757812 C 231.375 136.757812 226.953125 131.679688 225.335938 129.90625 C 225.335938 129.90625 225.222656 164.097656 221.664062 173.464844 C 221.664062 173.464844 222.617188 177.066406 222.839844 181.140625 C 222.890625 182.117188 222.304688 183.015625 221.382812 183.335938 C 217.511719 184.703125 206.246094 188.019531 188.847656 187.679688 C 165.628906 187.222656 157.035156 184.492188 154.820312 183.59375 C 154.433594 183.433594 154.207031 183.050781 154.253906 182.636719 C 154.382812 181.460938 154.683594 178.992188 155.160156 177.296875 C 155.636719 175.597656 155.929688 174.777344 156.5 173.574219 C 156.5 173.574219 151.316406 169.800781 153.1875 114.550781 C 147.144531 115.949219 143.703125 114.832031 135.492188 114.550781 C 121.203125 114.066406 113.359375 110.949219 112.554688 99.5625 C 111.75 88.175781 132.3125 70.070312 132.3125 70.070312 L 134.488281 63.894531 C 134.753906 63.140625 135.402344 62.574219 136.191406 62.453125 C 140.886719 61.707031 144.722656 63.632812 146.46875 64.742188 C 147.089844 65.144531 147.386719 65.882812 147.210938 66.597656 L 145.3125 74.078125 C 147.738281 78.726562 146.039062 84.53125 146.039062 84.53125 C 154.933594 80.46875 166.136719 79.382812 172.554688 79.113281 C 176.765625 76.84375 182.414062 75.753906 190.144531 76.574219 C 190.144531 76.574219 207.898438 79.527344 216.457031 84.6875 C 225.015625 89.859375 235.191406 90.664062 238.90625 101.160156 C 242.613281 111.644531 263.285156 129.726562 262.152344 140.230469 Z M 262.152344 140.230469 " fill-opacity="1" fill-rule="nonzero"/><path fill="#000000" d="M 215.214844 63.125 C 214.71875 80.695312 221.832031 82.605469 221.027344 85.472656 C 220.222656 88.339844 214.597656 86.5 214.597656 86.5 C 214.597656 86.5 217.363281 97.757812 208.207031 92.03125 C 195.148438 83.867188 196.328125 48 196.328125 48 C 199.09375 36.382812 215.714844 45.554688 215.214844 63.125 Z M 165.535156 63.125 C 166.035156 80.695312 158.917969 82.605469 159.722656 85.472656 C 160.53125 88.339844 166.15625 86.5 166.15625 86.5 C 166.15625 86.5 163.390625 97.757812 172.546875 92.03125 C 185.601562 83.867188 184.425781 48 184.425781 48 C 181.660156 36.382812 165.03125 45.554688 165.535156 63.125 Z M 165.535156 63.125 " fill-opacity="1" fill-rule="nonzero"/><path fill="#ffe4e1" d="M 204.941406 88.589844 C 202.953125 94.75 199.164062 101.386719 195.949219 106.402344 C 192.898438 111.15625 190.359375 114.445312 190.359375 114.445312 L 190.359375 114.539062 C 190.359375 114.539062 187.828125 111.257812 184.773438 106.507812 C 181.558594 101.496094 177.773438 94.851562 175.777344 88.679688 C 171.898438 76.667969 184.347656 72.964844 184.347656 72.964844 L 190.292969 72.964844 L 190.359375 80.703125 L 190.421875 72.871094 L 196.371094 72.871094 C 196.371094 72.871094 208.820312 76.574219 204.941406 88.589844 Z M 204.941406 88.589844 " fill-opacity="1" fill-rule="nonzero"/><path fill="#000000" d="M 211.578125 51.480469 L 180.5625 44.207031 L 169.34375 53.207031 C 169.34375 53.207031 164.835938 52.976562 167.433594 42.054688 C 167.496094 41.773438 167.582031 41.519531 167.683594 41.277344 C 173.125 24.027344 184.667969 26.65625 184.667969 26.65625 C 185.238281 24.5625 196.285156 18.757812 206.757812 31.136719 C 217.234375 43.515625 211.578125 51.480469 211.578125 51.480469 Z M 211.578125 51.480469 " fill-opacity="1" fill-rule="nonzero"/><path fill="#f7d2ba" d="M 209.234375 51.949219 C 209.234375 56.636719 208.664062 60.90625 206.417969 64.453125 C 205.96875 65.15625 205.453125 65.839844 204.863281 66.492188 C 203.257812 68.25 201.070312 69.785156 198.664062 70.917969 C 198.664062 70.917969 198.664062 70.917969 198.664062 70.925781 C 198.75 72.046875 198.914062 73.085938 199.113281 74.011719 C 199.394531 75.324219 199.734375 76.421875 200.042969 77.238281 C 200.425781 78.277344 200.164062 79.445312 199.351562 80.210938 C 196.8125 82.59375 191.585938 87.347656 190.292969 87.347656 C 189.023438 87.347656 184.398438 82.8125 182.113281 80.496094 C 181.402344 79.769531 181.136719 78.707031 181.460938 77.742188 C 181.78125 76.78125 182 75.640625 182.152344 74.460938 C 182.292969 73.371094 182.378906 72.253906 182.421875 71.234375 L 182.421875 71.226562 C 180.148438 70.226562 178.058594 68.859375 176.460938 67.210938 C 175.605469 66.328125 174.878906 65.363281 174.265625 64.335938 C 172.140625 60.800781 171.363281 56.492188 171.363281 51.957031 C 171.363281 40.941406 179.839844 32.007812 190.292969 32.007812 C 200.753906 32 209.234375 40.933594 209.234375 51.949219 Z M 209.234375 51.949219 " fill-opacity="1" fill-rule="nonzero"/><path fill="#000000" d="M 210.878906 47.472656 C 206.902344 53.96875 204 44.136719 204 44.136719 L 190.542969 42.929688 C 190.042969 42.886719 189.617188 42.566406 189.425781 42.101562 C 189.425781 42.101562 185.507812 35.398438 185.515625 33.105469 C 183.371094 38.160156 175.734375 53.441406 170.265625 48.558594 C 163.816406 42.796875 172.253906 32.664062 185.964844 30.660156 C 185.964844 30.660156 185.957031 30.671875 185.953125 30.695312 C 186.03125 30.644531 186.109375 30.601562 186.195312 30.566406 C 201.347656 24.882812 214.839844 41.011719 210.878906 47.472656 Z M 210.878906 47.472656 " fill-opacity="1" fill-rule="nonzero"/><path fill="#f7d2ba" d="M 175.328125 53.726562 C 176.964844 57.484375 176.503906 61.3125 174.292969 62.285156 C 172.082031 63.253906 168.957031 60.984375 167.3125 57.226562 C 165.664062 53.46875 166.136719 49.640625 168.34375 48.671875 C 170.554688 47.699219 173.679688 49.96875 175.328125 53.726562 Z M 205.226562 53.726562 C 203.585938 57.484375 204.050781 61.3125 206.261719 62.285156 C 208.46875 63.253906 211.59375 60.984375 213.242188 57.226562 C 214.886719 53.46875 214.417969 49.640625 212.207031 48.671875 C 209.996094 47.707031 206.875 49.96875 205.226562 53.726562 Z M 205.226562 53.726562 " fill-opacity="1" fill-rule="nonzero"/><path fill="#e6e6fa" d="M 195.949219 106.402344 C 192.898438 111.15625 190.359375 114.445312 190.359375 114.445312 L 190.359375 114.539062 C 190.359375 114.539062 187.828125 111.257812 184.773438 106.507812 C 185.800781 103.292969 187.179688 99.605469 187.628906 98.378906 C 187.847656 97.789062 187.804688 97.125 187.519531 96.5625 L 185.851562 93.300781 C 185.324219 92.261719 185.660156 90.992188 186.644531 90.355469 L 189.039062 88.796875 C 189.796875 88.304688 190.773438 88.304688 191.519531 88.796875 L 193.921875 90.355469 C 194.902344 90.992188 195.242188 92.261719 194.707031 93.300781 L 193.046875 96.5625 C 192.753906 97.125 192.71875 97.789062 192.933594 98.378906 C 193.382812 99.621094 194.871094 103.234375 195.949219 106.402344 Z M 195.949219 106.402344 " fill-opacity="1" fill-rule="nonzero"/><path fill="#000000" d="M 182.421875 71.226562 C 184.945312 72.332031 187.710938 72.964844 190.292969 72.964844 C 193.003906 72.964844 195.96875 72.203125 198.664062 70.925781 C 198.75 72.046875 198.914062 73.085938 199.113281 74.011719 C 196.390625 75.582031 193.183594 76.558594 190.292969 76.558594 C 187.605469 76.558594 184.6875 75.78125 182.152344 74.457031 C 182.292969 73.363281 182.378906 72.246094 182.421875 71.226562 Z M 198.792969 50.054688 C 197.453125 50.054688 196.371094 51.136719 196.371094 52.480469 C 196.371094 53.820312 197.453125 54.902344 198.792969 54.902344 C 200.132812 54.902344 201.21875 53.820312 201.21875 52.480469 C 201.21875 51.136719 200.132812 50.054688 198.792969 50.054688 Z M 181.921875 50.054688 C 180.582031 50.054688 179.5 51.136719 179.5 52.480469 C 179.5 53.820312 180.582031 54.902344 181.921875 54.902344 C 183.261719 54.902344 184.347656 53.820312 184.347656 52.480469 C 184.347656 51.136719 183.261719 50.054688 181.921875 50.054688 Z M 194.410156 44.855469 C 194.523438 45.855469 195.429688 46.574219 196.425781 46.460938 L 201.132812 45.917969 C 202.132812 45.804688 202.851562 44.898438 202.738281 43.898438 C 202.625 42.902344 201.71875 42.183594 200.71875 42.296875 L 196.019531 42.835938 C 195.007812 42.953125 194.292969 43.859375 194.410156 44.855469 Z M 179.683594 45.917969 L 184.382812 46.460938 C 185.382812 46.574219 186.285156 45.859375 186.402344 44.855469 C 186.515625 43.859375 185.800781 42.953125 184.796875 42.835938 L 180.097656 42.296875 C 179.097656 42.183594 178.191406 42.894531 178.078125 43.898438 C 177.972656 44.898438 178.683594 45.804688 179.683594 45.917969 Z M 188.355469 58.875 C 188.363281 58.859375 189.339844 57.640625 190.695312 57.589844 C 191.554688 57.554688 192.40625 57.996094 193.226562 58.894531 C 193.296875 58.976562 193.390625 59.011719 193.488281 59.011719 C 193.574219 59.011719 193.660156 58.980469 193.730469 58.917969 C 193.875 58.78125 193.886719 58.5625 193.753906 58.410156 C 192.78125 57.347656 191.734375 56.84375 190.664062 56.871094 C 188.976562 56.933594 187.839844 58.367188 187.792969 58.433594 C 187.671875 58.589844 187.699219 58.8125 187.855469 58.933594 C 188.011719 59.054688 188.234375 59.03125 188.355469 58.875 Z M 208.8125 54.183594 C 208.855469 54.195312 208.898438 54.203125 208.941406 54.203125 C 209.082031 54.203125 209.21875 54.117188 209.277344 53.976562 C 209.8125 52.550781 210.503906 51.671875 211.273438 51.445312 C 211.992188 51.222656 212.585938 51.628906 212.613281 51.652344 C 212.769531 51.765625 213 51.730469 213.113281 51.574219 C 213.226562 51.417969 213.199219 51.1875 213.035156 51.074219 C 213 51.046875 212.15625 50.4375 211.082031 50.753906 C 210.066406 51.050781 209.242188 52.050781 208.605469 53.71875 C 208.535156 53.90625 208.628906 54.113281 208.8125 54.183594 Z M 167.980469 51.644531 C 168.003906 51.628906 168.589844 51.214844 169.324219 51.4375 C 170.09375 51.671875 170.785156 52.550781 171.320312 53.96875 C 171.375 54.113281 171.511719 54.195312 171.65625 54.195312 C 171.695312 54.195312 171.738281 54.191406 171.78125 54.175781 C 171.96875 54.105469 172.0625 53.898438 171.988281 53.71875 C 171.363281 52.050781 170.527344 51.050781 169.515625 50.753906 C 168.4375 50.433594 167.597656 51.046875 167.5625 51.074219 C 167.40625 51.1875 167.367188 51.410156 167.484375 51.574219 C 167.597656 51.722656 167.824219 51.757812 167.980469 51.644531 Z M 178.628906 93.125 C 179.070312 93.6875 179.863281 93.867188 180.511719 93.550781 L 189.917969 88.972656 C 190.152344 88.859375 190.429688 88.859375 190.664062 88.988281 L 199.285156 93.558594 C 199.515625 93.679688 199.765625 93.738281 200.007812 93.738281 C 200.398438 93.738281 200.789062 93.582031 201.089844 93.289062 L 205.011719 89.386719 C 205.15625 89.253906 205.15625 89.023438 205.011719 88.882812 C 204.875 88.738281 204.648438 88.738281 204.503906 88.882812 L 200.582031 92.78125 C 200.328125 93.039062 199.933594 93.09375 199.613281 92.925781 L 190.992188 88.355469 C 190.558594 88.125 190.039062 88.117188 189.601562 88.332031 L 180.195312 92.910156 C 179.855469 93.082031 179.425781 92.980469 179.191406 92.683594 L 176.21875 88.917969 C 176.097656 88.761719 175.867188 88.738281 175.71875 88.859375 C 175.5625 88.980469 175.539062 89.210938 175.660156 89.359375 Z M 190.09375 87.640625 C 190.152344 87.683594 190.222656 87.699219 190.292969 87.699219 C 190.359375 87.699219 190.414062 87.683594 190.472656 87.648438 C 190.792969 87.460938 198.335938 83.046875 200.484375 78.847656 C 200.578125 78.671875 200.503906 78.457031 200.328125 78.371094 C 200.15625 78.277344 199.933594 78.347656 199.847656 78.527344 C 197.972656 82.179688 191.5 86.199219 190.300781 86.921875 C 189.097656 86.09375 182.363281 81.414062 181.257812 78.5625 C 181.1875 78.378906 180.980469 78.292969 180.796875 78.355469 C 180.609375 78.425781 180.523438 78.632812 180.589844 78.820312 C 181.886719 82.148438 189.757812 87.417969 190.09375 87.640625 Z M 192.917969 96.839844 C 192.804688 96.8125 190.117188 96.160156 187.632812 96.839844 C 187.441406 96.890625 187.335938 97.089844 187.386719 97.273438 C 187.425781 97.429688 187.570312 97.539062 187.726562 97.539062 C 187.753906 97.539062 187.792969 97.53125 187.820312 97.523438 C 190.117188 96.894531 192.71875 97.515625 192.746094 97.523438 C 192.941406 97.574219 193.132812 97.453125 193.175781 97.261719 C 193.226562 97.074219 193.109375 96.882812 192.917969 96.839844 Z M 225.328125 130.246094 C 225.527344 130.246094 225.683594 130.089844 225.683594 129.890625 L 225.683594 117.988281 L 229.15625 107.484375 C 229.222656 107.300781 229.113281 107.101562 228.929688 107.035156 C 228.734375 106.972656 228.535156 107.078125 228.480469 107.265625 L 224.984375 117.824219 C 224.972656 117.859375 224.964844 117.894531 224.964844 117.9375 L 224.964844 129.898438 C 224.972656 130.089844 225.128906 130.246094 225.328125 130.246094 Z M 242.71875 132.023438 C 235.796875 130.789062 231.140625 136.464844 231.089844 136.523438 C 230.96875 136.679688 230.988281 136.898438 231.144531 137.019531 C 231.210938 137.070312 231.289062 137.097656 231.367188 137.097656 C 231.472656 137.097656 231.574219 137.058594 231.644531 136.964844 C 231.6875 136.90625 236.082031 131.558594 242.589844 132.722656 C 242.785156 132.757812 242.96875 132.628906 243.003906 132.4375 C 243.039062 132.242188 242.914062 132.058594 242.71875 132.023438 Z M 223.097656 167.363281 C 223.117188 167.363281 223.136719 167.371094 223.152344 167.371094 C 223.324219 167.371094 223.472656 167.25 223.503906 167.070312 C 223.738281 165.671875 225.164062 147.960938 225.222656 147.203125 C 225.234375 147.003906 225.09375 146.832031 224.894531 146.820312 C 224.699219 146.804688 224.523438 146.945312 224.507812 147.148438 C 224.492188 147.332031 223.023438 165.578125 222.796875 166.949219 C 222.773438 167.148438 222.902344 167.335938 223.097656 167.363281 Z M 153.171875 114.894531 C 153.214844 114.894531 153.25 114.886719 153.292969 114.871094 C 153.476562 114.808594 153.570312 114.601562 153.507812 114.417969 L 149.777344 104.097656 C 149.714844 103.914062 149.507812 103.820312 149.320312 103.882812 C 149.136719 103.949219 149.042969 104.15625 149.105469 104.339844 L 152.835938 114.660156 C 152.886719 114.800781 153.027344 114.894531 153.171875 114.894531 Z M 146.105469 84.160156 C 145.914062 84.117188 145.71875 84.238281 145.675781 84.429688 C 145.640625 84.59375 141.949219 100.761719 129.726562 102.410156 C 129.53125 102.4375 129.390625 102.613281 129.417969 102.808594 C 129.441406 102.984375 129.597656 103.113281 129.773438 103.113281 C 129.789062 103.113281 129.804688 103.113281 129.824219 103.113281 C 142.546875 101.402344 146.347656 84.753906 146.382812 84.582031 C 146.417969 84.390625 146.296875 84.203125 146.105469 84.160156 Z M 230.441406 164.453125 L 226.78125 169.582031 C 226.667969 169.738281 226.703125 169.964844 226.867188 170.078125 C 226.933594 170.121094 227.003906 170.144531 227.074219 170.144531 C 227.1875 170.144531 227.296875 170.09375 227.367188 169.992188 L 231.023438 164.867188 C 231.140625 164.710938 231.105469 164.480469 230.941406 164.367188 C 230.777344 164.261719 230.554688 164.296875 230.441406 164.453125 Z M 227.410156 162.5625 L 224.558594 168.253906 C 224.472656 168.433594 224.542969 168.644531 224.714844 168.730469 C 224.765625 168.761719 224.820312 168.765625 224.871094 168.765625 C 225 168.765625 225.128906 168.695312 225.191406 168.566406 L 228.042969 162.878906 C 228.128906 162.699219 228.058594 162.484375 227.886719 162.398438 C 227.710938 162.3125 227.496094 162.386719 227.410156 162.5625 Z M 237.050781 163.304688 L 233.769531 162.378906 C 233.585938 162.320312 233.386719 162.433594 233.328125 162.628906 C 233.269531 162.820312 233.386719 163.011719 233.578125 163.070312 L 236.859375 163.996094 C 236.886719 164.003906 236.921875 164.011719 236.957031 164.011719 C 237.113281 164.011719 237.257812 163.910156 237.300781 163.753906 C 237.355469 163.554688 237.242188 163.355469 237.050781 163.304688 Z M 139.367188 69.050781 C 139.410156 69.066406 139.453125 69.070312 139.488281 69.070312 C 139.628906 69.070312 139.765625 68.980469 139.824219 68.835938 L 142.054688 62.804688 C 142.125 62.617188 142.027344 62.410156 141.839844 62.347656 C 141.65625 62.277344 141.449219 62.375 141.382812 62.5625 L 139.152344 68.59375 C 139.082031 68.78125 139.179688 68.980469 139.367188 69.050781 Z M 135.65625 69.050781 C 135.699219 69.066406 135.742188 69.070312 135.785156 69.070312 C 135.929688 69.070312 136.066406 68.988281 136.121094 68.84375 L 138.546875 62.441406 C 138.617188 62.253906 138.523438 62.046875 138.339844 61.984375 C 138.152344 61.914062 137.945312 62.003906 137.882812 62.191406 L 135.457031 68.59375 C 135.378906 68.773438 135.472656 68.980469 135.65625 69.050781 Z M 143.480469 70.035156 C 143.503906 70.042969 143.523438 70.042969 143.542969 70.042969 C 143.714844 70.042969 143.867188 69.921875 143.894531 69.75 L 144.949219 64.164062 C 144.984375 63.972656 144.855469 63.789062 144.664062 63.753906 C 144.472656 63.714844 144.285156 63.84375 144.25 64.039062 L 143.195312 69.621094 C 143.160156 69.8125 143.289062 70 143.480469 70.035156 Z M 143.84375 72.375 C 143.695312 72.5 143.679688 72.730469 143.808594 72.878906 L 145.035156 74.285156 C 145.105469 74.363281 145.207031 74.40625 145.304688 74.40625 C 145.390625 74.40625 145.46875 74.378906 145.542969 74.320312 C 145.691406 74.191406 145.707031 73.964844 145.578125 73.8125 L 144.351562 72.410156 C 144.214844 72.257812 143.992188 72.246094 143.84375 72.375 Z M 192.511719 127.472656 C 192.511719 128.640625 191.554688 129.597656 190.386719 129.597656 C 189.21875 129.597656 188.261719 128.640625 188.261719 127.472656 C 188.261719 126.304688 189.21875 125.347656 190.386719 125.347656 C 191.554688 125.347656 192.511719 126.304688 192.511719 127.472656 Z M 191.796875 127.472656 C 191.796875 126.695312 191.164062 126.0625 190.386719 126.0625 C 189.609375 126.0625 188.976562 126.695312 188.976562 127.472656 C 188.976562 128.25 189.609375 128.886719 190.386719 128.886719 C 191.164062 128.886719 191.796875 128.25 191.796875 127.472656 Z M 192.453125 137.371094 C 192.453125 138.539062 191.5 139.496094 190.328125 139.496094 C 189.160156 139.496094 188.203125 138.539062 188.203125 137.371094 C 188.203125 136.199219 189.160156 135.246094 190.328125 135.246094 C 191.507812 135.246094 192.453125 136.199219 192.453125 137.371094 Z M 191.742188 137.371094 C 191.742188 136.59375 191.105469 135.957031 190.328125 135.957031 C 189.550781 135.957031 188.917969 136.59375 188.917969 137.371094 C 188.917969 138.148438 189.550781 138.78125 190.328125 138.78125 C 191.105469 138.78125 191.742188 138.148438 191.742188 137.371094 Z M 192.347656 147.269531 C 192.347656 148.4375 191.390625 149.394531 190.222656 149.394531 C 189.054688 149.394531 188.097656 148.4375 188.097656 147.269531 C 188.097656 146.097656 189.054688 145.144531 190.222656 145.144531 C 191.390625 145.144531 192.347656 146.089844 192.347656 147.269531 Z M 191.636719 147.269531 C 191.636719 146.492188 191 145.855469 190.222656 145.855469 C 189.445312 145.855469 188.8125 146.492188 188.8125 147.269531 C 188.8125 148.046875 189.445312 148.679688 190.222656 148.679688 C 191 148.679688 191.636719 148.046875 191.636719 147.269531 Z M 188.046875 157.160156 C 188.046875 155.988281 189.003906 155.035156 190.171875 155.035156 C 191.34375 155.035156 192.296875 155.988281 192.296875 157.160156 C 192.296875 158.328125 191.34375 159.285156 190.171875 159.285156 C 188.996094 159.285156 188.046875 158.328125 188.046875 157.160156 Z M 188.761719 157.160156 C 188.761719 157.9375 189.394531 158.570312 190.171875 158.570312 C 190.949219 158.570312 191.585938 157.9375 191.585938 157.160156 C 191.585938 156.382812 190.949219 155.746094 190.171875 155.746094 C 189.394531 155.746094 188.761719 156.382812 188.761719 157.160156 Z M 192.320312 167.054688 C 192.320312 168.226562 191.363281 169.179688 190.195312 169.179688 C 189.023438 169.179688 188.070312 168.226562 188.070312 167.054688 C 188.070312 165.886719 189.023438 164.929688 190.195312 164.929688 C 191.363281 164.929688 192.320312 165.886719 192.320312 167.054688 Z M 191.605469 167.054688 C 191.605469 166.277344 190.972656 165.644531 190.195312 165.644531 C 189.417969 165.644531 188.78125 166.277344 188.78125 167.054688 C 188.78125 167.832031 189.417969 168.46875 190.195312 168.46875 C 190.972656 168.46875 191.605469 167.832031 191.605469 167.054688 Z M 192.289062 177.019531 C 192.289062 178.1875 191.335938 179.144531 190.164062 179.144531 C 188.996094 179.144531 188.039062 178.1875 188.039062 177.019531 C 188.039062 175.847656 188.996094 174.894531 190.164062 174.894531 C 191.34375 174.898438 192.289062 175.847656 192.289062 177.019531 Z M 191.578125 177.019531 C 191.578125 176.242188 190.941406 175.605469 190.164062 175.605469 C 189.386719 175.605469 188.753906 176.242188 188.753906 177.019531 C 188.753906 177.796875 189.386719 178.429688 190.164062 178.429688 C 190.941406 178.429688 191.578125 177.796875 191.578125 177.019531 Z M 170.785156 87.261719 C 170.734375 87.070312 170.542969 86.957031 170.355469 87 C 170.164062 87.046875 170.050781 87.242188 170.09375 87.425781 C 173.230469 100.320312 185.238281 118.054688 186.222656 119.492188 L 186.222656 176.078125 C 172.195312 176.375 156.714844 173.230469 156.558594 173.203125 C 156.367188 173.160156 156.171875 173.289062 156.136719 173.480469 C 156.09375 173.671875 156.222656 173.859375 156.414062 173.902344 C 156.566406 173.929688 170.753906 176.8125 184.3125 176.8125 C 184.953125 176.8125 185.585938 176.804688 186.222656 176.789062 L 186.222656 187.621094 C 186.222656 187.820312 186.378906 187.976562 186.578125 187.976562 C 186.777344 187.976562 186.9375 187.820312 186.9375 187.621094 L 186.9375 119.378906 C 186.9375 119.308594 186.914062 119.238281 186.871094 119.179688 C 186.742188 119 174.007812 100.511719 170.785156 87.261719 Z M 221.875 174.386719 C 222.070312 174.34375 222.191406 174.160156 222.15625 173.964844 C 222.113281 173.773438 221.925781 173.652344 221.734375 173.6875 C 221.605469 173.714844 208.511719 176.410156 194.464844 176.078125 L 194.464844 119.492188 C 195.5 117.980469 208.734375 98.464844 212.65625 84.152344 C 212.707031 83.960938 212.597656 83.769531 212.40625 83.71875 C 212.222656 83.667969 212.023438 83.777344 211.972656 83.96875 C 207.9375 98.664062 193.960938 118.972656 193.816406 119.179688 C 193.773438 119.238281 193.753906 119.308594 193.753906 119.378906 L 193.753906 187.621094 C 193.753906 187.820312 193.910156 187.976562 194.109375 187.976562 C 194.308594 187.976562 194.464844 187.820312 194.464844 187.621094 L 194.464844 176.78125 C 195.277344 176.804688 196.089844 176.8125 196.898438 176.8125 C 210.0625 176.824219 221.75 174.414062 221.875 174.386719 Z M 213.617188 192.226562 C 213.425781 192.25 213.285156 192.425781 213.304688 192.628906 L 218.03125 232.132812 C 218.054688 232.308594 218.210938 232.445312 218.390625 232.445312 C 218.402344 232.445312 218.417969 232.445312 218.433594 232.445312 C 218.625 232.425781 218.765625 232.246094 218.746094 232.046875 L 214.019531 192.542969 C 213.988281 192.339844 213.8125 192.199219 213.617188 192.226562 Z M 201.851562 194.773438 C 201.652344 194.78125 201.503906 194.953125 201.519531 195.152344 L 203.613281 234.292969 C 203.621094 234.484375 203.777344 234.628906 203.972656 234.628906 C 203.976562 234.628906 203.984375 234.628906 203.992188 234.628906 C 204.191406 234.621094 204.34375 234.449219 204.328125 234.25 L 202.230469 195.109375 C 202.21875 194.910156 202.058594 194.757812 201.851562 194.773438 Z M 189.375 194.773438 C 189.175781 194.773438 189.019531 194.929688 189.011719 195.121094 L 188.46875 235.417969 C 188.46875 235.617188 188.625 235.773438 188.816406 235.78125 C 188.816406 235.78125 188.816406 235.78125 188.824219 235.78125 C 189.019531 235.78125 189.183594 235.625 189.183594 235.433594 L 189.722656 195.136719 C 189.730469 194.9375 189.574219 194.773438 189.375 194.773438 Z M 176.167969 194.773438 C 175.960938 194.753906 175.804688 194.910156 175.789062 195.109375 L 173.359375 234.25 C 173.34375 234.449219 173.492188 234.613281 173.695312 234.628906 C 173.699219 234.628906 173.707031 234.628906 173.714844 234.628906 C 173.902344 234.628906 174.058594 234.484375 174.070312 234.292969 L 176.503906 195.152344 C 176.511719 194.953125 176.359375 194.789062 176.167969 194.773438 Z M 159.367188 232.445312 C 159.546875 232.445312 159.695312 232.316406 159.722656 232.132812 L 164.722656 192.621094 C 164.746094 192.425781 164.609375 192.25 164.417969 192.21875 C 164.222656 192.199219 164.046875 192.335938 164.015625 192.527344 L 159.019531 232.039062 C 158.996094 232.230469 159.132812 232.410156 159.324219 232.4375 C 159.339844 232.445312 159.355469 232.445312 159.367188 232.445312 Z M 144.757812 53.285156 C 144.8125 53.320312 144.886719 53.339844 144.949219 53.339844 C 145.070312 53.339844 145.183594 53.285156 145.25 53.175781 C 146.019531 51.964844 148.871094 51.636719 149.90625 51.617188 C 150.105469 51.609375 150.253906 51.445312 150.253906 51.253906 C 150.246094 51.050781 150.070312 50.902344 149.890625 50.902344 C 149.726562 50.910156 145.789062 51.015625 144.648438 52.800781 C 144.542969 52.957031 144.59375 53.175781 144.757812 53.285156 Z M 227.789062 277.875 C 227.6875 277.902344 217.433594 281.089844 206.84375 280.042969 C 206.660156 280.027344 206.472656 280.164062 206.453125 280.363281 C 206.429688 280.558594 206.574219 280.734375 206.773438 280.757812 C 208.292969 280.90625 209.796875 280.96875 211.265625 280.96875 C 220.238281 280.96875 227.910156 278.589844 227.996094 278.558594 C 228.179688 278.503906 228.285156 278.304688 228.230469 278.109375 C 228.171875 277.917969 227.972656 277.820312 227.789062 277.875 Z M 173.507812 280.671875 C 173.367188 280.679688 158.933594 281.511719 152.59375 278.523438 C 152.414062 278.4375 152.203125 278.515625 152.117188 278.695312 C 152.03125 278.875 152.109375 279.085938 152.289062 279.171875 C 156.472656 281.148438 163.824219 281.511719 168.695312 281.511719 C 171.390625 281.511719 173.328125 281.398438 173.542969 281.382812 C 173.742188 281.371094 173.894531 281.207031 173.878906 281.007812 C 173.878906 280.8125 173.707031 280.65625 173.507812 280.671875 Z M 173.507812 280.671875 " fill-opacity="1" fill-rule="nonzero"/><path fill="#ffe4e1" d="M 182.6875 62.3125 L 198.585938 62.3125 C 198.585938 62.3125 197.496094 68.082031 190.636719 68.082031 C 183.777344 68.082031 182.6875 62.3125 182.6875 62.3125 Z M 182.6875 62.3125 " fill-opacity="1" fill-rule="nonzero"/><path fill="#000000" d="M 190.628906 68.4375 C 183.554688 68.4375 182.34375 62.441406 182.328125 62.382812 C 182.308594 62.277344 182.335938 62.167969 182.40625 62.089844 C 182.480469 62.011719 182.578125 61.960938 182.6875 61.960938 L 198.585938 61.960938 C 198.695312 61.960938 198.792969 62.011719 198.859375 62.089844 C 198.929688 62.167969 198.949219 62.285156 198.9375 62.382812 C 198.921875 62.441406 197.703125 68.4375 190.628906 68.4375 Z M 183.140625 62.667969 C 183.542969 63.960938 185.160156 67.71875 190.628906 67.71875 C 196.097656 67.71875 197.722656 63.960938 198.117188 62.667969 Z M 183.140625 62.667969 " fill-opacity="1" fill-rule="nonzero"/></svg>