<svg xmlns="http://www.w3.org/2000/svg" xmlns:xlink="http://www.w3.org/1999/xlink" width="500" zoomAndPan="magnify" viewBox="0 0 375 374.999991" height="500" preserveAspectRatio="xMidYMid meet" version="1.0"><path fill="#ebe186" d="M 160.109375 117.625 C 160.109375 117.625 161.304688 118.222656 163.164062 118.355469 C 166.21875 118.621094 170.867188 117.824219 174.121094 111.320312 C 179.367188 100.894531 189.523438 91.269531 201.609375 95.382812 C 213.691406 99.5 208.179688 127.785156 220 129.710938 C 231.816406 131.636719 238.390625 129.710938 244.167969 106.671875 C 249.945312 83.632812 274.90625 84.695312 288.386719 94.453125 C 301.863281 104.214844 295.558594 128.382812 283.738281 136.617188 C 271.921875 144.847656 266.078125 173.199219 287.523438 167.953125 C 311.160156 162.179688 320.386719 174.460938 309.699219 197.832031 C 292.4375 235.742188 322.84375 214.5625 323.972656 233.550781 C 324.769531 247.296875 302.128906 248.957031 297.347656 254.398438 C 289.316406 263.496094 297.214844 274.851562 299.9375 276.910156 C 304.320312 280.226562 314.746094 288.460938 325.765625 290.917969 C 336.722656 293.375 339.777344 317.277344 327.957031 325.242188 C 316.140625 333.210938 299.40625 337.0625 291.175781 310.703125 C 282.941406 284.34375 258.773438 289.257812 250.804688 301.671875 C 242.839844 314.023438 227.765625 339.585938 213.757812 337.660156 C 199.75 335.734375 192.644531 331.351562 182.152344 317.875 C 171.664062 304.394531 147.894531 330.289062 133.820312 326.105469 C 122.265625 322.65625 119.542969 318.40625 119.808594 300.808594 C 120.074219 283.214844 94.644531 303.332031 85.949219 290.320312 C 78.710938 279.5625 93.449219 268.210938 90.992188 262.632812 C 85.484375 250.351562 66.03125 259.378906 49.230469 264.425781 C 15.503906 274.585938 16.433594 227.445312 45.910156 231.429688 C 68.285156 234.414062 92.1875 237.070312 83.625 218.148438 C 73.664062 196.238281 79.773438 187.671875 86.347656 178.910156 C 92.917969 170.144531 84.15625 158.328125 74.261719 146.507812 C 64.371094 134.691406 72.335938 122.871094 85.550781 125.660156 C 98.761719 128.449219 113.632812 147.238281 128.175781 134.027344 C 128.042969 133.960938 133.753906 106.539062 160.109375 117.625 Z M 160.109375 117.625 " fill-opacity="1" fill-rule="nonzero"/><path fill="#ebe186" d="M 230.554688 78.1875 C 230.554688 78.824219 230.492188 79.457031 230.371094 80.078125 C 230.246094 80.703125 230.0625 81.308594 229.816406 81.898438 C 229.574219 82.484375 229.277344 83.042969 228.921875 83.574219 C 228.570312 84.101562 228.167969 84.59375 227.71875 85.042969 C 227.265625 85.492188 226.777344 85.894531 226.246094 86.25 C 225.71875 86.601562 225.160156 86.902344 224.570312 87.144531 C 223.984375 87.386719 223.378906 87.570312 222.753906 87.695312 C 222.128906 87.820312 221.5 87.882812 220.863281 87.882812 C 220.226562 87.882812 219.59375 87.820312 218.972656 87.695312 C 218.347656 87.570312 217.742188 87.386719 217.152344 87.144531 C 216.566406 86.902344 216.007812 86.601562 215.476562 86.25 C 214.949219 85.894531 214.457031 85.492188 214.007812 85.042969 C 213.558594 84.59375 213.15625 84.101562 212.800781 83.574219 C 212.449219 83.042969 212.148438 82.484375 211.90625 81.898438 C 211.664062 81.308594 211.480469 80.703125 211.355469 80.078125 C 211.230469 79.457031 211.167969 78.824219 211.167969 78.1875 C 211.167969 77.550781 211.230469 76.921875 211.355469 76.296875 C 211.480469 75.671875 211.664062 75.066406 211.90625 74.480469 C 212.148438 73.890625 212.449219 73.332031 212.800781 72.800781 C 213.15625 72.273438 213.558594 71.785156 214.007812 71.332031 C 214.457031 70.882812 214.949219 70.480469 215.476562 70.128906 C 216.007812 69.773438 216.566406 69.476562 217.152344 69.234375 C 217.742188 68.988281 218.347656 68.804688 218.972656 68.679688 C 219.59375 68.554688 220.226562 68.496094 220.863281 68.496094 C 221.5 68.496094 222.128906 68.554688 222.753906 68.679688 C 223.378906 68.804688 223.984375 68.988281 224.570312 69.234375 C 225.160156 69.476562 225.71875 69.773438 226.246094 70.128906 C 226.777344 70.480469 227.265625 70.882812 227.71875 71.332031 C 228.167969 71.785156 228.570312 72.273438 228.921875 72.800781 C 229.277344 73.332031 229.574219 73.890625 229.816406 74.480469 C 230.0625 75.066406 230.246094 75.671875 230.371094 76.296875 C 230.492188 76.921875 230.554688 77.550781 230.554688 78.1875 Z M 230.554688 78.1875 " fill-opacity="1" fill-rule="nonzero"/><path fill="#ebe186" d="M 175.582031 331.550781 C 175.582031 331.953125 175.542969 332.347656 175.464844 332.742188 C 175.386719 333.136719 175.269531 333.519531 175.117188 333.890625 C 174.960938 334.257812 174.773438 334.613281 174.550781 334.945312 C 174.328125 335.277344 174.074219 335.585938 173.792969 335.871094 C 173.507812 336.152344 173.199219 336.40625 172.867188 336.628906 C 172.53125 336.851562 172.179688 337.042969 171.808594 337.195312 C 171.441406 337.347656 171.058594 337.464844 170.664062 337.542969 C 170.269531 337.621094 169.875 337.660156 169.472656 337.660156 C 169.070312 337.660156 168.675781 337.621094 168.28125 337.542969 C 167.886719 337.464844 167.503906 337.347656 167.136719 337.195312 C 166.765625 337.042969 166.414062 336.851562 166.078125 336.628906 C 165.746094 336.40625 165.4375 336.152344 165.152344 335.871094 C 164.871094 335.585938 164.617188 335.277344 164.394531 334.945312 C 164.171875 334.613281 163.984375 334.257812 163.828125 333.890625 C 163.675781 333.519531 163.558594 333.136719 163.480469 332.742188 C 163.402344 332.347656 163.363281 331.953125 163.363281 331.550781 C 163.363281 331.148438 163.402344 330.753906 163.480469 330.359375 C 163.558594 329.964844 163.675781 329.585938 163.828125 329.214844 C 163.984375 328.84375 164.171875 328.492188 164.394531 328.15625 C 164.617188 327.824219 164.871094 327.515625 165.152344 327.230469 C 165.4375 326.949219 165.746094 326.695312 166.078125 326.472656 C 166.414062 326.25 166.765625 326.0625 167.136719 325.90625 C 167.503906 325.753906 167.886719 325.636719 168.28125 325.558594 C 168.675781 325.480469 169.070312 325.441406 169.472656 325.441406 C 169.875 325.441406 170.269531 325.480469 170.664062 325.558594 C 171.058594 325.636719 171.441406 325.753906 171.808594 325.90625 C 172.179688 326.0625 172.53125 326.25 172.867188 326.472656 C 173.199219 326.695312 173.507812 326.949219 173.792969 327.230469 C 174.074219 327.515625 174.328125 327.824219 174.550781 328.15625 C 174.773438 328.492188 174.960938 328.84375 175.117188 329.214844 C 175.269531 329.585938 175.386719 329.964844 175.464844 330.359375 C 175.542969 330.753906 175.582031 331.148438 175.582031 331.550781 Z M 175.582031 331.550781 " fill-opacity="1" fill-rule="nonzero"/><path fill="#ebe186" d="M 282.957031 331.863281 C 283.117188 332.285156 283.25 332.710938 283.351562 333.140625 C 283.453125 333.574219 283.523438 334.003906 283.5625 334.433594 C 283.605469 334.863281 283.613281 335.28125 283.585938 335.691406 C 283.5625 336.101562 283.507812 336.492188 283.417969 336.867188 C 283.332031 337.242188 283.214844 337.589844 283.066406 337.914062 C 282.917969 338.238281 282.746094 338.53125 282.542969 338.792969 C 282.34375 339.054688 282.117188 339.277344 281.871094 339.46875 C 281.621094 339.65625 281.355469 339.804688 281.070312 339.914062 C 280.785156 340.023438 280.488281 340.09375 280.175781 340.117188 C 279.867188 340.144531 279.546875 340.125 279.222656 340.066406 C 278.898438 340.007812 278.574219 339.90625 278.246094 339.765625 C 277.917969 339.625 277.597656 339.441406 277.285156 339.222656 C 276.96875 339.003906 276.664062 338.75 276.371094 338.464844 C 276.082031 338.175781 275.804688 337.859375 275.546875 337.515625 C 275.289062 337.167969 275.054688 336.800781 274.839844 336.410156 C 274.628906 336.023438 274.441406 335.617188 274.277344 335.199219 C 274.117188 334.777344 273.988281 334.351562 273.882812 333.921875 C 273.78125 333.488281 273.710938 333.058594 273.671875 332.628906 C 273.632812 332.199219 273.625 331.78125 273.648438 331.371094 C 273.671875 330.960938 273.726562 330.570312 273.816406 330.195312 C 273.902344 329.820312 274.019531 329.472656 274.167969 329.148438 C 274.316406 328.824219 274.488281 328.53125 274.691406 328.269531 C 274.894531 328.007812 275.117188 327.785156 275.367188 327.59375 C 275.613281 327.40625 275.878906 327.257812 276.164062 327.148438 C 276.449219 327.039062 276.75 326.96875 277.058594 326.945312 C 277.371094 326.917969 277.6875 326.9375 278.011719 326.996094 C 278.335938 327.054688 278.664062 327.15625 278.988281 327.296875 C 279.316406 327.4375 279.636719 327.621094 279.953125 327.839844 C 280.265625 328.058594 280.570312 328.3125 280.863281 328.597656 C 281.15625 328.886719 281.429688 329.203125 281.6875 329.546875 C 281.945312 329.894531 282.179688 330.261719 282.394531 330.652344 C 282.609375 331.042969 282.796875 331.445312 282.957031 331.863281 Z M 282.957031 331.863281 " fill-opacity="1" fill-rule="nonzero"/><path fill="#ebe186" d="M 351.925781 197.789062 C 352.421875 198.332031 352.878906 198.902344 353.296875 199.5 C 353.714844 200.097656 354.082031 200.714844 354.398438 201.347656 C 354.714844 201.980469 354.980469 202.617188 355.1875 203.257812 C 355.394531 203.898438 355.542969 204.53125 355.632812 205.15625 C 355.722656 205.78125 355.75 206.386719 355.71875 206.972656 C 355.683594 207.558594 355.589844 208.113281 355.4375 208.636719 C 355.285156 209.164062 355.074219 209.644531 354.804688 210.085938 C 354.539062 210.527344 354.21875 210.917969 353.847656 211.261719 C 353.472656 211.605469 353.054688 211.890625 352.59375 212.121094 C 352.132812 212.347656 351.632812 212.519531 351.097656 212.628906 C 350.5625 212.734375 350.003906 212.78125 349.414062 212.765625 C 348.828125 212.746094 348.226562 212.667969 347.613281 212.527344 C 346.996094 212.386719 346.378906 212.183594 345.757812 211.921875 C 345.136719 211.660156 344.523438 211.347656 343.917969 210.976562 C 343.316406 210.605469 342.734375 210.1875 342.171875 209.722656 C 341.609375 209.257812 341.082031 208.753906 340.582031 208.210938 C 340.085938 207.667969 339.625 207.097656 339.210938 206.5 C 338.792969 205.898438 338.425781 205.285156 338.109375 204.652344 C 337.789062 204.019531 337.527344 203.382812 337.320312 202.742188 C 337.113281 202.101562 336.964844 201.46875 336.875 200.84375 C 336.785156 200.214844 336.757812 199.609375 336.789062 199.023438 C 336.824219 198.4375 336.914062 197.882812 337.070312 197.359375 C 337.222656 196.835938 337.433594 196.355469 337.699219 195.914062 C 337.96875 195.472656 338.289062 195.078125 338.660156 194.738281 C 339.035156 194.394531 339.453125 194.109375 339.914062 193.878906 C 340.375 193.648438 340.875 193.480469 341.410156 193.371094 C 341.945312 193.261719 342.503906 193.21875 343.089844 193.234375 C 343.679688 193.25 344.28125 193.332031 344.894531 193.472656 C 345.511719 193.613281 346.128906 193.816406 346.75 194.078125 C 347.371094 194.335938 347.984375 194.652344 348.585938 195.023438 C 349.191406 195.394531 349.773438 195.8125 350.335938 196.277344 C 350.894531 196.742188 351.425781 197.246094 351.925781 197.789062 Z M 351.925781 197.789062 " fill-opacity="1" fill-rule="nonzero"/><path fill="#ebe186" d="M 96.304688 332.8125 C 93.117188 337.328125 87.675781 338.988281 84.222656 336.53125 C 80.769531 334.074219 80.503906 328.429688 83.757812 323.847656 C 86.945312 319.335938 96.238281 313.625 99.691406 316.082031 C 103.144531 318.605469 99.558594 328.296875 96.304688 332.8125 Z M 96.304688 332.8125 " fill-opacity="1" fill-rule="nonzero"/><path fill="#ebe186" d="M 33.628906 177.316406 C 27.054688 173.996094 24 166.691406 26.855469 160.984375 C 29.710938 155.273438 37.414062 153.347656 43.984375 156.667969 C 50.558594 159.988281 59.65625 171.671875 56.800781 177.382812 C 53.945312 183.09375 40.203125 180.636719 33.628906 177.316406 Z M 33.628906 177.316406 " fill-opacity="1" fill-rule="nonzero"/><path fill="#ebe186" d="M 154.667969 61.855469 C 156.59375 66.835938 156.128906 77.523438 151.148438 79.449219 C 146.167969 81.375 138.597656 73.804688 136.671875 68.828125 C 134.75 63.847656 137.203125 58.269531 142.183594 56.34375 C 147.164062 54.417969 152.742188 56.875 154.667969 61.855469 Z M 154.667969 61.855469 " fill-opacity="1" fill-rule="nonzero"/><path fill="#ffd700" d="M 187.351562 315.546875 C 187.351562 315.546875 195.738281 328.65625 189.65625 334.328125 C 184.992188 338.683594 181.863281 340.890625 176.066406 346.566406 C 170.265625 352.238281 150.976562 356.652344 142.527344 349.460938 C 134.082031 342.277344 168.355469 315.863281 168.355469 315.863281 Z M 220.972656 311.777344 C 220.972656 311.777344 212.589844 324.886719 218.667969 330.558594 C 223.335938 334.914062 226.460938 337.121094 232.261719 342.796875 C 238.0625 348.46875 257.347656 352.882812 265.800781 345.691406 C 274.242188 338.507812 239.972656 312.09375 239.972656 312.09375 Z M 220.972656 311.777344 " fill-opacity="1" fill-rule="nonzero"/><path fill="#000000" d="M 169.585938 328.804688 C 169.355469 328.804688 169.125 328.691406 168.976562 328.492188 C 165.578125 323.699219 159.265625 324.300781 159.199219 324.308594 C 158.792969 324.351562 158.429688 324.054688 158.386719 323.648438 C 158.339844 323.242188 158.636719 322.878906 159.042969 322.832031 C 159.339844 322.804688 166.289062 322.144531 170.183594 327.640625 C 170.421875 327.972656 170.339844 328.433594 170.007812 328.671875 C 169.878906 328.757812 169.734375 328.804688 169.585938 328.804688 Z M 164.777344 333.1875 C 165.109375 332.953125 165.191406 332.492188 164.953125 332.160156 C 161.058594 326.671875 154.113281 327.324219 153.816406 327.351562 C 153.40625 327.398438 153.113281 327.757812 153.15625 328.167969 C 153.199219 328.574219 153.554688 328.855469 153.96875 328.824219 C 154.039062 328.820312 160.347656 328.21875 163.746094 333.011719 C 163.894531 333.21875 164.117188 333.320312 164.355469 333.320312 C 164.503906 333.328125 164.652344 333.285156 164.777344 333.1875 Z M 160.164062 337.980469 C 160.496094 337.742188 160.578125 337.285156 160.339844 336.953125 C 156.445312 331.464844 149.496094 332.113281 149.199219 332.144531 C 148.792969 332.1875 148.496094 332.550781 148.542969 332.960938 C 148.585938 333.367188 148.941406 333.671875 149.355469 333.617188 C 149.421875 333.617188 155.734375 333.011719 159.132812 337.804688 C 159.28125 338.011719 159.503906 338.113281 159.742188 338.113281 C 159.890625 338.113281 160.035156 338.070312 160.164062 337.980469 Z M 239.355469 324.714844 C 242.742188 319.945312 249.074219 320.523438 249.132812 320.53125 C 249.535156 320.558594 249.90625 320.277344 249.949219 319.871094 C 249.992188 319.464844 249.695312 319.101562 249.289062 319.054688 C 248.992188 319.027344 242.046875 318.367188 238.148438 323.863281 C 237.914062 324.195312 237.996094 324.65625 238.328125 324.894531 C 238.453125 324.988281 238.609375 325.027344 238.757812 325.027344 C 238.988281 325.027344 239.207031 324.921875 239.355469 324.714844 Z M 244.585938 329.242188 C 247.972656 324.464844 254.304688 325.046875 254.363281 325.054688 C 254.761719 325.085938 255.132812 324.804688 255.179688 324.398438 C 255.222656 323.988281 254.925781 323.625 254.519531 323.582031 C 254.222656 323.550781 247.273438 322.894531 243.378906 328.382812 C 243.140625 328.714844 243.222656 329.175781 243.558594 329.410156 C 243.683594 329.507812 243.839844 329.542969 243.988281 329.542969 C 244.214844 329.550781 244.4375 329.449219 244.585938 329.242188 Z M 249.199219 334.03125 C 252.585938 329.253906 258.917969 329.839844 258.976562 329.847656 C 259.378906 329.886719 259.75 329.597656 259.792969 329.1875 C 259.835938 328.78125 259.539062 328.417969 259.132812 328.375 C 258.835938 328.34375 251.890625 327.683594 247.992188 333.179688 C 247.757812 333.515625 247.839844 333.972656 248.171875 334.210938 C 248.304688 334.308594 248.453125 334.34375 248.601562 334.34375 C 248.832031 334.34375 249.050781 334.242188 249.199219 334.03125 Z M 217.988281 187.132812 C 218.949219 190.953125 237.261719 264.222656 239.566406 310.5 C 239.617188 311.515625 239.128906 312.480469 238.277344 313.035156 C 235.644531 314.761719 229.359375 317.828125 220.914062 315.070312 C 220.011719 314.773438 219.320312 314.050781 219.054688 313.136719 C 216.171875 303.28125 198.746094 244.269531 187.554688 220.300781 C 187.292969 219.746094 186.457031 219.929688 186.464844 220.546875 C 186.640625 233.964844 187.507812 295.925781 188.574219 314.265625 C 188.648438 315.472656 187.960938 316.589844 186.851562 317.070312 C 183.300781 318.605469 175.226562 321.167969 167.679688 316.894531 C 166.941406 316.480469 166.429688 315.753906 166.273438 314.917969 C 163.992188 302.84375 146.03125 207.144531 147.03125 190.671875 C 148.097656 173.132812 210.8125 167.097656 217.890625 186.8125 C 217.9375 186.925781 217.964844 187.027344 217.988281 187.132812 Z M 217.988281 187.132812 " fill-opacity="1" fill-rule="nonzero"/><path fill="#f7b49a" d="M 156.761719 154.054688 C 156.761719 154.054688 163.613281 196.917969 149.710938 189.734375 C 135.808594 182.546875 138.023438 180.273438 139.535156 179.015625 C 141.046875 177.753906 144.578125 180.890625 144.578125 180.890625 C 141.808594 172.675781 142.691406 162.207031 142.691406 162.207031 Z M 156.761719 154.054688 " fill-opacity="1" fill-rule="nonzero"/><path fill="#ffa07a" d="M 249.15625 122.789062 C 248.777344 104.257812 232.136719 108.984375 232.136719 108.984375 C 217.003906 70.402344 179.28125 75.75 179.28125 75.75 C 150.816406 77.117188 133.039062 97.636719 133.039062 97.636719 C 133.039062 97.636719 100.699219 132.242188 105.046875 144.816406 C 109.394531 157.394531 137.195312 161.558594 137.195312 161.558594 L 140.148438 165.695312 C 141.214844 167.1875 143.253906 167.585938 144.800781 166.601562 C 145.578125 166.105469 146.378906 165.550781 147.179688 164.972656 C 147.125 165.550781 147.074219 166.121094 147.03125 166.667969 C 146.082031 178.015625 148.164062 180.660156 148.164062 180.660156 L 147.03125 190.679688 C 181.636719 205.242188 217.757812 187.652344 217.945312 186.976562 C 218.136719 186.304688 214.21875 176.3125 214.21875 176.3125 C 218.617188 173.097656 216.8125 153.429688 216.8125 153.429688 C 241.585938 168.363281 249.535156 141.320312 249.15625 122.789062 Z M 137.203125 133.1875 L 147.71875 129.277344 L 150.824219 135.964844 C 150.824219 135.964844 150.339844 139.234375 149.710938 143.871094 C 143.84375 136.65625 137.203125 133.1875 137.203125 133.1875 Z M 137.203125 133.1875 " fill-opacity="1" fill-rule="nonzero"/><path fill="#ffd700" d="M 194.523438 86.480469 C 194.398438 91.941406 190.441406 102.390625 186.953125 110.597656 C 184.160156 117.160156 181.671875 122.285156 181.671875 122.285156 C 180.472656 121.160156 177.679688 117.042969 174.605469 112.191406 C 169.265625 103.769531 163.058594 93.132812 162.800781 92.085938 C 162.777344 91.96875 162.769531 91.859375 162.777344 91.738281 C 164.371094 72.105469 195.003906 66.238281 194.523438 86.480469 Z M 194.523438 86.480469 " fill-opacity="1" fill-rule="nonzero"/><path fill="#ff7f50" d="M 186.953125 110.597656 C 184.160156 117.160156 181.671875 122.285156 181.671875 122.285156 C 180.472656 121.160156 177.679688 117.042969 174.605469 112.191406 L 176.910156 99.878906 C 176.945312 99.648438 176.917969 99.421875 176.8125 99.214844 L 173.015625 91.804688 C 172.804688 91.398438 172.894531 90.886719 173.234375 90.578125 L 178.523438 85.628906 C 178.886719 85.296875 179.429688 85.257812 179.828125 85.53125 L 186.066406 89.84375 C 186.457031 90.117188 186.613281 90.621094 186.441406 91.074219 L 183.546875 98.644531 C 183.457031 98.859375 183.449219 99.09375 183.515625 99.316406 C 183.953125 100.753906 185.695312 106.449219 186.953125 110.597656 Z M 186.953125 110.597656 " fill-opacity="1" fill-rule="nonzero"/><path fill="#ffd700" d="M 177.792969 72.511719 C 195.546875 65.910156 196.269531 86 195.996094 93.035156 C 195.953125 94.242188 194.773438 95.09375 193.582031 94.777344 L 179.960938 91.160156 C 179.53125 91.027344 179.066406 91.050781 178.644531 91.214844 L 165.363281 96.382812 C 164.15625 96.851562 162.808594 96.085938 162.652344 94.828125 C 159.808594 71.964844 174.214844 72.355469 176.902344 72.621094 C 177.214844 72.667969 177.507812 72.613281 177.792969 72.511719 Z M 177.792969 72.511719 " fill-opacity="1" fill-rule="nonzero"/><path fill="#f7b49a" d="M 187.703125 67.1875 C 187.65625 67.222656 187.621094 67.253906 187.574219 67.28125 C 187.746094 67.628906 187.894531 68.007812 187.996094 68.394531 L 189.648438 74.496094 C 190.242188 76.675781 189.574219 79 187.921875 80.539062 L 179.835938 88.082031 L 170.828125 82.859375 C 168.769531 81.667969 167.59375 79.378906 167.820312 77.007812 L 168.480469 70.171875 C 168.503906 69.957031 168.539062 69.742188 168.585938 69.527344 C 168.5625 69.519531 168.539062 69.511719 168.511719 69.496094 C 168.222656 69.378906 167.941406 69.261719 167.660156 69.132812 C 161.902344 66.601562 157.925781 60.394531 157.238281 53.378906 C 156.125 42.179688 164.421875 31.863281 174.375 30.878906 C 184.332031 29.890625 194.234375 38.113281 195.339844 49.3125 C 195.894531 54.914062 194.6875 60.683594 191.011719 64.199219 C 189.878906 65.304688 188.789062 66.304688 187.703125 67.1875 Z M 187.703125 67.1875 " fill-opacity="1" fill-rule="nonzero"/><path fill="#000000" d="M 159.957031 44.246094 L 158.445312 54.898438 C 158.445312 54.898438 147.726562 51.683594 153.398438 36.617188 C 159.074219 21.550781 165.882812 25.335938 165.882812 25.335938 C 169.035156 18.335938 174.703125 19.34375 190.53125 25.464844 C 206.359375 31.582031 196.910156 52.082031 193.558594 53.90625 C 190.210938 55.726562 189.144531 38.070312 189.144531 38.070312 C 173.953125 37.875 171.371094 33.03125 171.371094 33.03125 C 171.8125 35.996094 178.367188 42.046875 174.457031 41.601562 C 170.546875 41.15625 166.703125 32.898438 166.703125 32.898438 C 165.265625 38.195312 159.957031 44.246094 159.957031 44.246094 Z M 178.398438 71.445312 C 175 71.777344 171.578125 70.769531 168.519531 69.503906 C 170.183594 72.890625 173.671875 75.214844 177.703125 75.214844 C 182.597656 75.214844 186.695312 71.769531 187.703125 67.1875 C 184.828125 69.542969 182.003906 71.082031 178.398438 71.445312 Z M 183.8125 44.875 C 182.355469 44.875 181.167969 46.0625 181.167969 47.519531 C 181.167969 48.980469 182.355469 50.164062 183.8125 50.164062 C 185.273438 50.164062 186.457031 48.980469 186.457031 47.519531 C 186.464844 46.0625 185.28125 44.875 183.8125 44.875 Z M 167.28125 47.996094 C 165.820312 47.996094 164.636719 49.179688 164.636719 50.640625 C 164.636719 52.097656 165.820312 53.28125 167.28125 53.28125 C 168.738281 53.28125 169.925781 52.097656 169.925781 50.640625 C 169.925781 49.179688 168.746094 47.996094 167.28125 47.996094 Z M 167.28125 47.996094 " fill-opacity="1" fill-rule="nonzero"/><path fill="#f7b49a" d="M 200.714844 54.792969 C 199.566406 58.5625 196.210938 60.890625 193.210938 59.980469 C 190.210938 59.066406 188.707031 55.277344 189.855469 51.5 C 191.003906 47.726562 194.359375 45.402344 197.359375 46.3125 C 200.359375 47.222656 201.863281 51.023438 200.714844 54.792969 Z M 154.253906 63.113281 C 156.4375 66.394531 160.320312 67.652344 162.925781 65.917969 C 165.53125 64.1875 165.882812 60.121094 163.703125 56.832031 C 161.519531 53.550781 157.636719 52.289062 155.03125 54.023438 C 152.421875 55.757812 152.074219 59.832031 154.253906 63.113281 Z M 154.253906 63.113281 " fill-opacity="1" fill-rule="nonzero"/><path fill="#000000" d="M 186.464844 40.507812 C 186.308594 40.507812 186.152344 40.460938 186.027344 40.359375 C 181.976562 37.359375 177.894531 39.574219 177.722656 39.667969 C 177.367188 39.871094 176.917969 39.742188 176.71875 39.386719 C 176.515625 39.03125 176.644531 38.582031 177 38.378906 C 177.207031 38.261719 182.074219 35.589844 186.910156 39.171875 C 187.234375 39.417969 187.308594 39.882812 187.066406 40.210938 C 186.917969 40.410156 186.6875 40.507812 186.464844 40.507812 Z M 162.238281 45.609375 C 163.671875 41.402344 168.304688 41.386719 168.519531 41.378906 C 168.902344 41.386719 169.257812 41.054688 169.265625 40.648438 C 169.273438 40.238281 168.941406 39.898438 168.53125 39.898438 C 168.488281 39.898438 162.621094 39.890625 160.835938 45.128906 C 160.703125 45.511719 160.910156 45.9375 161.296875 46.070312 C 161.378906 46.097656 161.460938 46.105469 161.53125 46.105469 C 161.835938 46.105469 162.125 45.914062 162.238281 45.609375 Z M 193.820312 50.71875 C 194.566406 49.425781 195.359375 48.757812 196.175781 48.734375 C 197.449219 48.714844 198.472656 50.261719 198.480469 50.277344 C 198.589844 50.445312 198.820312 50.5 198.988281 50.386719 C 199.160156 50.277344 199.210938 50.046875 199.101562 49.875 C 199.050781 49.792969 197.835938 47.972656 196.160156 47.996094 C 195.0625 48.015625 194.0625 48.816406 193.175781 50.351562 C 193.070312 50.527344 193.136719 50.757812 193.308594 50.855469 C 193.367188 50.882812 193.425781 50.90625 193.492188 50.90625 C 193.628906 50.90625 193.753906 50.839844 193.820312 50.71875 Z M 154.113281 58.816406 C 154.058594 58.816406 154.007812 58.808594 153.957031 58.785156 C 153.769531 58.703125 153.6875 58.484375 153.769531 58.296875 C 153.808594 58.214844 154.726562 56.214844 156.40625 56.007812 C 157.488281 55.875 158.601562 56.511719 159.703125 57.90625 C 159.828125 58.066406 159.800781 58.296875 159.644531 58.421875 C 159.480469 58.550781 159.25 58.519531 159.125 58.363281 C 158.199219 57.1875 157.320312 56.644531 156.503906 56.742188 C 155.238281 56.898438 154.453125 58.578125 154.445312 58.601562 C 154.386719 58.734375 154.253906 58.816406 154.113281 58.816406 Z M 174.332031 61.800781 C 173.191406 61.800781 171.960938 61.652344 170.644531 61.304688 C 170.445312 61.253906 170.324219 61.046875 170.382812 60.851562 C 170.4375 60.652344 170.644531 60.542969 170.835938 60.59375 C 178.332031 62.59375 182.96875 57.601562 183.011719 57.550781 C 183.144531 57.402344 183.382812 57.386719 183.539062 57.519531 C 183.6875 57.660156 183.703125 57.890625 183.570312 58.046875 C 183.515625 58.089844 180.078125 61.800781 174.332031 61.800781 Z M 173.820312 55.839844 C 173.636719 55.839844 173.480469 55.707031 173.449219 55.519531 C 173.242188 54 173.511719 52.949219 174.25 52.394531 C 175.457031 51.484375 177.414062 52.320312 177.496094 52.355469 C 177.679688 52.4375 177.769531 52.660156 177.6875 52.847656 C 177.605469 53.03125 177.390625 53.121094 177.199219 53.039062 C 176.746094 52.839844 175.414062 52.445312 174.695312 52.988281 C 174.183594 53.371094 174.011719 54.195312 174.183594 55.421875 C 174.214844 55.625 174.074219 55.816406 173.867188 55.839844 C 173.859375 55.832031 173.84375 55.839844 173.820312 55.839844 Z M 173.820312 55.839844 " fill-opacity="1" fill-rule="nonzero"/><path fill="#ffd700" d="M 246.554688 120.300781 C 244.785156 122.796875 240.238281 122.617188 236.402344 119.894531 C 232.566406 117.167969 230.890625 112.9375 232.667969 110.441406 C 234.4375 107.945312 238.988281 108.125 242.824219 110.847656 C 246.660156 113.566406 248.335938 117.796875 246.554688 120.300781 Z M 246.554688 120.300781 " fill-opacity="1" fill-rule="nonzero"/><path fill="#f7b49a" d="M 245.460938 105.433594 C 245.445312 105.714844 245.402344 106.003906 245.347656 106.28125 L 244.296875 116.546875 C 244.296875 116.546875 239.222656 120.765625 234.890625 113.582031 L 234.890625 110.058594 C 233.921875 109.472656 233.1875 108.761719 232.890625 108.125 C 231.75 105.695312 234.054688 104.636719 234.054688 104.636719 C 234.054688 104.636719 231.863281 104.5 230.867188 102.339844 C 229.875 100.175781 232.550781 99.078125 232.550781 99.078125 C 232.550781 99.078125 230.164062 98.71875 229.542969 96.9375 C 228.929688 95.160156 230.949219 93.710938 230.949219 93.710938 C 230.949219 93.710938 228.648438 94.785156 228.253906 91.554688 C 227.996094 89.40625 229.667969 87.28125 233.328125 86.738281 C 231.632812 82.050781 232.105469 76.742188 235.5 76.570312 C 238.269531 76.429688 239.128906 83.222656 239.394531 87.101562 C 239.699219 87.167969 239.992188 87.230469 240.3125 87.308594 C 245.824219 88.703125 245.726562 100.582031 245.460938 105.433594 Z M 245.460938 105.433594 " fill-opacity="1" fill-rule="nonzero"/><path fill="#000000" d="M 144.394531 166.75 C 144.503906 166.917969 144.453125 167.148438 144.28125 167.261719 C 144.222656 167.296875 144.148438 167.320312 144.082031 167.320312 C 143.957031 167.320312 143.839844 167.261719 143.769531 167.148438 L 140.230469 161.570312 C 140.121094 161.402344 140.171875 161.171875 140.34375 161.0625 C 140.511719 160.949219 140.742188 161 140.851562 161.171875 Z M 180.582031 182.800781 C 161.910156 183.488281 149.941406 180.710938 148.429688 180.339844 C 144.949219 172.972656 150.023438 144.21875 150.074219 143.929688 C 150.113281 143.726562 149.976562 143.535156 149.777344 143.5 C 149.570312 143.460938 149.386719 143.59375 149.347656 143.796875 C 149.222656 144.5 147.480469 154.363281 146.769531 163.964844 L 143.890625 158.914062 C 143.785156 158.734375 143.5625 158.675781 143.386719 158.773438 C 143.207031 158.867188 143.148438 159.097656 143.246094 159.277344 L 146.675781 165.289062 C 146.265625 171.695312 146.371094 177.777344 147.792969 180.703125 L 146.667969 190.628906 C 146.644531 190.828125 146.792969 191.015625 146.992188 191.035156 C 147.007812 191.035156 147.023438 191.035156 147.039062 191.035156 C 147.222656 191.035156 147.386719 190.894531 147.40625 190.710938 L 148.496094 181.101562 C 150.535156 181.585938 160.03125 183.636719 174.679688 183.636719 C 176.578125 183.636719 178.554688 183.597656 180.613281 183.527344 C 180.820312 183.519531 180.976562 183.347656 180.96875 183.140625 C 180.960938 182.957031 180.789062 182.785156 180.582031 182.800781 Z M 178.953125 126.730469 C 158.117188 99.148438 154.511719 82.867188 154.472656 82.703125 C 154.429688 82.503906 154.238281 82.378906 154.039062 82.414062 C 153.835938 82.457031 153.710938 82.652344 153.75 82.851562 C 153.785156 83.015625 157.40625 99.398438 178.292969 127.078125 L 181.648438 196.449219 C 181.65625 196.652344 181.820312 196.804688 182.019531 196.804688 C 182.027344 196.804688 182.035156 196.804688 182.035156 196.804688 C 182.242188 196.796875 182.398438 196.621094 182.390625 196.421875 L 179.027344 126.9375 C 179.019531 126.855469 179 126.789062 178.953125 126.730469 Z M 137.402344 132.886719 C 137.195312 132.742188 132.253906 129.582031 125.320312 134.597656 C 125.15625 134.714844 125.121094 134.945312 125.238281 135.113281 C 125.3125 135.21875 125.425781 135.269531 125.542969 135.269531 C 125.617188 135.269531 125.691406 135.246094 125.757812 135.203125 C 132.261719 130.507812 136.808594 133.386719 137 133.507812 C 137.171875 133.617188 137.402344 133.574219 137.511719 133.402344 C 137.625 133.234375 137.570312 132.996094 137.402344 132.886719 Z M 164.027344 96.902344 C 164.066406 96.902344 164.109375 96.894531 164.148438 96.878906 L 179.984375 91.554688 L 193.492188 95.140625 C 193.695312 95.191406 193.894531 95.074219 193.945312 94.871094 C 193.996094 94.671875 193.878906 94.472656 193.679688 94.421875 L 180.058594 90.804688 C 179.992188 90.792969 179.917969 90.792969 179.84375 90.8125 L 163.902344 96.175781 C 163.710938 96.242188 163.605469 96.449219 163.671875 96.644531 C 163.734375 96.804688 163.875 96.902344 164.027344 96.902344 Z M 147.824219 130.390625 C 147.890625 130.523438 148.015625 130.597656 148.15625 130.597656 C 148.207031 130.597656 148.265625 130.582031 148.320312 130.558594 C 148.503906 130.46875 148.578125 130.246094 148.488281 130.0625 L 143.023438 118.839844 C 142.933594 118.65625 142.710938 118.582031 142.527344 118.671875 C 142.34375 118.761719 142.269531 118.980469 142.355469 119.167969 Z M 230.957031 94.085938 C 231.007812 94.085938 231.0625 94.082031 231.113281 94.058594 C 231.148438 94.042969 234.683594 92.472656 238.765625 93.289062 C 238.964844 93.332031 239.15625 93.199219 239.203125 93 C 239.238281 92.800781 239.113281 92.605469 238.914062 92.5625 C 234.585938 91.703125 230.957031 93.316406 230.808594 93.382812 C 230.625 93.464844 230.542969 93.6875 230.625 93.871094 C 230.675781 94.007812 230.808594 94.085938 230.957031 94.085938 Z M 233.328125 87.066406 C 233.371094 87.066406 237.535156 86.910156 239.289062 87.449219 C 239.328125 87.464844 239.363281 87.464844 239.402344 87.464844 C 239.558594 87.464844 239.707031 87.363281 239.757812 87.207031 C 239.816406 87.015625 239.707031 86.808594 239.511719 86.738281 C 237.636719 86.164062 233.484375 86.308594 233.304688 86.316406 C 233.097656 86.324219 232.941406 86.496094 232.949219 86.703125 C 232.949219 86.910156 233.105469 87.082031 233.328125 87.066406 Z M 183.488281 98.613281 C 183.324219 98.582031 179.414062 97.894531 176.8125 99.199219 C 176.628906 99.289062 176.554688 99.507812 176.652344 99.695312 C 176.71875 99.828125 176.84375 99.902344 176.984375 99.902344 C 177.042969 99.902344 177.09375 99.886719 177.148438 99.863281 C 179.523438 98.671875 183.316406 99.339844 183.359375 99.347656 C 183.5625 99.382812 183.753906 99.25 183.789062 99.050781 C 183.820312 98.84375 183.6875 98.648438 183.488281 98.613281 Z M 232.410156 98.746094 C 232.222656 98.828125 232.128906 99.042969 232.210938 99.226562 C 232.269531 99.367188 232.410156 99.457031 232.550781 99.457031 C 232.59375 99.457031 232.644531 99.449219 232.691406 99.429688 C 232.726562 99.414062 236.617188 97.820312 239.421875 99.085938 C 239.609375 99.167969 239.832031 99.085938 239.914062 98.902344 C 239.992188 98.71875 239.914062 98.496094 239.726562 98.414062 C 236.632812 97.011719 232.578125 98.671875 232.410156 98.746094 Z M 236.808594 120.300781 C 236.601562 120.269531 236.417969 120.402344 236.386719 120.605469 L 235.585938 125.625 C 235.558594 125.824219 235.691406 126.019531 235.898438 126.046875 C 235.921875 126.046875 235.933594 126.054688 235.957031 126.054688 C 236.136719 126.054688 236.289062 125.921875 236.320312 125.746094 L 237.121094 120.722656 C 237.148438 120.523438 237.015625 120.332031 236.808594 120.300781 Z M 240.15625 121.914062 C 239.957031 121.902344 239.773438 122.042969 239.75 122.25 L 239.261719 127.167969 C 239.238281 127.367188 239.386719 127.550781 239.59375 127.574219 C 239.609375 127.574219 239.617188 127.574219 239.632812 127.574219 C 239.816406 127.574219 239.980469 127.433594 240 127.242188 L 240.492188 122.324219 C 240.511719 122.113281 240.363281 121.9375 240.15625 121.914062 Z M 241.578125 110.003906 C 241.535156 110.011719 236.839844 110.929688 235.097656 109.753906 C 234.988281 109.679688 234.855469 109.671875 234.734375 109.722656 C 234.617188 109.773438 234.535156 109.894531 234.519531 110.019531 L 234.214844 112.722656 C 234.195312 112.921875 234.34375 113.109375 234.542969 113.128906 C 234.558594 113.128906 234.570312 113.128906 234.585938 113.128906 C 234.773438 113.128906 234.933594 112.988281 234.957031 112.804688 L 235.195312 110.640625 C 237.402344 111.574219 241.527344 110.769531 241.71875 110.730469 C 241.917969 110.695312 242.054688 110.492188 242.007812 110.292969 C 241.980469 110.101562 241.785156 109.96875 241.578125 110.003906 Z M 243.898438 121.542969 C 243.691406 121.542969 243.527344 121.707031 243.527344 121.914062 L 243.527344 127.195312 C 243.527344 127.402344 243.691406 127.566406 243.898438 127.566406 C 244.105469 127.566406 244.269531 127.402344 244.269531 127.195312 L 244.269531 121.914062 C 244.269531 121.714844 244.105469 121.542969 243.898438 121.542969 Z M 246.917969 120.226562 C 246.882812 120.027344 246.683594 119.894531 246.488281 119.929688 C 246.289062 119.96875 246.15625 120.160156 246.195312 120.359375 L 247.214844 125.753906 C 247.246094 125.929688 247.402344 126.054688 247.578125 126.054688 C 247.601562 126.054688 247.625 126.054688 247.644531 126.046875 C 247.84375 126.011719 247.980469 125.820312 247.941406 125.617188 Z M 214.0625 175.976562 C 213.945312 176.039062 202.257812 181.679688 187.894531 182.808594 C 187.828125 182.816406 187.769531 182.835938 187.714844 182.875 L 185.308594 126.300781 C 200.523438 102.6875 201.433594 78.488281 201.441406 78.246094 C 201.449219 78.035156 201.285156 77.867188 201.085938 77.859375 C 201.078125 77.859375 201.078125 77.859375 201.070312 77.859375 C 200.871094 77.859375 200.707031 78.015625 200.699219 78.214844 C 200.691406 78.453125 199.789062 102.515625 184.621094 125.988281 C 184.574219 126.054688 184.5625 126.128906 184.5625 126.203125 L 187.546875 196.441406 C 187.554688 196.644531 187.714844 196.796875 187.917969 196.796875 C 187.921875 196.796875 187.921875 196.796875 187.929688 196.796875 C 188.136719 196.792969 188.292969 196.613281 188.285156 196.414062 L 187.738281 183.480469 C 187.789062 183.511719 187.851562 183.53125 187.917969 183.53125 C 187.921875 183.53125 187.9375 183.53125 187.945312 183.53125 C 202.449219 182.398438 214.261719 176.6875 214.382812 176.628906 C 214.566406 176.539062 214.640625 176.320312 214.550781 176.132812 C 214.460938 175.964844 214.242188 175.882812 214.0625 175.976562 Z M 232.460938 109.160156 C 232.558594 108.984375 232.492188 108.753906 232.3125 108.65625 C 232.136719 108.5625 231.90625 108.628906 231.808594 108.804688 C 231.707031 108.996094 221.246094 128.582031 222.375 146.511719 C 222.386719 146.714844 222.550781 146.863281 222.742188 146.863281 C 222.75 146.863281 222.757812 146.863281 222.765625 146.863281 C 222.972656 146.847656 223.128906 146.675781 223.113281 146.46875 C 221.996094 128.757812 232.359375 109.351562 232.460938 109.160156 Z M 217.453125 129.855469 C 217.453125 129.855469 217.449219 129.855469 217.449219 129.855469 C 217.246094 129.855469 217.085938 130.011719 217.078125 130.21875 L 216.449219 153.417969 C 216.441406 153.625 216.601562 153.792969 216.8125 153.792969 C 216.8125 153.792969 216.816406 153.792969 216.816406 153.792969 C 217.019531 153.792969 217.179688 153.640625 217.1875 153.429688 L 217.816406 130.234375 C 217.816406 130.03125 217.664062 129.863281 217.453125 129.855469 Z M 233.386719 117.417969 C 233.1875 117.382812 232.988281 117.507812 232.949219 117.707031 L 231.765625 123.46875 C 231.726562 123.671875 231.855469 123.871094 232.054688 123.90625 C 232.074219 123.914062 232.105469 123.914062 232.128906 123.914062 C 232.296875 123.914062 232.453125 123.796875 232.492188 123.617188 L 233.675781 117.855469 C 233.71875 117.65625 233.585938 117.457031 233.386719 117.417969 Z M 239.320312 105.019531 C 239.363281 105.035156 239.402344 105.042969 239.445312 105.042969 C 239.601562 105.042969 239.742188 104.945312 239.792969 104.796875 C 239.859375 104.605469 239.765625 104.390625 239.570312 104.324219 C 237.617188 103.628906 234.144531 104.257812 233.996094 104.28125 C 233.792969 104.316406 233.660156 104.507812 233.699219 104.710938 C 233.734375 104.910156 233.929688 105.050781 234.128906 105.003906 C 234.15625 105.003906 237.558594 104.390625 239.320312 105.019531 Z M 239.320312 105.019531 " fill-opacity="1" fill-rule="nonzero"/><path fill="#000000" d="M 183 152.5 C 181.789062 152.550781 180.851562 153.570312 180.902344 154.78125 C 180.925781 155.363281 181.175781 155.90625 181.613281 156.296875 C 182.019531 156.667969 182.546875 156.875 183.09375 156.875 C 183.125 156.875 183.160156 156.875 183.191406 156.875 C 184.398438 156.824219 185.339844 155.800781 185.285156 154.59375 C 185.265625 154.007812 185.011719 153.46875 184.574219 153.074219 C 184.144531 152.675781 183.589844 152.476562 183 152.5 Z M 183.152344 156.140625 C 182.769531 156.15625 182.398438 156.023438 182.109375 155.765625 C 181.820312 155.503906 181.65625 155.140625 181.644531 154.757812 C 181.605469 153.957031 182.226562 153.285156 183.027344 153.246094 C 183.050781 153.246094 183.074219 153.246094 183.09375 153.246094 C 183.457031 153.246094 183.804688 153.378906 184.070312 153.632812 C 184.359375 153.890625 184.523438 154.253906 184.539062 154.640625 C 184.574219 155.425781 183.953125 156.105469 183.152344 156.140625 Z M 182.199219 133.816406 C 180.992188 133.871094 180.050781 134.890625 180.101562 136.097656 C 180.125 136.683594 180.375 137.226562 180.8125 137.617188 C 181.21875 137.988281 181.738281 138.195312 182.292969 138.195312 C 182.324219 138.195312 182.359375 138.195312 182.390625 138.195312 C 183.597656 138.144531 184.539062 137.121094 184.488281 135.914062 C 184.464844 135.328125 184.214844 134.789062 183.777344 134.394531 C 183.347656 133.996094 182.785156 133.789062 182.199219 133.816406 Z M 182.355469 137.453125 C 181.96875 137.46875 181.597656 137.335938 181.308594 137.078125 C 181.019531 136.816406 180.859375 136.453125 180.84375 136.070312 C 180.804688 135.269531 181.429688 134.597656 182.226562 134.558594 C 182.25 134.558594 182.273438 134.558594 182.292969 134.558594 C 182.65625 134.558594 183.003906 134.691406 183.273438 134.945312 C 183.5625 135.203125 183.722656 135.566406 183.738281 135.953125 C 183.777344 136.742188 183.152344 137.425781 182.355469 137.453125 Z M 182.597656 143.15625 C 182.011719 143.179688 181.472656 143.433594 181.078125 143.871094 C 180.6875 144.296875 180.480469 144.863281 180.503906 145.445312 C 180.523438 146.03125 180.777344 146.574219 181.214844 146.964844 C 181.621094 147.34375 182.144531 147.542969 182.695312 147.542969 C 182.722656 147.542969 182.761719 147.542969 182.789062 147.542969 C 183.375 147.519531 183.917969 147.269531 184.308594 146.832031 C 184.703125 146.402344 184.910156 145.839844 184.886719 145.253906 C 184.863281 144.667969 184.613281 144.128906 184.175781 143.734375 C 183.746094 143.335938 183.191406 143.136719 182.597656 143.15625 Z M 183.761719 146.328125 C 183.5 146.617188 183.140625 146.78125 182.753906 146.792969 C 182.367188 146.808594 182 146.675781 181.710938 146.417969 C 181.421875 146.15625 181.257812 145.796875 181.242188 145.410156 C 181.226562 145.023438 181.359375 144.65625 181.621094 144.367188 C 181.878906 144.078125 182.242188 143.914062 182.628906 143.898438 C 182.648438 143.898438 182.671875 143.898438 182.695312 143.898438 C 183.058594 143.898438 183.40625 144.03125 183.671875 144.285156 C 183.960938 144.542969 184.125 144.90625 184.140625 145.292969 C 184.160156 145.675781 184.027344 146.046875 183.761719 146.328125 Z M 183.398438 161.839844 C 182.191406 161.890625 181.25 162.914062 181.300781 164.121094 C 181.324219 164.703125 181.574219 165.246094 182.011719 165.636719 C 182.421875 166.015625 182.945312 166.214844 183.496094 166.214844 C 183.523438 166.214844 183.5625 166.214844 183.589844 166.214844 C 184.175781 166.195312 184.714844 165.941406 185.109375 165.503906 C 185.5 165.074219 185.710938 164.511719 185.6875 163.925781 C 185.664062 163.34375 185.414062 162.800781 184.976562 162.410156 C 184.546875 162.015625 183.992188 161.808594 183.398438 161.839844 Z M 184.5625 165.007812 C 184.300781 165.296875 183.9375 165.460938 183.554688 165.476562 C 183.160156 165.488281 182.796875 165.355469 182.507812 165.097656 C 182.21875 164.839844 182.058594 164.476562 182.042969 164.089844 C 182.003906 163.289062 182.628906 162.617188 183.429688 162.578125 C 183.449219 162.578125 183.472656 162.578125 183.496094 162.578125 C 183.855469 162.578125 184.207031 162.710938 184.472656 162.964844 C 184.761719 163.222656 184.925781 163.585938 184.9375 163.972656 C 184.960938 164.355469 184.828125 164.726562 184.5625 165.007812 Z M 181.710938 173.46875 C 181.730469 174.050781 181.984375 174.59375 182.421875 174.984375 C 182.828125 175.363281 183.355469 175.5625 183.902344 175.5625 C 183.929688 175.5625 183.96875 175.5625 184 175.5625 C 184.582031 175.539062 185.125 175.289062 185.515625 174.851562 C 185.910156 174.421875 186.117188 173.859375 186.09375 173.273438 C 186.070312 172.6875 185.820312 172.148438 185.382812 171.757812 C 184.953125 171.355469 184.398438 171.148438 183.804688 171.179688 C 182.589844 171.230469 181.65625 172.257812 181.710938 173.46875 Z M 183.894531 171.917969 C 184.257812 171.917969 184.605469 172.050781 184.871094 172.304688 C 185.160156 172.5625 185.324219 172.925781 185.339844 173.3125 C 185.355469 173.695312 185.21875 174.066406 184.960938 174.355469 C 184.703125 174.644531 184.339844 174.808594 183.953125 174.824219 C 183.570312 174.828125 183.199219 174.703125 182.910156 174.445312 C 182.621094 174.183594 182.457031 173.824219 182.441406 173.4375 C 182.40625 172.636719 183.027344 171.957031 183.828125 171.925781 C 183.855469 171.917969 183.871094 171.917969 183.894531 171.917969 Z M 184.207031 180.527344 C 183 180.578125 182.058594 181.601562 182.109375 182.808594 C 182.132812 183.390625 182.382812 183.933594 182.820312 184.324219 C 183.226562 184.703125 183.753906 184.902344 184.300781 184.902344 C 184.332031 184.902344 184.367188 184.902344 184.398438 184.902344 C 185.605469 184.851562 186.546875 183.828125 186.496094 182.621094 C 186.433594 181.40625 185.40625 180.460938 184.207031 180.527344 Z M 184.359375 184.164062 C 183.976562 184.171875 183.605469 184.042969 183.316406 183.785156 C 183.027344 183.527344 182.863281 183.164062 182.851562 182.777344 C 182.8125 181.976562 183.433594 181.304688 184.234375 181.265625 C 184.257812 181.265625 184.28125 181.265625 184.292969 181.265625 C 185.066406 181.265625 185.710938 181.875 185.746094 182.652344 C 185.78125 183.453125 185.152344 184.125 184.359375 184.164062 Z M 184.359375 184.164062 " fill-opacity="1" fill-rule="nonzero"/><path fill="#ffd700" d="M 187.554688 220.671875 C 187.507812 220.671875 187.464844 220.664062 187.421875 220.648438 L 172.175781 214.789062 C 171.984375 214.714844 171.886719 214.5 171.960938 214.308594 C 172.035156 214.117188 172.25 214.019531 172.445312 214.09375 L 187.6875 219.953125 C 187.878906 220.027344 187.976562 220.242188 187.902344 220.433594 C 187.84375 220.582031 187.703125 220.671875 187.554688 220.671875 Z M 187.554688 220.671875 " fill-opacity="1" fill-rule="nonzero"/></svg>