<svg xmlns="http://www.w3.org/2000/svg" xmlns:xlink="http://www.w3.org/1999/xlink" width="500" zoomAndPan="magnify" viewBox="0 0 375 374.999991" height="500" preserveAspectRatio="xMidYMid meet" version="1.0"><defs><g/></defs><path stroke-linecap="butt" transform="matrix(1.092229, 0, 0, 1.092229, 13.908184, 132.013235)" fill="none" stroke-linejoin="miter" d="M 46.444983 23.338222 L 46.444983 71.99877 L 34.596358 71.99877 L 34.596358 51.960181 L 16.149268 51.960181 L 16.149268 71.99877 L 4.300643 71.99877 L 4.300643 23.338222 L 16.149268 23.338222 L 16.149268 42.396877 L 34.596358 42.396877 L 34.596358 23.338222 Z M 46.444983 23.338222 " stroke="#7e3c47" stroke-width="2.859999" stroke-opacity="1" stroke-miterlimit="4"/><path stroke-linecap="butt" transform="matrix(1.092229, 0, 0, 1.092229, 13.908184, 132.013235)" fill="none" stroke-linejoin="miter" d="M 66.633782 23.338222 L 66.633782 52.450148 C 66.633782 55.361341 67.349063 57.607322 68.7832 59.188092 C 70.213762 60.754557 72.320264 61.53779 75.095553 61.53779 C 77.870842 61.53779 79.998802 60.754557 81.475857 59.188092 C 82.952912 57.607322 83.693227 55.361341 83.693227 52.450148 L 83.693227 23.338222 L 95.541853 23.338222 L 95.541853 52.382196 C 95.541853 56.727527 94.615564 60.400493 92.766563 63.401096 C 90.913986 66.401699 88.428386 68.672715 85.302609 70.206992 C 82.187561 71.73054 78.71845 72.492314 74.891698 72.492314 C 71.054217 72.492314 67.620869 71.741269 64.584503 70.23918 C 61.558865 68.726361 59.166251 66.458921 57.40666 63.43686 C 55.657799 60.411223 54.785157 56.727527 54.785157 52.382196 L 54.785157 23.338222 Z M 66.633782 23.338222 " stroke="#7e3c47" stroke-width="2.859999" stroke-opacity="1" stroke-miterlimit="4"/><path stroke-linecap="butt" transform="matrix(1.092229, 0, 0, 1.092229, 13.908184, 132.013235)" fill="none" stroke-linejoin="miter" d="M 115.727075 32.833574 L 115.727075 42.665108 L 131.60273 42.665108 L 131.60273 51.824277 L 115.727075 51.824277 L 115.727075 62.503419 L 133.684197 62.503419 L 133.684197 71.99877 L 103.878449 71.99877 L 103.878449 23.338222 L 133.684197 23.338222 L 133.684197 32.833574 Z M 115.727075 32.833574 " stroke="#7e3c47" stroke-width="2.859999" stroke-opacity="1" stroke-miterlimit="4"/><g fill="#fbb9c5" fill-opacity="1"><g transform="translate(13.908184, 210.653687)"><g><path d="M 50.734375 -53.15625 L 50.734375 0 L 37.78125 0 L 37.78125 -21.875 L 17.640625 -21.875 L 17.640625 0 L 4.6875 0 L 4.6875 -53.15625 L 17.640625 -53.15625 L 17.640625 -32.328125 L 37.78125 -32.328125 L 37.78125 -53.15625 Z M 50.734375 -53.15625 "/></g></g></g><g fill="#f9efc7" fill-opacity="1"><g transform="translate(69.270516, 210.653687)"><g><path d="M 17.421875 -53.15625 L 17.421875 -21.359375 C 17.421875 -18.171875 18.203125 -15.71875 19.765625 -14 C 21.328125 -12.289062 23.625 -11.4375 26.65625 -11.4375 C 29.6875 -11.4375 32.007812 -12.289062 33.625 -14 C 35.238281 -15.71875 36.046875 -18.171875 36.046875 -21.359375 L 36.046875 -53.15625 L 48.984375 -53.15625 L 48.984375 -21.421875 C 48.984375 -16.679688 47.972656 -12.671875 45.953125 -9.390625 C 43.941406 -6.109375 41.226562 -3.632812 37.8125 -1.96875 C 34.40625 -0.300781 30.609375 0.53125 26.421875 0.53125 C 22.234375 0.53125 18.484375 -0.285156 15.171875 -1.921875 C 11.867188 -3.566406 9.257812 -6.039062 7.34375 -9.34375 C 5.425781 -12.65625 4.46875 -16.679688 4.46875 -21.421875 L 4.46875 -53.15625 Z M 17.421875 -53.15625 "/></g></g></g><g fill="#b8dfe6" fill-opacity="1"><g transform="translate(122.670251, 210.653687)"><g><path d="M 17.640625 -42.78125 L 17.640625 -32.03125 L 34.984375 -32.03125 L 34.984375 -22.03125 L 17.640625 -22.03125 L 17.640625 -10.375 L 37.25 -10.375 L 37.25 0 L 4.6875 0 L 4.6875 -53.15625 L 37.25 -53.15625 L 37.25 -42.78125 Z M 17.640625 -42.78125 "/></g></g></g><path stroke-linecap="butt" transform="matrix(1.092229, 0, 0, 1.092229, 169.746994, 137.040577)" fill="none" stroke-linejoin="miter" d="M 0.270982 37.243281 L 17.266052 36.839148 L 17.062197 46.080575 C 17.466331 45.064876 17.93484 44.088518 18.467724 43.1515 C 18.997032 42.214482 19.601444 41.374027 20.277384 40.630136 C 20.953325 39.882667 21.711522 39.267526 22.544824 38.784711 C 23.381703 38.29832 24.304415 37.997902 25.320113 37.887034 C 26.607619 37.887034 27.816443 38.1195 28.94301 38.580856 C 30.073154 39.042212 31.103158 39.675236 32.040176 40.47635 C 32.977194 41.277465 33.806919 42.221635 34.529353 43.301709 C 35.251786 44.385359 35.859775 45.536961 36.356895 46.756515 C 36.854015 47.976069 37.215232 49.220657 37.440545 50.497433 C 37.665859 51.770633 37.755269 53.018798 37.712352 54.238351 C 37.690894 55.500822 37.65513 56.799056 37.608636 58.129479 C 37.565719 59.281081 37.51565 60.550704 37.458427 61.938348 C 37.401205 63.325993 37.329677 64.685026 37.23669 66.019025 L 42.011189 66.086977 L 42.011189 67.338718 L 23.224341 66.931008 L 23.224341 65.679267 L 26.911613 65.747218 C 27.455226 59.720978 27.59113 53.616057 27.319323 47.432455 C 27.387275 44.610673 27.233489 42.557817 26.861543 41.270312 C 26.489597 39.986383 25.717094 39.321172 24.544034 39.274679 C 24.157782 39.389123 23.649933 39.603708 23.020486 39.918431 C 22.387462 40.233155 21.715099 40.780344 21.006971 41.56 C 20.295266 42.339656 19.583562 43.398272 18.871858 44.743 C 18.160153 46.084151 17.534283 47.81513 16.994246 49.939514 L 16.654487 65.679267 L 20.177245 65.679267 L 20.177245 66.931008 L 2.574186 66.931008 L 2.574186 65.679267 L 5.621282 65.679267 L 6.297222 38.359119 L 0.270982 38.495023 Z M 44.414532 40.594371 L 59.478345 40.154474 L 58.970495 65.81517 L 64.656977 65.81517 L 64.656977 67.066911 L 43.602689 67.066911 L 43.602689 65.81517 L 49.221219 65.81517 L 49.425074 41.678022 L 44.414532 41.846113 Z M 60.222237 31.556799 C 60.154285 32.436595 59.921819 33.26632 59.528414 34.045976 C 59.13501 34.822056 58.620008 35.501573 57.986984 36.077374 C 57.357537 36.649598 56.635104 37.096649 55.82326 37.411372 C 55.00784 37.729672 54.163809 37.865576 53.284013 37.819082 C 52.357725 37.797624 51.510117 37.593769 50.744767 37.211094 C 49.97584 36.824842 49.321358 36.324146 48.781321 35.701851 C 48.237708 35.083133 47.833574 34.367853 47.561768 33.552433 C 47.289961 32.740589 47.189822 31.871523 47.257773 30.948811 C 47.30069 30.065439 47.52958 29.242866 47.933714 28.477516 C 48.341424 27.708589 48.852849 27.046954 49.475144 26.496188 C 50.093861 25.941846 50.812719 25.512677 51.624562 25.208683 C 52.436406 24.904689 53.269708 24.761633 54.128045 24.786667 C 55.032875 24.808126 55.866177 25.004828 56.635104 25.376774 C 57.400454 25.752296 58.062089 26.242264 58.612855 26.850252 C 59.167197 27.461817 59.585637 28.169945 59.868173 28.985365 C 60.150708 29.797209 60.26873 30.651969 60.222237 31.556799 Z M 104.265647 37.411372 L 104.265647 38.630926 L 98.239407 38.766829 L 98.847396 82.606385 L 104.129744 82.606385 L 104.129744 83.858126 L 82.023993 83.858126 L 82.023993 82.606385 L 88.794125 82.606385 L 88.794125 64.291622 C 88.59027 65.035514 88.178984 65.700725 87.55669 66.290832 C 86.937972 66.877362 86.244149 67.367329 85.475223 67.760734 C 84.709872 68.157714 83.937369 68.461709 83.157713 68.676293 C 82.378057 68.890877 81.741457 68.998169 81.244337 68.998169 C 79.484747 68.998169 77.921858 68.772856 76.555672 68.318653 C 75.189486 67.868026 73.994967 67.263613 72.968539 66.508992 C 71.942111 65.754371 71.076622 64.874576 70.379223 63.869606 C 69.678248 62.864637 69.113176 61.802445 68.684008 60.686607 C 68.254839 59.570769 67.947268 58.422744 67.754143 57.249683 C 67.561017 56.076623 67.46803 54.960785 67.46803 53.898593 C 67.46803 53.154701 67.56817 52.239142 67.772025 51.155491 C 67.97588 50.075418 68.29418 48.945274 68.734077 47.772214 C 69.177551 46.599153 69.746199 45.429669 70.443598 44.267338 C 71.144573 43.105007 71.992181 42.060697 72.982845 41.137985 C 73.977085 40.211696 75.128687 39.460652 76.437651 38.884851 C 77.746614 38.30905 79.234398 38.022937 80.904579 38.022937 C 81.673506 38.022937 82.43528 38.140959 83.189901 38.377001 C 83.948098 38.613044 84.670532 38.942073 85.357201 39.360512 C 86.047447 39.775375 86.684047 40.261766 87.270577 40.816109 C 87.857107 41.366875 88.386415 41.960558 88.862077 42.593581 L 88.862077 37.683179 Z M 83.411638 67.066911 C 84.24494 67.066911 84.974526 66.830869 85.593244 66.355207 C 86.215538 65.883122 86.744846 65.278709 87.184744 64.545547 C 87.624641 63.812384 87.975129 63.021999 88.236206 62.174391 C 88.493707 61.33036 88.67968 60.532822 88.794125 59.78893 L 88.862077 45.097064 C 88.50086 44.331713 88.09315 43.652197 87.642523 43.065666 C 87.191896 42.479136 86.726964 41.97844 86.254879 41.56 C 85.779217 41.141561 85.307132 40.791074 84.83147 40.512114 C 84.359385 40.229578 83.908758 39.997112 83.479589 39.814715 C 82.961011 39.814715 82.406668 40.004265 81.820138 40.376211 C 81.233608 40.748157 80.675689 41.434826 80.142805 42.439796 C 79.613497 43.444765 79.16287 44.839563 78.790924 46.620612 C 78.418978 48.405237 78.197241 50.694135 78.12929 53.494459 C 78.039879 56.112387 78.136442 58.28684 78.418978 60.024972 C 78.701514 61.763105 79.094919 63.157902 79.602768 64.205788 C 80.110617 65.257251 80.697147 65.99399 81.362358 66.423159 C 82.02757 66.852327 82.710663 67.066911 83.411638 67.066911 Z M 138.116308 40.154474 L 137.2687 66.019025 L 140.791458 65.679267 L 140.923785 66.931008 L 127.755467 68.118374 L 127.823418 62.564219 C 127.440743 63.401098 127.047339 64.13426 126.639629 64.767284 C 126.231919 65.396731 125.820632 65.94392 125.402193 66.408853 C 124.98733 66.870209 124.576044 67.263613 124.168334 67.592643 C 123.760624 67.918095 123.377948 68.186326 123.016732 68.386604 C 122.158395 68.883724 121.314364 69.16626 120.477485 69.234212 C 118.514039 69.234212 116.800942 68.844384 115.33104 68.064728 C 113.864715 67.288648 112.648738 66.255068 111.675956 64.967562 C 110.70675 63.683633 109.977164 62.220884 109.49435 60.586468 C 109.007959 58.948475 108.764763 57.274718 108.764763 55.558044 L 109.476467 41.137985 L 105.449437 41.070033 L 105.449437 39.814715 L 120.209255 40.01857 C 119.712135 44.149317 119.333036 47.629157 119.071958 50.461669 C 118.814457 53.294181 118.628484 55.590232 118.514039 57.353399 C 118.378136 59.427713 118.299455 61.097894 118.277997 62.36394 C 118.277997 63.537001 118.367407 64.484748 118.549804 65.207181 C 118.728624 65.929615 118.964666 66.49111 119.257931 66.89882 C 119.554773 67.302954 119.869496 67.581913 120.209255 67.728546 C 120.545437 67.875178 120.874466 67.957436 121.189189 67.982471 C 121.664851 67.868026 122.187006 67.642712 122.762807 67.302954 C 123.338608 66.966772 123.925138 66.441041 124.522398 65.729336 C 125.123233 65.021208 125.702611 64.087767 126.267683 62.936165 C 126.832754 61.788139 127.351333 60.364731 127.823418 58.673092 L 128.063037 41.338263 L 123.052496 41.270312 L 123.052496 40.01857 Z M 172.914715 50.007466 C 172.914715 51.201985 172.53204 52.278482 171.763113 53.240535 C 170.997763 54.199011 170.010676 55.014431 168.801851 55.693948 C 167.593027 56.369888 166.251875 56.906348 164.774821 57.299753 C 163.294189 57.696734 161.845746 57.904165 160.422337 57.9292 C 160.332927 57.9292 160.129072 57.914894 159.814349 57.893436 C 159.499625 57.871977 159.113374 57.796873 158.662747 57.675275 C 158.21212 57.550101 157.704271 57.353399 157.139199 57.081592 C 156.574127 56.809786 156.012632 56.416381 155.44756 55.897803 C 155.515512 57.904165 155.701485 59.624415 156.005479 61.058553 C 156.309473 62.492691 156.717183 63.665751 157.225033 64.581311 C 157.732882 65.493294 158.330141 66.158505 159.016811 66.576944 C 159.707057 66.995383 160.458101 67.202815 161.269945 67.202815 C 161.74203 67.202815 162.382207 67.045453 163.183321 66.730729 C 163.984435 66.412429 164.817737 65.929615 165.686804 65.275133 C 166.55587 64.620651 167.407054 63.783773 168.243932 62.768074 C 169.077234 61.752375 169.778209 60.532822 170.343281 59.11299 L 171.323216 56.605931 L 172.542769 57.013641 L 171.999156 58.537189 C 171.505612 59.867611 170.85113 61.133658 170.03571 62.328176 C 169.223867 63.522695 168.283273 64.59204 167.210351 65.529058 C 166.13743 66.462499 164.950064 67.220697 163.641101 67.796498 C 162.332137 68.372299 160.930187 68.704904 159.442403 68.794314 C 156.845934 68.704904 154.646445 68.239972 152.840362 67.40667 C 151.034278 66.569791 149.567952 65.511176 148.437809 64.22367 C 147.311242 62.936165 146.492245 61.505604 145.984396 59.924833 C 145.476547 58.344063 145.222622 56.752563 145.222622 55.150334 C 145.222622 54.091719 145.387136 52.932964 145.716166 51.681223 C 146.041618 50.429481 146.520856 49.167011 147.15388 47.890235 C 147.783327 46.613459 148.559406 45.3796 149.471389 44.185081 C 150.386949 42.986986 151.424106 41.924794 152.586437 41.002082 C 153.748768 40.075793 155.025544 39.335477 156.413189 38.784711 C 157.800833 38.230369 159.29577 37.954986 160.897999 37.954986 C 162.364325 37.997902 163.680441 38.219639 164.842772 38.613044 C 166.005103 39.010025 167.031531 39.528603 167.922056 40.172356 C 168.81258 40.816109 169.574354 41.542118 170.207378 42.353962 C 170.840401 43.169382 171.35898 44.009837 171.763113 44.878903 C 172.170823 45.747969 172.464088 46.627764 172.642909 47.518289 C 172.825305 48.408813 172.914715 49.238539 172.914715 50.007466 Z M 160.354386 39.206727 C 159.631952 39.25322 158.963165 39.657354 158.34087 40.426281 C 157.722153 41.191631 157.189268 42.235941 156.749371 43.555634 C 156.309473 44.878903 155.966138 46.427486 155.719367 48.212111 C 155.469018 49.99316 155.343844 51.913689 155.343844 53.966545 C 155.908916 54.621027 156.473988 55.128876 157.03906 55.490093 C 157.600555 55.851309 158.12271 56.115963 158.594795 56.284054 C 159.070457 56.455722 159.463861 56.563014 159.778585 56.605931 C 160.096885 56.652424 160.286434 56.673882 160.354386 56.673882 C 161.234181 56.652424 161.963767 56.459298 162.539568 56.098081 C 163.115369 55.736865 163.565996 55.243321 163.891449 54.610297 C 164.220478 53.977274 164.452944 53.222653 164.588848 52.342857 C 164.721175 51.463062 164.789126 50.479551 164.789126 49.395901 C 164.789126 48.04402 164.706869 46.749362 164.535202 45.519079 C 164.367111 44.292373 164.106033 43.208723 163.759122 42.271705 C 163.408634 41.334687 162.950855 40.590795 162.385783 40.036453 C 161.824288 39.48211 161.144771 39.206727 160.354386 39.206727 Z M 160.354386 39.206727 " stroke="#545454" stroke-width="2.166666" stroke-opacity="1" stroke-miterlimit="4"/><g fill="#545454" fill-opacity="1"><g transform="translate(169.746994, 210.219886)"><g><path d="M 0.296875 -32.5 L 18.859375 -32.9375 L 18.640625 -22.84375 C 19.078125 -23.957031 19.582031 -25.023438 20.15625 -26.046875 C 20.738281 -27.066406 21.398438 -27.984375 22.140625 -28.796875 C 22.878906 -29.609375 23.703125 -30.28125 24.609375 -30.8125 C 25.523438 -31.34375 26.539062 -31.671875 27.65625 -31.796875 C 29.0625 -31.796875 30.378906 -31.539062 31.609375 -31.03125 C 32.835938 -30.53125 33.960938 -29.84375 34.984375 -28.96875 C 36.015625 -28.09375 36.921875 -27.0625 37.703125 -25.875 C 38.492188 -24.695312 39.160156 -23.441406 39.703125 -22.109375 C 40.242188 -20.773438 40.640625 -19.410156 40.890625 -18.015625 C 41.140625 -16.628906 41.238281 -15.269531 41.1875 -13.9375 C 41.164062 -12.5625 41.128906 -11.144531 41.078125 -9.6875 C 41.023438 -8.425781 40.96875 -7.035156 40.90625 -5.515625 C 40.84375 -4.003906 40.765625 -2.523438 40.671875 -1.078125 L 45.875 -1 L 45.875 0.375 L 25.359375 -0.078125 L 25.359375 -1.4375 L 29.390625 -1.375 C 29.984375 -7.945312 30.132812 -14.613281 29.84375 -21.375 C 29.914062 -24.445312 29.75 -26.6875 29.34375 -28.09375 C 28.9375 -29.5 28.09375 -30.226562 26.8125 -30.28125 C 26.382812 -30.15625 25.828125 -29.921875 25.140625 -29.578125 C 24.453125 -29.234375 23.71875 -28.632812 22.9375 -27.78125 C 22.164062 -26.9375 21.390625 -25.78125 20.609375 -24.3125 C 19.835938 -22.84375 19.15625 -20.953125 18.5625 -18.640625 L 18.1875 -1.4375 L 22.03125 -1.4375 L 22.03125 -0.078125 L 2.8125 -0.078125 L 2.8125 -1.4375 L 6.140625 -1.4375 L 6.875 -31.28125 L 0.296875 -31.125 Z M 0.296875 -32.5 "/></g></g></g><g fill="#545454" fill-opacity="1"><g transform="translate(216.149006, 210.219886)"><g><path d="M 2.109375 -28.84375 L 18.5625 -29.3125 L 18 -1.296875 L 24.21875 -1.296875 L 24.21875 0.078125 L 1.21875 0.078125 L 1.21875 -1.296875 L 7.359375 -1.296875 L 7.578125 -27.65625 L 2.109375 -27.46875 Z M 19.375 -38.703125 C 19.300781 -37.742188 19.046875 -36.835938 18.609375 -35.984375 C 18.179688 -35.140625 17.617188 -34.398438 16.921875 -33.765625 C 16.234375 -33.140625 15.445312 -32.65625 14.5625 -32.3125 C 13.675781 -31.96875 12.753906 -31.820312 11.796875 -31.875 C 10.785156 -31.894531 9.859375 -32.113281 9.015625 -32.53125 C 8.179688 -32.945312 7.46875 -33.492188 6.875 -34.171875 C 6.28125 -34.859375 5.835938 -35.644531 5.546875 -36.53125 C 5.253906 -37.414062 5.144531 -38.363281 5.21875 -39.375 C 5.257812 -40.332031 5.503906 -41.226562 5.953125 -42.0625 C 6.398438 -42.90625 6.960938 -43.628906 7.640625 -44.234375 C 8.316406 -44.835938 9.097656 -45.304688 9.984375 -45.640625 C 10.867188 -45.972656 11.78125 -46.128906 12.71875 -46.109375 C 13.707031 -46.078125 14.617188 -45.859375 15.453125 -45.453125 C 16.296875 -45.046875 17.015625 -44.507812 17.609375 -43.84375 C 18.210938 -43.175781 18.671875 -42.398438 18.984375 -41.515625 C 19.296875 -40.628906 19.425781 -39.691406 19.375 -38.703125 Z M 19.375 -38.703125 "/></g></g></g><g fill="#545454" fill-opacity="1"><g transform="translate(240.995338, 210.219886)"><g><path d="M 42.625 -32.3125 L 42.625 -30.984375 L 36.046875 -30.828125 L 36.71875 17.046875 L 42.484375 17.046875 L 42.484375 18.40625 L 18.34375 18.40625 L 18.34375 17.046875 L 25.734375 17.046875 L 25.734375 -2.953125 C 25.515625 -2.140625 25.0625 -1.410156 24.375 -0.765625 C 23.695312 -0.128906 22.941406 0.398438 22.109375 0.828125 C 21.273438 1.265625 20.429688 1.597656 19.578125 1.828125 C 18.722656 2.066406 18.023438 2.1875 17.484375 2.1875 C 15.566406 2.1875 13.859375 1.9375 12.359375 1.4375 C 10.867188 0.945312 9.5625 0.289062 8.4375 -0.53125 C 7.320312 -1.363281 6.378906 -2.328125 5.609375 -3.421875 C 4.847656 -4.515625 4.234375 -5.671875 3.765625 -6.890625 C 3.296875 -8.109375 2.957031 -9.359375 2.75 -10.640625 C 2.539062 -11.929688 2.4375 -13.15625 2.4375 -14.3125 C 2.4375 -15.125 2.546875 -16.117188 2.765625 -17.296875 C 2.992188 -18.484375 3.347656 -19.71875 3.828125 -21 C 4.304688 -22.28125 4.925781 -23.554688 5.6875 -24.828125 C 6.457031 -26.097656 7.382812 -27.238281 8.46875 -28.25 C 9.550781 -29.257812 10.804688 -30.078125 12.234375 -30.703125 C 13.660156 -31.328125 15.289062 -31.640625 17.125 -31.640625 C 17.957031 -31.640625 18.785156 -31.507812 19.609375 -31.25 C 20.441406 -31 21.234375 -30.644531 21.984375 -30.1875 C 22.734375 -29.726562 23.425781 -29.195312 24.0625 -28.59375 C 24.707031 -27.988281 25.289062 -27.34375 25.8125 -26.65625 L 25.8125 -32.015625 Z M 19.859375 0.078125 C 20.765625 0.078125 21.554688 -0.179688 22.234375 -0.703125 C 22.910156 -1.222656 23.488281 -1.878906 23.96875 -2.671875 C 24.457031 -3.472656 24.84375 -4.335938 25.125 -5.265625 C 25.40625 -6.191406 25.609375 -7.0625 25.734375 -7.875 L 25.8125 -23.921875 C 25.414062 -24.753906 24.96875 -25.488281 24.46875 -26.125 C 23.976562 -26.769531 23.472656 -27.320312 22.953125 -27.78125 C 22.441406 -28.238281 21.925781 -28.617188 21.40625 -28.921875 C 20.882812 -29.234375 20.390625 -29.488281 19.921875 -29.6875 C 19.359375 -29.6875 18.753906 -29.484375 18.109375 -29.078125 C 17.472656 -28.671875 16.863281 -27.914062 16.28125 -26.8125 C 15.707031 -25.71875 15.21875 -24.195312 14.8125 -22.25 C 14.40625 -20.3125 14.164062 -17.8125 14.09375 -14.75 C 13.988281 -11.894531 14.085938 -9.515625 14.390625 -7.609375 C 14.703125 -5.710938 15.132812 -4.191406 15.6875 -3.046875 C 16.25 -1.898438 16.890625 -1.09375 17.609375 -0.625 C 18.335938 -0.15625 19.085938 0.078125 19.859375 0.078125 Z M 19.859375 0.078125 "/></g></g></g><g fill="#545454" fill-opacity="1"><g transform="translate(283.478137, 210.219886)"><g><path d="M 37.125 -29.3125 L 36.203125 -1.078125 L 40.046875 -1.4375 L 40.1875 -0.078125 L 25.8125 1.21875 L 25.875 -4.84375 C 25.457031 -3.925781 25.023438 -3.125 24.578125 -2.4375 C 24.140625 -1.75 23.691406 -1.148438 23.234375 -0.640625 C 22.773438 -0.140625 22.320312 0.285156 21.875 0.640625 C 21.4375 1.003906 21.019531 1.296875 20.625 1.515625 C 19.6875 2.054688 18.765625 2.363281 17.859375 2.4375 C 15.710938 2.4375 13.835938 2.007812 12.234375 1.15625 C 10.628906 0.3125 9.296875 -0.8125 8.234375 -2.21875 C 7.179688 -3.625 6.390625 -5.21875 5.859375 -7 C 5.328125 -8.789062 5.0625 -10.625 5.0625 -12.5 L 5.84375 -28.25 L 1.4375 -28.328125 L 1.4375 -29.6875 L 17.5625 -29.46875 C 17.019531 -24.957031 16.601562 -21.15625 16.3125 -18.0625 C 16.03125 -14.96875 15.832031 -12.457031 15.71875 -10.53125 C 15.5625 -8.269531 15.472656 -6.445312 15.453125 -5.0625 C 15.453125 -3.78125 15.550781 -2.742188 15.75 -1.953125 C 15.945312 -1.171875 16.203125 -0.554688 16.515625 -0.109375 C 16.835938 0.328125 17.179688 0.625 17.546875 0.78125 C 17.921875 0.945312 18.285156 1.046875 18.640625 1.078125 C 19.148438 0.953125 19.71875 0.703125 20.34375 0.328125 C 20.976562 -0.0351562 21.617188 -0.601562 22.265625 -1.375 C 22.921875 -2.15625 23.554688 -3.175781 24.171875 -4.4375 C 24.796875 -5.695312 25.363281 -7.25 25.875 -9.09375 L 26.140625 -28.03125 L 20.671875 -28.09375 L 20.671875 -29.46875 Z M 37.125 -29.3125 "/></g></g></g><g fill="#545454" fill-opacity="1"><g transform="translate(326.034883, 210.219886)"><g><path d="M 32.578125 -18.5625 C 32.578125 -17.25 32.15625 -16.066406 31.3125 -15.015625 C 30.476562 -13.972656 29.398438 -13.082031 28.078125 -12.34375 C 26.765625 -11.601562 25.300781 -11.019531 23.6875 -10.59375 C 22.070312 -10.164062 20.488281 -9.9375 18.9375 -9.90625 C 18.832031 -9.90625 18.609375 -9.914062 18.265625 -9.9375 C 17.921875 -9.96875 17.5 -10.050781 17 -10.1875 C 16.507812 -10.320312 15.957031 -10.535156 15.34375 -10.828125 C 14.726562 -11.128906 14.113281 -11.5625 13.5 -12.125 C 13.570312 -9.9375 13.773438 -8.054688 14.109375 -6.484375 C 14.441406 -4.921875 14.882812 -3.640625 15.4375 -2.640625 C 15.988281 -1.640625 16.640625 -0.910156 17.390625 -0.453125 C 18.140625 -0.00390625 18.960938 0.21875 19.859375 0.21875 C 20.367188 0.21875 21.0625 0.046875 21.9375 -0.296875 C 22.8125 -0.640625 23.722656 -1.164062 24.671875 -1.875 C 25.628906 -2.59375 26.5625 -3.503906 27.46875 -4.609375 C 28.382812 -5.722656 29.148438 -7.054688 29.765625 -8.609375 L 30.828125 -11.34375 L 32.171875 -10.90625 L 31.578125 -9.25 C 31.035156 -7.789062 30.316406 -6.40625 29.421875 -5.09375 C 28.535156 -3.789062 27.507812 -2.628906 26.34375 -1.609375 C 25.175781 -0.585938 23.875 0.234375 22.4375 0.859375 C 21.007812 1.492188 19.484375 1.859375 17.859375 1.953125 C 15.023438 1.859375 12.617188 1.351562 10.640625 0.4375 C 8.671875 -0.46875 7.070312 -1.625 5.84375 -3.03125 C 4.613281 -4.4375 3.71875 -6 3.15625 -7.71875 C 2.601562 -9.445312 2.328125 -11.1875 2.328125 -12.9375 C 2.328125 -14.09375 2.503906 -15.351562 2.859375 -16.71875 C 3.222656 -18.09375 3.75 -19.472656 4.4375 -20.859375 C 5.125 -22.253906 5.96875 -23.601562 6.96875 -24.90625 C 7.96875 -26.21875 9.101562 -27.378906 10.375 -28.390625 C 11.644531 -29.398438 13.035156 -30.207031 14.546875 -30.8125 C 16.066406 -31.414062 17.703125 -31.71875 19.453125 -31.71875 C 21.046875 -31.664062 22.476562 -31.425781 23.75 -31 C 25.019531 -30.570312 26.140625 -30.003906 27.109375 -29.296875 C 28.085938 -28.597656 28.921875 -27.800781 29.609375 -26.90625 C 30.304688 -26.019531 30.875 -25.101562 31.3125 -24.15625 C 31.757812 -23.207031 32.082031 -22.242188 32.28125 -21.265625 C 32.476562 -20.296875 32.578125 -19.394531 32.578125 -18.5625 Z M 18.859375 -30.359375 C 18.066406 -30.304688 17.332031 -29.859375 16.65625 -29.015625 C 15.976562 -28.179688 15.398438 -27.039062 14.921875 -25.59375 C 14.441406 -24.15625 14.066406 -22.460938 13.796875 -20.515625 C 13.523438 -18.566406 13.390625 -16.472656 13.390625 -14.234375 C 14.003906 -13.515625 14.617188 -12.957031 15.234375 -12.5625 C 15.847656 -12.175781 16.410156 -11.890625 16.921875 -11.703125 C 17.441406 -11.515625 17.875 -11.394531 18.21875 -11.34375 C 18.570312 -11.300781 18.785156 -11.28125 18.859375 -11.28125 C 19.816406 -11.300781 20.609375 -11.507812 21.234375 -11.90625 C 21.867188 -12.300781 22.363281 -12.84375 22.71875 -13.53125 C 23.070312 -14.21875 23.320312 -15.039062 23.46875 -16 C 23.625 -16.96875 23.703125 -18.039062 23.703125 -19.21875 C 23.703125 -20.695312 23.609375 -22.109375 23.421875 -23.453125 C 23.234375 -24.796875 22.945312 -25.976562 22.5625 -27 C 22.1875 -28.03125 21.691406 -28.847656 21.078125 -29.453125 C 20.460938 -30.054688 19.722656 -30.359375 18.859375 -30.359375 Z M 18.859375 -30.359375 "/></g></g></g></svg>