<svg xmlns="http://www.w3.org/2000/svg" xmlns:xlink="http://www.w3.org/1999/xlink" width="500" zoomAndPan="magnify" viewBox="0 0 375 374.999991" height="500" preserveAspectRatio="xMidYMid meet" version="1.0"><path fill="#f4abba" d="M 215.925781 342.292969 C 215.226562 348.453125 206.242188 368.546875 194.453125 369.886719 C 182.667969 371.222656 174.769531 368.816406 175.167969 358.5 C 175.167969 358.5 168.472656 344.304688 191.238281 320.0625 C 214.007812 295.820312 212.039062 318.191406 212.039062 318.191406 C 212.039062 318.191406 217.390625 330.113281 214.761719 333.992188 C 214.761719 333.992188 214.777344 334.023438 214.816406 334.085938 C 214.855469 334.15625 214.914062 334.265625 214.984375 334.414062 C 215.007812 334.46875 215.039062 334.535156 215.070312 334.605469 C 215.558594 335.707031 216.382812 338.285156 215.925781 342.292969 Z M 237.140625 341.316406 C 237.839844 347.476562 246.824219 367.574219 258.613281 368.910156 C 270.398438 370.246094 278.296875 367.839844 277.898438 357.523438 C 277.898438 357.523438 284.59375 343.332031 261.832031 319.089844 C 239.058594 294.847656 241.027344 317.214844 241.027344 317.214844 C 241.027344 317.214844 235.675781 329.136719 238.304688 333.015625 C 238.304688 333.015625 238.289062 333.046875 238.25 333.109375 C 238.210938 333.179688 238.15625 333.289062 238.085938 333.441406 C 238.0625 333.496094 238.027344 333.558594 237.996094 333.628906 C 237.511719 334.730469 236.683594 337.3125 237.140625 341.316406 Z M 237.140625 341.316406 " fill-opacity="1" fill-rule="nonzero"/><path fill="#a2c3e6" d="M 215.925781 342.292969 C 215.226562 348.453125 206.242188 368.546875 194.453125 369.886719 C 182.667969 371.222656 174.769531 368.816406 175.167969 358.5 C 201.851562 374.386719 214.761719 333.992188 214.761719 333.992188 C 214.761719 333.992188 214.777344 334.023438 214.816406 334.085938 C 214.847656 334.15625 214.90625 334.265625 214.984375 334.414062 C 215.007812 334.472656 215.039062 334.535156 215.070312 334.605469 C 215.558594 335.707031 216.382812 338.285156 215.925781 342.292969 Z M 237.140625 341.316406 C 237.839844 347.476562 246.824219 367.574219 258.613281 368.910156 C 270.398438 370.246094 278.296875 367.839844 277.898438 357.523438 C 251.214844 373.410156 238.304688 333.015625 238.304688 333.015625 C 238.304688 333.015625 238.289062 333.046875 238.25 333.109375 C 238.21875 333.179688 238.164062 333.289062 238.085938 333.441406 C 238.0625 333.496094 238.027344 333.558594 237.996094 333.628906 C 237.511719 334.730469 236.683594 337.3125 237.140625 341.316406 Z M 237.140625 341.316406 " fill-opacity="1" fill-rule="nonzero"/><path fill="#c9846f" d="M 296.859375 132.832031 C 286.929688 142.15625 267.441406 144.113281 238.027344 127.660156 C 218.53125 116.757812 207.957031 104.84375 202.789062 93.378906 C 198.539062 90.171875 195.792969 85.070312 195.792969 79.34375 C 195.792969 75.714844 196.894531 72.339844 198.773438 69.539062 C 200.363281 51.601562 211.113281 38.46875 211.113281 38.46875 C 211.113281 38.46875 212.371094 -0.015625 244.644531 8.464844 C 259.699219 12.425781 264.261719 25.863281 267.589844 40.539062 C 276.757812 41.144531 284.011719 48.765625 284.011719 58.089844 C 284.011719 60.964844 283.320312 63.675781 282.097656 66.070312 C 282.453125 66.046875 282.808594 66.039062 283.160156 66.039062 C 292.878906 66.039062 300.753906 73.914062 300.753906 83.632812 C 300.753906 86.355469 300.132812 88.933594 299.03125 91.230469 C 307.128906 94.480469 312.847656 102.40625 312.847656 111.664062 C 312.839844 121.722656 306.089844 130.203125 296.859375 132.832031 Z M 296.859375 132.832031 " fill-opacity="1" fill-rule="nonzero"/><path fill="#c9846f" d="M 189.820312 331.597656 C 189.820312 331.597656 198.972656 326.59375 199.339844 331.742188 C 199.710938 336.886719 197.398438 340.121094 193.984375 339.191406 C 190.566406 338.261719 188.996094 334.675781 188.996094 334.675781 C 188.996094 334.675781 182.21875 339.804688 180.308594 337.152344 C 178.394531 334.511719 180.527344 328.617188 182.746094 327.878906 C 184.957031 327.144531 187.679688 328.160156 189.820312 331.597656 Z M 263.246094 330.632812 C 263.246094 330.632812 254.097656 325.625 253.726562 330.773438 C 253.355469 335.917969 255.667969 339.152344 259.085938 338.222656 C 262.5 337.296875 264.074219 333.707031 264.074219 333.707031 C 264.074219 333.707031 270.847656 338.835938 272.757812 336.1875 C 274.671875 333.542969 272.539062 327.648438 270.320312 326.910156 C 268.109375 326.167969 265.386719 327.191406 263.246094 330.632812 Z M 263.246094 330.632812 " fill-opacity="1" fill-rule="nonzero"/><path fill="#2b1200" d="M 184.429688 354.871094 C 181.125 354.871094 177.671875 353.867188 174.101562 351.851562 C 173.910156 351.742188 173.839844 351.503906 173.949219 351.316406 C 174.058594 351.128906 174.296875 351.058594 174.484375 351.167969 C 179.828125 354.179688 184.878906 354.863281 189.496094 353.203125 C 198.625 349.933594 203.117188 338.507812 203.164062 338.390625 C 203.242188 338.183594 203.472656 338.082031 203.675781 338.160156 C 203.882812 338.238281 203.984375 338.46875 203.90625 338.671875 C 203.714844 339.152344 199.238281 350.546875 189.773438 353.945312 C 188.042969 354.566406 186.257812 354.871094 184.429688 354.871094 Z M 278.96875 350.875 C 279.15625 350.765625 279.226562 350.53125 279.117188 350.339844 C 279.007812 350.152344 278.769531 350.082031 278.582031 350.191406 C 273.238281 353.203125 268.1875 353.890625 263.570312 352.230469 C 254.441406 348.957031 249.949219 337.53125 249.902344 337.414062 C 249.824219 337.207031 249.59375 337.113281 249.390625 337.183594 C 249.1875 337.265625 249.085938 337.492188 249.164062 337.695312 C 249.351562 338.175781 253.828125 349.570312 263.292969 352.96875 C 265.015625 353.589844 266.804688 353.898438 268.628906 353.898438 C 271.933594 353.90625 275.394531 352.890625 278.96875 350.875 Z M 278.96875 350.875 " fill-opacity="1" fill-rule="nonzero"/><path fill="#c9846f" d="M 265.890625 216.558594 L 292.730469 310.070312 C 292.730469 310.070312 207.265625 331.480469 157.625 308.78125 L 180.628906 214.730469 Z M 265.890625 216.558594 " fill-opacity="1" fill-rule="nonzero"/><path fill="#a2c3e6" d="M 291.375 301.464844 C 292.652344 299.914062 293.414062 297.929688 293.414062 295.765625 C 293.414062 290.800781 289.386719 286.773438 284.421875 286.773438 C 280.753906 286.773438 277.613281 288.96875 276.214844 292.109375 L 271.28125 270.707031 C 271.996094 269.960938 272.5625 269.078125 272.933594 268.101562 C 274.074219 268.769531 275.402344 269.15625 276.828125 269.15625 C 281.101562 269.15625 284.5625 265.695312 284.5625 261.421875 C 284.5625 258.597656 283.042969 256.132812 280.785156 254.789062 C 281.878906 253.453125 282.53125 251.753906 282.53125 249.886719 C 282.53125 245.613281 279.070312 242.152344 274.796875 242.152344 C 271.003906 242.152344 267.851562 244.890625 267.195312 248.496094 C 266.828125 248.28125 266.441406 248.109375 266.039062 247.960938 L 260.539062 224.101562 C 260.492188 223.890625 260.28125 223.757812 260.066406 223.804688 C 259.855469 223.851562 259.722656 224.0625 259.769531 224.277344 L 265.167969 247.691406 C 264.585938 247.550781 263.980469 247.464844 263.347656 247.464844 C 259.53125 247.464844 256.371094 250.234375 255.742188 253.867188 C 255.449219 253.648438 255.140625 253.453125 254.820312 253.277344 L 250.4375 226.894531 C 250.398438 226.683594 250.195312 226.535156 249.980469 226.574219 C 249.769531 226.605469 249.617188 226.808594 249.660156 227.03125 L 253.953125 252.878906 C 253.074219 252.523438 252.121094 252.328125 251.113281 252.328125 C 247.273438 252.328125 244.09375 255.128906 243.488281 258.792969 C 243.199219 258.210938 242.828125 257.667969 242.410156 257.179688 L 240.28125 234.875 C 240.257812 234.65625 240.066406 234.503906 239.847656 234.519531 C 239.632812 234.542969 239.46875 234.734375 239.492188 234.953125 L 241.53125 256.308594 C 240.183594 255.175781 238.453125 254.488281 236.558594 254.488281 C 233.269531 254.488281 230.476562 256.542969 229.351562 259.429688 C 228.714844 258.472656 227.855469 257.667969 226.863281 257.078125 L 226.398438 231.136719 C 226.398438 230.917969 226.21875 230.757812 226 230.75 C 225.777344 230.75 225.605469 230.933594 225.613281 231.152344 L 226.070312 256.667969 C 225.101562 256.238281 224.039062 255.984375 222.914062 255.984375 C 220.011719 255.984375 217.484375 257.582031 216.164062 259.949219 C 215.234375 259.015625 214.070312 258.3125 212.773438 257.945312 L 214.582031 232.546875 C 214.597656 232.324219 214.433594 232.144531 214.21875 232.128906 C 214.023438 232.113281 213.820312 232.277344 213.804688 232.492188 L 212 257.761719 C 211.566406 257.683594 211.121094 257.636719 210.664062 257.636719 C 208.59375 257.636719 206.722656 258.457031 205.335938 259.777344 C 204.878906 256.230469 202.023438 253.429688 198.445312 253.074219 L 201.710938 229.414062 C 201.742188 229.203125 201.589844 228.996094 201.371094 228.972656 C 201.160156 228.949219 200.953125 229.089844 200.929688 229.3125 L 197.65625 253.042969 C 194.542969 253.050781 191.867188 254.898438 190.648438 257.566406 C 189.648438 257.09375 188.539062 256.828125 187.367188 256.828125 C 187.292969 256.828125 187.222656 256.835938 187.152344 256.835938 C 186.941406 254.8125 185.949219 253.027344 184.484375 251.777344 L 189.136719 227.054688 C 189.175781 226.839844 189.035156 226.636719 188.820312 226.597656 C 188.609375 226.558594 188.402344 226.699219 188.363281 226.910156 L 183.792969 251.25 C 182.558594 250.414062 181.070312 249.917969 179.472656 249.917969 C 178.984375 249.917969 178.507812 249.964844 178.042969 250.058594 C 177.261719 246.605469 174.1875 244.035156 170.503906 244.035156 C 166.230469 244.035156 162.769531 247.496094 162.769531 251.769531 C 162.769531 254.339844 164.035156 256.621094 165.972656 258.023438 C 164.421875 259.4375 163.4375 261.46875 163.4375 263.734375 C 163.4375 268.007812 166.898438 271.46875 171.171875 271.46875 C 171.683594 271.46875 172.1875 271.414062 172.667969 271.320312 C 173.226562 274.484375 175.695312 276.984375 178.851562 277.574219 L 175.390625 295.996094 C 174.792969 295.871094 174.171875 295.796875 173.535156 295.796875 C 172.964844 295.796875 172.40625 295.859375 171.863281 295.957031 C 170.960938 291.941406 167.378906 288.9375 163.09375 288.9375 C 158.128906 288.9375 154.097656 292.964844 154.097656 297.929688 C 154.097656 300.929688 155.570312 303.570312 157.820312 305.207031 C 156.019531 306.851562 154.878906 309.214844 154.878906 311.847656 C 154.878906 316.8125 158.90625 320.84375 163.871094 320.84375 C 164.46875 320.84375 165.050781 320.78125 165.609375 320.667969 C 166.347656 324.894531 170.023438 328.105469 174.460938 328.105469 C 177.113281 328.105469 179.488281 326.949219 181.132812 325.125 C 182.761719 327.429688 185.445312 328.9375 188.484375 328.9375 C 191.269531 328.9375 193.753906 327.671875 195.398438 325.691406 C 196.996094 328.183594 199.789062 329.835938 202.96875 329.835938 C 206.050781 329.835938 208.773438 328.285156 210.394531 325.917969 C 211.890625 328.820312 214.90625 330.8125 218.398438 330.8125 C 222.175781 330.8125 225.402344 328.484375 226.730469 325.195312 C 228.265625 327.964844 231.214844 329.84375 234.605469 329.84375 C 238.019531 329.84375 240.996094 327.941406 242.523438 325.132812 C 244.152344 327.4375 246.832031 328.945312 249.871094 328.945312 C 253.617188 328.945312 256.820312 326.65625 258.179688 323.40625 C 259.753906 324.769531 261.808594 325.59375 264.050781 325.59375 C 266.851562 325.59375 269.359375 324.3125 271.003906 322.296875 C 271.902344 322.597656 272.863281 322.769531 273.859375 322.769531 C 277.707031 322.769531 280.972656 320.355469 282.265625 316.964844 C 283.59375 317.742188 285.136719 318.191406 286.789062 318.191406 C 291.753906 318.191406 295.78125 314.164062 295.78125 309.199219 C 295.765625 305.894531 294.003906 303.027344 291.375 301.464844 Z M 186.523438 304.664062 C 185.367188 304.121094 184.070312 303.808594 182.707031 303.808594 C 182.628906 303.808594 182.542969 303.816406 182.464844 303.824219 C 182.085938 300.1875 179.535156 297.199219 176.136719 296.160156 L 179.617188 277.652344 C 179.828125 277.671875 180.046875 277.6875 180.261719 277.6875 C 182.542969 277.6875 184.582031 276.695312 185.996094 275.128906 C 187.398438 277.109375 189.703125 278.410156 192.316406 278.410156 C 192.960938 278.410156 193.582031 278.324219 194.179688 278.171875 L 191.140625 300.148438 C 189.105469 301.023438 187.453125 302.644531 186.523438 304.664062 Z M 194.699219 299.402344 C 193.753906 299.402344 192.84375 299.550781 191.984375 299.828125 L 195.003906 277.90625 C 196.28125 277.433594 197.40625 276.632812 198.253906 275.601562 C 199.632812 277.742188 202.023438 279.164062 204.761719 279.164062 C 207.128906 279.164062 209.238281 278.09375 210.664062 276.417969 L 208.632812 304.847656 C 206.699219 305.097656 204.957031 305.964844 203.605469 307.246094 C 203.046875 302.824219 199.277344 299.402344 194.699219 299.402344 Z M 224.0625 302.832031 C 220.6875 302.832031 217.753906 304.6875 216.210938 307.441406 C 214.582031 305.789062 212.316406 304.761719 209.804688 304.761719 C 209.679688 304.761719 209.554688 304.777344 209.429688 304.777344 L 211.457031 276.316406 C 212.820312 278.519531 215.242188 280.007812 218.019531 280.007812 C 221.261719 280.007812 224.039062 278.007812 225.1875 275.175781 C 225.527344 275.78125 225.945312 276.339844 226.421875 276.835938 L 226.902344 303.3125 C 226.015625 303.011719 225.0625 302.832031 224.0625 302.832031 Z M 239.941406 301.101562 C 236.117188 301.101562 232.859375 303.484375 231.5625 306.84375 C 230.617188 305.429688 229.28125 304.3125 227.707031 303.613281 L 227.234375 277.535156 C 228.539062 278.550781 230.175781 279.15625 231.960938 279.15625 C 234.898438 279.15625 237.453125 277.519531 238.769531 275.105469 C 239.902344 276.710938 241.632812 277.851562 243.632812 278.238281 L 246.046875 303.492188 C 244.441406 302.015625 242.300781 301.101562 239.941406 301.101562 Z M 256.859375 298.582031 C 252.386719 298.582031 248.699219 301.839844 247.992188 306.105469 C 247.699219 305.507812 247.335938 304.957031 246.921875 304.445312 L 244.425781 278.355469 C 244.636719 278.371094 244.859375 278.394531 245.078125 278.394531 C 248.296875 278.394531 251.050781 276.425781 252.214844 273.632812 C 253.570312 274.804688 255.332031 275.515625 257.257812 275.515625 C 257.410156 275.515625 257.550781 275.5 257.699219 275.492188 L 261.785156 300.070312 C 260.375 299.140625 258.683594 298.582031 256.859375 298.582031 Z M 271.089844 292.941406 C 267.007812 292.941406 263.570312 295.671875 262.476562 299.410156 L 258.488281 275.410156 C 260.398438 275.105469 262.074219 274.113281 263.246094 272.6875 C 264.019531 272.949219 264.84375 273.089844 265.703125 273.089844 C 267.566406 273.089844 269.273438 272.429688 270.613281 271.328125 L 275.71875 293.492188 C 275.664062 293.707031 275.609375 293.925781 275.570312 294.144531 C 274.253906 293.382812 272.726562 292.941406 271.089844 292.941406 Z M 271.089844 292.941406 " fill-opacity="1" fill-rule="nonzero"/><path fill="#ffd8ca" d="M 257.21875 85.222656 C 257.636719 90.28125 256.527344 94.300781 260.847656 90.941406 C 260.863281 90.933594 260.871094 90.925781 260.878906 90.910156 C 260.878906 90.910156 273.539062 77.652344 275.703125 78.210938 C 278.457031 78.917969 277.046875 83.042969 266.433594 92.617188 C 266.386719 92.65625 266.433594 92.734375 266.488281 92.703125 C 279.359375 85.628906 282.320312 83.402344 283.6875 86.164062 C 284.972656 88.746094 271.714844 95.929688 269.03125 97.402344 C 268.976562 97.433594 269.148438 97.832031 269.203125 97.816406 C 271.785156 97.023438 283.191406 93.914062 284.941406 95.566406 C 286.882812 97.410156 282.585938 100.148438 268.894531 102.957031 C 268.839844 102.964844 268.832031 103.042969 268.886719 103.050781 C 270.546875 103.355469 279.855469 105.167969 280.34375 107.722656 C 280.730469 109.730469 273.484375 108.929688 269.304688 108.304688 C 267.566406 108.046875 265.804688 108.296875 264.191406 109 C 262.136719 109.886719 258.980469 110.816406 256.0625 109.980469 L 250.863281 115.5625 L 242.570312 106.992188 L 249.398438 101.25 C 248.566406 95.644531 251.585938 90.1875 251.320312 85.636719 C 250.957031 79.460938 256.792969 80.152344 257.21875 85.222656 Z M 94.960938 111.4375 C 93.410156 116.867188 93.765625 121.484375 89.777344 116.898438 C 89.769531 116.882812 89.753906 116.875 89.746094 116.859375 C 89.746094 116.859375 78.792969 99.675781 76.304688 99.816406 C 73.148438 99.996094 73.796875 104.796875 83.308594 117.519531 C 83.347656 117.574219 83.285156 117.644531 83.230469 117.597656 C 70.710938 107.117188 67.964844 104.058594 65.871094 106.765625 C 63.914062 109.304688 76.832031 119.984375 79.445312 122.171875 C 79.5 122.210938 79.222656 122.617188 79.160156 122.585938 C 76.519531 121.171875 64.746094 115.324219 62.480469 116.75 C 59.964844 118.339844 64.0625 122.25 78.390625 128.261719 C 78.445312 128.285156 78.4375 128.371094 78.375 128.371094 C 76.503906 128.347656 65.957031 128.316406 64.871094 131.007812 C 64.023438 133.113281 72.097656 133.800781 76.785156 134.019531 C 78.738281 134.113281 80.601562 134.765625 82.214844 135.867188 C 84.269531 137.277344 87.503906 138.96875 90.871094 138.691406 L 95.339844 145.894531 L 106.21875 138.332031 L 100.011719 130.597656 C 102.121094 124.664062 100.011719 118.0625 101.277344 113.160156 C 103.027344 106.496094 96.511719 106 94.960938 111.4375 Z M 94.960938 111.4375 " fill-opacity="1" fill-rule="nonzero"/><path fill="#f4abba" d="M 309.402344 186.640625 C 301.367188 203.597656 275.050781 209.019531 270.027344 179.089844 L 267.816406 200.457031 C 267.816406 200.457031 269.566406 203.738281 270.140625 208.296875 C 270.644531 212.308594 268.125 216.101562 264.246094 217.265625 C 248.132812 222.089844 200.9375 233.347656 173.597656 209.632812 C 159.125 197.082031 161.652344 175.675781 165.089844 151.402344 C 169.277344 121.855469 178.285156 89.816406 203.714844 86.714844 C 208.136719 79.265625 217.21875 74.148438 227.714844 74.148438 C 240.34375 74.148438 250.933594 81.554688 253.804688 91.523438 C 268.675781 96.753906 299.769531 113.097656 304.175781 159.007812 C 304.175781 159 317.433594 169.695312 309.402344 186.640625 Z M 309.402344 186.640625 " fill-opacity="1" fill-rule="nonzero"/><path fill="#ffd8ca" d="M 239.964844 81.71875 C 239.453125 82.019531 238.925781 82.300781 238.398438 82.5625 C 238.398438 82.5625 238.398438 82.5625 238.398438 82.570312 C 238.484375 82.96875 238.578125 83.378906 238.683594 83.789062 C 239.445312 86.859375 240.640625 90.066406 242.5 92.089844 C 243.703125 93.394531 243.511719 95.433594 242.027344 96.394531 C 238.933594 98.390625 233.828125 102.964844 227.148438 102.964844 C 220.4375 102.964844 215.328125 98.660156 212.378906 96.890625 C 210.875 95.984375 210.5625 93.96875 211.710938 92.648438 C 213.148438 90.988281 214.863281 88.203125 215.675781 83.851562 C 215.761719 83.394531 215.832031 82.914062 215.894531 82.410156 C 215.894531 82.410156 215.894531 82.410156 215.894531 82.402344 C 215.320312 82.105469 214.753906 81.796875 214.203125 81.460938 C 206.226562 76.558594 200.851562 67.382812 200.851562 57.21875 C 200.851562 42.125 212.695312 29.890625 227.296875 29.890625 C 241.90625 29.890625 253.75 42.125 253.75 57.21875 C 253.75 67.566406 248.179688 76.886719 239.964844 81.71875 Z M 239.964844 81.71875 " fill-opacity="1" fill-rule="nonzero"/><path fill="#ffd8ca" d="M 206.085938 61.316406 C 208.320312 65.195312 207.640625 69.777344 204.566406 71.546875 C 201.488281 73.316406 197.183594 71.617188 194.949219 67.746094 C 192.714844 63.867188 193.394531 59.289062 196.46875 57.515625 C 199.546875 55.738281 203.847656 57.4375 206.085938 61.316406 Z M 248.21875 61.316406 C 245.984375 65.195312 246.660156 69.777344 249.738281 71.546875 C 252.8125 73.324219 257.117188 71.617188 259.351562 67.746094 C 261.585938 63.867188 260.910156 59.289062 257.832031 57.515625 C 254.765625 55.738281 250.460938 57.4375 248.21875 61.316406 Z M 248.21875 61.316406 " fill-opacity="1" fill-rule="nonzero"/><path fill="#c9846f" d="M 253.75 57.21875 C 253.75 57.21875 246.566406 47.058594 231.804688 45.503906 C 230.925781 45.40625 230.199219 44.761719 229.980469 43.90625 L 227.957031 36.125 L 227.792969 43.242188 C 227.769531 44.382812 226.863281 45.296875 225.730469 45.367188 C 209.773438 46.320312 200.851562 57.226562 200.851562 57.226562 C 198.84375 54.550781 200.851562 24.273438 229.105469 26.152344 C 257.535156 28.027344 253.75 57.21875 253.75 57.21875 Z M 253.75 57.21875 " fill-opacity="1" fill-rule="nonzero"/><path fill="#2b1200" d="M 204.179688 104.488281 C 204.085938 104.292969 204.164062 104.058594 204.359375 103.964844 C 204.558594 103.867188 204.792969 103.945312 204.886719 104.144531 C 204.933594 104.246094 210.082031 114.214844 225.761719 114.214844 C 241.476562 114.214844 247.933594 104.214844 248 104.113281 C 248.117188 103.929688 248.351562 103.867188 248.542969 103.988281 C 248.722656 104.105469 248.777344 104.339844 248.667969 104.53125 C 248.605469 104.632812 241.941406 115.003906 225.769531 115.003906 C 209.570312 114.996094 204.234375 104.59375 204.179688 104.488281 Z M 285.976562 119.992188 C 285.828125 119.832031 285.578125 119.832031 285.417969 119.984375 C 279.425781 125.84375 275.292969 132.949219 273.925781 135.476562 C 272.941406 130.933594 271.328125 126.609375 268.839844 122.832031 C 268.722656 122.648438 268.472656 122.59375 268.296875 122.722656 C 268.117188 122.839844 268.070312 123.082031 268.1875 123.265625 C 281.28125 143.164062 269.777344 178.617188 269.660156 178.972656 C 269.589844 179.175781 269.707031 179.402344 269.910156 179.464844 C 269.949219 179.480469 269.996094 179.488281 270.039062 179.488281 C 270.203125 179.488281 270.359375 179.386719 270.40625 179.222656 C 270.5 178.9375 277.890625 156.167969 274.175781 136.695312 C 274.625 135.804688 279.03125 127.332031 285.976562 120.550781 C 286.128906 120.390625 286.128906 120.140625 285.976562 119.992188 Z M 267.683594 200.089844 C 267.15625 200.277344 214.464844 218.746094 173.972656 199.222656 C 173.777344 199.128906 173.542969 199.214844 173.445312 199.40625 C 173.351562 199.59375 173.429688 199.835938 173.628906 199.933594 C 187.71875 206.722656 203.265625 208.957031 217.601562 208.957031 C 244.773438 208.957031 267.597656 200.953125 267.945312 200.828125 C 268.148438 200.757812 268.25 200.53125 268.179688 200.324219 C 268.109375 200.121094 267.890625 200.019531 267.683594 200.089844 Z M 238.398438 82.570312 C 235.023438 84.253906 231.261719 85.207031 227.296875 85.207031 C 223.222656 85.207031 219.351562 84.199219 215.894531 82.410156 C 215.832031 82.914062 215.761719 83.394531 215.675781 83.851562 C 218.523438 87.863281 222.617188 90.429688 227.15625 90.429688 C 231.71875 90.429688 235.824219 87.832031 238.683594 83.789062 C 238.578125 83.378906 238.484375 82.96875 238.398438 82.570312 Z M 241.261719 55.792969 C 241.261719 57.539062 239.847656 58.957031 238.101562 58.957031 C 236.351562 58.957031 234.9375 57.539062 234.9375 55.792969 C 234.9375 54.046875 236.351562 52.628906 238.101562 52.628906 C 239.847656 52.628906 241.261719 54.046875 241.261719 55.792969 Z M 219.671875 55.792969 C 219.671875 57.539062 218.257812 58.957031 216.507812 58.957031 C 214.761719 58.957031 213.347656 57.539062 213.347656 55.792969 C 213.347656 54.046875 214.761719 52.628906 216.507812 52.628906 C 218.257812 52.628906 219.671875 54.046875 219.671875 55.792969 Z M 225.761719 64.929688 C 225.613281 64.929688 225.464844 64.84375 225.402344 64.691406 C 224.820312 63.339844 224.777344 62.199219 225.273438 61.292969 C 226 59.988281 227.582031 59.71875 227.652344 59.710938 C 227.863281 59.679688 228.066406 59.820312 228.097656 60.042969 C 228.132812 60.253906 227.988281 60.460938 227.777344 60.492188 C 227.761719 60.492188 226.496094 60.710938 225.96875 61.6875 C 225.597656 62.363281 225.652344 63.277344 226.125 64.386719 C 226.210938 64.582031 226.117188 64.820312 225.921875 64.90625 C 225.863281 64.914062 225.816406 64.929688 225.761719 64.929688 Z M 202.230469 63.371094 C 202.101562 63.371094 201.976562 63.308594 201.898438 63.191406 C 201.046875 61.882812 200.027344 61.121094 198.867188 60.921875 C 196.996094 60.609375 195.359375 61.867188 195.34375 61.875 C 195.171875 62.007812 194.925781 61.976562 194.792969 61.804688 C 194.660156 61.632812 194.691406 61.386719 194.863281 61.253906 C 194.941406 61.191406 196.785156 59.773438 198.996094 60.144531 C 200.378906 60.371094 201.582031 61.253906 202.566406 62.757812 C 202.683594 62.9375 202.636719 63.183594 202.449219 63.300781 C 202.371094 63.347656 202.300781 63.371094 202.230469 63.371094 Z M 251.011719 63.371094 C 250.941406 63.371094 250.863281 63.347656 250.800781 63.308594 C 250.617188 63.191406 250.5625 62.945312 250.679688 62.765625 C 251.664062 61.261719 252.859375 60.378906 254.253906 60.152344 C 256.464844 59.78125 258.3125 61.199219 258.382812 61.261719 C 258.558594 61.394531 258.589844 61.640625 258.457031 61.8125 C 258.320312 61.984375 258.078125 62.015625 257.90625 61.882812 C 257.886719 61.867188 256.242188 60.617188 254.378906 60.929688 C 253.222656 61.128906 252.199219 61.890625 251.351562 63.199219 C 251.261719 63.308594 251.136719 63.371094 251.011719 63.371094 Z M 294.53125 191.65625 C 294.429688 191.65625 294.328125 191.613281 294.246094 191.535156 C 291.132812 188.34375 291.335938 185.242188 292.058594 183.195312 C 293.289062 179.726562 297.113281 176.664062 300.777344 176.226562 C 306.640625 175.53125 309.464844 182.761719 309.496094 182.835938 C 309.574219 183.039062 309.472656 183.265625 309.269531 183.34375 C 309.0625 183.425781 308.835938 183.320312 308.757812 183.117188 C 308.734375 183.046875 306.121094 176.375 300.863281 177.003906 C 297.890625 177.359375 294.058594 179.867188 292.800781 183.457031 C 292.15625 185.289062 291.972656 188.082031 294.804688 190.984375 C 294.957031 191.144531 294.957031 191.386719 294.796875 191.542969 C 294.734375 191.613281 294.632812 191.65625 294.53125 191.65625 Z M 294.53125 191.65625 " fill-opacity="1" fill-rule="nonzero"/><path fill="#a2c3e6" d="M 228.570312 75.566406 C 219.863281 76.667969 216.5 70.144531 216.5 70.144531 L 239.421875 65.855469 C 239.421875 65.855469 237.28125 74.464844 228.570312 75.566406 Z M 253.050781 122.65625 C 252.78125 120.839844 250.871094 119.777344 249.179688 120.484375 C 242.113281 123.4375 236.375 129.425781 233.457031 132.917969 C 231.066406 132.257812 228.53125 131.894531 225.910156 131.894531 C 223.207031 131.894531 220.585938 132.28125 218.121094 132.980469 C 215.21875 129.496094 209.453125 123.445312 202.339844 120.476562 C 200.648438 119.769531 198.726562 120.832031 198.46875 122.648438 C 197.710938 127.875 196.910156 138.519531 200.6875 148.511719 C 199.632812 151.21875 199.066406 154.148438 199.066406 157.199219 C 199.066406 171.179688 211.089844 182.511719 225.921875 182.511719 C 240.75 182.511719 252.773438 171.179688 252.773438 157.199219 C 252.773438 154.003906 252.136719 150.953125 250.996094 148.136719 C 254.601562 138.261719 253.804688 127.8125 253.050781 122.65625 Z M 215.613281 96.253906 C 213.828125 96.253906 212.371094 97.699219 212.371094 99.492188 C 212.371094 101.28125 213.820312 102.734375 215.613281 102.734375 C 217.398438 102.734375 218.855469 101.289062 218.855469 99.492188 C 218.855469 97.707031 217.40625 96.253906 215.613281 96.253906 Z M 238.699219 96.253906 C 236.910156 96.253906 235.457031 97.699219 235.457031 99.492188 C 235.457031 101.28125 236.902344 102.734375 238.699219 102.734375 C 240.484375 102.734375 241.941406 101.289062 241.941406 99.492188 C 241.933594 97.707031 240.484375 96.253906 238.699219 96.253906 Z M 226.941406 101.074219 C 225.15625 101.074219 223.699219 102.523438 223.699219 104.316406 C 223.699219 106.109375 225.148438 107.558594 226.941406 107.558594 C 228.738281 107.558594 230.183594 106.109375 230.183594 104.316406 C 230.183594 102.523438 228.730469 101.074219 226.941406 101.074219 Z M 226.941406 101.074219 " fill-opacity="1" fill-rule="nonzero"/><path fill="#c9846f" d="M 238.699219 94.292969 C 238.699219 92.507812 240.144531 91.050781 241.941406 91.050781 C 243.726562 91.050781 245.179688 92.5 245.179688 94.292969 C 245.179688 96.078125 243.734375 97.535156 241.941406 97.535156 C 240.144531 97.527344 238.699219 96.078125 238.699219 94.292969 Z M 212.371094 97.527344 C 214.15625 97.527344 215.613281 96.078125 215.613281 94.285156 C 215.613281 92.5 214.164062 91.042969 212.371094 91.042969 C 210.585938 91.042969 209.128906 92.492188 209.128906 94.285156 C 209.136719 96.078125 210.585938 97.527344 212.371094 97.527344 Z M 220.867188 106.199219 C 222.65625 106.199219 224.109375 104.75 224.109375 102.957031 C 224.109375 101.167969 222.664062 99.714844 220.867188 99.714844 C 219.082031 99.714844 217.625 101.160156 217.625 102.957031 C 217.625 104.75 219.074219 106.199219 220.867188 106.199219 Z M 233.222656 106.199219 C 235.007812 106.199219 236.464844 104.75 236.464844 102.957031 C 236.464844 101.167969 235.015625 99.714844 233.222656 99.714844 C 231.4375 99.714844 229.980469 101.160156 229.980469 102.957031 C 229.980469 104.75 231.425781 106.199219 233.222656 106.199219 Z M 238.140625 151.0625 C 235.527344 151.0625 233.410156 153.179688 233.410156 155.789062 C 233.410156 158.402344 235.527344 160.519531 238.140625 160.519531 C 240.75 160.519531 242.867188 158.402344 242.867188 155.789062 C 242.867188 153.179688 240.75 151.0625 238.140625 151.0625 Z M 218.121094 155.789062 C 218.121094 153.179688 216.007812 151.0625 213.394531 151.0625 C 210.78125 151.0625 208.664062 153.179688 208.664062 155.789062 C 208.664062 158.402344 210.78125 160.519531 213.394531 160.519531 C 216.007812 160.519531 218.121094 158.402344 218.121094 155.789062 Z M 222.898438 162.148438 C 222.898438 163.257812 224.511719 164.878906 226.496094 164.878906 C 228.484375 164.878906 230.089844 163.257812 230.089844 162.148438 C 230.089844 161.039062 228.476562 160.140625 226.496094 160.140625 C 224.511719 160.140625 222.898438 161.039062 222.898438 162.148438 Z M 236.574219 166.304688 C 236.140625 166.214844 235.730469 166.484375 235.644531 166.910156 C 235.636719 166.933594 235.171875 169.015625 232.082031 169.015625 C 228.863281 169.015625 227.320312 166.042969 227.257812 165.917969 C 227.125 165.648438 226.808594 165.484375 226.511719 165.484375 C 226.210938 165.484375 225.945312 165.648438 225.808594 165.917969 C 225.746094 166.042969 224.195312 169.015625 220.988281 169.015625 C 217.949219 169.015625 217.445312 166.988281 217.421875 166.910156 C 217.335938 166.484375 216.917969 166.207031 216.492188 166.304688 C 216.070312 166.390625 215.792969 166.804688 215.886719 167.230469 C 216.132812 168.394531 217.507812 170.589844 220.996094 170.589844 C 223.835938 170.589844 225.644531 168.851562 226.550781 167.671875 C 227.453125 168.851562 229.265625 170.589844 232.105469 170.589844 C 235.582031 170.589844 236.96875 168.386719 237.203125 167.230469 C 237.265625 166.804688 237 166.390625 236.574219 166.304688 Z M 212.183594 135.757812 L 205.226562 128.101562 C 204.351562 127.144531 202.753906 127.859375 202.898438 129.148438 L 204.25 141.699219 C 204.367188 142.777344 205.652344 143.28125 206.46875 142.566406 L 212.070312 137.664062 C 212.636719 137.175781 212.695312 136.308594 212.183594 135.757812 Z M 246.289062 128.101562 L 239.335938 135.757812 C 238.832031 136.316406 238.878906 137.175781 239.445312 137.671875 L 245.046875 142.574219 C 245.867188 143.289062 247.148438 142.785156 247.265625 141.707031 L 248.621094 129.15625 C 248.761719 127.859375 247.164062 127.144531 246.289062 128.101562 Z M 246.289062 128.101562 " fill-opacity="1" fill-rule="nonzero"/><path fill="#ffd8ca" d="M 317.679688 191.261719 C 319.292969 193.28125 317.449219 196.5 317.449219 196.5 C 317.449219 196.5 320.464844 196.902344 319.457031 200.449219 C 318.449219 204 314.367188 204.875 310.085938 204.402344 C 305.796875 203.929688 307.742188 201.859375 307.742188 201.859375 C 307.742188 201.859375 304.996094 202.0625 302.515625 199.648438 C 300.039062 197.234375 296.089844 198.175781 294.214844 191.078125 C 292.34375 183.984375 307.144531 180.898438 307.144531 180.898438 C 307.144531 180.898438 319.269531 169.007812 321.683594 165.988281 C 323.691406 163.476562 332.15625 168.742188 313.570312 184.210938 C 313.570312 184.210938 329.84375 185.925781 333.597656 186.65625 C 337.316406 187.382812 336.59375 193.363281 317.679688 191.261719 Z M 317.679688 191.261719 " fill-opacity="1" fill-rule="nonzero"/><path fill="#2b1200" d="M 318.074219 191.238281 C 318.089844 191.457031 317.921875 191.640625 317.703125 191.65625 C 317.632812 191.664062 311.125 192.054688 306.324219 193.621094 C 307.363281 194.652344 308.742188 196.359375 309.039062 198.320312 C 312.761719 198.207031 314.476562 197.105469 314.492188 197.089844 C 314.671875 196.972656 314.917969 197.019531 315.035156 197.203125 C 315.152344 197.382812 315.105469 197.625 314.925781 197.746094 C 314.847656 197.800781 313.042969 198.972656 309.085938 199.097656 C 309.078125 200.066406 308.789062 201.074219 308.046875 202.078125 C 307.96875 202.183594 307.851562 202.246094 307.734375 202.246094 C 307.65625 202.246094 307.570312 202.222656 307.503906 202.167969 C 307.332031 202.039062 307.292969 201.789062 307.417969 201.617188 C 308.128906 200.648438 308.363281 199.671875 308.300781 198.75 C 308.300781 198.742188 308.292969 198.726562 308.292969 198.71875 C 308.292969 198.710938 308.292969 198.703125 308.292969 198.695312 C 308.128906 196.539062 306.363281 194.667969 305.359375 193.761719 C 305.351562 193.761719 305.351562 193.753906 305.351562 193.753906 C 304.980469 193.425781 304.710938 193.226562 304.664062 193.1875 C 304.585938 193.132812 304.53125 193.046875 304.515625 192.953125 L 303.539062 188.335938 C 303.492188 188.121094 303.632812 187.910156 303.847656 187.871094 C 304.058594 187.824219 304.273438 187.957031 304.3125 188.175781 L 305.261719 192.652344 C 305.359375 192.722656 305.5 192.84375 305.679688 193 C 310.605469 191.285156 317.371094 190.875 317.664062 190.859375 C 317.867188 190.851562 318.058594 191.015625 318.074219 191.238281 Z M 185.226562 122.648438 C 184.871094 122.894531 176.484375 129.046875 177.949219 168.417969 C 177.957031 168.632812 178.128906 168.796875 178.339844 168.796875 C 178.347656 168.796875 178.347656 168.796875 178.355469 168.796875 C 178.578125 168.789062 178.742188 168.609375 178.734375 168.386719 C 177.285156 129.644531 185.585938 123.351562 185.667969 123.296875 C 185.847656 123.167969 185.886719 122.933594 185.769531 122.753906 C 185.648438 122.578125 185.40625 122.53125 185.226562 122.648438 Z M 185.226562 122.648438 " fill-opacity="1" fill-rule="nonzero"/><path fill="#a2c3e6" d="M 256.261719 34.179688 C 256.714844 34.761719 256.984375 35.492188 256.984375 36.289062 C 256.984375 38.175781 255.449219 39.710938 253.5625 39.710938 C 253.105469 39.710938 252.671875 39.625 252.277344 39.460938 C 252.214844 41.292969 250.710938 42.765625 248.863281 42.765625 C 247.550781 42.765625 246.410156 42.023438 245.835938 40.9375 C 245.308594 41.277344 244.679688 41.472656 244 41.472656 C 242.113281 41.472656 240.578125 39.9375 240.578125 38.050781 C 240.578125 37.242188 240.863281 36.5 241.332031 35.910156 C 239.507812 35.839844 238.042969 34.335938 238.042969 32.496094 C 238.042969 30.609375 239.578125 29.074219 241.46875 29.074219 C 241.695312 29.074219 241.925781 29.097656 242.144531 29.144531 C 241.71875 28.578125 241.46875 27.871094 241.46875 27.105469 C 241.46875 25.21875 243 23.683594 244.890625 23.683594 C 246.078125 23.683594 247.125 24.289062 247.738281 25.203125 C 248.28125 24.023438 249.46875 23.195312 250.855469 23.195312 C 252.742188 23.195312 254.277344 24.730469 254.277344 26.617188 C 254.277344 27.042969 254.199219 27.453125 254.058594 27.828125 C 254.230469 27.804688 254.402344 27.78125 254.582031 27.78125 C 256.472656 27.78125 258.007812 29.316406 258.007812 31.207031 C 258.007812 32.480469 257.304688 33.589844 256.261719 34.179688 Z M 238.109375 25.058594 C 238.109375 23.871094 237.140625 22.90625 235.953125 22.90625 C 235.839844 22.90625 235.722656 22.914062 235.621094 22.9375 C 235.707031 22.699219 235.761719 22.441406 235.761719 22.171875 C 235.761719 20.984375 234.796875 20.015625 233.605469 20.015625 C 232.734375 20.015625 231.984375 20.535156 231.648438 21.277344 C 231.261719 20.703125 230.601562 20.316406 229.855469 20.316406 C 228.664062 20.316406 227.699219 21.285156 227.699219 22.472656 C 227.699219 22.953125 227.855469 23.390625 228.121094 23.753906 C 227.980469 23.722656 227.839844 23.714844 227.699219 23.714844 C 226.511719 23.714844 225.542969 24.683594 225.542969 25.871094 C 225.542969 27.035156 226.460938 27.980469 227.613281 28.019531 C 227.3125 28.386719 227.140625 28.851562 227.140625 29.363281 C 227.140625 30.550781 228.105469 31.519531 229.296875 31.519531 C 229.71875 31.519531 230.113281 31.394531 230.453125 31.183594 C 230.8125 31.867188 231.53125 32.332031 232.355469 32.332031 C 233.519531 32.332031 234.464844 31.410156 234.503906 30.253906 C 234.757812 30.355469 235.023438 30.410156 235.316406 30.410156 C 236.503906 30.410156 237.46875 29.441406 237.46875 28.253906 C 237.46875 27.75 237.296875 27.292969 237.015625 26.933594 C 237.667969 26.570312 238.109375 25.863281 238.109375 25.058594 Z M 224.574219 29.820312 C 225.226562 28.515625 224.699219 26.933594 223.394531 26.28125 C 223.269531 26.21875 223.140625 26.167969 223.015625 26.128906 C 223.246094 25.917969 223.441406 25.667969 223.582031 25.375 C 224.234375 24.070312 223.707031 22.488281 222.402344 21.835938 C 221.449219 21.355469 220.339844 21.511719 219.5625 22.140625 C 219.453125 21.300781 218.941406 20.519531 218.121094 20.109375 C 216.816406 19.457031 215.234375 19.984375 214.582031 21.292969 C 214.320312 21.820312 214.25 22.394531 214.347656 22.929688 C 214.210938 22.824219 214.0625 22.730469 213.90625 22.644531 C 212.597656 21.992188 211.015625 22.519531 210.363281 23.824219 C 209.726562 25.101562 210.222656 26.632812 211.457031 27.320312 C 210.929688 27.5625 210.484375 27.980469 210.199219 28.539062 C 209.546875 29.84375 210.074219 31.425781 211.378906 32.078125 C 211.84375 32.316406 212.347656 32.394531 212.828125 32.339844 C 212.851562 33.28125 213.378906 34.1875 214.28125 34.644531 C 215.558594 35.28125 217.101562 34.785156 217.777344 33.542969 C 217.996094 33.785156 218.265625 34 218.570312 34.15625 C 219.878906 34.808594 221.457031 34.28125 222.113281 32.976562 C 222.386719 32.425781 222.449219 31.828125 222.332031 31.277344 C 223.261719 31.230469 224.132812 30.703125 224.574219 29.820312 Z M 224.574219 29.820312 " fill-opacity="1" fill-rule="nonzero"/><path fill="#f4abba" d="M 252.292969 32.976562 C 252.292969 35.070312 250.59375 36.769531 248.5 36.769531 C 246.410156 36.769531 244.710938 35.070312 244.710938 32.976562 C 244.710938 30.882812 246.410156 29.183594 248.5 29.183594 C 250.59375 29.183594 252.292969 30.882812 252.292969 32.976562 Z M 232.121094 23.785156 C 230.796875 23.785156 229.726562 24.855469 229.726562 26.175781 C 229.726562 27.5 230.796875 28.570312 232.121094 28.570312 C 233.441406 28.570312 234.511719 27.5 234.511719 26.175781 C 234.511719 24.855469 233.441406 23.785156 232.121094 23.785156 Z M 218.710938 25.15625 C 217.265625 24.429688 215.511719 25.019531 214.785156 26.46875 C 214.0625 27.917969 214.652344 29.671875 216.101562 30.394531 C 217.546875 31.117188 219.304688 30.527344 220.027344 29.082031 C 220.742188 27.632812 220.160156 25.871094 218.710938 25.15625 Z M 218.710938 25.15625 " fill-opacity="1" fill-rule="nonzero"/><path fill="#2b1200" d="M 127.597656 342.085938 C 127.222656 344.636719 125.496094 351.503906 118.078125 352.121094 C 110.171875 352.757812 106.195312 345.421875 105.277344 343.457031 C 105.152344 343.195312 105.085938 343.023438 105.0625 342.984375 C 105.167969 342.316406 105.269531 341.648438 105.386719 340.984375 C 106.132812 336.722656 107.140625 332.785156 107.984375 329.851562 C 108.972656 326.429688 109.148438 322.816406 108.542969 319.300781 C 105.007812 298.648438 104.976562 267.542969 105.015625 260.46875 C 105.023438 259.421875 105.183594 258.378906 105.519531 257.394531 C 111.460938 240.121094 130.550781 254.546875 127.890625 262.941406 C 125.441406 270.636719 123.609375 313.148438 123.238281 322.371094 C 123.191406 323.511719 123.339844 324.644531 123.679688 325.738281 C 124.484375 328.308594 126.070312 333.691406 127.394531 339.6875 C 127.503906 340.175781 127.613281 340.671875 127.714844 341.160156 C 127.714844 341.160156 127.714844 341.167969 127.714844 341.175781 C 127.707031 341.238281 127.683594 341.574219 127.597656 342.085938 Z M 146.308594 341.984375 C 146.65625 344.542969 148.285156 351.425781 155.695312 352.144531 C 163.59375 352.890625 167.671875 345.613281 168.617188 343.652344 C 168.75 343.394531 168.8125 343.21875 168.835938 343.179688 C 168.742188 342.511719 168.648438 341.835938 168.535156 341.175781 C 167.851562 336.902344 166.890625 332.953125 166.089844 330 C 165.144531 326.5625 165.019531 322.953125 165.671875 319.441406 C 169.480469 298.84375 169.9375 267.738281 169.992188 260.660156 C 170 259.613281 169.851562 258.566406 169.527344 257.574219 C 163.824219 240.226562 144.539062 254.386719 147.089844 262.824219 C 149.425781 270.550781 150.691406 313.085938 150.9375 322.304688 C 150.96875 323.449219 150.800781 324.582031 150.457031 325.667969 C 149.613281 328.222656 147.960938 333.589844 146.554688 339.5625 C 146.433594 340.050781 146.324219 340.535156 146.214844 341.023438 C 146.214844 341.023438 146.214844 341.03125 146.214844 341.039062 C 146.222656 341.136719 146.238281 341.472656 146.308594 341.984375 Z M 146.308594 341.984375 " fill-opacity="1" fill-rule="nonzero"/><path fill="#a2c3e6" d="M 127.707031 341.160156 C 128.832031 346.484375 129.667969 352.160156 129.519531 356.683594 C 129.101562 368.824219 117.511719 374.976562 108.910156 366.769531 C 103.742188 361.835938 103.703125 351.929688 105.054688 342.976562 C 105.199219 343.347656 109.109375 352.84375 118.070312 352.121094 C 127.007812 351.378906 127.683594 341.605469 127.707031 341.160156 Z M 127.597656 342.085938 C 127.675781 341.574219 127.699219 341.238281 127.707031 341.160156 C 127.707031 341.152344 127.707031 341.144531 127.707031 341.144531 C 127.605469 340.65625 127.496094 340.160156 127.386719 339.671875 C 122.222656 339.144531 113.71875 338.828125 105.378906 340.96875 C 105.261719 341.628906 105.160156 342.300781 105.054688 342.96875 C 105.078125 343.007812 105.140625 343.179688 105.269531 343.441406 C 113.671875 341.160156 122.539062 341.550781 127.597656 342.085938 Z M 168.835938 343.179688 C 168.6875 343.542969 164.648438 352.992188 155.703125 352.152344 C 146.789062 351.292969 146.246094 341.511719 146.222656 341.0625 C 145.027344 346.375 144.113281 352.03125 144.199219 356.566406 C 144.453125 368.714844 155.964844 375.015625 164.664062 366.925781 C 169.898438 362.058594 170.070312 352.152344 168.835938 343.179688 Z M 168.617188 343.652344 C 168.75 343.394531 168.8125 343.21875 168.835938 343.179688 C 168.742188 342.511719 168.648438 341.835938 168.535156 341.175781 C 160.226562 338.917969 151.722656 339.121094 146.554688 339.578125 C 146.433594 340.066406 146.324219 340.554688 146.214844 341.039062 C 146.214844 341.039062 146.214844 341.046875 146.214844 341.054688 C 146.222656 341.136719 146.238281 341.472656 146.308594 341.984375 C 151.382812 341.519531 160.25 341.246094 168.617188 343.652344 Z M 168.617188 343.652344 " fill-opacity="1" fill-rule="nonzero"/><path fill="#ffd8ca" d="M 84.738281 184.917969 C 81.121094 190.480469 53.132812 201.542969 53.132812 201.542969 C 52.699219 207.328125 46.035156 207.414062 43.621094 212.535156 C 41.214844 217.660156 35.585938 218.265625 37.59375 213.339844 C 38.546875 211.011719 38.726562 207.894531 38.664062 205.257812 C 36.035156 205.070312 33.675781 204.394531 33.675781 204.394531 C 33.675781 204.394531 34.683594 208.414062 32.574219 208.609375 C 30.464844 208.808594 29.859375 203.90625 29.859375 203.90625 C 29.859375 203.90625 29.757812 208.003906 27.546875 208.003906 C 25.335938 208.003906 26.34375 202.882812 26.34375 202.882812 C 26.34375 202.882812 23.328125 206.699219 22.125 205.496094 C 20.921875 204.289062 23.328125 199.375 24.539062 197.058594 C 24.800781 196.5625 25.515625 196.132812 26.476562 195.761719 C 23.25 196.027344 17.523438 196.359375 16.804688 195.351562 C 15.796875 193.945312 19.015625 192.015625 27.757812 191.214844 C 36.5 190.410156 46.171875 193.945312 46.171875 193.945312 L 72.953125 174.660156 C 82.695312 167.65625 88.351562 179.355469 84.738281 184.917969 Z M 84.738281 184.917969 " fill-opacity="1" fill-rule="nonzero"/><path fill="#a2c3e6" d="M 168.449219 56.203125 C 168.449219 78.09375 150.707031 95.84375 128.808594 95.84375 C 106.914062 95.84375 89.179688 78.09375 89.179688 56.203125 C 89.179688 34.3125 106.921875 16.5625 128.816406 16.5625 C 150.714844 16.5625 168.449219 34.3125 168.449219 56.203125 Z M 168.449219 56.203125 " fill-opacity="1" fill-rule="nonzero"/><path fill="#a2c3e6" d="M 207.710938 274.113281 C 199.78125 277.464844 194.667969 262.59375 194.496094 262.074219 C 194.597656 262.632812 196.886719 274.925781 187.859375 275.113281 C 178.796875 275.308594 173.980469 261.625 173.800781 261.089844 C 173.925781 261.640625 176.742188 274.515625 164.554688 274.515625 C 153.578125 274.515625 150.558594 265.152344 149.992188 262.933594 C 150.472656 265.285156 151.949219 275.65625 141.453125 276.726562 C 129.597656 277.929688 128.792969 263.664062 128.792969 263.664062 C 128.792969 263.664062 126.386719 276.316406 114.53125 276.921875 C 103.175781 277.503906 105.464844 264.804688 105.675781 263.734375 C 105.363281 264.726562 101.65625 276.027344 92.632812 278.332031 C 83.191406 280.738281 84.597656 267.898438 84.597656 267.898438 C 84.597656 267.898438 70.539062 284.957031 65.746094 277.726562 C 60.953125 270.492188 76.761719 252.214844 76.761719 252.214844 C 60.695312 238.957031 93.441406 192.75 93.441406 192.75 C 85.558594 192.550781 91.972656 185.210938 92.222656 184.917969 C 92.074219 185.003906 89.839844 186.242188 86.535156 186.328125 C 85.777344 190.105469 84.207031 195.195312 81.246094 195.03125 C 76.558594 194.761719 79.105469 184.917969 79.105469 184.917969 C 79.105469 184.917969 71.609375 193.28125 68.257812 189.277344 C 64.90625 185.265625 72.277344 180.566406 72.277344 180.566406 C 72.277344 180.566406 58.75 181.90625 60.222656 177.214844 C 60.804688 175.359375 64.722656 174.3125 69.238281 173.730469 C 68.871094 173.070312 68.492188 172.386719 68.128906 171.660156 C 57.476562 150.574219 86.007812 127.660156 86.007812 127.660156 C 90.625 89.691406 132.507812 90.328125 132.507812 90.328125 C 132.507812 90.328125 185.398438 87.210938 181.8125 102.964844 C 178.339844 118.226562 169.378906 142.902344 169.378906 142.902344 C 169.378906 142.902344 174.398438 159.199219 181.269531 175.675781 C 188.136719 192.148438 181.269531 189.539062 181.269531 189.539062 L 181.644531 190.050781 C 181.738281 190.183594 181.859375 190.339844 181.992188 190.519531 C 185.785156 195.707031 195.257812 219.421875 198.300781 230.515625 C 201.71875 242.980469 202.890625 249.605469 202.890625 249.605469 C 202.890625 249.605469 215.785156 270.699219 207.710938 274.113281 Z M 207.710938 274.113281 " fill-opacity="1" fill-rule="nonzero"/><path fill="#2b1200" d="M 142.824219 50.71875 C 155.648438 56.140625 154.3125 69.398438 156.371094 89.09375 C 158.433594 108.777344 171.472656 115.472656 165.554688 117.621094 C 159.636719 119.769531 148.742188 108.265625 145.867188 100.296875 C 142.195312 90.105469 124.8125 77.980469 119.925781 100.738281 C 115.039062 123.492188 100.058594 127.542969 101.46875 122.585938 C 103.480469 115.503906 109.507812 102.757812 103.890625 90.074219 C 98.273438 77.390625 108.527344 57.226562 108.527344 57.226562 C 112.796875 33.085938 130.007812 45.296875 142.824219 50.71875 Z M 142.824219 50.71875 " fill-opacity="1" fill-rule="nonzero"/><path fill="#f4abba" d="M 207.710938 274.113281 C 199.890625 277.417969 194.808594 263.011719 194.503906 262.105469 C 194.660156 262.980469 196.761719 274.925781 187.859375 275.113281 C 178.796875 275.308594 173.980469 261.625 173.800781 261.089844 C 173.925781 261.640625 174.933594 273.105469 162.746094 273.105469 C 151.769531 273.105469 150.558594 265.152344 149.992188 262.933594 C 150.472656 265.285156 151.949219 275.65625 141.453125 276.726562 C 129.597656 277.929688 128.792969 263.664062 128.792969 263.664062 C 128.792969 263.664062 126.386719 276.316406 114.53125 276.921875 C 103.175781 277.503906 105.464844 264.804688 105.675781 263.734375 C 105.363281 264.726562 101.65625 276.027344 92.632812 278.332031 C 83.191406 280.738281 84.597656 267.898438 84.597656 267.898438 C 84.597656 267.898438 70.539062 284.957031 65.746094 277.726562 C 60.953125 270.492188 76.761719 252.214844 76.761719 252.214844 C 60.695312 238.957031 93.441406 192.746094 93.441406 192.746094 C 128.660156 189.804688 119.925781 100.730469 119.925781 100.730469 L 134.160156 94.285156 L 144.871094 98.367188 C 143.398438 202.734375 181.269531 189.539062 181.269531 189.539062 L 181.644531 190.050781 L 181.992188 190.519531 C 185.785156 195.707031 200.671875 222.433594 203.714844 233.527344 C 207.128906 245.992188 202.890625 249.605469 202.890625 249.605469 L 202.898438 249.613281 C 203.195312 250.101562 215.691406 270.738281 207.710938 274.113281 Z M 207.710938 274.113281 " fill-opacity="1" fill-rule="nonzero"/><path fill="#ffd8ca" d="M 144.871094 98.367188 C 145.207031 98.980469 145.324219 99.683594 145.222656 100.375 C 144.789062 103.324219 143.894531 106.859375 142.824219 110.40625 C 141.296875 115.449219 139.417969 120.542969 138.039062 124.097656 C 137.152344 126.394531 134.089844 126.890625 132.554688 124.964844 C 129.375 120.964844 126.449219 115.992188 124.183594 111.683594 C 122.230469 107.96875 120.761719 104.742188 120.027344 103.066406 C 119.707031 102.328125 119.660156 101.492188 119.925781 100.730469 C 121.3125 96.820312 122.695312 90.097656 122.941406 88.886719 C 122.957031 88.816406 122.964844 88.746094 122.972656 88.667969 C 115.015625 85.125 109.085938 76.242188 108.566406 66.40625 C 107.878906 53.324219 116.96875 42.207031 128.867188 41.582031 C 140.753906 40.960938 150.953125 51.074219 151.636719 64.15625 C 152.132812 73.574219 147.597656 82.625 140.589844 87.210938 C 140.589844 87.21875 140.589844 87.21875 140.597656 87.226562 C 142.117188 92.957031 143.988281 96.761719 144.871094 98.367188 Z M 144.871094 98.367188 " fill-opacity="1" fill-rule="nonzero"/><path fill="#2b1200" d="M 133.261719 41.84375 C 133.261719 41.84375 127.527344 62.820312 108.542969 64.566406 C 89.554688 66.3125 102.949219 48.507812 102.949219 48.507812 C 102.949219 48.507812 108.636719 24.132812 130.101562 32.566406 C 130.101562 32.566406 140.449219 25.453125 153.570312 40.527344 C 166.695312 55.605469 151.667969 63.472656 151.667969 63.472656 C 151.667969 63.472656 148.324219 60.050781 146.9375 56.304688 C 146.277344 54.519531 145.011719 53.03125 143.28125 52.238281 C 140.265625 50.84375 135.75 47.855469 133.261719 41.84375 Z M 133.261719 41.84375 " fill-opacity="1" fill-rule="nonzero"/><path fill="#ffd8ca" d="M 113.019531 70.277344 C 114.222656 74.402344 112.894531 78.414062 110.042969 79.25 C 107.195312 80.082031 103.90625 77.414062 102.703125 73.292969 C 101.5 69.167969 102.828125 65.15625 105.675781 64.324219 C 108.527344 63.488281 111.808594 66.15625 113.019531 70.277344 Z M 147.625 68.46875 C 146.851562 72.695312 148.597656 76.550781 151.519531 77.085938 C 154.4375 77.621094 157.425781 74.621094 158.199219 70.398438 C 158.96875 66.171875 157.222656 62.316406 154.304688 61.78125 C 151.375 61.253906 148.386719 64.242188 147.625 68.46875 Z M 147.625 68.46875 " fill-opacity="1" fill-rule="nonzero"/><path fill="#a2c3e6" d="M 142.824219 110.40625 C 141.296875 115.449219 139.417969 120.542969 138.039062 124.097656 C 137.152344 126.394531 134.089844 126.890625 132.554688 124.964844 C 129.375 120.964844 126.449219 115.992188 124.183594 111.683594 C 124.285156 110.03125 125.609375 108.667969 127.308594 108.574219 C 128.472656 108.503906 129.535156 109.039062 130.1875 109.902344 C 130.296875 108.25 131.601562 106.898438 133.296875 106.796875 C 134.957031 106.691406 136.394531 107.820312 136.75 109.390625 C 137.300781 108.511719 138.253906 107.898438 139.363281 107.835938 C 141.015625 107.730469 142.460938 108.847656 142.824219 110.40625 Z M 202.898438 249.613281 L 202.890625 249.605469 C 195.019531 250.210938 191.070312 239.957031 191.070312 239.957031 C 191.070312 239.957031 192.078125 247.1875 185.445312 247.992188 C 180.589844 248.582031 177.011719 241.894531 175.40625 238.707031 C 176.175781 241.011719 176.238281 245.449219 170.246094 246.386719 C 161.675781 247.730469 156.035156 233.488281 155.546875 232.214844 C 155.910156 233.425781 159.441406 245.867188 149.691406 247.394531 C 139.441406 249 136.78125 232.121094 136.78125 232.121094 C 136.78125 232.363281 136.734375 247 125.585938 247.992188 C 114.726562 248.957031 116.402344 236.660156 116.535156 235.789062 C 116.324219 236.597656 113.378906 247.472656 104.488281 249.398438 C 95.246094 251.414062 95.449219 241.367188 95.449219 241.367188 C 88.816406 254.222656 76.761719 252.214844 76.761719 252.214844 C 76.761719 252.214844 60.953125 270.492188 65.746094 277.726562 C 70.539062 284.957031 84.597656 267.898438 84.597656 267.898438 C 84.597656 267.898438 83.191406 280.738281 92.632812 278.332031 C 101.65625 276.027344 105.363281 264.726562 105.675781 263.734375 C 104.089844 266.703125 103.175781 277.503906 114.53125 276.921875 C 126.386719 276.316406 128.792969 263.664062 128.792969 263.664062 C 128.792969 263.664062 129.164062 277.820312 141.054688 276.921875 C 152.398438 276.066406 150.472656 265.285156 149.992188 262.933594 C 150.558594 265.152344 150.542969 276.074219 164.554688 274.515625 C 176.671875 273.167969 173.925781 261.640625 173.800781 261.089844 C 173.980469 261.625 178.796875 275.308594 187.859375 275.113281 C 196.761719 274.925781 194.660156 262.980469 194.503906 262.105469 C 194.808594 263.011719 199.890625 277.417969 207.710938 274.113281 C 215.691406 270.738281 203.195312 250.101562 202.898438 249.613281 Z M 202.898438 249.613281 " fill-opacity="1" fill-rule="nonzero"/><path fill="#a2c3e6" d="M 136.527344 162.667969 C 134.789062 162.667969 133.375 161.25 133.375 159.511719 C 133.375 157.773438 134.789062 156.359375 136.527344 156.359375 C 138.269531 156.359375 139.683594 157.773438 139.683594 159.511719 C 139.683594 161.25 138.269531 162.667969 136.527344 162.667969 Z M 136.527344 157.144531 C 135.222656 157.144531 134.160156 158.207031 134.160156 159.511719 C 134.160156 160.820312 135.222656 161.882812 136.527344 161.882812 C 137.835938 161.882812 138.898438 160.820312 138.898438 159.511719 C 138.898438 158.207031 137.835938 157.144531 136.527344 157.144531 Z M 136.773438 176.167969 C 135.035156 176.167969 133.617188 174.753906 133.617188 173.015625 C 133.617188 171.277344 135.035156 169.859375 136.773438 169.859375 C 138.511719 169.859375 139.929688 171.277344 139.929688 173.015625 C 139.929688 174.753906 138.511719 176.167969 136.773438 176.167969 Z M 136.773438 170.644531 C 135.464844 170.644531 134.40625 171.707031 134.40625 173.015625 C 134.40625 174.320312 135.464844 175.382812 136.773438 175.382812 C 138.078125 175.382812 139.140625 174.320312 139.140625 173.015625 C 139.140625 171.707031 138.078125 170.644531 136.773438 170.644531 Z M 136.773438 189.671875 C 135.035156 189.671875 133.617188 188.253906 133.617188 186.515625 C 133.617188 184.777344 135.035156 183.359375 136.773438 183.359375 C 138.511719 183.359375 139.929688 184.777344 139.929688 186.515625 C 139.929688 188.253906 138.511719 189.671875 136.773438 189.671875 Z M 136.773438 184.148438 C 135.464844 184.148438 134.40625 185.210938 134.40625 186.515625 C 134.40625 187.824219 135.464844 188.886719 136.773438 188.886719 C 138.078125 188.886719 139.140625 187.824219 139.140625 186.515625 C 139.140625 185.210938 138.078125 184.148438 136.773438 184.148438 Z M 136.773438 184.148438 " fill-opacity="1" fill-rule="nonzero"/><path fill="#2b1200" d="M 140.21875 87.464844 C 139.675781 91.5 136.105469 94.617188 131.785156 94.617188 C 128.03125 94.617188 124.84375 92.261719 123.71875 89.003906 C 126.144531 89.964844 128.730469 90.4375 131.40625 90.296875 C 134.59375 90.128906 137.574219 89.117188 140.21875 87.464844 Z M 139.628906 60.664062 C 137.867188 60.664062 136.433594 62.097656 136.433594 63.859375 C 136.433594 65.621094 137.867188 67.054688 139.628906 67.054688 C 141.390625 67.054688 142.824219 65.621094 142.824219 63.859375 C 142.824219 62.097656 141.390625 60.664062 139.628906 60.664062 Z M 123.71875 65.9375 C 123.71875 67.699219 122.289062 69.128906 120.523438 69.128906 C 118.761719 69.128906 117.332031 67.699219 117.332031 65.9375 C 117.332031 64.171875 118.761719 62.742188 120.523438 62.742188 C 122.289062 62.742188 123.71875 64.171875 123.71875 65.9375 Z M 109.816406 70.902344 C 109.667969 70.902344 109.523438 70.8125 109.453125 70.664062 C 108.722656 69.011719 107.871094 68.117188 106.9375 67.980469 C 105.683594 67.808594 104.609375 69.074219 104.589844 69.089844 C 104.449219 69.257812 104.207031 69.28125 104.039062 69.136719 C 103.875 68.996094 103.851562 68.753906 103.984375 68.585938 C 104.039062 68.523438 105.347656 66.972656 107.039062 67.203125 C 108.265625 67.375 109.320312 68.429688 110.179688 70.351562 C 110.265625 70.546875 110.179688 70.78125 109.980469 70.871094 C 109.925781 70.894531 109.871094 70.902344 109.816406 70.902344 Z M 150.929688 68.019531 C 150.871094 68.019531 150.816406 68.011719 150.769531 67.988281 C 150.574219 67.902344 150.480469 67.667969 150.574219 67.46875 C 151.421875 65.550781 152.476562 64.496094 153.714844 64.324219 C 155.40625 64.085938 156.710938 65.644531 156.765625 65.707031 C 156.90625 65.871094 156.882812 66.125 156.710938 66.257812 C 156.546875 66.398438 156.292969 66.375 156.160156 66.210938 C 156.152344 66.195312 155.066406 64.929688 153.816406 65.101562 C 152.878906 65.234375 152.03125 66.132812 151.296875 67.785156 C 151.226562 67.933594 151.085938 68.019531 150.929688 68.019531 Z M 130.558594 79.335938 C 126.464844 79.335938 123.53125 77.25 123.492188 77.21875 C 123.316406 77.09375 123.277344 76.847656 123.40625 76.667969 C 123.53125 76.496094 123.773438 76.457031 123.957031 76.582031 C 124.207031 76.761719 130.179688 80.980469 136.953125 76.574219 C 137.136719 76.457031 137.378906 76.511719 137.496094 76.691406 C 137.613281 76.871094 137.566406 77.117188 137.378906 77.234375 C 134.964844 78.808594 132.609375 79.335938 130.558594 79.335938 Z M 128.660156 71.601562 C 128.472656 71.601562 128.304688 71.46875 128.273438 71.269531 C 128.007812 69.710938 129.527344 68.933594 130.359375 68.746094 C 130.574219 68.699219 130.785156 68.832031 130.832031 69.042969 C 130.878906 69.257812 130.746094 69.46875 130.535156 69.515625 C 130.460938 69.53125 128.839844 69.925781 129.046875 71.144531 C 129.085938 71.355469 128.9375 71.5625 128.722656 71.601562 C 128.699219 71.601562 128.675781 71.601562 128.660156 71.601562 Z M 141.15625 55.878906 L 135.363281 55.878906 C 134.4375 55.878906 133.6875 55.132812 133.6875 54.203125 C 133.6875 53.277344 134.4375 52.527344 135.363281 52.527344 L 141.15625 52.527344 C 142.082031 52.527344 142.832031 53.277344 142.832031 54.203125 C 142.824219 55.125 142.074219 55.878906 141.15625 55.878906 Z M 141.15625 55.878906 " fill-opacity="1" fill-rule="nonzero"/><path fill="#2b1200" d="M 120.644531 97.0625 C 120.730469 96.867188 120.964844 96.777344 121.164062 96.867188 C 133.996094 102.671875 143.042969 95.101562 143.136719 95.023438 C 143.304688 94.882812 143.554688 94.898438 143.6875 95.0625 C 143.832031 95.230469 143.816406 95.472656 143.648438 95.613281 C 143.578125 95.667969 138.621094 99.832031 130.832031 99.832031 C 127.875 99.832031 124.5 99.234375 120.839844 97.574219 C 120.636719 97.488281 120.546875 97.257812 120.644531 97.0625 Z M 198.820312 222.175781 C 198.882812 222.324219 199.035156 222.417969 199.183594 222.417969 C 199.230469 222.417969 199.285156 222.410156 199.332031 222.386719 C 199.539062 222.308594 199.632812 222.082031 199.554688 221.875 C 195.382812 211.539062 182.117188 190.058594 181.984375 189.84375 C 181.867188 189.664062 181.628906 189.601562 181.441406 189.71875 C 181.261719 189.835938 181.195312 190.074219 181.316406 190.261719 C 181.449219 190.472656 194.675781 211.898438 198.820312 222.175781 Z M 207.746094 258.140625 C 207.632812 257.953125 207.390625 257.898438 207.203125 258 C 207.011719 258.109375 206.949219 258.351562 207.058594 258.542969 C 207.105469 258.621094 211.550781 266.222656 210.019531 270.910156 C 209.570312 272.28125 208.640625 273.273438 207.25 273.871094 C 205.957031 274.429688 204.636719 274.414062 203.332031 273.839844 C 198.324219 271.644531 194.902344 262.066406 194.871094 261.972656 C 194.800781 261.777344 194.605469 261.675781 194.398438 261.722656 C 194.203125 261.777344 194.078125 261.972656 194.117188 262.167969 C 194.132812 262.242188 195.390625 269.335938 192.394531 272.808594 C 191.246094 274.136719 189.585938 274.773438 187.46875 274.703125 C 178.355469 274.390625 174.21875 261.097656 174.179688 260.964844 C 174.117188 260.761719 173.902344 260.644531 173.707031 260.699219 C 173.5 260.753906 173.375 260.957031 173.421875 261.164062 C 173.445312 261.257812 175.445312 270.667969 169.582031 273.058594 C 169.378906 273.136719 169.285156 273.375 169.371094 273.570312 C 169.449219 273.765625 169.6875 273.871094 169.882812 273.78125 C 174.09375 272.066406 174.691406 267.355469 174.5625 264.152344 C 176.390625 268.273438 180.496094 275.246094 187.453125 275.492188 C 187.570312 275.492188 187.6875 275.5 187.804688 275.5 C 190.007812 275.5 191.757812 274.765625 193 273.320312 C 195.019531 270.972656 195.28125 267.285156 195.179688 264.757812 C 196.585938 267.875 199.355469 272.941406 203.023438 274.546875 C 204.542969 275.207031 206.066406 275.222656 207.570312 274.578125 C 209.183594 273.886719 210.261719 272.730469 210.78125 271.140625 C 212.417969 266.128906 207.941406 258.464844 207.746094 258.140625 Z M 89.65625 129.792969 C 89.578125 129.589844 89.34375 129.496094 89.144531 129.574219 C 88.941406 129.652344 88.847656 129.890625 88.925781 130.085938 C 92.789062 139.628906 98.125 144.757812 99.148438 145.6875 L 91.835938 184.847656 C 91.796875 185.0625 91.941406 185.265625 92.152344 185.304688 C 92.175781 185.3125 92.199219 185.3125 92.222656 185.3125 C 92.410156 185.3125 92.578125 185.179688 92.609375 184.988281 L 99.957031 145.609375 C 99.980469 145.46875 99.933594 145.328125 99.824219 145.230469 C 99.769531 145.191406 93.851562 140.148438 89.65625 129.792969 Z M 115.75 132.824219 C 108.769531 128.386719 111.878906 121.554688 112.011719 121.265625 C 112.066406 121.148438 112.058594 121.003906 111.996094 120.894531 C 111.933594 120.785156 111.808594 120.714844 111.679688 120.707031 C 109.808594 120.605469 108.421875 119.96875 107.558594 118.800781 C 105.851562 116.519531 106.667969 112.917969 106.683594 112.886719 C 106.730469 112.671875 106.605469 112.460938 106.394531 112.414062 C 106.179688 112.367188 105.96875 112.492188 105.921875 112.703125 C 105.882812 112.871094 105 116.695312 106.929688 119.273438 C 107.847656 120.511719 109.25 121.242188 111.097656 121.445312 C 110.460938 123.253906 108.902344 129.402344 115.332031 133.484375 C 115.394531 133.523438 115.472656 133.546875 115.542969 133.546875 C 115.679688 133.546875 115.804688 133.484375 115.875 133.367188 C 115.984375 133.1875 115.9375 132.941406 115.75 132.824219 Z M 163.042969 99.507812 C 162.613281 96.976562 160.992188 94.875 158.230469 93.269531 C 158.039062 93.160156 157.804688 93.222656 157.695312 93.410156 C 157.585938 93.601562 157.648438 93.835938 157.835938 93.945312 C 160.386719 95.433594 161.878906 97.347656 162.273438 99.636719 C 163.078125 104.300781 159.078125 109.085938 159.039062 109.132812 C 158.953125 109.234375 158.921875 109.375 158.96875 109.511719 C 158.984375 109.558594 160.386719 113.886719 158.535156 116.605469 C 157.625 117.953125 156.050781 118.691406 153.847656 118.824219 C 153.714844 118.832031 153.59375 118.90625 153.53125 119.015625 C 153.46875 119.125 153.460938 119.265625 153.515625 119.382812 C 153.648438 119.675781 156.757812 126.503906 149.777344 130.941406 C 149.597656 131.0625 149.542969 131.304688 149.660156 131.484375 C 149.738281 131.605469 149.867188 131.667969 149.992188 131.667969 C 150.0625 131.667969 150.132812 131.644531 150.203125 131.605469 C 156.632812 127.519531 155.074219 121.367188 154.4375 119.566406 C 156.617188 119.335938 158.222656 118.488281 159.199219 117.046875 C 161.039062 114.339844 160.0625 110.429688 159.789062 109.480469 C 160.511719 108.550781 163.832031 104.089844 163.042969 99.507812 Z M 147.65625 145.199219 C 147.589844 145.207031 144.65625 145.476562 140.070312 145.734375 C 141.539062 141.0625 140.652344 132.132812 140.613281 131.738281 C 140.589844 131.523438 140.390625 131.367188 140.179688 131.382812 C 139.96875 131.40625 139.808594 131.597656 139.824219 131.816406 C 139.832031 131.910156 140.777344 141.367188 139.21875 145.773438 C 137.078125 145.894531 134.609375 145.996094 131.941406 146.074219 C 130.195312 144.679688 129.691406 136.695312 129.792969 131.785156 C 129.800781 131.566406 129.628906 131.390625 129.40625 131.382812 C 129.171875 131.375 129.015625 131.550781 129.007812 131.769531 C 128.984375 133.019531 128.839844 142.941406 130.933594 146.105469 C 127.472656 146.191406 123.6875 146.222656 119.808594 146.144531 C 119.597656 146.144531 119.414062 146.308594 119.40625 146.53125 C 119.398438 146.75 119.574219 146.921875 119.792969 146.929688 C 121.335938 146.960938 122.871094 146.980469 124.371094 146.980469 C 126.921875 146.980469 129.382812 146.9375 131.691406 146.875 C 131.730469 146.898438 131.761719 146.921875 131.800781 146.9375 C 131.855469 146.960938 131.910156 146.980469 131.972656 146.980469 C 132.074219 146.980469 132.160156 146.929688 132.234375 146.859375 C 141.125 146.601562 147.640625 145.996094 147.734375 145.988281 C 147.945312 145.964844 148.109375 145.773438 148.085938 145.5625 C 148.0625 145.335938 147.867188 145.167969 147.65625 145.199219 Z M 136.363281 109.359375 L 135.507812 121.398438 C 135.492188 121.621094 135.65625 121.800781 135.867188 121.816406 C 135.875 121.816406 135.882812 121.816406 135.898438 121.816406 C 136.105469 121.816406 136.277344 121.660156 136.292969 121.453125 L 137.152344 109.414062 C 137.167969 109.195312 137 109.015625 136.789062 109 C 136.558594 108.976562 136.371094 109.148438 136.363281 109.359375 Z M 130.09375 109.527344 C 129.878906 109.582031 129.753906 109.792969 129.808594 110.003906 L 132.617188 121.203125 C 132.664062 121.382812 132.824219 121.5 132.996094 121.5 C 133.027344 121.5 133.058594 121.5 133.089844 121.484375 C 133.304688 121.429688 133.429688 121.21875 133.375 121.003906 L 130.566406 109.808594 C 130.519531 109.597656 130.304688 109.472656 130.09375 109.527344 Z M 169.378906 143.296875 C 169.582031 143.296875 169.75 143.140625 169.773438 142.933594 L 173.382812 103.050781 C 173.398438 102.835938 173.242188 102.640625 173.03125 102.625 C 172.816406 102.601562 172.621094 102.765625 172.605469 102.980469 L 168.992188 142.863281 C 168.976562 143.074219 169.136719 143.273438 169.347656 143.289062 C 169.355469 143.296875 169.371094 143.296875 169.378906 143.296875 Z M 27.050781 195.1875 C 26.839844 195.15625 26.632812 195.296875 26.601562 195.519531 C 26.570312 195.730469 26.71875 195.933594 26.933594 195.964844 C 32.542969 196.832031 38.609375 198.265625 39.050781 199.152344 C 39.59375 200.238281 38.78125 205.863281 38.144531 209.160156 C 38.105469 209.375 38.238281 209.578125 38.460938 209.625 C 38.484375 209.632812 38.507812 209.632812 38.539062 209.632812 C 38.71875 209.632812 38.882812 209.5 38.921875 209.3125 C 39.097656 208.414062 40.597656 200.476562 39.765625 198.796875 C 38.898438 197.097656 29.023438 195.492188 27.050781 195.1875 Z M 32.464844 200.8125 L 28.042969 199.703125 C 27.867188 199.664062 27.695312 199.734375 27.601562 199.890625 L 25.996094 202.703125 C 25.886719 202.890625 25.957031 203.125 26.144531 203.238281 C 26.207031 203.269531 26.269531 203.292969 26.34375 203.292969 C 26.476562 203.292969 26.609375 203.222656 26.679688 203.09375 L 28.136719 200.539062 L 29.960938 200.992188 C 29.9375 201.035156 29.921875 201.082031 29.914062 201.128906 L 29.464844 203.851562 C 29.425781 204.0625 29.574219 204.265625 29.789062 204.304688 C 29.8125 204.304688 29.835938 204.3125 29.851562 204.3125 C 30.039062 204.3125 30.207031 204.179688 30.238281 203.984375 L 30.683594 201.261719 C 30.691406 201.238281 30.683594 201.207031 30.683594 201.183594 L 32.265625 201.578125 C 32.472656 201.625 32.691406 201.496094 32.746094 201.292969 C 32.800781 201.074219 32.675781 200.859375 32.464844 200.8125 Z M 33.675781 203.261719 C 33.597656 203.054688 33.375 202.953125 33.171875 203.03125 C 32.96875 203.109375 32.863281 203.332031 32.945312 203.535156 L 33.3125 204.542969 C 33.367188 204.699219 33.527344 204.800781 33.683594 204.800781 C 33.730469 204.800781 33.777344 204.792969 33.816406 204.777344 C 34.023438 204.699219 34.125 204.480469 34.046875 204.273438 Z M 33.675781 203.261719 " fill-opacity="1" fill-rule="nonzero"/><path fill="#c9846f" d="M 135.898438 100.289062 C 135.898438 101.886719 134.601562 103.183594 133.003906 103.183594 C 131.40625 103.183594 130.109375 101.886719 130.109375 100.289062 C 130.109375 98.691406 131.40625 97.394531 133.003906 97.394531 C 134.601562 97.394531 135.898438 98.691406 135.898438 100.289062 Z M 135.898438 100.289062 " fill-opacity="1" fill-rule="nonzero"/><path fill="#a2c3e6" d="M 56.414062 200.402344 C 56.414062 201.742188 55.335938 202.820312 54 202.820312 C 52.660156 202.820312 51.582031 201.742188 51.582031 200.402344 C 51.582031 199.875 51.757812 199.398438 52.039062 199.003906 C 51.890625 199.035156 51.742188 199.050781 51.582031 199.050781 C 50.246094 199.050781 49.167969 197.972656 49.167969 196.636719 C 49.167969 196.46875 49.183594 196.304688 49.214844 196.140625 C 48.949219 196.242188 48.664062 196.304688 48.367188 196.304688 C 47.027344 196.304688 45.949219 195.226562 45.949219 193.890625 C 45.949219 192.550781 47.027344 191.472656 48.367188 191.472656 C 49.703125 191.472656 50.78125 192.550781 50.78125 193.890625 C 50.78125 194.054688 50.765625 194.21875 50.734375 194.382812 C 51 194.28125 51.285156 194.21875 51.582031 194.21875 C 52.921875 194.21875 54 195.296875 54 196.636719 C 54 197.164062 53.824219 197.640625 53.542969 198.035156 C 53.691406 198.003906 53.839844 197.988281 54 197.988281 C 55.335938 197.988281 56.414062 199.066406 56.414062 200.402344 Z M 56.414062 200.402344 " fill-opacity="1" fill-rule="nonzero"/></svg>