<svg xmlns="http://www.w3.org/2000/svg" xmlns:xlink="http://www.w3.org/1999/xlink" width="500" zoomAndPan="magnify" viewBox="0 0 375 374.999991" height="500" preserveAspectRatio="xMidYMid meet" version="1.0"><defs><clipPath id="dc7a47b88a"><path d="M 157 163 L 374.792969 163 L 374.792969 294.109375 L 157 294.109375 Z M 157 163 " clip-rule="nonzero"/></clipPath><clipPath id="e07d12ea4e"><path d="M 157 181 L 374.792969 181 L 374.792969 294.109375 L 157 294.109375 Z M 157 181 " clip-rule="nonzero"/></clipPath><clipPath id="6e2a959f58"><path d="M 0 177 L 222.5625 177 L 222.5625 294 L 0 294 Z M 0 177 " clip-rule="nonzero"/></clipPath><clipPath id="2b0274484c"><path d="M 0 180 L 222.5625 180 L 222.5625 294 L 0 294 Z M 0 180 " clip-rule="nonzero"/></clipPath><clipPath id="a29759f38a"><path d="M 62 181 L 164 181 L 164 294.109375 L 62 294.109375 Z M 62 181 " clip-rule="nonzero"/></clipPath></defs><path fill="#2b1200" d="M 197.109375 141.554688 C 198.34375 146.011719 200.796875 151.25 205.640625 154.34375 C 209.875 157.050781 213.054688 161.132812 214.3125 166.003906 C 215.320312 169.902344 217.785156 173.988281 223.445312 175.820312 C 226.425781 176.78125 229.109375 178.519531 231.167969 180.890625 C 235.570312 185.96875 245.71875 192.800781 265.101562 183.40625 C 265.101562 183.40625 282.859375 202.457031 301.648438 189.488281 C 304.371094 187.605469 307.523438 186.402344 310.820312 186.0625 C 315.46875 185.578125 322.238281 183.691406 326.269531 177.179688 C 328.230469 174.019531 331.261719 171.703125 334.800781 170.570312 C 338.003906 169.546875 342.074219 167.183594 345.960938 161.921875 C 348.21875 158.863281 346.03125 154.539062 342.234375 154.484375 C 334.25 154.375 322.433594 151.308594 314.722656 136.152344 C 302.144531 111.457031 281.332031 110.246094 281.332031 110.246094 C 281.332031 110.246094 261.953125 99.867188 237.839844 123.226562 C 222.4375 138.140625 209.585938 138.175781 202.308594 136.253906 C 199.113281 135.414062 196.226562 138.378906 197.109375 141.554688 Z M 197.109375 141.554688 " fill-opacity="1" fill-rule="nonzero"/><path fill="#f9c7b2" d="M 198.859375 175.214844 L 202.285156 160.398438 C 206.320312 158.53125 208.765625 155.527344 210.109375 153.296875 C 211.417969 151.140625 212.9375 149.117188 214.648438 147.265625 C 217.582031 144.082031 221.109375 139.429688 218.109375 138.074219 C 211.496094 135.082031 206.203125 144.304688 206.203125 144.304688 C 206.039062 128.972656 199.972656 114.285156 196.476562 117.125 C 192.984375 119.964844 199.117188 136.792969 199.117188 136.792969 C 188.960938 121.546875 181.707031 118.773438 181.445312 122.535156 C 181.179688 126.296875 192.785156 139.566406 192.785156 139.566406 C 192.785156 139.566406 191.03125 138.140625 188.039062 138.773438 C 185.046875 139.40625 187.207031 143.792969 187.207031 143.792969 C 187.207031 143.792969 180.914062 141.941406 182.632812 148.1875 C 184.347656 154.433594 189.449219 156.464844 189.449219 156.464844 L 186.449219 163.722656 Z M 340.792969 209.039062 L 337.367188 194.226562 C 333.328125 192.359375 330.886719 189.351562 329.539062 187.121094 C 328.234375 184.964844 326.710938 182.945312 325.003906 181.089844 C 322.066406 177.90625 318.542969 173.253906 321.539062 171.902344 C 328.152344 168.910156 333.445312 178.128906 333.445312 178.128906 C 333.613281 162.796875 339.679688 148.113281 343.171875 150.949219 C 346.667969 153.789062 340.53125 170.621094 340.53125 170.621094 C 350.691406 155.371094 357.941406 152.597656 358.207031 156.359375 C 358.472656 160.121094 346.863281 173.390625 346.863281 173.390625 C 346.863281 173.390625 348.617188 171.96875 351.613281 172.597656 C 354.605469 173.230469 352.445312 177.621094 352.445312 177.621094 C 352.445312 177.621094 358.734375 175.765625 357.015625 182.011719 C 355.304688 188.261719 350.203125 190.289062 350.203125 190.289062 L 353.199219 197.546875 Z M 340.792969 209.039062 " fill-opacity="1" fill-rule="nonzero"/><g clip-path="url(#dc7a47b88a)"><path fill="#ffa4a2" d="M 175.621094 237.484375 C 184.847656 245.476562 197.90625 252.570312 215.550781 253.40625 L 223.769531 273.390625 L 217.085938 294.109375 L 320.128906 294.109375 L 310.324219 273.960938 L 310.453125 273.570312 L 316.878906 254.292969 C 316.878906 254.292969 373.167969 270.644531 374.753906 231.65625 C 374.855469 229.203125 374.757812 226.898438 374.488281 224.75 L 374.488281 224.742188 C 374.242188 222.78125 373.847656 220.945312 373.324219 219.222656 C 372.917969 217.628906 372.386719 216 371.695312 214.34375 L 371.691406 214.328125 C 371.6875 214.324219 371.6875 214.320312 371.6875 214.316406 C 370.300781 210.929688 368.308594 207.417969 365.625 203.824219 C 362.601562 199.769531 359.621094 198.210938 354.703125 194.007812 C 354.703125 194.007812 342.828125 194.691406 334.667969 199.378906 C 330.601562 201.71875 329.136719 209.347656 327.171875 209.828125 C 311.789062 205.355469 263.808594 194.960938 263.808594 194.960938 L 230.566406 201.355469 L 219.144531 200.25 C 219.144531 200.25 213.167969 195.007812 204.742188 190.664062 C 205.371094 188.71875 206.09375 186.503906 206.78125 184.214844 C 207.238281 182.710938 205.238281 175.21875 200.027344 170.976562 C 192 164.441406 178.835938 161.148438 174.714844 164.546875 C 168.070312 170.027344 163.894531 175.144531 161.304688 181.230469 C 160.398438 183.359375 159.679688 185.609375 159.125 188.035156 C 154.941406 206.257812 161.5 225.242188 175.621094 237.484375 Z M 175.621094 237.484375 " fill-opacity="1" fill-rule="nonzero"/></g><path fill="#fff0fd" d="M 235.597656 212.160156 C 234.960938 214.007812 234.621094 215.941406 234.621094 217.9375 C 234.621094 230.628906 248.304688 240.917969 265.179688 240.917969 C 282.058594 240.917969 295.742188 230.628906 295.742188 217.9375 C 295.742188 217.0625 295.667969 216.195312 295.542969 215.347656 C 309.449219 218.476562 310.328125 205.355469 310.328125 205.355469 L 296.933594 202.363281 L 284.746094 200.289062 C 279.445312 196.960938 272.625 194.960938 265.183594 194.960938 C 260.515625 194.960938 256.085938 195.753906 252.125 197.164062 L 231.054688 199.808594 L 219.148438 200.25 C 220.640625 209.109375 232.246094 211.621094 235.597656 212.160156 Z M 235.597656 212.160156 " fill-opacity="1" fill-rule="nonzero"/><path fill="#f9c7b2" d="M 242.953125 195.554688 L 231.046875 199.808594 C 231.046875 199.808594 265.195312 228.386719 296.929688 202.363281 L 283.332031 197.683594 L 283.394531 190.03125 C 289.328125 187.40625 294.417969 182.988281 297.804688 177.292969 C 297.804688 177.292969 297.804688 177.292969 297.804688 177.289062 C 298.097656 177.414062 298.394531 177.535156 298.703125 177.636719 C 305.851562 180.015625 314.046875 174.753906 316.265625 168.058594 C 317.53125 164.234375 316.773438 160.199219 314.554688 157.003906 C 313.757812 155.84375 312.769531 154.792969 311.617188 153.902344 C 310.371094 152.933594 308.929688 152.15625 307.332031 151.628906 C 306.703125 151.417969 306.070312 151.261719 305.441406 151.140625 C 307.464844 135.515625 297.421875 120.390625 281.789062 116.519531 C 279.285156 115.902344 276.765625 115.605469 274.289062 115.605469 C 268.636719 115.605469 263.164062 117.152344 258.421875 119.925781 C 252.28125 123.507812 247.347656 129.144531 244.753906 136.140625 C 244.753906 136.140625 244.753906 136.144531 244.753906 136.144531 C 244.144531 135.957031 243.511719 135.800781 242.855469 135.691406 C 241.863281 135.527344 240.878906 135.46875 239.921875 135.5 C 237.785156 135.582031 235.75 136.136719 233.964844 137.082031 C 230.515625 138.878906 227.964844 142.097656 227.308594 146.070312 C 226.160156 153.027344 230.960938 161.5 238.398438 162.730469 C 238.714844 162.78125 239.027344 162.8125 239.347656 162.839844 C 239.347656 162.839844 239.347656 162.84375 239.347656 162.84375 C 239.746094 170.324219 242.816406 177.375 247.824219 182.746094 C 248.027344 182.960938 248.230469 183.175781 248.441406 183.386719 C 248.527344 183.476562 248.617188 183.566406 248.707031 183.652344 C 248.925781 183.871094 249.144531 184.082031 249.367188 184.292969 C 249.378906 184.296875 249.382812 184.304688 249.390625 184.308594 C 249.632812 184.539062 249.882812 184.765625 250.136719 184.980469 C 250.207031 185.042969 250.269531 185.101562 250.335938 185.15625 C 250.566406 185.359375 250.804688 185.558594 251.046875 185.753906 C 251.058594 185.761719 251.074219 185.773438 251.085938 185.785156 C 251.335938 185.988281 251.59375 186.1875 251.851562 186.382812 C 251.890625 186.410156 251.933594 186.441406 251.96875 186.46875 C 252.257812 186.6875 252.550781 186.898438 252.84375 187.105469 C 252.867188 187.121094 252.890625 187.136719 252.90625 187.148438 C 253.164062 187.324219 253.417969 187.496094 253.671875 187.664062 C 253.730469 187.699219 253.789062 187.738281 253.84375 187.777344 C 254.136719 187.960938 254.433594 188.144531 254.734375 188.324219 C 255.050781 188.515625 255.375 188.699219 255.699219 188.878906 C 256.199219 189.148438 256.710938 189.410156 257.230469 189.65625 C 257.394531 189.738281 257.5625 189.8125 257.726562 189.890625 C 258.683594 190.328125 259.675781 190.722656 260.691406 191.0625 C 260.871094 191.125 261.050781 191.1875 261.234375 191.242188 C 261.882812 191.449219 262.542969 191.636719 263.210938 191.804688 C 269.574219 193.375 275.980469 192.863281 281.71875 190.710938 C 274.898438 194.695312 266.585938 196.140625 258.363281 194.109375 C 253.636719 192.945312 249.421875 190.746094 245.898438 187.820312 Z M 242.953125 195.554688 " fill-opacity="1" fill-rule="nonzero"/><path fill="#2b1200" d="M 234.128906 145.21875 C 234.070312 145.460938 234.214844 145.703125 234.457031 145.761719 C 234.691406 145.820312 234.9375 145.671875 234.996094 145.433594 C 235.261719 144.367188 235.921875 143.46875 236.863281 142.898438 C 237.800781 142.328125 238.90625 142.164062 239.96875 142.429688 C 241.03125 142.691406 241.933594 143.355469 242.5 144.296875 C 243.070312 145.234375 243.234375 146.34375 242.96875 147.410156 C 242.964844 147.429688 242.960938 147.453125 242.957031 147.476562 C 242.953125 147.507812 242.636719 150.792969 240.3125 151.679688 C 238.347656 152.433594 237.027344 154.207031 236.945312 156.199219 L 236.933594 156.453125 C 236.925781 156.699219 237.113281 156.910156 237.363281 156.921875 C 237.367188 156.921875 237.378906 156.921875 237.382812 156.921875 C 237.617188 156.921875 237.820312 156.730469 237.828125 156.492188 L 237.839844 156.234375 C 237.910156 154.601562 239.007812 153.140625 240.632812 152.515625 C 243.363281 151.46875 243.800781 148.003906 243.847656 147.585938 C 244.15625 146.296875 243.949219 144.96875 243.265625 143.832031 C 242.578125 142.683594 241.480469 141.878906 240.183594 141.558594 C 238.886719 141.238281 237.542969 141.441406 236.398438 142.132812 C 235.253906 142.824219 234.453125 143.917969 234.128906 145.21875 Z M 303.179688 158.640625 C 304.328125 157.949219 305.667969 157.746094 306.964844 158.066406 C 309.640625 158.730469 311.285156 161.449219 310.621094 164.125 C 310.5625 164.367188 310.316406 164.511719 310.082031 164.453125 C 309.839844 164.394531 309.695312 164.152344 309.753906 163.910156 C 310.296875 161.710938 308.949219 159.476562 306.753906 158.9375 C 304.554688 158.394531 302.324219 159.742188 301.78125 161.941406 C 301.777344 161.964844 301.765625 161.984375 301.757812 162.007812 C 301.746094 162.039062 300.5 165.09375 302.144531 166.960938 C 303.53125 168.539062 303.878906 170.726562 303.023438 172.527344 L 302.914062 172.761719 C 302.835938 172.921875 302.675781 173.015625 302.511719 173.015625 C 302.449219 173.015625 302.378906 173.003906 302.316406 172.972656 C 302.09375 172.863281 302 172.597656 302.101562 172.375 L 302.214844 172.144531 C 302.914062 170.660156 302.621094 168.859375 301.472656 167.546875 C 299.539062 165.351562 300.765625 162.078125 300.921875 161.691406 C 301.242188 160.410156 302.050781 159.328125 303.179688 158.640625 Z M 274.730469 161.644531 C 274.695312 161.644531 274.65625 161.640625 274.621094 161.632812 C 274.378906 161.574219 274.238281 161.332031 274.296875 161.089844 C 275.285156 157.082031 272.03125 155.78125 271.890625 155.730469 C 271.660156 155.640625 271.546875 155.382812 271.632812 155.152344 C 271.71875 154.917969 271.976562 154.800781 272.210938 154.890625 C 272.25 154.910156 276.347656 156.511719 275.167969 161.304688 C 275.113281 161.511719 274.929688 161.644531 274.730469 161.644531 Z M 281.535156 167.222656 C 281.566406 167.46875 281.390625 167.691406 281.144531 167.722656 C 280.132812 167.847656 279.128906 167.90625 278.132812 167.90625 C 268.527344 167.90625 260.164062 162.582031 260.074219 162.523438 C 259.871094 162.386719 259.808594 162.109375 259.941406 161.90625 C 260.074219 161.699219 260.351562 161.636719 260.558594 161.769531 C 260.65625 161.832031 270.558594 168.132812 281.035156 166.835938 C 281.285156 166.800781 281.503906 166.972656 281.535156 167.222656 Z M 263.019531 154.480469 C 261.191406 154.480469 259.703125 152.992188 259.703125 151.160156 C 259.703125 149.328125 261.191406 147.84375 263.019531 147.84375 C 264.851562 147.84375 266.335938 149.328125 266.335938 151.160156 C 266.335938 152.992188 264.851562 154.480469 263.019531 154.480469 Z M 279.019531 155.3125 C 279.019531 153.480469 280.503906 151.996094 282.335938 151.996094 C 284.164062 151.996094 285.652344 153.480469 285.652344 155.3125 C 285.652344 157.144531 284.164062 158.632812 282.335938 158.632812 C 280.503906 158.632812 279.019531 157.144531 279.019531 155.3125 Z M 248.441406 183.386719 C 248.527344 183.476562 248.617188 183.566406 248.707031 183.652344 C 248.921875 183.871094 249.144531 184.082031 249.367188 184.292969 C 249.378906 184.296875 249.382812 184.304688 249.390625 184.308594 C 249.636719 184.542969 249.882812 184.765625 250.136719 184.980469 C 250.207031 185.042969 250.269531 185.101562 250.335938 185.15625 C 250.566406 185.359375 250.804688 185.558594 251.046875 185.753906 C 251.058594 185.761719 251.074219 185.773438 251.085938 185.785156 C 251.335938 185.988281 251.59375 186.1875 251.851562 186.382812 C 251.890625 186.410156 251.933594 186.441406 251.96875 186.46875 C 252.253906 186.6875 252.550781 186.898438 252.84375 187.105469 C 252.867188 187.121094 252.890625 187.136719 252.90625 187.148438 C 253.160156 187.324219 253.414062 187.496094 253.671875 187.664062 C 253.730469 187.699219 253.789062 187.738281 253.84375 187.777344 C 254.132812 187.960938 254.429688 188.144531 254.734375 188.324219 C 255.050781 188.515625 255.375 188.699219 255.699219 188.878906 C 256.199219 189.148438 256.710938 189.410156 257.230469 189.65625 C 257.390625 189.738281 257.558594 189.8125 257.726562 189.890625 C 258.683594 190.328125 259.675781 190.722656 260.691406 191.0625 C 260.871094 191.125 261.050781 191.183594 261.234375 191.242188 C 261.882812 191.449219 262.542969 191.636719 263.210938 191.804688 C 269.574219 193.375 275.980469 192.863281 281.71875 190.710938 C 274.898438 194.695312 266.585938 196.140625 258.363281 194.109375 C 253.636719 192.945312 249.421875 190.746094 245.898438 187.820312 L 247.824219 182.746094 C 248.027344 182.960938 248.230469 183.175781 248.441406 183.386719 Z M 186.371094 150.613281 C 186.574219 150.476562 186.851562 150.523438 186.992188 150.726562 C 187.425781 151.359375 190.90625 152.6875 192.773438 152.128906 C 193.398438 151.941406 193.699219 151.574219 193.710938 150.96875 C 193.769531 148.554688 189.066406 145.589844 187.25 144.652344 C 187.03125 144.542969 186.945312 144.269531 187.058594 144.050781 C 187.171875 143.832031 187.4375 143.746094 187.664062 143.855469 C 187.894531 143.976562 192.417969 146.34375 194.039062 149.085938 C 194.398438 149.308594 194.789062 149.429688 195.207031 149.441406 C 195.886719 149.460938 196.535156 149.164062 196.984375 148.617188 C 197.457031 148.039062 197.640625 147.261719 197.476562 146.539062 C 196.703125 143.175781 192.558594 139.957031 192.519531 139.925781 C 192.320312 139.773438 192.285156 139.496094 192.4375 139.296875 C 192.589844 139.101562 192.867188 139.066406 193.0625 139.21875 C 193.242188 139.355469 197.496094 142.660156 198.347656 146.34375 C 198.574219 147.332031 198.324219 148.398438 197.675781 149.191406 C 197.074219 149.929688 196.199219 150.347656 195.277344 150.347656 C 195.246094 150.347656 195.210938 150.347656 195.179688 150.347656 C 194.957031 150.335938 194.738281 150.300781 194.523438 150.253906 C 194.582031 150.503906 194.617188 150.753906 194.613281 151 C 194.589844 151.988281 194.027344 152.699219 193.03125 152.996094 C 192.648438 153.113281 192.210938 153.164062 191.738281 153.164062 C 189.601562 153.164062 186.863281 152.113281 186.257812 151.246094 C 186.113281 151.035156 186.164062 150.753906 186.371094 150.613281 Z M 205.914062 143.96875 C 206.097656 143.804688 206.378906 143.820312 206.542969 144.003906 C 206.710938 144.1875 206.691406 144.46875 206.507812 144.636719 L 203.367188 147.453125 C 203.28125 147.527344 203.175781 147.570312 203.066406 147.570312 C 202.949219 147.570312 202.820312 147.519531 202.734375 147.421875 C 202.566406 147.238281 202.585938 146.957031 202.769531 146.789062 Z M 333.691406 177.761719 L 336.148438 179.453125 C 336.355469 179.589844 336.402344 179.871094 336.265625 180.074219 C 336.179688 180.199219 336.035156 180.265625 335.894531 180.265625 C 335.804688 180.265625 335.71875 180.238281 335.636719 180.1875 L 333.183594 178.496094 C 332.976562 178.359375 332.925781 178.078125 333.066406 177.875 C 333.203125 177.671875 333.484375 177.625 333.691406 177.761719 Z M 346.546875 173.078125 C 346.722656 172.902344 347.007812 172.910156 347.175781 173.082031 C 347.351562 173.257812 347.347656 173.542969 347.171875 173.714844 C 347.140625 173.746094 344.015625 176.847656 343.035156 179.8125 C 342.769531 180.605469 342.894531 181.453125 343.371094 182.136719 C 343.769531 182.710938 344.359375 183.082031 345.027344 183.214844 C 345.648438 180.449219 351.195312 177.9375 351.859375 177.648438 C 352.082031 177.546875 352.351562 177.652344 352.449219 177.875 C 352.546875 178.101562 352.445312 178.367188 352.21875 178.464844 C 350.453125 179.242188 345.863281 181.699219 345.863281 183.707031 C 345.863281 184.320312 346.097656 184.539062 346.277344 184.65625 C 346.742188 184.945312 348.40625 185.335938 353.820312 182.695312 C 354.046875 182.585938 354.3125 182.675781 354.421875 182.898438 C 354.527344 183.125 354.4375 183.386719 354.214844 183.5 C 351.136719 185 348.804688 185.757812 347.257812 185.757812 C 346.652344 185.757812 346.171875 185.644531 345.804688 185.414062 C 345.480469 185.210938 345.105469 184.820312 345 184.117188 C 344.042969 183.980469 343.195312 183.457031 342.636719 182.648438 C 341.996094 181.730469 341.832031 180.59375 342.183594 179.527344 C 343.234375 176.367188 346.414062 173.207031 346.546875 173.078125 Z M 346.546875 173.078125 " fill-opacity="1" fill-rule="nonzero"/><path fill="#fff0fd" d="M 174.714844 164.546875 C 179.105469 169.613281 187.84375 166.707031 187.84375 166.707031 C 188.46875 175.28125 198.582031 173.453125 198.582031 173.453125 C 198.953125 185.433594 206.550781 184.394531 206.550781 184.394531 L 206.78125 184.214844 C 207.523438 181.753906 208.234375 179.210938 208.757812 176.808594 C 209.296875 174.339844 208.664062 171.761719 207.066406 169.808594 C 203.800781 165.808594 197.273438 159.152344 188.273438 156.382812 C 187.011719 155.992188 185.644531 156.140625 184.5 156.804688 C 182.402344 158.011719 178.714844 160.457031 174.714844 164.546875 Z M 330.398438 196.0625 C 330.863281 194.605469 332.3125 193.730469 333.820312 193.945312 C 341.144531 194.976562 347.710938 193.445312 351.175781 192.347656 C 352.878906 191.8125 354.734375 192.21875 356.054688 193.417969 C 359.914062 196.941406 363.078125 200.417969 365.621094 203.828125 L 365.621094 203.832031 C 365.621094 203.832031 359.152344 209.464844 350.953125 200.722656 C 350.953125 200.722656 344.578125 208.785156 338.4375 202.765625 C 338.4375 202.765625 333.808594 210.730469 327.167969 209.832031 L 327.097656 209.496094 C 328.097656 203.738281 329.5 198.871094 330.398438 196.0625 Z M 330.398438 196.0625 " fill-opacity="1" fill-rule="nonzero"/><g clip-path="url(#e07d12ea4e)"><path fill="#ef8ea0" d="M 175.621094 237.484375 C 184.847656 245.476562 197.90625 252.570312 215.550781 253.40625 L 223.769531 273.390625 L 217.085938 294.109375 L 235.457031 294.109375 L 239.050781 271.21875 L 221.535156 241.835938 C 220.097656 239.421875 217.585938 237.882812 214.796875 237.589844 C 176.523438 233.640625 161.304688 181.226562 161.304688 181.226562 C 160.398438 183.355469 159.679688 185.605469 159.125 188.03125 C 154.941406 206.257812 161.5 225.242188 175.621094 237.484375 Z M 314.402344 244.578125 C 315.835938 241.867188 318.917969 240.484375 321.902344 241.183594 C 373.925781 253.417969 371.765625 215.425781 371.691406 214.328125 L 371.695312 214.34375 L 374.488281 224.742188 L 374.488281 224.75 C 374.757812 226.898438 374.855469 229.203125 374.753906 231.65625 C 373.167969 270.644531 316.878906 254.292969 316.878906 254.292969 L 310.324219 273.960938 L 320.128906 294.109375 L 301.910156 294.109375 L 298.882812 273.960938 Z M 314.402344 244.578125 " fill-opacity="1" fill-rule="nonzero"/></g><path fill="#2b1200" d="M 239.921875 135.5 C 240.878906 135.46875 241.863281 135.527344 242.855469 135.691406 C 245.933594 136.199219 248.609375 137.632812 250.613281 139.628906 C 254.855469 138.421875 256.238281 137.242188 257.222656 134.023438 C 257.222656 134.023438 272.5 140.105469 279.382812 126.457031 C 279.382812 126.457031 279.875 140.8125 296.152344 144.523438 C 296.152344 144.523438 296.148438 147.261719 299.113281 151.363281 C 301.6875 150.667969 304.542969 150.699219 307.328125 151.628906 C 308.925781 152.15625 310.367188 152.933594 311.609375 153.902344 C 316.707031 145.953125 305.65625 116.058594 281.082031 112.222656 C 255.871094 108.285156 239.519531 127.445312 239.921875 135.5 Z M 239.921875 135.5 " fill-opacity="1" fill-rule="nonzero"/><path fill="#ffa4a2" d="M 256.34375 126.261719 C 262.238281 126.894531 272.25 120.886719 277.152344 117.660156 C 278.183594 118.316406 279.378906 118.792969 280.683594 119.007812 C 281.851562 119.195312 283.003906 119.160156 284.074219 118.9375 C 287.601562 123.976562 294.058594 132.257812 299.378906 133.808594 C 304.972656 135.4375 312.433594 127.546875 314.640625 116.644531 C 315.492188 112.445312 315.558594 107.800781 314.4375 103.082031 C 311.195312 89.378906 293.519531 100.03125 286.820312 104.652344 C 285.777344 103.976562 284.566406 103.488281 283.234375 103.273438 C 281.660156 103.015625 280.125 103.171875 278.742188 103.640625 C 274.085938 96.59375 262.09375 80.894531 254.058594 92.109375 C 252.125 94.808594 250.71875 97.683594 249.765625 100.582031 L 249.765625 100.585938 C 245.714844 112.90625 249.847656 125.566406 256.34375 126.261719 Z M 256.34375 126.261719 " fill-opacity="1" fill-rule="nonzero"/><path fill="#fff0fd" d="M 221.085938 273.390625 C 221.085938 274.871094 222.289062 276.078125 223.769531 276.078125 L 246.101562 276.078125 C 247.089844 281.597656 250.117188 285.660156 253.308594 285.503906 C 257.410156 285.304688 263.609375 280.121094 266.621094 277.386719 C 267.394531 277.726562 268.265625 277.921875 269.179688 277.925781 C 270 277.933594 270.78125 277.785156 271.496094 277.515625 C 274.449219 280.582031 279.75 285.550781 283.550781 286.039062 C 286.941406 286.472656 290.511719 282.097656 291.730469 276.074219 L 310.328125 276.074219 C 311.808594 276.074219 313.011719 274.867188 313.011719 273.386719 C 313.011719 271.902344 311.808594 270.699219 310.328125 270.699219 L 292.144531 270.699219 C 292.039062 268.316406 291.550781 265.835938 290.554688 263.402344 C 286.867188 254.378906 275.921875 263.566406 271.835938 267.449219 C 271.046875 267.097656 270.167969 266.890625 269.234375 266.886719 C 268.128906 266.878906 267.097656 267.152344 266.199219 267.621094 C 262.257812 263.300781 252.375 253.855469 248.085938 262.386719 C 247.050781 264.441406 246.398438 266.5625 246.058594 268.644531 L 246.058594 268.648438 C 245.945312 269.335938 245.871094 270.023438 245.824219 270.699219 L 223.777344 270.699219 C 222.289062 270.703125 221.085938 271.910156 221.085938 273.390625 Z M 221.085938 273.390625 " fill-opacity="1" fill-rule="nonzero"/><path fill="#ef8ea0" d="M 256.34375 126.261719 C 262.238281 126.894531 272.25 120.886719 277.152344 117.660156 C 278.183594 118.316406 279.378906 118.792969 280.683594 119.007812 C 281.851562 119.195312 283.003906 119.160156 284.074219 118.9375 C 287.601562 123.976562 294.058594 132.257812 299.378906 133.808594 C 304.972656 135.4375 312.433594 127.546875 314.640625 116.644531 C 301.148438 132.277344 286.203125 114.113281 286.203125 114.113281 C 280.65625 114.453125 275.691406 112.394531 275.691406 112.394531 C 249.269531 122.191406 249.753906 100.988281 249.765625 100.585938 C 245.714844 112.90625 249.847656 125.566406 256.34375 126.261719 Z M 256.34375 126.261719 " fill-opacity="1" fill-rule="nonzero"/><path fill="#2b1200" d="M 277.601562 117.660156 L 277.601562 107.25 C 277.601562 107.003906 277.398438 106.800781 277.152344 106.800781 C 276.90625 106.800781 276.707031 107.003906 276.707031 107.25 L 276.707031 117.660156 C 276.707031 117.90625 276.90625 118.105469 277.152344 118.105469 C 277.398438 118.105469 277.601562 117.910156 277.601562 117.660156 Z M 284.5 119.082031 C 284.4375 119.269531 284.265625 119.390625 284.074219 119.390625 C 284.03125 119.390625 283.980469 119.382812 283.9375 119.367188 C 283.703125 119.292969 283.574219 119.039062 283.65625 118.804688 L 286.808594 109.289062 C 286.886719 109.054688 287.140625 108.925781 287.375 109.007812 C 287.605469 109.082031 287.734375 109.335938 287.65625 109.570312 Z M 264.644531 269.519531 C 264.886719 269.46875 265.121094 269.625 265.171875 269.867188 L 266.773438 277.546875 C 266.824219 277.789062 266.671875 278.027344 266.429688 278.074219 C 266.398438 278.078125 266.367188 278.082031 266.335938 278.082031 C 266.128906 278.082031 265.941406 277.941406 265.898438 277.726562 L 264.296875 270.046875 C 264.246094 269.808594 264.398438 269.570312 264.644531 269.519531 Z M 273.320312 269.832031 C 273.390625 269.59375 273.640625 269.457031 273.875 269.53125 C 274.113281 269.601562 274.246094 269.851562 274.175781 270.085938 L 271.914062 277.644531 C 271.855469 277.835938 271.675781 277.964844 271.484375 277.964844 C 271.441406 277.964844 271.398438 277.957031 271.355469 277.945312 C 271.117188 277.875 270.984375 277.621094 271.054688 277.390625 Z M 245.785156 269.96875 C 246.03125 269.976562 246.222656 270.1875 246.214844 270.433594 C 246.214844 270.46875 246.066406 274.191406 246.597656 276.285156 C 246.660156 276.527344 246.515625 276.765625 246.277344 276.828125 C 246.242188 276.839844 246.199219 276.84375 246.164062 276.84375 C 245.964844 276.84375 245.785156 276.710938 245.730469 276.507812 C 245.167969 274.289062 245.316406 270.558594 245.320312 270.402344 C 245.328125 270.152344 245.539062 269.949219 245.785156 269.96875 Z M 291.722656 271.09375 C 291.726562 270.847656 291.929688 270.652344 292.183594 270.660156 C 292.429688 270.667969 292.625 270.875 292.617188 271.121094 C 292.613281 271.261719 292.519531 274.675781 292.179688 276.117188 C 292.128906 276.324219 291.945312 276.460938 291.746094 276.460938 C 291.710938 276.460938 291.679688 276.457031 291.640625 276.449219 C 291.402344 276.390625 291.253906 276.152344 291.304688 275.910156 C 291.625 274.554688 291.71875 271.125 291.722656 271.09375 Z M 236.460938 211.847656 C 236.710938 211.816406 236.925781 212 236.953125 212.246094 C 237.234375 214.957031 238.257812 216.855469 239.996094 217.886719 C 243.75 220.117188 249.675781 217.695312 249.738281 217.671875 C 249.933594 217.589844 250.15625 217.65625 250.277344 217.828125 C 252.738281 221.3125 255.425781 223.148438 258.269531 223.28125 C 262.5 223.484375 265.6875 219.8125 265.71875 219.773438 C 265.871094 219.597656 266.132812 219.570312 266.320312 219.707031 C 270.363281 222.699219 273.902344 223.851562 276.832031 223.117188 C 279.964844 222.335938 281.300781 219.601562 281.3125 219.574219 C 281.414062 219.355469 281.671875 219.253906 281.894531 219.355469 C 286.125 221.179688 289.390625 221.417969 291.597656 220.066406 C 294.160156 218.488281 294.394531 215.199219 294.394531 215.167969 C 294.40625 214.921875 294.621094 214.722656 294.867188 214.746094 C 295.113281 214.757812 295.300781 214.96875 295.289062 215.21875 C 295.28125 215.371094 295.035156 219 292.070312 220.828125 C 289.671875 222.308594 286.253906 222.144531 281.910156 220.339844 C 281.394531 221.199219 279.898438 223.273438 277.058594 223.984375 C 276.410156 224.144531 275.742188 224.226562 275.046875 224.226562 C 272.390625 224.226562 269.390625 223.035156 266.105469 220.667969 C 265.195312 221.609375 262.191406 224.355469 258.222656 224.175781 C 255.167969 224.035156 252.316406 222.171875 249.738281 218.628906 C 248.371094 219.140625 243.175781 220.824219 239.53125 218.65625 C 237.539062 217.472656 236.367188 215.347656 236.054688 212.335938 C 236.035156 212.09375 236.214844 211.875 236.460938 211.847656 Z M 263.101562 227.265625 C 263.101562 228.726562 264.285156 229.914062 265.746094 229.914062 C 267.203125 229.914062 268.390625 228.726562 268.390625 227.265625 C 268.390625 225.808594 267.203125 224.621094 265.746094 224.621094 C 264.285156 224.621094 263.101562 225.808594 263.101562 227.265625 Z M 263.996094 227.265625 C 263.996094 226.300781 264.777344 225.515625 265.746094 225.515625 C 266.710938 225.515625 267.496094 226.300781 267.496094 227.265625 C 267.496094 228.234375 266.707031 229.019531 265.746094 229.019531 C 264.78125 229.019531 263.996094 228.234375 263.996094 227.265625 Z M 263.101562 234.921875 C 263.101562 236.382812 264.285156 237.566406 265.746094 237.566406 C 267.203125 237.566406 268.390625 236.382812 268.390625 234.921875 C 268.390625 233.460938 267.203125 232.273438 265.746094 232.273438 C 264.285156 232.273438 263.101562 233.460938 263.101562 234.921875 Z M 263.996094 234.921875 C 263.996094 233.953125 264.777344 233.171875 265.746094 233.171875 C 266.710938 233.171875 267.496094 233.957031 267.496094 234.921875 C 267.496094 235.882812 266.707031 236.671875 265.746094 236.671875 C 264.78125 236.671875 263.996094 235.882812 263.996094 234.921875 Z M 197.609375 207.859375 C 201.046875 202.605469 204.277344 190.675781 204.308594 190.554688 C 204.371094 190.316406 204.617188 190.171875 204.859375 190.234375 C 205.09375 190.296875 205.238281 190.542969 205.175781 190.785156 C 205.042969 191.285156 201.878906 202.976562 198.359375 208.351562 C 198.277344 208.480469 198.132812 208.550781 197.984375 208.550781 C 197.902344 208.550781 197.816406 208.53125 197.738281 208.480469 C 197.535156 208.339844 197.476562 208.0625 197.609375 207.859375 Z M 327.214844 209.386719 C 327.460938 209.40625 327.644531 209.621094 327.621094 209.867188 C 327.609375 209.96875 326.785156 219.761719 329.246094 228.53125 C 329.3125 228.769531 329.171875 229.015625 328.9375 229.082031 C 328.894531 229.09375 328.855469 229.097656 328.816406 229.097656 C 328.617188 229.097656 328.4375 228.96875 328.386719 228.773438 C 325.878906 219.847656 326.726562 209.890625 326.734375 209.792969 C 326.746094 209.546875 326.960938 209.363281 327.214844 209.386719 Z M 327.214844 209.386719 " fill-opacity="1" fill-rule="nonzero"/><g clip-path="url(#6e2a959f58)"><path fill="#94c3df" d="M 222.300781 293.78125 L 182.648438 293.78125 L 178.527344 282.570312 C 178.101562 281.40625 176.378906 281.714844 176.378906 282.953125 L 176.378906 293.78125 L 49.933594 293.78125 L 49.933594 283.0625 C 49.933594 281.804688 48.179688 281.492188 47.75 282.671875 L 43.664062 293.78125 L 0.234375 293.78125 C 0.234375 272.492188 5.109375 254.675781 12.824219 239.820312 C 13.132812 239.21875 13.449219 238.621094 13.773438 238.027344 C 17.675781 230.832031 22.246094 224.34375 27.246094 218.503906 C 27.558594 218.132812 27.871094 217.769531 28.195312 217.40625 C 32.257812 212.765625 36.589844 208.546875 41.058594 204.710938 C 41.371094 204.433594 41.6875 204.167969 42.007812 203.902344 C 42.386719 203.582031 42.765625 203.261719 43.148438 202.945312 C 46.402344 200.261719 49.714844 197.777344 53.042969 195.476562 C 53.847656 194.921875 54.660156 194.375 55.480469 193.851562 C 55.796875 193.640625 56.113281 193.4375 56.429688 193.238281 C 60.769531 190.484375 65.273438 188.09375 69.902344 186.054688 C 70.214844 185.917969 70.535156 185.78125 70.851562 185.648438 C 71.351562 185.433594 71.847656 185.226562 72.347656 185.019531 C 75.488281 183.738281 78.683594 182.621094 81.914062 181.660156 C 83.519531 181.1875 85.132812 180.75 86.757812 180.355469 C 104.324219 176.054688 122.816406 176.449219 140.214844 181.539062 C 141.613281 181.949219 143.007812 182.390625 144.394531 182.863281 C 147.414062 183.886719 150.394531 185.054688 153.324219 186.371094 C 153.46875 186.4375 153.617188 186.503906 153.765625 186.570312 C 154.082031 186.710938 154.394531 186.859375 154.714844 187.003906 C 159.347656 189.164062 163.855469 191.695312 168.191406 194.589844 C 168.507812 194.804688 168.824219 195.019531 169.140625 195.234375 C 169.257812 195.316406 169.375 195.398438 169.496094 195.476562 C 173.929688 198.539062 178.339844 201.933594 182.609375 205.6875 C 182.929688 205.964844 183.246094 206.25 183.558594 206.53125 C 187.484375 210.046875 191.292969 213.867188 194.878906 218.019531 C 195.398438 218.617188 195.910156 219.226562 196.421875 219.835938 C 196.742188 220.222656 197.058594 220.613281 197.371094 221 C 202.457031 227.285156 207.035156 234.28125 210.847656 242.0625 C 211.171875 242.722656 211.488281 243.386719 211.796875 244.054688 C 218.289062 258.035156 222.300781 274.480469 222.300781 293.78125 Z M 222.300781 293.78125 " fill-opacity="1" fill-rule="nonzero"/></g><g clip-path="url(#2b0274484c)"><path fill="#71afd4" d="M 47.203125 284.152344 L 43.664062 293.78125 L 0.234375 293.78125 C 0.234375 250.742188 20.171875 221.898438 43.148438 202.945312 C 43.148438 202.945312 13.203125 247.855469 47.203125 284.152344 Z M 222.300781 293.78125 C 222.300781 260.867188 210.644531 236.257812 194.878906 218.019531 C 203.324219 242.636719 209.863281 262.632812 188.902344 293.78125 Z M 144.394531 182.863281 C 143.007812 182.390625 141.613281 181.949219 140.214844 181.539062 L 148.957031 193.851562 L 153.324219 186.371094 C 150.394531 185.054688 147.414062 183.886719 144.394531 182.863281 Z M 81.914062 181.660156 C 78.683594 182.621094 75.488281 183.738281 72.347656 185.019531 L 77.355469 193.597656 L 86.757812 180.355469 C 85.132812 180.75 83.519531 181.1875 81.914062 181.660156 Z M 81.914062 181.660156 " fill-opacity="1" fill-rule="nonzero"/></g><path fill="#ede6dd" d="M 140.160156 190.519531 L 140.160156 293.78125 L 84.316406 293.78125 L 84.316406 189.402344 C 102.535156 183.761719 122.125 184.132812 140.160156 190.519531 Z M 140.160156 190.519531 " fill-opacity="1" fill-rule="nonzero"/><path fill="#94c3df" d="M 127.074219 293.78125 L 99.242188 293.78125 L 107.628906 224.414062 L 104.71875 211.449219 L 121.585938 211.488281 L 118.683594 224.414062 Z M 127.074219 293.78125 " fill-opacity="1" fill-rule="nonzero"/><path fill="#71afd4" d="M 75.132812 293.78125 L 68.683594 293.78125 L 66.257812 265.660156 Z M 151.085938 293.78125 L 157.539062 293.78125 L 159.964844 265.660156 Z M 151.085938 293.78125 " fill-opacity="1" fill-rule="nonzero"/><path fill="#94c3df" d="M 142.9375 182.402344 C 142.9375 182.402344 156.707031 191.238281 162.921875 233.675781 C 163.167969 235.363281 162.597656 237.074219 161.386719 238.277344 L 149.996094 249.613281 L 158.738281 254.691406 C 160.800781 255.886719 161.828125 258.292969 161.273438 260.609375 C 159.808594 266.714844 156.507812 279.289062 151.183594 293.660156 M 83.371094 182.402344 C 83.371094 182.402344 69.601562 191.238281 63.390625 233.675781 C 63.144531 235.363281 63.710938 237.074219 64.921875 238.277344 L 76.316406 249.613281 L 67.570312 254.691406 C 65.511719 255.886719 64.480469 258.292969 65.035156 260.609375 C 66.503906 266.714844 69.800781 279.289062 75.128906 293.660156 " fill-opacity="1" fill-rule="nonzero"/><g clip-path="url(#a29759f38a)"><path fill="#11084e" d="M 151.179688 294.132812 C 151.121094 294.132812 151.070312 294.121094 151.011719 294.101562 C 150.765625 294.011719 150.640625 293.738281 150.730469 293.492188 C 156.035156 279.1875 159.320312 266.675781 160.804688 260.496094 C 161.308594 258.402344 160.359375 256.1875 158.492188 255.101562 L 149.753906 250.015625 C 149.625 249.941406 149.539062 249.8125 149.519531 249.664062 C 149.503906 249.519531 149.554688 249.371094 149.660156 249.265625 L 161.050781 237.933594 C 162.152344 236.835938 162.675781 235.269531 162.449219 233.734375 C 156.34375 192 142.820312 182.878906 142.679688 182.796875 C 142.464844 182.652344 142.398438 182.359375 142.539062 182.140625 C 142.679688 181.921875 142.976562 181.855469 143.195312 181.996094 C 143.765625 182.363281 157.214844 191.4375 163.386719 233.597656 C 163.65625 235.425781 163.03125 237.300781 161.714844 238.605469 L 150.761719 249.503906 L 158.96875 254.273438 C 161.191406 255.566406 162.328125 258.214844 161.726562 260.710938 C 160.234375 266.914062 156.9375 279.464844 151.621094 293.8125 C 151.554688 294.011719 151.371094 294.132812 151.179688 294.132812 Z M 75.296875 294.097656 C 75.546875 294.007812 75.667969 293.734375 75.578125 293.484375 C 70.277344 279.183594 66.992188 266.671875 65.507812 260.492188 C 65.003906 258.398438 65.953125 256.183594 67.816406 255.09375 L 76.5625 250.015625 C 76.691406 249.941406 76.773438 249.8125 76.792969 249.664062 C 76.8125 249.519531 76.761719 249.371094 76.65625 249.265625 L 65.265625 237.933594 C 64.164062 236.835938 63.640625 235.269531 63.863281 233.734375 C 69.949219 192.164062 83.453125 182.914062 83.632812 182.796875 C 83.851562 182.652344 83.917969 182.359375 83.777344 182.140625 C 83.632812 181.921875 83.339844 181.855469 83.121094 181.996094 C 82.550781 182.363281 69.101562 191.4375 62.929688 233.597656 C 62.664062 235.425781 63.285156 237.300781 64.601562 238.605469 L 75.554688 249.503906 L 67.347656 254.273438 C 65.121094 255.566406 63.988281 258.214844 64.589844 260.710938 C 66.082031 266.914062 69.378906 279.464844 74.695312 293.8125 C 74.765625 294.003906 74.949219 294.121094 75.140625 294.121094 C 75.183594 294.132812 75.242188 294.121094 75.296875 294.097656 Z M 75.296875 294.097656 " fill-opacity="1" fill-rule="nonzero"/></g><path fill="#ede6dd" d="M 114.832031 215.5625 C 113.785156 216.113281 112.53125 216.113281 111.480469 215.5625 L 78.339844 198.21875 C 76.808594 197.414062 76.105469 195.597656 76.703125 193.972656 C 86.015625 168.777344 109.269531 164.363281 112.914062 163.816406 L 112.914062 163.75 C 112.914062 163.75 113 163.761719 113.15625 163.78125 C 113.3125 163.761719 113.398438 163.75 113.398438 163.75 L 113.398438 163.816406 C 117.046875 164.359375 140.296875 168.773438 149.613281 193.972656 C 150.210938 195.597656 149.507812 197.414062 147.972656 198.21875 Z M 114.832031 215.5625 " fill-opacity="1" fill-rule="nonzero"/><path fill="#fcc1ae" d="M 150.101562 126.984375 C 150.101562 127.59375 150.082031 128.210938 150.042969 128.828125 L 149.054688 145.46875 C 148.933594 147.574219 148.597656 149.625 148.074219 151.597656 C 146.046875 159.214844 141.195312 165.652344 134.773438 169.773438 L 134.851562 173.917969 L 135.089844 187.5625 L 113.398438 208.824219 L 91.21875 183.050781 L 94.621094 169.757812 L 95.769531 165.265625 C 89.898438 159.214844 86.472656 150.820312 87.007812 141.792969 L 87.992188 125.152344 C 88.019531 124.703125 88.054688 124.25 88.101562 123.804688 C 89.785156 107.40625 104.242188 94.984375 120.851562 95.964844 C 137.300781 96.9375 150.101562 110.707031 150.101562 126.984375 Z M 150.101562 126.984375 " fill-opacity="1" fill-rule="nonzero"/><path fill="#11084e" d="M 151.300781 132.066406 L 141.273438 123.292969 C 122.851562 123.851562 113.894531 116.589844 109.539062 109.613281 C 107.164062 113.660156 103.113281 117.875 96.1875 120.355469 L 91.21875 130.046875 L 85.390625 123.804688 C 85.390625 123.804688 79.789062 120.25 81.605469 111.316406 C 83.070312 104.121094 98.066406 89.789062 107.398438 93.03125 C 115.105469 80.898438 134.527344 89.917969 148.9375 102.539062 C 164.808594 116.4375 151.300781 132.066406 151.300781 132.066406 Z M 116.195312 174.65625 C 108.160156 174.179688 100.996094 170.648438 95.769531 165.265625 L 94.621094 169.757812 C 99.871094 175.300781 107.144531 178.945312 115.320312 179.429688 C 122.523438 179.855469 129.320312 177.765625 134.851562 173.917969 L 134.773438 169.773438 C 129.425781 173.214844 122.992188 175.058594 116.195312 174.65625 Z M 116.195312 174.65625 " fill-opacity="1" fill-rule="nonzero"/><path fill="#fcc1ae" d="M 164.660156 142.453125 C 163.703125 149.347656 156.699219 155.925781 149.328125 154.898438 C 141.957031 153.878906 137.003906 145.644531 137.957031 138.75 C 138.492188 134.898438 140.839844 131.707031 144.097656 129.824219 C 146.660156 128.34375 149.789062 127.671875 153.039062 128.125 C 156.203125 128.5625 158.972656 129.992188 161.019531 132.039062 C 163.738281 134.742188 165.199219 138.519531 164.660156 142.453125 Z M 71.925781 136.15625 C 72.058594 143.113281 78.242188 150.472656 85.679688 150.324219 C 93.121094 150.175781 99.007812 142.585938 98.875 135.628906 C 98.800781 131.734375 96.84375 128.292969 93.835938 126.039062 C 91.460938 124.265625 88.4375 123.230469 85.15625 123.296875 C 81.964844 123.355469 79.046875 124.453125 76.773438 126.246094 C 73.742188 128.601562 71.847656 132.183594 71.925781 136.15625 Z M 71.925781 136.15625 " fill-opacity="1" fill-rule="nonzero"/><path fill="#11084e" d="M 109.617188 132.015625 C 109.511719 133.796875 107.980469 135.160156 106.199219 135.050781 C 104.417969 134.945312 103.058594 133.410156 103.167969 131.632812 C 103.273438 129.851562 104.804688 128.488281 106.582031 128.597656 C 108.363281 128.703125 109.722656 130.234375 109.617188 132.015625 Z M 131.179688 130.054688 C 129.402344 129.953125 127.867188 131.308594 127.761719 133.089844 C 127.660156 134.867188 129.015625 136.402344 130.796875 136.507812 C 132.574219 136.609375 134.109375 135.253906 134.214844 133.472656 C 134.316406 131.691406 132.960938 130.160156 131.179688 130.054688 Z M 152.480469 148.707031 L 152.539062 148.46875 C 153.035156 146.605469 152.320312 144.597656 150.726562 143.347656 C 148.886719 141.898438 149.515625 138.839844 149.519531 138.8125 C 149.527344 138.789062 149.53125 138.765625 149.53125 138.742188 C 149.660156 136.609375 151.480469 134.976562 153.632812 135.101562 C 154.667969 135.164062 155.609375 135.625 156.300781 136.398438 C 156.988281 137.171875 157.335938 138.167969 157.273438 139.203125 C 157.257812 139.464844 157.457031 139.6875 157.71875 139.707031 C 157.976562 139.722656 158.203125 139.519531 158.222656 139.257812 C 158.296875 137.972656 157.871094 136.734375 157.011719 135.769531 C 156.152344 134.808594 154.976562 134.234375 153.6875 134.15625 C 151.03125 133.996094 148.761719 136.011719 148.585938 138.652344 C 148.503906 139.066406 147.925781 142.359375 150.136719 144.097656 C 151.433594 145.113281 152.011719 146.734375 151.621094 148.230469 L 151.558594 148.46875 C 151.492188 148.71875 151.644531 148.980469 151.894531 149.046875 C 151.9375 149.054688 151.976562 149.0625 152.019531 149.0625 C 152.226562 149.054688 152.421875 148.917969 152.480469 148.707031 Z M 83.746094 144.210938 C 83.515625 144.210938 83.3125 144.039062 83.277344 143.800781 L 83.246094 143.558594 C 82.972656 141.65625 83.917969 139.742188 85.644531 138.683594 C 87.644531 137.464844 87.378906 134.355469 87.375 134.324219 C 87.375 134.300781 87.371094 134.277344 87.375 134.25 C 87.4375 133.21875 87.089844 132.226562 86.402344 131.445312 C 85.710938 130.671875 84.761719 130.210938 83.734375 130.152344 C 81.597656 130.03125 79.761719 131.65625 79.632812 133.792969 C 79.617188 134.050781 79.390625 134.257812 79.128906 134.238281 C 78.867188 134.222656 78.667969 133.996094 78.683594 133.734375 C 78.839844 131.078125 81.128906 129.039062 83.785156 129.203125 C 85.070312 129.277344 86.253906 129.851562 87.109375 130.816406 C 87.957031 131.769531 88.386719 132.992188 88.320312 134.269531 C 88.351562 134.6875 88.535156 138.03125 86.136719 139.496094 C 84.730469 140.355469 83.960938 141.898438 84.179688 143.425781 L 84.214844 143.667969 C 84.25 143.929688 84.070312 144.167969 83.808594 144.207031 C 83.789062 144.207031 83.773438 144.210938 83.746094 144.210938 Z M 118.804688 145.710938 C 117.171875 145.710938 115.621094 144.9375 114.632812 143.601562 L 114.570312 143.515625 C 113.296875 141.785156 113.222656 139.410156 114.402344 137.609375 L 116.308594 134.679688 C 116.453125 134.460938 116.746094 134.398438 116.964844 134.542969 C 117.183594 134.683594 117.246094 134.976562 117.101562 135.195312 L 115.195312 138.125 C 114.234375 139.597656 114.292969 141.539062 115.335938 142.953125 L 115.398438 143.039062 C 116.3125 144.28125 117.832031 144.925781 119.371094 144.722656 L 122.054688 144.363281 C 122.3125 144.328125 122.550781 144.507812 122.585938 144.769531 C 122.617188 145.03125 122.4375 145.269531 122.175781 145.300781 L 119.496094 145.664062 C 119.265625 145.695312 119.035156 145.710938 118.804688 145.710938 Z M 118.226562 152.527344 C 115.582031 152.527344 112.527344 151.929688 109.550781 150 C 109.332031 149.859375 109.265625 149.5625 109.40625 149.347656 C 109.550781 149.128906 109.84375 149.0625 110.0625 149.203125 C 117.386719 153.945312 125.203125 150.144531 125.285156 150.105469 C 125.523438 149.988281 125.800781 150.085938 125.921875 150.320312 C 126.039062 150.550781 125.945312 150.835938 125.707031 150.953125 C 125.660156 150.984375 122.480469 152.527344 118.226562 152.527344 Z M 113.15625 216.449219 C 112.507812 216.449219 111.851562 216.292969 111.257812 215.984375 L 78.117188 198.640625 C 77.886719 198.515625 77.796875 198.230469 77.917969 198 C 78.042969 197.765625 78.328125 197.675781 78.558594 197.800781 L 111.699219 215.144531 C 112.613281 215.621094 113.699219 215.621094 114.613281 215.144531 L 147.753906 197.800781 C 147.988281 197.675781 148.273438 197.765625 148.394531 198 C 148.519531 198.230469 148.429688 198.515625 148.195312 198.640625 L 115.054688 215.984375 C 114.457031 216.292969 113.808594 216.449219 113.15625 216.449219 Z M 118.683594 224.886719 L 107.628906 224.886719 C 107.367188 224.886719 107.152344 224.675781 107.152344 224.414062 C 107.152344 224.152344 107.367188 223.9375 107.628906 223.9375 L 118.683594 223.9375 C 118.945312 223.9375 119.15625 224.152344 119.15625 224.414062 C 119.15625 224.675781 118.945312 224.886719 118.683594 224.886719 Z M 118.683594 224.886719 " fill-opacity="1" fill-rule="nonzero"/></svg>