<svg xmlns="http://www.w3.org/2000/svg" xmlns:xlink="http://www.w3.org/1999/xlink" width="500" zoomAndPan="magnify" viewBox="0 0 375 374.999991" height="500" preserveAspectRatio="xMidYMid meet" version="1.0"><defs><clipPath id="e31dc16e8c"><path d="M 34 260 L 57 260 L 57 333 L 34 333 Z M 34 260 " clip-rule="nonzero"/></clipPath><clipPath id="b29912b4ad"><path d="M 34.125 261.3125 L 56.597656 260.199219 L 61.347656 356.082031 L 38.875 357.195312 Z M 34.125 261.3125 " clip-rule="nonzero"/></clipPath><clipPath id="e2747628cd"><path d="M 34.125 261.3125 L 56.597656 260.199219 L 61.347656 356.082031 L 38.875 357.195312 Z M 34.125 261.3125 " clip-rule="nonzero"/></clipPath><clipPath id="985ff348f2"><path d="M 47 342 L 61 342 L 61 355 L 47 355 Z M 47 342 " clip-rule="nonzero"/></clipPath><clipPath id="2748e898a9"><path d="M 34.125 261.3125 L 56.597656 260.199219 L 61.347656 356.082031 L 38.875 357.195312 Z M 34.125 261.3125 " clip-rule="nonzero"/></clipPath><clipPath id="8328e5bca2"><path d="M 34.125 261.3125 L 56.597656 260.199219 L 61.347656 356.082031 L 38.875 357.195312 Z M 34.125 261.3125 " clip-rule="nonzero"/></clipPath><clipPath id="ef5f217855"><path d="M 330 42 L 358 42 L 358 115 L 330 115 Z M 330 42 " clip-rule="nonzero"/></clipPath><clipPath id="518ca885a6"><path d="M 339.042969 41.050781 L 360.808594 46.753906 L 336.476562 139.621094 L 314.710938 133.917969 Z M 339.042969 41.050781 " clip-rule="nonzero"/></clipPath><clipPath id="02a2b9a58e"><path d="M 339.042969 41.050781 L 360.808594 46.753906 L 336.476562 139.621094 L 314.710938 133.917969 Z M 339.042969 41.050781 " clip-rule="nonzero"/></clipPath><clipPath id="b78617ab20"><path d="M 325 123 L 338 123 L 338 137 L 325 137 Z M 325 123 " clip-rule="nonzero"/></clipPath><clipPath id="1a3d3583b4"><path d="M 339.042969 41.050781 L 360.808594 46.753906 L 336.476562 139.621094 L 314.710938 133.917969 Z M 339.042969 41.050781 " clip-rule="nonzero"/></clipPath><clipPath id="022e5221c0"><path d="M 339.042969 41.050781 L 360.808594 46.753906 L 336.476562 139.621094 L 314.710938 133.917969 Z M 339.042969 41.050781 " clip-rule="nonzero"/></clipPath></defs><path fill="#a2c3e6" d="M 72.546875 255.148438 L 62.886719 255.148438 C 52.957031 255.148438 44.902344 247.097656 44.902344 237.167969 L 44.902344 193.425781 C 44.902344 183.496094 52.957031 175.441406 62.886719 175.441406 L 72.546875 175.441406 C 82.476562 175.441406 90.527344 183.496094 90.527344 193.425781 L 90.527344 237.167969 C 90.519531 247.097656 82.476562 255.148438 72.546875 255.148438 Z M 72.546875 255.148438 " fill-opacity="1" fill-rule="nonzero"/><path fill="#000000" d="M 123.71875 21.789062 C 130.316406 39.429688 136.136719 87.097656 122.941406 124.398438 C 109.746094 161.699219 52.886719 121.304688 63.519531 98.273438 C 74.152344 75.246094 54.230469 37.808594 69.992188 18.898438 C 85.75 -0.0078125 102.964844 10.070312 102.964844 10.070312 C 102.964844 10.070312 117.121094 4.144531 123.71875 21.789062 Z M 123.71875 21.789062 " fill-opacity="1" fill-rule="nonzero"/><path fill="#f2c0a7" d="M 83.773438 112.660156 C 83.226562 120.941406 55.226562 136.589844 55.226562 136.589844 C 55.226562 136.589844 67.53125 156.171875 71.367188 159.769531 C 75.203125 163.371094 82.316406 174.714844 64.003906 167.714844 C 45.6875 160.710938 30.59375 140.539062 30.1875 134.675781 C 29.785156 128.8125 52.816406 105.609375 52.816406 105.609375 C 71.792969 94.492188 84.320312 104.375 83.773438 112.660156 Z M 83.773438 112.660156 " fill-opacity="1" fill-rule="nonzero"/><path fill="#f2c0a7" d="M 115.570312 74.035156 C 115.570312 74.035156 99.144531 90.109375 85 81.464844 C 85 81.464844 86.820312 78.179688 86.820312 72.769531 C 86.820312 72.40625 86.8125 72.035156 86.792969 71.644531 C 86.753906 70.816406 86.667969 69.9375 86.527344 69.019531 C 86.527344 69.011719 86.527344 69.011719 86.527344 69.003906 C 84.367188 68.441406 82.316406 67.546875 80.433594 66.335938 C 77.460938 64.429688 74.910156 61.773438 72.980469 58.601562 C 70.511719 54.523438 69.058594 49.589844 69.058594 44.28125 C 69.058594 30.269531 79.136719 18.898438 91.574219 18.898438 C 104.011719 18.898438 114.089844 30.269531 114.089844 44.28125 C 114.089844 49.136719 112.863281 53.679688 110.765625 57.53125 C 110.804688 57.839844 110.84375 58.15625 110.886719 58.488281 C 110.917969 58.71875 110.949219 58.949219 110.980469 59.183594 C 111.707031 64.445312 113.15625 72.097656 115.570312 74.035156 Z M 115.570312 74.035156 " fill-opacity="1" fill-rule="nonzero"/><path fill="#000000" d="M 89.839844 323.242188 C 85.15625 326.707031 81.273438 331.035156 78.984375 333.84375 C 77.425781 335.757812 75.269531 337.097656 72.855469 337.660156 L 64.019531 339.714844 C 43.726562 343.355469 44.714844 332.308594 51.984375 328.402344 C 57.46875 325.457031 68.359375 313.09375 73.394531 307.191406 C 75.109375 305.175781 76.042969 302.617188 76.042969 299.976562 L 76.042969 289.683594 C 76.042969 288.933594 76.097656 288.179688 76.265625 287.453125 C 77.246094 283.132812 80.085938 281.890625 83.242188 282.023438 C 89.539062 282.285156 94.207031 288.03125 93.550781 294.296875 C 93.335938 296.335938 93.117188 298.433594 92.933594 300.167969 C 92.710938 302.285156 93.011719 304.445312 93.945312 306.351562 C 94.886719 308.273438 95.324219 310.5 95.496094 312.578125 C 95.703125 315.03125 95.078125 317.445312 93.789062 319.445312 L 93.789062 333.925781 C 93.789062 335.015625 92.902344 335.902344 91.8125 335.902344 C 90.71875 335.902344 89.832031 335.015625 89.832031 333.925781 L 89.832031 323.242188 Z M 136.929688 324.191406 C 136.753906 322.105469 136.320312 319.882812 135.378906 317.964844 C 134.445312 316.050781 134.144531 313.890625 134.367188 311.78125 C 134.546875 310.046875 134.769531 307.949219 134.984375 305.910156 L 138.125 279.050781 L 117.523438 281.066406 L 117.523438 300.476562 C 117.5 300.808594 117.484375 301.140625 117.484375 301.472656 L 117.484375 311.589844 C 117.484375 314.234375 116.542969 316.796875 114.832031 318.804688 C 109.808594 324.707031 98.90625 337.074219 93.425781 340.015625 C 86.152344 343.925781 85.164062 354.960938 105.457031 351.328125 L 114.292969 349.273438 C 116.699219 348.710938 118.867188 347.382812 120.425781 345.457031 C 122.710938 342.648438 126.597656 338.324219 131.28125 334.859375 L 131.28125 345.53125 C 131.28125 346.621094 132.167969 347.507812 133.257812 347.507812 C 134.351562 347.507812 135.234375 346.621094 135.234375 345.53125 L 135.234375 331.050781 C 136.503906 329.050781 137.128906 326.636719 136.929688 324.191406 Z M 136.929688 324.191406 " fill-opacity="1" fill-rule="nonzero"/><path fill="#000000" d="M 99.847656 20.671875 C 99.847656 20.671875 91.082031 35.339844 69.191406 41.574219 C 69.191406 41.574219 66.84375 15.792969 99.238281 15.285156 C 99.238281 15.285156 113.929688 23.75 114.097656 38.804688 C 114.089844 38.8125 102.601562 30.199219 99.847656 20.671875 Z M 99.847656 20.671875 " fill-opacity="1" fill-rule="nonzero"/><path fill="#f2c0a7" d="M 121.460938 46.96875 C 119.058594 51.519531 114.59375 53.875 111.484375 52.230469 C 108.378906 50.585938 107.808594 45.570312 110.210938 41.019531 C 112.617188 36.472656 117.078125 34.113281 120.1875 35.757812 C 123.296875 37.40625 123.867188 42.429688 121.460938 46.96875 Z M 121.460938 46.96875 " fill-opacity="1" fill-rule="nonzero"/><path fill="#f286a7" d="M 127.007812 162.074219 C 110.5625 164.867188 84.121094 158.195312 84.121094 158.195312 C 84.121094 158.195312 73.765625 163.242188 69.058594 158.195312 C 64.359375 153.148438 61.4375 131.132812 61.4375 131.132812 C 52.246094 129.929688 46.082031 120.285156 43.550781 115.464844 C 42.695312 113.84375 42.917969 111.875 44.121094 110.492188 C 46.082031 108.25 50.078125 103.835938 58.203125 95.175781 C 73.550781 78.8125 85 81.464844 85 81.464844 L 86.527344 74.699219 C 101.714844 77.453125 112.410156 66.945312 112.410156 66.945312 L 115.570312 74.035156 C 131.066406 76.328125 144.4375 82.445312 144.4375 82.445312 C 165.03125 97.601562 143.457031 159.28125 127.007812 162.074219 Z M 127.007812 162.074219 " fill-opacity="1" fill-rule="nonzero"/><path fill="#000000" d="M 102.015625 41.589844 C 102.015625 43.125 100.773438 44.367188 99.238281 44.367188 C 97.703125 44.367188 96.460938 43.125 96.460938 41.589844 C 96.460938 40.054688 97.703125 38.8125 99.238281 38.8125 C 100.765625 38.8125 102.015625 40.054688 102.015625 41.589844 Z M 80.828125 45.175781 C 79.292969 45.175781 78.050781 46.417969 78.050781 47.949219 C 78.050781 49.484375 79.292969 50.726562 80.828125 50.726562 C 82.363281 50.726562 83.605469 49.484375 83.605469 47.949219 C 83.605469 46.417969 82.363281 45.175781 80.828125 45.175781 Z M 91.628906 55.109375 C 91.84375 55.078125 92 54.882812 91.96875 54.667969 C 91.945312 54.453125 91.746094 54.304688 91.527344 54.328125 C 91.503906 54.328125 89.351562 54.589844 88.574219 53.386719 C 87.996094 52.484375 88.84375 50.070312 89.515625 48.757812 C 89.621094 48.558594 89.539062 48.324219 89.34375 48.226562 C 89.144531 48.125 88.90625 48.203125 88.8125 48.402344 C 88.613281 48.789062 86.890625 52.246094 87.910156 53.820312 C 88.652344 54.976562 90.164062 55.148438 91.019531 55.148438 C 91.359375 55.140625 91.597656 55.109375 91.628906 55.109375 Z M 103.304688 52.746094 C 103.417969 52.554688 103.351562 52.316406 103.164062 52.207031 C 102.972656 52.097656 102.734375 52.160156 102.625 52.351562 C 102.578125 52.4375 97.617188 60.671875 87.769531 59.769531 C 87.554688 59.753906 87.355469 59.914062 87.339844 60.125 C 87.324219 60.339844 87.484375 60.539062 87.695312 60.554688 C 88.234375 60.601562 88.757812 60.625 89.269531 60.625 C 98.589844 60.632812 103.257812 52.832031 103.304688 52.746094 Z M 91.574219 35.355469 C 91.621094 35.324219 96.574219 32.445312 101.652344 35.070312 C 102.039062 35.269531 102.515625 35.117188 102.71875 34.730469 C 102.917969 34.34375 102.769531 33.867188 102.378906 33.664062 C 96.496094 30.617188 90.988281 33.859375 90.757812 34.003906 C 90.386719 34.226562 90.269531 34.714844 90.488281 35.085938 C 90.640625 35.332031 90.902344 35.476562 91.167969 35.476562 C 91.304688 35.464844 91.445312 35.425781 91.574219 35.355469 Z M 73.621094 43.867188 C 75.59375 40.417969 79.945312 40.457031 80.03125 40.457031 C 80.472656 40.5 80.828125 40.125 80.835938 39.691406 C 80.84375 39.257812 80.503906 38.890625 80.070312 38.882812 C 79.855469 38.875 74.699219 38.796875 72.246094 43.09375 C 72.03125 43.472656 72.160156 43.957031 72.539062 44.167969 C 72.664062 44.242188 72.800781 44.273438 72.933594 44.273438 C 73.210938 44.273438 73.472656 44.128906 73.621094 43.867188 Z M 91.574219 69.660156 C 89.839844 69.660156 88.148438 69.4375 86.527344 69.019531 C 86.667969 69.9375 86.753906 70.816406 86.792969 71.644531 C 89.507812 72.769531 92.703125 73.210938 96.035156 72.753906 C 104.003906 71.660156 109.855469 65.800781 109.660156 59.398438 C 105.550781 65.625 98.976562 69.660156 91.574219 69.660156 Z M 113.675781 41.367188 C 114.722656 39.867188 115.910156 39.011719 117.222656 38.804688 C 119.074219 38.519531 120.570312 39.667969 120.585938 39.675781 C 120.757812 39.808594 121.003906 39.777344 121.136719 39.605469 C 121.273438 39.429688 121.242188 39.183594 121.074219 39.050781 C 121.003906 38.996094 119.3125 37.683594 117.121094 38.015625 C 115.578125 38.242188 114.207031 39.214844 113.027344 40.910156 C 112.902344 41.089844 112.949219 41.335938 113.132812 41.464844 C 113.203125 41.511719 113.28125 41.535156 113.351562 41.535156 C 113.480469 41.535156 113.597656 41.480469 113.675781 41.367188 Z M 108.644531 83.125 C 108.851562 83.046875 108.945312 82.816406 108.867188 82.609375 C 108.789062 82.40625 108.558594 82.308594 108.351562 82.390625 C 108.203125 82.445312 93.589844 88.03125 85.246094 81.164062 C 85.078125 81.019531 84.824219 81.042969 84.691406 81.21875 C 84.546875 81.382812 84.570312 81.636719 84.746094 81.773438 C 88.117188 84.550781 92.378906 85.410156 96.367188 85.410156 C 102.664062 85.410156 108.265625 83.265625 108.644531 83.125 Z M 104.175781 157.539062 C 104.207031 157.324219 104.058594 157.121094 103.835938 157.097656 C 84.832031 154.421875 77.609375 147.261719 77.539062 147.191406 C 77.386719 147.035156 77.136719 147.035156 76.976562 147.183594 C 76.820312 147.332031 76.820312 147.585938 76.96875 147.746094 C 77.261719 148.046875 84.414062 155.167969 103.726562 157.878906 C 103.742188 157.878906 103.765625 157.878906 103.78125 157.878906 C 103.976562 157.878906 104.152344 157.738281 104.175781 157.539062 Z M 61.484375 131.527344 C 61.699219 131.496094 61.859375 131.296875 61.828125 131.082031 C 59.917969 116.335938 67.144531 105.609375 67.214844 105.507812 C 67.339844 105.324219 67.292969 105.078125 67.109375 104.953125 C 66.929688 104.824219 66.683594 104.875 66.558594 105.054688 C 66.484375 105.167969 59.089844 116.132812 61.035156 131.1875 C 61.058594 131.382812 61.234375 131.535156 61.429688 131.535156 C 61.453125 131.527344 61.46875 131.527344 61.484375 131.527344 Z M 61.484375 131.527344 " fill-opacity="1" fill-rule="nonzero"/><path fill="#ffd391" d="M 140.949219 156.726562 L 152.230469 284.507812 C 146.675781 291.78125 131.984375 293.394531 131.984375 293.394531 C 119.199219 299.199219 105.804688 297.167969 105.804688 297.167969 C 94.492188 297.167969 85.609375 291.242188 85.609375 291.242188 C 73.488281 291.242188 61.90625 281.742188 61.90625 281.742188 C 56.785156 231.296875 69.058594 158.195312 69.058594 158.195312 Z M 140.949219 156.726562 " fill-opacity="1" fill-rule="nonzero"/><path fill="#000000" d="M 85.609375 291.636719 C 85.394531 291.636719 85.21875 291.472656 85.210938 291.257812 C 85.179688 290.523438 82.007812 217.082031 84.136719 178.8125 C 84.152344 178.589844 84.335938 178.425781 84.554688 178.441406 C 84.777344 178.457031 84.945312 178.640625 84.925781 178.859375 C 82.800781 217.089844 85.972656 290.492188 86.003906 291.226562 C 86.011719 291.449219 85.84375 291.628906 85.625 291.636719 C 85.625 291.636719 85.617188 291.636719 85.609375 291.636719 Z M 107.5625 297.515625 C 107.5625 296.78125 107.507812 223.078125 102.972656 169.644531 C 102.957031 169.421875 102.761719 169.265625 102.546875 169.28125 C 102.324219 169.296875 102.167969 169.492188 102.183594 169.707031 C 106.707031 223.109375 106.761719 296.773438 106.761719 297.507812 C 106.761719 297.730469 106.9375 297.902344 107.160156 297.902344 C 107.378906 297.910156 107.5625 297.738281 107.5625 297.515625 Z M 132 293.796875 C 132.222656 293.789062 132.386719 293.609375 132.378906 293.386719 C 132.347656 292.617188 129.253906 215.941406 127.136719 189.257812 C 127.121094 189.035156 126.929688 188.875 126.707031 188.890625 C 126.484375 188.910156 126.328125 189.097656 126.34375 189.320312 C 128.472656 215.988281 131.558594 292.640625 131.589844 293.417969 C 131.597656 293.632812 131.769531 293.796875 131.984375 293.796875 C 131.992188 293.796875 132 293.796875 132 293.796875 Z M 57.417969 183.457031 C 85.039062 165.507812 101.597656 137.128906 110.625 116.480469 C 120.394531 94.128906 123.695312 75.75 123.726562 75.570312 C 123.804688 75.140625 123.511719 74.730469 123.085938 74.652344 C 122.648438 74.574219 122.246094 74.867188 122.167969 75.292969 C 122.136719 75.476562 118.859375 93.695312 109.160156 115.878906 C 100.21875 136.3125 83.835938 164.398438 56.558594 182.128906 C 56.195312 182.367188 56.089844 182.855469 56.328125 183.21875 C 56.476562 183.449219 56.730469 183.582031 56.992188 183.582031 C 57.136719 183.582031 57.285156 183.535156 57.417969 183.457031 Z M 57.417969 183.457031 " fill-opacity="1" fill-rule="nonzero"/><path fill="#f2c0a7" d="M 223.503906 321.707031 C 224.058594 308.828125 218.164062 307.175781 220.324219 297.339844 C 221.28125 292.984375 223.695312 290.632812 225.585938 289.421875 C 225.59375 289.421875 225.59375 289.421875 225.59375 289.421875 C 227 288.511719 228.125 288.242188 228.125 288.242188 L 231.714844 279.167969 L 246.882812 287.761719 C 246.882812 287.761719 242.175781 293.765625 241.484375 295.726562 C 241.152344 296.652344 242.5625 303.03125 243.652344 310.277344 C 243.660156 310.285156 243.660156 310.285156 243.660156 310.285156 C 244.855469 318.226562 245.671875 327.230469 243.449219 331.3125 C 240.828125 336.082031 222.949219 334.597656 223.503906 321.707031 Z M 309.9375 355.894531 C 308.773438 350.410156 300.964844 342.824219 293.644531 336.496094 C 293.644531 336.496094 293.644531 336.496094 293.636719 336.496094 C 286.953125 330.71875 280.671875 325.996094 280.246094 324.890625 C 279.335938 322.5625 278.929688 313.378906 278.929688 313.378906 L 258.328125 317.414062 L 262.167969 328.527344 C 262.167969 328.527344 261.351562 329.652344 260.773438 331.589844 C 260.773438 331.589844 260.773438 331.589844 260.765625 331.597656 C 259.992188 334.183594 259.628906 338.226562 262.167969 342.964844 C 267.902344 353.65625 274.585938 350.546875 284.183594 362.761719 C 293.78125 374.984375 311.296875 362.316406 309.9375 355.894531 Z M 309.9375 355.894531 " fill-opacity="1" fill-rule="nonzero"/><path fill="#000000" d="M 245.496094 325.441406 C 245.957031 334.566406 241.753906 338.695312 230.511719 334.683594 C 219.261719 330.671875 219.277344 318.425781 220.117188 315.253906 C 220.964844 312.082031 219.421875 307.175781 219.421875 307.175781 L 218.496094 302.332031 C 218.378906 301.714844 218.371094 301.074219 218.457031 300.457031 C 219.652344 292.042969 224.917969 289.890625 224.917969 289.890625 C 223.914062 297.617188 228.035156 307.050781 228.035156 307.050781 C 237.710938 306.066406 243.660156 310.277344 243.660156 310.277344 C 243.660156 310.277344 245.039062 316.320312 245.496094 325.441406 Z M 293.644531 336.496094 C 293.644531 336.496094 284.902344 337.308594 276.828125 345.800781 C 276.828125 345.800781 265.664062 340.402344 260.519531 332.546875 C 260.519531 332.546875 257.386719 338.640625 262.894531 347.277344 C 263.304688 347.917969 263.8125 348.496094 264.40625 348.964844 L 269.050781 352.667969 C 269.050781 352.667969 274.300781 355.941406 276.019531 359.507812 C 277.734375 363.078125 287.332031 374.28125 300.765625 369.128906 C 314.199219 363.980469 314.800781 356.90625 307.230469 348.933594 C 299.660156 340.957031 293.644531 336.496094 293.644531 336.496094 Z M 293.644531 336.496094 " fill-opacity="1" fill-rule="nonzero"/><path fill="#f2c0a7" d="M 323.757812 151.320312 C 323.757812 151.320312 345.203125 194.5 306.019531 201.78125 C 266.835938 209.058594 292.824219 132.785156 323.757812 151.320312 Z M 323.757812 151.320312 " fill-opacity="1" fill-rule="nonzero"/><path fill="#f286a7" d="M 285.464844 266.945312 C 285.464844 266.945312 286.175781 299.660156 284.484375 311.714844 C 284.292969 313.078125 283.503906 314.273438 282.324219 314.96875 C 278.441406 317.261719 268.628906 322.058594 256.691406 320.425781 C 255.15625 320.214844 253.859375 319.191406 253.242188 317.769531 C 252.015625 314.953125 249.746094 309.605469 246.960938 302.507812 C 230.109375 304.242188 223.6875 291.589844 221.597656 285.476562 C 220.957031 283.609375 221.390625 281.535156 222.703125 280.054688 L 234.46875 266.757812 C 224.214844 233.234375 216.097656 192.082031 228.117188 169.003906 C 250.65625 125.71875 304.925781 139.257812 306.160156 188.078125 C 306.167969 188.417969 306.21875 188.75 306.296875 189.074219 C 307.640625 194.226562 318.765625 240.757812 285.464844 266.945312 Z M 285.464844 266.945312 " fill-opacity="1" fill-rule="nonzero"/><path fill="#ffd391" d="M 334.253906 141.375 C 335.070312 143.71875 334.121094 146.296875 331.984375 147.554688 C 324.855469 151.742188 317.726562 153.023438 317.726562 153.023438 C 316.929688 168.925781 310.957031 181.691406 308.488281 186.351562 C 307.855469 187.546875 306.707031 188.386719 305.378906 188.625 C 255.15625 197.429688 227.015625 185.648438 225.820312 172.292969 C 224.609375 158.757812 197.007812 128.796875 222.261719 104.152344 C 247.515625 79.507812 275.640625 88.226562 275.640625 88.226562 C 312.507812 87.515625 329.738281 128.464844 334.253906 141.375 Z M 334.253906 141.375 " fill-opacity="1" fill-rule="nonzero"/><path fill="#f2c0a7" d="M 301.273438 59.929688 C 301.273438 69.984375 296.953125 78.988281 289.984375 83.75 C 289.570312 84.035156 289.144531 84.304688 288.71875 84.550781 C 287.761719 85.109375 286.746094 85.59375 285.703125 85.988281 C 285.703125 85.988281 285.703125 85.996094 285.703125 86.003906 C 285.773438 86.773438 285.84375 87.484375 285.925781 88.109375 C 285.925781 88.117188 285.925781 88.117188 285.925781 88.125 C 286.089844 89.566406 286.265625 90.632812 286.351562 91.179688 C 286.398438 91.457031 286.367188 91.726562 286.265625 91.984375 C 284.351562 96.828125 279.539062 107.222656 277.339844 111.921875 C 276.859375 112.964844 275.441406 113.109375 274.738281 112.199219 C 270.140625 106.21875 259.261719 95.230469 255.789062 91.757812 C 255.234375 91.203125 255.1875 90.316406 255.6875 89.714844 C 258.179688 86.734375 260.464844 80.175781 260.464844 80.175781 C 259.269531 79.304688 258.179688 78.332031 257.332031 77.246094 C 253.535156 72.390625 251.179688 66.644531 251.179688 59.929688 C 251.179688 45.0625 263.351562 33.007812 276.84375 33.007812 C 290.332031 33.007812 301.273438 45.0625 301.273438 59.929688 Z M 301.273438 59.929688 " fill-opacity="1" fill-rule="nonzero"/><path fill="#000000" d="M 256.226562 51.597656 C 255.71875 56.550781 248.320312 67.230469 242.59375 52.910156 C 235.117188 34.226562 255.378906 28.671875 255.378906 28.671875 C 259.019531 14.9375 277.355469 20.175781 288.851562 25.433594 C 300.765625 30.886719 308.75 28.671875 310.164062 36.75 C 311.582031 44.824219 304.507812 50.617188 290.878906 49.808594 C 277.246094 49.003906 266.082031 35.632812 266.082031 35.632812 C 266.027344 47.855469 256.226562 51.597656 256.226562 51.597656 Z M 256.226562 51.597656 " fill-opacity="1" fill-rule="nonzero"/><path fill="#f2c0a7" d="M 253.613281 61.375 C 256.542969 65.726562 256.730469 70.71875 254.050781 72.523438 C 251.367188 74.328125 246.820312 72.261719 243.890625 67.910156 C 240.964844 63.558594 240.773438 58.566406 243.457031 56.765625 C 246.144531 54.960938 250.695312 57.023438 253.613281 61.375 Z M 253.613281 61.375 " fill-opacity="1" fill-rule="nonzero"/><path fill="#000000" d="M 284.570312 215.300781 L 285.859375 266.9375 C 285.871094 267.160156 285.695312 267.339844 285.472656 267.339844 C 285.472656 267.339844 285.464844 267.339844 285.464844 267.339844 C 285.253906 267.339844 285.078125 267.167969 285.070312 266.953125 L 283.78125 215.316406 C 283.773438 215.09375 283.945312 214.914062 284.167969 214.914062 C 284.167969 214.914062 284.175781 214.914062 284.175781 214.914062 C 284.390625 214.914062 284.5625 215.085938 284.570312 215.300781 Z M 234.824219 266.621094 C 234.753906 266.417969 234.523438 266.3125 234.320312 266.382812 C 234.113281 266.457031 234.003906 266.683594 234.082031 266.890625 L 246.503906 301.605469 C 246.558594 301.773438 246.714844 301.867188 246.875 301.867188 C 246.921875 301.867188 246.960938 301.859375 247.007812 301.84375 C 247.214844 301.773438 247.324219 301.542969 247.246094 301.335938 Z M 273.480469 114.082031 C 270.496094 116.589844 262.109375 122.894531 259.207031 121.953125 C 256.605469 121.117188 252.46875 104.199219 250.316406 93.039062 C 250.277344 92.824219 250.070312 92.683594 249.847656 92.722656 C 249.636719 92.761719 249.492188 92.964844 249.53125 93.1875 C 250.085938 96.074219 255.078125 121.464844 258.953125 122.714844 C 259.214844 122.800781 259.507812 122.839844 259.816406 122.839844 C 264.246094 122.839844 273.558594 115.054688 273.976562 114.699219 C 274.144531 114.558594 274.167969 114.3125 274.027344 114.144531 C 273.898438 113.964844 273.644531 113.941406 273.480469 114.082031 Z M 292.429688 92.714844 C 292.214844 92.746094 292.0625 92.941406 292.09375 93.164062 C 292.128906 93.386719 295.292969 115.449219 293.742188 119.074219 C 293.621094 119.351562 293.410156 119.523438 293.078125 119.628906 C 290.277344 120.457031 281.453125 115.207031 278.296875 113.109375 C 278.117188 112.992188 277.871094 113.039062 277.753906 113.21875 C 277.632812 113.402344 277.679688 113.648438 277.863281 113.765625 C 278.304688 114.058594 288.0625 120.5 292.417969 120.5 C 292.746094 120.5 293.042969 120.457031 293.304688 120.386719 C 293.867188 120.222656 294.253906 119.882812 294.46875 119.390625 C 296.105469 115.5625 293.011719 93.972656 292.878906 93.054688 C 292.847656 92.832031 292.640625 92.683594 292.429688 92.714844 Z M 284.945312 152.121094 C 284.953125 152.121094 284.96875 152.121094 284.976562 152.121094 C 285.1875 152.105469 285.355469 151.90625 285.339844 151.691406 C 283.875 134.515625 278.511719 116.074219 278.457031 115.894531 C 278.394531 115.6875 278.179688 115.5625 277.964844 115.625 C 277.761719 115.6875 277.632812 115.910156 277.695312 116.117188 C 277.753906 116.296875 283.09375 134.667969 284.546875 151.765625 C 284.570312 151.960938 284.738281 152.121094 284.945312 152.121094 Z M 309.46875 121.425781 C 309.34375 121.242188 309.097656 121.203125 308.914062 121.328125 C 308.734375 121.457031 308.695312 121.699219 308.820312 121.882812 C 308.898438 121.992188 316.574219 133.164062 317.316406 153.03125 C 317.324219 153.242188 317.5 153.410156 317.710938 153.410156 C 317.71875 153.410156 317.71875 153.410156 317.726562 153.410156 C 317.949219 153.402344 318.117188 153.21875 318.109375 153 C 317.355469 132.902344 309.546875 121.542969 309.46875 121.425781 Z M 311.257812 117.191406 C 311.289062 117.199219 311.3125 117.199219 311.335938 117.199219 C 311.519531 117.199219 311.683594 117.074219 311.722656 116.882812 C 312.640625 112.5625 315.671875 107.902344 315.703125 107.863281 C 315.820312 107.683594 315.773438 107.4375 315.59375 107.316406 C 315.410156 107.199219 315.164062 107.246094 315.046875 107.429688 C 314.917969 107.625 311.90625 112.253906 310.957031 116.726562 C 310.910156 116.9375 311.042969 117.144531 311.257812 117.191406 Z M 311.257812 117.191406 " fill-opacity="1" fill-rule="nonzero"/><path fill="#f2c0a7" d="M 299.484375 170.664062 C 295.039062 175.917969 281.511719 175.332031 281.511719 175.332031 C 281.511719 175.332031 271.296875 181.410156 261.265625 186.441406 C 260.285156 186.9375 259.300781 187.421875 258.335938 187.878906 C 253.566406 190.183594 249.074219 192.066406 246.027344 192.753906 C 236.042969 194.992188 223.574219 175.332031 223.574219 175.332031 L 224.769531 167.871094 C 236.914062 163.210938 259.175781 162.269531 269.300781 162.089844 C 268.695312 159.28125 268.132812 155.160156 269.453125 153.015625 C 270.941406 150.601562 274.878906 150.925781 277.128906 151.34375 C 278.117188 149.898438 279.246094 148.910156 280.363281 148.875 C 283.867188 148.757812 283.695312 151.714844 283.695312 151.714844 C 283.695312 151.714844 284.027344 149.152344 286.800781 149.144531 C 289.585938 149.136719 289.785156 152.359375 289.785156 152.359375 C 289.785156 152.359375 291.605469 150.0625 293.898438 150.601562 C 296.1875 151.132812 296.390625 154.105469 296.390625 154.105469 C 296.390625 154.105469 298.140625 151.34375 300.023438 153.015625 C 302.246094 154.976562 303.929688 165.417969 299.484375 170.664062 Z M 299.484375 170.664062 " fill-opacity="1" fill-rule="nonzero"/><path fill="#000000" d="M 295.84375 163.324219 C 295.78125 163.324219 295.71875 163.308594 295.65625 163.273438 C 295.464844 163.171875 295.394531 162.925781 295.496094 162.738281 C 296.960938 160.0625 296.011719 154.234375 296.003906 154.167969 C 295.964844 153.957031 296.113281 153.75 296.328125 153.710938 C 296.542969 153.679688 296.746094 153.820312 296.785156 154.035156 C 296.828125 154.289062 297.792969 160.199219 296.195312 163.109375 C 296.113281 163.25 295.980469 163.324219 295.84375 163.324219 Z M 289.871094 162.105469 C 291.875 158.308594 290.246094 152.492188 290.171875 152.246094 C 290.109375 152.042969 289.894531 151.914062 289.683594 151.976562 C 289.46875 152.042969 289.351562 152.253906 289.414062 152.46875 C 289.429688 152.523438 291.027344 158.21875 289.175781 161.734375 C 289.074219 161.921875 289.144531 162.167969 289.34375 162.269531 C 289.398438 162.300781 289.460938 162.316406 289.523438 162.316406 C 289.667969 162.308594 289.800781 162.238281 289.871094 162.105469 Z M 282.855469 162.136719 C 284.863281 159.089844 284.082031 151.433594 284.050781 151.109375 C 284.027344 150.894531 283.835938 150.726562 283.613281 150.757812 C 283.402344 150.785156 283.242188 150.972656 283.265625 151.195312 C 283.273438 151.273438 284.050781 158.890625 282.199219 161.707031 C 282.078125 161.890625 282.128906 162.136719 282.308594 162.253906 C 282.371094 162.300781 282.453125 162.316406 282.53125 162.316406 C 282.648438 162.308594 282.777344 162.246094 282.855469 162.136719 Z M 274.058594 159.460938 C 274.714844 158.566406 277.039062 152.554688 277.300781 151.867188 C 277.378906 151.660156 277.277344 151.433594 277.070312 151.351562 C 276.867188 151.273438 276.636719 151.375 276.558594 151.582031 C 275.535156 154.226562 273.859375 158.378906 273.417969 158.996094 C 273.289062 159.167969 273.320312 159.421875 273.503906 159.550781 C 273.574219 159.605469 273.652344 159.628906 273.742188 159.628906 C 273.859375 159.621094 273.976562 159.566406 274.058594 159.460938 Z M 251.414062 63.332031 C 251.589844 63.203125 251.636719 62.957031 251.511719 62.777344 C 250.132812 60.863281 248.636719 59.800781 247.0625 59.628906 C 245.226562 59.429688 244.003906 60.515625 243.953125 60.554688 C 243.789062 60.695312 243.78125 60.949219 243.921875 61.117188 C 244.066406 61.28125 244.320312 61.289062 244.484375 61.148438 C 244.492188 61.140625 245.496094 60.253906 246.984375 60.410156 C 248.328125 60.5625 249.636719 61.511719 250.878906 63.234375 C 250.957031 63.347656 251.074219 63.402344 251.203125 63.402344 C 251.265625 63.402344 251.34375 63.378906 251.414062 63.332031 Z M 285.703125 86.003906 C 283.433594 86.875 280.964844 87.351562 278.34375 87.351562 C 274.816406 87.351562 272.207031 86.835938 269.050781 85.355469 C 267.476562 84.613281 265.695312 83.480469 263.75 82.277344 C 264.96875 87.507812 270.277344 91.457031 276.644531 91.457031 C 280.261719 91.457031 283.542969 90.183594 285.925781 88.109375 C 285.84375 87.484375 285.773438 86.773438 285.703125 86.003906 Z M 289.675781 72.023438 C 289.855469 71.90625 289.902344 71.660156 289.785156 71.480469 C 289.660156 71.296875 289.414062 71.25 289.238281 71.367188 C 280.472656 77.277344 271.160156 71.820312 271.066406 71.765625 C 270.878906 71.652344 270.640625 71.714844 270.519531 71.898438 C 270.410156 72.089844 270.464844 72.324219 270.65625 72.445312 C 270.71875 72.484375 274.839844 74.914062 280.246094 74.914062 C 283.164062 74.90625 286.453125 74.191406 289.675781 72.023438 Z M 285.542969 66.035156 C 285.542969 64.382812 285.101562 63.203125 284.222656 62.53125 C 283.042969 61.621094 281.542969 62 281.476562 62.015625 C 281.265625 62.074219 281.144531 62.285156 281.195312 62.5 C 281.242188 62.714844 281.460938 62.839844 281.675781 62.785156 C 281.683594 62.785156 282.871094 62.492188 283.742188 63.164062 C 284.414062 63.6875 284.753906 64.652344 284.753906 66.042969 C 284.753906 66.265625 284.925781 66.441406 285.148438 66.441406 C 285.371094 66.441406 285.542969 66.257812 285.542969 66.035156 Z M 267.324219 54.589844 C 265.527344 54.589844 264.074219 56.042969 264.074219 57.839844 C 264.074219 59.636719 265.527344 61.089844 267.324219 61.089844 C 269.121094 61.089844 270.578125 59.636719 270.578125 57.839844 C 270.578125 56.042969 269.121094 54.589844 267.324219 54.589844 Z M 288.765625 54.777344 C 286.96875 54.777344 285.511719 56.234375 285.511719 58.03125 C 285.511719 59.824219 286.96875 61.28125 288.765625 61.28125 C 290.5625 61.28125 292.015625 59.824219 292.015625 58.03125 C 292.015625 56.234375 290.5625 54.777344 288.765625 54.777344 Z M 267.894531 47.675781 C 264.761719 48.046875 262.339844 49.296875 262.476562 50.484375 C 262.617188 51.660156 265.269531 52.324219 268.394531 51.953125 C 271.519531 51.582031 273.945312 50.332031 273.8125 49.144531 C 273.675781 47.964844 271.027344 47.300781 267.894531 47.675781 Z M 290.386719 47.660156 C 287.238281 47.484375 284.636719 48.300781 284.5625 49.492188 C 284.5 50.679688 286.992188 51.789062 290.140625 51.960938 C 293.289062 52.136719 295.894531 51.320312 295.964844 50.125 C 296.027344 48.941406 293.535156 47.839844 290.386719 47.660156 Z M 290.386719 47.660156 " fill-opacity="1" fill-rule="nonzero"/><path fill="#a2c3e6" d="M 253.597656 72.601562 C 253.597656 74.160156 252.332031 75.425781 250.773438 75.425781 C 249.214844 75.425781 247.949219 74.160156 247.949219 72.601562 C 247.949219 71.042969 249.214844 69.777344 250.773438 69.777344 C 252.332031 69.777344 253.597656 71.042969 253.597656 72.601562 Z M 253.597656 72.601562 " fill-opacity="1" fill-rule="nonzero"/><path fill="#ffd391" d="M 224.152344 335.507812 C 235.671875 347.023438 230.261719 352.023438 222.769531 356.464844 C 215.277344 360.902344 202.507812 361.789062 199.917969 349.984375 C 197.339844 338.1875 190.261719 337.292969 187.902344 324.9375 C 185.542969 312.578125 194.167969 308.433594 194.167969 308.433594 C 206.660156 304.273438 213.496094 324.851562 224.152344 335.507812 Z M 139.96875 335.507812 C 128.449219 347.023438 133.859375 352.023438 141.351562 356.464844 C 148.84375 360.902344 161.613281 361.789062 164.199219 349.984375 C 166.777344 338.1875 173.859375 337.292969 176.21875 324.9375 C 178.574219 312.578125 169.953125 308.433594 169.953125 308.433594 C 157.453125 304.273438 150.625 324.851562 139.96875 335.507812 Z M 139.96875 335.507812 " fill-opacity="1" fill-rule="nonzero"/><path fill="#f2c0a7" d="M 208.929688 300.441406 C 208.171875 306.257812 207.523438 311.042969 207.136719 313.882812 C 206.769531 316.582031 204.945312 318.941406 202.324219 319.714844 C 199.894531 320.433594 197.664062 319.667969 195.910156 318.550781 C 193.597656 317.082031 192.394531 314.367188 192.734375 311.644531 C 193.0625 309.097656 193.289062 304.890625 192.847656 298.433594 C 192.785156 297.523438 192.703125 296.558594 192.609375 295.554688 C 191.328125 281.527344 191.511719 249.074219 191.535156 246.203125 C 191.535156 246.058594 191.535156 245.925781 191.542969 245.78125 C 192.5 227.445312 213.621094 231.359375 214.5625 242.625 C 215.195312 250.222656 211.453125 281.027344 208.929688 300.441406 Z M 155.179688 300.441406 C 155.941406 306.257812 156.589844 311.042969 156.976562 313.882812 C 157.339844 316.582031 159.167969 318.941406 161.785156 319.714844 C 164.214844 320.433594 166.445312 319.667969 168.203125 318.550781 C 170.511719 317.082031 171.714844 314.367188 171.375 311.644531 C 171.050781 309.097656 170.820312 304.890625 171.265625 298.433594 C 171.328125 297.523438 171.40625 296.558594 171.503906 295.554688 C 172.785156 281.527344 172.601562 249.074219 172.578125 246.203125 C 172.578125 246.058594 172.578125 245.925781 172.570312 245.78125 C 171.613281 227.445312 150.488281 231.359375 149.546875 242.625 C 148.914062 250.222656 152.65625 281.027344 155.179688 300.441406 Z M 155.179688 300.441406 " fill-opacity="1" fill-rule="nonzero"/><path fill="#f286a7" d="M 208.929688 300.441406 C 208.171875 306.257812 207.523438 311.042969 207.136719 313.882812 C 206.769531 316.582031 204.945312 318.941406 202.324219 319.714844 C 199.894531 320.433594 197.664062 319.667969 195.910156 318.550781 C 193.597656 317.082031 192.394531 314.367188 192.734375 311.644531 C 193.0625 309.097656 193.289062 304.890625 192.847656 298.433594 C 195.585938 300.332031 200.980469 302.738281 208.929688 300.441406 Z M 155.179688 300.441406 C 155.941406 306.257812 156.589844 311.042969 156.976562 313.882812 C 157.339844 316.582031 159.167969 318.941406 161.785156 319.714844 C 164.214844 320.433594 166.445312 319.667969 168.203125 318.550781 C 170.511719 317.082031 171.714844 314.367188 171.375 311.644531 C 171.050781 309.097656 170.820312 304.890625 171.265625 298.433594 C 168.527344 300.332031 163.132812 302.738281 155.179688 300.441406 Z M 155.179688 300.441406 " fill-opacity="1" fill-rule="nonzero"/><path fill="#000000" d="M 197.128906 307.847656 C 197.121094 307.847656 197.101562 307.847656 197.09375 307.847656 C 196.875 307.832031 196.714844 307.640625 196.730469 307.421875 L 197.199219 301.441406 C 197.214844 301.21875 197.410156 301.042969 197.625 301.074219 C 197.847656 301.089844 198.003906 301.28125 197.988281 301.503906 L 197.523438 307.484375 C 197.5 307.691406 197.324219 307.847656 197.128906 307.847656 Z M 204.214844 307.492188 L 204.753906 302.214844 C 204.777344 302 204.621094 301.804688 204.398438 301.78125 C 204.183594 301.757812 203.984375 301.914062 203.960938 302.136719 L 203.425781 307.414062 C 203.402344 307.625 203.558594 307.824219 203.78125 307.847656 C 203.796875 307.847656 203.804688 307.847656 203.820312 307.847656 C 204.027344 307.847656 204.191406 307.699219 204.214844 307.492188 Z M 204.453125 331.003906 C 204.476562 330.957031 206.867188 326.164062 216.25 325.878906 C 216.46875 325.871094 216.636719 325.6875 216.628906 325.464844 C 216.621094 325.253906 216.445312 325.085938 216.234375 325.085938 C 216.234375 325.085938 216.226562 325.085938 216.21875 325.085938 C 206.3125 325.386719 203.835938 330.457031 203.734375 330.671875 C 203.636719 330.871094 203.726562 331.109375 203.921875 331.195312 C 203.976562 331.21875 204.035156 331.234375 204.089844 331.234375 C 204.238281 331.226562 204.382812 331.148438 204.453125 331.003906 Z M 208.921875 337 C 208.945312 336.953125 211.335938 332.160156 220.71875 331.875 C 220.941406 331.867188 221.105469 331.683594 221.097656 331.464844 C 221.089844 331.25 220.917969 331.082031 220.703125 331.082031 C 220.703125 331.082031 220.695312 331.082031 220.6875 331.082031 C 210.78125 331.382812 208.304688 336.457031 208.203125 336.667969 C 208.109375 336.867188 208.195312 337.105469 208.394531 337.191406 C 208.449219 337.214844 208.503906 337.230469 208.558594 337.230469 C 208.71875 337.230469 208.859375 337.152344 208.921875 337 Z M 189.652344 255.53125 L 189.652344 285.378906 C 189.652344 286.410156 190.246094 287.332031 191.160156 287.785156 C 193.890625 289.105469 200.246094 291.359375 209.769531 289.738281 C 210.933594 289.542969 211.820312 288.589844 211.953125 287.421875 L 216.921875 244.082031 C 217.046875 242.992188 216.484375 241.9375 215.511719 241.425781 C 210.625 238.828125 195.835938 233.109375 189.746094 254.792969 C 189.683594 255.023438 189.652344 255.277344 189.652344 255.53125 Z M 167.023438 307.847656 C 167.246094 307.832031 167.402344 307.640625 167.386719 307.421875 L 166.921875 301.441406 C 166.90625 301.21875 166.714844 301.050781 166.496094 301.074219 C 166.273438 301.089844 166.113281 301.28125 166.128906 301.503906 L 166.597656 307.484375 C 166.613281 307.691406 166.785156 307.847656 166.992188 307.847656 C 167 307.847656 167.015625 307.847656 167.023438 307.847656 Z M 160.332031 307.847656 C 160.542969 307.824219 160.703125 307.632812 160.6875 307.414062 L 160.148438 302.136719 C 160.125 301.921875 159.9375 301.765625 159.714844 301.78125 C 159.5 301.804688 159.34375 301.992188 159.359375 302.214844 L 159.894531 307.492188 C 159.917969 307.699219 160.085938 307.847656 160.292969 307.847656 C 160.308594 307.847656 160.324219 307.847656 160.332031 307.847656 Z M 160.1875 331.195312 C 160.386719 331.101562 160.472656 330.871094 160.378906 330.671875 C 160.277344 330.457031 157.800781 325.394531 147.894531 325.085938 C 147.710938 325.09375 147.492188 325.253906 147.484375 325.464844 C 147.476562 325.6875 147.648438 325.871094 147.863281 325.878906 C 157.246094 326.164062 159.636719 330.957031 159.660156 331.003906 C 159.730469 331.148438 159.871094 331.234375 160.015625 331.234375 C 160.078125 331.226562 160.140625 331.21875 160.1875 331.195312 Z M 155.71875 337.191406 C 155.917969 337.097656 156.003906 336.867188 155.910156 336.667969 C 155.804688 336.457031 153.328125 331.390625 143.425781 331.082031 C 143.234375 331.089844 143.019531 331.25 143.011719 331.464844 C 143.003906 331.683594 143.179688 331.867188 143.394531 331.875 C 152.777344 332.160156 155.164062 336.953125 155.1875 337 C 155.261719 337.144531 155.402344 337.230469 155.542969 337.230469 C 155.609375 337.230469 155.664062 337.214844 155.71875 337.191406 Z M 174.367188 254.785156 C 168.273438 233.109375 153.488281 238.820312 148.597656 241.417969 C 147.625 241.929688 147.070312 242.984375 147.191406 244.074219 L 152.160156 287.414062 C 152.292969 288.582031 153.1875 289.535156 154.34375 289.730469 C 163.867188 291.34375 170.21875 289.097656 172.949219 287.777344 C 173.875 287.324219 174.460938 286.398438 174.460938 285.371094 L 174.460938 255.523438 C 174.46875 255.277344 174.429688 255.023438 174.367188 254.785156 Z M 174.367188 254.785156 " fill-opacity="1" fill-rule="nonzero"/><path fill="#f286a7" d="M 177.648438 10.792969 C 177.648438 10.792969 183.273438 3.925781 190.964844 7.863281 C 198.652344 11.804688 200.070312 18.972656 208.050781 16.042969 C 216.035156 13.117188 225.625 20.585938 222.5 30.585938 C 219.375 40.585938 218.765625 45.53125 227.453125 47.855469 C 236.136719 50.183594 235.933594 64.320312 223.71875 66.035156 C 223.71875 66.035156 224.925781 76.84375 209.269531 76.542969 C 209.269531 76.542969 202.402344 88.664062 185.941406 81.289062 C 185.941406 81.289062 171.90625 88.558594 164.429688 78.558594 C 164.429688 78.558594 153.320312 83.308594 149.175781 74.113281 C 149.175781 74.113281 139.277344 74.515625 138.171875 62.601562 C 137.0625 50.6875 148.371094 47.753906 148.371094 47.753906 C 148.371094 47.753906 136.652344 47.648438 138.773438 36.542969 C 140.894531 25.433594 156.550781 28.0625 157.355469 20.484375 C 158.164062 12.902344 167.347656 5.640625 177.648438 10.792969 Z M 177.648438 10.792969 " fill-opacity="1" fill-rule="nonzero"/><path fill="#a2c3e6" d="M 250.300781 159.40625 C 249.855469 160.933594 249.390625 162.359375 248.898438 163.6875 C 248.480469 164.800781 248.054688 165.855469 247.609375 166.835938 C 240.972656 181.574219 231.28125 181.84375 226.484375 180.894531 C 225.457031 180.6875 224.578125 180.402344 224.027344 180.199219 C 223.953125 180.175781 223.890625 180.148438 223.828125 180.117188 C 223.660156 180.054688 223.574219 180.007812 223.574219 180.007812 C 223.574219 180.007812 223.574219 180.015625 223.574219 180.023438 C 223.441406 179.96875 223.378906 179.9375 223.371094 179.9375 C 222.246094 186.027344 222.070312 193.101562 223.054688 200.617188 C 224.285156 210.078125 227.214844 218.804688 231.328125 225.355469 C 231.882812 229.445312 232.277344 233.023438 232.410156 235.625 C 232.46875 236.765625 232.101562 237.878906 231.398438 238.773438 C 226.804688 244.660156 207.609375 267.074219 182.167969 267.074219 C 156.714844 267.074219 137.523438 244.660156 132.925781 238.773438 C 132.222656 237.878906 131.859375 236.765625 131.921875 235.625 C 132.640625 221.699219 140.757812 180.007812 140.757812 180.007812 C 140.757812 180.007812 122.507812 188.695312 114.027344 159.40625 C 105.535156 130.117188 125.070312 130.65625 128.164062 113.355469 C 130.734375 99.003906 134.089844 94.96875 148.433594 84.46875 C 160.941406 75.300781 177.292969 71.773438 181.265625 71.019531 C 181.859375 70.902344 182.46875 70.902344 183.0625 71.019531 C 187.03125 71.773438 203.386719 75.300781 215.894531 84.46875 C 230.234375 94.96875 233.589844 99.003906 236.160156 113.355469 C 239.261719 130.65625 258.789062 130.117188 250.300781 159.40625 Z M 250.300781 159.40625 " fill-opacity="1" fill-rule="nonzero"/><path fill="#f2c0a7" d="M 201.429688 55.214844 C 199.722656 59.136719 196.390625 62.167969 193.027344 64.644531 C 192.355469 65.132812 191.675781 65.59375 190.996094 66.027344 C 191.636719 70.222656 193.125 73.75 194.152344 75.816406 C 194.824219 77.160156 194.785156 78.757812 194.011719 80.046875 C 191.960938 83.449219 187.492188 89.507812 181.628906 89.507812 C 175.964844 89.507812 171.882812 84.097656 169.910156 80.785156 C 169.128906 79.46875 169.050781 77.824219 169.777344 76.480469 C 171.558594 73.203125 172.152344 68.851562 172.339844 65.957031 C 172.246094 65.902344 172.152344 65.855469 172.054688 65.800781 C 168.15625 63.625 164.199219 60.863281 162.214844 56.636719 C 160.519531 53.007812 160.710938 48.285156 160.710938 43.980469 C 160.710938 30.554688 170.125 19.667969 181.722656 19.667969 C 193.335938 19.667969 202.734375 30.554688 202.734375 43.980469 C 202.734375 48.015625 202.941406 51.757812 201.429688 55.214844 Z M 201.429688 55.214844 " fill-opacity="1" fill-rule="nonzero"/><path fill="#f2c0a7" d="M 163.320312 47.792969 C 165.804688 50.539062 166.160156 54.265625 164.113281 56.117188 C 162.0625 57.964844 158.394531 57.238281 155.910156 54.492188 C 153.425781 51.75 153.070312 48.023438 155.117188 46.171875 C 157.167969 44.320312 160.835938 45.039062 163.320312 47.792969 Z M 199.609375 47.792969 C 197.128906 50.539062 196.769531 54.265625 198.820312 56.117188 C 200.871094 57.964844 204.539062 57.238281 207.023438 54.492188 C 209.507812 51.75 209.863281 48.023438 207.816406 46.171875 C 205.765625 44.320312 202.09375 45.039062 199.609375 47.792969 Z M 199.609375 47.792969 " fill-opacity="1" fill-rule="nonzero"/><path fill="#000000" d="M 173.0625 66.109375 C 175.925781 67.648438 178.679688 68.898438 181.90625 68.898438 C 185.078125 68.898438 187.957031 67.839844 190.71875 66.21875 C 189.359375 69.914062 185.925781 72.53125 181.90625 72.53125 C 177.847656 72.53125 174.390625 69.859375 173.0625 66.109375 Z M 167.632812 38.480469 L 173.71875 38.078125 C 174.699219 38.015625 175.449219 37.160156 175.378906 36.179688 C 175.308594 35.199219 174.460938 34.445312 173.480469 34.515625 L 167.394531 34.921875 C 166.414062 34.984375 165.664062 35.839844 165.734375 36.820312 C 165.796875 37.800781 166.652344 38.542969 167.632812 38.480469 Z M 193.0625 44.398438 C 193.0625 42.925781 191.875 41.742188 190.402344 41.742188 C 188.929688 41.742188 187.746094 42.925781 187.746094 44.398438 C 187.746094 45.871094 188.929688 47.058594 190.402344 47.058594 C 191.875 47.058594 193.0625 45.871094 193.0625 44.398438 Z M 174.667969 44.398438 C 174.667969 42.925781 173.480469 41.742188 172.007812 41.742188 C 170.535156 41.742188 169.351562 42.925781 169.351562 44.398438 C 169.351562 45.871094 170.535156 47.058594 172.007812 47.058594 C 173.472656 47.058594 174.667969 45.871094 174.667969 44.398438 Z M 191.304688 54.328125 C 191.160156 54.160156 190.917969 54.136719 190.75 54.273438 C 190.679688 54.328125 183.859375 59.832031 173.457031 56.503906 C 173.25 56.441406 173.027344 56.550781 172.957031 56.757812 C 172.894531 56.960938 173.003906 57.183594 173.210938 57.253906 C 175.710938 58.054688 178.011719 58.363281 180.078125 58.363281 C 186.960938 58.363281 191.203125 54.929688 191.257812 54.882812 C 191.421875 54.746094 191.445312 54.492188 191.304688 54.328125 Z M 181.550781 52.523438 C 181.605469 52.546875 181.660156 52.5625 181.722656 52.5625 C 181.875 52.5625 182.007812 52.484375 182.078125 52.339844 C 182.175781 52.144531 182.09375 51.90625 181.898438 51.8125 C 181.304688 51.527344 180.117188 50.71875 180.226562 50.078125 C 180.347656 49.390625 181.589844 48.519531 182.339844 48.140625 C 182.539062 48.039062 182.609375 47.800781 182.515625 47.609375 C 182.410156 47.414062 182.175781 47.332031 181.984375 47.4375 C 181.746094 47.554688 179.675781 48.640625 179.445312 49.945312 C 179.207031 51.34375 181.3125 52.40625 181.550781 52.523438 Z M 187.191406 38.078125 L 193.273438 38.480469 C 194.253906 38.542969 195.109375 37.800781 195.171875 36.820312 C 195.234375 35.839844 194.492188 34.984375 193.511719 34.921875 L 187.425781 34.515625 C 186.445312 34.453125 185.59375 35.199219 185.527344 36.179688 C 185.464844 37.160156 186.210938 38.015625 187.191406 38.078125 Z M 158.542969 47.5 C 156.828125 47.160156 155.324219 48.378906 155.261719 48.433594 C 155.09375 48.574219 155.070312 48.820312 155.203125 48.988281 C 155.347656 49.152344 155.59375 49.175781 155.757812 49.042969 C 155.773438 49.035156 157.039062 48.007812 158.386719 48.285156 C 159.222656 48.449219 159.945312 49.082031 160.519531 50.175781 C 160.59375 50.308594 160.726562 50.378906 160.871094 50.378906 C 160.933594 50.378906 160.996094 50.363281 161.058594 50.332031 C 161.25 50.230469 161.328125 49.992188 161.226562 49.792969 C 160.535156 48.480469 159.628906 47.714844 158.542969 47.5 Z M 204.792969 47.5 C 203.710938 47.714844 202.808594 48.488281 202.101562 49.792969 C 202 49.984375 202.070312 50.230469 202.261719 50.332031 C 202.324219 50.363281 202.386719 50.378906 202.453125 50.378906 C 202.59375 50.378906 202.726562 50.300781 202.800781 50.175781 C 203.386719 49.089844 204.097656 48.449219 204.9375 48.285156 C 206.289062 48.015625 207.554688 49.035156 207.5625 49.042969 C 207.726562 49.175781 207.980469 49.152344 208.117188 48.988281 C 208.25 48.820312 208.234375 48.566406 208.0625 48.433594 C 208.011719 48.378906 206.511719 47.160156 204.792969 47.5 Z M 223.695312 179.636719 C 223.621094 179.613281 216.375 177.292969 212.460938 168.09375 C 208.511719 158.828125 210.261719 149.042969 210.277344 148.949219 C 210.316406 148.734375 210.171875 148.527344 209.960938 148.488281 C 209.746094 148.449219 209.539062 148.589844 209.5 148.804688 C 209.484375 148.910156 207.695312 158.910156 211.730469 168.402344 C 215.796875 177.957031 223.15625 180.292969 223.464844 180.386719 C 223.503906 180.402344 223.542969 180.402344 223.582031 180.402344 C 223.75 180.402344 223.90625 180.292969 223.960938 180.125 C 224.019531 179.921875 223.898438 179.699219 223.695312 179.636719 Z M 228.984375 144.824219 C 228.773438 144.785156 228.566406 144.945312 228.535156 145.160156 C 228.527344 145.222656 227.5625 151.234375 222.640625 152.375 C 217.679688 153.519531 214.3125 150.214844 214.277344 150.183594 C 214.128906 150.03125 213.875 150.023438 213.71875 150.183594 C 213.558594 150.332031 213.558594 150.585938 213.71875 150.742188 C 213.84375 150.871094 216.421875 153.417969 220.503906 153.417969 C 221.234375 153.417969 222 153.339844 222.816406 153.148438 C 228.265625 151.890625 229.269531 145.554688 229.3125 145.277344 C 229.351562 145.0625 229.199219 144.859375 228.984375 144.824219 Z M 154.570312 149.207031 C 154.359375 149.25 154.214844 149.453125 154.253906 149.667969 C 154.269531 149.761719 156.019531 159.542969 152.070312 168.8125 C 148.15625 178.015625 140.910156 180.332031 140.835938 180.355469 C 140.632812 180.417969 140.511719 180.640625 140.578125 180.847656 C 140.632812 181.019531 140.78125 181.125 140.957031 181.125 C 140.996094 181.125 141.035156 181.117188 141.074219 181.109375 C 141.382812 181.011719 148.742188 178.671875 152.808594 169.121094 C 156.851562 159.628906 155.0625 149.621094 155.039062 149.523438 C 154.992188 149.3125 154.785156 149.167969 154.570312 149.207031 Z M 144.019531 154.136719 C 148.101562 154.136719 150.679688 151.589844 150.804688 151.464844 C 150.957031 151.304688 150.957031 151.058594 150.804688 150.902344 C 150.648438 150.75 150.402344 150.75 150.246094 150.902344 C 150.210938 150.933594 146.867188 154.242188 141.882812 153.09375 C 136.960938 151.953125 135.996094 145.941406 135.988281 145.878906 C 135.957031 145.664062 135.757812 145.515625 135.535156 145.546875 C 135.324219 145.578125 135.171875 145.773438 135.203125 145.996094 C 135.246094 146.265625 136.25 152.601562 141.699219 153.867188 C 142.523438 154.058594 143.289062 154.136719 144.019531 154.136719 Z M 199.414062 76.75 C 199.191406 76.757812 199.027344 76.9375 199.027344 77.152344 C 199.035156 77.300781 199.421875 91.84375 196.1875 97.585938 C 195.734375 98.386719 195.132812 98.804688 194.328125 98.882812 C 194.230469 98.890625 194.144531 98.898438 194.050781 98.898438 C 189.746094 98.898438 182.363281 90.191406 182.285156 90.101562 C 182.214844 90.015625 182.023438 89.960938 181.90625 89.960938 C 181.785156 89.960938 181.675781 90.007812 181.605469 90.101562 C 181.527344 90.199219 173.796875 99.296875 169.5625 98.890625 C 168.757812 98.8125 168.15625 98.394531 167.703125 97.59375 C 164.476562 91.851562 164.863281 77.300781 164.863281 77.160156 C 164.871094 76.9375 164.699219 76.757812 164.476562 76.757812 C 164.277344 76.757812 164.074219 76.921875 164.074219 77.144531 C 164.058594 77.753906 163.675781 92.058594 167.007812 97.992188 C 167.585938 99.019531 168.417969 99.589844 169.484375 99.683594 C 169.59375 99.691406 169.707031 99.699219 169.816406 99.699219 C 172.4375 99.699219 175.894531 96.984375 178.488281 94.523438 L 178.488281 266.953125 C 178.488281 267.175781 178.660156 267.351562 178.882812 267.351562 C 179.105469 267.351562 179.277344 267.175781 179.277344 266.953125 L 179.277344 93.75 C 180.519531 92.515625 181.484375 91.441406 181.9375 90.925781 C 182.4375 91.503906 183.574219 92.777344 185.023438 94.175781 L 185.023438 266.945312 C 185.023438 267.167969 185.195312 267.339844 185.417969 267.339844 C 185.640625 267.339844 185.8125 267.167969 185.8125 266.945312 L 185.8125 94.921875 C 188.472656 97.375 191.875 99.921875 194.390625 99.675781 C 195.457031 99.574219 196.289062 99.003906 196.867188 97.984375 C 200.203125 92.050781 199.824219 77.738281 199.808594 77.136719 C 199.808594 76.914062 199.644531 76.757812 199.414062 76.75 Z M 179.878906 105.957031 C 179.878906 104.808594 180.8125 103.875 181.960938 103.875 C 183.109375 103.875 184.042969 104.808594 184.042969 105.957031 C 184.042969 107.105469 183.109375 108.039062 181.960938 108.039062 C 180.8125 108.046875 179.878906 107.113281 179.878906 105.957031 Z M 180.671875 105.957031 C 180.671875 106.667969 181.25 107.246094 181.960938 107.246094 C 182.671875 107.246094 183.25 106.667969 183.25 105.957031 C 183.25 105.246094 182.671875 104.667969 181.960938 104.667969 C 181.25 104.667969 180.671875 105.246094 180.671875 105.957031 Z M 179.878906 129.683594 C 179.878906 128.535156 180.8125 127.601562 181.960938 127.601562 C 183.109375 127.601562 184.042969 128.535156 184.042969 129.683594 C 184.042969 130.832031 183.109375 131.765625 181.960938 131.765625 C 180.8125 131.773438 179.878906 130.832031 179.878906 129.683594 Z M 180.671875 129.683594 C 180.671875 130.394531 181.25 130.972656 181.960938 130.972656 C 182.671875 130.972656 183.25 130.394531 183.25 129.683594 C 183.25 128.972656 182.671875 128.394531 181.960938 128.394531 C 181.25 128.394531 180.671875 128.972656 180.671875 129.683594 Z M 184.238281 153.410156 C 184.238281 154.558594 183.304688 155.492188 182.160156 155.492188 C 181.011719 155.492188 180.078125 154.558594 180.078125 153.410156 C 180.078125 152.261719 181.011719 151.328125 182.160156 151.328125 C 183.304688 151.328125 184.238281 152.261719 184.238281 153.410156 Z M 183.449219 153.410156 C 183.449219 152.699219 182.871094 152.121094 182.160156 152.121094 C 181.445312 152.121094 180.871094 152.699219 180.871094 153.410156 C 180.871094 154.121094 181.445312 154.699219 182.160156 154.699219 C 182.871094 154.707031 183.449219 154.121094 183.449219 153.410156 Z M 184.238281 177.136719 C 184.238281 178.285156 183.304688 179.214844 182.160156 179.214844 C 181.011719 179.214844 180.078125 178.285156 180.078125 177.136719 C 180.078125 175.988281 181.011719 175.054688 182.160156 175.054688 C 183.304688 175.054688 184.238281 175.988281 184.238281 177.136719 Z M 183.449219 177.136719 C 183.449219 176.425781 182.871094 175.847656 182.160156 175.847656 C 181.445312 175.847656 180.871094 176.425781 180.871094 177.136719 C 180.871094 177.847656 181.445312 178.425781 182.160156 178.425781 C 182.871094 178.425781 183.449219 177.847656 183.449219 177.136719 Z M 184.144531 206.011719 C 184.144531 207.160156 183.210938 208.09375 182.0625 208.09375 C 180.917969 208.09375 179.984375 207.160156 179.984375 206.011719 C 179.984375 204.867188 180.917969 203.933594 182.0625 203.933594 C 183.210938 203.925781 184.144531 204.859375 184.144531 206.011719 Z M 183.351562 206.011719 C 183.351562 205.300781 182.777344 204.722656 182.0625 204.722656 C 181.351562 204.722656 180.773438 205.300781 180.773438 206.011719 C 180.773438 206.726562 181.351562 207.300781 182.0625 207.300781 C 182.769531 207.300781 183.351562 206.726562 183.351562 206.011719 Z M 179.976562 229.730469 C 179.976562 228.582031 180.910156 227.648438 182.054688 227.648438 C 183.203125 227.648438 184.136719 228.582031 184.136719 229.730469 C 184.136719 230.878906 183.203125 231.8125 182.054688 231.8125 C 180.910156 231.820312 179.976562 230.886719 179.976562 229.730469 Z M 180.765625 229.730469 C 180.765625 230.441406 181.34375 231.019531 182.054688 231.019531 C 182.769531 231.019531 183.34375 230.441406 183.34375 229.730469 C 183.34375 229.019531 182.769531 228.441406 182.054688 228.441406 C 181.34375 228.441406 180.765625 229.019531 180.765625 229.730469 Z M 184.246094 253.457031 C 184.246094 254.605469 183.3125 255.539062 182.167969 255.539062 C 181.019531 255.539062 180.085938 254.605469 180.085938 253.457031 C 180.085938 252.308594 181.019531 251.375 182.167969 251.375 C 183.3125 251.375 184.246094 252.308594 184.246094 253.457031 Z M 183.457031 253.457031 C 183.457031 252.746094 182.878906 252.167969 182.167969 252.167969 C 181.453125 252.167969 180.878906 252.746094 180.878906 253.457031 C 180.878906 254.167969 181.453125 254.746094 182.167969 254.746094 C 182.878906 254.753906 183.457031 254.167969 183.457031 253.457031 Z M 231.90625 100.394531 C 231.769531 100.222656 231.519531 100.199219 231.351562 100.332031 C 231.234375 100.425781 228.335938 102.785156 225.511719 107.4375 C 225.402344 107.625 225.457031 107.863281 225.648438 107.984375 C 225.710938 108.023438 225.78125 108.039062 225.851562 108.039062 C 225.988281 108.039062 226.113281 107.964844 226.195312 107.847656 C 228.945312 103.324219 231.828125 100.972656 231.859375 100.949219 C 232.015625 100.816406 232.039062 100.570312 231.90625 100.394531 Z M 138.3125 108.046875 C 138.386719 108.046875 138.457031 108.03125 138.519531 107.992188 C 138.710938 107.878906 138.765625 107.632812 138.652344 107.445312 C 135.820312 102.792969 132.933594 100.433594 132.808594 100.339844 C 132.640625 100.207031 132.386719 100.230469 132.253906 100.402344 C 132.121094 100.578125 132.144531 100.824219 132.316406 100.957031 C 132.347656 100.980469 135.226562 103.332031 137.980469 107.855469 C 138.042969 107.976562 138.179688 108.046875 138.3125 108.046875 Z M 138.3125 108.046875 " fill-opacity="1" fill-rule="nonzero"/><path fill="#f286a7" d="M 205.023438 40.285156 C 194.058594 38.140625 186.761719 26.589844 184.460938 21.914062 C 184.097656 21.171875 182.996094 21.273438 182.777344 22.074219 C 182.0625 24.574219 181.453125 27.753906 181.636719 30.972656 C 181.707031 32.207031 180.8125 33.292969 179.59375 33.449219 C 175.308594 34.019531 165.902344 35.941406 158.613281 42.207031 C 158.613281 42.207031 153.519531 14.429688 184.628906 17.058594 C 184.628906 17.058594 184.390625 17.546875 184.042969 18.386719 C 206.414062 19.808594 205.023438 40.285156 205.023438 40.285156 Z M 205.023438 40.285156 " fill-opacity="1" fill-rule="nonzero"/><path fill="#f2c0a7" d="M 217.941406 150.332031 C 214.5625 151.140625 211.019531 150.0625 208.402344 147.777344 C 206.828125 146.398438 204.917969 144.34375 202.996094 141.320312 C 198.28125 133.917969 193.433594 131.351562 196.875 127.992188 C 200.316406 124.628906 204.011719 134.453125 206.707031 134.859375 C 209.40625 135.261719 208.457031 125.023438 208.527344 119.976562 C 208.597656 114.929688 208.527344 110.140625 210.75 109.136719 C 212.972656 108.125 213.710938 112.035156 214.925781 128.394531 C 214.925781 128.394531 221.390625 110.417969 224.691406 109.542969 C 227.988281 108.664062 226.167969 116.074219 220.78125 130.214844 C 220.78125 130.214844 230.949219 120.515625 234.246094 119.507812 C 236.691406 118.757812 237.996094 122.089844 225.632812 133.648438 C 225.632812 133.648438 234.992188 129.484375 237.078125 130.617188 C 237.078125 130.617188 240.363281 132.367188 228.8125 138.558594 C 227.949219 139.019531 227.285156 139.792969 226.984375 140.71875 C 226.128906 143.363281 223.6875 148.957031 217.941406 150.332031 Z M 146.582031 151.050781 C 149.960938 151.859375 153.503906 150.785156 156.121094 148.496094 C 157.695312 147.121094 159.601562 145.0625 161.527344 142.042969 C 166.242188 134.636719 171.089844 132.074219 167.648438 128.710938 C 164.214844 125.339844 160.511719 135.175781 157.816406 135.578125 C 155.125 135.980469 156.066406 125.742188 155.996094 120.695312 C 155.925781 115.648438 155.996094 110.863281 153.773438 109.859375 C 151.550781 108.84375 150.8125 112.753906 149.59375 129.113281 C 149.59375 129.113281 143.132812 111.140625 139.832031 110.261719 C 136.535156 109.382812 138.351562 116.796875 143.742188 130.933594 C 143.742188 130.933594 133.574219 121.234375 130.277344 120.230469 C 127.832031 119.476562 126.527344 122.808594 138.890625 134.367188 C 138.890625 134.367188 129.53125 130.207031 127.445312 131.335938 C 127.445312 131.335938 124.160156 133.085938 135.710938 139.28125 C 136.574219 139.738281 137.238281 140.515625 137.539062 141.441406 C 138.402344 144.089844 140.84375 149.675781 146.582031 151.050781 Z M 146.582031 151.050781 " fill-opacity="1" fill-rule="nonzero"/><path fill="#000000" d="M 214.515625 139.691406 C 214.367188 139.691406 214.214844 139.605469 214.152344 139.453125 C 212.902344 136.519531 206.691406 135.253906 206.628906 135.246094 C 206.414062 135.207031 206.273438 134.992188 206.320312 134.777344 C 206.359375 134.566406 206.574219 134.421875 206.785156 134.46875 C 207.054688 134.523438 213.472656 135.832031 214.886719 139.144531 C 214.976562 139.34375 214.878906 139.582031 214.683594 139.667969 C 214.621094 139.683594 214.570312 139.691406 214.515625 139.691406 Z M 150.371094 140.175781 C 151.621094 137.238281 157.832031 135.972656 157.894531 135.964844 C 158.109375 135.925781 158.25 135.710938 158.203125 135.5 C 158.164062 135.285156 157.949219 135.140625 157.734375 135.191406 C 157.46875 135.246094 151.050781 136.550781 149.636719 139.867188 C 149.546875 140.0625 149.644531 140.300781 149.839844 140.386719 C 149.886719 140.410156 149.945312 140.417969 150 140.417969 C 150.164062 140.410156 150.308594 140.324219 150.371094 140.175781 Z M 150.371094 140.175781 " fill-opacity="1" fill-rule="nonzero"/><path fill="#000000" d="M 281.40625 207.339844 L 279.359375 243.703125 C 279.097656 248.355469 275.585938 252.167969 270.964844 252.800781 L 231.367188 258.234375 C 226.929688 258.84375 222.648438 256.34375 220.996094 252.175781 L 207.4375 217.957031 C 205.109375 212.089844 208.898438 205.585938 215.15625 204.730469 L 223.503906 203.582031 C 223.328125 202.601562 223.179688 201.613281 223.050781 200.617188 C 222.070312 193.109375 222.246094 186.027344 223.371094 179.9375 C 223.371094 179.9375 223.441406 179.96875 223.574219 180.023438 C 223.644531 180.054688 223.726562 180.085938 223.828125 180.117188 C 223.890625 180.148438 223.953125 180.175781 224.027344 180.199219 C 224.578125 180.402344 225.457031 180.6875 226.484375 180.894531 C 225.933594 183.964844 225.625 187.292969 225.609375 190.800781 C 225.578125 193.835938 225.765625 196.992188 226.1875 200.207031 C 226.3125 201.203125 226.460938 202.183594 226.636719 203.15625 L 260.140625 198.550781 C 260.0625 197.648438 259.960938 196.742188 259.839844 195.824219 C 259.484375 193.078125 258.96875 190.417969 258.335938 187.878906 C 259.300781 187.421875 260.285156 186.9375 261.265625 186.441406 C 261.992188 189.28125 262.578125 192.285156 262.980469 195.410156 C 263.101562 196.320312 263.203125 197.222656 263.289062 198.117188 L 270.363281 197.144531 C 276.429688 196.3125 281.746094 201.226562 281.40625 207.339844 Z M 281.40625 207.339844 " fill-opacity="1" fill-rule="nonzero"/><g clip-path="url(#e31dc16e8c)"><g clip-path="url(#b29912b4ad)"><g clip-path="url(#e2747628cd)"><path fill="#ff5757" d="M 53.339844 331.953125 C 53.394531 332.003906 51.371094 332.644531 51.21875 332.660156 C 49.71875 332.757812 48.316406 332.113281 47.488281 330.84375 C 45.253906 327.414062 45.847656 322.101562 45.464844 318.199219 C 44.914062 312.605469 42.933594 307.328125 41.738281 301.863281 C 39.914062 293.511719 38.585938 285.078125 36.839844 276.71875 C 36.238281 273.84375 35.367188 271.023438 34.800781 268.140625 C 34.484375 266.53125 34.292969 264.71875 35.535156 263.433594 C 36.5625 262.359375 38.144531 261.878906 39.546875 261.554688 C 41.453125 261.113281 43.441406 260.921875 45.398438 260.9375 C 47.621094 260.949219 50.082031 261.167969 52.027344 262.347656 C 54.023438 263.5625 54.964844 265.710938 55.550781 267.882812 C 56.695312 272.128906 56.84375 276.691406 56.878906 281.066406 C 56.921875 286.351562 56.605469 291.636719 56.539062 296.917969 C 56.464844 302.75 56.648438 308.589844 56.25 314.414062 C 55.875 319.867188 55.039062 325.261719 54.519531 330.695312 " fill-opacity="1" fill-rule="evenodd"/></g></g></g><g clip-path="url(#985ff348f2)"><g clip-path="url(#2748e898a9)"><g clip-path="url(#8328e5bca2)"><path fill="#ff5757" d="M 52.488281 342.914062 C 48.699219 342.507812 46.871094 345.855469 47.429688 349.304688 C 47.871094 352 49.925781 354.089844 52.53125 354.804688 C 57.035156 356.035156 61.328125 350.777344 59.910156 346.46875 C 59.292969 344.605469 57.632812 343.703125 55.914062 343.039062 " fill-opacity="1" fill-rule="evenodd"/></g></g></g><g clip-path="url(#ef5f217855)"><g clip-path="url(#518ca885a6)"><g clip-path="url(#02a2b9a58e)"><path fill="#ff5757" d="M 336.101562 114.199219 C 336.140625 114.265625 334.019531 114.269531 333.867188 114.234375 C 332.40625 113.878906 331.261719 112.84375 330.855469 111.382812 C 329.757812 107.4375 331.921875 102.554688 332.730469 98.714844 C 333.890625 93.214844 333.589844 87.589844 334.097656 82.011719 C 334.871094 73.503906 336.140625 65.058594 336.992188 56.5625 C 337.285156 53.640625 337.300781 50.6875 337.628906 47.769531 C 337.816406 46.136719 338.175781 44.351562 339.746094 43.5 C 341.050781 42.785156 342.703125 42.800781 344.136719 42.914062 C 346.089844 43.066406 348.042969 43.484375 349.90625 44.089844 C 352.019531 44.765625 354.304688 45.71875 355.800781 47.429688 C 357.339844 49.1875 357.59375 51.519531 357.496094 53.769531 C 357.308594 58.164062 356.078125 62.558594 354.792969 66.742188 C 353.242188 71.792969 351.351562 76.738281 349.699219 81.753906 C 347.875 87.296875 346.289062 92.917969 344.15625 98.351562 C 342.160156 103.4375 339.738281 108.332031 337.605469 113.355469 " fill-opacity="1" fill-rule="evenodd"/></g></g></g><g clip-path="url(#b78617ab20)"><g clip-path="url(#1a3d3583b4)"><g clip-path="url(#022e5221c0)"><path fill="#ff5757" d="M 331.988281 124.398438 C 328.5 122.871094 325.746094 125.511719 325.246094 128.96875 C 324.851562 131.671875 326.183594 134.285156 328.453125 135.75 C 332.375 138.277344 338.054688 134.554688 337.996094 130.023438 C 337.96875 128.058594 336.660156 126.699219 335.21875 125.550781 " fill-opacity="1" fill-rule="evenodd"/></g></g></g></svg>