<svg xmlns="http://www.w3.org/2000/svg" xmlns:xlink="http://www.w3.org/1999/xlink" width="500" zoomAndPan="magnify" viewBox="0 0 375 374.999991" height="500" preserveAspectRatio="xMidYMid meet" version="1.0"><path fill="#87ceeb" d="M 160.109375 117.625 C 160.109375 117.625 161.304688 118.222656 163.164062 118.355469 C 166.21875 118.621094 170.867188 117.824219 174.121094 111.320312 C 179.367188 100.894531 189.523438 91.269531 201.609375 95.382812 C 213.691406 99.5 208.179688 127.785156 220 129.710938 C 231.816406 131.636719 238.390625 129.710938 244.167969 106.671875 C 249.945312 83.632812 274.90625 84.695312 288.386719 94.453125 C 301.863281 104.214844 295.558594 128.382812 283.738281 136.617188 C 271.921875 144.847656 266.078125 173.199219 287.523438 167.953125 C 311.160156 162.179688 320.386719 174.460938 309.699219 197.832031 C 292.4375 235.742188 322.84375 214.5625 323.972656 233.550781 C 324.769531 247.296875 302.128906 248.957031 297.347656 254.402344 C 289.316406 263.496094 297.214844 274.851562 299.9375 276.910156 C 304.320312 280.226562 314.746094 288.460938 325.765625 290.917969 C 336.722656 293.375 339.777344 317.277344 327.957031 325.242188 C 316.140625 333.210938 299.40625 337.0625 291.175781 310.703125 C 282.941406 284.34375 258.773438 289.257812 250.804688 301.671875 C 242.839844 314.023438 227.765625 339.585938 213.757812 337.660156 C 199.75 335.734375 192.644531 331.351562 182.152344 317.875 C 171.664062 304.394531 147.894531 330.289062 133.820312 326.105469 C 122.265625 322.65625 119.542969 318.40625 119.808594 300.808594 C 120.074219 283.214844 94.644531 303.332031 85.949219 290.320312 C 78.710938 279.5625 93.449219 268.210938 90.992188 262.632812 C 85.484375 250.351562 66.03125 259.378906 49.230469 264.425781 C 15.503906 274.585938 16.433594 227.445312 45.910156 231.429688 C 68.285156 234.414062 92.1875 237.070312 83.625 218.148438 C 73.664062 196.238281 79.773438 187.671875 86.347656 178.910156 C 92.917969 170.144531 84.15625 158.328125 74.261719 146.507812 C 64.371094 134.691406 72.335938 122.871094 85.550781 125.660156 C 98.761719 128.449219 113.632812 147.238281 128.175781 134.027344 C 128.042969 133.960938 133.753906 106.539062 160.109375 117.625 Z M 160.109375 117.625 " fill-opacity="1" fill-rule="nonzero"/><path fill="#87ceeb" d="M 230.554688 78.1875 C 230.554688 78.824219 230.492188 79.457031 230.371094 80.078125 C 230.246094 80.703125 230.0625 81.308594 229.816406 81.898438 C 229.574219 82.484375 229.277344 83.042969 228.921875 83.574219 C 228.570312 84.101562 228.167969 84.59375 227.71875 85.042969 C 227.265625 85.492188 226.777344 85.894531 226.246094 86.25 C 225.71875 86.601562 225.160156 86.902344 224.570312 87.144531 C 223.984375 87.386719 223.378906 87.570312 222.753906 87.695312 C 222.128906 87.820312 221.5 87.882812 220.863281 87.882812 C 220.226562 87.882812 219.59375 87.820312 218.972656 87.695312 C 218.347656 87.570312 217.742188 87.386719 217.152344 87.144531 C 216.566406 86.902344 216.007812 86.601562 215.476562 86.25 C 214.949219 85.894531 214.457031 85.492188 214.007812 85.042969 C 213.558594 84.59375 213.15625 84.101562 212.800781 83.574219 C 212.449219 83.042969 212.148438 82.484375 211.90625 81.898438 C 211.664062 81.308594 211.480469 80.703125 211.355469 80.078125 C 211.230469 79.457031 211.167969 78.824219 211.167969 78.1875 C 211.167969 77.550781 211.230469 76.921875 211.355469 76.296875 C 211.480469 75.671875 211.664062 75.066406 211.90625 74.480469 C 212.148438 73.890625 212.449219 73.332031 212.800781 72.800781 C 213.15625 72.273438 213.558594 71.785156 214.007812 71.332031 C 214.457031 70.882812 214.949219 70.480469 215.476562 70.128906 C 216.007812 69.773438 216.566406 69.476562 217.152344 69.234375 C 217.742188 68.988281 218.347656 68.804688 218.972656 68.679688 C 219.59375 68.558594 220.226562 68.496094 220.863281 68.496094 C 221.5 68.496094 222.128906 68.558594 222.753906 68.679688 C 223.378906 68.804688 223.984375 68.988281 224.570312 69.234375 C 225.160156 69.476562 225.71875 69.773438 226.246094 70.128906 C 226.777344 70.480469 227.265625 70.882812 227.71875 71.332031 C 228.167969 71.785156 228.570312 72.273438 228.921875 72.800781 C 229.277344 73.332031 229.574219 73.890625 229.816406 74.480469 C 230.0625 75.066406 230.246094 75.671875 230.371094 76.296875 C 230.492188 76.921875 230.554688 77.550781 230.554688 78.1875 Z M 230.554688 78.1875 " fill-opacity="1" fill-rule="nonzero"/><path fill="#87ceeb" d="M 175.582031 331.550781 C 175.582031 331.953125 175.542969 332.347656 175.464844 332.742188 C 175.386719 333.136719 175.269531 333.519531 175.117188 333.890625 C 174.960938 334.257812 174.773438 334.613281 174.550781 334.945312 C 174.328125 335.277344 174.074219 335.585938 173.792969 335.871094 C 173.507812 336.152344 173.199219 336.40625 172.867188 336.628906 C 172.53125 336.851562 172.179688 337.042969 171.808594 337.195312 C 171.441406 337.347656 171.058594 337.464844 170.664062 337.542969 C 170.269531 337.621094 169.875 337.660156 169.472656 337.660156 C 169.070312 337.660156 168.675781 337.621094 168.28125 337.542969 C 167.886719 337.464844 167.503906 337.347656 167.136719 337.195312 C 166.765625 337.042969 166.414062 336.851562 166.078125 336.628906 C 165.746094 336.40625 165.4375 336.152344 165.152344 335.871094 C 164.871094 335.585938 164.617188 335.277344 164.394531 334.945312 C 164.171875 334.613281 163.984375 334.257812 163.828125 333.890625 C 163.675781 333.519531 163.558594 333.136719 163.480469 332.742188 C 163.402344 332.347656 163.363281 331.953125 163.363281 331.550781 C 163.363281 331.148438 163.402344 330.753906 163.480469 330.359375 C 163.558594 329.964844 163.675781 329.585938 163.828125 329.214844 C 163.984375 328.84375 164.171875 328.492188 164.394531 328.15625 C 164.617188 327.824219 164.871094 327.515625 165.152344 327.230469 C 165.4375 326.949219 165.746094 326.695312 166.078125 326.472656 C 166.414062 326.25 166.765625 326.0625 167.136719 325.90625 C 167.503906 325.753906 167.886719 325.636719 168.28125 325.558594 C 168.675781 325.480469 169.070312 325.441406 169.472656 325.441406 C 169.875 325.441406 170.269531 325.480469 170.664062 325.558594 C 171.058594 325.636719 171.441406 325.753906 171.808594 325.90625 C 172.179688 326.0625 172.53125 326.25 172.867188 326.472656 C 173.199219 326.695312 173.507812 326.949219 173.792969 327.230469 C 174.074219 327.515625 174.328125 327.824219 174.550781 328.15625 C 174.773438 328.492188 174.960938 328.84375 175.117188 329.214844 C 175.269531 329.585938 175.386719 329.964844 175.464844 330.359375 C 175.542969 330.753906 175.582031 331.148438 175.582031 331.550781 Z M 175.582031 331.550781 " fill-opacity="1" fill-rule="nonzero"/><path fill="#87ceeb" d="M 282.957031 331.863281 C 283.117188 332.285156 283.25 332.710938 283.351562 333.140625 C 283.453125 333.574219 283.523438 334.003906 283.5625 334.433594 C 283.605469 334.863281 283.613281 335.28125 283.585938 335.691406 C 283.5625 336.101562 283.507812 336.492188 283.417969 336.867188 C 283.332031 337.242188 283.214844 337.589844 283.066406 337.914062 C 282.917969 338.238281 282.746094 338.53125 282.542969 338.792969 C 282.34375 339.054688 282.117188 339.277344 281.871094 339.46875 C 281.621094 339.65625 281.355469 339.804688 281.070312 339.914062 C 280.785156 340.023438 280.488281 340.09375 280.175781 340.117188 C 279.867188 340.144531 279.546875 340.125 279.222656 340.066406 C 278.898438 340.007812 278.574219 339.90625 278.246094 339.765625 C 277.917969 339.625 277.597656 339.441406 277.285156 339.222656 C 276.96875 339.003906 276.664062 338.75 276.371094 338.464844 C 276.082031 338.175781 275.804688 337.859375 275.546875 337.515625 C 275.289062 337.167969 275.054688 336.800781 274.839844 336.410156 C 274.628906 336.023438 274.441406 335.617188 274.277344 335.199219 C 274.117188 334.777344 273.988281 334.351562 273.882812 333.921875 C 273.78125 333.488281 273.710938 333.058594 273.671875 332.628906 C 273.632812 332.199219 273.625 331.78125 273.648438 331.371094 C 273.671875 330.960938 273.726562 330.570312 273.816406 330.195312 C 273.902344 329.820312 274.019531 329.472656 274.167969 329.148438 C 274.316406 328.824219 274.488281 328.53125 274.691406 328.269531 C 274.894531 328.007812 275.117188 327.785156 275.367188 327.59375 C 275.613281 327.40625 275.878906 327.257812 276.164062 327.148438 C 276.449219 327.039062 276.75 326.96875 277.058594 326.945312 C 277.371094 326.917969 277.6875 326.9375 278.011719 326.996094 C 278.335938 327.054688 278.664062 327.15625 278.988281 327.296875 C 279.316406 327.4375 279.636719 327.621094 279.953125 327.839844 C 280.265625 328.058594 280.570312 328.3125 280.863281 328.597656 C 281.15625 328.886719 281.429688 329.203125 281.6875 329.546875 C 281.945312 329.894531 282.179688 330.261719 282.394531 330.652344 C 282.609375 331.042969 282.796875 331.445312 282.957031 331.863281 Z M 282.957031 331.863281 " fill-opacity="1" fill-rule="nonzero"/><path fill="#87ceeb" d="M 351.925781 197.789062 C 352.421875 198.332031 352.878906 198.902344 353.296875 199.5 C 353.714844 200.097656 354.082031 200.714844 354.398438 201.347656 C 354.714844 201.980469 354.980469 202.617188 355.1875 203.257812 C 355.394531 203.898438 355.542969 204.53125 355.632812 205.15625 C 355.722656 205.78125 355.75 206.386719 355.71875 206.972656 C 355.683594 207.558594 355.589844 208.113281 355.4375 208.636719 C 355.285156 209.164062 355.074219 209.644531 354.804688 210.085938 C 354.539062 210.527344 354.21875 210.917969 353.847656 211.261719 C 353.472656 211.605469 353.054688 211.890625 352.59375 212.121094 C 352.132812 212.347656 351.632812 212.519531 351.097656 212.628906 C 350.5625 212.734375 350.003906 212.78125 349.414062 212.765625 C 348.828125 212.746094 348.226562 212.667969 347.613281 212.527344 C 346.996094 212.386719 346.378906 212.183594 345.757812 211.921875 C 345.136719 211.660156 344.523438 211.347656 343.917969 210.976562 C 343.316406 210.605469 342.734375 210.1875 342.171875 209.722656 C 341.609375 209.257812 341.082031 208.753906 340.582031 208.210938 C 340.085938 207.667969 339.625 207.097656 339.210938 206.5 C 338.792969 205.898438 338.425781 205.285156 338.109375 204.652344 C 337.789062 204.019531 337.527344 203.382812 337.320312 202.742188 C 337.113281 202.101562 336.964844 201.46875 336.875 200.84375 C 336.785156 200.214844 336.757812 199.609375 336.789062 199.023438 C 336.824219 198.4375 336.914062 197.882812 337.070312 197.359375 C 337.222656 196.835938 337.433594 196.355469 337.699219 195.914062 C 337.96875 195.472656 338.289062 195.078125 338.660156 194.738281 C 339.035156 194.394531 339.453125 194.109375 339.914062 193.878906 C 340.375 193.648438 340.875 193.480469 341.410156 193.371094 C 341.945312 193.261719 342.503906 193.21875 343.089844 193.234375 C 343.679688 193.25 344.28125 193.332031 344.894531 193.472656 C 345.511719 193.613281 346.128906 193.816406 346.75 194.078125 C 347.371094 194.335938 347.984375 194.652344 348.585938 195.023438 C 349.191406 195.394531 349.773438 195.8125 350.335938 196.277344 C 350.894531 196.742188 351.425781 197.246094 351.925781 197.789062 Z M 351.925781 197.789062 " fill-opacity="1" fill-rule="nonzero"/><path fill="#87ceeb" d="M 96.304688 332.8125 C 93.117188 337.328125 87.675781 338.988281 84.222656 336.53125 C 80.769531 334.074219 80.503906 328.429688 83.757812 323.847656 C 86.945312 319.335938 96.238281 313.625 99.691406 316.082031 C 103.144531 318.605469 99.558594 328.296875 96.304688 332.8125 Z M 96.304688 332.8125 " fill-opacity="1" fill-rule="nonzero"/><path fill="#87ceeb" d="M 33.628906 177.316406 C 27.054688 173.996094 24 166.691406 26.855469 160.984375 C 29.710938 155.273438 37.414062 153.347656 43.984375 156.667969 C 50.558594 159.988281 59.65625 171.671875 56.800781 177.382812 C 53.945312 183.09375 40.203125 180.636719 33.628906 177.316406 Z M 33.628906 177.316406 " fill-opacity="1" fill-rule="nonzero"/><path fill="#87ceeb" d="M 154.667969 61.855469 C 156.59375 66.835938 156.128906 77.523438 151.148438 79.449219 C 146.167969 81.375 138.597656 73.804688 136.671875 68.828125 C 134.75 63.847656 137.203125 58.269531 142.183594 56.34375 C 147.164062 54.417969 152.742188 56.875 154.667969 61.855469 Z M 154.667969 61.855469 " fill-opacity="1" fill-rule="nonzero"/><path fill="#f2c3af" d="M 169.253906 232.039062 C 169.253906 232.039062 167.332031 242.507812 165.414062 250.085938 C 164.460938 253.847656 161.476562 268.75 158.714844 282.820312 C 155.90625 297.121094 153.320312 310.5625 153.320312 310.5625 C 153.320312 310.5625 141.613281 314.351562 136.621094 307.492188 C 136.621094 307.492188 137.636719 294.621094 138.820312 280.113281 C 140.105469 264.359375 141.589844 246.6875 142.183594 241.425781 C 143.335938 231.316406 147.375 208.035156 147.375 208.035156 C 147.375 208.035156 176.359375 199.007812 169.253906 232.039062 Z M 185.5625 219.042969 C 185.5625 219.042969 188.066406 235.46875 185.5625 248.46875 C 184.363281 254.703125 184.992188 269.863281 185.972656 283.953125 C 187.035156 299.242188 188.511719 313.269531 188.511719 313.269531 C 196.910156 317.957031 204.128906 312.179688 204.128906 312.179688 C 204.128906 312.179688 205.125 298.753906 206.234375 284.042969 C 207.488281 267.464844 208.875 249.238281 209.140625 246.660156 C 209.644531 241.789062 209.140625 237.871094 209.140625 237.871094 C 213.257812 199.121094 185.5625 219.042969 185.5625 219.042969 Z M 185.5625 219.042969 " fill-opacity="1" fill-rule="nonzero"/><path fill="#d2b48c" d="M 204.128906 312.179688 C 204.128906 312.179688 212.492188 319.527344 218.507812 322.890625 C 224.527344 326.265625 238.847656 329.988281 237.878906 337.816406 C 236.917969 345.636719 209.601562 343.59375 201.78125 341.308594 C 193.964844 339.023438 189.324219 340.480469 186.976562 336.960938 C 185.621094 334.917969 184.984375 319.414062 188.511719 313.269531 C 192.039062 307.125 204.128906 312.179688 204.128906 312.179688 Z M 136.667969 306.863281 C 131.53125 312.902344 128.207031 320.269531 126.808594 324.191406 C 126.183594 325.9375 125.457031 327.648438 124.628906 329.3125 C 114.761719 349.140625 123.804688 358.976562 134.273438 357.667969 C 148.574219 355.878906 151.8125 341.507812 152.40625 334.910156 C 152.667969 331.96875 153.09375 329.050781 153.757812 326.171875 C 155.484375 318.683594 152.929688 307.945312 152.929688 307.945312 C 155.050781 295.234375 143.78125 298.507812 136.667969 306.863281 Z M 136.667969 306.863281 " fill-opacity="1" fill-rule="nonzero"/><path fill="#bdb76b" d="M 206.234375 284.042969 C 205.125 298.753906 204.128906 312.179688 204.128906 312.179688 C 204.128906 312.179688 196.910156 317.957031 188.511719 313.269531 C 188.511719 313.269531 187.035156 299.242188 185.972656 283.953125 C 195.042969 286.792969 202.007812 285.144531 206.234375 284.042969 Z M 138.820312 280.113281 C 137.636719 294.621094 136.621094 307.492188 136.621094 307.492188 C 141.613281 314.351562 153.320312 310.5625 153.320312 310.5625 C 153.320312 310.5625 155.90625 297.121094 158.714844 282.820312 C 154.195312 283.710938 146.929688 284.042969 138.820312 280.113281 Z M 138.820312 280.113281 " fill-opacity="1" fill-rule="nonzero"/><path fill="#f2c3af" d="M 187.761719 49.914062 C 187.761719 56.121094 185.671875 61.691406 182.183594 65.46875 C 181.289062 66.449219 180.289062 67.304688 179.222656 68.027344 L 179.605469 70.621094 L 180.960938 79.726562 C 169.648438 84.65625 160.28125 78.9375 160.28125 78.9375 L 160.0625 65.445312 C 159.308594 64.761719 158.53125 64.011719 157.722656 63.210938 C 154.589844 60.101562 153.585938 54.984375 153.585938 49.914062 C 153.585938 38.53125 161.421875 29.304688 171.078125 29.304688 C 180.730469 29.296875 187.761719 38.523438 187.761719 49.914062 Z M 187.761719 49.914062 " fill-opacity="1" fill-rule="nonzero"/><path fill="#000000" d="M 193.660156 42.34375 C 194.113281 43.890625 198.167969 47.207031 196.820312 48.1875 C 195.46875 49.171875 192.03125 46.964844 192.03125 46.964844 C 192.03125 46.964844 191.402344 50.621094 189.234375 50.601562 C 187.0625 50.578125 185.710938 44.355469 185.710938 44.355469 C 179.464844 42.199219 176 37.796875 174.140625 34.269531 C 174.035156 36.113281 173.023438 40.347656 166.171875 41.605469 C 164.347656 41.941406 160.027344 43.429688 158.453125 44.238281 C 157.976562 45.941406 156.246094 51.867188 154.902344 51.800781 C 154.253906 51.765625 153.480469 50.65625 152.796875 49.375 C 152.621094 49.722656 152.546875 49.921875 152.546875 49.921875 C 152.546875 49.921875 148.609375 51.703125 144.730469 48.1875 C 140.847656 44.683594 150.554688 48.378906 152.0625 37.28125 C 153.226562 28.726562 168.722656 23.65625 173.441406 27.480469 C 179.285156 21.21875 186.371094 27.199219 188.046875 31.566406 C 189.847656 36.261719 198.609375 41.53125 197.082031 42.789062 C 195.554688 44.046875 193.660156 42.34375 193.660156 42.34375 Z M 193.660156 42.34375 " fill-opacity="1" fill-rule="nonzero"/><path fill="#f2c3af" d="M 156.980469 51.539062 C 158.234375 55.140625 157.058594 58.820312 154.351562 59.769531 C 151.644531 60.710938 148.425781 58.558594 147.175781 54.960938 C 145.925781 51.363281 147.097656 47.679688 149.804688 46.734375 C 152.511719 45.785156 155.730469 47.941406 156.980469 51.539062 Z M 182.617188 54.121094 C 181.179688 57.65625 182.171875 61.394531 184.820312 62.46875 C 187.480469 63.550781 190.796875 61.566406 192.238281 58.03125 C 193.671875 54.496094 192.683594 50.753906 190.03125 49.679688 C 187.375 48.597656 184.050781 50.585938 182.617188 54.121094 Z M 182.617188 54.121094 " fill-opacity="1" fill-rule="nonzero"/><path fill="#000000" d="M 179.222656 68.027344 L 179.605469 70.621094 C 177.617188 72.359375 174.917969 73.421875 171.949219 73.421875 C 167.132812 73.421875 163.03125 70.636719 161.511719 66.734375 C 164.433594 69.015625 167.332031 70.339844 171.097656 70.339844 C 174.082031 70.339844 176.832031 69.503906 179.222656 68.027344 Z M 166.609375 49.574219 C 166.714844 48.246094 165.726562 47.078125 164.398438 46.972656 C 163.066406 46.867188 161.902344 47.855469 161.796875 49.1875 C 161.691406 50.515625 162.679688 51.683594 164.007812 51.789062 C 165.34375 51.894531 166.503906 50.902344 166.609375 49.574219 Z M 179.578125 48.1875 C 178.246094 48.082031 177.082031 49.074219 176.972656 50.402344 C 176.867188 51.730469 177.859375 52.898438 179.1875 53.003906 C 180.515625 53.109375 181.683594 52.121094 181.789062 50.789062 C 181.894531 49.460938 180.90625 48.296875 179.578125 48.1875 Z M 173.820312 57.105469 C 173.671875 57.230469 173.664062 57.457031 173.792969 57.605469 C 173.863281 57.683594 173.960938 57.726562 174.054688 57.726562 C 174.140625 57.726562 174.222656 57.699219 174.289062 57.632812 C 175.257812 56.765625 175.679688 55.882812 175.546875 54.992188 C 175.300781 53.378906 173.285156 52.453125 173.199219 52.417969 C 173.023438 52.339844 172.808594 52.417969 172.734375 52.59375 C 172.65625 52.769531 172.734375 52.984375 172.910156 53.058594 C 172.921875 53.066406 174.664062 53.875 174.847656 55.101562 C 174.945312 55.734375 174.597656 56.410156 173.820312 57.105469 Z M 172.996094 61.621094 C 174.289062 61.621094 175.671875 61.394531 177.101562 60.792969 C 177.277344 60.71875 177.371094 60.511719 177.292969 60.335938 C 177.214844 60.160156 177.011719 60.074219 176.832031 60.144531 C 171.277344 62.46875 166.285156 58.792969 166.234375 58.757812 C 166.078125 58.644531 165.859375 58.671875 165.742188 58.828125 C 165.621094 58.984375 165.65625 59.203125 165.8125 59.324219 C 165.847656 59.351562 168.914062 61.621094 172.996094 61.621094 Z M 151.148438 48.746094 C 149.671875 48.457031 148.164062 50.019531 148.101562 50.082031 C 147.96875 50.226562 147.972656 50.453125 148.117188 50.585938 C 148.257812 50.71875 148.484375 50.714844 148.617188 50.570312 C 148.976562 50.195312 150.109375 49.265625 151.023438 49.441406 C 151.523438 49.539062 151.933594 49.972656 152.246094 50.726562 C 152.300781 50.863281 152.433594 50.945312 152.570312 50.945312 C 152.613281 50.945312 152.660156 50.9375 152.703125 50.917969 C 152.886719 50.847656 152.972656 50.640625 152.902344 50.457031 C 152.492188 49.46875 151.90625 48.894531 151.148438 48.746094 Z M 191.757812 53.011719 C 191.714844 52.960938 190.632812 51.824219 189.429688 52.027344 C 188.730469 52.148438 188.160156 52.679688 187.742188 53.617188 C 187.664062 53.796875 187.742188 54.007812 187.917969 54.085938 C 187.96875 54.105469 188.011719 54.113281 188.058594 54.113281 C 188.195312 54.113281 188.320312 54.035156 188.386719 53.902344 C 188.695312 53.195312 189.09375 52.796875 189.542969 52.722656 C 190.378906 52.578125 191.226562 53.476562 191.242188 53.492188 C 191.375 53.632812 191.601562 53.640625 191.742188 53.503906 C 191.878906 53.371094 191.882812 53.152344 191.757812 53.011719 Z M 168.496094 42.808594 C 168.859375 42.949219 169.269531 42.765625 169.410156 42.40625 C 169.550781 42.046875 169.375 41.636719 169.007812 41.492188 C 168.800781 41.417969 163.929688 39.5625 160.523438 42.582031 C 160.234375 42.84375 160.207031 43.289062 160.460938 43.578125 C 160.601562 43.734375 160.792969 43.820312 160.988281 43.820312 C 161.160156 43.820312 161.320312 43.761719 161.457031 43.644531 C 164.222656 41.195312 168.457031 42.789062 168.496094 42.808594 Z M 177.632812 42.109375 C 177.242188 42.160156 176.972656 42.511719 177.015625 42.894531 C 177.066406 43.28125 177.414062 43.550781 177.800781 43.507812 C 177.976562 43.488281 182.101562 43.027344 184.09375 46.300781 C 184.226562 46.519531 184.460938 46.640625 184.703125 46.640625 C 184.828125 46.640625 184.957031 46.605469 185.070312 46.535156 C 185.402344 46.328125 185.507812 45.898438 185.304688 45.566406 C 182.828125 41.5 177.84375 42.082031 177.632812 42.109375 Z M 169.410156 43.699219 C 169.507812 43.996094 169.785156 44.179688 170.082031 44.179688 C 170.160156 44.179688 170.238281 44.167969 170.308594 44.144531 C 173.695312 42.984375 175.042969 40.230469 175.414062 37.507812 C 175.722656 39.332031 175.601562 41.386719 174.265625 43.027344 C 174.019531 43.332031 174.0625 43.777344 174.367188 44.023438 C 174.667969 44.273438 175.113281 44.230469 175.363281 43.925781 C 179.125 39.324219 175.191406 32.570312 175.023438 32.289062 C 174.839844 31.976562 174.457031 31.851562 174.132812 31.984375 C 173.808594 32.121094 173.628906 32.480469 173.722656 32.820312 C 173.808594 33.144531 175.75 40.78125 169.847656 42.800781 C 169.480469 42.929688 169.28125 43.332031 169.410156 43.699219 Z M 169.410156 43.699219 " fill-opacity="1" fill-rule="nonzero"/><path fill="#bdb76b" d="M 154.960938 59.8125 C 154.960938 61.054688 153.957031 62.058594 152.710938 62.058594 C 151.46875 62.058594 150.464844 61.054688 150.464844 59.8125 C 150.464844 58.566406 151.46875 57.5625 152.710938 57.5625 C 153.949219 57.5625 154.960938 58.574219 154.960938 59.8125 Z M 187.679688 59.8125 C 186.433594 59.8125 185.429688 60.816406 185.429688 62.058594 C 185.429688 63.304688 186.433594 64.308594 187.679688 64.308594 C 188.921875 64.308594 189.925781 63.304688 189.925781 62.058594 C 189.925781 60.816406 188.921875 59.8125 187.679688 59.8125 Z M 232.832031 61.273438 L 227.316406 56.855469 C 225.683594 55.546875 223.421875 55.359375 221.585938 56.367188 C 219.988281 57.246094 218.09375 58.671875 216.460938 61 C 214.726562 63.460938 214.707031 66.734375 216.421875 69.199219 L 218.75 72.550781 C 218.75 72.550781 213.519531 77.710938 212.789062 79.339844 C 212.789062 79.339844 194.65625 77.226562 188.511719 80.964844 C 188.511719 80.964844 188.292969 87.941406 176.261719 90.890625 C 164.226562 93.839844 153.585938 81.726562 153.585938 81.726562 C 153.585938 81.726562 145.648438 81.316406 131.203125 95.21875 C 116.761719 109.117188 107.925781 161.078125 113.714844 180.777344 C 114.964844 185.03125 132.351562 202.804688 137.222656 202.988281 C 142.097656 203.164062 149.4375 156.765625 149.4375 156.765625 L 207.742188 158.753906 L 215.171875 120.929688 C 215.171875 120.929688 247.269531 119.402344 257.195312 100.992188 C 267.128906 82.582031 237.34375 60.371094 232.832031 61.273438 Z M 232.832031 61.273438 " fill-opacity="1" fill-rule="nonzero"/><path fill="#d2b48c" d="M 188.511719 80.957031 C 188.511719 80.957031 188.292969 88.65625 176.261719 91.605469 C 164.226562 94.550781 153.585938 81.726562 153.585938 81.726562 L 160.027344 76.417969 C 171.339844 79.828125 180.46875 76.417969 180.46875 76.417969 Z M 188.511719 80.957031 " fill-opacity="1" fill-rule="nonzero"/><path fill="#4682b4" d="M 207.742188 158.894531 L 207.742188 165.835938 C 207.742188 166.050781 207.761719 166.253906 207.804688 166.460938 L 221.449219 233.839844 C 221.683594 235 221.253906 236.203125 220.332031 236.886719 C 215.976562 240.140625 202.214844 248.496094 180.953125 243.433594 C 180.652344 243.363281 180.339844 243.34375 180.027344 243.378906 C 176.183594 243.851562 148.851562 246.671875 132.519531 234.039062 C 131.609375 233.332031 131.191406 232.101562 131.453125 230.933594 L 148.53125 156.214844 Z M 164.660156 19.421875 C 164.242188 18.425781 163.253906 17.71875 162.101562 17.71875 C 160.566406 17.71875 159.328125 18.960938 159.328125 20.488281 C 159.328125 20.667969 159.351562 20.84375 159.378906 21.011719 C 158.613281 21.308594 157.863281 21.640625 157.128906 22.003906 C 151.53125 24.738281 141.894531 33.433594 144.101562 38.703125 C 145.046875 40.957031 147.21875 41.890625 148.835938 42.34375 C 157.285156 44.675781 160.988281 37.316406 172.78125 36.617188 C 176.824219 36.375 182.898438 36.84375 187.734375 34.898438 C 189.132812 34.339844 190.726562 33.398438 191.914062 31.730469 C 198.175781 22.878906 180.433594 16 164.660156 19.421875 Z M 164.660156 19.421875 " fill-opacity="1" fill-rule="nonzero"/><path fill="#f2c3af" d="M 225.375 60.449219 C 224.527344 62.867188 222.503906 64.117188 220.914062 64.746094 C 219.746094 65.207031 218.410156 64.929688 217.539062 64.03125 C 216.203125 62.652344 214.035156 60.574219 212.34375 59.8125 C 207.382812 57.5625 205.035156 53.335938 204.859375 50.601562 C 204.679688 47.863281 210.816406 43.769531 210.816406 43.769531 C 210.816406 43.769531 211.445312 25.8125 213.433594 26.988281 C 215.417969 28.160156 214.875 44.355469 214.875 44.355469 C 214.875 44.355469 223.265625 27.800781 224.984375 29.304688 C 226.703125 30.8125 218.847656 46.140625 218.847656 46.140625 C 221.289062 46.140625 220.417969 48.019531 221.5 48.769531 C 223.8125 50.367188 223.046875 55.726562 223.046875 55.726562 L 224.964844 58.121094 C 225.488281 58.773438 225.648438 59.65625 225.375 60.449219 Z M 225.375 60.449219 " fill-opacity="1" fill-rule="nonzero"/><path fill="#000000" d="M 196.8125 183.25 C 196.941406 183.398438 196.925781 183.617188 196.785156 183.75 L 182.996094 195.925781 L 180.382812 243.40625 C 180.375 243.597656 180.21875 243.738281 180.027344 243.738281 C 180.023438 243.738281 180.015625 243.738281 180.007812 243.738281 C 179.808594 243.730469 179.660156 243.5625 179.675781 243.363281 L 182.296875 195.734375 C 182.304688 195.644531 182.347656 195.550781 182.417969 195.488281 L 196.316406 183.214844 C 196.457031 183.085938 196.683594 183.101562 196.8125 183.25 Z M 146.671875 162.457031 C 146.667969 162.65625 146.816406 162.816406 147.007812 162.832031 L 207 165.964844 C 207.007812 165.964844 207.015625 165.964844 207.019531 165.964844 C 207.203125 165.964844 207.367188 165.816406 207.375 165.632812 C 207.382812 165.433594 207.234375 165.269531 207.042969 165.257812 L 147.046875 162.125 C 146.851562 162.109375 146.679688 162.265625 146.671875 162.457031 Z M 148.242188 156.425781 C 148.3125 156.527344 148.417969 156.582031 148.53125 156.582031 C 148.605469 156.582031 148.675781 156.5625 148.730469 156.519531 C 148.894531 156.40625 148.9375 156.1875 148.824219 156.023438 L 131.3125 130.574219 C 131.199219 130.410156 130.980469 130.367188 130.816406 130.480469 C 130.652344 130.59375 130.609375 130.8125 130.722656 130.976562 Z M 239.0625 105.164062 C 221.117188 100.230469 219.285156 76.242188 219.117188 72.917969 C 228.023438 73.28125 230.964844 64.511719 231 64.429688 C 231.058594 64.246094 230.960938 64.046875 230.777344 63.984375 C 230.589844 63.925781 230.394531 64.027344 230.328125 64.210938 C 230.21875 64.5625 227.425781 72.785156 218.777344 72.199219 C 218.664062 72.191406 218.582031 72.226562 218.507812 72.296875 C 218.4375 72.367188 218.394531 72.460938 218.394531 72.558594 C 218.402344 72.835938 219.175781 100.433594 238.871094 105.855469 C 238.898438 105.863281 238.933594 105.871094 238.960938 105.871094 C 239.117188 105.871094 239.257812 105.765625 239.300781 105.609375 C 239.359375 105.410156 239.253906 105.214844 239.0625 105.164062 Z M 212.449219 79.253906 L 211.554688 83.226562 C 211.511719 83.417969 211.628906 83.609375 211.820312 83.652344 C 211.851562 83.65625 211.871094 83.65625 211.898438 83.65625 C 212.0625 83.65625 212.210938 83.546875 212.246094 83.382812 L 213.144531 79.410156 C 213.1875 79.21875 213.066406 79.027344 212.875 78.984375 C 212.675781 78.941406 212.492188 79.0625 212.449219 79.253906 Z M 187.445312 161.078125 C 187.445312 159.699219 188.5625 158.582031 189.941406 158.582031 C 191.320312 158.582031 192.4375 159.699219 192.4375 161.078125 C 192.4375 162.457031 191.320312 163.574219 189.941406 163.574219 C 188.5625 163.574219 187.445312 162.449219 187.445312 161.078125 Z M 188.152344 161.078125 C 188.152344 162.070312 188.957031 162.867188 189.941406 162.867188 C 190.921875 162.867188 191.730469 162.0625 191.730469 161.078125 C 191.730469 160.089844 190.921875 159.289062 189.941406 159.289062 C 188.957031 159.289062 188.152344 160.089844 188.152344 161.078125 Z M 209.820312 51.484375 C 209.90625 51.484375 209.992188 51.457031 210.0625 51.390625 C 210.089844 51.363281 210.257812 51.207031 210.5 50.953125 C 210.957031 51.1875 213.710938 52.757812 213.886719 56.695312 C 213.894531 56.886719 214.046875 57.035156 214.238281 57.035156 C 214.246094 57.035156 214.246094 57.035156 214.253906 57.035156 C 214.453125 57.027344 214.601562 56.855469 214.59375 56.664062 C 214.414062 52.6875 211.835938 50.898438 210.996094 50.421875 C 211.921875 49.390625 213.222656 47.695312 213.371094 46.175781 C 213.523438 44.65625 213.207031 43.542969 212.5 43.140625 C 212.132812 42.929688 211.503906 42.824219 210.597656 43.488281 C 210.441406 43.601562 210.40625 43.828125 210.519531 43.984375 C 210.632812 44.136719 210.859375 44.171875 211.015625 44.058594 C 211.347656 43.8125 211.8125 43.566406 212.148438 43.757812 C 212.578125 44.003906 212.78125 44.921875 212.664062 46.105469 C 212.449219 48.175781 209.601562 50.847656 209.574219 50.867188 C 209.433594 51.003906 209.425781 51.222656 209.550781 51.371094 C 209.628906 51.441406 209.722656 51.484375 209.820312 51.484375 Z M 213.398438 52.445312 C 213.441406 52.609375 213.582031 52.714844 213.738281 52.714844 C 213.765625 52.714844 213.792969 52.714844 213.820312 52.699219 C 214.011719 52.648438 214.125 52.460938 214.078125 52.269531 C 213.539062 50.160156 217.457031 47.347656 219.011719 46.441406 C 219.179688 46.34375 219.238281 46.132812 219.136719 45.960938 C 219.039062 45.792969 218.820312 45.734375 218.65625 45.835938 C 218.417969 45.976562 212.621094 49.382812 213.398438 52.445312 Z M 214.824219 53.796875 C 214.863281 54.148438 215.046875 54.460938 215.347656 54.6875 C 215.835938 55.054688 216.621094 55.210938 217.449219 55.25 C 217.171875 56.03125 216.707031 58.09375 218.601562 59.910156 C 218.671875 59.972656 218.757812 60.011719 218.847656 60.011719 C 218.941406 60.011719 219.03125 59.972656 219.101562 59.902344 C 219.238281 59.761719 219.230469 59.535156 219.089844 59.402344 C 217.128906 57.519531 218.128906 55.414062 218.199219 55.265625 C 219.371094 55.25 220.453125 55.074219 220.664062 55.039062 C 220.855469 55.003906 220.992188 54.820312 220.957031 54.628906 C 220.921875 54.4375 220.738281 54.3125 220.546875 54.339844 C 219.527344 54.515625 216.691406 54.8125 215.773438 54.121094 C 215.625 54.007812 215.546875 53.878906 215.527344 53.71875 C 215.40625 52.558594 218.53125 50.550781 220.53125 49.554688 C 220.707031 49.46875 220.777344 49.257812 220.6875 49.078125 C 220.601562 48.902344 220.390625 48.832031 220.214844 48.917969 C 219.648438 49.214844 214.613281 51.773438 214.824219 53.796875 Z M 144.136719 337.285156 L 143.988281 337.710938 C 143.625 338.734375 142.839844 339.570312 141.835938 339.992188 C 141.355469 340.199219 140.855469 340.296875 140.359375 340.296875 C 139.824219 340.296875 139.285156 340.175781 138.785156 339.945312 C 136.710938 338.984375 134.175781 338.3125 131.234375 337.9375 C 130.058594 337.789062 129.027344 337.125 128.40625 336.121094 C 127.789062 335.128906 127.664062 333.925781 128.050781 332.824219 C 128.625 331.199219 130.136719 330.171875 131.785156 330.203125 C 136.21875 330.320312 139.808594 331.496094 142.027344 332.457031 C 143.886719 333.261719 144.8125 335.382812 144.136719 337.285156 Z M 141.753906 333.109375 C 139.582031 332.167969 136.089844 331.023438 131.769531 330.910156 C 131.742188 330.910156 131.714844 330.910156 131.6875 330.910156 C 130.355469 330.910156 129.175781 331.75 128.730469 333.015625 C 128.398438 333.957031 128.503906 334.929688 129.007812 335.746094 C 129.515625 336.566406 130.355469 337.109375 131.316406 337.230469 C 134.328125 337.609375 136.9375 338.3125 139.074219 339.300781 C 139.867188 339.667969 140.75 339.683594 141.5625 339.335938 C 142.382812 338.988281 143.027344 338.3125 143.324219 337.46875 L 143.472656 337.046875 C 144.023438 335.496094 143.265625 333.765625 141.753906 333.109375 Z M 227.863281 326.851562 C 225.148438 327.167969 223.261719 328.808594 222.148438 330.125 C 221.371094 331.050781 220.09375 331.390625 218.96875 330.980469 C 218.027344 330.632812 217.355469 329.839844 217.160156 328.859375 C 216.96875 327.867188 217.292969 326.871094 218.042969 326.1875 C 219.421875 324.929688 220.855469 324.347656 220.871094 324.339844 C 221.054688 324.269531 221.140625 324.066406 221.070312 323.882812 C 220.996094 323.699219 220.792969 323.613281 220.609375 323.683594 C 220.546875 323.710938 219.039062 324.3125 217.5625 325.664062 C 216.628906 326.511719 216.21875 327.753906 216.464844 328.992188 C 216.707031 330.222656 217.546875 331.210938 218.722656 331.644531 C 219.117188 331.792969 219.535156 331.863281 219.9375 331.863281 C 220.96875 331.863281 221.988281 331.410156 222.679688 330.582031 C 223.707031 329.367188 225.453125 327.855469 227.933594 327.558594 C 228.125 327.535156 228.265625 327.359375 228.246094 327.167969 C 228.238281 326.972656 228.054688 326.824219 227.863281 326.851562 Z M 217.292969 321.886719 C 217.257812 321.695312 217.066406 321.570312 216.875 321.613281 C 214.078125 322.175781 212.257812 324.121094 211.234375 325.65625 C 210.457031 326.824219 208.894531 327.226562 207.601562 326.597656 L 206.816406 326.214844 C 206.039062 325.839844 205.480469 325.140625 205.28125 324.296875 C 205.082031 323.457031 205.273438 322.582031 205.796875 321.894531 C 207.761719 319.34375 210.921875 317.972656 210.957031 317.957031 C 211.136719 317.878906 211.21875 317.675781 211.144531 317.492188 C 211.066406 317.3125 210.859375 317.230469 210.675781 317.304688 C 210.542969 317.363281 207.316406 318.753906 205.230469 321.464844 C 204.574219 322.320312 204.339844 323.40625 204.589844 324.460938 C 204.835938 325.507812 205.53125 326.378906 206.496094 326.851562 L 207.28125 327.234375 C 207.792969 327.480469 208.328125 327.59375 208.867188 327.59375 C 210.027344 327.59375 211.148438 327.042969 211.8125 326.042969 C 212.769531 324.625 214.445312 322.8125 217.011719 322.296875 C 217.207031 322.269531 217.328125 322.078125 217.292969 321.886719 Z M 147.769531 326.121094 L 147.621094 326.546875 C 147.261719 327.570312 146.476562 328.40625 145.472656 328.824219 C 144.992188 329.027344 144.488281 329.128906 143.996094 329.128906 C 143.457031 329.128906 142.917969 329.007812 142.417969 328.773438 C 140.347656 327.8125 137.808594 327.140625 134.867188 326.765625 C 133.695312 326.617188 132.660156 325.953125 132.039062 324.949219 C 131.425781 323.960938 131.296875 322.757812 131.6875 321.65625 C 132.257812 320.027344 133.769531 318.988281 135.425781 319.03125 C 139.859375 319.152344 143.441406 320.324219 145.667969 321.285156 C 147.515625 322.101562 148.441406 324.222656 147.769531 326.121094 Z M 145.378906 321.945312 C 143.210938 321.003906 139.71875 319.859375 135.398438 319.746094 C 135.367188 319.746094 135.339844 319.746094 135.3125 319.746094 C 133.984375 319.746094 132.800781 320.585938 132.355469 321.851562 C 132.023438 322.792969 132.132812 323.769531 132.632812 324.582031 C 133.140625 325.402344 133.984375 325.945312 134.945312 326.066406 C 137.957031 326.449219 140.566406 327.148438 142.699219 328.136719 C 143.492188 328.503906 144.375 328.519531 145.1875 328.171875 C 146.007812 327.828125 146.652344 327.148438 146.949219 326.304688 L 147.097656 325.882812 C 147.648438 324.332031 146.898438 322.601562 145.378906 321.945312 Z M 145.378906 321.945312 " fill-opacity="1" fill-rule="nonzero"/></svg>