<svg xmlns="http://www.w3.org/2000/svg" xmlns:xlink="http://www.w3.org/1999/xlink" width="500" zoomAndPan="magnify" viewBox="0 0 375 374.999991" height="500" preserveAspectRatio="xMidYMid meet" version="1.0"><defs><clipPath id="1a5bf75f02"><path d="M 134 88 L 275.101562 88 L 275.101562 164 L 134 164 Z M 134 88 " clip-rule="nonzero"/></clipPath></defs><path fill="#f4a460" d="M 184.683594 333.1875 C 178.265625 336.714844 179.375 342.1875 168.824219 345.871094 C 158.269531 349.550781 142.925781 347.058594 150 334.457031 C 157.074219 321.863281 175.074219 311.171875 175.074219 311.171875 L 174.65625 305.425781 L 174.234375 299.640625 L 192.640625 301.34375 C 192.640625 301.34375 192.324219 303.023438 192.277344 306.4375 C 192.234375 309.28125 192.359375 313.308594 193.015625 318.574219 C 194.457031 330.164062 191.101562 329.667969 184.683594 333.1875 Z M 227.199219 331.929688 C 233.425781 335.785156 232.042969 341.191406 242.386719 345.402344 C 252.738281 349.613281 268.1875 347.910156 261.769531 334.960938 C 255.34375 322.027344 237.917969 310.425781 237.917969 310.425781 L 238.628906 304.703125 L 239.34375 298.949219 L 220.875 299.710938 C 220.875 299.710938 221.105469 301.402344 220.980469 304.816406 C 220.875 307.652344 220.542969 311.683594 219.625 316.898438 C 217.59375 328.410156 220.96875 328.089844 227.199219 331.929688 Z M 227.199219 331.929688 " fill-opacity="1" fill-rule="nonzero"/><path fill="#808000" d="M 194.644531 327.363281 C 194.574219 330.839844 192.351562 331.84375 187.582031 333.558594 C 182.8125 335.269531 182.464844 338.90625 174.257812 344.84375 C 166.050781 350.78125 148.261719 349.59375 146.320312 341.761719 C 144.378906 333.933594 162.964844 316.675781 170.347656 313.457031 C 177.726562 310.230469 181.597656 318.554688 181.597656 318.554688 C 186.515625 322.304688 192.605469 314.621094 192.605469 314.621094 C 195.230469 316.703125 194.714844 323.882812 194.644531 327.363281 Z M 217.550781 325.609375 C 217.449219 329.085938 219.613281 330.203125 224.285156 332.160156 C 228.964844 334.117188 229.125 337.769531 237.015625 344.117188 C 244.910156 350.464844 262.738281 350.1875 265.074219 342.46875 C 267.414062 334.75 249.734375 316.5625 242.519531 312.972656 C 235.3125 309.378906 231.019531 317.492188 231.019531 317.492188 C 225.917969 320.984375 220.21875 313.003906 220.21875 313.003906 C 217.511719 314.929688 217.664062 322.125 217.550781 325.609375 Z M 217.550781 325.609375 " fill-opacity="1" fill-rule="nonzero"/><path fill="#000000" d="M 178.085938 325.558594 L 181.28125 318.414062 C 181.347656 318.273438 181.5 318.191406 181.652344 318.210938 C 181.808594 318.234375 181.925781 318.359375 181.945312 318.511719 L 182.804688 325.191406 C 182.832031 325.378906 182.695312 325.550781 182.503906 325.582031 C 182.308594 325.609375 182.140625 325.46875 182.113281 325.28125 L 181.414062 319.832031 L 178.726562 325.847656 C 178.671875 325.980469 178.539062 326.054688 178.40625 326.054688 C 178.355469 326.054688 178.308594 326.046875 178.265625 326.027344 C 178.085938 325.945312 178 325.742188 178.085938 325.558594 Z M 194.421875 325.335938 C 194.386719 325.378906 190.710938 329.792969 185.304688 329.917969 C 183.589844 329.960938 181.644531 331.878906 179.1875 334.316406 C 172.917969 340.527344 163.429688 349.921875 146.824219 340.589844 C 146.65625 340.492188 146.4375 340.554688 146.347656 340.722656 C 146.25 340.890625 146.3125 341.105469 146.480469 341.199219 C 151.664062 344.109375 156.167969 345.25 160.105469 345.25 C 169.136719 345.25 175.207031 339.242188 179.683594 334.8125 C 182.03125 332.488281 183.886719 330.652344 185.328125 330.617188 C 191.0625 330.484375 194.8125 325.964844 194.964844 325.777344 C 195.082031 325.628906 195.0625 325.40625 194.917969 325.289062 C 194.761719 325.160156 194.546875 325.183594 194.421875 325.335938 Z M 188.734375 310.726562 C 188.742188 310.726562 188.742188 310.726562 188.734375 310.726562 C 188.929688 310.726562 189.085938 310.570312 189.085938 310.375 L 189.105469 305.90625 C 189.105469 305.710938 188.953125 305.558594 188.757812 305.558594 C 188.566406 305.558594 188.40625 305.710938 188.40625 305.90625 L 188.386719 310.375 C 188.394531 310.566406 188.546875 310.71875 188.734375 310.726562 Z M 184.015625 310.976562 C 184.015625 310.976562 184.019531 310.976562 184.015625 310.976562 C 184.210938 310.976562 184.363281 310.816406 184.363281 310.621094 L 184.273438 304.832031 C 184.273438 304.636719 184.082031 304.46875 183.917969 304.488281 C 183.71875 304.488281 183.566406 304.648438 183.574219 304.84375 L 183.664062 310.632812 C 183.664062 310.824219 183.824219 310.976562 184.015625 310.976562 Z M 179.035156 310.621094 C 179.042969 310.621094 179.046875 310.621094 179.0625 310.621094 C 179.257812 310.605469 179.398438 310.4375 179.382812 310.242188 L 179 304.851562 C 178.984375 304.664062 178.8125 304.515625 178.628906 304.53125 C 178.433594 304.542969 178.292969 304.710938 178.308594 304.90625 L 178.691406 310.300781 C 178.699219 310.480469 178.851562 310.621094 179.035156 310.621094 Z M 229.769531 324.449219 C 229.949219 324.476562 230.136719 324.359375 230.171875 324.167969 L 231.152344 318.765625 L 233.53125 324.902344 C 233.589844 325.042969 233.722656 325.125 233.859375 325.125 C 233.902344 325.125 233.945312 325.121094 233.984375 325.105469 C 234.167969 325.035156 234.257812 324.832031 234.1875 324.652344 L 231.359375 317.351562 C 231.304688 317.207031 231.164062 317.128906 231.003906 317.128906 C 230.851562 317.144531 230.722656 317.261719 230.695312 317.417969 L 229.496094 324.039062 C 229.453125 324.234375 229.578125 324.414062 229.769531 324.449219 Z M 265.101562 341.40625 C 265.015625 341.230469 264.800781 341.164062 264.632812 341.246094 C 247.570312 349.71875 238.582031 339.855469 232.632812 333.332031 C 230.296875 330.777344 228.453125 328.757812 226.742188 328.625 C 221.351562 328.226562 217.910156 323.632812 217.875 323.582031 C 217.753906 323.429688 217.539062 323.394531 217.382812 323.507812 C 217.230469 323.617188 217.195312 323.839844 217.308594 323.996094 C 217.453125 324.199219 220.96875 328.898438 226.6875 329.324219 C 228.121094 329.429688 229.878906 331.363281 232.105469 333.800781 C 236.515625 338.632812 242.542969 345.25 252.179688 345.25 C 255.867188 345.25 260.085938 344.277344 264.941406 341.867188 C 265.121094 341.792969 265.191406 341.582031 265.101562 341.40625 Z M 224.300781 309.285156 C 224.304688 309.285156 224.3125 309.285156 224.3125 309.285156 C 224.5 309.285156 224.65625 309.140625 224.664062 308.953125 L 224.863281 304.488281 C 224.871094 304.292969 224.726562 304.132812 224.53125 304.125 C 224.339844 304.097656 224.171875 304.265625 224.167969 304.460938 L 223.964844 308.921875 C 223.957031 309.113281 224.101562 309.28125 224.300781 309.285156 Z M 229 309.78125 C 229.007812 309.78125 229.011719 309.78125 229.019531 309.78125 C 229.203125 309.78125 229.355469 309.644531 229.371094 309.453125 L 229.753906 303.679688 C 229.769531 303.484375 229.621094 303.320312 229.425781 303.308594 C 229.214844 303.285156 229.070312 303.441406 229.054688 303.636719 L 228.671875 309.414062 C 228.65625 309.609375 228.804688 309.769531 229 309.78125 Z M 233.972656 309.675781 C 233.984375 309.675781 234 309.675781 234.015625 309.675781 C 234.1875 309.675781 234.335938 309.542969 234.363281 309.371094 L 235.027344 304.007812 C 235.046875 303.816406 234.914062 303.644531 234.726562 303.617188 C 234.53125 303.585938 234.363281 303.726562 234.335938 303.914062 L 233.671875 309.28125 C 233.644531 309.480469 233.777344 309.65625 233.972656 309.675781 Z M 233.972656 309.675781 " fill-opacity="1" fill-rule="nonzero"/><path fill="#f4a460" d="M 181.972656 57.429688 C 181.972656 57.429688 173.574219 58.371094 172.59375 51.589844 C 171.617188 44.816406 184.78125 40.800781 184.78125 40.800781 C 190.648438 25.460938 215.304688 24.238281 225.320312 34.644531 C 232.210938 41.8125 230.640625 51.589844 230.640625 51.589844 " fill-opacity="1" fill-rule="nonzero"/><path fill="#000000" d="M 228.816406 66.71875 L 228.816406 95.632812 L 183.441406 95.632812 L 183.441406 66.71875 Z M 228.816406 66.71875 " fill-opacity="1" fill-rule="nonzero"/><path fill="#f7d2ba" d="M 256.9375 151.980469 C 256.9375 151.980469 268.984375 183.5625 240.035156 208.328125 L 230.550781 153.230469 Z M 256.9375 151.980469 " fill-opacity="1" fill-rule="nonzero"/><g clip-path="url(#1a5bf75f02)"><path fill="#808000" d="M 274.132812 151.660156 C 270.472656 155.410156 260.175781 163.679688 241.25 162.707031 C 239.070312 162.597656 236.988281 161.90625 235.003906 160.753906 L 175.417969 160.753906 C 173.285156 162.09375 171.039062 162.898438 168.667969 163.015625 C 149.742188 163.988281 139.449219 155.71875 135.789062 151.964844 C 134.789062 150.941406 134.550781 149.4375 135.144531 148.160156 C 142.679688 131.957031 155.226562 113 160.882812 104.738281 C 162.949219 101.714844 165.769531 99.230469 169.101562 97.539062 C 186.933594 88.492188 204.953125 88.925781 204.953125 88.925781 C 204.953125 88.925781 204.867188 89.421875 204.714844 90.316406 C 204.933594 90.261719 205.097656 90.21875 205.238281 90.191406 C 205.058594 89.1875 204.964844 88.625 204.964844 88.625 C 204.964844 88.625 222.984375 88.195312 240.816406 97.238281 C 244.148438 98.929688 246.96875 101.421875 249.039062 104.4375 C 254.695312 112.707031 267.238281 131.65625 274.773438 147.859375 C 275.367188 149.132812 275.136719 150.632812 274.132812 151.660156 Z M 274.132812 151.660156 " fill-opacity="1" fill-rule="nonzero"/></g><path fill="#f7d2ba" d="M 219.359375 90.058594 C 219.695312 90.898438 219.585938 91.839844 219.066406 92.574219 C 217.539062 94.773438 213.5 99.035156 204.953125 99.558594 C 196.097656 100.101562 192.136719 95.445312 190.761719 93.214844 C 190.355469 92.550781 190.257812 91.75 190.496094 91.007812 L 193.164062 82.664062 L 193.226562 82.464844 L 193.226562 82.460938 C 193.136719 82.410156 193.042969 82.363281 192.953125 82.3125 C 186.09375 78.269531 181.464844 70.664062 181.464844 62.21875 C 181.464844 49.738281 191.578125 39.632812 204.050781 39.632812 C 216.527344 39.632812 226.640625 49.738281 226.640625 62.21875 C 226.640625 70.285156 222.40625 77.585938 216.050781 81.742188 Z M 219.359375 90.058594 " fill-opacity="1" fill-rule="nonzero"/><path fill="#000000" d="M 227.875 44.457031 C 232.429688 49.808594 230.722656 60.328125 226.632812 60.835938 C 222.546875 61.339844 218.417969 49.003906 218.417969 49.003906 C 215.652344 41.425781 223.320312 39.109375 227.875 44.457031 Z M 181.972656 57.429688 C 189.929688 58.363281 202.550781 44.285156 202.550781 44.285156 C 179.808594 36.160156 174.019531 56.492188 181.972656 57.429688 Z M 181.972656 57.429688 " fill-opacity="1" fill-rule="nonzero"/><path fill="#f7d2ba" d="M 234.160156 66.96875 C 232.988281 71.1875 227.691406 74.105469 224.304688 73.164062 C 220.910156 72.222656 220.703125 67.773438 221.882812 63.546875 C 223.054688 59.328125 226.765625 56.667969 230.152344 57.609375 C 233.539062 58.554688 235.335938 62.75 234.160156 66.96875 Z M 176.679688 66.96875 C 177.855469 71.1875 183.148438 74.105469 186.535156 73.164062 C 189.929688 72.222656 190.140625 67.773438 188.957031 63.546875 C 187.785156 59.328125 184.078125 56.667969 180.691406 57.609375 C 177.300781 58.558594 175.507812 62.75 176.679688 66.96875 Z M 141.472656 171.597656 C 150.121094 178.730469 168.074219 169.160156 168.074219 155.851562 C 168.074219 145.75 146.320312 144.792969 146.320312 144.792969 C 146.320312 144.792969 130.5 162.546875 141.472656 171.597656 Z M 141.472656 171.597656 " fill-opacity="1" fill-rule="nonzero"/><path fill="#f4a460" d="M 230.632812 51.589844 L 221.226562 47.558594 C 221.226562 47.558594 217.824219 52.839844 209.421875 50.613281 C 201.027344 48.382812 183.007812 41.929688 172.804688 52.601562 C 172.804688 52.601562 174.726562 44.367188 193.980469 40.269531 C 213.234375 36.167969 227.238281 40.980469 227.238281 40.980469 C 227.238281 40.980469 230.542969 46.148438 230.632812 51.589844 " fill-opacity="1" fill-rule="nonzero"/><path fill="#000000" d="M 232.5 63.546875 C 232.441406 63.574219 232.386719 63.589844 232.324219 63.589844 C 232.207031 63.589844 232.085938 63.527344 232.015625 63.414062 C 232.003906 63.394531 230.757812 61.242188 228.894531 61.03125 C 227.804688 60.914062 226.679688 61.480469 225.570312 62.722656 C 225.445312 62.867188 225.222656 62.875 225.074219 62.75 C 224.925781 62.617188 224.921875 62.402344 225.046875 62.253906 C 226.324219 60.835938 227.644531 60.195312 228.972656 60.332031 C 231.199219 60.578125 232.566406 62.960938 232.625 63.066406 C 232.730469 63.238281 232.667969 63.449219 232.5 63.546875 Z M 181.6875 59.976562 C 178.613281 59.976562 177.53125 63.351562 177.492188 63.492188 C 177.433594 63.671875 177.539062 63.867188 177.722656 63.921875 C 177.757812 63.9375 177.792969 63.9375 177.824219 63.9375 C 177.972656 63.9375 178.113281 63.839844 178.160156 63.691406 C 178.167969 63.664062 179.132812 60.667969 181.6875 60.667969 C 181.882812 60.667969 182.039062 60.515625 182.039062 60.320312 C 182.039062 60.125 181.875 59.976562 181.6875 59.976562 Z M 197.757812 73.839844 C 197.703125 74.023438 197.808594 74.21875 197.996094 74.273438 C 199.707031 74.785156 201.355469 74.980469 202.886719 74.980469 C 207.824219 74.980469 211.449219 72.925781 211.644531 72.816406 C 211.8125 72.714844 211.867188 72.507812 211.769531 72.339844 C 211.671875 72.171875 211.460938 72.117188 211.292969 72.214844 C 211.230469 72.25 205.148438 75.679688 198.191406 73.609375 C 198.003906 73.546875 197.808594 73.652344 197.757812 73.839844 Z M 198.492188 68.402344 C 198.5 68.402344 198.5 68.402344 198.507812 68.402344 C 198.695312 68.402344 198.847656 68.253906 198.855469 68.066406 C 198.953125 65.796875 201.515625 65.734375 201.804688 65.734375 C 201.816406 65.734375 201.824219 65.734375 201.832031 65.734375 C 202.019531 65.734375 202.179688 65.578125 202.179688 65.390625 C 202.1875 65.195312 202.035156 65.042969 201.835938 65.035156 C 200.59375 65.007812 198.261719 65.605469 198.148438 68.039062 C 198.148438 68.234375 198.296875 68.394531 198.492188 68.402344 Z M 216.789062 53.46875 C 211.328125 50.421875 206.910156 51.902344 206.71875 51.964844 C 206.175781 52.15625 205.886719 52.75 206.078125 53.292969 C 206.265625 53.839844 206.859375 54.132812 207.402344 53.949219 C 207.558594 53.902344 211.167969 52.734375 215.765625 55.296875 C 215.925781 55.390625 216.097656 55.429688 216.273438 55.429688 C 216.644531 55.429688 217 55.234375 217.1875 54.894531 C 217.476562 54.390625 217.292969 53.746094 216.789062 53.46875 Z M 196.535156 53.949219 C 197.082031 54.140625 197.675781 53.84375 197.863281 53.300781 C 198.050781 52.753906 197.765625 52.15625 197.222656 51.964844 C 197.03125 51.902344 192.613281 50.421875 187.148438 53.46875 C 186.648438 53.746094 186.464844 54.390625 186.746094 54.894531 C 186.933594 55.234375 187.289062 55.429688 187.660156 55.429688 C 187.835938 55.429688 188.007812 55.390625 188.167969 55.296875 C 192.765625 52.742188 196.367188 53.894531 196.535156 53.949219 Z M 183.316406 68.796875 C 183.300781 68.601562 183.132812 68.457031 182.9375 68.476562 C 182.742188 68.492188 182.601562 68.660156 182.617188 68.855469 C 182.632812 69 182.902344 72.5 184.46875 75.46875 C 184.53125 75.585938 184.648438 75.65625 184.773438 75.65625 C 184.832031 75.65625 184.886719 75.644531 184.9375 75.613281 C 185.105469 75.523438 185.171875 75.316406 185.082031 75.140625 C 183.59375 72.3125 183.316406 68.832031 183.316406 68.796875 Z M 193.21875 82.464844 L 193.15625 82.664062 C 195.3125 86.316406 199.300781 88.765625 203.855469 88.765625 C 208.417969 88.765625 212.410156 86.300781 214.570312 82.632812 C 211.425781 84.367188 207.84375 85.351562 204.042969 85.351562 C 200.125 85.351562 196.433594 84.304688 193.21875 82.464844 Z M 212.195312 58.070312 C 210.664062 58.070312 209.429688 59.308594 209.429688 60.835938 C 209.429688 62.367188 210.664062 63.601562 212.195312 63.601562 C 213.726562 63.601562 214.960938 62.367188 214.960938 60.835938 C 214.953125 59.308594 213.71875 58.070312 212.195312 58.070312 Z M 196.171875 60.828125 C 196.171875 59.300781 194.9375 58.0625 193.40625 58.0625 C 191.878906 58.0625 190.640625 59.300781 190.640625 60.828125 C 190.640625 62.359375 191.878906 63.59375 193.40625 63.59375 C 194.9375 63.59375 196.171875 62.359375 196.171875 60.828125 Z M 184.125 47.539062 C 184.117188 47.34375 183.945312 47.1875 183.753906 47.210938 C 183.460938 47.222656 176.519531 47.644531 172.714844 52.070312 C 172.585938 52.21875 172.601562 52.433594 172.75 52.566406 C 172.8125 52.625 172.894531 52.652344 172.980469 52.652344 C 173.078125 52.652344 173.175781 52.609375 173.246094 52.53125 C 176.847656 48.335938 183.71875 47.914062 183.789062 47.910156 C 183.992188 47.894531 184.140625 47.734375 184.125 47.539062 Z M 221.40625 47.257812 C 204.917969 37.335938 184.921875 40.429688 184.71875 40.457031 C 184.53125 40.484375 184.398438 40.667969 184.433594 40.855469 C 184.460938 41.042969 184.636719 41.175781 184.832031 41.140625 C 185.027344 41.105469 204.777344 38.054688 221.050781 47.851562 C 221.105469 47.886719 221.171875 47.902344 221.234375 47.902344 C 221.351562 47.902344 221.464844 47.839844 221.535156 47.734375 C 221.625 47.574219 221.574219 47.355469 221.40625 47.257812 Z M 221.40625 47.257812 " fill-opacity="1" fill-rule="nonzero"/><path fill="#f4a460" d="M 184.417969 219.21875 L 176.917969 194.675781 C 174.800781 187.738281 168.957031 182.726562 161.980469 181.546875 C 161.15625 160.117188 154.910156 139.019531 143.996094 139.019531 C 133.042969 139.019531 126.800781 160.242188 126.003906 181.726562 C 119.65625 183.128906 114.351562 187.734375 112.179688 194.066406 L 103.785156 218.609375 C 99.574219 230.902344 108.703125 243.683594 121.695312 243.683594 L 166.300781 243.683594 C 179.035156 243.683594 188.132812 231.382812 184.417969 219.21875 Z M 144 143.90625 C 149.785156 143.90625 156.195312 159.574219 157.082031 181.273438 L 130.917969 181.273438 C 131.808594 159.574219 138.21875 143.90625 144 143.90625 Z M 144 143.90625 " fill-opacity="1" fill-rule="nonzero"/><path fill="#000000" d="M 169.890625 208.148438 L 122.238281 208.148438 C 120.316406 208.148438 118.515625 207.289062 117.316406 205.789062 C 116.105469 204.285156 115.652344 202.351562 116.0625 200.472656 L 117.921875 192.027344 C 117.964844 191.839844 118.152344 191.722656 118.339844 191.761719 C 118.53125 191.804688 118.648438 191.992188 118.605469 192.183594 L 116.75 200.625 C 116.378906 202.296875 116.785156 204.019531 117.859375 205.355469 C 118.933594 206.6875 120.527344 207.449219 122.238281 207.449219 L 169.890625 207.449219 C 170.085938 207.449219 170.242188 207.601562 170.242188 207.796875 C 170.242188 207.996094 170.082031 208.148438 169.890625 208.148438 Z M 125.90625 182.105469 L 130.136719 181.621094 C 130.328125 181.601562 130.464844 181.425781 130.445312 181.238281 C 130.425781 181.050781 130.257812 180.902344 130.0625 180.929688 L 125.828125 181.414062 C 125.640625 181.433594 125.5 181.609375 125.519531 181.796875 C 125.542969 181.972656 125.695312 182.105469 125.871094 182.105469 C 125.882812 182.105469 125.890625 182.105469 125.90625 182.105469 Z M 162.167969 181.53125 C 162.175781 181.335938 162.027344 181.175781 161.839844 181.160156 L 157.269531 180.921875 C 157.082031 180.910156 156.914062 181.0625 156.902344 181.25 C 156.894531 181.445312 157.039062 181.609375 157.230469 181.621094 L 161.796875 181.859375 C 161.804688 181.859375 161.8125 181.859375 161.816406 181.859375 C 162.007812 181.867188 162.160156 181.71875 162.167969 181.53125 Z M 171.007812 161.066406 C 171.183594 160.984375 171.253906 160.773438 171.164062 160.597656 C 155.886719 130.105469 173.929688 106.785156 174.109375 106.554688 C 174.230469 106.402344 174.207031 106.183594 174.054688 106.066406 C 173.90625 105.949219 173.683594 105.96875 173.566406 106.121094 C 173.378906 106.359375 155.058594 130.015625 170.542969 160.914062 C 170.605469 161.03125 170.722656 161.109375 170.855469 161.109375 C 170.90625 161.101562 170.960938 161.089844 171.007812 161.066406 Z M 237.742188 160.90625 C 253.21875 130.007812 234.902344 106.351562 234.71875 106.117188 C 234.601562 105.960938 234.378906 105.941406 234.230469 106.058594 C 234.078125 106.179688 234.054688 106.402344 234.175781 106.546875 C 234.355469 106.777344 252.398438 130.105469 237.121094 160.59375 C 237.039062 160.765625 237.109375 160.976562 237.277344 161.058594 C 237.324219 161.089844 237.378906 161.09375 237.429688 161.09375 C 237.5625 161.101562 237.6875 161.03125 237.742188 160.90625 Z M 237.742188 160.90625 " fill-opacity="1" fill-rule="nonzero"/><path fill="#bc8f8f" d="M 238.289062 162.011719 C 241.625 169.351562 257.011719 209.683594 242.367188 303.121094 C 242.226562 304.011719 241.535156 304.734375 240.648438 304.898438 C 237.574219 305.492188 230.125 306.484375 221.902344 304.265625 C 221.066406 304.035156 220.429688 303.335938 220.3125 302.476562 C 218.726562 290.996094 207.851562 211.75 207.851562 211.75 C 207.851562 211.738281 207.835938 211.730469 207.824219 211.730469 L 199.785156 211.640625 C 199.769531 211.640625 199.757812 211.652344 199.757812 211.667969 C 199.757812 211.667969 194.226562 290.828125 193.367188 302.980469 C 193.296875 303.929688 192.617188 304.710938 191.691406 304.921875 C 188.28125 305.691406 179.984375 307.09375 172.699219 304.300781 C 172.058594 304.054688 171.5625 303.53125 171.371094 302.859375 C 168.796875 293.65625 150.195312 222.917969 169.410156 162.246094 C 169.6875 161.355469 170.527344 160.753906 171.464844 160.753906 L 236.332031 160.753906 C 237.179688 160.753906 237.9375 161.242188 238.289062 162.011719 Z M 238.289062 162.011719 " fill-opacity="1" fill-rule="nonzero"/><path fill="#f7d2ba" d="M 126.6875 141.582031 C 126.714844 140.199219 126.8125 138.765625 126.972656 137.292969 C 126.972656 137.238281 126.980469 137.179688 126.988281 137.125 C 125.527344 133.578125 122.203125 123.882812 128.363281 121.496094 C 128.363281 121.496094 127.113281 116.683594 131.039062 115.167969 C 131.039062 115.167969 130.5 110.082031 135.320312 110.621094 C 135.320312 110.621094 134.34375 106.96875 138.085938 106.339844 C 141.828125 105.710938 149.050781 111.6875 149.050781 114.453125 C 149.050781 117.21875 147.980469 120.609375 147.980469 120.609375 C 147.980469 120.609375 150.566406 120.542969 150.75 125.433594 C 150.929688 130.324219 145.53125 132.605469 143.902344 131.550781 C 143.902344 131.550781 142.960938 134.414062 141.347656 137.230469 C 141.375 137.265625 141.394531 137.292969 141.425781 137.328125 C 142.09375 138.1875 142.808594 139.121094 143.539062 140.128906 C 148.707031 147.195312 154.75 157.457031 155.191406 167.234375 C 155.847656 181.761719 125.878906 173.386719 126.6875 141.582031 Z M 126.6875 141.582031 " fill-opacity="1" fill-rule="nonzero"/><path fill="#000000" d="M 207.851562 212.101562 C 207.699219 212.101562 207.558594 211.996094 207.515625 211.84375 C 207.46875 211.652344 207.578125 211.464844 207.765625 211.417969 L 232.785156 204.84375 C 232.972656 204.796875 233.160156 204.90625 233.210938 205.097656 C 233.257812 205.285156 233.148438 205.472656 232.960938 205.523438 L 207.941406 212.09375 C 207.90625 212.101562 207.878906 212.101562 207.851562 212.101562 Z M 200.121094 211.71875 C 200.160156 211.527344 200.042969 211.339844 199.855469 211.296875 L 178.488281 206.507812 C 178.300781 206.472656 178.113281 206.582031 178.070312 206.773438 C 178.027344 206.960938 178.148438 207.148438 178.335938 207.191406 L 199.699219 211.980469 C 199.726562 211.988281 199.75 211.988281 199.777344 211.988281 C 199.9375 211.988281 200.085938 211.878906 200.121094 211.71875 Z M 193.777344 298.285156 C 193.964844 298.25 194.09375 298.070312 194.058594 297.882812 C 194.023438 297.691406 193.832031 297.566406 193.652344 297.601562 C 181.996094 299.796875 170.632812 297.621094 170.519531 297.601562 C 170.332031 297.558594 170.148438 297.6875 170.109375 297.875 C 170.074219 298.0625 170.191406 298.246094 170.386719 298.285156 C 170.464844 298.300781 175.570312 299.277344 182.449219 299.277344 C 185.914062 299.269531 189.832031 299.027344 193.777344 298.285156 Z M 242.988281 298.285156 C 243.175781 298.25 243.304688 298.070312 243.269531 297.882812 C 243.234375 297.691406 243.042969 297.566406 242.863281 297.601562 C 231.207031 299.796875 219.84375 297.621094 219.730469 297.601562 C 219.542969 297.558594 219.359375 297.6875 219.320312 297.875 C 219.285156 298.0625 219.402344 298.246094 219.589844 298.285156 C 219.667969 298.300781 224.773438 299.277344 231.652344 299.277344 C 235.117188 299.269531 239.035156 299.027344 242.988281 298.285156 Z M 148.261719 120.390625 C 148.144531 120.238281 147.925781 120.203125 147.773438 120.320312 C 147.746094 120.34375 146.695312 121.136719 145.601562 122.535156 C 145.488281 114.515625 138.769531 112.148438 138.699219 112.128906 C 138.519531 112.066406 138.324219 112.164062 138.261719 112.34375 C 138.199219 112.527344 138.296875 112.722656 138.476562 112.785156 C 138.757812 112.882812 145.347656 115.222656 144.886719 123.539062 C 144.253906 124.527344 143.6875 125.707031 143.386719 127.046875 C 142.6875 127.605469 142.058594 127.84375 141.570312 127.71875 C 140.957031 127.5625 140.683594 126.898438 140.683594 126.894531 C 140.664062 126.835938 140.628906 126.796875 140.585938 126.761719 C 140.851562 123.386719 140.1875 120.746094 138.59375 118.917969 C 136.417969 116.425781 133.355469 116.367188 133.246094 116.390625 C 133.058594 116.390625 132.894531 116.542969 132.894531 116.738281 C 132.894531 116.933594 133.050781 117.085938 133.246094 117.085938 C 133.273438 117.085938 136.125 117.144531 138.078125 119.386719 C 139.699219 121.242188 140.273438 124.050781 139.796875 127.730469 C 139.777344 127.871094 139.320312 130.902344 136.527344 131.175781 C 136.695312 130.59375 136.773438 129.925781 136.75 129.140625 C 136.570312 123.289062 130.292969 121.957031 130.226562 121.949219 C 130.039062 121.90625 129.859375 122.03125 129.816406 122.222656 C 129.78125 122.410156 129.898438 122.589844 130.089844 122.632812 C 130.144531 122.648438 135.886719 123.855469 136.054688 129.164062 C 136.109375 130.824219 135.675781 131.949219 134.78125 132.496094 C 133.226562 133.453125 130.445312 132.566406 128.546875 131.515625 C 128.378906 131.425781 128.160156 131.488281 128.070312 131.65625 C 127.980469 131.824219 128.042969 132.039062 128.210938 132.132812 C 129.675781 132.933594 131.507812 133.597656 133.097656 133.597656 C 133.859375 133.597656 134.566406 133.445312 135.152344 133.089844 C 135.621094 132.800781 135.984375 132.390625 136.25 131.878906 C 139.902344 131.796875 140.488281 127.886719 140.496094 127.816406 C 140.710938 128.046875 141.003906 128.277344 141.402344 128.382812 C 141.550781 128.421875 141.703125 128.4375 141.863281 128.4375 C 142.296875 128.4375 142.757812 128.285156 143.238281 127.996094 C 143.113281 129.121094 143.183594 130.34375 143.574219 131.644531 C 143.617188 131.796875 143.757812 131.894531 143.910156 131.894531 C 143.945312 131.894531 143.980469 131.886719 144.007812 131.878906 C 144.191406 131.824219 144.292969 131.628906 144.238281 131.445312 C 142.394531 125.300781 148.136719 120.921875 148.191406 120.878906 C 148.34375 120.761719 148.378906 120.542969 148.261719 120.390625 Z M 127.53125 127.507812 C 127.394531 127.375 127.386719 127.152344 127.527344 127.011719 C 127.664062 126.871094 127.882812 126.867188 128.019531 127.003906 C 128.042969 127.027344 130.296875 129.171875 132.910156 130.265625 C 133.085938 130.34375 133.175781 130.546875 133.097656 130.722656 C 133.042969 130.851562 132.910156 130.9375 132.777344 130.9375 C 132.734375 130.9375 132.6875 130.929688 132.644531 130.910156 C 129.898438 129.765625 127.625 127.597656 127.53125 127.507812 Z M 141.417969 137.328125 C 142.085938 138.1875 142.800781 139.121094 143.535156 140.128906 C 140.746094 142.78125 137.730469 144.144531 134.523438 144.179688 C 134.246094 144.1875 133.972656 144.179688 133.699219 144.160156 C 130.78125 143.984375 128.34375 142.734375 126.6875 141.582031 C 126.714844 140.199219 126.8125 138.765625 126.972656 137.292969 C 127.414062 137.746094 130.527344 140.742188 134.511719 140.6875 C 136.890625 140.652344 139.203125 139.519531 141.417969 137.328125 Z M 141.417969 137.328125 " fill-opacity="1" fill-rule="nonzero"/></svg>