<svg xmlns="http://www.w3.org/2000/svg" xmlns:xlink="http://www.w3.org/1999/xlink" width="500" zoomAndPan="magnify" viewBox="0 0 375 374.999991" height="500" preserveAspectRatio="xMidYMid meet" version="1.0"><defs><g/></defs><path stroke-linecap="butt" transform="matrix(0.75, 0, 0, 0.75, -48.033124, 36.519896)" fill="none" stroke-linejoin="miter" d="M 279.804601 99.49952 L 279.804601 301.999533 L 230.497306 301.999533 L 230.497306 218.603694 L 153.726468 218.603694 L 153.726468 301.999533 L 104.419173 301.999533 L 104.419173 99.49952 L 153.726468 99.49952 L 153.726468 178.812025 L 230.497306 178.812025 L 230.497306 99.49952 Z M 279.804601 99.49952 " stroke="#7e3c47" stroke-width="11.900625" stroke-opacity="1" stroke-miterlimit="4"/><path stroke-linecap="butt" transform="matrix(0.75, 0, 0, 0.75, -48.033124, 36.519896)" fill="none" stroke-linejoin="miter" d="M 306.085853 99.49952 L 306.085853 220.650569 C 306.085853 232.765153 309.065019 242.108904 315.028561 248.681821 C 320.992104 255.207863 329.747312 258.473488 341.299397 258.473488 C 352.851481 258.473488 361.705648 255.207863 367.85669 248.681821 C 374.007732 242.108904 377.080649 232.765153 377.080649 220.650569 L 377.080649 99.49952 L 426.387944 99.49952 L 426.387944 220.364111 C 426.387944 238.442237 422.533777 253.728696 414.83586 266.218281 C 407.132734 278.707865 396.778567 288.145365 383.773358 294.535991 C 370.815023 300.874533 356.372314 304.0412 340.455646 304.0412 C 324.492104 304.0412 310.190019 300.921408 297.55981 294.676616 C 284.976476 288.384949 275.023351 278.94224 267.695225 266.358906 C 260.419183 253.775571 256.778558 238.442237 256.778558 220.364111 L 256.778558 99.49952 Z M 306.085853 99.49952 " stroke="#7e3c47" stroke-width="11.900625" stroke-opacity="1" stroke-miterlimit="4"/><path stroke-linecap="butt" transform="matrix(0.75, 0, 0, 0.75, -48.033124, 36.519896)" fill="none" stroke-linejoin="miter" d="M 452.632737 139.015147 L 452.632737 179.937025 L 518.70045 179.937025 L 518.70045 218.041194 L 452.632737 218.041194 L 452.632737 262.483905 L 527.361909 262.483905 L 527.361909 301.999533 L 403.325442 301.999533 L 403.325442 99.49952 L 527.361909 99.49952 L 527.361909 139.015147 Z M 452.632737 139.015147 " stroke="#7e3c47" stroke-width="11.900625" stroke-opacity="1" stroke-miterlimit="4"/><g fill="#fbb9c5" fill-opacity="1"><g transform="translate(16.865309, 263.019882)"><g><path d="M 144.96875 -151.890625 L 144.96875 0 L 107.96875 0 L 107.96875 -62.53125 L 50.421875 -62.53125 L 50.421875 0 L 13.421875 0 L 13.421875 -151.890625 L 50.421875 -151.890625 L 50.421875 -92.390625 L 107.96875 -92.390625 L 107.96875 -151.890625 Z M 144.96875 -151.890625 "/></g></g></g><g fill="#f9efc7" fill-opacity="1"><g transform="translate(131.767649, 263.019882)"><g><path d="M 49.765625 -151.890625 L 49.765625 -61.015625 C 49.765625 -51.929688 52 -44.9375 56.46875 -40.03125 C 60.945312 -35.125 67.507812 -32.671875 76.15625 -32.671875 C 84.8125 -32.671875 91.445312 -35.125 96.0625 -40.03125 C 100.6875 -44.9375 103 -51.929688 103 -61.015625 L 103 -151.890625 L 140 -151.890625 L 140 -61.234375 C 140 -47.671875 137.113281 -36.203125 131.34375 -26.828125 C 125.570312 -17.453125 117.816406 -10.382812 108.078125 -5.625 C 98.335938 -0.863281 87.484375 1.515625 75.515625 1.515625 C 63.546875 1.515625 52.832031 -0.828125 43.375 -5.515625 C 33.925781 -10.203125 26.460938 -17.269531 20.984375 -26.71875 C 15.503906 -36.164062 12.765625 -47.671875 12.765625 -61.234375 L 12.765625 -151.890625 Z M 49.765625 -151.890625 "/></g></g></g><g fill="#b8dfe6" fill-opacity="1"><g transform="translate(241.044982, 263.019882)"><g><path d="M 50.421875 -122.25 L 50.421875 -91.53125 L 99.96875 -91.53125 L 99.96875 -62.96875 L 50.421875 -62.96875 L 50.421875 -29.640625 L 106.453125 -29.640625 L 106.453125 0 L 13.421875 0 L 13.421875 -151.890625 L 106.453125 -151.890625 L 106.453125 -122.25 Z M 50.421875 -122.25 "/></g></g></g></svg>