<svg xmlns="http://www.w3.org/2000/svg" xmlns:xlink="http://www.w3.org/1999/xlink" width="500" zoomAndPan="magnify" viewBox="0 0 375 374.999991" height="500" preserveAspectRatio="xMidYMid meet" version="1.0"><defs><clipPath id="05b841af88"><path d="M 210 257 L 269.984375 257 L 269.984375 329 L 210 329 Z M 210 257 " clip-rule="nonzero"/></clipPath></defs><path fill="#dda98c" d="M 160.109375 117.625 C 160.109375 117.625 161.304688 118.222656 163.164062 118.355469 C 166.21875 118.621094 170.867188 117.824219 174.121094 111.320312 C 179.367188 100.894531 189.523438 91.269531 201.609375 95.382812 C 213.691406 99.5 208.179688 127.785156 220 129.710938 C 231.816406 131.636719 238.390625 129.710938 244.167969 106.671875 C 249.945312 83.632812 274.90625 84.695312 288.386719 94.453125 C 301.863281 104.214844 295.558594 128.382812 283.738281 136.617188 C 271.921875 144.847656 266.078125 173.199219 287.523438 167.953125 C 311.160156 162.179688 320.386719 174.460938 309.699219 197.832031 C 292.4375 235.742188 322.84375 214.5625 323.972656 233.550781 C 324.769531 247.296875 302.128906 248.957031 297.347656 254.402344 C 289.316406 263.496094 297.214844 274.851562 299.9375 276.910156 C 304.320312 280.226562 314.746094 288.460938 325.765625 290.917969 C 336.722656 293.375 339.777344 317.277344 327.957031 325.242188 C 316.140625 333.210938 299.40625 337.0625 291.175781 310.703125 C 282.941406 284.34375 258.773438 289.257812 250.804688 301.671875 C 242.839844 314.023438 227.765625 339.585938 213.757812 337.660156 C 199.75 335.734375 192.644531 331.351562 182.152344 317.875 C 171.664062 304.394531 147.894531 330.289062 133.820312 326.105469 C 122.265625 322.65625 119.542969 318.40625 119.808594 300.808594 C 120.074219 283.214844 94.644531 303.332031 85.949219 290.320312 C 78.710938 279.5625 93.449219 268.210938 90.992188 262.632812 C 85.484375 250.351562 66.03125 259.378906 49.230469 264.425781 C 15.503906 274.585938 16.433594 227.445312 45.910156 231.429688 C 68.285156 234.414062 92.1875 237.070312 83.625 218.148438 C 73.664062 196.238281 79.773438 187.671875 86.347656 178.910156 C 92.917969 170.144531 84.15625 158.328125 74.261719 146.507812 C 64.371094 134.691406 72.335938 122.871094 85.550781 125.660156 C 98.761719 128.449219 113.632812 147.238281 128.175781 134.027344 C 128.042969 133.960938 133.753906 106.539062 160.109375 117.625 Z M 160.109375 117.625 " fill-opacity="1" fill-rule="nonzero"/><path fill="#dda98c" d="M 230.554688 78.1875 C 230.554688 78.824219 230.492188 79.457031 230.371094 80.078125 C 230.246094 80.703125 230.0625 81.308594 229.816406 81.898438 C 229.574219 82.484375 229.277344 83.042969 228.921875 83.574219 C 228.570312 84.101562 228.167969 84.59375 227.71875 85.042969 C 227.265625 85.492188 226.777344 85.894531 226.246094 86.25 C 225.71875 86.601562 225.160156 86.902344 224.570312 87.144531 C 223.984375 87.386719 223.378906 87.570312 222.753906 87.695312 C 222.128906 87.820312 221.5 87.882812 220.863281 87.882812 C 220.226562 87.882812 219.59375 87.820312 218.972656 87.695312 C 218.347656 87.570312 217.742188 87.386719 217.152344 87.144531 C 216.566406 86.902344 216.007812 86.601562 215.476562 86.25 C 214.949219 85.894531 214.457031 85.492188 214.007812 85.042969 C 213.558594 84.59375 213.15625 84.101562 212.800781 83.574219 C 212.449219 83.042969 212.148438 82.484375 211.90625 81.898438 C 211.664062 81.308594 211.480469 80.703125 211.355469 80.078125 C 211.230469 79.457031 211.167969 78.824219 211.167969 78.1875 C 211.167969 77.550781 211.230469 76.921875 211.355469 76.296875 C 211.480469 75.671875 211.664062 75.066406 211.90625 74.480469 C 212.148438 73.890625 212.449219 73.332031 212.800781 72.800781 C 213.15625 72.273438 213.558594 71.785156 214.007812 71.332031 C 214.457031 70.882812 214.949219 70.480469 215.476562 70.128906 C 216.007812 69.773438 216.566406 69.476562 217.152344 69.234375 C 217.742188 68.988281 218.347656 68.804688 218.972656 68.679688 C 219.59375 68.558594 220.226562 68.496094 220.863281 68.496094 C 221.5 68.496094 222.128906 68.558594 222.753906 68.679688 C 223.378906 68.804688 223.984375 68.988281 224.570312 69.234375 C 225.160156 69.476562 225.71875 69.773438 226.246094 70.128906 C 226.777344 70.480469 227.265625 70.882812 227.71875 71.332031 C 228.167969 71.785156 228.570312 72.273438 228.921875 72.800781 C 229.277344 73.332031 229.574219 73.890625 229.816406 74.480469 C 230.0625 75.066406 230.246094 75.671875 230.371094 76.296875 C 230.492188 76.921875 230.554688 77.550781 230.554688 78.1875 Z M 230.554688 78.1875 " fill-opacity="1" fill-rule="nonzero"/><path fill="#dda98c" d="M 175.582031 331.550781 C 175.582031 331.953125 175.542969 332.347656 175.464844 332.742188 C 175.386719 333.136719 175.269531 333.519531 175.117188 333.890625 C 174.960938 334.257812 174.773438 334.613281 174.550781 334.945312 C 174.328125 335.277344 174.074219 335.585938 173.792969 335.871094 C 173.507812 336.152344 173.199219 336.40625 172.867188 336.628906 C 172.53125 336.851562 172.179688 337.042969 171.808594 337.195312 C 171.441406 337.347656 171.058594 337.464844 170.664062 337.542969 C 170.269531 337.621094 169.875 337.660156 169.472656 337.660156 C 169.070312 337.660156 168.675781 337.621094 168.28125 337.542969 C 167.886719 337.464844 167.503906 337.347656 167.136719 337.195312 C 166.765625 337.042969 166.414062 336.851562 166.078125 336.628906 C 165.746094 336.40625 165.4375 336.152344 165.152344 335.871094 C 164.871094 335.585938 164.617188 335.277344 164.394531 334.945312 C 164.171875 334.613281 163.984375 334.257812 163.828125 333.890625 C 163.675781 333.519531 163.558594 333.136719 163.480469 332.742188 C 163.402344 332.347656 163.363281 331.953125 163.363281 331.550781 C 163.363281 331.148438 163.402344 330.753906 163.480469 330.359375 C 163.558594 329.964844 163.675781 329.585938 163.828125 329.214844 C 163.984375 328.84375 164.171875 328.492188 164.394531 328.15625 C 164.617188 327.824219 164.871094 327.515625 165.152344 327.230469 C 165.4375 326.949219 165.746094 326.695312 166.078125 326.472656 C 166.414062 326.25 166.765625 326.0625 167.136719 325.90625 C 167.503906 325.753906 167.886719 325.636719 168.28125 325.558594 C 168.675781 325.480469 169.070312 325.441406 169.472656 325.441406 C 169.875 325.441406 170.269531 325.480469 170.664062 325.558594 C 171.058594 325.636719 171.441406 325.753906 171.808594 325.90625 C 172.179688 326.0625 172.53125 326.25 172.867188 326.472656 C 173.199219 326.695312 173.507812 326.949219 173.792969 327.230469 C 174.074219 327.515625 174.328125 327.824219 174.550781 328.15625 C 174.773438 328.492188 174.960938 328.84375 175.117188 329.214844 C 175.269531 329.585938 175.386719 329.964844 175.464844 330.359375 C 175.542969 330.753906 175.582031 331.148438 175.582031 331.550781 Z M 175.582031 331.550781 " fill-opacity="1" fill-rule="nonzero"/><path fill="#dda98c" d="M 282.957031 331.863281 C 283.117188 332.285156 283.25 332.710938 283.351562 333.140625 C 283.453125 333.574219 283.523438 334.003906 283.5625 334.433594 C 283.605469 334.863281 283.613281 335.28125 283.585938 335.691406 C 283.5625 336.101562 283.507812 336.492188 283.417969 336.867188 C 283.332031 337.242188 283.214844 337.589844 283.066406 337.914062 C 282.917969 338.238281 282.746094 338.53125 282.542969 338.792969 C 282.34375 339.054688 282.117188 339.277344 281.871094 339.46875 C 281.621094 339.65625 281.355469 339.804688 281.070312 339.914062 C 280.785156 340.023438 280.488281 340.09375 280.175781 340.117188 C 279.867188 340.144531 279.546875 340.125 279.222656 340.066406 C 278.898438 340.007812 278.574219 339.90625 278.246094 339.765625 C 277.917969 339.625 277.597656 339.441406 277.285156 339.222656 C 276.96875 339.003906 276.664062 338.75 276.371094 338.464844 C 276.082031 338.175781 275.804688 337.859375 275.546875 337.515625 C 275.289062 337.167969 275.054688 336.800781 274.839844 336.410156 C 274.628906 336.023438 274.441406 335.617188 274.277344 335.199219 C 274.117188 334.777344 273.988281 334.351562 273.882812 333.921875 C 273.78125 333.488281 273.710938 333.058594 273.671875 332.628906 C 273.632812 332.199219 273.625 331.78125 273.648438 331.371094 C 273.671875 330.960938 273.726562 330.570312 273.816406 330.195312 C 273.902344 329.820312 274.019531 329.472656 274.167969 329.148438 C 274.316406 328.824219 274.488281 328.53125 274.691406 328.269531 C 274.894531 328.007812 275.117188 327.785156 275.367188 327.59375 C 275.613281 327.40625 275.878906 327.257812 276.164062 327.148438 C 276.449219 327.039062 276.75 326.96875 277.058594 326.945312 C 277.371094 326.917969 277.6875 326.9375 278.011719 326.996094 C 278.335938 327.054688 278.664062 327.15625 278.988281 327.296875 C 279.316406 327.4375 279.636719 327.621094 279.953125 327.839844 C 280.265625 328.058594 280.570312 328.3125 280.863281 328.597656 C 281.15625 328.886719 281.429688 329.203125 281.6875 329.546875 C 281.945312 329.894531 282.179688 330.261719 282.394531 330.652344 C 282.609375 331.042969 282.796875 331.445312 282.957031 331.863281 Z M 282.957031 331.863281 " fill-opacity="1" fill-rule="nonzero"/><path fill="#dda98c" d="M 351.925781 197.789062 C 352.421875 198.332031 352.878906 198.902344 353.296875 199.5 C 353.714844 200.097656 354.082031 200.714844 354.398438 201.347656 C 354.714844 201.980469 354.980469 202.617188 355.1875 203.257812 C 355.394531 203.898438 355.542969 204.53125 355.632812 205.15625 C 355.722656 205.78125 355.75 206.386719 355.71875 206.972656 C 355.683594 207.558594 355.589844 208.113281 355.4375 208.636719 C 355.285156 209.164062 355.074219 209.644531 354.804688 210.085938 C 354.539062 210.527344 354.21875 210.917969 353.847656 211.261719 C 353.472656 211.605469 353.054688 211.890625 352.59375 212.121094 C 352.132812 212.347656 351.632812 212.519531 351.097656 212.628906 C 350.5625 212.734375 350.003906 212.78125 349.414062 212.765625 C 348.828125 212.746094 348.226562 212.667969 347.613281 212.527344 C 346.996094 212.386719 346.378906 212.183594 345.757812 211.921875 C 345.136719 211.660156 344.523438 211.347656 343.917969 210.976562 C 343.316406 210.605469 342.734375 210.1875 342.171875 209.722656 C 341.609375 209.257812 341.082031 208.753906 340.582031 208.210938 C 340.085938 207.667969 339.625 207.097656 339.210938 206.5 C 338.792969 205.898438 338.425781 205.285156 338.109375 204.652344 C 337.789062 204.019531 337.527344 203.382812 337.320312 202.742188 C 337.113281 202.101562 336.964844 201.46875 336.875 200.84375 C 336.785156 200.214844 336.757812 199.609375 336.789062 199.023438 C 336.824219 198.4375 336.914062 197.882812 337.070312 197.359375 C 337.222656 196.835938 337.433594 196.355469 337.699219 195.914062 C 337.96875 195.472656 338.289062 195.078125 338.660156 194.738281 C 339.035156 194.394531 339.453125 194.109375 339.914062 193.878906 C 340.375 193.648438 340.875 193.480469 341.410156 193.371094 C 341.945312 193.261719 342.503906 193.21875 343.089844 193.234375 C 343.679688 193.25 344.28125 193.332031 344.894531 193.472656 C 345.511719 193.613281 346.128906 193.816406 346.75 194.078125 C 347.371094 194.335938 347.984375 194.652344 348.585938 195.023438 C 349.191406 195.394531 349.773438 195.8125 350.335938 196.277344 C 350.894531 196.742188 351.425781 197.246094 351.925781 197.789062 Z M 351.925781 197.789062 " fill-opacity="1" fill-rule="nonzero"/><path fill="#dda98c" d="M 96.304688 332.8125 C 93.117188 337.328125 87.675781 338.988281 84.222656 336.53125 C 80.769531 334.074219 80.503906 328.429688 83.757812 323.847656 C 86.945312 319.335938 96.238281 313.625 99.691406 316.082031 C 103.144531 318.605469 99.558594 328.296875 96.304688 332.8125 Z M 96.304688 332.8125 " fill-opacity="1" fill-rule="nonzero"/><path fill="#dda98c" d="M 33.628906 177.316406 C 27.054688 173.996094 24 166.691406 26.855469 160.984375 C 29.710938 155.273438 37.414062 153.347656 43.984375 156.667969 C 50.558594 159.988281 59.65625 171.671875 56.800781 177.382812 C 53.945312 183.09375 40.203125 180.636719 33.628906 177.316406 Z M 33.628906 177.316406 " fill-opacity="1" fill-rule="nonzero"/><path fill="#dda98c" d="M 154.667969 61.855469 C 156.59375 66.835938 156.128906 77.523438 151.148438 79.449219 C 146.167969 81.375 138.597656 73.804688 136.671875 68.828125 C 134.75 63.847656 137.203125 58.269531 142.183594 56.34375 C 147.164062 54.417969 152.742188 56.875 154.667969 61.855469 Z M 154.667969 61.855469 " fill-opacity="1" fill-rule="nonzero"/><path fill="#d2691e" d="M 187.324219 312.964844 C 189.613281 324.882812 190.078125 332.449219 182.738281 334.507812 C 175.40625 336.570312 173.339844 340.925781 167.835938 344.824219 C 162.335938 348.722656 143.308594 353.078125 138.960938 344.824219 C 134.609375 336.570312 162.734375 314.585938 162.734375 314.585938 C 166.941406 311.125 185.035156 301.046875 187.324219 312.964844 Z M 199.945312 312.675781 C 197.65625 324.589844 197.191406 332.160156 204.53125 334.21875 C 211.863281 336.28125 213.929688 340.636719 219.433594 344.535156 C 224.933594 348.433594 243.960938 352.789062 248.308594 344.535156 C 252.664062 336.28125 224.535156 314.296875 224.535156 314.296875 C 220.320312 310.828125 202.234375 300.75 199.945312 312.675781 Z M 199.945312 312.675781 " fill-opacity="1" fill-rule="nonzero"/><path fill="#000000" d="M 237.375 344.617188 C 227.472656 344.617188 221.335938 340.164062 216.152344 336.40625 C 213.417969 334.421875 211.050781 332.710938 208.523438 331.898438 C 201.851562 329.75 198.359375 325.535156 198.210938 325.351562 C 198.09375 325.210938 198.117188 324.996094 198.257812 324.882812 C 198.398438 324.765625 198.613281 324.785156 198.726562 324.929688 C 198.761719 324.96875 202.257812 329.171875 208.726562 331.257812 C 211.359375 332.105469 213.878906 333.929688 216.542969 335.863281 C 223.371094 340.8125 231.875 346.972656 248.664062 342.230469 C 248.847656 342.183594 249.03125 342.285156 249.082031 342.46875 C 249.136719 342.648438 249.03125 342.832031 248.847656 342.886719 C 244.519531 344.105469 240.734375 344.617188 237.375 344.617188 Z M 223.222656 324.566406 C 225.355469 323.386719 229.492188 321.488281 233.179688 322.046875 C 233.363281 322.074219 233.539062 321.945312 233.5625 321.765625 C 233.589844 321.582031 233.464844 321.40625 233.28125 321.378906 C 229.394531 320.792969 225.109375 322.753906 222.890625 323.972656 C 222.136719 324.390625 221.175781 324.253906 220.554688 323.640625 L 220.402344 323.496094 C 219.957031 323.054688 219.75 322.457031 219.820312 321.839844 C 219.890625 321.230469 220.234375 320.699219 220.75 320.390625 C 225.375 317.589844 228.519531 317.964844 228.546875 317.972656 C 228.738281 318 228.90625 317.867188 228.925781 317.683594 C 228.953125 317.5 228.824219 317.332031 228.636719 317.308594 C 228.5 317.285156 225.242188 316.875 220.394531 319.816406 C 219.699219 320.242188 219.242188 320.949219 219.148438 321.765625 C 219.054688 322.59375 219.335938 323.394531 219.929688 323.980469 L 220.085938 324.128906 C 220.597656 324.632812 221.277344 324.886719 221.957031 324.886719 C 222.394531 324.886719 222.832031 324.78125 223.222656 324.566406 Z M 230.199219 331.304688 C 232.332031 330.125 236.460938 328.226562 240.15625 328.785156 C 240.335938 328.8125 240.511719 328.683594 240.539062 328.503906 C 240.566406 328.320312 240.4375 328.148438 240.257812 328.121094 C 236.371094 327.535156 232.082031 329.492188 229.867188 330.710938 C 229.113281 331.128906 228.152344 330.996094 227.53125 330.382812 L 227.375 330.226562 C 226.933594 329.789062 226.722656 329.191406 226.796875 328.570312 C 226.863281 327.964844 227.207031 327.433594 227.726562 327.125 C 232.351562 324.324219 235.496094 324.699219 235.523438 324.707031 C 235.710938 324.726562 235.878906 324.597656 235.898438 324.417969 C 235.925781 324.234375 235.800781 324.066406 235.609375 324.039062 C 235.476562 324.019531 232.21875 323.609375 227.371094 326.550781 C 226.675781 326.976562 226.21875 327.683594 226.125 328.496094 C 226.03125 329.324219 226.3125 330.125 226.90625 330.710938 L 227.058594 330.867188 C 227.570312 331.371094 228.25 331.628906 228.933594 331.628906 C 229.371094 331.628906 229.800781 331.527344 230.199219 331.304688 Z M 171.117188 336.703125 C 173.851562 334.71875 176.21875 333.007812 178.746094 332.191406 C 185.417969 330.046875 188.910156 325.832031 189.058594 325.648438 C 189.175781 325.507812 189.152344 325.292969 189.011719 325.175781 C 188.863281 325.054688 188.65625 325.082031 188.542969 325.222656 C 188.507812 325.265625 185.011719 329.464844 178.542969 331.554688 C 175.910156 332.402344 173.390625 334.226562 170.726562 336.160156 C 163.898438 341.109375 155.394531 347.269531 138.601562 342.527344 C 138.421875 342.480469 138.238281 342.582031 138.1875 342.765625 C 138.136719 342.945312 138.238281 343.128906 138.421875 343.179688 C 142.757812 344.40625 146.542969 344.910156 149.902344 344.910156 C 159.792969 344.910156 165.933594 340.46875 171.117188 336.703125 Z M 167.183594 324.417969 L 167.339844 324.261719 C 167.933594 323.683594 168.214844 322.875 168.121094 322.046875 C 168.027344 321.230469 167.574219 320.523438 166.875 320.101562 C 162.027344 317.160156 158.769531 317.570312 158.632812 317.589844 C 158.453125 317.617188 158.324219 317.785156 158.34375 317.964844 C 158.363281 318.148438 158.539062 318.28125 158.722656 318.257812 C 158.753906 318.257812 161.898438 317.871094 166.523438 320.671875 C 167.042969 320.988281 167.378906 321.515625 167.445312 322.121094 C 167.519531 322.738281 167.304688 323.339844 166.859375 323.777344 L 166.707031 323.933594 C 166.085938 324.542969 165.125 324.679688 164.371094 324.261719 C 162.160156 323.042969 157.871094 321.078125 153.980469 321.667969 C 153.800781 321.695312 153.671875 321.871094 153.699219 322.054688 C 153.726562 322.234375 153.894531 322.363281 154.082031 322.335938 C 157.773438 321.777344 161.90625 323.667969 164.039062 324.855469 C 164.429688 325.070312 164.867188 325.175781 165.304688 325.175781 C 165.992188 325.175781 166.671875 324.914062 167.183594 324.417969 Z M 160.210938 331.164062 L 160.363281 331.007812 C 160.957031 330.429688 161.238281 329.621094 161.144531 328.792969 C 161.050781 327.976562 160.597656 327.269531 159.898438 326.847656 C 155.050781 323.90625 151.800781 324.316406 151.660156 324.335938 C 151.476562 324.363281 151.347656 324.53125 151.367188 324.710938 C 151.390625 324.894531 151.5625 325.027344 151.746094 325.003906 C 151.78125 325.003906 154.921875 324.617188 159.542969 327.417969 C 160.0625 327.734375 160.398438 328.261719 160.464844 328.867188 C 160.539062 329.488281 160.324219 330.085938 159.886719 330.523438 L 159.730469 330.679688 C 159.113281 331.289062 158.148438 331.425781 157.394531 331.007812 C 155.1875 329.789062 150.898438 327.824219 147.007812 328.414062 C 146.824219 328.441406 146.695312 328.617188 146.722656 328.800781 C 146.75 328.980469 146.925781 329.109375 147.105469 329.082031 C 150.796875 328.523438 154.929688 330.414062 157.066406 331.601562 C 157.457031 331.816406 157.894531 331.921875 158.332031 331.921875 C 159.015625 331.921875 159.699219 331.660156 160.210938 331.164062 Z M 160.210938 331.164062 " fill-opacity="1" fill-rule="nonzero"/><path fill="#000000" d="M 226.339844 301.140625 L 225.539062 312.316406 C 225.472656 313.273438 224.980469 314.15625 224.179688 314.679688 C 222.460938 315.8125 218.71875 317.414062 211.320312 317.414062 C 203.671875 317.414062 199.386719 315.40625 197.386719 314.082031 C 196.507812 313.496094 195.972656 312.519531 195.972656 311.460938 L 195.972656 299.585938 C 195.972656 298.023438 197.097656 296.785156 198.511719 296.515625 L 195.753906 206.933594 C 194.167969 205.828125 192.0625 205.828125 190.480469 206.933594 L 187.714844 296.664062 C 188.871094 297.101562 189.734375 298.21875 189.734375 299.585938 L 189.734375 311.460938 C 189.734375 312.519531 189.199219 313.496094 188.320312 314.082031 C 186.324219 315.40625 182.039062 317.414062 174.386719 317.414062 C 166.988281 317.414062 163.253906 315.8125 161.527344 314.679688 C 160.726562 314.15625 160.234375 313.273438 160.167969 312.316406 L 159.367188 301.140625 C 159.246094 299.417969 160.527344 297.984375 162.128906 297.808594 C 158.101562 252.214844 152.195312 192.269531 152.195312 192.269531 L 165.257812 162.011719 L 220.953125 162.011719 L 234.015625 192.269531 C 234.015625 192.269531 228.105469 252.292969 224.078125 297.902344 C 225.445312 298.292969 226.449219 299.605469 226.339844 301.140625 Z M 226.339844 301.140625 " fill-opacity="1" fill-rule="nonzero"/><path fill="#d2691e" d="M 173.679688 299.597656 C 170.28125 299.597656 166.371094 299.207031 162.046875 298.132812 C 161.867188 298.085938 161.757812 297.902344 161.804688 297.71875 C 161.851562 297.539062 162.035156 297.429688 162.214844 297.476562 C 177.445312 301.28125 187.464844 296.414062 187.566406 296.359375 C 187.734375 296.28125 187.933594 296.347656 188.015625 296.507812 C 188.097656 296.675781 188.03125 296.878906 187.867188 296.960938 C 187.785156 297 182.453125 299.597656 173.679688 299.597656 Z M 224.035156 298.132812 C 224.21875 298.085938 224.328125 297.902344 224.28125 297.71875 C 224.230469 297.539062 224.050781 297.429688 223.867188 297.476562 C 208.640625 301.28125 198.621094 296.414062 198.519531 296.359375 C 198.351562 296.28125 198.148438 296.347656 198.066406 296.507812 C 197.988281 296.675781 198.054688 296.878906 198.214844 296.960938 C 198.289062 296.992188 203.621094 299.597656 212.394531 299.597656 C 215.796875 299.597656 219.714844 299.207031 224.035156 298.132812 Z M 225.660156 91.53125 L 193.339844 79.324219 L 168.074219 88.953125 L 157.757812 170.953125 L 225.660156 170.953125 Z M 198.195312 175.410156 C 198.195312 176.917969 196.976562 178.136719 195.46875 178.136719 C 193.960938 178.136719 192.742188 176.917969 192.742188 175.410156 C 192.742188 173.902344 193.960938 172.683594 195.46875 172.683594 C 196.976562 172.683594 198.195312 173.902344 198.195312 175.410156 Z M 210.160156 179.882812 L 176.382812 179.882812 C 176.191406 179.882812 176.042969 179.734375 176.042969 179.542969 C 176.042969 179.355469 176.191406 179.207031 176.382812 179.207031 L 210.160156 179.207031 C 210.347656 179.207031 210.496094 179.355469 210.496094 179.542969 C 210.496094 179.734375 210.347656 179.882812 210.160156 179.882812 Z M 210.160156 179.882812 " fill-opacity="1" fill-rule="nonzero"/><g clip-path="url(#05b841af88)"><path fill="#8b0000" d="M 267.261719 328.414062 L 212.914062 328.414062 C 211.394531 328.414062 210.160156 327.183594 210.160156 325.664062 L 210.160156 259.882812 C 210.160156 258.359375 211.394531 257.128906 212.914062 257.128906 L 267.261719 257.128906 C 268.785156 257.128906 270.015625 258.359375 270.015625 259.882812 L 270.015625 325.664062 C 270.007812 327.183594 268.777344 328.414062 267.261719 328.414062 Z M 267.261719 328.414062 " fill-opacity="1" fill-rule="nonzero"/></g><path fill="#f2c3af" d="M 235.597656 227.050781 C 237.199219 231.945312 239.140625 239.203125 236.78125 239.714844 C 234.621094 240.1875 232.519531 238.234375 231.195312 236.621094 C 230.414062 237.832031 229.523438 238.765625 228.589844 239.023438 C 225.207031 239.945312 226.8125 234.671875 226.8125 228.25 C 226.8125 221.835938 231.050781 214.824219 231.050781 214.824219 C 234.945312 210.507812 239.085938 209.910156 242.183594 210.347656 C 243.21875 214.832031 237.894531 223.558594 235.597656 227.050781 Z M 235.597656 227.050781 " fill-opacity="1" fill-rule="nonzero"/><path fill="#8b0000" d="M 240.089844 293.34375 C 230.683594 293.34375 225.605469 275.253906 225.605469 258.230469 C 225.605469 241.210938 230.683594 223.121094 240.089844 223.121094 C 249.492188 223.121094 254.570312 241.210938 254.570312 258.230469 C 254.570312 275.253906 249.492188 293.34375 240.089844 293.34375 Z M 240.089844 227.167969 C 235.160156 227.167969 229.644531 240.457031 229.644531 258.238281 C 229.644531 276.019531 235.160156 289.3125 240.089844 289.3125 C 245.015625 289.3125 250.53125 276.019531 250.53125 258.238281 C 250.53125 240.457031 245.015625 227.167969 240.089844 227.167969 Z M 240.089844 227.167969 " fill-opacity="1" fill-rule="nonzero"/><path fill="#f2c3af" d="M 248.738281 231.460938 C 248.09375 234.902344 245.207031 234.621094 245.207031 234.621094 C 242.113281 238.511719 240.382812 236.269531 240.382812 236.269531 C 240.382812 236.269531 238.9375 239.386719 236.78125 239.714844 C 233.488281 240.226562 234.433594 235.730469 234.398438 232.726562 C 234.359375 229.105469 234.097656 225.484375 233.539062 221.902344 L 233.484375 221.570312 L 242.175781 210.339844 C 245.097656 210.75 247.089844 212.085938 247.089844 212.085938 C 247.089844 212.085938 250.308594 220.367188 251.117188 226.601562 C 251.917969 232.847656 248.738281 231.460938 248.738281 231.460938 Z M 248.738281 231.460938 " fill-opacity="1" fill-rule="nonzero"/><path fill="#8b4513" d="M 247.089844 201.890625 C 247.089844 201.890625 248.691406 213.332031 247.320312 214.945312 C 245.945312 216.5625 238.480469 221.679688 228.582031 214.820312 C 219.027344 214.265625 212.664062 211.140625 211.851562 210.140625 C 209.324219 207.042969 209.878906 111.574219 209.804688 90.898438 C 209.796875 88.515625 208.53125 86.3125 206.476562 85.109375 L 193.632812 77.546875 C 193.632812 77.546875 212.367188 72.964844 222.507812 88.601562 C 222.507812 88.601562 231.484375 92.183594 241.953125 100.488281 C 242.742188 101.113281 243.441406 101.832031 244.046875 102.636719 C 247.257812 106.921875 255.203125 121.15625 254.660156 156.503906 C 253.964844 200.746094 247.089844 201.890625 247.089844 201.890625 Z M 164.464844 88.609375 C 164.464844 88.609375 131.804688 101.671875 118.390625 135.539062 C 104.984375 169.40625 143.492188 180.40625 143.492188 180.40625 C 143.492188 180.40625 141.773438 213.753906 146.757812 214.785156 C 151.738281 215.816406 173.398438 211.6875 175.121094 210.144531 C 176.65625 208.765625 177.09375 111.582031 177.167969 90.90625 C 177.175781 88.523438 178.441406 86.320312 180.496094 85.117188 L 193.339844 77.5625 C 193.339844 77.554688 174.605469 72.964844 164.464844 88.609375 Z M 164.464844 88.609375 " fill-opacity="1" fill-rule="nonzero"/><path fill="#f2c3af" d="M 203.253906 74.007812 C 203.8125 77.957031 204.660156 82.273438 205.917969 85.339844 C 206.234375 86.097656 205.964844 86.980469 205.285156 87.457031 C 203.257812 88.886719 198.796875 91.5 193.160156 91.527344 L 193.160156 91.53125 C 193.140625 91.53125 193.125 91.53125 193.113281 91.53125 C 193.09375 91.53125 193.078125 91.53125 193.066406 91.53125 L 193.066406 91.527344 C 187.429688 91.492188 182.964844 88.886719 180.941406 87.457031 C 180.265625 86.980469 179.996094 86.097656 180.308594 85.339844 C 181.597656 82.1875 182.460938 77.714844 183.019531 73.675781 C 182.183594 72.996094 181.335938 72.261719 180.453125 71.480469 C 176.1875 67.703125 174.605469 60.816406 174.605469 53.886719 C 174.605469 40.496094 182.992188 29.648438 193.339844 29.648438 C 203.691406 29.648438 212.078125 40.496094 212.078125 53.886719 C 212.078125 60.34375 210.6875 66.6875 206.941406 70.558594 C 205.730469 71.796875 204.511719 72.96875 203.253906 74.007812 Z M 203.253906 74.007812 " fill-opacity="1" fill-rule="nonzero"/><path fill="#000000" d="M 193.339844 77.554688 C 196.921875 77.554688 199.988281 76.613281 202.828125 74.351562 C 201.394531 78.105469 197.683594 80.78125 193.339844 80.78125 C 188.984375 80.78125 185.277344 78.09375 183.839844 74.324219 C 186.8125 76.625 189.707031 77.554688 193.339844 77.554688 Z M 187.4375 55.402344 C 187.4375 54.089844 186.375 53.027344 185.058594 53.027344 C 183.746094 53.027344 182.683594 54.089844 182.683594 55.402344 C 182.683594 56.714844 183.746094 57.78125 185.058594 57.78125 C 186.375 57.78125 187.4375 56.714844 187.4375 55.402344 Z M 201.507812 53.027344 C 200.195312 53.027344 199.132812 54.089844 199.132812 55.402344 C 199.132812 56.714844 200.195312 57.78125 201.507812 57.78125 C 202.820312 57.78125 203.886719 56.714844 203.886719 55.402344 C 203.886719 54.089844 202.820312 53.027344 201.507812 53.027344 Z M 216.367188 51.34375 C 215.203125 51.984375 213.957031 52.132812 212.773438 52.035156 L 211.394531 57.78125 L 207.441406 50.125 C 206.996094 50.089844 206.566406 50.015625 206.15625 49.9375 C 206.074219 50.675781 205.472656 51.277344 204.707031 51.316406 L 198.917969 51.640625 C 198.0625 51.6875 197.335938 51.035156 197.289062 50.179688 C 197.273438 49.917969 197.328125 49.671875 197.429688 49.453125 C 197.011719 49.648438 196.464844 49.742188 195.757812 49.652344 C 192.890625 49.324219 191.496094 46.179688 190.574219 44.144531 C 189.785156 45.285156 188.035156 47.6875 186.210938 48.46875 L 187.496094 48.542969 C 188.351562 48.589844 189.003906 49.316406 188.957031 50.171875 C 188.910156 51.027344 188.183594 51.679688 187.328125 51.632812 L 181.539062 51.308594 C 180.683594 51.261719 180.03125 50.535156 180.078125 49.679688 C 180.125 48.824219 180.851562 48.171875 181.707031 48.21875 L 184.011719 48.347656 C 182.867188 47.109375 185.671875 43.203125 185.671875 43.203125 C 185.671875 43.203125 182.28125 47.15625 178.535156 49.511719 L 174.523438 57.773438 L 172.925781 51.136719 C 172.875 51.121094 172.820312 51.09375 172.757812 51.101562 C 164.410156 52.621094 177.761719 41.460938 177.761719 41.460938 L 191.222656 38.96875 C 191.394531 38.929688 191.578125 38.894531 191.757812 38.867188 L 191.894531 38.839844 L 191.894531 38.847656 C 199.078125 37.859375 209.734375 43.089844 209.734375 43.089844 C 209.734375 43.089844 220.332031 49.175781 216.367188 51.34375 Z M 202.269531 48.347656 C 199.8125 46.792969 198.285156 44.691406 197.726562 43.976562 C 198.34375 44.804688 199.050781 47.242188 198.269531 48.644531 C 198.417969 48.589844 198.566406 48.550781 198.734375 48.535156 Z M 202.269531 48.347656 " fill-opacity="1" fill-rule="nonzero"/><path fill="#f2c3af" d="M 179.113281 58.324219 C 180.449219 62.3125 179.351562 66.265625 176.671875 67.160156 C 173.992188 68.054688 170.738281 65.550781 169.414062 61.5625 C 168.078125 57.578125 169.175781 53.625 171.855469 52.730469 C 174.53125 51.835938 177.78125 54.339844 179.113281 58.324219 Z M 207.574219 58.324219 C 206.242188 62.3125 207.339844 66.265625 210.019531 67.160156 C 212.699219 68.054688 215.949219 65.550781 217.277344 61.5625 C 218.605469 57.578125 217.511719 53.625 214.832031 52.730469 C 212.152344 51.835938 208.902344 54.339844 207.574219 58.324219 Z M 207.574219 58.324219 " fill-opacity="1" fill-rule="nonzero"/><path fill="#000000" d="M 190.367188 61.496094 C 190.265625 61.496094 190.15625 61.449219 190.089844 61.355469 C 189.980469 61.207031 190.015625 60.992188 190.164062 60.882812 C 193.246094 58.648438 196.425781 60.855469 196.460938 60.882812 C 196.605469 60.992188 196.648438 61.199219 196.539062 61.355469 C 196.433594 61.503906 196.222656 61.542969 196.070312 61.4375 C 195.953125 61.355469 193.246094 59.484375 190.5625 61.4375 C 190.5 61.476562 190.433594 61.496094 190.367188 61.496094 Z M 200.546875 66.675781 C 200.707031 66.585938 200.773438 66.386719 200.6875 66.222656 C 200.601562 66.0625 200.398438 65.996094 200.234375 66.082031 C 200.167969 66.117188 193.589844 69.449219 186.5625 65.792969 C 186.394531 65.703125 186.191406 65.773438 186.109375 65.933594 C 186.023438 66.101562 186.089844 66.304688 186.253906 66.386719 C 188.84375 67.730469 191.375 68.167969 193.570312 68.167969 C 197.605469 68.167969 200.5 66.695312 200.546875 66.675781 Z M 212.039062 57.882812 C 212.484375 56.5 213.097656 55.707031 213.855469 55.523438 C 214.972656 55.253906 216.117188 56.394531 216.132812 56.40625 C 216.261719 56.542969 216.476562 56.542969 216.609375 56.40625 C 216.746094 56.277344 216.746094 56.0625 216.609375 55.929688 C 216.558594 55.867188 215.191406 54.515625 213.703125 54.863281 C 212.699219 55.101562 211.925781 56.042969 211.398438 57.664062 C 211.34375 57.839844 211.441406 58.03125 211.613281 58.089844 C 211.648438 58.101562 211.683594 58.101562 211.714844 58.101562 C 211.855469 58.117188 211.992188 58.03125 212.039062 57.882812 Z M 175.183594 58.101562 C 175.359375 58.050781 175.460938 57.855469 175.398438 57.679688 C 174.875 56.054688 174.097656 55.113281 173.097656 54.878906 C 171.609375 54.527344 170.246094 55.886719 170.1875 55.941406 C 170.058594 56.078125 170.058594 56.285156 170.1875 56.421875 C 170.320312 56.546875 170.53125 56.546875 170.664062 56.421875 C 170.679688 56.40625 171.824219 55.269531 172.941406 55.539062 C 173.695312 55.71875 174.308594 56.515625 174.757812 57.894531 C 174.804688 58.035156 174.933594 58.128906 175.082031 58.128906 C 175.117188 58.117188 175.148438 58.109375 175.183594 58.101562 Z M 187.511719 65.132812 C 187.578125 64.957031 187.492188 64.761719 187.316406 64.703125 C 187.140625 64.632812 186.945312 64.722656 186.886719 64.898438 C 186.878906 64.910156 186.351562 66.269531 185.066406 66.269531 C 184.878906 66.269531 184.730469 66.417969 184.730469 66.605469 C 184.730469 66.796875 184.878906 66.945312 185.066406 66.945312 C 186.804688 66.945312 187.484375 65.207031 187.511719 65.132812 Z M 187.511719 65.132812 " fill-opacity="1" fill-rule="nonzero"/><path fill="#8b0000" d="M 213.492188 41.21875 L 213.492188 43.242188 C 213.492188 43.632812 213.339844 43.992188 213.082031 44.246094 C 212.683594 44.652344 212.1875 44.664062 212.09375 44.664062 C 206.082031 45.0625 199.671875 45.289062 192.917969 45.285156 C 186.3125 45.277344 180.039062 45.046875 174.144531 44.664062 C 173.371094 44.664062 172.746094 44.03125 172.746094 43.25 L 172.746094 41.222656 C 172.746094 40.441406 173.371094 39.808594 174.144531 39.808594 L 174.535156 39.808594 C 176.125 33.527344 182.40625 21.960938 194.21875 22.566406 C 204.761719 23.113281 210.121094 34.734375 211.964844 39.808594 L 212.09375 39.808594 C 212.859375 39.804688 213.492188 40.4375 213.492188 41.21875 Z M 213.492188 41.21875 " fill-opacity="1" fill-rule="nonzero"/><path fill="#000000" d="M 186.453125 31.597656 C 186.421875 31.597656 186.378906 31.589844 186.347656 31.574219 C 186.171875 31.515625 186.078125 31.328125 186.136719 31.152344 C 188.425781 24.34375 192.75 22.316406 192.929688 22.230469 C 193.039062 22.183594 193.160156 22.191406 193.253906 22.257812 C 193.484375 22.40625 198.875 26.007812 200.109375 31.179688 C 200.148438 31.359375 200.039062 31.542969 199.859375 31.582031 C 199.675781 31.621094 199.496094 31.515625 199.457031 31.332031 C 198.398438 26.910156 193.953125 23.570312 193.046875 22.925781 C 192.246094 23.367188 188.714844 25.582031 186.777344 31.359375 C 186.722656 31.507812 186.59375 31.597656 186.453125 31.597656 Z M 211.992188 40.140625 C 212.171875 40.121094 212.308594 39.953125 212.289062 39.769531 C 212.269531 39.589844 212.09375 39.453125 211.917969 39.472656 C 211.769531 39.488281 196.753906 41.128906 174.550781 39.472656 C 174.363281 39.460938 174.199219 39.601562 174.1875 39.78125 C 174.171875 39.964844 174.316406 40.132812 174.496094 40.148438 C 181.957031 40.707031 188.609375 40.886719 194.15625 40.886719 C 205.199219 40.878906 211.898438 40.148438 211.992188 40.140625 Z M 216.851562 116.207031 L 228.761719 108.835938 C 228.890625 108.753906 228.953125 108.601562 228.90625 108.453125 L 222.832031 88.507812 C 222.777344 88.335938 222.589844 88.234375 222.414062 88.285156 C 222.238281 88.339844 222.136719 88.53125 222.191406 88.703125 L 228.191406 108.398438 L 216.191406 115.824219 C 216.113281 115.871094 216.058594 115.953125 216.039062 116.046875 C 216.019531 116.140625 216.039062 116.234375 216.09375 116.308594 L 222.105469 124.605469 C 221.875 125.390625 220.308594 129.78125 211.816406 139.785156 C 211.695312 139.929688 211.714844 140.144531 211.855469 140.265625 C 211.917969 140.320312 212 140.347656 212.074219 140.347656 C 212.167969 140.347656 212.261719 140.304688 212.328125 140.226562 C 221.902344 128.941406 222.765625 124.765625 222.796875 124.597656 C 222.816406 124.511719 222.792969 124.414062 222.738281 124.339844 Z M 175.59375 139.785156 C 175.714844 139.929688 175.695312 140.144531 175.554688 140.265625 C 175.492188 140.320312 175.410156 140.347656 175.339844 140.347656 C 175.242188 140.347656 175.148438 140.304688 175.082031 140.226562 C 165.507812 128.941406 164.644531 124.765625 164.613281 124.597656 C 164.597656 124.511719 164.621094 124.414062 164.671875 124.339844 L 170.570312 116.207031 L 158.660156 108.835938 C 158.53125 108.753906 158.472656 108.601562 158.511719 108.453125 L 164.585938 88.507812 C 164.640625 88.335938 164.828125 88.234375 165.003906 88.285156 C 165.179688 88.339844 165.277344 88.53125 165.226562 88.703125 L 159.226562 108.398438 L 171.222656 115.824219 C 171.304688 115.871094 171.359375 115.953125 171.378906 116.046875 C 171.398438 116.140625 171.378906 116.234375 171.320312 116.308594 L 165.304688 124.605469 C 165.535156 125.390625 167.097656 129.78125 175.59375 139.785156 Z M 247.238281 202.195312 C 247.183594 202.222656 243.199219 204.140625 237.238281 204.140625 C 234.761719 204.140625 231.941406 203.804688 228.917969 202.867188 L 228.917969 214.824219 C 228.917969 215.015625 228.769531 215.160156 228.582031 215.160156 C 228.394531 215.160156 228.246094 215.015625 228.246094 214.824219 L 228.246094 202.550781 C 220.117188 193.980469 226.265625 144.488281 226.527344 142.378906 C 226.535156 142.339844 226.546875 142.292969 226.570312 142.257812 L 238.257812 121.628906 C 238.351562 121.464844 238.554688 121.414062 238.714844 121.5 C 238.875 121.59375 238.9375 121.796875 238.84375 121.957031 L 227.1875 142.519531 C 226.925781 144.628906 220.941406 194.035156 228.769531 202.113281 C 238.957031 205.417969 246.863281 201.628906 246.941406 201.589844 C 247.109375 201.507812 247.3125 201.574219 247.394531 201.742188 C 247.472656 201.910156 247.40625 202.113281 247.238281 202.195312 Z M 160.429688 158.371094 C 160.5 158.464844 160.519531 158.585938 160.476562 158.691406 L 148.613281 190.324219 C 148.5625 190.457031 148.433594 190.539062 148.296875 190.539062 C 148.257812 190.539062 148.21875 190.53125 148.175781 190.519531 C 148.003906 190.453125 147.914062 190.261719 147.980469 190.089844 L 150.714844 182.804688 L 143.390625 180.738281 C 143.207031 180.6875 143.109375 180.5 143.15625 180.320312 C 143.203125 180.136719 143.390625 180.035156 143.570312 180.082031 L 150.953125 182.171875 L 159.777344 158.632812 C 151.464844 147.757812 133.582031 141.253906 133.398438 141.1875 C 133.222656 141.125 133.128906 140.929688 133.195312 140.757812 C 133.265625 140.582031 133.453125 140.492188 133.628906 140.554688 C 133.753906 140.601562 142.453125 143.765625 150.59375 149.367188 L 145.222656 121.851562 C 145.1875 121.667969 145.300781 121.492188 145.492188 121.453125 C 145.671875 121.417969 145.847656 121.535156 145.886719 121.722656 L 151.402344 149.925781 C 154.78125 152.335938 158.015625 155.164062 160.429688 158.371094 Z M 240.695312 236.371094 L 241.449219 234.140625 C 241.507812 233.96875 241.414062 233.777344 241.238281 233.71875 C 241.066406 233.65625 240.871094 233.75 240.816406 233.925781 L 240.0625 236.15625 C 240 236.328125 240.09375 236.519531 240.269531 236.578125 C 240.304688 236.59375 240.34375 236.597656 240.378906 236.597656 C 240.519531 236.597656 240.648438 236.511719 240.695312 236.371094 Z M 234.367188 235.75 C 234.183594 235.75 234.035156 235.609375 234.027344 235.429688 L 233.753906 226.59375 L 232.769531 225.199219 C 232.660156 225.046875 232.703125 224.835938 232.851562 224.730469 C 233.003906 224.621094 233.214844 224.660156 233.320312 224.808594 L 234.359375 226.285156 C 234.398438 226.339844 234.417969 226.398438 234.417969 226.464844 L 234.695312 235.402344 C 234.703125 235.589844 234.554688 235.746094 234.371094 235.75 C 234.371094 235.75 234.371094 235.75 234.367188 235.75 Z M 245.199219 234.957031 C 245.171875 234.957031 245.144531 234.957031 245.109375 234.941406 C 244.929688 234.894531 244.820312 234.714844 244.867188 234.53125 L 245.273438 232.976562 C 245.320312 232.796875 245.5 232.6875 245.683594 232.734375 C 245.863281 232.78125 245.972656 232.964844 245.925781 233.144531 L 245.523438 234.699219 C 245.488281 234.855469 245.347656 234.957031 245.199219 234.957031 Z M 248.738281 231.796875 C 248.71875 231.796875 248.707031 231.796875 248.6875 231.792969 C 248.503906 231.765625 248.375 231.589844 248.402344 231.410156 L 248.761719 229.117188 C 248.789062 228.9375 248.960938 228.808594 249.144531 228.835938 C 249.324219 228.863281 249.453125 229.039062 249.425781 229.21875 L 249.070312 231.507812 C 249.042969 231.675781 248.902344 231.796875 248.738281 231.796875 Z M 254.535156 257.472656 L 250.410156 257.472656 C 250.222656 257.472656 250.074219 257.324219 250.074219 257.132812 C 250.074219 256.945312 250.222656 256.796875 250.410156 256.796875 L 254.535156 256.796875 C 254.726562 256.796875 254.875 256.945312 254.875 257.132812 C 254.875 257.324219 254.726562 257.472656 254.535156 257.472656 Z M 229.570312 257.472656 L 225.402344 257.472656 C 225.214844 257.472656 225.066406 257.324219 225.066406 257.132812 C 225.066406 256.945312 225.214844 256.796875 225.402344 256.796875 L 229.570312 256.796875 C 229.761719 256.796875 229.90625 256.945312 229.90625 257.132812 C 229.90625 257.324219 229.753906 257.472656 229.570312 257.472656 Z M 229.570312 257.472656 " fill-opacity="1" fill-rule="nonzero"/></svg>