<svg xmlns="http://www.w3.org/2000/svg" xmlns:xlink="http://www.w3.org/1999/xlink" width="500" zoomAndPan="magnify" viewBox="0 0 375 374.999991" height="500" preserveAspectRatio="xMidYMid meet" version="1.0"><defs><clipPath id="e3a7163303"><path d="M 106 48 L 273.421875 48 L 273.421875 198 L 106 198 Z M 106 48 " clip-rule="nonzero"/></clipPath></defs><path fill="#ffb347" d="M 225.339844 316.496094 C 225.339844 316.496094 227.679688 322.648438 240.566406 338.3125 C 253.449219 353.976562 247.007812 358.375 237.925781 361.011719 C 228.84375 363.652344 219.328125 362.316406 216.695312 355.890625 C 214.160156 349.699219 212.449219 342.5625 207.761719 335.246094 C 203.078125 327.929688 206.878906 317.816406 206.878906 317.816406 C 213.914062 306.691406 225.339844 316.496094 225.339844 316.496094 Z M 144.640625 323.515625 C 142.484375 325.503906 140.046875 327.148438 137.363281 328.34375 C 126.144531 333.308594 106.65625 341.910156 121.007812 351.308594 C 132.566406 358.878906 149.339844 349.878906 154.335938 346.15625 C 155.929688 344.96875 157.726562 344.050781 159.621094 343.472656 C 164.21875 342.066406 167.332031 340.359375 169.328125 338.988281 C 171.253906 337.652344 172.574219 335.578125 172.929688 333.257812 C 174.269531 324.445312 171.03125 317.867188 171.03125 317.867188 C 163.335938 308.34375 150.527344 318.089844 144.640625 323.515625 Z M 144.640625 323.515625 " fill-opacity="1" fill-rule="nonzero"/><path fill="#000000" d="M 149.109375 189.082031 C 165.714844 159.460938 216.082031 171.78125 219.90625 192.328125 C 223.457031 211.351562 227.488281 300.203125 228.132812 314.882812 C 228.191406 316.253906 227.578125 317.570312 226.457031 318.359375 C 219.570312 323.175781 211.445312 320.960938 207.613281 319.449219 C 206.257812 318.914062 205.300781 317.675781 205.101562 316.230469 C 202.960938 300.855469 190.207031 210.714844 185.703125 213.714844 C 181.21875 216.703125 173.054688 302.070312 171.625 317.371094 C 171.484375 318.871094 170.527344 320.167969 169.140625 320.753906 C 160.179688 324.511719 153.78125 322.664062 150.617188 321.109375 C 149.222656 320.425781 148.355469 318.996094 148.363281 317.445312 L 148.613281 191.03125 C 148.613281 190.351562 148.777344 189.675781 149.109375 189.082031 Z M 149.109375 189.082031 " fill-opacity="1" fill-rule="nonzero"/><path fill="#ffae42" d="M 222.847656 192.261719 C 222.847656 192.261719 182.972656 197.5625 147.894531 191.253906 L 162.871094 87.710938 L 211.238281 87.710938 Z M 222.847656 192.261719 " fill-opacity="1" fill-rule="nonzero"/><g clip-path="url(#e3a7163303)"><path fill="#f0e68c" d="M 171.585938 95.988281 L 177.085938 183.671875 C 177.175781 185.117188 176.332031 186.449219 174.996094 186.992188 C 167.710938 189.925781 145.101562 198.898438 143.359375 197.621094 C 141.277344 196.109375 147.398438 153.144531 147.398438 153.144531 C 147.398438 153.144531 133.523438 161.722656 117.8125 153.144531 C 101.800781 144.398438 104.75 133.210938 116.863281 119.957031 C 128.976562 106.703125 137.300781 96.167969 143.746094 95.6875 C 143.746094 95.6875 158.660156 84.625 166.433594 82.734375 C 174.210938 80.84375 171.585938 95.988281 171.585938 95.988281 Z M 197.910156 182.996094 C 197.882812 184.414062 198.742188 185.6875 200.0625 186.183594 C 207.148438 188.859375 228.980469 196.882812 230.03125 194.65625 C 231.292969 192.011719 225.234375 151.378906 225.234375 151.378906 C 225.867188 146.582031 228.769531 121.097656 228.769531 121.097656 C 253.878906 114.539062 273.203125 102.046875 273.203125 94.34375 C 273.203125 86.640625 254.917969 53.730469 245.363281 48.769531 C 239.484375 45.722656 229.707031 52.890625 230.023438 59.828125 C 230.171875 63.164062 238.617188 81.34375 238.617188 81.34375 C 236.472656 81.71875 231.34375 83.683594 231.34375 83.683594 C 223.773438 79.675781 204.042969 81.34375 204.042969 81.34375 C 200.164062 91.289062 198.246094 168.480469 197.910156 182.996094 Z M 197.910156 182.996094 " fill-opacity="1" fill-rule="nonzero"/></g><path fill="#000000" d="M 214.398438 115.390625 C 214.382812 115.484375 212.820312 125.152344 201.945312 138.40625 C 201.871094 138.496094 201.765625 138.539062 201.65625 138.539062 C 201.574219 138.539062 201.492188 138.511719 201.417969 138.460938 C 201.261719 138.324219 201.238281 138.097656 201.367188 137.941406 C 211.304688 125.820312 213.367188 116.785156 213.625 115.457031 L 205.644531 106.582031 C 205.570312 106.5 205.539062 106.398438 205.554688 106.292969 C 205.570312 106.191406 205.628906 106.09375 205.710938 106.035156 L 214.242188 100.222656 L 206.148438 86.492188 C 206.042969 86.316406 206.101562 86.09375 206.28125 85.988281 C 206.457031 85.886719 206.679688 85.945312 206.785156 86.125 L 215.050781 100.148438 C 215.144531 100.320312 215.101562 100.535156 214.9375 100.644531 L 206.464844 106.414062 L 214.285156 115.109375 C 214.382812 115.167969 214.414062 115.277344 214.398438 115.390625 Z M 158.355469 117.5625 L 166.339844 108.6875 C 166.414062 108.605469 166.441406 108.503906 166.433594 108.398438 C 166.421875 108.296875 166.359375 108.199219 166.273438 108.140625 L 157.734375 102.328125 L 165.828125 88.597656 C 165.929688 88.421875 165.871094 88.199219 165.695312 88.09375 C 165.515625 87.992188 165.292969 88.050781 165.191406 88.230469 L 156.917969 102.246094 C 156.820312 102.417969 156.863281 102.632812 157.027344 102.742188 L 165.5 108.511719 L 157.679688 117.207031 C 157.605469 117.289062 157.570312 117.398438 157.589844 117.511719 C 157.605469 117.605469 159.171875 127.273438 170.046875 140.527344 C 170.121094 140.617188 170.222656 140.660156 170.335938 140.660156 C 170.417969 140.660156 170.496094 140.632812 170.570312 140.578125 C 170.726562 140.445312 170.75 140.214844 170.625 140.058594 C 160.667969 127.933594 158.613281 118.894531 158.355469 117.5625 Z M 227.910156 171.238281 L 213.988281 165.425781 C 212.746094 164.910156 211.921875 163.753906 211.832031 162.402344 L 211.386719 155.332031 L 226.230469 161.863281 C 226.414062 161.945312 226.636719 161.863281 226.71875 161.667969 C 226.800781 161.484375 226.71875 161.261719 226.523438 161.179688 L 211.121094 154.40625 C 211.003906 154.351562 210.867188 154.367188 210.757812 154.441406 C 210.652344 154.515625 210.59375 154.640625 210.601562 154.769531 L 211.082031 162.449219 C 211.1875 164.078125 212.1875 165.480469 213.691406 166.109375 L 227.613281 171.921875 C 227.660156 171.945312 227.710938 171.949219 227.753906 171.949219 C 227.902344 171.949219 228.039062 171.863281 228.097656 171.722656 C 228.1875 171.535156 228.097656 171.320312 227.910156 171.238281 Z M 161.773438 155.515625 L 146.367188 162.292969 C 146.183594 162.375 146.09375 162.597656 146.175781 162.78125 C 146.257812 162.964844 146.472656 163.054688 146.664062 162.972656 L 161.503906 156.441406 L 161.0625 163.515625 C 160.980469 164.863281 160.148438 166.019531 158.902344 166.539062 L 144.980469 172.351562 C 144.796875 172.433594 144.699219 172.648438 144.78125 172.832031 C 144.839844 172.972656 144.980469 173.0625 145.121094 173.0625 C 145.167969 173.0625 145.21875 173.054688 145.265625 173.035156 L 159.183594 167.222656 C 160.691406 166.589844 161.691406 165.191406 161.792969 163.558594 L 162.277344 155.878906 C 162.285156 155.753906 162.226562 155.628906 162.121094 155.554688 C 162.023438 155.472656 161.882812 155.464844 161.773438 155.515625 Z M 161.773438 155.515625 " fill-opacity="1" fill-rule="nonzero"/><path fill="#ffae42" d="M 212.003906 84.789062 C 209.453125 96.789062 199.839844 109.140625 184.828125 109.140625 C 169.816406 109.140625 160.199219 97.140625 157.652344 84.789062 C 155.128906 72.574219 169.816406 62.203125 184.828125 62.203125 C 199.839844 62.203125 214.597656 72.585938 212.003906 84.789062 Z M 212.003906 84.789062 " fill-opacity="1" fill-rule="nonzero"/><path fill="#ffb347" d="M 199.410156 85.195312 C 198.222656 90.757812 194.21875 96.449219 187.96875 97.902344 C 186.984375 98.132812 185.929688 98.257812 184.835938 98.257812 C 183.828125 98.257812 182.855469 98.15625 181.9375 97.96875 C 175.546875 96.636719 171.453125 90.992188 170.261719 85.195312 C 168.902344 78.652344 176.785156 73.082031 184.835938 73.082031 C 192.886719 73.082031 200.792969 78.660156 199.410156 85.195312 Z M 186.933594 214.421875 C 187.050781 214.257812 187.015625 214.019531 186.84375 213.902344 L 177.304688 207.101562 C 177.132812 206.984375 176.902344 207.023438 176.785156 207.191406 C 176.664062 207.355469 176.703125 207.59375 176.871094 207.710938 L 186.414062 214.507812 C 186.480469 214.554688 186.554688 214.574219 186.628906 214.574219 C 186.746094 214.574219 186.867188 214.515625 186.933594 214.421875 Z M 186.933594 214.421875 " fill-opacity="1" fill-rule="nonzero"/><path fill="#f4bba8" d="M 202.722656 53.460938 C 202.722656 60.480469 199.816406 67.457031 194.507812 70.621094 C 194.117188 70.859375 193.730469 71.074219 193.351562 71.296875 L 194.195312 79.527344 C 194.316406 80.71875 193.765625 81.875 192.757812 82.527344 L 184.84375 87.65625 L 184.84375 87.71875 L 184.796875 87.6875 L 184.753906 87.71875 L 184.753906 87.65625 L 176.835938 82.527344 C 175.835938 81.875 175.277344 80.71875 175.398438 79.527344 L 176.214844 71.550781 C 175.796875 71.320312 175.375 71.089844 174.945312 70.84375 C 169.476562 67.730469 166.429688 60.628906 166.429688 53.460938 C 166.429688 42.386719 174.550781 33.410156 184.582031 33.410156 C 194.597656 33.410156 202.722656 42.386719 202.722656 53.460938 Z M 202.722656 53.460938 " fill-opacity="1" fill-rule="nonzero"/><path fill="#000000" d="M 189.609375 54.171875 C 189.476562 54.171875 189.335938 54.136719 189.207031 54.054688 C 188.867188 53.832031 188.761719 53.378906 188.976562 53.03125 C 189.039062 52.933594 190.511719 50.652344 192.9375 50.363281 C 194.433594 50.183594 195.910156 50.792969 197.332031 52.171875 C 197.628906 52.453125 197.636719 52.929688 197.355469 53.21875 C 197.074219 53.511719 196.597656 53.519531 196.308594 53.230469 C 195.226562 52.1875 194.144531 51.710938 193.121094 51.832031 C 191.402344 52.03125 190.238281 53.800781 190.222656 53.824219 C 190.089844 54.054688 189.851562 54.171875 189.609375 54.171875 Z M 180.578125 54.0625 C 180.929688 53.839844 181.023438 53.386719 180.808594 53.039062 C 180.75 52.941406 179.273438 50.660156 176.851562 50.371094 C 175.359375 50.191406 173.878906 50.800781 172.453125 52.179688 C 172.15625 52.460938 172.152344 52.933594 172.441406 53.222656 C 172.722656 53.519531 173.195312 53.527344 173.484375 53.238281 C 174.566406 52.195312 175.640625 51.71875 176.671875 51.839844 C 178.386719 52.039062 179.542969 53.796875 179.5625 53.832031 C 179.703125 54.054688 179.941406 54.171875 180.1875 54.171875 C 180.320312 54.179688 180.453125 54.136719 180.578125 54.0625 Z M 188.816406 47.546875 C 188.84375 47.523438 191.566406 45.167969 195.160156 45.167969 C 195.570312 45.167969 195.902344 44.832031 195.902344 44.425781 C 195.902344 44.015625 195.570312 43.683594 195.160156 43.683594 C 190.988281 43.683594 187.960938 46.324219 187.835938 46.433594 C 187.53125 46.707031 187.503906 47.175781 187.769531 47.480469 C 187.917969 47.640625 188.117188 47.730469 188.324219 47.730469 C 188.503906 47.730469 188.675781 47.671875 188.816406 47.546875 Z M 181.203125 47.515625 C 181.492188 47.226562 181.492188 46.761719 181.203125 46.472656 C 181.082031 46.351562 178.191406 43.535156 173.765625 43.699219 C 173.359375 43.714844 173.039062 44.0625 173.054688 44.46875 C 173.070312 44.878906 173.410156 45.195312 173.824219 45.179688 C 177.597656 45.046875 180.132812 47.5 180.15625 47.523438 C 180.304688 47.664062 180.492188 47.738281 180.683594 47.738281 C 180.867188 47.730469 181.0625 47.664062 181.203125 47.515625 Z M 190.121094 27.738281 C 190.121094 27.738281 189.222656 23.699219 183.542969 23.691406 C 177.207031 23.691406 164.960938 28.398438 161.640625 32.445312 C 158.316406 36.492188 165.679688 33.410156 165.679688 33.410156 C 165.679688 33.410156 160.941406 36.484375 160.777344 39.808594 C 160.617188 43.128906 164.113281 53.871094 165.019531 54.105469 C 165.324219 54.1875 166.375 54.722656 166.859375 53.453125 C 169.007812 47.835938 172.21875 41.535156 177.308594 38.332031 C 180.171875 36.53125 183.335938 35.070312 186.199219 34.914062 C 186.199219 34.914062 188.25 38.226562 191.507812 38.894531 C 194.769531 39.5625 191.507812 34.972656 191.507812 34.972656 L 192.824219 36.25 C 196.515625 39.8125 199.097656 44.367188 200.304688 49.355469 C 200.78125 51.328125 201.285156 52.949219 201.640625 53.015625 C 205.324219 53.730469 206.464844 41.253906 206.042969 37.804688 C 205.621094 34.367188 201.21875 31.519531 201.21875 31.519531 C 201.21875 31.519531 204.65625 32.792969 205.375 30.925781 C 206.09375 29.058594 194.464844 24.722656 190.121094 27.738281 Z M 184.574219 74.054688 C 181.640625 74.054688 179.238281 73.15625 176.589844 71.757812 C 177.628906 75.09375 180.914062 77.523438 184.796875 77.523438 C 188.800781 77.523438 192.160156 74.945312 193.078125 71.453125 C 190.304688 73.003906 187.710938 74.054688 184.574219 74.054688 Z M 191.164062 108.746094 C 197.167969 107.226562 201.277344 103.625 201.445312 103.46875 C 201.601562 103.335938 201.617188 103.097656 201.476562 102.945312 C 201.34375 102.789062 201.105469 102.773438 200.949219 102.914062 C 200.914062 102.949219 196.804688 106.554688 190.980469 108.027344 C 190.78125 108.082031 190.660156 108.28125 190.714844 108.480469 C 190.757812 108.652344 190.90625 108.761719 191.070312 108.761719 C 191.097656 108.753906 191.136719 108.753906 191.164062 108.746094 Z M 177.597656 108.132812 C 177.652344 107.933594 177.539062 107.730469 177.339844 107.679688 C 176.050781 107.324219 172.253906 105.480469 172.210938 105.457031 C 172.023438 105.367188 171.800781 105.441406 171.714844 105.628906 C 171.625 105.8125 171.699219 106.035156 171.882812 106.125 C 172.039062 106.199219 175.78125 108.019531 177.140625 108.398438 C 177.167969 108.40625 177.207031 108.414062 177.234375 108.414062 C 177.398438 108.40625 177.546875 108.296875 177.597656 108.132812 Z M 177.597656 108.132812 " fill-opacity="1" fill-rule="nonzero"/><path fill="#f4bba8" d="M 171.585938 57.199219 C 171.585938 60.488281 170.140625 63.460938 167.148438 63.460938 C 164.160156 63.460938 160.765625 60.480469 160.765625 57.199219 C 160.765625 53.914062 163.1875 51.246094 166.175781 51.246094 C 169.164062 51.246094 171.585938 53.90625 171.585938 57.199219 Z M 198 57.199219 C 198 60.488281 199.445312 63.460938 202.441406 63.460938 C 205.425781 63.460938 208.824219 60.480469 208.824219 57.199219 C 208.824219 53.914062 206.398438 51.246094 203.410156 51.246094 C 200.425781 51.238281 198 53.90625 198 57.199219 Z M 198 57.199219 " fill-opacity="1" fill-rule="nonzero"/><path fill="#f0e68c" d="M 189.429688 93.484375 L 187.976562 97.902344 C 186.992188 98.132812 185.9375 98.257812 184.84375 98.257812 C 183.832031 98.257812 182.863281 98.15625 181.941406 97.96875 L 180.128906 93.648438 C 179.84375 92.972656 180.074219 92.203125 180.675781 91.785156 L 184.804688 88.976562 L 188.84375 91.734375 C 189.402344 92.128906 189.636719 92.839844 189.429688 93.484375 Z M 189.429688 93.484375 " fill-opacity="1" fill-rule="nonzero"/><path fill="#000000" d="M 182.492188 58.457031 C 182.277344 57.546875 183.886719 56.269531 184.582031 55.765625 C 184.746094 55.648438 184.984375 55.6875 185.101562 55.847656 C 185.21875 56.011719 185.183594 56.25 185.019531 56.367188 C 184.027344 57.085938 183.152344 58.019531 183.21875 58.296875 C 183.335938 58.792969 184.234375 59.992188 184.769531 60.628906 C 184.902344 60.785156 184.878906 61.023438 184.722656 61.148438 C 184.65625 61.207031 184.566406 61.238281 184.484375 61.238281 C 184.382812 61.238281 184.277344 61.195312 184.203125 61.105469 C 184.042969 60.910156 182.683594 59.289062 182.492188 58.457031 Z M 193.5 61.246094 C 193.433594 61.3125 186.605469 67.953125 178.074219 62.980469 C 177.894531 62.875 177.671875 62.933594 177.570312 63.113281 C 177.464844 63.292969 177.523438 63.515625 177.703125 63.617188 C 180.148438 65.046875 182.46875 65.566406 184.546875 65.566406 C 190.121094 65.566406 193.976562 61.816406 194.027344 61.765625 C 194.175781 61.625 194.175781 61.386719 194.027344 61.238281 C 193.878906 61.105469 193.640625 61.105469 193.5 61.246094 Z M 166.746094 53.460938 C 166.6875 53.445312 165.367188 53.070312 164.183594 53.863281 C 163.246094 54.484375 162.683594 55.632812 162.507812 57.28125 C 162.484375 57.480469 162.632812 57.664062 162.832031 57.6875 C 162.847656 57.6875 162.863281 57.6875 162.871094 57.6875 C 163.054688 57.6875 163.21875 57.546875 163.242188 57.355469 C 163.394531 55.945312 163.847656 54.972656 164.582031 54.476562 C 165.472656 53.875 166.523438 54.160156 166.539062 54.164062 C 166.738281 54.226562 166.9375 54.105469 167 53.914062 C 167.058594 53.730469 166.945312 53.519531 166.746094 53.460938 Z M 205.40625 53.863281 C 204.21875 53.070312 202.890625 53.445312 202.839844 53.460938 C 202.648438 53.519531 202.527344 53.722656 202.589844 53.921875 C 202.648438 54.113281 202.847656 54.234375 203.046875 54.171875 C 203.054688 54.171875 204.109375 53.882812 205.003906 54.484375 C 205.746094 54.980469 206.199219 55.953125 206.347656 57.359375 C 206.367188 57.554688 206.523438 57.695312 206.71875 57.695312 C 206.730469 57.695312 206.746094 57.695312 206.753906 57.695312 C 206.953125 57.671875 207.101562 57.488281 207.082031 57.285156 C 206.910156 55.640625 206.347656 54.492188 205.40625 53.863281 Z M 193.96875 94.632812 L 185.003906 88.679688 C 184.878906 88.597656 184.714844 88.597656 184.597656 88.679688 L 175.628906 94.632812 C 175.457031 94.746094 175.414062 94.972656 175.523438 95.144531 C 175.597656 95.257812 175.710938 95.308594 175.835938 95.308594 C 175.902344 95.308594 175.976562 95.285156 176.042969 95.25 L 184.804688 89.429688 L 193.558594 95.25 C 193.730469 95.359375 193.960938 95.316406 194.070312 95.144531 C 194.183594 94.972656 194.136719 94.746094 193.96875 94.632812 Z M 248.816406 99.105469 C 243.292969 94.871094 239.015625 81.378906 238.980469 81.246094 C 238.917969 81.054688 238.710938 80.941406 238.511719 81 C 238.320312 81.058594 238.207031 81.269531 238.265625 81.46875 C 238.445312 82.03125 242.65625 95.324219 248.363281 99.695312 C 248.429688 99.75 248.511719 99.769531 248.585938 99.769531 C 248.699219 99.769531 248.808594 99.71875 248.882812 99.621094 C 249.007812 99.460938 248.980469 99.230469 248.816406 99.105469 Z M 231.46875 83.34375 C 231.277344 83.277344 231.070312 83.378906 231.003906 83.574219 C 230.765625 84.269531 225.132812 100.75 225.132812 109.140625 C 225.132812 109.347656 225.292969 109.511719 225.503906 109.511719 C 225.710938 109.511719 225.871094 109.347656 225.871094 109.140625 C 225.871094 100.875 231.648438 83.988281 231.707031 83.816406 C 231.765625 83.625 231.664062 83.410156 231.46875 83.34375 Z M 141.933594 132.980469 C 126.265625 122.804688 116.960938 130.460938 116.863281 130.535156 C 116.707031 130.667969 116.6875 130.898438 116.820312 131.054688 C 116.953125 131.210938 117.183594 131.230469 117.339844 131.097656 C 117.429688 131.023438 126.339844 123.738281 141.527344 133.605469 C 141.585938 133.640625 141.660156 133.664062 141.726562 133.664062 C 141.847656 133.664062 141.964844 133.605469 142.039062 133.492188 C 142.15625 133.320312 142.113281 133.09375 141.933594 132.980469 Z M 144.09375 95.613281 C 144.046875 95.410156 143.847656 95.285156 143.648438 95.332031 C 143.449219 95.375 143.320312 95.574219 143.367188 95.773438 L 149.925781 125.722656 C 149.964844 125.894531 150.121094 126.011719 150.289062 126.011719 C 150.320312 126.011719 150.339844 126.011719 150.371094 126.003906 C 150.570312 125.960938 150.699219 125.761719 150.652344 125.558594 Z M 144.09375 95.613281 " fill-opacity="1" fill-rule="nonzero"/><path fill="#ffb347" d="M 132.511719 141.683594 C 133.597656 136.25 137.726562 132.492188 141.734375 133.292969 C 145.746094 134.09375 148.117188 139.140625 147.042969 144.574219 C 145.96875 150.007812 141.832031 153.765625 137.820312 152.964844 C 133.8125 152.171875 131.4375 147.117188 132.511719 141.683594 Z M 231.945312 61.15625 C 234.292969 63.863281 239.171875 63.476562 242.832031 60.296875 C 246.496094 57.117188 247.570312 52.34375 245.21875 49.636719 C 242.871094 46.929688 237.992188 47.316406 234.332031 50.496094 C 230.667969 53.675781 229.59375 58.449219 231.945312 61.15625 Z M 231.945312 61.15625 " fill-opacity="1" fill-rule="nonzero"/><path fill="#000000" d="M 147.019531 158.074219 C 146.871094 158.074219 146.722656 158.058594 146.574219 158.03125 C 145.375 157.785156 144.597656 156.613281 144.839844 155.40625 C 150.296875 128.496094 152.542969 87.984375 152.566406 87.582031 C 152.632812 86.359375 153.671875 85.410156 154.90625 85.484375 C 156.132812 85.550781 157.074219 86.597656 157.007812 87.828125 C 156.984375 88.234375 154.722656 129.058594 149.199219 156.292969 C 148.976562 157.347656 148.050781 158.074219 147.019531 158.074219 Z M 221.089844 328.609375 C 225.359375 324.496094 230.640625 325.660156 230.691406 325.675781 C 230.996094 325.742188 231.292969 325.554688 231.359375 325.257812 C 231.425781 324.960938 231.238281 324.660156 230.941406 324.59375 C 230.707031 324.539062 225.035156 323.265625 220.320312 327.808594 C 220.097656 328.023438 220.089844 328.371094 220.304688 328.59375 C 220.417969 328.707031 220.558594 328.765625 220.707031 328.765625 C 220.847656 328.765625 220.988281 328.714844 221.089844 328.609375 Z M 224.878906 333.664062 C 229.148438 329.550781 234.425781 330.714844 234.480469 330.730469 C 234.78125 330.796875 235.078125 330.613281 235.144531 330.316406 C 235.214844 330.019531 235.027344 329.714844 234.730469 329.648438 C 234.492188 329.597656 228.824219 328.320312 224.109375 332.863281 C 223.886719 333.078125 223.878906 333.429688 224.09375 333.652344 C 224.203125 333.761719 224.34375 333.820312 224.492188 333.820312 C 224.636719 333.820312 224.769531 333.769531 224.878906 333.664062 Z M 228.40625 340.179688 C 232.679688 336.074219 237.957031 337.230469 238.007812 337.246094 C 238.304688 337.3125 238.609375 337.128906 238.675781 336.832031 C 238.742188 336.535156 238.554688 336.230469 238.261719 336.164062 C 238.023438 336.113281 232.351562 334.835938 227.636719 339.382812 C 227.414062 339.597656 227.40625 339.945312 227.621094 340.167969 C 227.734375 340.277344 227.875 340.335938 228.023438 340.335938 C 228.164062 340.335938 228.304688 340.285156 228.40625 340.179688 Z M 150.914062 331.554688 C 151.203125 331.457031 151.363281 331.144531 151.269531 330.855469 C 149.46875 325.320312 144.582031 324.167969 144.375 324.125 C 144.070312 324.058594 143.78125 324.25 143.714844 324.546875 C 143.648438 324.84375 143.832031 325.140625 144.136719 325.214844 C 144.324219 325.257812 148.613281 326.289062 150.214844 331.203125 C 150.289062 331.441406 150.511719 331.589844 150.742188 331.589844 C 150.800781 331.574219 150.851562 331.566406 150.914062 331.554688 Z M 146.003906 334.214844 C 146.292969 334.117188 146.457031 333.804688 146.359375 333.515625 C 144.558594 327.980469 139.675781 326.832031 139.46875 326.785156 C 139.171875 326.71875 138.875 326.914062 138.808594 327.207031 C 138.742188 327.503906 138.925781 327.800781 139.230469 327.875 C 139.414062 327.921875 143.707031 328.945312 145.308594 333.867188 C 145.382812 334.101562 145.605469 334.25 145.835938 334.25 C 145.886719 334.238281 145.945312 334.230469 146.003906 334.214844 Z M 139.964844 337.425781 C 140.253906 337.328125 140.414062 337.015625 140.320312 336.726562 C 138.519531 331.191406 133.632812 330.039062 133.425781 329.996094 C 133.128906 329.929688 132.832031 330.121094 132.765625 330.417969 C 132.699219 330.714844 132.882812 331.011719 133.1875 331.085938 C 133.375 331.128906 137.664062 332.152344 139.265625 337.074219 C 139.339844 337.3125 139.5625 337.460938 139.792969 337.460938 C 139.851562 337.453125 139.902344 337.445312 139.964844 337.425781 Z M 139.964844 337.425781 " fill-opacity="1" fill-rule="nonzero"/><path fill="#f4bba8" d="M 159.402344 132.082031 C 159.3125 133.796875 156.738281 134.8125 156.738281 134.8125 C 156.738281 134.8125 158.164062 135.835938 157.71875 137.886719 C 157.273438 139.941406 155.449219 139.734375 155.449219 139.734375 C 155.449219 139.734375 157.621094 143.589844 154.261719 144.707031 C 154.261719 144.707031 156.191406 148.164062 153.019531 148.753906 C 150.734375 149.1875 143.871094 149.246094 140.207031 149.246094 C 138.605469 149.246094 137.222656 148.148438 136.828125 146.589844 C 136.347656 144.679688 136.117188 141.898438 137.390625 138.816406 C 137.726562 138.007812 138.234375 137.28125 138.84375 136.644531 C 141.203125 134.1875 147.820312 127.429688 149.859375 126.769531 C 152.351562 125.960938 159.488281 130.371094 159.402344 132.082031 Z M 241.292969 36.457031 C 241.292969 31.972656 237.109375 34.210938 237.109375 34.210938 C 237.109375 34.210938 240.277344 13.957031 237.621094 15.03125 C 234.96875 16.109375 232.113281 34.003906 232.113281 34.003906 C 232.113281 34.003906 226 11.363281 224.566406 16.464844 C 223.136719 21.5625 227.933594 36.457031 227.933594 36.457031 C 227.933594 36.457031 227.015625 41.660156 225.488281 39.925781 C 223.960938 38.191406 220.285156 36.425781 216.917969 38.292969 C 214.203125 39.800781 217.222656 40.84375 221.714844 43.800781 C 225.117188 46.042969 227.40625 48.984375 230.707031 50.546875 L 232.953125 55.175781 C 234.078125 57.488281 236.753906 58.671875 239.1875 57.820312 C 240.460938 57.375 241.5 56.707031 242.328125 56.003906 C 244.035156 54.558594 244.285156 52.03125 242.871094 50.296875 L 240.980469 47.976562 C 242.597656 45.757812 243.640625 42.890625 244.042969 40.4375 C 244.863281 35.433594 241.292969 36.457031 241.292969 36.457031 Z M 241.292969 36.457031 " fill-opacity="1" fill-rule="nonzero"/><path fill="#000000" d="M 233.53125 42.644531 C 233.671875 42.792969 233.664062 43.03125 233.507812 43.171875 C 233.433594 43.238281 233.34375 43.269531 233.257812 43.269531 C 233.160156 43.269531 233.054688 43.230469 232.980469 43.148438 C 230.683594 40.675781 226.777344 41.320312 226.738281 41.328125 C 226.621094 41.347656 226.503906 41.3125 226.414062 41.222656 L 225.71875 40.527344 C 225.570312 40.378906 225.570312 40.148438 225.71875 40 C 225.867188 39.851562 226.09375 39.851562 226.242188 40 L 226.8125 40.570312 C 227.6875 40.460938 231.238281 40.183594 233.53125 42.644531 Z M 242.78125 41.304688 C 242.632812 41.164062 242.394531 41.179688 242.253906 41.328125 C 240.980469 42.726562 239.269531 44.171875 238.691406 44.046875 C 238.660156 44.039062 238.617188 44.03125 238.570312 43.90625 C 238.199219 42.824219 239.980469 39.378906 241.1875 37.457031 C 241.300781 37.285156 241.246094 37.058594 241.070312 36.945312 C 240.898438 36.839844 240.667969 36.886719 240.558594 37.0625 C 240.269531 37.523438 238.082031 41.058594 237.824219 43.1875 C 237.414062 43.46875 237.042969 43.574219 236.726562 43.492188 C 236.183594 43.351562 235.902344 42.742188 235.871094 42.683594 C 235.441406 42.03125 236.347656 37.917969 237.464844 34.304688 C 237.527344 34.113281 237.414062 33.90625 237.222656 33.839844 C 237.023438 33.78125 236.820312 33.890625 236.753906 34.085938 C 236.355469 35.367188 234.414062 41.816406 235.21875 43.03125 C 235.234375 43.070312 235.652344 43.964844 236.53125 44.195312 C 236.671875 44.234375 236.808594 44.246094 236.949219 44.246094 C 237.238281 44.246094 237.539062 44.164062 237.84375 44.015625 C 237.851562 44.054688 237.859375 44.097656 237.867188 44.136719 C 237.984375 44.476562 238.214844 44.691406 238.535156 44.757812 C 238.59375 44.773438 238.660156 44.773438 238.726562 44.773438 C 240 44.773438 242.144531 42.527344 242.804688 41.808594 C 242.945312 41.675781 242.929688 41.445312 242.78125 41.304688 Z M 241.171875 47.679688 C 241.003906 47.570312 240.773438 47.621094 240.660156 47.789062 L 239.667969 49.324219 C 239.558594 49.496094 239.609375 49.726562 239.78125 49.835938 C 239.839844 49.875 239.914062 49.894531 239.980469 49.894531 C 240.097656 49.894531 240.21875 49.835938 240.292969 49.726562 L 241.285156 48.191406 C 241.394531 48.019531 241.34375 47.789062 241.171875 47.679688 Z M 157.726562 134.402344 C 157.578125 134.316406 153.996094 132.164062 151.535156 131.34375 C 151.34375 131.277344 151.128906 131.386719 151.066406 131.578125 C 151 131.773438 151.113281 131.980469 151.304688 132.046875 C 153.691406 132.839844 157.308594 135.011719 157.347656 135.035156 C 157.40625 135.070312 157.472656 135.085938 157.539062 135.085938 C 157.664062 135.085938 157.785156 135.019531 157.859375 134.910156 C 157.953125 134.738281 157.894531 134.507812 157.726562 134.402344 Z M 156.21875 139.257812 C 156.035156 139.199219 151.707031 137.726562 149.570312 137.382812 C 149.371094 137.355469 149.179688 137.488281 149.148438 137.6875 C 149.117188 137.886719 149.253906 138.082031 149.453125 138.109375 C 151.519531 138.445312 155.929688 139.941406 155.976562 139.957031 C 156.011719 139.972656 156.058594 139.980469 156.09375 139.980469 C 156.25 139.980469 156.390625 139.882812 156.441406 139.726562 C 156.515625 139.535156 156.414062 139.328125 156.21875 139.257812 Z M 154.863281 144.183594 C 154.671875 144.136719 150.125 143.09375 148.429688 143.210938 C 148.222656 143.226562 148.074219 143.402344 148.089844 143.605469 C 148.101562 143.8125 148.28125 143.953125 148.480469 143.945312 C 150.050781 143.832031 154.648438 144.894531 154.691406 144.902344 C 154.722656 144.910156 154.753906 144.910156 154.773438 144.910156 C 154.945312 144.910156 155.09375 144.789062 155.136719 144.621094 C 155.183594 144.425781 155.0625 144.226562 154.863281 144.183594 Z M 154.863281 144.183594 " fill-opacity="1" fill-rule="nonzero"/></svg>