<svg xmlns="http://www.w3.org/2000/svg" xmlns:xlink="http://www.w3.org/1999/xlink" width="500" zoomAndPan="magnify" viewBox="0 0 375 374.999991" height="500" preserveAspectRatio="xMidYMid meet" version="1.0"><path fill="#ebe186" d="M 160.109375 117.625 C 160.109375 117.625 161.304688 118.222656 163.164062 118.355469 C 166.21875 118.621094 170.867188 117.824219 174.121094 111.320312 C 179.367188 100.894531 189.523438 91.269531 201.609375 95.382812 C 213.691406 99.5 208.179688 127.785156 220 129.710938 C 231.816406 131.636719 238.390625 129.710938 244.167969 106.671875 C 249.945312 83.632812 274.90625 84.695312 288.386719 94.453125 C 301.863281 104.214844 295.558594 128.382812 283.738281 136.617188 C 271.921875 144.847656 266.078125 173.199219 287.523438 167.953125 C 311.160156 162.179688 320.386719 174.460938 309.699219 197.832031 C 292.4375 235.742188 322.84375 214.5625 323.972656 233.550781 C 324.769531 247.296875 302.128906 248.957031 297.347656 254.398438 C 289.316406 263.496094 297.214844 274.851562 299.9375 276.910156 C 304.320312 280.226562 314.746094 288.460938 325.765625 290.917969 C 336.722656 293.375 339.777344 317.277344 327.957031 325.242188 C 316.140625 333.210938 299.40625 337.0625 291.175781 310.703125 C 282.941406 284.34375 258.773438 289.257812 250.804688 301.671875 C 242.839844 314.023438 227.765625 339.585938 213.757812 337.660156 C 199.75 335.734375 192.644531 331.351562 182.152344 317.875 C 171.664062 304.394531 147.894531 330.289062 133.820312 326.105469 C 122.265625 322.65625 119.542969 318.40625 119.808594 300.808594 C 120.074219 283.214844 94.644531 303.332031 85.949219 290.320312 C 78.710938 279.5625 93.449219 268.210938 90.992188 262.632812 C 85.484375 250.351562 66.03125 259.378906 49.230469 264.425781 C 15.503906 274.585938 16.433594 227.445312 45.910156 231.429688 C 68.285156 234.414062 92.1875 237.070312 83.625 218.148438 C 73.664062 196.238281 79.773438 187.671875 86.347656 178.910156 C 92.917969 170.144531 84.15625 158.328125 74.261719 146.507812 C 64.371094 134.691406 72.335938 122.871094 85.550781 125.660156 C 98.761719 128.449219 113.632812 147.238281 128.175781 134.027344 C 128.042969 133.960938 133.753906 106.539062 160.109375 117.625 Z M 160.109375 117.625 " fill-opacity="1" fill-rule="nonzero"/><path fill="#ebe186" d="M 230.554688 78.1875 C 230.554688 78.824219 230.492188 79.457031 230.371094 80.078125 C 230.246094 80.703125 230.0625 81.308594 229.816406 81.898438 C 229.574219 82.484375 229.277344 83.042969 228.921875 83.574219 C 228.570312 84.101562 228.167969 84.59375 227.71875 85.042969 C 227.265625 85.492188 226.777344 85.894531 226.246094 86.25 C 225.71875 86.601562 225.160156 86.902344 224.570312 87.144531 C 223.984375 87.386719 223.378906 87.570312 222.753906 87.695312 C 222.128906 87.820312 221.5 87.882812 220.863281 87.882812 C 220.226562 87.882812 219.59375 87.820312 218.972656 87.695312 C 218.347656 87.570312 217.742188 87.386719 217.152344 87.144531 C 216.566406 86.902344 216.007812 86.601562 215.476562 86.25 C 214.949219 85.894531 214.457031 85.492188 214.007812 85.042969 C 213.558594 84.59375 213.15625 84.101562 212.800781 83.574219 C 212.449219 83.042969 212.148438 82.484375 211.90625 81.898438 C 211.664062 81.308594 211.480469 80.703125 211.355469 80.078125 C 211.230469 79.457031 211.167969 78.824219 211.167969 78.1875 C 211.167969 77.550781 211.230469 76.921875 211.355469 76.296875 C 211.480469 75.671875 211.664062 75.066406 211.90625 74.480469 C 212.148438 73.890625 212.449219 73.332031 212.800781 72.800781 C 213.15625 72.273438 213.558594 71.785156 214.007812 71.332031 C 214.457031 70.882812 214.949219 70.480469 215.476562 70.128906 C 216.007812 69.773438 216.566406 69.476562 217.152344 69.234375 C 217.742188 68.988281 218.347656 68.804688 218.972656 68.679688 C 219.59375 68.554688 220.226562 68.496094 220.863281 68.496094 C 221.5 68.496094 222.128906 68.554688 222.753906 68.679688 C 223.378906 68.804688 223.984375 68.988281 224.570312 69.234375 C 225.160156 69.476562 225.71875 69.773438 226.246094 70.128906 C 226.777344 70.480469 227.265625 70.882812 227.71875 71.332031 C 228.167969 71.785156 228.570312 72.273438 228.921875 72.800781 C 229.277344 73.332031 229.574219 73.890625 229.816406 74.480469 C 230.0625 75.066406 230.246094 75.671875 230.371094 76.296875 C 230.492188 76.921875 230.554688 77.550781 230.554688 78.1875 Z M 230.554688 78.1875 " fill-opacity="1" fill-rule="nonzero"/><path fill="#ebe186" d="M 175.582031 331.550781 C 175.582031 331.953125 175.542969 332.347656 175.464844 332.742188 C 175.386719 333.136719 175.269531 333.519531 175.117188 333.890625 C 174.960938 334.257812 174.773438 334.613281 174.550781 334.945312 C 174.328125 335.277344 174.074219 335.585938 173.792969 335.871094 C 173.507812 336.152344 173.199219 336.40625 172.867188 336.628906 C 172.53125 336.851562 172.179688 337.042969 171.808594 337.195312 C 171.441406 337.347656 171.058594 337.464844 170.664062 337.542969 C 170.269531 337.621094 169.875 337.660156 169.472656 337.660156 C 169.070312 337.660156 168.675781 337.621094 168.28125 337.542969 C 167.886719 337.464844 167.503906 337.347656 167.136719 337.195312 C 166.765625 337.042969 166.414062 336.851562 166.078125 336.628906 C 165.746094 336.40625 165.4375 336.152344 165.152344 335.871094 C 164.871094 335.585938 164.617188 335.277344 164.394531 334.945312 C 164.171875 334.613281 163.984375 334.257812 163.828125 333.890625 C 163.675781 333.519531 163.558594 333.136719 163.480469 332.742188 C 163.402344 332.347656 163.363281 331.953125 163.363281 331.550781 C 163.363281 331.148438 163.402344 330.753906 163.480469 330.359375 C 163.558594 329.964844 163.675781 329.585938 163.828125 329.214844 C 163.984375 328.84375 164.171875 328.492188 164.394531 328.15625 C 164.617188 327.824219 164.871094 327.515625 165.152344 327.230469 C 165.4375 326.949219 165.746094 326.695312 166.078125 326.472656 C 166.414062 326.25 166.765625 326.0625 167.136719 325.90625 C 167.503906 325.753906 167.886719 325.636719 168.28125 325.558594 C 168.675781 325.480469 169.070312 325.441406 169.472656 325.441406 C 169.875 325.441406 170.269531 325.480469 170.664062 325.558594 C 171.058594 325.636719 171.441406 325.753906 171.808594 325.90625 C 172.179688 326.0625 172.53125 326.25 172.867188 326.472656 C 173.199219 326.695312 173.507812 326.949219 173.792969 327.230469 C 174.074219 327.515625 174.328125 327.824219 174.550781 328.15625 C 174.773438 328.492188 174.960938 328.84375 175.117188 329.214844 C 175.269531 329.585938 175.386719 329.964844 175.464844 330.359375 C 175.542969 330.753906 175.582031 331.148438 175.582031 331.550781 Z M 175.582031 331.550781 " fill-opacity="1" fill-rule="nonzero"/><path fill="#ebe186" d="M 282.957031 331.863281 C 283.117188 332.285156 283.25 332.710938 283.351562 333.140625 C 283.453125 333.574219 283.523438 334.003906 283.5625 334.433594 C 283.605469 334.863281 283.613281 335.28125 283.585938 335.691406 C 283.5625 336.101562 283.507812 336.492188 283.417969 336.867188 C 283.332031 337.242188 283.214844 337.589844 283.066406 337.914062 C 282.917969 338.238281 282.746094 338.53125 282.542969 338.792969 C 282.34375 339.054688 282.117188 339.277344 281.871094 339.46875 C 281.621094 339.65625 281.355469 339.804688 281.070312 339.914062 C 280.785156 340.023438 280.488281 340.09375 280.175781 340.117188 C 279.867188 340.144531 279.546875 340.125 279.222656 340.066406 C 278.898438 340.007812 278.574219 339.90625 278.246094 339.765625 C 277.917969 339.625 277.597656 339.441406 277.285156 339.222656 C 276.96875 339.003906 276.664062 338.75 276.371094 338.464844 C 276.082031 338.175781 275.804688 337.859375 275.546875 337.515625 C 275.289062 337.167969 275.054688 336.800781 274.839844 336.410156 C 274.628906 336.023438 274.441406 335.617188 274.277344 335.199219 C 274.117188 334.777344 273.988281 334.351562 273.882812 333.921875 C 273.78125 333.488281 273.710938 333.058594 273.671875 332.628906 C 273.632812 332.199219 273.625 331.78125 273.648438 331.371094 C 273.671875 330.960938 273.726562 330.570312 273.816406 330.195312 C 273.902344 329.820312 274.019531 329.472656 274.167969 329.148438 C 274.316406 328.824219 274.488281 328.53125 274.691406 328.269531 C 274.894531 328.007812 275.117188 327.785156 275.367188 327.59375 C 275.613281 327.40625 275.878906 327.257812 276.164062 327.148438 C 276.449219 327.039062 276.75 326.96875 277.058594 326.945312 C 277.371094 326.917969 277.6875 326.9375 278.011719 326.996094 C 278.335938 327.054688 278.664062 327.15625 278.988281 327.296875 C 279.316406 327.4375 279.636719 327.621094 279.953125 327.839844 C 280.265625 328.058594 280.570312 328.3125 280.863281 328.597656 C 281.15625 328.886719 281.429688 329.203125 281.6875 329.546875 C 281.945312 329.894531 282.179688 330.261719 282.394531 330.652344 C 282.609375 331.042969 282.796875 331.445312 282.957031 331.863281 Z M 282.957031 331.863281 " fill-opacity="1" fill-rule="nonzero"/><path fill="#ebe186" d="M 351.925781 197.789062 C 352.421875 198.332031 352.878906 198.902344 353.296875 199.5 C 353.714844 200.097656 354.082031 200.714844 354.398438 201.347656 C 354.714844 201.980469 354.980469 202.617188 355.1875 203.257812 C 355.394531 203.898438 355.542969 204.53125 355.632812 205.15625 C 355.722656 205.78125 355.75 206.386719 355.71875 206.972656 C 355.683594 207.558594 355.589844 208.113281 355.4375 208.636719 C 355.285156 209.164062 355.074219 209.644531 354.804688 210.085938 C 354.539062 210.527344 354.21875 210.917969 353.847656 211.261719 C 353.472656 211.605469 353.054688 211.890625 352.59375 212.121094 C 352.132812 212.347656 351.632812 212.519531 351.097656 212.628906 C 350.5625 212.734375 350.003906 212.78125 349.414062 212.765625 C 348.828125 212.746094 348.226562 212.667969 347.613281 212.527344 C 346.996094 212.386719 346.378906 212.183594 345.757812 211.921875 C 345.136719 211.660156 344.523438 211.347656 343.917969 210.976562 C 343.316406 210.605469 342.734375 210.1875 342.171875 209.722656 C 341.609375 209.257812 341.082031 208.753906 340.582031 208.210938 C 340.085938 207.667969 339.625 207.097656 339.210938 206.5 C 338.792969 205.898438 338.425781 205.285156 338.109375 204.652344 C 337.789062 204.019531 337.527344 203.382812 337.320312 202.742188 C 337.113281 202.101562 336.964844 201.46875 336.875 200.84375 C 336.785156 200.214844 336.757812 199.609375 336.789062 199.023438 C 336.824219 198.4375 336.914062 197.882812 337.070312 197.359375 C 337.222656 196.835938 337.433594 196.355469 337.699219 195.914062 C 337.96875 195.472656 338.289062 195.078125 338.660156 194.738281 C 339.035156 194.394531 339.453125 194.109375 339.914062 193.878906 C 340.375 193.648438 340.875 193.480469 341.410156 193.371094 C 341.945312 193.261719 342.503906 193.21875 343.089844 193.234375 C 343.679688 193.25 344.28125 193.332031 344.894531 193.472656 C 345.511719 193.613281 346.128906 193.816406 346.75 194.078125 C 347.371094 194.335938 347.984375 194.652344 348.585938 195.023438 C 349.191406 195.394531 349.773438 195.8125 350.335938 196.277344 C 350.894531 196.742188 351.425781 197.246094 351.925781 197.789062 Z M 351.925781 197.789062 " fill-opacity="1" fill-rule="nonzero"/><path fill="#ebe186" d="M 96.304688 332.8125 C 93.117188 337.328125 87.675781 338.988281 84.222656 336.53125 C 80.769531 334.074219 80.503906 328.429688 83.757812 323.847656 C 86.945312 319.335938 96.238281 313.625 99.691406 316.082031 C 103.144531 318.605469 99.558594 328.296875 96.304688 332.8125 Z M 96.304688 332.8125 " fill-opacity="1" fill-rule="nonzero"/><path fill="#ebe186" d="M 33.628906 177.316406 C 27.054688 173.996094 24 166.691406 26.855469 160.984375 C 29.710938 155.273438 37.414062 153.347656 43.984375 156.667969 C 50.558594 159.988281 59.65625 171.671875 56.800781 177.382812 C 53.945312 183.09375 40.203125 180.636719 33.628906 177.316406 Z M 33.628906 177.316406 " fill-opacity="1" fill-rule="nonzero"/><path fill="#ebe186" d="M 154.667969 61.855469 C 156.59375 66.835938 156.128906 77.523438 151.148438 79.449219 C 146.167969 81.375 138.597656 73.804688 136.671875 68.828125 C 134.75 63.847656 137.203125 58.269531 142.183594 56.34375 C 147.164062 54.417969 152.742188 56.875 154.667969 61.855469 Z M 154.667969 61.855469 " fill-opacity="1" fill-rule="nonzero"/><path fill="#dda98c" d="M 174.285156 278.089844 C 173.714844 290.464844 172.042969 298.203125 172.042969 298.203125 C 172.042969 298.203125 172.847656 299.535156 173.585938 307.527344 C 174.328125 315.53125 169.335938 313.152344 160.160156 320.820312 C 150.992188 328.492188 135.222656 337.984375 132.324219 330.574219 C 129.433594 323.160156 148.277344 319.140625 152.96875 300.101562 C 154.203125 295.113281 154.285156 287.710938 153.738281 279.507812 C 152.199219 256.421875 145.6875 226.992188 145.6875 226.992188 C 135.59375 203.191406 165.042969 208.070312 170.453125 232.457031 C 174.371094 250.097656 174.839844 266.222656 174.285156 278.089844 Z M 206.875 212.5625 C 191.660156 200.386719 182.328125 204.066406 187.125 236.90625 C 187.125 236.90625 192.210938 261.191406 194.394531 281.65625 C 194.851562 285.921875 195.179688 290.015625 195.3125 293.695312 C 195.492188 298.664062 195.105469 303.179688 194.460938 307.28125 C 194.460938 307.28125 194.460938 307.28125 194.453125 307.285156 C 194.453125 307.300781 194.453125 307.308594 194.453125 307.328125 C 194.453125 307.363281 194.445312 307.394531 194.4375 307.429688 C 192.300781 320.871094 190.039062 328.5 192.707031 334.507812 C 199.214844 349.101562 208.605469 340.773438 213.496094 333.035156 C 216.527344 328.238281 215.035156 314.613281 213.472656 304.964844 C 213.097656 302.636719 212.71875 300.539062 212.390625 298.859375 C 211.859375 296.046875 211.757812 293.175781 212.121094 290.34375 C 212.425781 288 212.8125 284.820312 213.210938 281.054688 C 213.21875 281.046875 213.21875 281.046875 213.21875 281.046875 C 215.417969 260.082031 217.832031 221.324219 206.875 212.5625 Z M 165.941406 88.15625 L 154.257812 109.113281 L 178.421875 129.234375 L 203.742188 108.992188 L 195.136719 88.148438 L 165.941406 88.148438 Z M 165.941406 88.15625 " fill-opacity="1" fill-rule="nonzero"/><path fill="#e6e6fa" d="M 214.390625 333.546875 C 209.5 341.28125 200.554688 350.996094 190.023438 335.898438 C 187.140625 331.761719 190.011719 325.148438 192.464844 316.234375 C 193.21875 313.515625 193.933594 310.582031 194.429688 307.4375 C 194.4375 307.402344 194.445312 307.371094 194.445312 307.335938 C 194.453125 307.316406 194.453125 307.308594 194.453125 307.292969 C 194.460938 307.285156 194.460938 307.285156 194.460938 307.285156 C 195.105469 303.179688 195.492188 298.664062 195.304688 293.695312 C 195.179688 290.023438 194.84375 285.921875 194.386719 281.65625 C 203.585938 285.339844 212.890625 281.210938 213.210938 281.058594 C 212.820312 284.820312 212.425781 288.007812 212.128906 290.351562 C 211.757812 293.183594 211.859375 296.050781 212.390625 298.863281 C 212.71875 300.542969 213.097656 302.644531 213.472656 304.972656 C 213.964844 308.019531 214.542969 311.515625 215.003906 315.023438 C 215.003906 315.023438 215.003906 315.023438 215.003906 315.03125 C 216 322.621094 216.464844 330.265625 214.390625 333.546875 Z M 174.285156 278.089844 C 174.285156 278.089844 166.789062 282.226562 153.746094 279.507812 L 153.738281 279.507812 C 154.285156 287.710938 154.203125 295.121094 152.96875 300.101562 C 148.277344 319.132812 129.433594 323.160156 132.324219 330.574219 C 135.222656 337.976562 150.992188 328.492188 160.160156 320.820312 C 169.335938 313.152344 174.328125 315.53125 173.585938 307.527344 C 172.847656 299.535156 172.042969 298.203125 172.042969 298.203125 C 172.042969 298.203125 173.714844 290.464844 174.285156 278.089844 Z M 174.285156 278.089844 " fill-opacity="1" fill-rule="nonzero"/><path fill="#000000" d="M 174.738281 313.820312 L 172.710938 330.664062 C 172.652344 331.148438 172.390625 331.5625 172.007812 331.78125 C 171.4375 332.109375 170.496094 332.488281 169.28125 332.4375 C 168.554688 332.410156 167.960938 331.742188 167.914062 330.949219 L 167.25 320.078125 C 161.527344 324.761719 155.667969 331.121094 152.933594 334.203125 C 151.824219 335.449219 150.394531 336.367188 148.789062 336.835938 C 144.035156 338.234375 131.398438 341.785156 128.378906 337.628906 C 125.5625 333.746094 131.199219 327.617188 133.214844 325.0625 C 134.0625 323.988281 135.292969 323.304688 136.644531 323.121094 C 155.839844 320.464844 172.046875 298.203125 172.046875 298.203125 C 175.011719 299.542969 175.964844 304.253906 176.214844 308.289062 C 176.335938 310.285156 175.785156 312.199219 174.738281 313.820312 Z M 215.003906 315.03125 C 214.898438 315.417969 211.9375 326.03125 203.363281 325.675781 C 194.859375 325.320312 192.578125 316.664062 192.464844 316.234375 C 190.011719 325.148438 187.140625 331.761719 190.023438 335.898438 C 200.554688 350.996094 209.5 341.28125 214.390625 333.546875 C 216.464844 330.265625 216 322.621094 215.003906 315.03125 Z M 215.003906 315.03125 " fill-opacity="1" fill-rule="nonzero"/><path fill="#fffacd" d="M 251.097656 251.1875 C 251.488281 252.050781 251.269531 253.066406 250.558594 253.695312 C 248.007812 255.9375 241.230469 260.203125 230.160156 255.296875 C 230.160156 255.296875 222.964844 267.390625 206.234375 258.042969 C 206.234375 258.042969 192.410156 269.988281 180.070312 259.304688 C 180.070312 259.304688 167.300781 269.753906 157.363281 257.964844 C 157.363281 257.964844 143.863281 263.945312 131.984375 254.75 C 131.984375 254.75 120.527344 255.871094 116.007812 248.996094 C 115.472656 248.183594 115.402344 247.152344 115.816406 246.277344 L 154.804688 163.667969 C 154.804688 163.667969 145.765625 107.554688 159.277344 106.972656 C 172.789062 106.386719 180.242188 118.773438 180.242188 118.773438 C 186.964844 103.382812 200.796875 106.304688 200.796875 106.304688 C 214.925781 100.90625 211.660156 150.5625 210.476562 164.445312 L 211.542969 164.457031 Z M 251.097656 251.1875 " fill-opacity="1" fill-rule="nonzero"/><path fill="#e6e6fa" d="M 246.265625 249.523438 C 247.203125 249.507812 247.988281 250.261719 248 251.203125 L 246.292969 251.230469 Z M 246.320312 252.941406 C 247.261719 252.925781 248.015625 252.148438 248 251.203125 L 246.292969 251.230469 Z M 210.46875 149.28125 L 211.425781 149.265625 C 211.445312 148.816406 211.460938 148.367188 211.472656 147.90625 C 211.183594 147.691406 210.824219 147.566406 210.441406 147.570312 Z M 210.171875 130.492188 L 210.226562 133.910156 C 210.796875 133.902344 211.289062 133.613281 211.59375 133.183594 C 211.574219 132.5 211.550781 131.816406 211.53125 131.140625 C 211.203125 130.734375 210.71875 130.480469 210.171875 130.492188 Z M 210.042969 116.816406 C 210.007812 116.652344 209.980469 116.496094 209.941406 116.332031 L 209.949219 116.824219 C 209.980469 116.824219 210.007812 116.816406 210.042969 116.816406 Z M 212.734375 183.421875 C 212.726562 183.066406 212.613281 182.738281 212.425781 182.476562 C 212.113281 182.027344 211.585938 181.734375 210.996094 181.742188 L 211.023438 183.453125 Z M 210.777344 168.074219 C 211.679688 168.058594 212.40625 167.339844 212.449219 166.445312 L 211.800781 165.027344 C 211.503906 164.792969 211.132812 164.648438 210.71875 164.648438 Z M 210.5 150.988281 C 210.820312 150.980469 211.109375 150.890625 211.367188 150.734375 C 211.386719 150.25 211.410156 149.765625 211.429688 149.265625 L 210.476562 149.28125 Z M 228.628906 215.628906 C 227.683594 215.644531 226.9375 216.417969 226.949219 217.367188 L 230.367188 217.308594 C 230.351562 216.371094 229.578125 215.613281 228.628906 215.628906 Z M 226.671875 200.289062 C 226.6875 201.234375 227.464844 201.980469 228.410156 201.96875 C 228.488281 201.96875 228.558594 201.953125 228.628906 201.941406 L 227.269531 198.964844 C 226.90625 199.285156 226.664062 199.753906 226.671875 200.289062 Z M 221.691406 208.910156 C 221.675781 207.96875 220.898438 207.214844 219.953125 207.230469 C 219.003906 207.242188 218.257812 208.019531 218.273438 208.964844 C 218.285156 209.914062 219.0625 210.660156 220.007812 210.644531 C 220.949219 210.632812 221.703125 209.855469 221.691406 208.910156 Z M 217.996094 191.878906 C 218.007812 192.828125 218.785156 193.574219 219.730469 193.558594 C 220.671875 193.546875 221.425781 192.769531 221.410156 191.824219 C 221.398438 190.882812 220.621094 190.128906 219.675781 190.144531 C 218.734375 190.15625 217.980469 190.941406 217.996094 191.878906 Z M 211.550781 215.90625 L 211.582031 217.617188 L 213.289062 217.585938 C 213.269531 216.648438 212.492188 215.894531 211.550781 215.90625 Z M 213.011719 200.507812 C 212.996094 199.570312 212.222656 198.8125 211.273438 198.828125 L 211.332031 202.246094 C 212.269531 202.222656 213.027344 201.449219 213.011719 200.507812 Z M 211.054688 185.160156 C 211.992188 185.144531 212.746094 184.371094 212.734375 183.421875 L 211.023438 183.453125 Z M 229.1875 249.800781 C 228.238281 249.816406 227.492188 250.589844 227.503906 251.539062 L 230.921875 251.480469 C 230.902344 250.539062 230.125 249.785156 229.1875 249.800781 Z M 246.265625 249.523438 C 245.316406 249.539062 244.570312 250.3125 244.585938 251.261719 L 246.292969 251.230469 Z M 228.90625 232.714844 C 227.960938 232.730469 227.214844 233.503906 227.226562 234.453125 C 227.242188 235.398438 228.019531 236.144531 228.964844 236.132812 C 229.90625 236.117188 230.660156 235.34375 230.644531 234.394531 C 230.632812 233.457031 229.847656 232.699219 228.90625 232.714844 Z M 239.324219 242.800781 C 239.308594 241.863281 238.53125 241.109375 237.585938 241.121094 C 236.640625 241.136719 235.890625 241.914062 235.90625 242.859375 C 235.921875 243.804688 236.695312 244.554688 237.644531 244.539062 C 238.582031 244.519531 239.335938 243.742188 239.324219 242.800781 Z M 222.238281 243.074219 C 222.222656 242.132812 221.449219 241.378906 220.5 241.394531 C 219.554688 241.40625 218.804688 242.183594 218.820312 243.128906 C 218.835938 244.078125 219.609375 244.824219 220.558594 244.808594 C 221.503906 244.796875 222.257812 244.019531 222.238281 243.074219 Z M 237.367188 227.453125 C 238.304688 227.441406 239.058594 226.664062 239.046875 225.71875 C 239.03125 224.777344 238.253906 224.023438 237.308594 224.035156 C 236.363281 224.050781 235.613281 224.828125 235.628906 225.773438 C 235.648438 226.714844 236.425781 227.46875 237.367188 227.453125 Z M 220.230469 224.316406 C 219.285156 224.328125 218.535156 225.105469 218.550781 226.050781 C 218.5625 227 219.339844 227.746094 220.285156 227.730469 C 221.226562 227.71875 221.980469 226.941406 221.96875 225.996094 C 221.945312 225.046875 221.167969 224.292969 220.230469 224.316406 Z M 212.101562 250.078125 L 212.128906 251.785156 L 213.835938 251.757812 C 213.824219 250.8125 213.046875 250.058594 212.101562 250.078125 Z M 211.824219 232.992188 L 211.878906 236.410156 C 212.820312 236.394531 213.574219 235.621094 213.558594 234.671875 C 213.546875 233.734375 212.769531 232.976562 211.824219 232.992188 Z M 228.6875 219.046875 C 229.628906 219.03125 230.382812 218.257812 230.367188 217.308594 L 226.949219 217.367188 C 226.964844 218.3125 227.742188 219.066406 228.6875 219.046875 Z M 211.601562 219.324219 C 212.542969 219.308594 213.296875 218.535156 213.28125 217.585938 L 211.574219 217.617188 Z M 220.777344 258.480469 C 219.832031 258.492188 219.082031 259.269531 219.097656 260.214844 C 219.105469 260.734375 219.347656 261.191406 219.726562 261.496094 C 220.648438 261.398438 221.511719 261.226562 222.308594 261 C 222.445312 260.75 222.53125 260.464844 222.523438 260.160156 C 222.5 259.21875 221.726562 258.464844 220.777344 258.480469 Z M 229.242188 253.21875 C 230.183594 253.203125 230.9375 252.425781 230.921875 251.480469 L 227.503906 251.539062 C 227.519531 252.476562 228.296875 253.230469 229.242188 253.21875 Z M 244.585938 251.261719 C 244.597656 252.207031 245.375 252.953125 246.320312 252.941406 L 246.292969 251.230469 Z M 212.15625 253.496094 C 213.097656 253.480469 213.851562 252.707031 213.835938 251.757812 L 212.128906 251.785156 Z M 192.808594 113.683594 C 191.859375 113.699219 191.113281 114.476562 191.128906 115.421875 L 194.542969 115.367188 C 194.53125 114.425781 193.753906 113.671875 192.808594 113.683594 Z M 208.214844 115.144531 L 209.664062 115.125 C 209.539062 114.582031 209.394531 114.054688 209.253906 113.550781 C 208.632812 113.8125 208.199219 114.433594 208.214844 115.144531 Z M 201.273438 108.425781 C 202.210938 108.410156 202.964844 107.632812 202.953125 106.6875 C 202.945312 106.402344 202.867188 106.144531 202.746094 105.910156 C 202.140625 105.925781 201.492188 106.054688 200.800781 106.316406 C 200.800781 106.316406 200.375 106.230469 199.640625 106.160156 C 199.578125 106.34375 199.542969 106.539062 199.542969 106.746094 C 199.550781 107.683594 200.324219 108.4375 201.273438 108.425781 Z M 175.75 115.671875 L 177.460938 115.644531 C 177.460938 115.449219 177.417969 115.273438 177.351562 115.101562 C 177.046875 114.765625 176.710938 114.425781 176.355469 114.078125 C 176.15625 114 175.941406 113.957031 175.722656 113.964844 Z M 193.363281 147.847656 C 192.417969 147.863281 191.667969 148.640625 191.683594 149.585938 L 195.101562 149.53125 C 195.078125 148.589844 194.300781 147.835938 193.363281 147.847656 Z M 210.449219 147.570312 C 209.5 147.585938 208.753906 148.363281 208.769531 149.308594 L 210.476562 149.28125 Z M 193.140625 134.1875 C 194.082031 134.171875 194.835938 133.398438 194.824219 132.449219 C 194.808594 131.511719 194.03125 130.757812 193.085938 130.769531 C 192.136719 130.785156 191.390625 131.5625 191.40625 132.507812 C 191.417969 133.449219 192.195312 134.203125 193.140625 134.1875 Z M 208.492188 132.230469 C 208.503906 133.175781 209.28125 133.925781 210.226562 133.910156 L 210.171875 130.492188 C 209.222656 130.507812 208.46875 131.285156 208.492188 132.230469 Z M 201.820312 142.589844 C 202.761719 142.574219 203.515625 141.796875 203.5 140.851562 C 203.484375 139.910156 202.710938 139.15625 201.761719 139.171875 C 200.816406 139.183594 200.070312 139.960938 200.082031 140.910156 C 200.097656 141.847656 200.875 142.601562 201.820312 142.589844 Z M 184.734375 142.867188 C 185.675781 142.851562 186.429688 142.074219 186.414062 141.128906 C 186.402344 140.1875 185.625 139.433594 184.679688 139.449219 C 183.730469 139.464844 182.984375 140.238281 182.996094 141.1875 C 183.019531 142.125 183.796875 142.878906 184.734375 142.867188 Z M 201.542969 125.503906 C 202.480469 125.488281 203.238281 124.710938 203.222656 123.765625 C 203.207031 122.824219 202.433594 122.070312 201.484375 122.085938 C 200.539062 122.101562 199.792969 122.875 199.804688 123.824219 C 199.828125 124.769531 200.601562 125.515625 201.542969 125.503906 Z M 184.464844 125.78125 C 185.402344 125.765625 186.160156 124.992188 186.144531 124.042969 C 186.128906 123.105469 185.355469 122.347656 184.40625 122.363281 C 183.460938 122.378906 182.714844 123.152344 182.726562 124.101562 C 182.742188 125.046875 183.515625 125.792969 184.464844 125.78125 Z M 176.277344 148.128906 L 176.304688 149.835938 L 178.015625 149.808594 C 178 148.867188 177.222656 148.113281 176.277344 148.128906 Z M 177.738281 132.722656 C 177.722656 131.78125 176.945312 131.027344 176 131.042969 L 176.058594 134.457031 C 177.003906 134.445312 177.75 133.667969 177.738281 132.722656 Z M 192.523438 117.074219 C 192.636719 117.09375 192.75 117.101562 192.863281 117.101562 C 192.984375 117.101562 193.097656 117.089844 193.207031 117.058594 C 193.867188 116.910156 194.386719 116.375 194.515625 115.707031 C 194.539062 115.59375 194.542969 115.480469 194.542969 115.367188 L 191.128906 115.421875 C 191.128906 115.542969 191.140625 115.65625 191.171875 115.765625 C 191.320312 116.425781 191.855469 116.945312 192.523438 117.074219 Z M 208.257812 115.488281 C 208.40625 116.148438 208.9375 116.667969 209.609375 116.796875 C 209.722656 116.816406 209.835938 116.824219 209.949219 116.824219 L 209.941406 116.332031 C 209.859375 115.921875 209.765625 115.515625 209.664062 115.125 L 208.214844 115.144531 C 208.214844 115.265625 208.226562 115.378906 208.257812 115.488281 Z M 175.777344 117.378906 C 175.898438 117.378906 176.015625 117.367188 176.121094 117.335938 C 176.78125 117.1875 177.300781 116.652344 177.429688 115.984375 C 177.453125 115.871094 177.460938 115.757812 177.460938 115.644531 L 175.75 115.671875 Z M 195.34375 182.746094 C 195.027344 182.296875 194.503906 182.007812 193.910156 182.011719 C 193.320312 182.019531 192.808594 182.332031 192.507812 182.789062 C 192.332031 183.066406 192.222656 183.394531 192.230469 183.75 L 195.648438 183.695312 C 195.640625 183.34375 195.527344 183.015625 195.34375 182.746094 Z M 211.023438 183.453125 L 210.996094 181.742188 C 210.40625 181.75 209.894531 182.0625 209.59375 182.519531 C 209.417969 182.796875 209.308594 183.125 209.316406 183.480469 Z M 193.640625 164.933594 C 192.695312 164.949219 191.945312 165.726562 191.960938 166.671875 C 191.976562 167.617188 192.75 168.367188 193.699219 168.351562 C 194.636719 168.335938 195.390625 167.5625 195.378906 166.613281 C 195.355469 165.675781 194.582031 164.921875 193.640625 164.933594 Z M 209.039062 166.394531 C 209.054688 167.339844 209.828125 168.089844 210.777344 168.074219 L 210.71875 164.65625 C 209.78125 164.671875 209.023438 165.453125 209.039062 166.394531 Z M 202.375 176.753906 C 203.316406 176.738281 204.070312 175.960938 204.054688 175.015625 C 204.042969 174.074219 203.265625 173.320312 202.320312 173.335938 C 201.371094 173.351562 200.625 174.125 200.636719 175.074219 C 200.652344 176.019531 201.429688 176.765625 202.375 176.753906 Z M 185.289062 177.03125 C 186.230469 177.015625 186.984375 176.238281 186.96875 175.292969 C 186.957031 174.351562 186.179688 173.597656 185.234375 173.613281 C 184.285156 173.628906 183.539062 174.402344 183.554688 175.351562 C 183.566406 176.296875 184.34375 177.042969 185.289062 177.03125 Z M 202.097656 159.675781 C 203.039062 159.660156 203.792969 158.882812 203.777344 157.9375 C 203.765625 156.996094 202.988281 156.242188 202.042969 156.257812 C 201.09375 156.269531 200.347656 157.046875 200.359375 157.992188 C 200.375 158.933594 201.152344 159.6875 202.097656 159.675781 Z M 185.011719 159.945312 C 185.953125 159.929688 186.707031 159.15625 186.691406 158.207031 C 186.679688 157.269531 185.902344 156.511719 184.957031 156.527344 C 184.007812 156.542969 183.261719 157.316406 183.273438 158.265625 C 183.289062 159.210938 184.074219 159.964844 185.011719 159.945312 Z M 178.5625 183.972656 C 178.554688 183.613281 178.441406 183.289062 178.257812 183.023438 C 177.941406 182.574219 177.417969 182.285156 176.824219 182.292969 L 176.855469 184 Z M 176.554688 165.210938 L 176.613281 168.628906 C 177.550781 168.617188 178.304688 167.839844 178.292969 166.894531 C 178.277344 165.945312 177.496094 165.191406 176.554688 165.210938 Z M 193.421875 151.265625 C 194.359375 151.253906 195.113281 150.476562 195.101562 149.53125 L 191.683594 149.585938 C 191.695312 150.535156 192.472656 151.28125 193.421875 151.265625 Z M 210.46875 149.28125 L 208.761719 149.308594 C 208.777344 150.253906 209.550781 151.003906 210.5 150.988281 Z M 176.335938 151.542969 C 177.273438 151.53125 178.027344 150.753906 178.015625 149.808594 L 176.304688 149.835938 Z M 194.464844 216.183594 C 193.519531 216.199219 192.773438 216.976562 192.785156 217.921875 L 196.203125 217.863281 C 196.1875 216.925781 195.40625 216.171875 194.464844 216.183594 Z M 211.550781 215.90625 C 210.605469 215.921875 209.859375 216.695312 209.871094 217.644531 L 211.582031 217.617188 Z M 194.1875 199.097656 C 193.242188 199.113281 192.496094 199.890625 192.507812 200.835938 C 192.523438 201.78125 193.300781 202.53125 194.246094 202.515625 C 195.183594 202.5 195.941406 201.726562 195.925781 200.777344 C 195.910156 199.839844 195.136719 199.085938 194.1875 199.097656 Z M 211.332031 202.238281 L 211.273438 198.820312 C 210.328125 198.835938 209.578125 199.613281 209.59375 200.558594 C 209.609375 201.503906 210.382812 202.261719 211.332031 202.238281 Z M 202.867188 207.507812 C 201.921875 207.519531 201.171875 208.296875 201.1875 209.242188 C 201.199219 210.191406 201.976562 210.9375 202.921875 210.921875 C 203.863281 210.910156 204.617188 210.132812 204.605469 209.1875 C 204.589844 208.238281 203.8125 207.492188 202.867188 207.507812 Z M 185.789062 207.777344 C 184.839844 207.792969 184.09375 208.566406 184.109375 209.515625 C 184.121094 210.460938 184.898438 211.207031 185.84375 211.195312 C 186.785156 211.179688 187.539062 210.402344 187.527344 209.457031 C 187.503906 208.515625 186.726562 207.761719 185.789062 207.777344 Z M 202.597656 190.421875 C 201.648438 190.433594 200.902344 191.210938 200.917969 192.15625 C 200.929688 193.105469 201.707031 193.851562 202.652344 193.839844 C 203.59375 193.824219 204.347656 193.046875 204.332031 192.101562 C 204.3125 191.160156 203.535156 190.40625 202.597656 190.421875 Z M 185.511719 190.699219 C 184.5625 190.710938 183.816406 191.488281 183.832031 192.4375 C 183.84375 193.382812 184.621094 194.128906 185.566406 194.117188 C 186.507812 194.101562 187.261719 193.324219 187.246094 192.378906 C 187.234375 191.4375 186.449219 190.683594 185.511719 190.699219 Z M 177.378906 216.460938 L 177.410156 218.171875 L 179.117188 218.140625 C 179.105469 217.195312 178.328125 216.449219 177.378906 216.460938 Z M 177.101562 199.375 L 177.160156 202.792969 C 178.101562 202.78125 178.855469 202.003906 178.839844 201.058594 C 178.824219 200.117188 178.050781 199.363281 177.101562 199.375 Z M 192.230469 183.75 C 192.246094 184.699219 193.019531 185.445312 193.96875 185.429688 C 194.90625 185.417969 195.664062 184.640625 195.648438 183.695312 Z M 209.316406 183.480469 C 209.332031 184.425781 210.105469 185.175781 211.054688 185.160156 L 211.023438 183.453125 Z M 176.882812 185.707031 C 177.820312 185.695312 178.578125 184.917969 178.5625 183.972656 L 176.855469 184 Z M 195.015625 250.347656 C 194.066406 250.363281 193.320312 251.140625 193.335938 252.085938 L 196.75 252.027344 C 196.738281 251.089844 195.960938 250.335938 195.015625 250.347656 Z M 212.101562 250.078125 C 211.152344 250.09375 210.40625 250.867188 210.421875 251.816406 L 212.128906 251.785156 Z M 194.742188 233.269531 C 193.796875 233.285156 193.050781 234.058594 193.0625 235.007812 C 193.078125 235.953125 193.855469 236.703125 194.800781 236.6875 C 195.742188 236.671875 196.496094 235.898438 196.480469 234.949219 C 196.460938 234.003906 195.683594 233.25 194.742188 233.269531 Z M 210.140625 234.730469 C 210.15625 235.675781 210.933594 236.425781 211.878906 236.410156 L 211.824219 232.992188 C 210.882812 233.007812 210.128906 233.78125 210.140625 234.730469 Z M 205.160156 243.351562 C 205.144531 242.410156 204.367188 241.65625 203.421875 241.671875 C 202.476562 241.683594 201.726562 242.460938 201.742188 243.40625 C 201.757812 244.355469 202.53125 245.101562 203.480469 245.085938 C 204.417969 245.074219 205.171875 244.296875 205.160156 243.351562 Z M 188.074219 243.628906 C 188.058594 242.6875 187.285156 241.933594 186.335938 241.949219 C 185.390625 241.960938 184.640625 242.738281 184.65625 243.683594 C 184.671875 244.632812 185.445312 245.378906 186.394531 245.367188 C 187.332031 245.351562 188.085938 244.574219 188.074219 243.628906 Z M 203.144531 224.585938 C 202.199219 224.597656 201.449219 225.375 201.464844 226.320312 C 201.480469 227.269531 202.253906 228.015625 203.203125 228.003906 C 204.140625 227.988281 204.894531 227.210938 204.882812 226.265625 C 204.867188 225.324219 204.089844 224.570312 203.144531 224.585938 Z M 186.058594 224.863281 C 185.113281 224.875 184.363281 225.652344 184.378906 226.601562 C 184.394531 227.546875 185.167969 228.292969 186.117188 228.28125 C 187.054688 228.265625 187.808594 227.488281 187.796875 226.542969 C 187.78125 225.601562 187.003906 224.847656 186.058594 224.863281 Z M 177.9375 250.625 L 177.964844 252.335938 L 179.671875 252.304688 C 179.652344 251.367188 178.875 250.613281 177.9375 250.625 Z M 177.660156 233.539062 L 177.714844 236.957031 C 178.65625 236.945312 179.410156 236.167969 179.394531 235.222656 C 179.382812 234.28125 178.597656 233.527344 177.660156 233.539062 Z M 194.523438 219.601562 C 195.464844 219.585938 196.21875 218.8125 196.203125 217.863281 L 192.785156 217.921875 C 192.800781 218.863281 193.578125 219.617188 194.523438 219.601562 Z M 209.863281 217.644531 C 209.878906 218.589844 210.65625 219.339844 211.601562 219.324219 L 211.574219 217.617188 Z M 177.4375 219.878906 C 178.378906 219.863281 179.132812 219.089844 179.117188 218.140625 L 177.410156 218.171875 Z M 202.019531 260.492188 C 202.019531 260.605469 202.035156 260.722656 202.054688 260.828125 C 203.164062 260.222656 204.089844 259.632812 204.789062 259.140625 C 204.488281 258.898438 204.113281 258.75 203.691406 258.757812 C 202.753906 258.769531 202 259.546875 202.019531 260.492188 Z M 186.613281 259.035156 C 185.667969 259.046875 184.917969 259.824219 184.933594 260.769531 C 184.949219 261.71875 185.722656 262.464844 186.671875 262.449219 C 187.609375 262.4375 188.367188 261.660156 188.351562 260.714844 C 188.335938 259.765625 187.554688 259.011719 186.613281 259.035156 Z M 195.070312 253.765625 C 196.011719 253.75 196.765625 252.976562 196.75 252.027344 L 193.335938 252.085938 C 193.347656 253.03125 194.132812 253.78125 195.070312 253.765625 Z M 210.421875 251.808594 C 210.433594 252.753906 211.210938 253.503906 212.15625 253.488281 L 212.128906 251.78125 Z M 177.984375 254.042969 C 178.925781 254.027344 179.679688 253.253906 179.664062 252.304688 L 177.957031 252.335938 Z M 158.644531 114.234375 C 157.695312 114.246094 156.949219 115.023438 156.964844 115.96875 L 160.378906 115.914062 C 160.367188 114.972656 159.582031 114.21875 158.644531 114.234375 Z M 175.730469 113.964844 C 175.609375 113.964844 175.496094 113.976562 175.386719 114.003906 C 174.726562 114.15625 174.207031 114.6875 174.078125 115.359375 C 174.054688 115.472656 174.050781 115.585938 174.050781 115.699219 L 175.757812 115.671875 Z M 167.101562 108.972656 C 167.515625 108.964844 167.890625 108.800781 168.183594 108.550781 C 167.300781 108.1875 166.375 107.875 165.40625 107.628906 C 165.578125 108.410156 166.273438 108.988281 167.101562 108.972656 Z M 159.191406 148.40625 C 158.246094 148.417969 157.496094 149.195312 157.511719 150.140625 L 160.929688 150.085938 C 160.914062 149.136719 160.136719 148.390625 159.191406 148.40625 Z M 176.277344 148.128906 C 176.15625 148.128906 176.042969 148.140625 175.9375 148.167969 C 175.273438 148.320312 174.753906 148.851562 174.625 149.523438 C 174.605469 149.636719 174.597656 149.75 174.597656 149.863281 L 176.304688 149.835938 Z M 158.921875 131.320312 C 157.972656 131.332031 157.226562 132.109375 157.242188 133.054688 C 157.253906 134.003906 158.03125 134.75 158.976562 134.734375 C 159.917969 134.722656 160.671875 133.945312 160.660156 133 C 160.636719 132.058594 159.859375 131.304688 158.921875 131.320312 Z M 174.363281 133.121094 C 174.511719 133.78125 175.046875 134.300781 175.714844 134.429688 C 175.828125 134.453125 175.941406 134.457031 176.058594 134.457031 L 176 131.042969 C 175.878906 131.042969 175.765625 131.054688 175.65625 131.085938 C 174.996094 131.234375 174.476562 131.765625 174.347656 132.4375 C 174.328125 132.550781 174.320312 132.664062 174.320312 132.777344 C 174.328125 132.898438 174.332031 133.011719 174.363281 133.121094 Z M 167.65625 143.144531 C 168.597656 143.128906 169.351562 142.351562 169.335938 141.40625 C 169.320312 140.46875 168.546875 139.710938 167.597656 139.726562 C 166.652344 139.742188 165.90625 140.515625 165.917969 141.464844 C 165.933594 142.402344 166.710938 143.15625 167.65625 143.144531 Z M 167.378906 126.058594 C 168.316406 126.042969 169.074219 125.269531 169.058594 124.320312 C 169.042969 123.382812 168.269531 122.625 167.320312 122.640625 C 166.375 122.65625 165.628906 123.429688 165.640625 124.378906 C 165.65625 125.316406 166.433594 126.074219 167.378906 126.058594 Z M 151.957031 124.441406 C 151.953125 124.628906 151.945312 124.804688 151.929688 124.992188 C 151.957031 124.863281 151.972656 124.734375 151.972656 124.597656 C 151.972656 124.542969 151.957031 124.492188 151.957031 124.441406 Z M 158.351562 117.621094 C 158.464844 117.644531 158.578125 117.652344 158.695312 117.652344 C 158.816406 117.652344 158.929688 117.636719 159.035156 117.609375 C 159.695312 117.457031 160.21875 116.925781 160.34375 116.253906 C 160.367188 116.140625 160.375 116.027344 160.375 115.914062 L 156.957031 115.96875 C 156.957031 116.089844 156.96875 116.207031 157 116.3125 C 157.148438 116.980469 157.683594 117.5 158.351562 117.621094 Z M 174.042969 115.691406 C 174.042969 115.8125 174.054688 115.929688 174.085938 116.035156 C 174.234375 116.695312 174.769531 117.214844 175.4375 117.34375 C 175.550781 117.367188 175.664062 117.371094 175.777344 117.371094 L 175.75 115.664062 Z M 161.179688 183.300781 C 160.863281 182.851562 160.339844 182.5625 159.746094 182.570312 C 159.15625 182.574219 158.644531 182.890625 158.34375 183.34375 C 158.167969 183.621094 158.058594 183.949219 158.066406 184.304688 L 161.484375 184.25 C 161.476562 183.898438 161.363281 183.574219 161.179688 183.300781 Z M 176.832031 182.292969 C 176.710938 182.292969 176.597656 182.304688 176.492188 182.332031 C 176.050781 182.433594 175.671875 182.703125 175.429688 183.066406 C 175.308594 183.253906 175.222656 183.457031 175.179688 183.679688 C 175.160156 183.792969 175.152344 183.90625 175.152344 184.019531 L 176.859375 183.992188 Z M 159.46875 165.484375 C 158.523438 165.496094 157.773438 166.273438 157.789062 167.21875 C 157.804688 168.167969 158.578125 168.914062 159.527344 168.898438 C 160.464844 168.886719 161.21875 168.109375 161.207031 167.164062 C 161.191406 166.222656 160.417969 165.46875 159.46875 165.484375 Z M 176.214844 165.25 C 175.550781 165.398438 175.03125 165.929688 174.902344 166.601562 C 174.882812 166.714844 174.875 166.828125 174.875 166.941406 C 174.875 167.0625 174.890625 167.175781 174.917969 167.285156 C 175.066406 167.945312 175.601562 168.464844 176.269531 168.59375 C 176.382812 168.617188 176.5 168.621094 176.613281 168.621094 L 176.554688 165.207031 C 176.433594 165.210938 176.320312 165.226562 176.214844 165.25 Z M 168.203125 177.308594 C 169.144531 177.292969 169.898438 176.515625 169.882812 175.570312 C 169.871094 174.632812 169.09375 173.875 168.148438 173.890625 C 167.199219 173.90625 166.453125 174.679688 166.46875 175.628906 C 166.480469 176.566406 167.265625 177.320312 168.203125 177.308594 Z M 151.125 177.585938 C 152.066406 177.570312 152.820312 176.796875 152.804688 175.847656 C 152.792969 174.910156 152.015625 174.152344 151.070312 174.167969 C 150.121094 174.183594 149.375 174.957031 149.390625 175.90625 C 149.402344 176.84375 150.179688 177.601562 151.125 177.585938 Z M 166.195312 158.542969 C 166.210938 159.488281 166.988281 160.238281 167.933594 160.222656 C 168.875 160.207031 169.628906 159.433594 169.613281 158.484375 C 169.601562 157.546875 168.824219 156.789062 167.875 156.804688 C 166.929688 156.820312 166.175781 157.601562 166.195312 158.542969 Z M 159.25 151.820312 C 160.1875 151.808594 160.941406 151.03125 160.929688 150.085938 L 157.511719 150.140625 C 157.527344 151.082031 158.308594 151.835938 159.25 151.820312 Z M 176.304688 149.835938 L 174.597656 149.863281 C 174.597656 149.984375 174.613281 150.097656 174.640625 150.207031 C 174.789062 150.867188 175.324219 151.386719 175.992188 151.515625 C 176.105469 151.535156 176.21875 151.542969 176.335938 151.542969 Z M 160.300781 216.734375 C 159.355469 216.746094 158.609375 217.523438 158.621094 218.46875 L 162.039062 218.414062 C 162.019531 217.472656 161.242188 216.71875 160.300781 216.734375 Z M 177.378906 216.460938 C 177.261719 216.460938 177.144531 216.476562 177.039062 216.503906 C 176.378906 216.65625 175.855469 217.1875 175.730469 217.859375 C 175.707031 217.972656 175.699219 218.085938 175.699219 218.199219 L 177.410156 218.171875 Z M 160.082031 203.070312 C 161.019531 203.058594 161.777344 202.28125 161.761719 201.335938 C 161.746094 200.394531 160.972656 199.640625 160.023438 199.65625 C 159.078125 199.667969 158.332031 200.445312 158.34375 201.390625 C 158.359375 202.332031 159.136719 203.085938 160.082031 203.070312 Z M 176.761719 199.417969 C 176.097656 199.570312 175.578125 200.101562 175.453125 200.773438 C 175.429688 200.886719 175.421875 201 175.421875 201.113281 C 175.421875 201.234375 175.4375 201.347656 175.464844 201.457031 C 175.617188 202.117188 176.148438 202.636719 176.820312 202.765625 C 176.933594 202.785156 177.046875 202.792969 177.160156 202.792969 L 177.101562 199.375 C 176.988281 199.375 176.875 199.390625 176.761719 199.417969 Z M 168.757812 211.472656 C 169.699219 211.457031 170.453125 210.683594 170.441406 209.734375 C 170.425781 208.796875 169.648438 208.039062 168.703125 208.054688 C 167.757812 208.070312 167.007812 208.84375 167.023438 209.792969 C 167.035156 210.738281 167.8125 211.484375 168.757812 211.472656 Z M 151.675781 211.75 C 152.613281 211.734375 153.367188 210.960938 153.355469 210.011719 C 153.339844 209.074219 152.5625 208.316406 151.617188 208.332031 C 150.671875 208.347656 149.921875 209.121094 149.9375 210.070312 C 149.953125 211.007812 150.726562 211.765625 151.675781 211.75 Z M 166.746094 192.707031 C 166.757812 193.652344 167.535156 194.402344 168.480469 194.386719 C 169.421875 194.371094 170.175781 193.597656 170.164062 192.648438 C 170.148438 191.710938 169.371094 190.953125 168.425781 190.96875 C 167.484375 190.992188 166.730469 191.765625 166.746094 192.707031 Z M 151.394531 194.664062 C 152.335938 194.648438 153.089844 193.875 153.078125 192.925781 C 153.0625 191.988281 152.285156 191.234375 151.339844 191.246094 C 150.394531 191.261719 149.644531 192.035156 149.660156 192.984375 C 149.679688 193.929688 150.457031 194.679688 151.394531 194.664062 Z M 144.953125 218.691406 C 144.941406 217.863281 144.339844 217.1875 143.566406 217.039062 C 143.453125 217.015625 143.335938 217.011719 143.222656 217.011719 L 143.253906 218.71875 Z M 143.335938 203.304688 C 144.113281 203.136719 144.691406 202.4375 144.675781 201.613281 C 144.660156 200.785156 144.0625 200.109375 143.289062 199.960938 C 143.175781 199.9375 143.058594 199.933594 142.945312 199.933594 L 143.003906 203.347656 C 143.109375 203.34375 143.230469 203.328125 143.335938 203.304688 Z M 159.804688 185.984375 C 160.742188 185.972656 161.5 185.195312 161.484375 184.25 L 158.066406 184.304688 C 158.082031 185.253906 158.855469 186 159.804688 185.984375 Z M 176.539062 185.679688 C 176.65625 185.699219 176.769531 185.707031 176.882812 185.707031 L 176.855469 184 L 175.144531 184.027344 C 175.144531 184.148438 175.160156 184.261719 175.1875 184.371094 C 175.335938 185.039062 175.871094 185.558594 176.539062 185.679688 Z M 160.851562 250.902344 C 159.902344 250.917969 159.15625 251.695312 159.171875 252.640625 L 162.585938 252.585938 C 162.574219 251.644531 161.789062 250.890625 160.851562 250.902344 Z M 177.9375 250.625 C 177.816406 250.625 177.699219 250.640625 177.59375 250.667969 C 176.933594 250.820312 176.414062 251.351562 176.285156 252.023438 C 176.261719 252.136719 176.257812 252.25 176.257812 252.363281 L 177.964844 252.335938 Z M 160.574219 233.820312 C 159.625 233.832031 158.878906 234.609375 158.894531 235.554688 C 158.90625 236.503906 159.683594 237.25 160.628906 237.234375 C 161.570312 237.222656 162.324219 236.445312 162.308594 235.5 C 162.296875 234.558594 161.519531 233.804688 160.574219 233.820312 Z M 177.316406 233.582031 C 176.65625 233.734375 176.136719 234.265625 176.007812 234.9375 C 175.984375 235.050781 175.976562 235.164062 175.976562 235.277344 C 175.976562 235.398438 175.992188 235.511719 176.019531 235.621094 C 176.171875 236.28125 176.703125 236.800781 177.375 236.929688 C 177.488281 236.949219 177.601562 236.957031 177.714844 236.957031 L 177.660156 233.539062 C 177.539062 233.546875 177.421875 233.5625 177.316406 233.582031 Z M 170.988281 243.90625 C 170.972656 242.964844 170.199219 242.210938 169.25 242.226562 C 168.304688 242.238281 167.554688 243.015625 167.570312 243.964844 C 167.585938 244.910156 168.359375 245.65625 169.308594 245.644531 C 170.253906 245.621094 171.003906 244.847656 170.988281 243.90625 Z M 153.910156 244.183594 C 153.894531 243.242188 153.121094 242.488281 152.171875 242.503906 C 151.226562 242.519531 150.476562 243.292969 150.492188 244.242188 C 150.507812 245.1875 151.28125 245.933594 152.230469 245.921875 C 153.167969 245.898438 153.921875 245.125 153.910156 244.183594 Z M 168.980469 225.140625 C 168.035156 225.15625 167.285156 225.929688 167.300781 226.878906 C 167.316406 227.824219 168.089844 228.570312 169.039062 228.558594 C 169.976562 228.542969 170.730469 227.765625 170.71875 226.820312 C 170.695312 225.878906 169.921875 225.125 168.980469 225.140625 Z M 151.894531 225.417969 C 150.949219 225.433594 150.199219 226.207031 150.214844 227.15625 C 150.230469 228.101562 151.003906 228.847656 151.953125 228.835938 C 152.890625 228.820312 153.644531 228.042969 153.632812 227.097656 C 153.617188 226.152344 152.835938 225.402344 151.894531 225.417969 Z M 144.113281 251.210938 C 144 251.1875 143.886719 251.183594 143.773438 251.183594 L 143.800781 252.890625 L 145.507812 252.863281 C 145.488281 252.035156 144.890625 251.351562 144.113281 251.210938 Z M 143.835938 234.125 C 143.722656 234.101562 143.609375 234.097656 143.496094 234.097656 L 143.550781 237.511719 C 143.671875 237.511719 143.785156 237.5 143.894531 237.46875 C 144.667969 237.300781 145.246094 236.601562 145.230469 235.777344 C 145.21875 234.949219 144.621094 234.273438 143.835938 234.125 Z M 160.351562 220.148438 C 161.292969 220.136719 162.046875 219.359375 162.03125 218.414062 L 158.613281 218.46875 C 158.636719 219.417969 159.414062 220.171875 160.351562 220.148438 Z M 175.699219 218.199219 C 175.699219 218.320312 175.714844 218.433594 175.742188 218.542969 C 175.894531 219.203125 176.425781 219.722656 177.097656 219.851562 C 177.210938 219.871094 177.324219 219.878906 177.4375 219.878906 L 177.410156 218.171875 Z M 143.246094 218.71875 L 143.273438 220.425781 C 143.394531 220.425781 143.507812 220.414062 143.617188 220.386719 C 144.390625 220.214844 144.96875 219.515625 144.953125 218.691406 Z M 169.527344 259.304688 C 168.582031 259.320312 167.835938 260.09375 167.847656 261.042969 C 167.863281 261.988281 168.640625 262.734375 169.585938 262.722656 C 170.523438 262.707031 171.28125 261.929688 171.265625 260.984375 C 171.25 260.042969 170.476562 259.289062 169.527344 259.304688 Z M 160.90625 254.320312 C 161.847656 254.308594 162.601562 253.53125 162.585938 252.585938 L 159.171875 252.640625 C 159.183594 253.582031 159.960938 254.335938 160.90625 254.320312 Z M 176.257812 252.363281 C 176.257812 252.484375 176.269531 252.597656 176.296875 252.707031 C 176.449219 253.367188 176.980469 253.886719 177.652344 254.015625 C 177.765625 254.035156 177.878906 254.042969 177.992188 254.042969 L 177.964844 252.335938 Z M 143.792969 252.890625 L 143.820312 254.597656 C 143.941406 254.597656 144.058594 254.585938 144.164062 254.554688 C 144.941406 254.386719 145.515625 253.6875 145.5 252.863281 Z M 143.214844 217.011719 C 143.097656 217.011719 142.980469 217.023438 142.875 217.054688 C 142.214844 217.203125 141.691406 217.738281 141.566406 218.40625 C 141.542969 218.519531 141.535156 218.632812 141.535156 218.746094 L 143.246094 218.71875 Z M 142.648438 203.3125 C 142.761719 203.335938 142.875 203.34375 142.988281 203.34375 L 142.933594 199.925781 C 142.8125 199.925781 142.695312 199.9375 142.589844 199.96875 C 141.929688 200.117188 141.410156 200.652344 141.28125 201.320312 C 141.257812 201.433594 141.25 201.546875 141.25 201.660156 C 141.25 201.78125 141.265625 201.898438 141.292969 202.003906 C 141.445312 202.671875 141.976562 203.191406 142.648438 203.3125 Z M 134.589844 212.027344 C 135.527344 212.011719 136.28125 211.238281 136.269531 210.289062 C 136.253906 209.351562 135.476562 208.597656 134.53125 208.609375 C 134.070312 208.617188 133.65625 208.808594 133.355469 209.109375 L 132.871094 210.140625 C 132.867188 210.203125 132.851562 210.277344 132.859375 210.347656 C 132.871094 211.285156 133.648438 212.042969 134.589844 212.027344 Z M 126.6875 251.453125 C 125.738281 251.464844 124.992188 252.242188 125.007812 253.1875 L 128.421875 253.132812 C 128.402344 252.191406 127.625 251.4375 126.6875 251.453125 Z M 143.765625 251.183594 C 143.644531 251.183594 143.53125 251.195312 143.421875 251.222656 C 142.761719 251.375 142.242188 251.90625 142.113281 252.578125 C 142.09375 252.691406 142.085938 252.804688 142.085938 252.917969 L 143.792969 252.890625 Z M 126.410156 234.375 C 125.460938 234.386719 124.714844 235.164062 124.730469 236.109375 C 124.742188 237.058594 125.519531 237.804688 126.464844 237.789062 C 127.40625 237.777344 128.160156 237 128.144531 236.054688 C 128.132812 235.105469 127.347656 234.359375 126.410156 234.375 Z M 143.144531 234.140625 C 142.484375 234.289062 141.964844 234.820312 141.835938 235.492188 C 141.8125 235.605469 141.808594 235.71875 141.808594 235.832031 C 141.808594 235.953125 141.820312 236.066406 141.851562 236.175781 C 142 236.835938 142.535156 237.355469 143.203125 237.484375 C 143.316406 237.507812 143.429688 237.511719 143.542969 237.511719 L 143.488281 234.097656 C 143.375 234.097656 143.257812 234.109375 143.144531 234.140625 Z M 135.085938 242.773438 C 134.140625 242.789062 133.390625 243.5625 133.40625 244.511719 C 133.421875 245.457031 134.195312 246.207031 135.144531 246.191406 C 136.082031 246.175781 136.839844 245.402344 136.824219 244.453125 C 136.808594 243.515625 136.035156 242.761719 135.085938 242.773438 Z M 118.058594 246.46875 C 118.996094 246.453125 119.753906 245.679688 119.738281 244.730469 C 119.722656 243.792969 118.949219 243.039062 118 243.050781 C 117.722656 243.058594 117.46875 243.128906 117.238281 243.25 L 116.355469 245.117188 C 116.527344 245.898438 117.230469 246.484375 118.058594 246.46875 Z M 134.808594 225.6875 C 133.863281 225.703125 133.113281 226.480469 133.128906 227.425781 C 133.144531 228.371094 133.917969 229.121094 134.867188 229.105469 C 135.804688 229.089844 136.558594 228.316406 136.546875 227.367188 C 136.53125 226.429688 135.757812 225.675781 134.808594 225.6875 Z M 142.925781 220.398438 C 143.039062 220.421875 143.152344 220.425781 143.265625 220.425781 L 143.238281 218.71875 L 141.53125 218.746094 C 141.53125 218.867188 141.542969 218.980469 141.570312 219.089844 C 141.722656 219.757812 142.253906 220.269531 142.925781 220.398438 Z M 128.417969 253.140625 L 125 253.195312 C 125.007812 253.695312 125.226562 254.136719 125.574219 254.441406 C 126.230469 254.554688 126.863281 254.632812 127.46875 254.699219 C 128.039062 254.40625 128.429688 253.816406 128.417969 253.140625 Z M 142.085938 252.910156 C 142.085938 253.03125 142.097656 253.144531 142.128906 253.253906 C 142.277344 253.914062 142.8125 254.433594 143.480469 254.5625 C 143.59375 254.585938 143.707031 254.589844 143.820312 254.589844 L 143.792969 252.882812 Z M 142.085938 252.910156 " fill-opacity="1" fill-rule="nonzero"/><path fill="#000000" d="M 162.28125 147.925781 L 162.265625 147.214844 L 198.339844 146.632812 L 198.351562 147.34375 Z M 230.273438 255.636719 C 230.460938 255.574219 230.558594 255.375 230.503906 255.191406 L 222.378906 230.863281 C 222.316406 230.679688 222.117188 230.578125 221.929688 230.636719 C 221.746094 230.699219 221.648438 230.898438 221.703125 231.085938 L 229.820312 255.410156 C 229.871094 255.558594 230.011719 255.652344 230.152344 255.652344 C 230.195312 255.652344 230.238281 255.652344 230.273438 255.636719 Z M 206.25 258.398438 C 206.449219 258.394531 206.597656 258.222656 206.589844 258.03125 L 205.316406 231.234375 C 205.308594 231.035156 205.136719 230.878906 204.945312 230.890625 C 204.746094 230.898438 204.597656 231.070312 204.605469 231.261719 L 205.878906 258.058594 C 205.886719 258.25 206.042969 258.398438 206.234375 258.398438 C 206.242188 258.398438 206.25 258.398438 206.25 258.398438 Z M 180.429688 259.332031 L 182.320312 232.738281 C 182.335938 232.535156 182.1875 232.375 181.992188 232.359375 C 181.789062 232.34375 181.632812 232.496094 181.617188 232.6875 L 179.722656 259.28125 C 179.707031 259.480469 179.859375 259.644531 180.050781 259.660156 C 180.058594 259.660156 180.066406 259.660156 180.078125 259.660156 C 180.257812 259.667969 180.414062 259.523438 180.429688 259.332031 Z M 157.703125 258.050781 L 163.996094 232.003906 C 164.039062 231.8125 163.925781 231.617188 163.734375 231.574219 C 163.542969 231.53125 163.347656 231.648438 163.304688 231.839844 L 157.011719 257.886719 C 156.96875 258.078125 157.085938 258.273438 157.277344 258.316406 C 157.304688 258.320312 157.332031 258.320312 157.363281 258.320312 C 157.519531 258.328125 157.667969 258.214844 157.703125 258.050781 Z M 132.304688 254.890625 L 142.078125 232.414062 C 142.15625 232.238281 142.070312 232.023438 141.894531 231.945312 C 141.714844 231.867188 141.5 231.953125 141.421875 232.132812 L 131.648438 254.613281 C 131.570312 254.789062 131.65625 255.003906 131.832031 255.082031 C 131.875 255.105469 131.925781 255.113281 131.976562 255.113281 C 132.117188 255.109375 132.246094 255.027344 132.304688 254.890625 Z M 132.304688 254.890625 " fill-opacity="1" fill-rule="nonzero"/><path fill="#ffb6c1" d="M 236.285156 163.164062 C 236.285156 163.164062 235.007812 174.617188 228.644531 179.160156 C 228.644531 179.160156 229.371094 185.339844 228.828125 189.152344 C 228.59375 190.777344 215.261719 192.558594 198.558594 193.800781 C 198.558594 193.800781 196.628906 107.144531 191.882812 90.554688 C 191.503906 89.230469 190.222656 88.378906 188.847656 88.527344 L 168.117188 90.734375 C 168.117188 90.734375 159.824219 116.808594 162.636719 195.347656 L 162.644531 195.355469 C 152.066406 195.445312 142.824219 195.132812 137.394531 194.222656 C 136.84375 194.136719 136.433594 193.710938 136.355469 193.160156 C 136.097656 191.316406 135.664062 186.953125 136.496094 182.796875 C 136.496094 182.796875 120.863281 175.519531 115.773438 158.257812 C 110.683594 140.988281 128.21875 104.4375 148.015625 98.09375 C 148.015625 98.09375 153.269531 89.496094 179.78125 83.25 C 179.78125 83.25 198.296875 83.007812 214.109375 90.640625 C 214.109375 90.640625 219.953125 89.132812 230.488281 97.789062 C 234.398438 101.007812 238.953125 105.621094 244.101562 112.238281 C 244.34375 112.546875 244.585938 112.859375 244.828125 113.179688 C 264.273438 138.625 254.820312 159.710938 236.285156 163.164062 Z M 236.285156 163.164062 " fill-opacity="1" fill-rule="nonzero"/><path fill="#000000" d="M 160.367188 55.785156 C 167.394531 82.191406 156.125 92.269531 147.304688 94.691406 C 138.484375 97.113281 139.160156 88.027344 139.160156 88.027344 C 133.585938 88.027344 129.34375 82.9375 139.765625 74.980469 C 150.1875 67.019531 139.765625 44.402344 148 37.375 C 156.238281 30.351562 162.628906 39.796875 162.628906 39.796875 Z M 160.367188 55.785156 " fill-opacity="1" fill-rule="nonzero"/><path fill="#dda98c" d="M 189.148438 81.25 C 189.253906 82.21875 189.390625 83.085938 189.546875 83.863281 C 189.953125 85.949219 190.480469 87.367188 190.957031 88.300781 C 192.375 91.082031 192.835938 94.300781 191.859375 97.261719 C 190.65625 100.933594 187.390625 104.679688 179.125 105 C 162.585938 105.632812 168.117188 90.734375 168.117188 90.734375 C 169.941406 82.824219 166.675781 77.90625 166.675781 77.90625 C 166.675781 77.90625 166.675781 77.898438 166.675781 77.898438 C 165.683594 77.050781 164.84375 76.152344 164.296875 75.277344 C 162.496094 72.417969 161.421875 67.816406 161.285156 64.128906 C 160.90625 53.59375 168.589844 44.765625 178.433594 44.417969 C 188.289062 44.070312 196.574219 52.320312 196.949219 62.855469 C 197.15625 68.714844 195.667969 74.273438 192.59375 78.117188 C 191.613281 79.359375 190.457031 80.417969 189.148438 81.25 Z M 189.148438 81.25 " fill-opacity="1" fill-rule="nonzero"/><path fill="#fffacd" d="M 166.148438 25.210938 C 171.570312 23.941406 175.90625 35.191406 172.007812 39.648438 C 168.105469 44.105469 162.394531 39.269531 162.394531 39.269531 C 162.394531 39.269531 162.117188 46.636719 157.226562 46.921875 C 152.335938 47.207031 146.269531 34.847656 149.515625 31.167969 C 154.378906 25.664062 161.3125 35.425781 161.3125 35.425781 C 161.3125 35.425781 160.722656 26.476562 166.148438 25.210938 Z M 230.488281 97.789062 C 226.367188 99.304688 223.433594 103.261719 223.433594 107.910156 C 223.433594 113.863281 228.261719 118.695312 234.21875 118.695312 C 238.640625 118.695312 242.433594 116.042969 244.101562 112.238281 C 238.953125 105.621094 234.398438 101.007812 230.488281 97.789062 Z M 230.488281 97.789062 " fill-opacity="1" fill-rule="nonzero"/><path fill="#000000" d="M 201.351562 41.214844 C 201.351562 47.421875 195.976562 52.453125 189.339844 52.453125 C 185.882812 52.453125 182.777344 51.082031 180.585938 48.886719 C 176.578125 49.558594 172.027344 49.726562 167.664062 49.195312 C 167.664062 49.195312 168.480469 66.1875 158.300781 65.917969 C 158.300781 65.917969 153.261719 62.550781 154.121094 54.191406 C 155.304688 42.738281 161.269531 41.5625 161.269531 41.5625 C 161.269531 41.5625 163.121094 30 179.980469 34.179688 C 182.179688 31.617188 185.554688 29.972656 189.339844 29.972656 C 195.976562 29.972656 201.351562 35.007812 201.351562 41.214844 Z M 201.351562 41.214844 " fill-opacity="1" fill-rule="nonzero"/><path fill="#e6e6fa" d="M 157.363281 65.445312 C 157.269531 65.445312 157.175781 65.410156 157.105469 65.339844 C 149.886719 57.964844 155.488281 46.660156 155.546875 46.546875 C 155.640625 46.367188 155.851562 46.304688 156.023438 46.390625 C 156.203125 46.480469 156.273438 46.695312 156.179688 46.867188 C 156.125 46.972656 150.753906 57.835938 157.617188 64.84375 C 157.753906 64.984375 157.753906 65.203125 157.613281 65.347656 C 157.539062 65.410156 157.449219 65.445312 157.363281 65.445312 Z M 157.363281 65.445312 " fill-opacity="1" fill-rule="nonzero"/><path fill="#dda98c" d="M 166.679688 68.039062 C 168.445312 71.5625 169.378906 75.257812 166.710938 76.601562 C 164.039062 77.949219 160.445312 76.9375 157.210938 73.007812 C 154.707031 69.96875 155.980469 65.433594 158.644531 64.09375 C 161.320312 62.75 164.914062 64.515625 166.679688 68.039062 Z M 166.679688 68.039062 " fill-opacity="1" fill-rule="nonzero"/><path fill="#000000" d="M 189.546875 83.863281 C 187.367188 85.765625 184.214844 86.960938 180.710938 86.960938 C 175.058594 86.960938 170.332031 83.863281 169.121094 79.707031 C 170.253906 80.425781 171.445312 81.042969 172.574219 81.484375 C 175.679688 82.710938 178.839844 83.4375 182.351562 83.308594 C 184.949219 83.214844 187.226562 82.484375 189.148438 81.25 C 189.253906 82.21875 189.390625 83.085938 189.546875 83.863281 Z M 173.53125 61.253906 C 172.242188 61.253906 171.195312 62.300781 171.195312 63.589844 C 171.195312 64.878906 172.242188 65.925781 173.53125 65.925781 C 174.816406 65.925781 175.863281 64.878906 175.863281 63.589844 C 175.863281 62.300781 174.816406 61.253906 173.53125 61.253906 Z M 188.492188 59.558594 C 187.203125 59.558594 186.160156 60.605469 186.160156 61.894531 C 186.160156 63.183594 187.203125 64.230469 188.492188 64.230469 C 189.78125 64.230469 190.828125 63.183594 190.828125 61.894531 C 190.828125 60.605469 189.78125 59.558594 188.492188 59.558594 Z M 157.492188 68.886719 C 157.53125 68.90625 157.582031 68.914062 157.625 68.914062 C 157.769531 68.914062 157.894531 68.828125 157.953125 68.691406 C 157.960938 68.679688 158.523438 67.347656 159.667969 66.96875 C 160.316406 66.757812 161.058594 66.886719 161.847656 67.363281 C 162.019531 67.460938 162.230469 67.40625 162.339844 67.242188 C 162.4375 67.070312 162.382812 66.855469 162.21875 66.75 C 161.234375 66.160156 160.296875 66.007812 159.441406 66.292969 C 157.988281 66.777344 157.328125 68.351562 157.296875 68.421875 C 157.21875 68.601562 157.304688 68.808594 157.492188 68.886719 Z M 183.988281 65.910156 C 184 65.910156 185.773438 65.953125 186.679688 67.035156 C 187.148438 67.597656 187.3125 68.367188 187.164062 69.3125 C 187.132812 69.503906 187.261719 69.691406 187.453125 69.71875 C 187.476562 69.71875 187.488281 69.726562 187.511719 69.726562 C 187.683594 69.726562 187.832031 69.605469 187.859375 69.425781 C 188.046875 68.265625 187.832031 67.304688 187.21875 66.570312 C 186.101562 65.242188 184.085938 65.199219 184 65.199219 C 184 65.199219 183.996094 65.199219 183.996094 65.199219 C 183.800781 65.199219 183.636719 65.355469 183.636719 65.546875 C 183.636719 65.746094 183.796875 65.910156 183.988281 65.910156 Z M 188.292969 73.035156 C 188.257812 73.058594 184.636719 75.484375 178.492188 74.308594 C 178.300781 74.273438 178.113281 74.402344 178.078125 74.59375 C 178.042969 74.785156 178.171875 74.972656 178.363281 75.007812 C 179.625 75.25 180.777344 75.34375 181.824219 75.34375 C 186.121094 75.34375 188.578125 73.703125 188.707031 73.621094 C 188.871094 73.503906 188.914062 73.285156 188.800781 73.121094 C 188.679688 72.964844 188.457031 72.921875 188.292969 73.035156 Z M 177.480469 56.898438 C 177.265625 56.78125 172.121094 54.121094 167.691406 57.4375 C 167.378906 57.671875 167.316406 58.121094 167.550781 58.433594 C 167.691406 58.621094 167.90625 58.71875 168.117188 58.71875 C 168.269531 58.71875 168.417969 58.675781 168.546875 58.578125 C 172.242188 55.800781 176.625 58.058594 176.8125 58.148438 C 177.160156 58.335938 177.585938 58.199219 177.773438 57.851562 C 177.957031 57.515625 177.828125 57.082031 177.480469 56.898438 Z M 192.585938 54.484375 C 187.320312 52.890625 184.8125 56.796875 184.785156 56.839844 C 184.578125 57.175781 184.679688 57.609375 185.011719 57.816406 C 185.132812 57.886719 185.261719 57.921875 185.390625 57.921875 C 185.625 57.921875 185.859375 57.808594 185.996094 57.59375 C 186.074219 57.472656 187.972656 54.578125 192.175781 55.851562 C 192.550781 55.964844 192.949219 55.75 193.0625 55.375 C 193.179688 54.996094 192.964844 54.597656 192.585938 54.484375 Z M 174.535156 51.855469 C 174.535156 51.855469 174.539062 51.855469 174.539062 51.855469 C 174.734375 51.855469 174.890625 51.699219 174.894531 51.507812 C 174.902344 51.308594 174.746094 51.152344 174.546875 51.144531 C 168.886719 51.03125 167.59375 48.039062 167.535156 47.914062 C 167.464844 47.726562 167.25 47.640625 167.074219 47.714844 C 166.886719 47.785156 166.800781 47.992188 166.875 48.175781 C 166.9375 48.324219 168.375 51.730469 174.535156 51.855469 Z M 167.925781 66.285156 C 167.957031 66.285156 167.984375 66.285156 168.011719 66.28125 L 169.65625 65.886719 C 169.847656 65.84375 169.96875 65.652344 169.921875 65.460938 C 169.878906 65.269531 169.683594 65.15625 169.492188 65.199219 L 167.847656 65.589844 C 167.65625 65.632812 167.535156 65.824219 167.585938 66.015625 C 167.621094 66.179688 167.761719 66.285156 167.925781 66.285156 Z M 172.40625 73.050781 C 172.253906 72.921875 172.027344 72.941406 171.90625 73.101562 C 171.777344 73.25 171.800781 73.476562 171.957031 73.597656 C 172.648438 74.175781 173.457031 74.894531 173.601562 75.09375 C 173.652344 75.234375 173.777344 75.335938 173.941406 75.335938 C 174.140625 75.335938 174.296875 75.179688 174.296875 74.980469 C 174.292969 74.824219 174.292969 74.617188 172.40625 73.050781 Z M 228.582031 178.808594 C 228.460938 178.832031 220.6875 180.191406 212.058594 181.082031 L 205.75 138.785156 C 207.375 135.910156 208.46875 133.441406 209.132812 131.773438 C 209.808594 130.082031 209.300781 128.164062 207.894531 127.011719 L 199.179688 119.929688 L 207.757812 114.632812 C 209.246094 113.714844 210 111.933594 209.636719 110.210938 C 206.824219 96.8125 197.320312 87.507812 197.230469 87.417969 C 197.085938 87.28125 196.859375 87.28125 196.722656 87.421875 C 196.585938 87.566406 196.585938 87.792969 196.730469 87.929688 C 196.824219 88.019531 206.175781 97.175781 208.9375 110.355469 C 209.238281 111.792969 208.613281 113.265625 207.378906 114.027344 L 198.382812 119.585938 C 198.28125 119.644531 198.21875 119.75 198.210938 119.863281 C 198.203125 119.976562 198.253906 120.09375 198.339844 120.164062 L 207.445312 127.558594 C 208.617188 128.515625 209.03125 130.101562 208.476562 131.503906 C 207.144531 134.863281 204.054688 141.5 198.296875 148.183594 C 198.167969 148.332031 198.183594 148.554688 198.332031 148.6875 C 198.394531 148.746094 198.480469 148.773438 198.566406 148.773438 C 198.667969 148.773438 198.765625 148.730469 198.835938 148.652344 C 201.484375 145.578125 203.570312 142.515625 205.1875 139.769531 L 211.359375 181.152344 C 206.859375 181.601562 202.183594 181.914062 198.269531 181.828125 C 198.070312 181.8125 197.910156 181.976562 197.90625 182.175781 C 197.898438 182.375 198.054688 182.53125 198.253906 182.539062 C 198.671875 182.546875 199.101562 182.554688 199.535156 182.554688 C 203.292969 182.554688 207.613281 182.25 211.757812 181.828125 C 211.757812 181.828125 211.765625 181.828125 211.765625 181.828125 C 211.78125 181.828125 211.800781 181.828125 211.816406 181.820312 C 211.824219 181.820312 211.824219 181.8125 211.828125 181.8125 C 220.613281 180.917969 228.585938 179.527344 228.707031 179.507812 C 228.902344 179.472656 229.027344 179.285156 229 179.09375 C 228.957031 178.902344 228.773438 178.773438 228.582031 178.808594 Z M 162.074219 183.75 C 162.273438 183.734375 162.421875 183.574219 162.410156 183.375 C 162.394531 183.175781 162.222656 183.03125 162.03125 183.039062 C 158.992188 183.222656 155.40625 183.238281 151.894531 183.167969 L 154.152344 143.085938 C 155.683594 145.570312 157.574219 148.277344 159.910156 150.988281 C 159.980469 151.066406 160.082031 151.109375 160.179688 151.109375 C 160.265625 151.109375 160.34375 151.082031 160.417969 151.023438 C 160.566406 150.894531 160.578125 150.667969 160.453125 150.519531 C 154.691406 143.828125 151.601562 137.191406 150.273438 133.839844 C 149.714844 132.429688 150.128906 130.84375 151.296875 129.894531 L 160.402344 122.5 C 160.496094 122.425781 160.539062 122.3125 160.53125 122.199219 C 160.523438 122.085938 160.457031 121.980469 160.359375 121.921875 L 151.359375 116.363281 C 150.128906 115.601562 149.503906 114.125 149.800781 112.6875 C 152.5625 99.511719 161.917969 90.355469 162.011719 90.265625 C 162.152344 90.128906 162.152344 89.902344 162.019531 89.757812 C 161.882812 89.617188 161.65625 89.617188 161.511719 89.75 C 161.421875 89.84375 151.910156 99.148438 149.105469 112.546875 C 148.742188 114.277344 149.496094 116.054688 150.984375 116.96875 L 159.5625 122.265625 L 150.847656 129.347656 C 149.429688 130.5 148.933594 132.410156 149.609375 134.109375 C 150.335938 135.945312 151.589844 138.75 153.496094 142.003906 L 151.191406 183.160156 C 143.628906 182.988281 136.632812 182.453125 136.523438 182.441406 C 136.324219 182.425781 136.15625 182.574219 136.140625 182.769531 C 136.125 182.96875 136.269531 183.136719 136.46875 183.152344 C 136.574219 183.160156 143.695312 183.707031 151.339844 183.871094 C 151.390625 183.898438 151.4375 183.921875 151.496094 183.921875 C 151.503906 183.921875 151.511719 183.921875 151.515625 183.921875 C 151.574219 183.921875 151.632812 183.898438 151.679688 183.878906 C 152.992188 183.90625 154.308594 183.921875 155.605469 183.921875 C 157.882812 183.921875 160.097656 183.871094 162.074219 183.75 Z M 243.609375 129.359375 C 243.515625 129.359375 236.140625 129.601562 227.441406 135.148438 C 224.175781 132.957031 220.921875 128.230469 220.886719 128.1875 C 220.769531 128.023438 220.550781 127.980469 220.386719 128.09375 C 220.222656 128.207031 220.179688 128.429688 220.292969 128.585938 C 220.429688 128.785156 223.503906 133.25 226.792969 135.570312 C 224.65625 136.984375 222.457031 138.714844 220.273438 140.84375 C 216.316406 144.703125 215.625 150.933594 218.628906 155.652344 C 219.609375 157.195312 220.605469 158.578125 221.582031 159.753906 C 223.875 162.507812 227.226562 164.058594 230.746094 164.058594 C 231.1875 164.058594 231.632812 164.039062 232.074219 163.988281 L 236.324219 163.511719 C 236.519531 163.488281 236.660156 163.3125 236.640625 163.121094 C 236.617188 162.925781 236.441406 162.785156 236.246094 162.804688 L 231.996094 163.285156 C 228.246094 163.703125 224.558594 162.214844 222.128906 159.296875 C 221.175781 158.152344 220.203125 156.789062 219.226562 155.273438 C 216.398438 150.832031 217.046875 144.980469 220.765625 141.355469 C 231.941406 130.457031 243.503906 130.082031 243.617188 130.074219 C 243.816406 130.066406 243.972656 129.910156 243.964844 129.710938 C 243.964844 129.511719 243.800781 129.382812 243.609375 129.359375 Z M 141.742188 148.296875 C 143.6875 150.554688 144.640625 153.609375 144.355469 156.683594 C 143.976562 160.769531 142.570312 167.070312 137.964844 173.875 C 137.855469 174.039062 137.898438 174.261719 138.054688 174.367188 C 138.121094 174.410156 138.183594 174.433594 138.253906 174.433594 C 138.367188 174.433594 138.484375 174.375 138.546875 174.273438 C 143.238281 167.347656 144.683594 160.917969 145.0625 156.75 C 145.359375 153.488281 144.339844 150.242188 142.277344 147.835938 C 141.367188 146.773438 140.355469 145.828125 139.300781 144.980469 C 139.328125 144.070312 139.523438 139.265625 140.605469 131.832031 C 140.632812 131.640625 140.496094 131.453125 140.304688 131.425781 C 140.113281 131.390625 139.929688 131.53125 139.898438 131.726562 C 138.953125 138.273438 138.683594 142.800781 138.609375 144.445312 C 133.085938 140.332031 126.707031 138.980469 126.628906 138.957031 C 126.4375 138.921875 126.253906 139.042969 126.210938 139.234375 C 126.167969 139.425781 126.292969 139.621094 126.488281 139.65625 C 126.578125 139.675781 136.0625 141.699219 141.742188 148.296875 Z M 211.601562 288.71875 C 207.914062 289.601562 207.011719 287.894531 206.972656 287.824219 C 206.917969 287.695312 206.769531 287.625 206.640625 287.617188 C 206.496094 287.625 206.371094 287.714844 206.320312 287.84375 C 206.292969 287.929688 205.535156 289.929688 203.03125 289.796875 C 200.554688 289.6875 200.046875 287.953125 200.027344 287.878906 C 199.992188 287.738281 199.871094 287.636719 199.71875 287.617188 C 199.578125 287.601562 199.433594 287.671875 199.363281 287.800781 C 199.328125 287.871094 198.453125 289.480469 196.1875 289.3125 C 195.996094 289.296875 195.824219 289.445312 195.804688 289.636719 C 195.789062 289.835938 195.941406 290.007812 196.132812 290.023438 C 197.996094 290.152344 199.078125 289.28125 199.597656 288.675781 C 200.003906 289.375 200.953125 290.414062 202.988281 290.507812 C 203.066406 290.507812 203.136719 290.515625 203.214844 290.515625 C 205.203125 290.515625 206.242188 289.339844 206.695312 288.628906 C 207.300781 289.246094 208.738281 290.128906 211.757812 289.410156 C 211.949219 289.367188 212.066406 289.175781 212.023438 288.984375 C 211.980469 288.792969 211.792969 288.671875 211.601562 288.71875 Z M 173.257812 284.34375 C 173.167969 284.40625 170.910156 285.816406 167.890625 283.914062 C 167.757812 283.828125 167.585938 283.84375 167.472656 283.941406 C 167.316406 284.078125 163.570312 287.21875 160.863281 284.484375 C 160.730469 284.347656 160.515625 284.34375 160.375 284.46875 C 160.351562 284.492188 158.222656 286.3125 154.742188 285.601562 C 154.550781 285.558594 154.359375 285.6875 154.324219 285.878906 C 154.285156 286.070312 154.40625 286.265625 154.601562 286.300781 C 155.226562 286.429688 155.816406 286.484375 156.367188 286.484375 C 158.542969 286.484375 160.019531 285.617188 160.585938 285.210938 C 163.328125 287.660156 166.84375 285.316406 167.726562 284.65625 C 171.042969 286.613281 173.542969 285.011719 173.652344 284.945312 C 173.8125 284.839844 173.855469 284.621094 173.75 284.457031 C 173.644531 284.277344 173.421875 284.234375 173.257812 284.34375 Z M 173.257812 284.34375 " fill-opacity="1" fill-rule="nonzero"/><path fill="#e6e6fa" d="M 185.953125 95.910156 C 185.953125 97.382812 184.757812 98.570312 183.289062 98.570312 C 181.824219 98.570312 180.628906 97.375 180.628906 95.910156 C 180.628906 94.441406 181.824219 93.246094 183.289062 93.246094 C 184.757812 93.246094 185.953125 94.433594 185.953125 95.910156 Z M 177.742188 93.582031 C 176.269531 93.582031 175.082031 94.777344 175.082031 96.242188 C 175.082031 97.710938 176.277344 98.90625 177.742188 98.90625 C 179.21875 98.90625 180.40625 97.710938 180.40625 96.242188 C 180.40625 94.777344 179.21875 93.582031 177.742188 93.582031 Z M 172.773438 90.910156 C 171.300781 90.910156 170.113281 92.109375 170.113281 93.574219 C 170.113281 95.039062 171.308594 96.238281 172.773438 96.238281 C 174.242188 96.238281 175.4375 95.039062 175.4375 93.574219 C 175.4375 92.109375 174.25 90.910156 172.773438 90.910156 Z M 171.527344 89.625 C 171.527344 88.148438 170.332031 86.960938 168.867188 86.960938 C 167.394531 86.960938 166.203125 88.15625 166.203125 89.625 C 166.203125 91.097656 167.398438 92.285156 168.867188 92.285156 C 170.339844 92.292969 171.527344 91.097656 171.527344 89.625 Z M 188.125 90.335938 C 186.648438 90.335938 185.460938 91.53125 185.460938 92.996094 C 185.460938 94.472656 186.65625 95.660156 188.125 95.660156 C 189.589844 95.660156 190.785156 94.464844 190.785156 92.996094 C 190.785156 91.53125 189.597656 90.335938 188.125 90.335938 Z M 190.785156 85.488281 C 189.3125 85.488281 188.125 86.683594 188.125 88.148438 C 188.125 89.625 189.320312 90.8125 190.785156 90.8125 C 192.253906 90.8125 193.449219 89.617188 193.449219 88.148438 C 193.457031 86.683594 192.257812 85.488281 190.785156 85.488281 Z M 163.09375 73.796875 C 161.691406 73.796875 160.550781 74.9375 160.550781 76.339844 C 160.550781 77.742188 161.691406 78.878906 163.09375 78.878906 C 164.496094 78.878906 165.632812 77.742188 165.632812 76.339844 C 165.632812 74.9375 164.496094 73.796875 163.09375 73.796875 Z M 163.09375 73.796875 " fill-opacity="1" fill-rule="nonzero"/></svg>