<svg xmlns="http://www.w3.org/2000/svg" xmlns:xlink="http://www.w3.org/1999/xlink" width="500" zoomAndPan="magnify" viewBox="0 0 375 374.999991" height="500" preserveAspectRatio="xMidYMid meet" version="1.0"><defs><clipPath id="8fe2e18ca2"><path d="M 371.25 0 L 375 0 L 375 375 L 371.25 375 Z M 371.25 0 " clip-rule="nonzero"/></clipPath></defs><g clip-path="url(#8fe2e18ca2)"><path fill="#fffdfa" d="M 371.25 0 L 375 0 L 375 375 L 371.25 375 Z M 371.25 0 " fill-opacity="1" fill-rule="nonzero"/></g><path fill="#332c2a" d="M 339.914062 304.363281 C 339.914062 304.363281 341.703125 314.800781 349.050781 322.796875 C 349.050781 322.796875 353.816406 357.21875 374.921875 375 L 374.921875 292.628906 Z M 339.914062 304.363281 " fill-opacity="1" fill-rule="nonzero"/><path fill="#fac2b8" d="M 298.496094 240.21875 C 297.988281 242.96875 297.457031 245.578125 296.910156 248.058594 C 286.851562 292.796875 268.355469 294.746094 268.355469 294.746094 L 253.207031 236.21875 L 256.765625 224.539062 L 258.648438 218.359375 L 297.066406 230.664062 C 297.066406 230.664062 298.289062 238.996094 298.496094 240.21875 Z M 298.496094 240.21875 " fill-opacity="1" fill-rule="nonzero"/><path fill="#ea6060" d="M 298.496094 240.21875 C 297.988281 242.96875 297.457031 245.578125 296.910156 248.058594 C 276.597656 243.410156 262.191406 230.210938 256.765625 224.539062 L 258.648438 218.359375 L 297.066406 230.664062 C 297.066406 230.664062 298.289062 238.996094 298.496094 240.21875 Z M 298.496094 240.21875 " fill-opacity="1" fill-rule="nonzero"/><path fill="#ffffff" d="M 362.316406 318.5625 C 362.03125 318.5625 361.746094 318.445312 361.550781 318.226562 C 355.074219 311.164062 354.527344 302.636719 354.503906 302.273438 C 354.476562 301.703125 354.90625 301.210938 355.488281 301.171875 C 356.0625 301.144531 356.554688 301.574219 356.59375 302.15625 C 356.59375 302.25 357.097656 309.878906 362.589844 316.253906 L 365.976562 314.734375 C 364.472656 312.269531 360.902344 305.871094 360.488281 299.691406 C 360.449219 299.121094 360.875 298.613281 361.460938 298.574219 C 362.03125 298.535156 362.539062 298.964844 362.578125 299.546875 C 363.058594 306.6875 368.328125 314.527344 368.378906 314.605469 C 368.546875 314.863281 368.597656 315.175781 368.519531 315.472656 C 368.429688 315.773438 368.222656 316.019531 367.949219 316.136719 L 362.757812 318.460938 C 362.601562 318.539062 362.460938 318.5625 362.316406 318.5625 Z M 362.316406 318.5625 " fill-opacity="1" fill-rule="nonzero"/><path fill="#332c2a" d="M 283.710938 19.183594 C 283.710938 19.183594 255.363281 16.859375 243.5 44.960938 C 231.648438 73.050781 257.15625 103.722656 257.15625 103.722656 C 257.15625 103.722656 231.117188 152.175781 273.132812 177.695312 C 315.148438 203.210938 374.90625 135.664062 374.90625 135.664062 L 374.90625 89.066406 C 374.90625 89.066406 367.898438 79.332031 358.902344 79.941406 C 358.902344 79.941406 362.199219 47.324219 346.675781 23.664062 C 331.152344 0 294.09375 4.726562 283.710938 19.183594 Z M 283.710938 19.183594 " fill-opacity="1" fill-rule="nonzero"/><path fill="#5e89a5" d="M 374.921875 117.570312 C 374.921875 117.570312 362.992188 117.324219 355.671875 129.226562 C 348.351562 141.128906 343.066406 147.101562 336.410156 150.8125 C 323.402344 158.082031 313.488281 155.289062 290.734375 160.664062 C 267.980469 166.039062 257.777344 190.039062 254.375 219.59375 C 254.375 219.59375 271.394531 231.949219 294.316406 236.246094 C 294.316406 236.246094 295.339844 262.414062 333.410156 290.085938 C 333.410156 290.085938 328.050781 300.484375 335.929688 306.179688 C 343.808594 311.878906 374.921875 295.953125 374.921875 295.953125 Z M 374.921875 117.570312 " fill-opacity="1" fill-rule="nonzero"/><path fill="#fac2b8" d="M 344.15625 172.828125 C 320.808594 181.652344 307.515625 157.625 307.515625 157.625 C 316.394531 156.25 321.222656 153.136719 318.640625 147.710938 C 317.484375 145.269531 315.785156 142.023438 314.253906 139.167969 C 312.371094 135.664062 310.761719 132.769531 310.761719 132.769531 L 333.878906 122.359375 C 333.878906 122.359375 335.136719 125.59375 337.214844 129.109375 C 338.589844 131.460938 340.34375 133.9375 342.300781 135.652344 C 347.207031 139.949219 353.4375 132.757812 353.4375 132.757812 C 353.4375 132.757812 367.507812 164 344.15625 172.828125 Z M 344.15625 172.828125 " fill-opacity="1" fill-rule="nonzero"/><path fill="#ea6060" d="M 337.214844 129.125 C 330.4375 136.664062 320.40625 138.675781 314.253906 139.167969 C 312.371094 135.664062 310.761719 132.769531 310.761719 132.769531 L 333.878906 122.359375 C 333.878906 122.359375 335.136719 125.605469 337.214844 129.125 Z M 337.214844 129.125 " fill-opacity="1" fill-rule="nonzero"/><path fill="#fac2b8" d="M 321.753906 133.054688 C 340.898438 126.644531 348 110.367188 346.664062 95.6875 C 346.664062 95.6875 359.304688 99.476562 365.339844 88.390625 C 371.375 77.308594 358.605469 60.617188 345.144531 71.699219 C 345.144531 71.699219 311.074219 66.15625 289.550781 42.46875 C 289.550781 42.46875 285.890625 74.335938 265.007812 92.117188 C 265.007812 92.117188 250.09375 88.769531 248.289062 100.945312 C 246.484375 113.117188 261.113281 118.453125 271.679688 112.898438 C 271.679688 112.886719 286.539062 144.84375 321.753906 133.054688 Z M 321.753906 133.054688 " fill-opacity="1" fill-rule="nonzero"/><path fill="#332c2a" d="M 341.5625 308.453125 C 338.003906 308.453125 334.605469 307.570312 332.566406 304.816406 C 330.257812 301.703125 329.53125 298.054688 330.453125 294.265625 C 330.878906 292.527344 331.554688 291.148438 332.023438 290.320312 C 328.867188 287.777344 316.132812 277.183594 303.972656 262.257812 C 303.503906 261.765625 298.546875 256.261719 295.496094 246.746094 C 293.667969 241.007812 292.914062 235 293.265625 228.886719 C 293.691406 221.460938 295.769531 213.867188 299.429688 206.300781 L 295.121094 201.367188 C 294.742188 200.941406 294.78125 200.277344 295.222656 199.902344 C 295.652344 199.527344 296.316406 199.566406 296.691406 200.007812 L 301.453125 205.457031 C 301.726562 205.769531 301.792969 206.222656 301.609375 206.613281 C 293.1875 223.628906 294.71875 237.492188 297.484375 246.136719 C 300.46875 255.46875 305.464844 260.828125 305.515625 260.882812 C 305.53125 260.894531 305.554688 260.921875 305.570312 260.933594 C 319.367188 277.871094 333.890625 289.164062 334.035156 289.28125 C 334.476562 289.632812 334.566406 290.269531 334.242188 290.722656 C 334.230469 290.734375 333.035156 292.410156 332.449219 294.847656 C 331.699219 298.03125 332.292969 300.976562 334.230469 303.597656 C 336.589844 306.792969 341.769531 306.675781 345.714844 306 C 350.179688 305.246094 354.0625 303.636719 354.101562 303.625 C 354.632812 303.402344 355.242188 303.648438 355.464844 304.183594 C 355.683594 304.714844 355.4375 305.324219 354.90625 305.546875 C 354.476562 305.726562 347.804688 308.453125 341.5625 308.453125 Z M 341.5625 308.453125 " fill-opacity="1" fill-rule="nonzero"/><path fill="#332c2a" d="M 294.300781 229.769531 C 294.210938 229.769531 294.121094 229.753906 294.042969 229.730469 C 273.546875 224.394531 255.296875 211.195312 255.117188 211.050781 C 254.648438 210.714844 254.546875 210.066406 254.882812 209.597656 C 255.21875 209.128906 255.871094 209.027344 256.335938 209.363281 C 256.519531 209.496094 274.457031 222.472656 294.5625 227.703125 C 295.121094 227.847656 295.457031 228.417969 295.300781 228.976562 C 295.183594 229.457031 294.757812 229.769531 294.300781 229.769531 Z M 294.300781 229.769531 " fill-opacity="1" fill-rule="nonzero"/><path fill="#332c2a" d="M 356.917969 190 C 356.75 190 356.578125 189.960938 356.425781 189.867188 C 355.917969 189.597656 355.734375 188.960938 356.007812 188.453125 C 357.917969 184.9375 358.085938 178.589844 358.085938 178.523438 C 358.097656 177.953125 358.578125 177.484375 359.148438 177.511719 C 359.722656 177.523438 360.175781 178.003906 360.164062 178.578125 C 360.148438 178.863281 359.980469 185.496094 357.824219 189.453125 C 357.644531 189.804688 357.28125 190 356.917969 190 Z M 356.917969 190 " fill-opacity="1" fill-rule="nonzero"/><path fill="#332c2a" d="M 347.609375 194.605469 C 347.351562 194.605469 347.089844 194.503906 346.882812 194.308594 C 346.46875 193.90625 346.457031 193.242188 346.859375 192.828125 C 350.570312 189.011719 350.039062 183.910156 350.039062 183.859375 C 349.972656 183.289062 350.386719 182.769531 350.960938 182.703125 C 351.53125 182.640625 352.050781 183.054688 352.113281 183.625 C 352.140625 183.871094 352.75 189.765625 348.363281 194.28125 C 348.15625 194.503906 347.882812 194.605469 347.609375 194.605469 Z M 347.609375 194.605469 " fill-opacity="1" fill-rule="nonzero"/><path fill="#ea6060" d="M 347.714844 88.757812 C 347.675781 88.757812 347.636719 88.757812 347.597656 88.757812 C 347.027344 88.691406 346.609375 88.183594 346.675781 87.613281 C 346.6875 87.484375 347.039062 84.238281 348.933594 80.957031 C 350.714844 77.867188 354.21875 74.179688 360.824219 74.128906 C 360.824219 74.128906 360.824219 74.128906 360.835938 74.128906 C 361.410156 74.128906 361.875 74.59375 361.875 75.167969 C 361.875 75.738281 361.421875 76.21875 360.835938 76.21875 C 356.359375 76.242188 352.972656 78.175781 350.777344 81.941406 C 349.089844 84.835938 348.753906 87.796875 348.753906 87.835938 C 348.6875 88.355469 348.234375 88.757812 347.714844 88.757812 Z M 347.714844 88.757812 " fill-opacity="1" fill-rule="nonzero"/><path fill="#ea6060" d="M 356.890625 85.992188 C 356.386719 85.992188 355.929688 85.613281 355.867188 85.09375 C 355.851562 85.058594 355.566406 83.1875 354.152344 82.175781 C 353.257812 81.527344 352.0625 81.332031 350.609375 81.589844 C 350.039062 81.695312 349.503906 81.304688 349.402344 80.746094 C 349.296875 80.1875 349.6875 79.644531 350.246094 79.539062 C 352.296875 79.175781 354.023438 79.5 355.398438 80.5 C 357.539062 82.058594 357.917969 84.707031 357.929688 84.808594 C 358.007812 85.382812 357.605469 85.902344 357.035156 85.976562 C 356.980469 85.976562 356.929688 85.992188 356.890625 85.992188 Z M 356.890625 85.992188 " fill-opacity="1" fill-rule="nonzero"/><path fill="#ea6060" d="M 252.417969 104.644531 C 252.144531 104.644531 251.882812 104.539062 251.675781 104.332031 C 251.273438 103.929688 251.273438 103.265625 251.675781 102.851562 C 254.609375 99.917969 258.324219 98.878906 262.410156 99.855469 C 265.421875 100.566406 267.578125 102.113281 267.667969 102.175781 C 268.136719 102.515625 268.238281 103.164062 267.902344 103.632812 C 267.5625 104.097656 266.914062 104.203125 266.449219 103.863281 C 266.410156 103.839844 264.488281 102.460938 261.878906 101.867188 C 258.503906 101.085938 255.570312 101.917969 253.15625 104.332031 C 252.949219 104.539062 252.6875 104.644531 252.417969 104.644531 Z M 252.417969 104.644531 " fill-opacity="1" fill-rule="nonzero"/><path fill="#ea6060" d="M 260.359375 108.277344 C 260.011719 108.277344 259.671875 108.109375 259.476562 107.785156 C 259.414062 107.695312 257.996094 105.394531 258.609375 103.035156 C 258.945312 101.710938 259.816406 100.644531 261.203125 99.867188 C 261.710938 99.582031 262.347656 99.761719 262.617188 100.269531 C 262.90625 100.773438 262.722656 101.410156 262.214844 101.683594 C 261.332031 102.175781 260.816406 102.789062 260.621094 103.554688 C 260.242188 105.046875 261.230469 106.667969 261.242188 106.679688 C 261.554688 107.175781 261.398438 107.808594 260.917969 108.121094 C 260.738281 108.226562 260.554688 108.277344 260.359375 108.277344 Z M 260.359375 108.277344 " fill-opacity="1" fill-rule="nonzero"/><path fill="#332c2a" d="M 289.773438 85.449219 C 289.863281 85.765625 289.933594 86.085938 289.984375 86.40625 C 290.03125 86.730469 290.058594 87.050781 290.0625 87.367188 C 290.066406 87.679688 290.046875 87.988281 290.007812 88.285156 C 289.964844 88.582031 289.90625 88.863281 289.820312 89.128906 C 289.738281 89.394531 289.632812 89.644531 289.511719 89.867188 C 289.386719 90.09375 289.246094 90.296875 289.089844 90.472656 C 288.929688 90.648438 288.757812 90.796875 288.570312 90.917969 C 288.382812 91.039062 288.1875 91.128906 287.976562 91.1875 C 287.769531 91.25 287.550781 91.277344 287.328125 91.273438 C 287.105469 91.269531 286.882812 91.238281 286.652344 91.171875 C 286.425781 91.105469 286.199219 91.007812 285.976562 90.882812 C 285.75 90.757812 285.535156 90.601562 285.320312 90.421875 C 285.109375 90.238281 284.90625 90.03125 284.714844 89.800781 C 284.523438 89.570312 284.347656 89.320312 284.183594 89.050781 C 284.019531 88.78125 283.871094 88.496094 283.742188 88.199219 C 283.613281 87.898438 283.5 87.589844 283.410156 87.273438 C 283.320312 86.957031 283.25 86.636719 283.203125 86.3125 C 283.152344 85.992188 283.125 85.671875 283.121094 85.355469 C 283.117188 85.039062 283.136719 84.734375 283.175781 84.4375 C 283.21875 84.140625 283.28125 83.859375 283.363281 83.589844 C 283.445312 83.324219 283.550781 83.078125 283.671875 82.851562 C 283.796875 82.628906 283.9375 82.425781 284.09375 82.25 C 284.253906 82.074219 284.425781 81.921875 284.613281 81.804688 C 284.800781 81.683594 285 81.59375 285.207031 81.53125 C 285.414062 81.472656 285.632812 81.445312 285.855469 81.445312 C 286.078125 81.449219 286.300781 81.484375 286.53125 81.550781 C 286.757812 81.617188 286.984375 81.710938 287.207031 81.839844 C 287.433594 81.964844 287.648438 82.121094 287.863281 82.300781 C 288.074219 82.484375 288.277344 82.6875 288.46875 82.917969 C 288.660156 83.148438 288.835938 83.398438 289 83.667969 C 289.164062 83.941406 289.3125 84.222656 289.441406 84.523438 C 289.570312 84.824219 289.683594 85.132812 289.773438 85.449219 Z M 289.773438 85.449219 " fill-opacity="1" fill-rule="nonzero"/><path fill="#332c2a" d="M 288.421875 70.894531 C 288.226562 71.078125 287.957031 71.15625 287.695312 71.078125 C 281.789062 69.339844 273.753906 75.800781 273.675781 75.867188 C 273.535156 75.984375 273.378906 76.035156 273.210938 76.035156 C 273.042969 76.035156 272.886719 75.984375 272.742188 75.867188 C 272.46875 75.644531 272.394531 75.269531 272.546875 74.945312 C 275.289062 69.507812 279.273438 67.910156 282.140625 67.535156 C 285.230469 67.117188 287.644531 68 287.746094 68.039062 C 287.96875 68.117188 288.148438 68.3125 288.203125 68.546875 L 288.628906 70.15625 C 288.695312 70.441406 288.617188 70.714844 288.421875 70.894531 Z M 288.421875 70.894531 " fill-opacity="1" fill-rule="nonzero"/><path fill="#332c2a" d="M 320.433594 80.027344 C 320.5 80.351562 320.539062 80.675781 320.5625 81 C 320.582031 81.324219 320.582031 81.644531 320.558594 81.960938 C 320.535156 82.277344 320.488281 82.578125 320.425781 82.871094 C 320.359375 83.164062 320.273438 83.441406 320.167969 83.699219 C 320.0625 83.957031 319.9375 84.191406 319.792969 84.40625 C 319.652344 84.621094 319.496094 84.8125 319.320312 84.972656 C 319.148438 85.136719 318.964844 85.269531 318.769531 85.375 C 318.570312 85.476562 318.367188 85.550781 318.152344 85.59375 C 317.9375 85.632812 317.722656 85.644531 317.5 85.621094 C 317.277344 85.597656 317.058594 85.546875 316.835938 85.460938 C 316.613281 85.375 316.398438 85.261719 316.183594 85.113281 C 315.972656 84.96875 315.769531 84.796875 315.574219 84.597656 C 315.378906 84.398438 315.195312 84.175781 315.023438 83.929688 C 314.851562 83.683594 314.695312 83.417969 314.554688 83.136719 C 314.414062 82.855469 314.292969 82.558594 314.191406 82.25 C 314.085938 81.9375 314.003906 81.621094 313.9375 81.296875 C 313.875 80.976562 313.832031 80.648438 313.8125 80.324219 C 313.792969 80 313.792969 79.679688 313.816406 79.363281 C 313.839844 79.046875 313.882812 78.746094 313.949219 78.453125 C 314.015625 78.160156 314.101562 77.886719 314.207031 77.625 C 314.3125 77.367188 314.4375 77.132812 314.578125 76.917969 C 314.722656 76.703125 314.878906 76.515625 315.050781 76.351562 C 315.226562 76.1875 315.410156 76.054688 315.605469 75.953125 C 315.804688 75.847656 316.007812 75.773438 316.222656 75.734375 C 316.433594 75.691406 316.652344 75.679688 316.875 75.703125 C 317.09375 75.726562 317.316406 75.78125 317.539062 75.863281 C 317.757812 75.949219 317.976562 76.066406 318.1875 76.210938 C 318.402344 76.355469 318.605469 76.527344 318.800781 76.726562 C 318.996094 76.925781 319.179688 77.148438 319.351562 77.394531 C 319.523438 77.640625 319.679688 77.90625 319.820312 78.1875 C 319.957031 78.472656 320.082031 78.769531 320.183594 79.078125 C 320.289062 79.386719 320.371094 79.703125 320.433594 80.027344 Z M 320.433594 80.027344 " fill-opacity="1" fill-rule="nonzero"/><path fill="#332c2a" d="M 308.515625 67.742188 C 308.773438 67.820312 309.046875 67.753906 309.253906 67.574219 C 313.71875 63.339844 323.820312 65.429688 323.921875 65.457031 C 324.089844 65.496094 324.273438 65.46875 324.414062 65.390625 C 324.558594 65.316406 324.6875 65.199219 324.753906 65.027344 C 324.894531 64.703125 324.792969 64.328125 324.507812 64.121094 C 319.585938 60.523438 315.304688 60.914062 312.589844 61.886719 C 309.65625 62.925781 307.90625 64.820312 307.828125 64.898438 C 307.660156 65.082031 307.59375 65.328125 307.644531 65.5625 L 307.996094 67.195312 C 308.0625 67.457031 308.257812 67.664062 308.515625 67.742188 Z M 308.515625 67.742188 " fill-opacity="1" fill-rule="nonzero"/><path fill="#332c2a" d="M 304.453125 99.722656 C 302.558594 99.722656 301.050781 99.050781 300.988281 99.011719 C 300.46875 98.777344 300.234375 98.152344 300.46875 97.632812 C 300.703125 97.113281 301.324219 96.882812 301.84375 97.113281 C 301.871094 97.128906 303.117188 97.671875 304.582031 97.632812 C 306.425781 97.582031 307.816406 96.648438 308.710938 94.832031 C 308.96875 94.3125 309.59375 94.105469 310.113281 94.363281 C 310.632812 94.621094 310.839844 95.246094 310.578125 95.765625 C 308.984375 98.996094 306.414062 99.710938 304.558594 99.738281 C 304.53125 99.722656 304.492188 99.722656 304.453125 99.722656 Z M 304.453125 99.722656 " fill-opacity="1" fill-rule="nonzero"/><path fill="#ffffff" d="M 251 45.882812 C 248.71875 50.191406 247.511719 54.984375 247.484375 59.851562 C 247.472656 61.769531 250.457031 61.769531 250.457031 59.851562 C 250.46875 55.5 251.535156 51.230469 253.570312 47.390625 C 254.46875 45.6875 251.898438 44.183594 251 45.882812 Z M 251 45.882812 " fill-opacity="1" fill-rule="nonzero"/><path fill="#ffffff" d="M 257.582031 49.15625 C 256.933594 48.777344 255.882812 48.960938 255.542969 49.6875 C 254.207031 52.554688 253.429688 55.578125 253.246094 58.734375 C 253.128906 60.65625 256.117188 60.640625 256.21875 58.734375 C 256.375 56.125 257.011719 53.554688 258.113281 51.191406 C 258.453125 50.464844 258.308594 49.582031 257.582031 49.15625 Z M 257.582031 49.15625 " fill-opacity="1" fill-rule="nonzero"/><path fill="#ffffff" d="M 262.878906 52.515625 C 262.230469 52.128906 261.191406 52.320312 260.839844 53.046875 C 260.308594 54.140625 260.011719 55.269531 259.996094 56.476562 C 259.984375 57.28125 260.683594 57.96875 261.488281 57.96875 C 262.308594 57.96875 262.96875 57.28125 262.980469 56.476562 C 262.996094 55.8125 263.125 55.152344 263.410156 54.554688 C 263.773438 53.828125 263.617188 52.945312 262.878906 52.515625 Z M 262.878906 52.515625 " fill-opacity="1" fill-rule="nonzero"/><path fill="#332c2a" d="M 265.007812 92.703125 C 264.800781 92.703125 264.59375 92.585938 264.488281 92.390625 C 264.332031 92.105469 264.4375 91.742188 264.734375 91.585938 C 276.429688 85.316406 282.398438 72.324219 285.347656 62.523438 C 288.550781 51.839844 288.96875 42.535156 288.980469 42.445312 C 288.992188 42.199219 289.164062 41.976562 289.394531 41.898438 C 289.628906 41.820312 289.890625 41.898438 290.046875 42.105469 C 290.097656 42.183594 295.949219 49.6875 305.632812 56.980469 C 314.550781 63.691406 328.632812 71.582031 345.144531 71.117188 C 345.480469 71.101562 345.742188 71.363281 345.753906 71.699219 C 345.769531 72.023438 345.507812 72.296875 345.171875 72.3125 C 337.71875 72.519531 330.125 71.101562 322.613281 68.09375 C 316.613281 65.691406 310.644531 62.265625 304.882812 57.914062 C 297.351562 52.242188 292.109375 46.429688 290.046875 44.015625 C 289.785156 47.117188 288.953125 54.582031 286.476562 62.847656 C 284.566406 69.207031 282.0625 74.816406 279.050781 79.488281 C 275.261719 85.355469 270.628906 89.792969 265.292969 92.648438 C 265.1875 92.675781 265.097656 92.703125 265.007812 92.703125 Z M 265.007812 92.703125 " fill-opacity="1" fill-rule="nonzero"/><path fill="#fac2b8" d="M 267.835938 294.980469 C 279.285156 289.59375 283.515625 279.574219 270.082031 253.808594 C 256.636719 228.042969 231.144531 203.394531 227.921875 195.539062 C 224.703125 187.703125 222.511719 175.628906 223.535156 170.984375 C 224.5625 166.335938 227.289062 156.265625 228.832031 150.175781 C 230.378906 144.089844 224.378906 142.726562 220.835938 147.722656 C 217.292969 152.71875 214.386719 159.171875 214.386719 159.171875 C 214.386719 159.171875 199.042969 132.652344 194.683594 125.578125 C 190.320312 118.492188 183.6875 121.128906 185.960938 128.761719 C 188.230469 136.390625 194.773438 150.007812 194.773438 150.007812 C 194.773438 150.007812 182.246094 133.03125 174.980469 125.851562 C 167.710938 118.675781 162.894531 124.488281 167.4375 131.578125 C 171.980469 138.664062 181.960938 153.277344 181.960938 153.277344 C 181.960938 153.277344 168.617188 140.117188 163.804688 135.121094 C 158.988281 130.121094 153.445312 136.121094 159.351562 143.570312 C 165.257812 151.019531 172.421875 161.457031 172.421875 161.457031 C 172.421875 161.457031 164.609375 158.277344 157.808594 155.640625 C 151.003906 153.007812 147.265625 157.820312 151.355469 161.910156 C 155.445312 166 171.242188 175.34375 173.421875 177.160156 C 175.601562 178.980469 178.691406 187.15625 184.871094 193.050781 C 191.046875 198.941406 190.683594 198.410156 194.046875 205.042969 C 197.410156 211.675781 220.992188 268.109375 230.949219 281.832031 C 240.902344 295.550781 254.105469 301.441406 267.835938 294.980469 Z M 267.835938 294.980469 " fill-opacity="1" fill-rule="nonzero"/><path fill="#ea6060" d="M 199.433594 184.496094 C 199.433594 184.496094 199.421875 184.496094 199.421875 184.496094 C 198.847656 184.480469 198.382812 184.015625 198.394531 183.445312 C 198.539062 172.359375 203.378906 163.636719 203.585938 163.273438 C 203.871094 162.765625 204.507812 162.597656 205 162.871094 C 205.507812 163.15625 205.675781 163.792969 205.402344 164.285156 C 205.351562 164.375 200.613281 172.929688 200.484375 183.457031 C 200.472656 184.039062 200.003906 184.496094 199.433594 184.496094 Z M 199.433594 184.496094 " fill-opacity="1" fill-rule="nonzero"/><path fill="#ea6060" d="M 200.265625 176.875 C 200.070312 176.875 199.875 176.824219 199.707031 176.707031 C 193.695312 172.851562 189.761719 173.785156 189.722656 173.800781 C 189.167969 173.957031 188.59375 173.632812 188.453125 173.074219 C 188.296875 172.515625 188.632812 171.945312 189.191406 171.789062 C 189.386719 171.734375 193.980469 170.542969 200.847656 174.953125 C 201.328125 175.265625 201.472656 175.914062 201.160156 176.394531 C 200.9375 176.707031 200.613281 176.875 200.265625 176.875 Z M 200.265625 176.875 " fill-opacity="1" fill-rule="nonzero"/><path fill="#ea6060" d="M 276.921875 271.097656 C 276.496094 271.097656 276.09375 270.824219 275.9375 270.394531 C 270.976562 256.3125 261.828125 241.96875 255.027344 232.429688 C 247.640625 222.070312 241.371094 214.957031 241.304688 214.894531 C 240.929688 214.464844 240.96875 213.804688 241.398438 213.425781 C 241.824219 213.050781 242.488281 213.089844 242.863281 213.519531 C 242.929688 213.597656 249.277344 220.773438 256.726562 231.222656 C 263.605469 240.878906 272.871094 255.402344 277.910156 269.707031 C 278.105469 270.253906 277.816406 270.851562 277.273438 271.03125 C 277.15625 271.070312 277.039062 271.097656 276.921875 271.097656 Z M 276.921875 271.097656 " fill-opacity="1" fill-rule="nonzero"/><path fill="#332c2a" d="M 322.496094 116.144531 C 322.183594 120.078125 320.675781 123.582031 316.769531 124.996094 C 313.214844 126.292969 310.113281 124.96875 307.527344 122.570312 C 304.363281 119.621094 302 115.054688 300.570312 111.71875 C 299.519531 109.277344 298.976562 107.484375 298.976562 107.484375 L 319.546875 100.101562 C 319.546875 100.101562 320.300781 101.984375 321.054688 104.722656 C 321.921875 107.902344 322.792969 112.238281 322.496094 116.144531 Z M 322.496094 116.144531 " fill-opacity="1" fill-rule="nonzero"/><path fill="#ffffff" d="M 321.105469 104.683594 C 313.253906 110.148438 304.777344 111.433594 300.519531 111.71875 C 299.46875 109.265625 298.910156 107.460938 298.910156 107.460938 L 319.601562 100.035156 C 319.585938 100.035156 320.351562 101.917969 321.105469 104.683594 Z M 321.105469 104.683594 " fill-opacity="1" fill-rule="nonzero"/><path fill="#ea6060" d="M 322.558594 116.15625 C 322.25 120.117188 320.730469 123.632812 316.796875 125.0625 C 313.214844 126.359375 310.097656 125.035156 307.503906 122.621094 C 309.320312 119.6875 313.929688 114.289062 322.558594 116.15625 Z M 322.558594 116.15625 " fill-opacity="1" fill-rule="nonzero"/></svg>